<?xml version="1.0" encoding="UTF-8"?>
<svg width="570px" height="792px" viewBox="0 0 570 792" version="1.1" xmlns="http://www.w3.org/2000/svg" xmlns:xlink="http://www.w3.org/1999/xlink">
    <!-- Generator: Sketch 54.1 (76490) - https://sketchapp.com -->
    <title>10_create_en</title>
    <desc>Created with Sketch.</desc>
    <g id="10_create_en" stroke="none" stroke-width="1" fill="none" fill-rule="evenodd">
        <rect fill="#00B0FF" x="0" y="0" width="570" height="792"></rect>
        <g id="Group-3" transform="translate(12.000000, 225.000000)">
            <rect id="Rectangle" fill="#0B0C24" x="0" y="0" width="547" height="547" rx="13"></rect>
            <path d="M12,286 L189,286 L189,388 L25,388 C17.8202983,388 12,382.179702 12,375 L12,286 Z" id="Rectangle" fill="#0098CE"></path>
            <path d="M355,286 L532,286 L532,388 L368,388 C360.820298,388 355,382.179702 355,375 L355,286 Z" id="Rectangle" fill="#0098CE" transform="translate(443.500000, 337.000000) scale(-1, 1) translate(-443.500000, -337.000000) "></path>
            <rect id="Rectangle" stroke="#979797" fill="#FFFFFF" x="12.5" y="400.5" width="519" height="64"></rect>
            <path d="M12,465 L532,465 L532,519 C532,525.075132 527.075132,530 521,530 L23,530 C16.9248678,530 12,525.075132 12,519 L12,465 Z" id="Rectangle" fill="#0098CE"></path>
            <text id="ADD-ITEM" font-family="Lato-Bold, Lato" font-size="40" font-weight="bold" fill="#FFFFFF">
                <tspan x="180" y="508">ADD ITEM</tspan>
            </text>
            <text id="-$0.00" font-family="Roboto-Bold, Roboto" font-size="30" font-weight="bold" fill="#FF0088">
                <tspan x="423.805664" y="243">-$0.00</tspan>
            </text>
            <text id="Discount:" font-family="Roboto-Bold, Roboto" font-size="30" font-weight="bold" fill="#00E7FF">
                <tspan x="403.324219" y="189">Discount:</tspan>
            </text>
            <text id="Sub:-Tax:-Tip:" font-family="Roboto-Bold, Roboto" font-size="30" font-weight="bold" fill="#00E7FF">
                <tspan x="21.4140625" y="189">Sub:</tspan>
                <tspan x="23.6259766" y="224">Tax:</tspan>
                <tspan x="30.1298828" y="259">Tip:</tspan>
            </text>
            <text id="$0.00" font-family="Lato-Bold, Lato" font-size="40" font-weight="bold" fill="#659B00">
                <tspan x="411.7" y="446">$0.00</tspan>
            </text>
            <text id="CUSTOMER-1" font-family="Roboto-Bold, Roboto" font-size="40" font-weight="bold" fill="#FFFFFF">
                <tspan x="34.2851562" y="76">CUSTOMER 1</tspan>
            </text>
            <rect id="Rectangle" stroke-opacity="0.329200634" stroke="#00C9FE" stroke-width="3" x="21.5" y="28.5" width="269" height="67" rx="6"></rect>
            <rect id="Rectangle" stroke-opacity="0.329200634" stroke="#00C9FE" stroke-width="3" x="405.5" y="210.5" width="125" height="47" rx="6"></rect>
            <text id="$0.00" font-family="Lato-Bold, Lato" font-size="60" font-weight="bold" fill="#FFFFFF">
                <tspan x="188.55" y="256">$0.00</tspan>
            </text>
            <text id="OPEN" font-family="Roboto-Bold, Roboto" font-size="40" font-weight="bold" fill="#FFFFFF">
                <tspan x="424.419922" y="141">OPEN</tspan>
            </text>
            <path d="M41.2851562,133.539062 C41.2851562,132.432286 40.8945352,131.582685 40.1132812,130.990234 C39.3320273,130.397783 37.9257914,129.77279 35.8945312,129.115234 C33.8632711,128.457679 32.2552143,127.809899 31.0703125,127.171875 C27.8411297,125.427075 26.2265625,123.076838 26.2265625,120.121094 C26.2265625,118.584628 26.6595009,117.214199 27.5253906,116.009766 C28.3912804,114.805333 29.6347575,113.864587 31.2558594,113.1875 C32.8769612,112.510413 34.6966045,112.171875 36.7148438,112.171875 C38.7461039,112.171875 40.5559816,112.53971 42.1445312,113.275391 C43.7330809,114.011071 44.9667925,115.049472 45.8457031,116.390625 C46.7246138,117.731778 47.1640625,119.2552 47.1640625,120.960938 L41.3046875,120.960938 C41.3046875,119.658848 40.8945354,118.646488 40.0742188,117.923828 C39.2539021,117.201168 38.1015699,116.839844 36.6171875,116.839844 C35.1848887,116.839844 34.0716186,117.142575 33.2773438,117.748047 C32.4830689,118.353519 32.0859375,119.151037 32.0859375,120.140625 C32.0859375,121.065109 32.5514276,121.839841 33.4824219,122.464844 C34.4134161,123.089847 35.7838451,123.675779 37.59375,124.222656 C40.9271,125.225265 43.3554611,126.468743 44.8789062,127.953125 C46.4023514,129.437507 47.1640625,131.286447 47.1640625,133.5 C47.1640625,135.96095 46.2330822,137.891269 44.3710938,139.291016 C42.5091053,140.690762 40.0026199,141.390625 36.8515625,141.390625 C34.6640516,141.390625 32.671884,140.990238 30.875,140.189453 C29.078116,139.388668 27.707687,138.291674 26.7636719,136.898438 C25.8196567,135.505201 25.3476562,133.890634 25.3476562,132.054688 L31.2265625,132.054688 C31.2265625,135.192724 33.1015438,136.761719 36.8515625,136.761719 C38.2447986,136.761719 39.3320273,136.478518 40.1132812,135.912109 C40.8945352,135.3457 41.2851562,134.554693 41.2851562,133.539062 Z M68.2382812,128.675781 L56.9882812,128.675781 L56.9882812,136.292969 L70.1914062,136.292969 L70.1914062,141 L51.1289062,141 L51.1289062,112.5625 L70.1523438,112.5625 L70.1523438,117.308594 L56.9882812,117.308594 L56.9882812,124.085938 L68.2382812,124.085938 L68.2382812,128.675781 Z M84.15625,130.589844 L79.4882812,130.589844 L79.4882812,141 L73.6289062,141 L73.6289062,112.5625 L84.1953125,112.5625 C87.5547043,112.5625 90.1458242,113.31119 91.96875,114.808594 C93.7916758,116.305997 94.703125,118.421861 94.703125,121.15625 C94.703125,123.096364 94.2832073,124.714186 93.4433594,126.009766 C92.6035114,127.305345 91.3307377,128.337236 89.625,129.105469 L95.7773438,140.726562 L95.7773438,141 L89.4882812,141 L84.15625,130.589844 Z M79.4882812,125.84375 L84.2148438,125.84375 C85.6862053,125.84375 86.8255168,125.469405 87.6328125,124.720703 C88.4401082,123.972001 88.84375,122.940111 88.84375,121.625 C88.84375,120.283847 88.4628944,119.229171 87.7011719,118.460938 C86.9394493,117.692704 85.7708412,117.308594 84.1953125,117.308594 L79.4882812,117.308594 L79.4882812,125.84375 Z M109.664062,133.949219 L116.109375,112.5625 L122.632812,112.5625 L112.730469,141 L106.617188,141 L96.7539062,112.5625 L103.257812,112.5625 L109.664062,133.949219 Z M142.417969,128.675781 L131.167969,128.675781 L131.167969,136.292969 L144.371094,136.292969 L144.371094,141 L125.308594,141 L125.308594,112.5625 L144.332031,112.5625 L144.332031,117.308594 L131.167969,117.308594 L131.167969,124.085938 L142.417969,124.085938 L142.417969,128.675781 Z M158.335938,130.589844 L153.667969,130.589844 L153.667969,141 L147.808594,141 L147.808594,112.5625 L158.375,112.5625 C161.734392,112.5625 164.325512,113.31119 166.148438,114.808594 C167.971363,116.305997 168.882812,118.421861 168.882812,121.15625 C168.882812,123.096364 168.462895,124.714186 167.623047,126.009766 C166.783199,127.305345 165.510425,128.337236 163.804688,129.105469 L169.957031,140.726562 L169.957031,141 L163.667969,141 L158.335938,130.589844 Z M153.667969,125.84375 L158.394531,125.84375 C159.865893,125.84375 161.005204,125.469405 161.8125,124.720703 C162.619796,123.972001 163.023438,122.940111 163.023438,121.625 C163.023438,120.283847 162.642582,119.229171 161.880859,118.460938 C161.119137,117.692704 159.950529,117.308594 158.375,117.308594 L153.667969,117.308594 L153.667969,125.84375 Z M190.953125,112.5625 L198.257812,133.1875 L205.523438,112.5625 L213.21875,112.5625 L213.21875,141 L207.339844,141 L207.339844,133.226562 L207.925781,119.808594 L200.25,141 L196.226562,141 L188.570312,119.828125 L189.15625,133.226562 L189.15625,141 L183.296875,141 L183.296875,112.5625 L190.953125,112.5625 Z M224.566406,141 L218.707031,141 L218.707031,112.5625 L224.566406,112.5625 L224.566406,141 Z M253.121094,141 L247.261719,141 L235.855469,122.289062 L235.855469,141 L229.996094,141 L229.996094,112.5625 L235.855469,112.5625 L247.28125,131.3125 L247.28125,112.5625 L253.121094,112.5625 L253.121094,141 Z M272.984375,133.539062 C272.984375,132.432286 272.593754,131.582685 271.8125,130.990234 C271.031246,130.397783 269.62501,129.77279 267.59375,129.115234 C265.56249,128.457679 263.954433,127.809899 262.769531,127.171875 C259.540348,125.427075 257.925781,123.076838 257.925781,120.121094 C257.925781,118.584628 258.35872,117.214199 259.224609,116.009766 C260.090499,114.805333 261.333976,113.864587 262.955078,113.1875 C264.57618,112.510413 266.395823,112.171875 268.414062,112.171875 C270.445323,112.171875 272.2552,112.53971 273.84375,113.275391 C275.4323,114.011071 276.666011,115.049472 277.544922,116.390625 C278.423833,117.731778 278.863281,119.2552 278.863281,120.960938 L273.003906,120.960938 C273.003906,119.658848 272.593754,118.646488 271.773438,117.923828 C270.953121,117.201168 269.800789,116.839844 268.316406,116.839844 C266.884107,116.839844 265.770837,117.142575 264.976562,117.748047 C264.182288,118.353519 263.785156,119.151037 263.785156,120.140625 C263.785156,121.065109 264.250646,121.839841 265.181641,122.464844 C266.112635,123.089847 267.483064,123.675779 269.292969,124.222656 C272.626319,125.225265 275.05468,126.468743 276.578125,127.953125 C278.10157,129.437507 278.863281,131.286447 278.863281,133.5 C278.863281,135.96095 277.932301,137.891269 276.070312,139.291016 C274.208324,140.690762 271.701839,141.390625 268.550781,141.390625 C266.36327,141.390625 264.371103,140.990238 262.574219,140.189453 C260.777335,139.388668 259.406906,138.291674 258.462891,136.898438 C257.518875,135.505201 257.046875,133.890634 257.046875,132.054688 L262.925781,132.054688 C262.925781,135.192724 264.800763,136.761719 268.550781,136.761719 C269.944017,136.761719 271.031246,136.478518 271.8125,135.912109 C272.593754,135.3457 272.984375,134.554693 272.984375,133.539062 Z M314.195312,117.308594 L305.484375,117.308594 L305.484375,141 L299.625,141 L299.625,117.308594 L291.03125,117.308594 L291.03125,112.5625 L314.195312,112.5625 L314.195312,117.308594 Z M323.765625,141 L317.90625,141 L317.90625,112.5625 L323.765625,112.5625 L323.765625,141 Z M336.851562,112.5625 L344.15625,133.1875 L351.421875,112.5625 L359.117188,112.5625 L359.117188,141 L353.238281,141 L353.238281,133.226562 L353.824219,119.808594 L346.148438,141 L342.125,141 L334.46875,119.828125 L335.054688,133.226562 L335.054688,141 L329.195312,141 L329.195312,112.5625 L336.851562,112.5625 Z M381.34375,128.675781 L370.09375,128.675781 L370.09375,136.292969 L383.296875,136.292969 L383.296875,141 L364.234375,141 L364.234375,112.5625 L383.257812,112.5625 L383.257812,117.308594 L370.09375,117.308594 L370.09375,124.085938 L381.34375,124.085938 L381.34375,128.675781 Z" id="SERVERMINSTIME" fill="#FFFFFF" fill-rule="nonzero"></path>
            <rect id="Rectangle" fill="#ADFB5F" x="449" y="39" width="82" height="50" rx="3"></rect>
            <ellipse id="Oval" fill="#FFFFFF" cx="491" cy="64" rx="18" ry="19"></ellipse>
            <text id="$" font-family="Roboto-Bold, Roboto" font-size="30" font-weight="bold" fill="#509209">
                <tspan x="482.394043" y="75">$</tspan>
            </text>
            <text id="Custom-Item-1" font-family="Lato-Bold, Lato" font-size="40" font-weight="bold" fill="#949494">
                <tspan x="26.8" y="445">Custom Item 1</tspan>
            </text>
            <rect id="Rectangle" fill="#98CE00" x="189" y="286" width="166" height="102"></rect>
            <path d="M70.0131836,345.351562 L61.7929688,345.351562 L60.3574219,350 L53.9487305,350 L63.074707,325.117188 L68.7143555,325.117188 L77.9086914,350 L71.4658203,350 L70.0131836,345.351562 Z M63.2285156,340.720215 L68.5776367,340.720215 L65.8945312,332.089844 L63.2285156,340.720215 Z M99.2368164,325.117188 L99.2368164,341.403809 C99.2368164,343.249521 98.8437539,344.847405 98.0576172,346.19751 C97.2714804,347.547614 96.143562,348.575843 94.6738281,349.282227 C93.2040942,349.98861 91.4666441,350.341797 89.4614258,350.341797 C86.4308117,350.341797 84.043954,349.555672 82.3007812,347.983398 C80.5576085,346.411125 79.6689455,344.257826 79.6347656,341.523438 L79.6347656,325.117188 L85.6674805,325.117188 L85.6674805,341.643066 C85.7358402,344.366062 87.000476,345.727539 89.4614258,345.727539 C90.703294,345.727539 91.643226,345.385746 92.28125,344.702148 C92.919274,344.018551 93.2382812,342.907723 93.2382812,341.369629 L93.2382812,325.117188 L99.2368164,325.117188 Z M122.513184,329.748535 L115.044922,329.748535 L115.044922,350 L109.046387,350 L109.046387,329.748535 L101.714844,329.748535 L101.714844,325.117188 L122.513184,325.117188 L122.513184,329.748535 Z M145.84082,350 L139.876465,350 L139.876465,339.609375 L131.041016,339.609375 L131.041016,350 L125.04248,350 L125.04248,325.117188 L131.041016,325.117188 L131.041016,334.995117 L139.876465,334.995117 L139.876465,325.117188 L145.84082,325.117188 L145.84082,350 Z" id="AUTH" fill="#080B26" fill-rule="nonzero"></path>
            <text id="PAY" font-family="Roboto-Black, Roboto" font-size="35" font-weight="700" fill="#080B26">
                <tspan x="238" y="350">PAY</tspan>
            </text>
            <text id="CATALOG" font-family="Roboto-Black, Roboto" font-size="35" font-weight="700" fill="#080B26">
                <tspan x="364" y="349">CATALOG</tspan>
            </text>
        </g>
        <polygon id="Path-2" fill="#000000" opacity="0.825497582" points="24 244 24 325 189 325 189 379 189 325 24 325 24 386 179.053424 386.456039 185.417065 386.474756 187 505.5 187 387 24 386 24 509 199.5 509 199.5 614 24 614 24 756.684615 544 756.684615 544 374.684615 544 245 419 244.684615 319 244.684615 319 244"></polygon>
        <rect id="Rectangle" fill="#FFFFFF" x="61" y="47" width="449" height="149" rx="12"></rect>
        <path id="Line-2" d="M103.485,459 L103.485,169 L111.485,169 L111.485,459 L129.485,459 L107.485,503 L85.485,459 L103.485,459 Z" fill="#FFFFFF" fill-rule="nonzero"></path>
        <path d="M107.214111,75.9545898 L100.027588,75.9545898 L100.027588,95.5 L95.1936035,95.5 L95.1936035,75.9545898 L88.1037598,75.9545898 L88.1037598,72.0390625 L107.214111,72.0390625 L107.214111,75.9545898 Z M123.2146,90.6660156 L114.739014,90.6660156 L113.127686,95.5 L107.987549,95.5 L116.720947,72.0390625 L121.200439,72.0390625 L129.982178,95.5 L124.842041,95.5 L123.2146,90.6660156 Z M116.044189,86.7504883 L121.909424,86.7504883 L118.960693,77.96875 L116.044189,86.7504883 Z M137.007568,87.2338867 L137.007568,95.5 L132.173584,95.5 L132.173584,72.0390625 L141.325928,72.0390625 C143.087655,72.0390625 144.6372,72.3613249 145.974609,73.0058594 C147.312018,73.6503938 148.340573,74.5661562 149.060303,75.7531738 C149.780033,76.9401915 150.139893,78.2910081 150.139893,79.8056641 C150.139893,82.1045037 149.353035,83.9172297 147.779297,85.2438965 C146.205559,86.5705633 144.027602,87.2338867 141.245361,87.2338867 L137.007568,87.2338867 Z M137.007568,83.3183594 L141.325928,83.3183594 C142.604254,83.3183594 143.579098,83.0175811 144.250488,82.4160156 C144.921878,81.8144501 145.257568,80.9550837 145.257568,79.8378906 C145.257568,78.6884708 144.919193,77.7592809 144.242432,77.050293 C143.56567,76.341305 142.631109,75.9760743 141.438721,75.9545898 L137.007568,75.9545898 L137.007568,83.3183594 Z M179.337158,75.9545898 L172.150635,75.9545898 L172.150635,95.5 L167.31665,95.5 L167.31665,75.9545898 L160.226807,75.9545898 L160.226807,72.0390625 L179.337158,72.0390625 L179.337158,75.9545898 Z M201.186768,95.5 L196.352783,95.5 L196.352783,85.4453125 L186.926514,85.4453125 L186.926514,95.5 L182.092529,95.5 L182.092529,72.0390625 L186.926514,72.0390625 L186.926514,81.5458984 L196.352783,81.5458984 L196.352783,72.0390625 L201.186768,72.0390625 L201.186768,95.5 Z M219.523682,85.3325195 L210.242432,85.3325195 L210.242432,91.6166992 L221.13501,91.6166992 L221.13501,95.5 L205.408447,95.5 L205.408447,72.0390625 L221.102783,72.0390625 L221.102783,75.9545898 L210.242432,75.9545898 L210.242432,81.5458984 L219.523682,81.5458984 L219.523682,85.3325195 Z M234.831299,70.2021484 L237.022705,71.4750977 C236.098872,72.9360425 235.62085,74.4184495 235.588623,75.9223633 L235.588623,78.6132812 L231.898682,78.6132812 L231.898682,76.1962891 C231.898682,75.1865184 232.180661,74.1096249 232.744629,72.9655762 C233.308597,71.8215275 234.004146,70.9003941 234.831299,70.2021484 Z M240.358154,70.2021484 L242.549561,71.4750977 C241.625728,72.9360425 241.147705,74.4184495 241.115479,75.9223633 L241.115479,78.6132812 L237.425537,78.6132812 L237.425537,76.1962891 C237.425537,75.1865184 237.707517,74.1096249 238.271484,72.9655762 C238.835452,71.8215275 239.531002,70.9003941 240.358154,70.2021484 Z M258.823975,90.6660156 L250.348389,90.6660156 L248.737061,95.5 L243.596924,95.5 L252.330322,72.0390625 L256.809814,72.0390625 L265.591553,95.5 L260.451416,95.5 L258.823975,90.6660156 Z M251.653564,86.7504883 L257.518799,86.7504883 L254.570068,77.96875 L251.653564,86.7504883 Z M285.539795,72.0390625 L285.539795,87.4916992 C285.539795,90.0590949 284.736824,92.089348 283.130859,93.5825195 C281.524894,95.0756911 279.330824,95.8222656 276.548584,95.8222656 C273.809312,95.8222656 271.634041,95.0971752 270.022705,93.6469727 C268.411369,92.1967701 267.5896,90.2041142 267.557373,87.6689453 L267.557373,72.0390625 L272.391357,72.0390625 L272.391357,87.5239258 C272.391357,89.0600663 272.759274,90.1799281 273.495117,90.8835449 C274.230961,91.5871617 275.248773,91.9389648 276.548584,91.9389648 C279.266371,91.9389648 280.646728,90.5102682 280.689697,87.652832 L280.689697,72.0390625 L285.539795,72.0390625 Z M307.163818,75.9545898 L299.977295,75.9545898 L299.977295,95.5 L295.143311,95.5 L295.143311,75.9545898 L288.053467,75.9545898 L288.053467,72.0390625 L307.163818,72.0390625 L307.163818,75.9545898 Z M329.013428,95.5 L324.179443,95.5 L324.179443,85.4453125 L314.753174,85.4453125 L314.753174,95.5 L309.919189,95.5 L309.919189,72.0390625 L314.753174,72.0390625 L314.753174,81.5458984 L324.179443,81.5458984 L324.179443,72.0390625 L329.013428,72.0390625 L329.013428,95.5 Z M334.491943,79.2416992 L332.300537,77.96875 C333.22437,76.5185474 333.702392,75.0200273 333.734619,73.4731445 L333.734619,70.75 L337.440674,70.75 L337.440674,73.2475586 C337.440674,74.2143603 337.172122,75.2617131 336.63501,76.3896484 C336.097898,77.5175838 335.383549,78.4682579 334.491943,79.2416992 Z M340.083252,79.2416992 L337.891846,77.96875 C338.815678,76.5185474 339.293701,75.0200273 339.325928,73.4731445 L339.325928,70.75 L343.031982,70.75 L343.031982,73.2475586 C343.031982,74.2143603 342.76343,75.2617131 342.226318,76.3896484 C341.689206,77.5175838 340.974858,78.4682579 340.083252,79.2416992 Z M354.939697,95.5 L354.939697,72.0390625 L363.157471,72.0390625 C366.004165,72.0390625 368.163323,72.5842231 369.63501,73.6745605 C371.106697,74.764898 371.842529,76.3627824 371.842529,78.4682617 C371.842529,79.6176815 371.547122,80.6301226 370.956299,81.5056152 C370.365476,82.3811079 369.543706,83.0229472 368.490967,83.4311523 C369.694098,83.7319351 370.642086,84.3388626 371.334961,85.2519531 C372.027835,86.1650436 372.374268,87.28222 372.374268,88.6035156 C372.374268,90.8593863 371.654548,92.567377 370.215088,93.7275391 C368.775628,94.8877011 366.72389,95.4785155 364.059814,95.5 L354.939697,95.5 Z M359.773682,85.2841797 L359.773682,91.6166992 L363.914795,91.6166992 C365.053472,91.6166992 365.94238,91.3454617 366.581543,90.8029785 C367.220706,90.2604953 367.540283,89.5112352 367.540283,88.5551758 C367.540283,86.4067275 366.428478,85.3164064 364.204834,85.2841797 L359.773682,85.2841797 Z M359.773682,81.8681641 L363.35083,81.8681641 C365.789319,81.8251951 367.008545,80.8530369 367.008545,78.9516602 C367.008545,77.8881783 366.69971,77.1228051 366.082031,76.6555176 C365.464352,76.1882301 364.489509,75.9545898 363.157471,75.9545898 L359.773682,75.9545898 L359.773682,81.8681641 Z M393.756592,72.0390625 L393.756592,87.4916992 C393.756592,90.0590949 392.953621,92.089348 391.347656,93.5825195 C389.741691,95.0756911 387.547621,95.8222656 384.765381,95.8222656 C382.026109,95.8222656 379.850838,95.0971752 378.239502,93.6469727 C376.628166,92.1967701 375.806397,90.2041142 375.77417,87.6689453 L375.77417,72.0390625 L380.608154,72.0390625 L380.608154,87.5239258 C380.608154,89.0600663 380.976071,90.1799281 381.711914,90.8835449 C382.447758,91.5871617 383.46557,91.9389648 384.765381,91.9389648 C387.483168,91.9389648 388.863525,90.5102682 388.906494,87.652832 L388.906494,72.0390625 L393.756592,72.0390625 Z M415.380615,75.9545898 L408.194092,75.9545898 L408.194092,95.5 L403.360107,95.5 L403.360107,75.9545898 L396.270264,75.9545898 L396.270264,72.0390625 L415.380615,72.0390625 L415.380615,75.9545898 Z M435.796143,75.9545898 L428.609619,75.9545898 L428.609619,95.5 L423.775635,95.5 L423.775635,75.9545898 L416.685791,75.9545898 L416.685791,72.0390625 L435.796143,72.0390625 L435.796143,75.9545898 Z M457.822998,84.3012695 C457.822998,86.6108514 457.414799,88.6357335 456.598389,90.3759766 C455.781978,92.1162196 454.613777,93.4589796 453.09375,94.4042969 C451.573723,95.3496141 449.83082,95.8222656 447.86499,95.8222656 C445.920645,95.8222656 444.185799,95.3549851 442.6604,94.4204102 C441.135002,93.4858352 439.953373,92.1511317 439.115479,90.4162598 C438.277584,88.6813878 437.853272,86.6860464 437.842529,84.4301758 L437.842529,83.2700195 C437.842529,80.9604377 438.258785,78.927499 439.091309,77.1711426 C439.923832,75.4147861 441.10009,74.0666551 442.620117,73.126709 C444.140144,72.1867629 445.877676,71.7167969 447.832764,71.7167969 C449.787852,71.7167969 451.525383,72.1867629 453.04541,73.126709 C454.565437,74.0666551 455.741695,75.4147861 456.574219,77.1711426 C457.406742,78.927499 457.822998,80.9550666 457.822998,83.2539062 L457.822998,84.3012695 Z M452.924561,83.237793 C452.924561,80.7778197 452.484135,78.9086978 451.603271,77.6303711 C450.722408,76.3520444 449.465584,75.7128906 447.832764,75.7128906 C446.210685,75.7128906 444.959233,76.3439878 444.078369,77.6062012 C443.197505,78.8684145 442.751709,80.7187378 442.740967,83.1572266 L442.740967,84.3012695 C442.740967,86.6967893 443.181392,88.5551692 444.062256,89.8764648 C444.94312,91.1977605 446.210685,91.8583984 447.86499,91.8583984 C449.487069,91.8583984 450.73315,91.2219302 451.603271,89.9489746 C452.473393,88.676019 452.913818,86.8203247 452.924561,84.3818359 L452.924561,83.237793 Z M480.413818,95.5 L475.579834,95.5 L466.169678,80.0634766 L466.169678,95.5 L461.335693,95.5 L461.335693,72.0390625 L466.169678,72.0390625 L475.595947,87.5078125 L475.595947,72.0390625 L480.413818,72.0390625 L480.413818,95.5 Z M101.195801,114.95459 L94.0092773,114.95459 L94.0092773,134.5 L89.175293,134.5 L89.175293,114.95459 L82.0854492,114.95459 L82.0854492,111.039062 L101.195801,111.039062 L101.195801,114.95459 Z M123.222656,123.30127 C123.222656,125.610851 122.814457,127.635733 121.998047,129.375977 C121.181637,131.11622 120.013435,132.45898 118.493408,133.404297 C116.973381,134.349614 115.230479,134.822266 113.264648,134.822266 C111.320303,134.822266 109.585457,134.354985 108.060059,133.42041 C106.53466,132.485835 105.353032,131.151132 104.515137,129.41626 C103.677242,127.681388 103.25293,125.686046 103.242188,123.430176 L103.242188,122.27002 C103.242188,119.960438 103.658443,117.927499 104.490967,116.171143 C105.32349,114.414786 106.499748,113.066655 108.019775,112.126709 C109.539803,111.186763 111.277334,110.716797 113.232422,110.716797 C115.18751,110.716797 116.925041,111.186763 118.445068,112.126709 C119.965095,113.066655 121.141353,114.414786 121.973877,116.171143 C122.806401,117.927499 123.222656,119.955067 123.222656,122.253906 L123.222656,123.30127 Z M118.324219,122.237793 C118.324219,119.77782 117.883793,117.908698 117.00293,116.630371 C116.122066,115.352044 114.865243,114.712891 113.232422,114.712891 C111.610343,114.712891 110.358891,115.343988 109.478027,116.606201 C108.597164,117.868415 108.151367,119.718738 108.140625,122.157227 L108.140625,123.30127 C108.140625,125.696789 108.58105,127.555169 109.461914,128.876465 C110.342778,130.197761 111.610343,130.858398 113.264648,130.858398 C114.886727,130.858398 116.132808,130.22193 117.00293,128.948975 C117.873051,127.676019 118.313477,125.820325 118.324219,123.381836 L118.324219,122.237793 Z M139.787109,126.233887 L139.787109,134.5 L134.953125,134.5 L134.953125,111.039062 L144.105469,111.039062 C145.867196,111.039062 147.416741,111.361325 148.75415,112.005859 C150.091559,112.650394 151.120114,113.566156 151.839844,114.753174 C152.559574,115.940191 152.919434,117.291008 152.919434,118.805664 C152.919434,121.104504 152.132576,122.91723 150.558838,124.243896 C148.9851,125.570563 146.807143,126.233887 144.024902,126.233887 L139.787109,126.233887 Z M139.787109,122.318359 L144.105469,122.318359 C145.383795,122.318359 146.358639,122.017581 147.030029,121.416016 C147.701419,120.81445 148.037109,119.955084 148.037109,118.837891 C148.037109,117.688471 147.698734,116.759281 147.021973,116.050293 C146.345211,115.341305 145.41065,114.976074 144.218262,114.95459 L139.787109,114.95459 L139.787109,122.318359 Z M164.923828,125.911621 L161.072754,125.911621 L161.072754,134.5 L156.23877,134.5 L156.23877,111.039062 L164.956055,111.039062 C167.727553,111.039062 169.865227,111.656732 171.369141,112.89209 C172.873054,114.127448 173.625,115.873036 173.625,118.128906 C173.625,119.7295 173.278568,121.064204 172.585693,122.133057 C171.892819,123.20191 170.84278,124.053219 169.435547,124.687012 L174.51123,134.274414 L174.51123,134.5 L169.322754,134.5 L164.923828,125.911621 Z M161.072754,121.996094 L164.972168,121.996094 C166.186041,121.996094 167.125973,121.687259 167.791992,121.06958 C168.458011,120.451901 168.791016,119.600591 168.791016,118.515625 C168.791016,117.409174 168.47681,116.539066 167.848389,115.905273 C167.219968,115.271481 166.255866,114.95459 164.956055,114.95459 L161.072754,114.95459 L161.072754,121.996094 Z M191.414062,124.33252 L182.132812,124.33252 L182.132812,130.616699 L193.025391,130.616699 L193.025391,134.5 L177.298828,134.5 L177.298828,111.039062 L192.993164,111.039062 L192.993164,114.95459 L182.132812,114.95459 L182.132812,120.545898 L191.414062,120.545898 L191.414062,124.33252 Z M204.61084,126.330566 L195.539062,126.330566 L195.539062,122.576172 L204.61084,122.576172 L204.61084,126.330566 Z M221.900391,129.666016 L213.424805,129.666016 L211.813477,134.5 L206.67334,134.5 L215.406738,111.039062 L219.88623,111.039062 L228.667969,134.5 L223.527832,134.5 L221.900391,129.666016 Z M214.72998,125.750488 L220.595215,125.750488 L217.646484,116.96875 L214.72998,125.750488 Z M248.616211,111.039062 L248.616211,126.491699 C248.616211,129.059095 247.81324,131.089348 246.207275,132.58252 C244.60131,134.075691 242.40724,134.822266 239.625,134.822266 C236.885728,134.822266 234.710457,134.097175 233.099121,132.646973 C231.487785,131.19677 230.666016,129.204114 230.633789,126.668945 L230.633789,111.039062 L235.467773,111.039062 L235.467773,126.523926 C235.467773,128.060066 235.83569,129.179928 236.571533,129.883545 C237.307377,130.587162 238.325189,130.938965 239.625,130.938965 C242.342787,130.938965 243.723144,129.510268 243.766113,126.652832 L243.766113,111.039062 L248.616211,111.039062 Z M270.240234,114.95459 L263.053711,114.95459 L263.053711,134.5 L258.219727,134.5 L258.219727,114.95459 L251.129883,114.95459 L251.129883,111.039062 L270.240234,111.039062 L270.240234,114.95459 Z M292.089844,134.5 L287.255859,134.5 L287.255859,124.445312 L277.82959,124.445312 L277.82959,134.5 L272.995605,134.5 L272.995605,111.039062 L277.82959,111.039062 L277.82959,120.545898 L287.255859,120.545898 L287.255859,111.039062 L292.089844,111.039062 L292.089844,134.5 Z M315.583008,123.30127 C315.583008,125.610851 315.174809,127.635733 314.358398,129.375977 C313.541988,131.11622 312.373787,132.45898 310.85376,133.404297 C309.333733,134.349614 307.59083,134.822266 305.625,134.822266 C303.680654,134.822266 301.945808,134.354985 300.42041,133.42041 C298.895012,132.485835 297.713383,131.151132 296.875488,129.41626 C296.037593,127.681388 295.613281,125.686046 295.602539,123.430176 L295.602539,122.27002 C295.602539,119.960438 296.018795,117.927499 296.851318,116.171143 C297.683842,114.414786 298.8601,113.066655 300.380127,112.126709 C301.900154,111.186763 303.637686,110.716797 305.592773,110.716797 C307.547861,110.716797 309.285393,111.186763 310.80542,112.126709 C312.325447,113.066655 313.501705,114.414786 314.334229,116.171143 C315.166752,117.927499 315.583008,119.955067 315.583008,122.253906 L315.583008,123.30127 Z M310.68457,122.237793 C310.68457,119.77782 310.244145,117.908698 309.363281,116.630371 C308.482417,115.352044 307.225594,114.712891 305.592773,114.712891 C303.970695,114.712891 302.719243,115.343988 301.838379,116.606201 C300.957515,117.868415 300.511719,119.718738 300.500977,122.157227 L300.500977,123.30127 C300.500977,125.696789 300.941402,127.555169 301.822266,128.876465 C302.703129,130.197761 303.970695,130.858398 305.625,130.858398 C307.247078,130.858398 308.49316,130.22193 309.363281,128.948975 C310.233403,127.676019 310.673828,125.820325 310.68457,123.381836 L310.68457,122.237793 Z M327.780762,125.911621 L323.929688,125.911621 L323.929688,134.5 L319.095703,134.5 L319.095703,111.039062 L327.812988,111.039062 C330.584487,111.039062 332.72216,111.656732 334.226074,112.89209 C335.729988,114.127448 336.481934,115.873036 336.481934,118.128906 C336.481934,119.7295 336.135502,121.064204 335.442627,122.133057 C334.749752,123.20191 333.699714,124.053219 332.29248,124.687012 L337.368164,134.274414 L337.368164,134.5 L332.179688,134.5 L327.780762,125.911621 Z M323.929688,121.996094 L327.829102,121.996094 C329.042975,121.996094 329.982907,121.687259 330.648926,121.06958 C331.314945,120.451901 331.647949,119.600591 331.647949,118.515625 C331.647949,117.409174 331.333743,116.539066 330.705322,115.905273 C330.076901,115.271481 329.112799,114.95459 327.812988,114.95459 L323.929688,114.95459 L323.929688,121.996094 Z M345.295898,134.5 L340.461914,134.5 L340.461914,111.039062 L345.295898,111.039062 L345.295898,134.5 Z M354.899414,130.616699 L366.726562,130.616699 L366.726562,134.5 L348.856934,134.5 L348.856934,131.664062 L360.458496,114.95459 L348.873047,114.95459 L348.873047,111.039062 L366.46875,111.039062 L366.46875,113.810547 L354.899414,130.616699 Z M383.887207,124.33252 L374.605957,124.33252 L374.605957,130.616699 L385.498535,130.616699 L385.498535,134.5 L369.771973,134.5 L369.771973,111.039062 L385.466309,111.039062 L385.466309,114.95459 L374.605957,114.95459 L374.605957,120.545898 L383.887207,120.545898 L383.887207,124.33252 Z M409.797363,129.666016 L401.321777,129.666016 L399.710449,134.5 L394.570312,134.5 L403.303711,111.039062 L407.783203,111.039062 L416.564941,134.5 L411.424805,134.5 L409.797363,129.666016 Z M402.626953,125.750488 L408.492188,125.750488 L405.543457,116.96875 L402.626953,125.750488 Z M444.634277,114.95459 L437.447754,114.95459 L437.447754,134.5 L432.61377,134.5 L432.61377,114.95459 L425.523926,114.95459 L425.523926,111.039062 L444.634277,111.039062 L444.634277,114.95459 Z M460.634766,129.666016 L452.15918,129.666016 L450.547852,134.5 L445.407715,134.5 L454.141113,111.039062 L458.620605,111.039062 L467.402344,134.5 L462.262207,134.5 L460.634766,129.666016 Z M453.464355,125.750488 L459.32959,125.750488 L456.380859,116.96875 L453.464355,125.750488 Z M469.59375,134.5 L469.59375,111.039062 L477.811523,111.039062 C480.658217,111.039062 482.817375,111.584223 484.289062,112.674561 C485.76075,113.764898 486.496582,115.362782 486.496582,117.468262 C486.496582,118.617682 486.201175,119.630123 485.610352,120.505615 C485.019528,121.381108 484.197759,122.022947 483.14502,122.431152 C484.348151,122.731935 485.296139,123.338863 485.989014,124.251953 C486.681888,125.165044 487.02832,126.28222 487.02832,127.603516 C487.02832,129.859386 486.308601,131.567377 484.869141,132.727539 C483.42968,133.887701 481.377943,134.478516 478.713867,134.5 L469.59375,134.5 Z M474.427734,124.28418 L474.427734,130.616699 L478.568848,130.616699 C479.707525,130.616699 480.596432,130.345462 481.235596,129.802979 C481.874759,129.260495 482.194336,128.511235 482.194336,127.555176 C482.194336,125.406728 481.082531,124.316406 478.858887,124.28418 L474.427734,124.28418 Z M474.427734,120.868164 L478.004883,120.868164 C480.443372,120.825195 481.662598,119.853037 481.662598,117.95166 C481.662598,116.888178 481.353763,116.122805 480.736084,115.655518 C480.118405,115.18823 479.143561,114.95459 477.811523,114.95459 L474.427734,114.95459 L474.427734,120.868164 Z M136.846436,166.732422 L140.004639,150.039062 L144.82251,150.039062 L139.61792,173.5 L134.751709,173.5 L130.932861,157.805664 L127.114014,173.5 L122.247803,173.5 L117.043213,150.039062 L121.861084,150.039062 L125.0354,166.700195 L128.902588,150.039062 L132.995361,150.039062 L136.846436,166.732422 Z M152.572998,173.5 L147.739014,173.5 L147.739014,150.039062 L152.572998,150.039062 L152.572998,173.5 Z M174.712646,153.95459 L167.526123,153.95459 L167.526123,173.5 L162.692139,173.5 L162.692139,153.95459 L155.602295,153.95459 L155.602295,150.039062 L174.712646,150.039062 L174.712646,153.95459 Z M196.562256,173.5 L191.728271,173.5 L191.728271,163.445312 L182.302002,163.445312 L182.302002,173.5 L177.468018,173.5 L177.468018,150.039062 L182.302002,150.039062 L182.302002,159.545898 L191.728271,159.545898 L191.728271,150.039062 L196.562256,150.039062 L196.562256,173.5 Z M222.246826,168.666016 L213.77124,168.666016 L212.159912,173.5 L207.019775,173.5 L215.753174,150.039062 L220.232666,150.039062 L229.014404,173.5 L223.874268,173.5 L222.246826,168.666016 Z M215.076416,164.750488 L220.94165,164.750488 L217.99292,155.96875 L215.076416,164.750488 Z M257.841064,165.685059 C257.658446,168.209485 256.726571,170.19677 255.04541,171.646973 C253.364249,173.097175 251.148695,173.822266 248.398682,173.822266 C245.390854,173.822266 243.024911,172.809825 241.300781,170.784912 C239.576652,168.76 238.7146,165.980486 238.7146,162.446289 L238.7146,161.012207 C238.7146,158.756336 239.112057,156.769052 239.906982,155.050293 C240.701908,153.331534 241.837883,152.012944 243.314941,151.094482 C244.792,150.176021 246.508047,149.716797 248.463135,149.716797 C251.17018,149.716797 253.350822,150.441887 255.005127,151.89209 C256.659432,153.342292 257.615477,155.377917 257.873291,157.999023 L253.039307,157.999023 C252.921142,156.484367 252.499515,155.38599 251.774414,154.703857 C251.049313,154.021725 249.945564,153.680664 248.463135,153.680664 C246.851799,153.680664 245.646,154.258051 244.845703,155.412842 C244.045406,156.567633 243.634522,158.358875 243.613037,160.786621 L243.613037,162.559082 C243.613037,165.094251 243.997066,166.94726 244.765137,168.118164 C245.533207,169.289068 246.744376,169.874512 248.398682,169.874512 C249.891853,169.874512 251.006344,169.533451 251.742188,168.851318 C252.478031,168.169186 252.899658,167.113777 253.00708,165.685059 L257.841064,165.685059 Z M269.700439,164.911621 L265.849365,164.911621 L265.849365,173.5 L261.015381,173.5 L261.015381,150.039062 L269.732666,150.039062 C272.504164,150.039062 274.641838,150.656732 276.145752,151.89209 C277.649666,153.127448 278.401611,154.873036 278.401611,157.128906 C278.401611,158.7295 278.055179,160.064204 277.362305,161.133057 C276.66943,162.20191 275.619392,163.053219 274.212158,163.687012 L279.287842,173.274414 L279.287842,173.5 L274.099365,173.5 L269.700439,164.911621 Z M265.849365,160.996094 L269.748779,160.996094 C270.962653,160.996094 271.902585,160.687259 272.568604,160.06958 C273.234622,159.451901 273.567627,158.600591 273.567627,157.515625 C273.567627,156.409174 273.253421,155.539066 272.625,154.905273 C271.996579,154.271481 271.032477,153.95459 269.732666,153.95459 L265.849365,153.95459 L265.849365,160.996094 Z M296.190674,163.33252 L286.909424,163.33252 L286.909424,169.616699 L297.802002,169.616699 L297.802002,173.5 L282.075439,173.5 L282.075439,150.039062 L297.769775,150.039062 L297.769775,153.95459 L286.909424,153.95459 L286.909424,159.545898 L296.190674,159.545898 L296.190674,163.33252 Z M300.637939,173.5 L300.637939,150.039062 L307.856689,150.039062 C309.9192,150.039062 311.764152,150.503657 313.391602,151.432861 C315.019051,152.362065 316.289302,153.683341 317.202393,155.396729 C318.115483,157.110116 318.572021,159.057118 318.572021,161.237793 L318.572021,162.317383 C318.572021,164.498058 318.12354,166.437003 317.226562,168.134277 C316.329585,169.831551 315.064705,171.147456 313.431885,172.082031 C311.799064,173.016606 309.956797,173.489258 307.905029,173.5 L300.637939,173.5 Z M305.471924,153.95459 L305.471924,169.616699 L307.80835,169.616699 C309.698984,169.616699 311.143794,168.99903 312.142822,167.763672 C313.141851,166.528314 313.6521,164.761242 313.673584,162.462402 L313.673584,161.22168 C313.673584,158.836902 313.179448,157.029547 312.191162,155.799561 C311.202876,154.569574 309.758066,153.95459 307.856689,153.95459 L305.471924,153.95459 Z M327.224854,173.5 L322.390869,173.5 L322.390869,150.039062 L327.224854,150.039062 L327.224854,173.5 Z M349.364502,153.95459 L342.177979,153.95459 L342.177979,173.5 L337.343994,173.5 L337.343994,153.95459 L330.25415,153.95459 L330.25415,150.039062 L349.364502,150.039062 L349.364502,153.95459 Z M378.755127,165.685059 C378.572509,168.209485 377.640633,170.19677 375.959473,171.646973 C374.278312,173.097175 372.062758,173.822266 369.312744,173.822266 C366.304917,173.822266 363.938973,172.809825 362.214844,170.784912 C360.490714,168.76 359.628662,165.980486 359.628662,162.446289 L359.628662,161.012207 C359.628662,158.756336 360.026119,156.769052 360.821045,155.050293 C361.615971,153.331534 362.751946,152.012944 364.229004,151.094482 C365.706062,150.176021 367.422109,149.716797 369.377197,149.716797 C372.084242,149.716797 374.264884,150.441887 375.919189,151.89209 C377.573495,153.342292 378.52954,155.377917 378.787354,157.999023 L373.953369,157.999023 C373.835204,156.484367 373.413578,155.38599 372.688477,154.703857 C371.963375,154.021725 370.859627,153.680664 369.377197,153.680664 C367.765861,153.680664 366.560063,154.258051 365.759766,155.412842 C364.959469,156.567633 364.548584,158.358875 364.5271,160.786621 L364.5271,162.559082 C364.5271,165.094251 364.911129,166.94726 365.679199,168.118164 C366.447269,169.289068 367.658439,169.874512 369.312744,169.874512 C370.805916,169.874512 371.920406,169.533451 372.65625,168.851318 C373.392094,168.169186 373.81372,167.113777 373.921143,165.685059 L378.755127,165.685059 Z M395.174561,168.666016 L386.698975,168.666016 L385.087646,173.5 L379.94751,173.5 L388.680908,150.039062 L393.1604,150.039062 L401.942139,173.5 L396.802002,173.5 L395.174561,168.666016 Z M388.00415,164.750488 L393.869385,164.750488 L390.920654,155.96875 L388.00415,164.750488 Z M412.818604,164.911621 L408.967529,164.911621 L408.967529,173.5 L404.133545,173.5 L404.133545,150.039062 L412.85083,150.039062 C415.622328,150.039062 417.760002,150.656732 419.263916,151.89209 C420.76783,153.127448 421.519775,154.873036 421.519775,157.128906 C421.519775,158.7295 421.173343,160.064204 420.480469,161.133057 C419.787594,162.20191 418.737556,163.053219 417.330322,163.687012 L422.406006,173.274414 L422.406006,173.5 L417.217529,173.5 L412.818604,164.911621 Z M408.967529,160.996094 L412.866943,160.996094 C414.080817,160.996094 415.020749,160.687259 415.686768,160.06958 C416.352787,159.451901 416.685791,158.600591 416.685791,157.515625 C416.685791,156.409174 416.371585,155.539066 415.743164,154.905273 C415.114743,154.271481 414.150641,153.95459 412.85083,153.95459 L408.967529,153.95459 L408.967529,160.996094 Z M425.193604,173.5 L425.193604,150.039062 L432.412354,150.039062 C434.474864,150.039062 436.319816,150.503657 437.947266,151.432861 C439.574715,152.362065 440.844966,153.683341 441.758057,155.396729 C442.671147,157.110116 443.127686,159.057118 443.127686,161.237793 L443.127686,162.317383 C443.127686,164.498058 442.679204,166.437003 441.782227,168.134277 C440.885249,169.831551 439.620369,171.147456 437.987549,172.082031 C436.354728,173.016606 434.512461,173.489258 432.460693,173.5 L425.193604,173.5 Z M430.027588,153.95459 L430.027588,169.616699 L432.364014,169.616699 C434.254648,169.616699 435.699458,168.99903 436.698486,167.763672 C437.697515,166.528314 438.207764,164.761242 438.229248,162.462402 L438.229248,161.22168 C438.229248,158.836902 437.735112,157.029547 436.746826,155.799561 C435.75854,154.569574 434.31373,153.95459 432.412354,153.95459 L430.027588,153.95459 Z M451.071533,166.297363 L447.204346,166.297363 L446.656494,150.039062 L451.619385,150.039062 L451.071533,166.297363 Z M449.137939,168.843262 C449.922123,168.843262 450.55322,169.074216 451.03125,169.536133 C451.50928,169.998049 451.748291,170.588864 451.748291,171.308594 C451.748291,172.017582 451.50928,172.603025 451.03125,173.064941 C450.55322,173.526858 449.922123,173.757812 449.137939,173.757812 C448.364498,173.757812 447.738772,173.526858 447.260742,173.064941 C446.782712,172.603025 446.543701,172.017582 446.543701,171.308594 C446.543701,170.599606 446.782712,170.011477 447.260742,169.544189 C447.738772,169.076902 448.364498,168.843262 449.137939,168.843262 Z" id="TAPTHE“AUTH”BUTTONTOPRE-AUTHORIZEATABWITHACREDITCARD!" fill="#000000" fill-rule="nonzero"></path>
    </g>
</svg>