<?xml version="1.0" encoding="UTF-8"?>
<svg width="570px" height="792px" viewBox="0 0 570 792" version="1.1" xmlns="http://www.w3.org/2000/svg" xmlns:xlink="http://www.w3.org/1999/xlink">
    <!-- Generator: Sketch 54.1 (76490) - https://sketchapp.com -->
    <title>1_create_en</title>
    <desc>Created with Sketch.</desc>
    <g id="1_create_en" stroke="none" stroke-width="1" fill="none" fill-rule="evenodd">
        <rect id="Rectangle" fill="#00B0FF" x="0" y="0" width="570" height="792" rx="16"></rect>
        <path d="M47,226 L524,226 C530.627417,226 536,231.372583 536,238 L536,753 L35,753 L35,238 C35,231.372583 40.372583,226 47,226 Z" id="Rectangle" fill="#080B26"></path>
        <path d="M43,634 L528,634 C532.418278,634 536,637.581722 536,642 L536,753 L35,753 L35,642 C35,637.581722 38.581722,634 43,634 Z" id="Rectangle" fill="#99CC00"></path>
        <polygon id="+" fill="#000000" points="290.327637 687.318848 303.547852 687.318848 303.547852 696.876953 290.327637 696.876953 290.327637 711.818359 280.256836 711.818359 280.256836 696.876953 267 696.876953 267 687.318848 280.256836 687.318848 280.256836 673 290.327637 673"></polygon>
        <rect id="Rectangle" fill="#FFFFFF" x="46" y="47" width="478" height="157" rx="12"></rect>
        <polygon id="Line" fill="#FFFFFF" fill-rule="nonzero" points="275.544534 169.328125 295.543946 169.659445 294.797391 519.87784 336.796156 520.573613 284 612 232.799215 518.850746 274.797979 519.546519"></polygon>
        <g id="TO-CREATE-A-TAB-(OR" transform="translate(93.888916, 74.216797)" fill-rule="nonzero">
            <path d="M73.2993164,4.23779297 L66.112793,4.23779297 L66.112793,23.7832031 L61.2788086,23.7832031 L61.2788086,4.23779297 L54.1889648,4.23779297 L54.1889648,0.322265625 L73.2993164,0.322265625 L73.2993164,4.23779297 Z M95.3261719,12.5844727 C95.3261719,14.8940545 94.9179728,16.9189366 94.1015625,18.6591797 C93.2851522,20.3994228 92.116951,21.7421828 90.5969238,22.6875 C89.0768967,23.6328172 87.3339942,24.1054688 85.3681641,24.1054688 C83.4238184,24.1054688 81.6889725,23.6381883 80.1635742,22.7036133 C78.638176,21.7690383 77.4565472,20.4343348 76.6186523,18.6994629 C75.7807575,16.9645909 75.3564454,14.9692496 75.3457031,12.7133789 L75.3457031,11.5532227 C75.3457031,9.2436408 75.7619587,7.21070214 76.5944824,5.4543457 C77.4270061,3.69798927 78.6032639,2.34985822 80.123291,1.40991211 C81.6433181,0.469966003 83.3808496,0 85.3359375,0 C87.2910254,0 89.0285569,0.469966003 90.548584,1.40991211 C92.0686111,2.34985822 93.2448689,3.69798927 94.0773926,5.4543457 C94.9099163,7.21070214 95.3261719,9.23826976 95.3261719,11.5371094 L95.3261719,12.5844727 Z M90.4277344,11.5209961 C90.4277344,9.06102286 89.9873091,7.19190092 89.1064453,5.91357422 C88.2255815,4.63524751 86.9687582,3.99609375 85.3359375,3.99609375 C83.7138591,3.99609375 82.4624067,4.62719095 81.581543,5.8894043 C80.7006792,7.15161764 80.2548829,9.00194093 80.2441406,11.4404297 L80.2441406,12.5844727 C80.2441406,14.9799924 80.6845659,16.8383723 81.5654297,18.159668 C82.4462935,19.4809636 83.7138589,20.1416016 85.3681641,20.1416016 C86.9902425,20.1416016 88.2363238,19.5051333 89.1064453,18.2321777 C89.9765669,16.9592222 90.4169921,15.1035278 90.4277344,12.6650391 L90.4277344,11.5209961 Z M125.474121,15.9682617 C125.291503,18.4926884 124.359628,20.4799732 122.678467,21.9301758 C120.997306,23.3803783 118.781752,24.1054688 116.031738,24.1054688 C113.023911,24.1054688 110.657968,23.0930277 108.933838,21.0681152 C107.209708,19.0432028 106.347656,16.2636895 106.347656,12.7294922 L106.347656,11.2954102 C106.347656,9.0395395 106.745113,7.05225469 107.540039,5.33349609 C108.334965,3.6147375 109.47094,2.29614717 110.947998,1.37768555 C112.425056,0.459223923 114.141104,0 116.096191,0 C118.803236,0 120.983878,0.725090405 122.638184,2.17529297 C124.292489,3.62549553 125.248534,5.66111971 125.506348,8.28222656 L120.672363,8.28222656 C120.554199,6.76757055 120.132572,5.66919286 119.407471,4.98706055 C118.682369,4.30492823 117.578621,3.96386719 116.096191,3.96386719 C114.484855,3.96386719 113.279057,4.54125399 112.47876,5.69604492 C111.678463,6.85083585 111.267578,8.64207771 111.246094,11.0698242 L111.246094,12.8422852 C111.246094,15.3774541 111.630123,17.2304629 112.398193,18.4013672 C113.166264,19.5722715 114.377433,20.1577148 116.031738,20.1577148 C117.52491,20.1577148 118.639401,19.8166538 119.375244,19.1345215 C120.111088,18.4523892 120.532714,17.3969798 120.640137,15.9682617 L125.474121,15.9682617 Z M137.333496,15.1948242 L133.482422,15.1948242 L133.482422,23.7832031 L128.648438,23.7832031 L128.648438,0.322265625 L137.365723,0.322265625 C140.137221,0.322265625 142.274895,0.939935229 143.778809,2.17529297 C145.282722,3.41065071 146.034668,5.15623872 146.034668,7.41210938 C146.034668,9.01270332 145.688236,10.3474068 144.995361,11.4162598 C144.302487,12.4851128 143.252448,13.3364226 141.845215,13.9702148 L146.920898,23.5576172 L146.920898,23.7832031 L141.732422,23.7832031 L137.333496,15.1948242 Z M133.482422,11.2792969 L137.381836,11.2792969 C138.595709,11.2792969 139.535641,10.9704621 140.20166,10.3527832 C140.867679,9.73510433 141.200684,8.88379449 141.200684,7.79882812 C141.200684,6.69237728 140.886478,5.82226879 140.258057,5.18847656 C139.629636,4.55468433 138.665534,4.23779297 137.365723,4.23779297 L133.482422,4.23779297 L133.482422,11.2792969 Z M163.82373,13.6157227 L154.54248,13.6157227 L154.54248,19.8999023 L165.435059,19.8999023 L165.435059,23.7832031 L149.708496,23.7832031 L149.708496,0.322265625 L165.402832,0.322265625 L165.402832,4.23779297 L154.54248,4.23779297 L154.54248,9.82910156 L163.82373,9.82910156 L163.82373,13.6157227 Z M181.516113,18.9492188 L173.040527,18.9492188 L171.429199,23.7832031 L166.289062,23.7832031 L175.022461,0.322265625 L179.501953,0.322265625 L188.283691,23.7832031 L183.143555,23.7832031 L181.516113,18.9492188 Z M174.345703,15.0336914 L180.210938,15.0336914 L177.262207,6.25195312 L174.345703,15.0336914 Z M208.135254,4.23779297 L200.94873,4.23779297 L200.94873,23.7832031 L196.114746,23.7832031 L196.114746,4.23779297 L189.024902,4.23779297 L189.024902,0.322265625 L208.135254,0.322265625 L208.135254,4.23779297 Z M225.005859,13.6157227 L215.724609,13.6157227 L215.724609,19.8999023 L226.617188,19.8999023 L226.617188,23.7832031 L210.890625,23.7832031 L210.890625,0.322265625 L226.584961,0.322265625 L226.584961,4.23779297 L215.724609,4.23779297 L215.724609,9.82910156 L225.005859,9.82910156 L225.005859,13.6157227 Z M250.916016,18.9492188 L242.44043,18.9492188 L240.829102,23.7832031 L235.688965,23.7832031 L244.422363,0.322265625 L248.901855,0.322265625 L257.683594,23.7832031 L252.543457,23.7832031 L250.916016,18.9492188 Z M243.745605,15.0336914 L249.61084,15.0336914 L246.662109,6.25195312 L243.745605,15.0336914 Z M285.75293,4.23779297 L278.566406,4.23779297 L278.566406,23.7832031 L273.732422,23.7832031 L273.732422,4.23779297 L266.642578,4.23779297 L266.642578,0.322265625 L285.75293,0.322265625 L285.75293,4.23779297 Z M301.753418,18.9492188 L293.277832,18.9492188 L291.666504,23.7832031 L286.526367,23.7832031 L295.259766,0.322265625 L299.739258,0.322265625 L308.520996,23.7832031 L303.380859,23.7832031 L301.753418,18.9492188 Z M294.583008,15.0336914 L300.448242,15.0336914 L297.499512,6.25195312 L294.583008,15.0336914 Z M310.712402,23.7832031 L310.712402,0.322265625 L318.930176,0.322265625 C321.77687,0.322265625 323.936028,0.867426189 325.407715,1.95776367 C326.879402,3.04810115 327.615234,4.64598557 327.615234,6.75146484 C327.615234,7.90088465 327.319827,8.9133257 326.729004,9.78881836 C326.138181,10.664311 325.316412,11.3061503 324.263672,11.7143555 C325.466803,12.0151382 326.414791,12.6220657 327.107666,13.5351562 C327.800541,14.4482468 328.146973,15.5654231 328.146973,16.8867188 C328.146973,19.1425894 327.427253,20.8505801 325.987793,22.0107422 C324.548333,23.1709042 322.496595,23.7617186 319.83252,23.7832031 L310.712402,23.7832031 Z M315.546387,13.5673828 L315.546387,19.8999023 L319.6875,19.8999023 C320.826178,19.8999023 321.715085,19.6286648 322.354248,19.0861816 C322.993411,18.5436985 323.312988,17.7944384 323.312988,16.8383789 C323.312988,14.6899307 322.201183,13.5996095 319.977539,13.5673828 L315.546387,13.5673828 Z M315.546387,10.1513672 L319.123535,10.1513672 C321.562024,10.1083982 322.78125,9.13623998 322.78125,7.23486328 C322.78125,6.1713814 322.472415,5.4060082 321.854736,4.9387207 C321.237057,4.47143321 320.262214,4.23779297 318.930176,4.23779297 L315.546387,4.23779297 L315.546387,10.1513672 Z M76.6508789,53.2441406 C76.6508789,50.7841674 76.9785123,48.4423939 77.6337891,46.21875 C78.2890658,43.9951061 79.255853,42.0266199 80.5341797,40.3132324 C81.8125064,38.5998449 83.1982347,37.4101596 84.6914062,36.7441406 L85.59375,39.2578125 C84.0253828,40.4179746 82.8007857,42.2119019 81.9199219,44.6396484 C81.0390581,47.067395 80.5986328,49.9033041 80.5986328,53.1474609 L80.5986328,53.6469727 C80.5986328,56.9018717 81.0336871,59.748523 81.9038086,62.1870117 C82.7739301,64.6255005 84.0038983,66.446283 85.59375,67.6494141 L84.6914062,70.1147461 C83.2304614,69.4594694 81.8689028,68.3020103 80.6066895,66.642334 C79.3444761,64.9826577 78.3803744,63.0678819 77.7143555,60.8979492 C77.0483365,58.7280165 76.6938479,56.4614376 76.6508789,54.0981445 L76.6508789,53.2441406 Z M107.604492,51.5844727 C107.604492,53.8940545 107.196293,55.9189366 106.379883,57.6591797 C105.563472,59.3994228 104.395271,60.7421828 102.875244,61.6875 C101.355217,62.6328172 99.6123145,63.1054688 97.6464844,63.1054688 C95.7021387,63.1054688 93.9672928,62.6381883 92.4418945,61.7036133 C90.9164963,60.7690383 89.7348675,59.4343348 88.8969727,57.6994629 C88.0590778,55.9645909 87.6347657,53.9692496 87.6240234,51.7133789 L87.6240234,50.5532227 C87.6240234,48.2436408 88.040279,46.2107021 88.8728027,44.4543457 C89.7053264,42.6979893 90.8815842,41.3498582 92.4016113,40.4099121 C93.9216385,39.469966 95.6591699,39 97.6142578,39 C99.5693457,39 101.306877,39.469966 102.826904,40.4099121 C104.346931,41.3498582 105.523189,42.6979893 106.355713,44.4543457 C107.188237,46.2107021 107.604492,48.2382698 107.604492,50.5371094 L107.604492,51.5844727 Z M102.706055,50.5209961 C102.706055,48.0610229 102.265629,46.1919009 101.384766,44.9135742 C100.503902,43.6352475 99.2470785,42.9960938 97.6142578,42.9960938 C95.9921794,42.9960938 94.7407271,43.627191 93.8598633,44.8894043 C92.9789995,46.1516176 92.5332032,48.0019409 92.5224609,50.4404297 L92.5224609,51.5844727 C92.5224609,53.9799924 92.9628862,55.8383723 93.84375,57.159668 C94.7246138,58.4809636 95.9921792,59.1416016 97.6464844,59.1416016 C99.2685628,59.1416016 100.514644,58.5051333 101.384766,57.2321777 C102.254887,55.9592222 102.695312,54.1035278 102.706055,51.6650391 L102.706055,50.5209961 Z M119.802246,54.1948242 L115.951172,54.1948242 L115.951172,62.7832031 L111.117188,62.7832031 L111.117188,39.3222656 L119.834473,39.3222656 C122.605971,39.3222656 124.743645,39.9399352 126.247559,41.175293 C127.751472,42.4106507 128.503418,44.1562387 128.503418,46.4121094 C128.503418,48.0127033 128.156986,49.3474068 127.464111,50.4162598 C126.771237,51.4851128 125.721198,52.3364226 124.313965,52.9702148 L129.389648,62.5576172 L129.389648,62.7832031 L124.201172,62.7832031 L119.802246,54.1948242 Z M115.951172,50.2792969 L119.850586,50.2792969 C121.064459,50.2792969 122.004391,49.9704621 122.67041,49.3527832 C123.336429,48.7351043 123.669434,47.8837945 123.669434,46.7988281 C123.669434,45.6923773 123.355228,44.8222688 122.726807,44.1884766 C122.098386,43.5546843 121.134284,43.237793 119.834473,43.237793 L115.951172,43.237793 L115.951172,50.2792969 Z M153.640137,57.9492188 L145.164551,57.9492188 L143.553223,62.7832031 L138.413086,62.7832031 L147.146484,39.3222656 L151.625977,39.3222656 L160.407715,62.7832031 L155.267578,62.7832031 L153.640137,57.9492188 Z M146.469727,54.0336914 L152.334961,54.0336914 L149.38623,45.2519531 L146.469727,54.0336914 Z M181.677246,62.7832031 L176.843262,62.7832031 L167.433105,47.3466797 L167.433105,62.7832031 L162.599121,62.7832031 L162.599121,39.3222656 L167.433105,39.3222656 L176.859375,54.7910156 L176.859375,39.3222656 L181.677246,39.3222656 L181.677246,62.7832031 Z M213.388184,51.5844727 C213.388184,53.8940545 212.979985,55.9189366 212.163574,57.6591797 C211.347164,59.3994228 210.178963,60.7421828 208.658936,61.6875 C207.138908,62.6328172 205.396006,63.1054688 203.430176,63.1054688 C201.48583,63.1054688 199.750984,62.6381883 198.225586,61.7036133 C196.700188,60.7690383 195.518559,59.4343348 194.680664,57.6994629 C193.842769,55.9645909 193.418457,53.9692496 193.407715,51.7133789 L193.407715,50.5532227 C193.407715,48.2436408 193.82397,46.2107021 194.656494,44.4543457 C195.489018,42.6979893 196.665276,41.3498582 198.185303,40.4099121 C199.70533,39.469966 201.442861,39 203.397949,39 C205.353037,39 207.090569,39.469966 208.610596,40.4099121 C210.130623,41.3498582 211.306881,42.6979893 212.139404,44.4543457 C212.971928,46.2107021 213.388184,48.2382698 213.388184,50.5371094 L213.388184,51.5844727 Z M208.489746,50.5209961 C208.489746,48.0610229 208.049321,46.1919009 207.168457,44.9135742 C206.287593,43.6352475 205.03077,42.9960938 203.397949,42.9960938 C201.775871,42.9960938 200.524418,43.627191 199.643555,44.8894043 C198.762691,46.1516176 198.316895,48.0019409 198.306152,50.4404297 L198.306152,51.5844727 C198.306152,53.9799924 198.746578,55.8383723 199.627441,57.159668 C200.508305,58.4809636 201.775871,59.1416016 203.430176,59.1416016 C205.052254,59.1416016 206.298335,58.5051333 207.168457,57.2321777 C208.038579,55.9592222 208.479004,54.1035278 208.489746,51.6650391 L208.489746,50.5209961 Z M225.585938,54.1948242 L221.734863,54.1948242 L221.734863,62.7832031 L216.900879,62.7832031 L216.900879,39.3222656 L225.618164,39.3222656 C228.389662,39.3222656 230.527336,39.9399352 232.03125,41.175293 C233.535164,42.4106507 234.287109,44.1562387 234.287109,46.4121094 C234.287109,48.0127033 233.940677,49.3474068 233.247803,50.4162598 C232.554928,51.4851128 231.50489,52.3364226 230.097656,52.9702148 L235.17334,62.5576172 L235.17334,62.7832031 L229.984863,62.7832031 L225.585938,54.1948242 Z M221.734863,50.2792969 L225.634277,50.2792969 C226.848151,50.2792969 227.788083,49.9704621 228.454102,49.3527832 C229.120121,48.7351043 229.453125,47.8837945 229.453125,46.7988281 C229.453125,45.6923773 229.138919,44.8222688 228.510498,44.1884766 C227.882077,43.5546843 226.917975,43.237793 225.618164,43.237793 L221.734863,43.237793 L221.734863,50.2792969 Z M237.960938,62.7832031 L237.960938,39.3222656 L245.179688,39.3222656 C247.242198,39.3222656 249.08715,39.7868606 250.7146,40.7160645 C252.342049,41.6452683 253.6123,42.9665442 254.525391,44.6799316 C255.438481,46.3933191 255.89502,48.3403211 255.89502,50.5209961 L255.89502,51.6005859 C255.89502,53.7812609 255.446538,55.7202064 254.549561,57.4174805 C253.652583,59.1147546 252.387703,60.4306594 250.754883,61.3652344 C249.122062,62.2998094 247.279795,62.7724609 245.228027,62.7832031 L237.960938,62.7832031 Z M242.794922,43.237793 L242.794922,58.8999023 L245.131348,58.8999023 C247.021982,58.8999023 248.466792,58.2822327 249.46582,57.046875 C250.464849,55.8115173 250.975098,54.0444451 250.996582,51.7456055 L250.996582,50.5048828 C250.996582,48.1201053 250.502446,46.3127503 249.51416,45.0827637 C248.525874,43.8527771 247.081064,43.237793 245.179688,43.237793 L242.794922,43.237793 Z M273.522949,52.6157227 L264.241699,52.6157227 L264.241699,58.8999023 L275.134277,58.8999023 L275.134277,62.7832031 L259.407715,62.7832031 L259.407715,39.3222656 L275.102051,39.3222656 L275.102051,43.237793 L264.241699,43.237793 L264.241699,48.8291016 L273.522949,48.8291016 L273.522949,52.6157227 Z M286.655273,54.1948242 L282.804199,54.1948242 L282.804199,62.7832031 L277.970215,62.7832031 L277.970215,39.3222656 L286.6875,39.3222656 C289.458998,39.3222656 291.596672,39.9399352 293.100586,41.175293 C294.6045,42.4106507 295.356445,44.1562387 295.356445,46.4121094 C295.356445,48.0127033 295.010013,49.3474068 294.317139,50.4162598 C293.624264,51.4851128 292.574226,52.3364226 291.166992,52.9702148 L296.242676,62.5576172 L296.242676,62.7832031 L291.054199,62.7832031 L286.655273,54.1948242 Z M282.804199,50.2792969 L286.703613,50.2792969 C287.917487,50.2792969 288.857419,49.9704621 289.523438,49.3527832 C290.189456,48.7351043 290.522461,47.8837945 290.522461,46.7988281 C290.522461,45.6923773 290.208255,44.8222688 289.579834,44.1884766 C288.951413,43.5546843 287.987311,43.237793 286.6875,43.237793 L282.804199,43.237793 L282.804199,50.2792969 Z M306.748535,53.6147461 C306.748535,56.0424926 306.399418,58.378895 305.701172,60.6240234 C305.002926,62.8691519 303.998542,64.8510656 302.687988,66.5698242 C301.377435,68.2885828 299.975593,69.4702116 298.482422,70.1147461 L297.580078,67.6494141 C299.105476,66.4999943 300.308589,64.727551 301.189453,62.3320312 C302.070317,59.9365115 302.526855,57.1811679 302.559082,54.065918 L302.559082,53.2119141 C302.559082,49.9999839 302.121342,47.1694458 301.24585,44.7202148 C300.370357,42.2709838 299.148445,40.4340882 297.580078,39.2094727 L298.482422,36.7441406 C299.943367,37.3779329 301.321038,38.5273354 302.615479,40.1923828 C303.909919,41.8574302 304.914303,43.7963757 305.628662,46.0092773 C306.343021,48.222179 306.716308,50.5156131 306.748535,52.8896484 L306.748535,53.6147461 Z" id="TOCREATEATAB(ORANORDER)" fill="#000000"></path>
            <path d="M19.1103516,82.237793 L11.9238281,82.237793 L11.9238281,101.783203 L7.08984375,101.783203 L7.08984375,82.237793 L0,82.237793 L0,78.3222656 L19.1103516,78.3222656 L19.1103516,82.237793 Z M35.1108398,96.9492188 L26.6352539,96.9492188 L25.0239258,101.783203 L19.8837891,101.783203 L28.6171875,78.3222656 L33.0966797,78.3222656 L41.878418,101.783203 L36.7382812,101.783203 L35.1108398,96.9492188 Z M27.9404297,93.0336914 L33.8056641,93.0336914 L30.8569336,84.2519531 L27.9404297,93.0336914 Z M48.9038086,93.5170898 L48.9038086,101.783203 L44.0698242,101.783203 L44.0698242,78.3222656 L53.222168,78.3222656 C54.9838955,78.3222656 56.5334406,78.644528 57.8708496,79.2890625 C59.2082586,79.933597 60.2368128,80.8493593 60.956543,82.036377 C61.6762731,83.2233946 62.0361328,84.5742112 62.0361328,86.0888672 C62.0361328,88.3877068 61.2492754,90.2004328 59.6755371,91.5270996 C58.1017988,92.8537664 55.923842,93.5170898 53.1416016,93.5170898 L48.9038086,93.5170898 Z M48.9038086,89.6015625 L53.222168,89.6015625 C54.5004947,89.6015625 55.4753384,89.3007843 56.1467285,88.6992188 C56.8181186,88.0976532 57.1538086,87.2382868 57.1538086,86.1210938 C57.1538086,84.9716739 56.8154331,84.042484 56.1386719,83.3334961 C55.4619107,82.6245082 54.5273497,82.2592775 53.3349609,82.237793 L48.9038086,82.237793 L48.9038086,89.6015625 Z M91.2333984,82.237793 L84.046875,82.237793 L84.046875,101.783203 L79.2128906,101.783203 L79.2128906,82.237793 L72.1230469,82.237793 L72.1230469,78.3222656 L91.2333984,78.3222656 L91.2333984,82.237793 Z M113.083008,101.783203 L108.249023,101.783203 L108.249023,91.7285156 L98.8227539,91.7285156 L98.8227539,101.783203 L93.9887695,101.783203 L93.9887695,78.3222656 L98.8227539,78.3222656 L98.8227539,87.8291016 L108.249023,87.8291016 L108.249023,78.3222656 L113.083008,78.3222656 L113.083008,101.783203 Z M131.419922,91.6157227 L122.138672,91.6157227 L122.138672,97.8999023 L133.03125,97.8999023 L133.03125,101.783203 L117.304688,101.783203 L117.304688,78.3222656 L132.999023,78.3222656 L132.999023,82.237793 L122.138672,82.237793 L122.138672,87.8291016 L131.419922,87.8291016 L131.419922,91.6157227 Z M162.647461,98.8183594 C161.777339,99.8603568 160.547371,100.668698 158.95752,101.243408 C157.367668,101.818118 155.605967,102.105469 153.672363,102.105469 C151.64208,102.105469 149.86158,101.662358 148.330811,100.776123 C146.800041,99.8898881 145.618412,98.6035241 144.785889,96.9169922 C143.953365,95.2304603 143.526367,93.2485465 143.504883,90.9711914 L143.504883,89.3759766 C143.504883,87.034168 143.899654,85.0066004 144.689209,83.2932129 C145.478764,81.5798254 146.617424,80.2692916 148.105225,79.3615723 C149.593025,78.4538529 151.335928,78 153.333984,78 C156.116225,78 158.291496,78.6633234 159.859863,79.9899902 C161.42823,81.316657 162.35742,83.2475459 162.647461,85.7827148 L157.942383,85.7827148 C157.727538,84.4399347 157.252201,83.4570344 156.516357,82.8339844 C155.780514,82.2109344 154.768073,81.8994141 153.479004,81.8994141 C151.835441,81.8994141 150.583989,82.5170837 149.724609,83.7524414 C148.86523,84.9877991 148.430176,86.8246948 148.419434,89.2631836 L148.419434,90.7617188 C148.419434,93.221692 148.886714,95.0800718 149.821289,96.3369141 C150.755864,97.5937563 152.125479,98.222168 153.930176,98.222168 C155.745615,98.222168 157.040035,97.8354531 157.813477,97.0620117 L157.813477,93.0175781 L153.414551,93.0175781 L153.414551,89.456543 L162.647461,89.456543 L162.647461,98.8183594 Z M175.248047,93.1948242 L171.396973,93.1948242 L171.396973,101.783203 L166.562988,101.783203 L166.562988,78.3222656 L175.280273,78.3222656 C178.051772,78.3222656 180.189446,78.9399352 181.693359,80.175293 C183.197273,81.4106507 183.949219,83.1562387 183.949219,85.4121094 C183.949219,87.0127033 183.602787,88.3474068 182.909912,89.4162598 C182.217038,90.4851128 181.166999,91.3364226 179.759766,91.9702148 L184.835449,101.557617 L184.835449,101.783203 L179.646973,101.783203 L175.248047,93.1948242 Z M171.396973,89.2792969 L175.296387,89.2792969 C176.51026,89.2792969 177.450192,88.9704621 178.116211,88.3527832 C178.78223,87.7351043 179.115234,86.8837945 179.115234,85.7988281 C179.115234,84.6923773 178.801029,83.8222688 178.172607,83.1884766 C177.544186,82.5546843 176.580085,82.237793 175.280273,82.237793 L171.396973,82.237793 L171.396973,89.2792969 Z M201.738281,91.6157227 L192.457031,91.6157227 L192.457031,97.8999023 L203.349609,97.8999023 L203.349609,101.783203 L187.623047,101.783203 L187.623047,78.3222656 L203.317383,78.3222656 L203.317383,82.237793 L192.457031,82.237793 L192.457031,87.8291016 L201.738281,87.8291016 L201.738281,91.6157227 Z M220.300781,91.6157227 L211.019531,91.6157227 L211.019531,97.8999023 L221.912109,97.8999023 L221.912109,101.783203 L206.185547,101.783203 L206.185547,78.3222656 L221.879883,78.3222656 L221.879883,82.237793 L211.019531,82.237793 L211.019531,87.8291016 L220.300781,87.8291016 L220.300781,91.6157227 Z M243.826172,101.783203 L238.992188,101.783203 L229.582031,86.3466797 L229.582031,101.783203 L224.748047,101.783203 L224.748047,78.3222656 L229.582031,78.3222656 L239.008301,93.7910156 L239.008301,78.3222656 L243.826172,78.3222656 L243.826172,101.783203 Z M256.265625,101.783203 L256.265625,78.3222656 L264.483398,78.3222656 C267.330092,78.3222656 269.48925,78.8674262 270.960938,79.9577637 C272.432625,81.0481012 273.168457,82.6459856 273.168457,84.7514648 C273.168457,85.9008847 272.87305,86.9133257 272.282227,87.7888184 C271.691403,88.664311 270.869634,89.3061503 269.816895,89.7143555 C271.020026,90.0151382 271.968014,90.6220657 272.660889,91.5351562 C273.353763,92.4482468 273.700195,93.5654231 273.700195,94.8867188 C273.700195,97.1425894 272.980476,98.8505801 271.541016,100.010742 C270.101555,101.170904 268.049818,101.761719 265.385742,101.783203 L256.265625,101.783203 Z M261.099609,91.5673828 L261.099609,97.8999023 L265.240723,97.8999023 C266.3794,97.8999023 267.268307,97.6286648 267.907471,97.0861816 C268.546634,96.5436985 268.866211,95.7944384 268.866211,94.8383789 C268.866211,92.6899307 267.754406,91.5996095 265.530762,91.5673828 L261.099609,91.5673828 Z M261.099609,88.1513672 L264.676758,88.1513672 C267.115247,88.1083982 268.334473,87.13624 268.334473,85.2348633 C268.334473,84.1713814 268.025638,83.4060082 267.407959,82.9387207 C266.79028,82.4714332 265.815436,82.237793 264.483398,82.237793 L261.099609,82.237793 L261.099609,88.1513672 Z M295.08252,78.3222656 L295.08252,93.7749023 C295.08252,96.342298 294.279549,98.3725511 292.673584,99.8657227 C291.067619,101.358894 288.873549,102.105469 286.091309,102.105469 C283.352037,102.105469 281.176766,101.380378 279.56543,99.9301758 C277.954094,98.4799732 277.132324,96.4873174 277.100098,93.9521484 L277.100098,78.3222656 L281.934082,78.3222656 L281.934082,93.8071289 C281.934082,95.3432694 282.301998,96.4631312 283.037842,97.166748 C283.773685,97.8703648 284.791497,98.222168 286.091309,98.222168 C288.809096,98.222168 290.189453,96.7934713 290.232422,93.9360352 L290.232422,78.3222656 L295.08252,78.3222656 Z M316.706543,82.237793 L309.52002,82.237793 L309.52002,101.783203 L304.686035,101.783203 L304.686035,82.237793 L297.596191,82.237793 L297.596191,78.3222656 L316.706543,78.3222656 L316.706543,82.237793 Z M337.12207,82.237793 L329.935547,82.237793 L329.935547,101.783203 L325.101562,101.783203 L325.101562,82.237793 L318.011719,82.237793 L318.011719,78.3222656 L337.12207,78.3222656 L337.12207,82.237793 Z M359.148926,90.5844727 C359.148926,92.8940545 358.740727,94.9189366 357.924316,96.6591797 C357.107906,98.3994228 355.939705,99.7421828 354.419678,100.6875 C352.899651,101.632817 351.156748,102.105469 349.190918,102.105469 C347.246572,102.105469 345.511726,101.638188 343.986328,100.703613 C342.46093,99.7690383 341.279301,98.4343348 340.441406,96.6994629 C339.603511,94.9645909 339.179199,92.9692496 339.168457,90.7133789 L339.168457,89.5532227 C339.168457,87.2436408 339.584713,85.2107021 340.417236,83.4543457 C341.24976,81.6979893 342.426018,80.3498582 343.946045,79.4099121 C345.466072,78.469966 347.203604,78 349.158691,78 C351.113779,78 352.851311,78.469966 354.371338,79.4099121 C355.891365,80.3498582 357.067623,81.6979893 357.900146,83.4543457 C358.73267,85.2107021 359.148926,87.2382698 359.148926,89.5371094 L359.148926,90.5844727 Z M354.250488,89.5209961 C354.250488,87.0610229 353.810063,85.1919009 352.929199,83.9135742 C352.048335,82.6352475 350.791512,81.9960938 349.158691,81.9960938 C347.536613,81.9960938 346.285161,82.627191 345.404297,83.8894043 C344.523433,85.1516176 344.077637,87.0019409 344.066895,89.4404297 L344.066895,90.5844727 C344.066895,92.9799924 344.50732,94.8383723 345.388184,96.159668 C346.269047,97.4809636 347.536613,98.1416016 349.190918,98.1416016 C350.812996,98.1416016 352.059078,97.5051333 352.929199,96.2321777 C353.799321,94.9592222 354.239746,93.1035278 354.250488,90.6650391 L354.250488,89.5209961 Z M381.739746,101.783203 L376.905762,101.783203 L367.495605,86.3466797 L367.495605,101.783203 L362.661621,101.783203 L362.661621,78.3222656 L367.495605,78.3222656 L376.921875,93.7910156 L376.921875,78.3222656 L381.739746,78.3222656 L381.739746,101.783203 Z" id="TAPTHEGREENBUTTON" fill="#CE0052"></path>
        </g>
    </g>
</svg>