<?xml version="1.0" encoding="UTF-8"?>
<svg width="570px" height="792px" viewBox="0 0 570 792" version="1.1" xmlns="http://www.w3.org/2000/svg" xmlns:xlink="http://www.w3.org/1999/xlink">
    <!-- Generator: Sketch 54.1 (76490) - https://sketchapp.com -->
    <title>1_create_en</title>
    <desc>Created with Sketch.</desc>
    <g id="1_create_en" stroke="none" stroke-width="1" fill="none" fill-rule="evenodd">
        <rect id="Rectangle" fill="#00B0FF" x="0" y="0" width="570" height="792" rx="16"></rect>
        <path d="M47,226 L524,226 C530.627417,226 536,231.372583 536,238 L536,753 L35,753 L35,238 C35,231.372583 40.372583,226 47,226 Z" id="Rectangle" fill="#080B26"></path>
        <path d="M43,634 L528,634 C532.418278,634 536,637.581722 536,642 L536,753 L35,753 L35,642 C35,637.581722 38.581722,634 43,634 Z" id="Rectangle" fill="#99CC00"></path>
        <polygon id="+" fill="#000000" points="290.327637 687.318848 303.547852 687.318848 303.547852 696.876953 290.327637 696.876953 290.327637 711.818359 280.256836 711.818359 280.256836 696.876953 267 696.876953 267 687.318848 280.256836 687.318848 280.256836 673 290.327637 673"></polygon>
        <rect id="Rectangle" fill="#FFFFFF" x="61" y="46.5" width="449" height="126" rx="12"></rect>
        <path d="M117.24,86.22 C118.213338,86.22 119.05333,86.0966679 119.76,85.85 C120.46667,85.6033321 121.046664,85.2633355 121.5,84.83 C121.953336,84.3966645 122.286666,83.8866696 122.5,83.3 C122.713334,82.7133304 122.82,82.0733368 122.82,81.38 C122.82,80.0066598 122.363338,78.9400038 121.45,78.18 C120.536662,77.4199962 119.146676,77.04 117.28,77.04 L114.16,77.04 L114.16,86.22 L117.24,86.22 Z M131.3,101.5 L125.88,101.5 C124.866662,101.5 124.133336,101.113337 123.68,100.34 L118.16,91.44 C117.933332,91.0933316 117.683335,90.8400008 117.41,90.68 C117.136665,90.5199992 116.733336,90.44 116.2,90.44 L114.16,90.44 L114.16,101.5 L108.16,101.5 L108.16,72.48 L117.28,72.48 C119.306677,72.48 121.039993,72.6899979 122.48,73.11 C123.920007,73.5300021 125.099995,74.1133296 126.02,74.86 C126.940005,75.6066704 127.613331,76.4966615 128.04,77.53 C128.466669,78.5633385 128.68,79.6999938 128.68,80.94 C128.68,81.9000048 128.543335,82.8099957 128.27,83.67 C127.996665,84.5300043 127.600003,85.3133298 127.08,86.02 C126.559997,86.7266702 125.920004,87.3533306 125.16,87.9 C124.399996,88.4466694 123.533338,88.886665 122.56,89.22 C122.946669,89.4333344 123.306665,89.6899985 123.64,89.99 C123.973335,90.2900015 124.273332,90.6466646 124.54,91.06 L131.3,101.5 Z M140.18,77.18 L140.18,84.64 L149.86,84.64 L149.86,89.18 L140.18,89.18 L140.18,96.8 L152.62,96.8 L152.62,101.5 L134.14,101.5 L134.14,72.48 L152.62,72.48 L152.62,77.18 L140.18,77.18 Z M172.42,90.48 L169.28,81.6 C169.093332,81.133331 168.896668,80.5866698 168.69,79.96 C168.483332,79.3333302 168.286668,78.653337 168.1,77.92 C167.913332,78.6666704 167.716668,79.3566635 167.51,79.99 C167.303332,80.6233365 167.106668,81.173331 166.92,81.64 L163.8,90.48 L172.42,90.48 Z M182.5,101.5 L177.84,101.5 C177.319997,101.5 176.896668,101.376668 176.57,101.13 C176.243332,100.883332 176.000001,100.566669 175.84,100.18 L173.88,94.64 L162.32,94.64 L160.36,100.18 C160.226666,100.513335 159.993335,100.816665 159.66,101.09 C159.326665,101.363335 158.906669,101.5 158.4,101.5 L153.7,101.5 L165.04,72.48 L171.18,72.48 L182.5,101.5 Z M211.2,86.98 C211.2,89.1000106 210.843337,91.0499911 210.13,92.83 C209.416663,94.6100089 208.410007,96.1399936 207.11,97.42 C205.809993,98.7000064 204.246676,99.6999964 202.42,100.42 C200.593324,101.140004 198.566678,101.5 196.34,101.5 L185.18,101.5 L185.18,72.48 L196.34,72.48 C198.566678,72.48 200.593324,72.8399964 202.42,73.56 C204.246676,74.2800036 205.809993,75.2833269 207.11,76.57 C208.410007,77.8566731 209.416663,79.3866578 210.13,81.16 C210.843337,82.9333422 211.2,84.8733228 211.2,86.98 Z M205.04,86.98 C205.04,85.4599924 204.840002,84.0933394 204.44,82.88 C204.039998,81.6666606 203.46667,80.6400042 202.72,79.8 C201.97333,78.9599958 201.063339,78.3133356 199.99,77.86 C198.916661,77.4066644 197.700007,77.18 196.34,77.18 L191.22,77.18 L191.22,96.8 L196.34,96.8 C197.700007,96.8 198.916661,96.5766689 199.99,96.13 C201.063339,95.6833311 201.97333,95.0366709 202.72,94.19 C203.46667,93.3433291 204.039998,92.3133394 204.44,91.1 C204.840002,89.8866606 205.04,88.513341 205.04,86.98 Z M228.74,90.34 L228.74,101.5 L222.74,101.5 L222.74,90.34 L212.2,72.48 L217.48,72.48 C218.000003,72.48 218.416665,72.6033321 218.73,72.85 C219.043335,73.0966679 219.293332,73.4133314 219.48,73.8 L224.24,82.94 C224.560002,83.5533364 224.849999,84.126664 225.11,84.66 C225.370001,85.193336 225.599999,85.726664 225.8,86.26 C225.986668,85.726664 226.203332,85.1900027 226.45,84.65 C226.696668,84.1099973 226.973332,83.540003 227.28,82.94 L232,73.8 C232.160001,73.4799984 232.399998,73.1800014 232.72,72.9 C233.040002,72.6199986 233.453331,72.48 233.96,72.48 L239.28,72.48 L228.74,90.34 Z M271.98,77.32 L263.5,77.32 L263.5,101.5 L257.48,101.5 L257.48,77.32 L249,77.32 L249,72.48 L271.98,72.48 L271.98,77.32 Z M303.64,86.98 C303.64,89.1000106 303.283337,91.0666576 302.57,92.88 C301.856663,94.6933424 300.850007,96.2599934 299.55,97.58 C298.249994,98.9000066 296.686676,99.9366629 294.86,100.69 C293.033324,101.443337 291.006678,101.82 288.78,101.82 C286.553322,101.82 284.526676,101.443337 282.7,100.69 C280.873324,99.9366629 279.306673,98.9000066 278,97.58 C276.693327,96.2599934 275.683337,94.6933424 274.97,92.88 C274.256663,91.0666576 273.9,89.1000106 273.9,86.98 C273.9,84.8599894 274.256663,82.8966757 274.97,81.09 C275.683337,79.2833243 276.693327,77.7200066 278,76.4 C279.306673,75.0799934 280.873324,74.0433371 282.7,73.29 C284.526676,72.5366629 286.553322,72.16 288.78,72.16 C291.006678,72.16 293.033324,72.5366629 294.86,73.29 C296.686676,74.0433371 298.249994,75.0833267 299.55,76.41 C300.850007,77.7366733 301.856663,79.3033243 302.57,81.11 C303.283337,82.9166757 303.64,84.8733228 303.64,86.98 Z M297.5,86.98 C297.5,85.4599924 297.300002,84.0966727 296.9,82.89 C296.499998,81.6833273 295.923337,80.6566709 295.17,79.81 C294.416663,78.9633291 293.503339,78.3166689 292.43,77.87 C291.356661,77.4233311 290.140007,77.2 288.78,77.2 C287.419993,77.2 286.200005,77.4233311 285.12,77.87 C284.039995,78.3166689 283.123337,78.9633291 282.37,79.81 C281.616663,80.6566709 281.040002,81.6833273 280.64,82.89 C280.239998,84.0966727 280.04,85.4599924 280.04,86.98 C280.04,88.513341 280.239998,89.8833273 280.64,91.09 C281.040002,92.2966727 281.616663,93.3199958 282.37,94.16 C283.123337,95.0000042 284.039995,95.6433311 285.12,96.09 C286.200005,96.5366689 287.419993,96.76 288.78,96.76 C290.140007,96.76 291.356661,96.5366689 292.43,96.09 C293.503339,95.6433311 294.416663,95.0000042 295.17,94.16 C295.923337,93.3199958 296.499998,92.2966727 296.9,91.09 C297.300002,89.8833273 297.5,88.513341 297.5,86.98 Z M337.3,94.36 C337.633335,94.36 337.913332,94.4799988 338.14,94.72 L340.52,97.26 C339.346661,98.7533408 337.890009,99.8866628 336.15,100.66 C334.409991,101.433337 332.340012,101.82 329.94,101.82 C327.766656,101.82 325.813342,101.450004 324.08,100.71 C322.346658,99.9699963 320.873339,98.9400066 319.66,97.62 C318.446661,96.2999934 317.513337,94.7333424 316.86,92.92 C316.206663,91.1066576 315.88,89.1266774 315.88,86.98 C315.88,85.5399928 316.036665,84.1700065 316.35,82.87 C316.663335,81.5699935 317.119997,80.3733388 317.72,79.28 C318.320003,78.1866612 319.043329,77.2000044 319.89,76.32 C320.736671,75.4399956 321.693328,74.6900031 322.76,74.07 C323.826672,73.4499969 324.989994,72.9766683 326.25,72.65 C327.510006,72.3233317 328.853326,72.16 330.28,72.16 C331.346672,72.16 332.356662,72.2533324 333.31,72.44 C334.263338,72.6266676 335.153329,72.886665 335.98,73.22 C336.806671,73.553335 337.569997,73.9566643 338.27,74.43 C338.970004,74.9033357 339.599997,75.4199972 340.16,75.98 L338.14,78.74 C338.019999,78.9133342 337.866668,79.066666 337.68,79.2 C337.493332,79.333334 337.240002,79.4 336.92,79.4 C336.599998,79.4 336.276668,79.2866678 335.95,79.06 C335.623332,78.8333322 335.223336,78.5800014 334.75,78.3 C334.276664,78.0199986 333.683337,77.7666678 332.97,77.54 C332.256663,77.3133322 331.353339,77.2 330.26,77.2 C329.046661,77.2 327.933338,77.4199978 326.92,77.86 C325.906662,78.3000022 325.03667,78.9366625 324.31,79.77 C323.58333,80.6033375 323.020002,81.6266606 322.62,82.84 C322.219998,84.0533394 322.02,85.4333256 322.02,86.98 C322.02,88.5400078 322.236665,89.9299939 322.67,91.15 C323.103336,92.3700061 323.696663,93.3999958 324.45,94.24 C325.203337,95.0800042 326.083328,95.7166645 327.09,96.15 C328.096672,96.5833355 329.173328,96.8 330.32,96.8 C331.000003,96.8 331.616664,96.766667 332.17,96.7 C332.723336,96.633333 333.236664,96.5200008 333.71,96.36 C334.183336,96.1999992 334.629998,95.9933346 335.05,95.74 C335.470002,95.4866654 335.893331,95.1666686 336.32,94.78 C336.466667,94.6599994 336.619999,94.5600004 336.78,94.48 C336.940001,94.3999996 337.113332,94.36 337.3,94.36 Z M352.98,86.22 C353.953338,86.22 354.79333,86.0966679 355.5,85.85 C356.20667,85.6033321 356.786664,85.2633355 357.24,84.83 C357.693336,84.3966645 358.026666,83.8866696 358.24,83.3 C358.453334,82.7133304 358.56,82.0733368 358.56,81.38 C358.56,80.0066598 358.103338,78.9400038 357.19,78.18 C356.276662,77.4199962 354.886676,77.04 353.02,77.04 L349.9,77.04 L349.9,86.22 L352.98,86.22 Z M367.04,101.5 L361.62,101.5 C360.606662,101.5 359.873336,101.113337 359.42,100.34 L353.9,91.44 C353.673332,91.0933316 353.423335,90.8400008 353.15,90.68 C352.876665,90.5199992 352.473336,90.44 351.94,90.44 L349.9,90.44 L349.9,101.5 L343.9,101.5 L343.9,72.48 L353.02,72.48 C355.046677,72.48 356.779993,72.6899979 358.22,73.11 C359.660007,73.5300021 360.839995,74.1133296 361.76,74.86 C362.680005,75.6066704 363.353331,76.4966615 363.78,77.53 C364.206669,78.5633385 364.42,79.6999938 364.42,80.94 C364.42,81.9000048 364.283335,82.8099957 364.01,83.67 C363.736665,84.5300043 363.340003,85.3133298 362.82,86.02 C362.299997,86.7266702 361.660004,87.3533306 360.9,87.9 C360.139996,88.4466694 359.273338,88.886665 358.3,89.22 C358.686669,89.4333344 359.046665,89.6899985 359.38,89.99 C359.713335,90.2900015 360.013332,90.6466646 360.28,91.06 L367.04,101.5 Z M375.92,77.18 L375.92,84.64 L385.6,84.64 L385.6,89.18 L375.92,89.18 L375.92,96.8 L388.36,96.8 L388.36,101.5 L369.88,101.5 L369.88,72.48 L388.36,72.48 L388.36,77.18 L375.92,77.18 Z M408.16,90.48 L405.02,81.6 C404.833332,81.133331 404.636668,80.5866698 404.43,79.96 C404.223332,79.3333302 404.026668,78.653337 403.84,77.92 C403.653332,78.6666704 403.456668,79.3566635 403.25,79.99 C403.043332,80.6233365 402.846668,81.173331 402.66,81.64 L399.54,90.48 L408.16,90.48 Z M418.24,101.5 L413.58,101.5 C413.059997,101.5 412.636668,101.376668 412.31,101.13 C411.983332,100.883332 411.740001,100.566669 411.58,100.18 L409.62,94.64 L398.06,94.64 L396.1,100.18 C395.966666,100.513335 395.733335,100.816665 395.4,101.09 C395.066665,101.363335 394.646669,101.5 394.14,101.5 L389.44,101.5 L400.78,72.48 L406.92,72.48 L418.24,101.5 Z M441.46,77.32 L432.98,77.32 L432.98,101.5 L426.96,101.5 L426.96,77.32 L418.48,77.32 L418.48,72.48 L441.46,72.48 L441.46,77.32 Z M451.12,77.18 L451.12,84.64 L460.8,84.64 L460.8,89.18 L451.12,89.18 L451.12,96.8 L463.56,96.8 L463.56,101.5 L445.08,101.5 L445.08,72.48 L463.56,72.48 L463.56,77.18 L451.12,77.18 Z M143.28,138.34 L143.28,149.5 L137.28,149.5 L137.28,138.34 L126.74,120.48 L132.02,120.48 C132.540003,120.48 132.956665,120.603332 133.27,120.85 C133.583335,121.096668 133.833332,121.413331 134.02,121.8 L138.78,130.94 C139.100002,131.553336 139.389999,132.126664 139.65,132.66 C139.910001,133.193336 140.139999,133.726664 140.34,134.26 C140.526668,133.726664 140.743332,133.190003 140.99,132.65 C141.236668,132.109997 141.513332,131.540003 141.82,130.94 L146.54,121.8 C146.700001,121.479998 146.939998,121.180001 147.26,120.9 C147.580002,120.619999 147.993331,120.48 148.5,120.48 L153.82,120.48 L143.28,138.34 Z M184.52,134.98 C184.52,137.100011 184.163337,139.066658 183.45,140.88 C182.736663,142.693342 181.730007,144.259993 180.43,145.58 C179.129994,146.900007 177.566676,147.936663 175.74,148.69 C173.913324,149.443337 171.886678,149.82 169.66,149.82 C167.433322,149.82 165.406676,149.443337 163.58,148.69 C161.753324,147.936663 160.186673,146.900007 158.88,145.58 C157.573327,144.259993 156.563337,142.693342 155.85,140.88 C155.136663,139.066658 154.78,137.100011 154.78,134.98 C154.78,132.859989 155.136663,130.896676 155.85,129.09 C156.563337,127.283324 157.573327,125.720007 158.88,124.4 C160.186673,123.079993 161.753324,122.043337 163.58,121.29 C165.406676,120.536663 167.433322,120.16 169.66,120.16 C171.886678,120.16 173.913324,120.536663 175.74,121.29 C177.566676,122.043337 179.129994,123.083327 180.43,124.41 C181.730007,125.736673 182.736663,127.303324 183.45,129.11 C184.163337,130.916676 184.52,132.873323 184.52,134.98 Z M178.38,134.98 C178.38,133.459992 178.180002,132.096673 177.78,130.89 C177.379998,129.683327 176.803337,128.656671 176.05,127.81 C175.296663,126.963329 174.383339,126.316669 173.31,125.87 C172.236661,125.423331 171.020007,125.2 169.66,125.2 C168.299993,125.2 167.080005,125.423331 166,125.87 C164.919995,126.316669 164.003337,126.963329 163.25,127.81 C162.496663,128.656671 161.920002,129.683327 161.52,130.89 C161.119998,132.096673 160.92,133.459992 160.92,134.98 C160.92,136.513341 161.119998,137.883327 161.52,139.09 C161.920002,140.296673 162.496663,141.319996 163.25,142.16 C164.003337,143.000004 164.919995,143.643331 166,144.09 C167.080005,144.536669 168.299993,144.76 169.66,144.76 C171.020007,144.76 172.236661,144.536669 173.31,144.09 C174.383339,143.643331 175.296663,143.000004 176.05,142.16 C176.803337,141.319996 177.379998,140.296673 177.78,139.09 C178.180002,137.883327 178.38,136.513341 178.38,134.98 Z M200.8,144.7 C201.773338,144.7 202.646663,144.536668 203.42,144.21 C204.193337,143.883332 204.846664,143.420003 205.38,142.82 C205.913336,142.219997 206.319999,141.493338 206.6,140.64 C206.880001,139.786662 207.02,138.826672 207.02,137.76 L207.02,120.48 L213.02,120.48 L213.02,137.76 C213.02,139.520009 212.73667,141.136659 212.17,142.61 C211.60333,144.083341 210.793339,145.353328 209.74,146.42 C208.686661,147.486672 207.406674,148.319997 205.9,148.92 C204.393326,149.520003 202.693343,149.82 200.8,149.82 C198.906657,149.82 197.203341,149.520003 195.69,148.92 C194.176659,148.319997 192.893339,147.486672 191.84,146.42 C190.786661,145.353328 189.976669,144.083341 189.41,142.61 C188.843331,141.136659 188.56,139.520009 188.56,137.76 L188.56,120.48 L194.56,120.48 L194.56,137.76 C194.56,138.826672 194.699999,139.786662 194.98,140.64 C195.260001,141.493338 195.666664,142.219997 196.2,142.82 C196.733336,143.420003 197.386663,143.883332 198.16,144.21 C198.933337,144.536668 199.813328,144.7 200.8,144.7 Z M227.82,134.22 C228.793338,134.22 229.63333,134.096668 230.34,133.85 C231.04667,133.603332 231.626664,133.263335 232.08,132.83 C232.533336,132.396664 232.866666,131.88667 233.08,131.3 C233.293334,130.71333 233.4,130.073337 233.4,129.38 C233.4,128.00666 232.943338,126.940004 232.03,126.18 C231.116662,125.419996 229.726676,125.04 227.86,125.04 L224.74,125.04 L224.74,134.22 L227.82,134.22 Z M241.88,149.5 L236.46,149.5 C235.446662,149.5 234.713336,149.113337 234.26,148.34 L228.74,139.44 C228.513332,139.093332 228.263335,138.840001 227.99,138.68 C227.716665,138.519999 227.313336,138.44 226.78,138.44 L224.74,138.44 L224.74,149.5 L218.74,149.5 L218.74,120.48 L227.86,120.48 C229.886677,120.48 231.619993,120.689998 233.06,121.11 C234.500007,121.530002 235.679995,122.11333 236.6,122.86 C237.520005,123.60667 238.193331,124.496662 238.62,125.53 C239.046669,126.563339 239.26,127.699994 239.26,128.94 C239.26,129.900005 239.123335,130.809996 238.85,131.67 C238.576665,132.530004 238.180003,133.31333 237.66,134.02 C237.139997,134.72667 236.500004,135.353331 235.74,135.9 C234.979996,136.446669 234.113338,136.886665 233.14,137.22 C233.526669,137.433334 233.886665,137.689999 234.22,137.99 C234.553335,138.290002 234.853332,138.646665 235.12,139.06 L241.88,149.5 Z M260.26,125.18 L260.26,133.2 L270.7,133.2 L270.7,137.92 L260.26,137.92 L260.26,149.5 L254.22,149.5 L254.22,120.48 L272.7,120.48 L272.7,125.18 L260.26,125.18 Z M282.9,149.5 L276.86,149.5 L276.86,120.48 L282.9,120.48 L282.9,149.5 Z M298.06,134.22 C299.033338,134.22 299.87333,134.096668 300.58,133.85 C301.28667,133.603332 301.866664,133.263335 302.32,132.83 C302.773336,132.396664 303.106666,131.88667 303.32,131.3 C303.533334,130.71333 303.64,130.073337 303.64,129.38 C303.64,128.00666 303.183338,126.940004 302.27,126.18 C301.356662,125.419996 299.966676,125.04 298.1,125.04 L294.98,125.04 L294.98,134.22 L298.06,134.22 Z M312.12,149.5 L306.7,149.5 C305.686662,149.5 304.953336,149.113337 304.5,148.34 L298.98,139.44 C298.753332,139.093332 298.503335,138.840001 298.23,138.68 C297.956665,138.519999 297.553336,138.44 297.02,138.44 L294.98,138.44 L294.98,149.5 L288.98,149.5 L288.98,120.48 L298.1,120.48 C300.126677,120.48 301.859993,120.689998 303.3,121.11 C304.740007,121.530002 305.919995,122.11333 306.84,122.86 C307.760005,123.60667 308.433331,124.496662 308.86,125.53 C309.286669,126.563339 309.5,127.699994 309.5,128.94 C309.5,129.900005 309.363335,130.809996 309.09,131.67 C308.816665,132.530004 308.420003,133.31333 307.9,134.02 C307.379997,134.72667 306.740004,135.353331 305.98,135.9 C305.219996,136.446669 304.353338,136.886665 303.38,137.22 C303.766669,137.433334 304.126665,137.689999 304.46,137.99 C304.793335,138.290002 305.093332,138.646665 305.36,139.06 L312.12,149.5 Z M330.68,126.04 C330.493332,126.346668 330.303334,126.569999 330.11,126.71 C329.916666,126.850001 329.666668,126.92 329.36,126.92 C329.066665,126.92 328.750002,126.816668 328.41,126.61 C328.069998,126.403332 327.673336,126.180001 327.22,125.94 C326.766664,125.699999 326.24667,125.476668 325.66,125.27 C325.07333,125.063332 324.386671,124.96 323.6,124.96 C322.213326,124.96 321.173337,125.269997 320.48,125.89 C319.786663,126.510003 319.44,127.319995 319.44,128.32 C319.44,128.960003 319.629998,129.489998 320.01,129.91 C320.390002,130.330002 320.889997,130.693332 321.51,131 C322.130003,131.306668 322.833329,131.579999 323.62,131.82 C324.406671,132.060001 325.213329,132.323332 326.04,132.61 C326.866671,132.896668 327.673329,133.233331 328.46,133.62 C329.246671,134.006669 329.949997,134.49333 330.57,135.08 C331.190003,135.66667 331.689998,136.383329 332.07,137.23 C332.450002,138.076671 332.64,139.106661 332.64,140.32 C332.64,141.640007 332.410002,142.876661 331.95,144.03 C331.489998,145.183339 330.826671,146.189996 329.96,147.05 C329.093329,147.910004 328.02334,148.586664 326.75,149.08 C325.47666,149.573336 324.033341,149.82 322.42,149.82 C321.499995,149.82 320.583338,149.726668 319.67,149.54 C318.756662,149.353332 317.876671,149.093335 317.03,148.76 C316.183329,148.426665 315.38667,148.026669 314.64,147.56 C313.89333,147.093331 313.240003,146.573336 312.68,146 L314.44,143.16 C314.586667,142.946666 314.779999,142.770001 315.02,142.63 C315.260001,142.489999 315.513332,142.42 315.78,142.42 C316.140002,142.42 316.519998,142.553332 316.92,142.82 C317.320002,143.086668 317.779997,143.379998 318.3,143.7 C318.820003,144.020002 319.42333,144.313332 320.11,144.58 C320.79667,144.846668 321.619995,144.98 322.58,144.98 C323.980007,144.98 325.06333,144.660003 325.83,144.02 C326.59667,143.379997 326.98,142.426673 326.98,141.16 C326.98,140.426663 326.790002,139.833336 326.41,139.38 C326.029998,138.926664 325.533336,138.546668 324.92,138.24 C324.306664,137.933332 323.606671,137.670001 322.82,137.45 C322.033329,137.229999 321.226671,136.986668 320.4,136.72 C319.573329,136.453332 318.766671,136.133335 317.98,135.76 C317.193329,135.386665 316.493336,134.893336 315.88,134.28 C315.266664,133.666664 314.770002,132.906671 314.39,132 C314.009998,131.093329 313.82,129.966673 313.82,128.62 C313.82,127.539995 314.033331,126.493338 314.46,125.48 C314.886669,124.466662 315.513329,123.566671 316.34,122.78 C317.166671,121.993329 318.183327,121.360002 319.39,120.88 C320.596673,120.399998 321.979992,120.16 323.54,120.16 C325.286675,120.16 326.903326,120.429997 328.39,120.97 C329.876674,121.510003 331.133328,122.259995 332.16,123.22 L330.68,126.04 Z M357.54,125.32 L349.06,125.32 L349.06,149.5 L343.04,149.5 L343.04,125.32 L334.56,125.32 L334.56,120.48 L357.54,120.48 L357.54,125.32 Z M391.2,125.32 L382.72,125.32 L382.72,149.5 L376.7,149.5 L376.7,125.32 L368.22,125.32 L368.22,120.48 L391.2,120.48 L391.2,125.32 Z M410.14,138.48 L407,129.6 C406.813332,129.133331 406.616668,128.58667 406.41,127.96 C406.203332,127.33333 406.006668,126.653337 405.82,125.92 C405.633332,126.66667 405.436668,127.356663 405.23,127.99 C405.023332,128.623336 404.826668,129.173331 404.64,129.64 L401.52,138.48 L410.14,138.48 Z M420.22,149.5 L415.56,149.5 C415.039997,149.5 414.616668,149.376668 414.29,149.13 C413.963332,148.883332 413.720001,148.566669 413.56,148.18 L411.6,142.64 L400.04,142.64 L398.08,148.18 C397.946666,148.513335 397.713335,148.816665 397.38,149.09 C397.046665,149.363335 396.626669,149.5 396.12,149.5 L391.42,149.5 L402.76,120.48 L408.9,120.48 L420.22,149.5 Z M434.04,144.9 C435.000005,144.9 435.789997,144.783334 436.41,144.55 C437.030003,144.316665 437.526665,144.006669 437.9,143.62 C438.273335,143.233331 438.533333,142.790003 438.68,142.29 C438.826667,141.789997 438.9,141.273336 438.9,140.74 C438.9,140.15333 438.813334,139.626669 438.64,139.16 C438.466666,138.693331 438.186669,138.296668 437.8,137.97 C437.413331,137.643332 436.910003,137.393334 436.29,137.22 C435.669997,137.046666 434.906671,136.96 434,136.96 L428.9,136.96 L428.9,144.9 L434.04,144.9 Z M428.9,125.04 L428.9,132.88 L432.84,132.88 C433.680004,132.88 434.426663,132.810001 435.08,132.67 C435.733337,132.529999 436.279998,132.306668 436.72,132 C437.160002,131.693332 437.496666,131.290003 437.73,130.79 C437.963335,130.289997 438.08,129.68667 438.08,128.98 C438.08,128.259996 437.983334,127.646669 437.79,127.14 C437.596666,126.633331 437.300002,126.226668 436.9,125.92 C436.499998,125.613332 435.993336,125.390001 435.38,125.25 C434.766664,125.109999 434.040004,125.04 433.2,125.04 L428.9,125.04 Z M433.2,120.48 C435.146676,120.48 436.809993,120.663331 438.19,121.03 C439.570007,121.396669 440.696662,121.916663 441.57,122.59 C442.443338,123.263337 443.079998,124.079995 443.48,125.04 C443.880002,126.000005 444.08,127.073327 444.08,128.26 C444.08,128.92667 443.983334,129.566664 443.79,130.18 C443.596666,130.793336 443.296669,131.369997 442.89,131.91 C442.483331,132.450003 441.960003,132.939998 441.32,133.38 C440.679997,133.820002 439.920004,134.193332 439.04,134.5 C441.013343,134.966669 442.473329,135.726661 443.42,136.78 C444.366671,137.833339 444.84,139.199992 444.84,140.88 C444.84,142.106673 444.603336,143.246661 444.13,144.3 C443.656664,145.353339 442.966671,146.266663 442.06,147.04 C441.153329,147.813337 440.036673,148.416664 438.71,148.85 C437.383327,149.283335 435.860009,149.5 434.14,149.5 L422.9,149.5 L422.9,120.48 L433.2,120.48 Z M447.72,123.12 C448.200002,122.706665 448.716664,122.320002 449.27,121.96 C449.823336,121.599998 450.42333,121.286668 451.07,121.02 C451.71667,120.753332 452.416663,120.543334 453.17,120.39 C453.923337,120.236666 454.733329,120.16 455.6,120.16 C456.800006,120.16 457.886662,120.323332 458.86,120.65 C459.833338,120.976668 460.666663,121.44333 461.36,122.05 C462.053337,122.65667 462.589998,123.386662 462.97,124.24 C463.350002,125.093338 463.54,126.046661 463.54,127.1 C463.54,128.113338 463.396668,128.989996 463.11,129.73 C462.823332,130.470004 462.463336,131.113331 462.03,131.66 C461.596665,132.206669 461.120003,132.679998 460.6,133.08 C460.079997,133.480002 459.586669,133.853332 459.12,134.2 C458.653331,134.546668 458.250002,134.889998 457.91,135.23 C457.569998,135.570002 457.36,135.946665 457.28,136.36 L456.78,139.22 L453,139.22 L452.62,135.98 C452.526666,135.339997 452.606665,134.783336 452.86,134.31 C453.113335,133.836664 453.453331,133.403335 453.88,133.01 C454.306669,132.616665 454.783331,132.236669 455.31,131.87 C455.836669,131.503332 456.329998,131.110002 456.79,130.69 C457.250002,130.269998 457.636665,129.796669 457.95,129.27 C458.263335,128.743331 458.42,128.120004 458.42,127.4 C458.42,126.519996 458.11667,125.820003 457.51,125.3 C456.90333,124.779997 456.100005,124.52 455.1,124.52 C454.366663,124.52 453.750003,124.599999 453.25,124.76 C452.749998,124.920001 452.320002,125.096666 451.96,125.29 C451.599998,125.483334 451.293335,125.659999 451.04,125.82 C450.786665,125.980001 450.546668,126.06 450.32,126.06 C449.813331,126.06 449.433335,125.840002 449.18,125.4 L447.72,123.12 Z M451.46,146.6 C451.46,146.159998 451.543333,145.743335 451.71,145.35 C451.876668,144.956665 452.106665,144.616668 452.4,144.33 C452.693335,144.043332 453.036665,143.816667 453.43,143.65 C453.823335,143.483333 454.253331,143.4 454.72,143.4 C455.173336,143.4 455.599998,143.483333 456,143.65 C456.400002,143.816667 456.746665,144.043332 457.04,144.33 C457.333335,144.616668 457.563333,144.956665 457.73,145.35 C457.896668,145.743335 457.98,146.159998 457.98,146.6 C457.98,147.053336 457.896668,147.473331 457.73,147.86 C457.563333,148.246669 457.333335,148.583332 457.04,148.87 C456.746665,149.156668 456.400002,149.379999 456,149.54 C455.599998,149.700001 455.173336,149.78 454.72,149.78 C454.253331,149.78 453.823335,149.700001 453.43,149.54 C453.036665,149.379999 452.693335,149.156668 452.4,148.87 C452.106665,148.583332 451.876668,148.246669 451.71,147.86 C451.543333,147.473331 451.46,147.053336 451.46,146.6 Z" id="READYTOCREATEYOURFIRSTTAB?" fill="#000000" fill-rule="nonzero"></path>
        <path d="M87.859375,305.980469 L87.859375,316 L82,316 L82,287.5625 L93.09375,287.5625 C95.2291773,287.5625 97.1074138,287.953121 98.7285156,288.734375 C100.349617,289.515629 101.59635,290.625644 102.46875,292.064453 C103.34115,293.503262 103.777344,295.140616 103.777344,296.976562 C103.777344,299.763035 102.823577,301.960278 100.916016,303.568359 C99.008454,305.17644 96.3685064,305.980469 92.9960938,305.980469 L87.859375,305.980469 Z M87.859375,301.234375 L93.09375,301.234375 C94.6432369,301.234375 95.8248657,300.869795 96.6386719,300.140625 C97.452478,299.411455 97.859375,298.369798 97.859375,297.015625 C97.859375,295.622389 97.4492229,294.496098 96.6289062,293.636719 C95.8085896,292.777339 94.6757885,292.334636 93.2304688,292.308594 L87.859375,292.308594 L87.859375,301.234375 Z M119.304688,300.160156 C118.536454,300.055989 117.859378,300.003906 117.273438,300.003906 C115.13801,300.003906 113.738285,300.726555 113.074219,302.171875 L113.074219,316 L107.429688,316 L107.429688,294.867188 L112.761719,294.867188 L112.917969,297.386719 C114.050787,295.446605 115.619782,294.476562 117.625,294.476562 C118.250003,294.476562 118.835935,294.561197 119.382812,294.730469 L119.304688,300.160156 Z M131.746094,316.390625 C128.64712,316.390625 126.124359,315.440114 124.177734,313.539062 C122.23111,311.638011 121.257812,309.105485 121.257812,305.941406 L121.257812,305.394531 C121.257812,303.272125 121.667965,301.374357 122.488281,299.701172 C123.308598,298.027986 124.470696,296.738937 125.974609,295.833984 C127.478523,294.929032 129.194001,294.476562 131.121094,294.476562 C134.011733,294.476562 136.287101,295.388012 137.947266,297.210938 C139.60743,299.033863 140.4375,301.618473 140.4375,304.964844 L140.4375,307.269531 L126.980469,307.269531 C127.162761,308.649746 127.712886,309.756506 128.630859,310.589844 C129.548833,311.423181 130.71093,311.839844 132.117188,311.839844 C134.291678,311.839844 135.990879,311.052091 137.214844,309.476562 L139.988281,312.582031 C139.141923,313.779954 137.996101,314.714189 136.550781,315.384766 C135.105462,316.055342 133.503915,316.390625 131.746094,316.390625 Z M131.101562,299.046875 C129.981765,299.046875 129.073571,299.424475 128.376953,300.179688 C127.680335,300.9349 127.234376,302.015618 127.039062,303.421875 L134.890625,303.421875 L134.890625,302.972656 C134.864583,301.72265 134.526045,300.755863 133.875,300.072266 C133.223955,299.388668 132.299485,299.046875 131.101562,299.046875 Z M155.085938,310.160156 C155.085938,309.470049 154.744144,308.926434 154.060547,308.529297 C153.37695,308.132159 152.279955,307.777345 150.769531,307.464844 C145.743464,306.410151 143.230469,304.274756 143.230469,301.058594 C143.230469,299.183584 144.008456,297.617845 145.564453,296.361328 C147.12045,295.104811 149.154935,294.476562 151.667969,294.476562 C154.350274,294.476562 156.495435,295.108067 158.103516,296.371094 C159.711597,297.634121 160.515625,299.274729 160.515625,301.292969 L154.871094,301.292969 C154.871094,300.485673 154.61068,299.818362 154.089844,299.291016 C153.569008,298.763669 152.755214,298.5 151.648438,298.5 C150.697912,298.5 149.962242,298.714842 149.441406,299.144531 C148.92057,299.574221 148.660156,300.12109 148.660156,300.785156 C148.660156,301.410159 148.956377,301.914712 149.548828,302.298828 C150.141279,302.682945 151.140618,303.014973 152.546875,303.294922 C153.953132,303.574871 155.138016,303.890623 156.101562,304.242188 C159.083348,305.335943 160.574219,307.230455 160.574219,309.925781 C160.574219,311.852874 159.747404,313.412103 158.09375,314.603516 C156.440096,315.794928 154.304701,316.390625 151.6875,316.390625 C149.916658,316.390625 148.344408,316.074873 146.970703,315.443359 C145.596998,314.811846 144.519535,313.945969 143.738281,312.845703 C142.957027,311.745437 142.566406,310.557298 142.566406,309.28125 L147.917969,309.28125 C147.970052,310.283859 148.341142,311.052081 149.03125,311.585938 C149.721358,312.119794 150.645828,312.386719 151.804688,312.386719 C152.885422,312.386719 153.702471,312.181643 154.255859,311.771484 C154.809248,311.361326 155.085938,310.824222 155.085938,310.160156 Z M175.652344,310.160156 C175.652344,309.470049 175.31055,308.926434 174.626953,308.529297 C173.943356,308.132159 172.846362,307.777345 171.335938,307.464844 C166.309871,306.410151 163.796875,304.274756 163.796875,301.058594 C163.796875,299.183584 164.574862,297.617845 166.130859,296.361328 C167.686857,295.104811 169.721342,294.476562 172.234375,294.476562 C174.91668,294.476562 177.061841,295.108067 178.669922,296.371094 C180.278003,297.634121 181.082031,299.274729 181.082031,301.292969 L175.4375,301.292969 C175.4375,300.485673 175.177086,299.818362 174.65625,299.291016 C174.135414,298.763669 173.32162,298.5 172.214844,298.5 C171.264318,298.5 170.528648,298.714842 170.007812,299.144531 C169.486977,299.574221 169.226562,300.12109 169.226562,300.785156 C169.226562,301.410159 169.522783,301.914712 170.115234,302.298828 C170.707685,302.682945 171.707024,303.014973 173.113281,303.294922 C174.519538,303.574871 175.704422,303.890623 176.667969,304.242188 C179.649754,305.335943 181.140625,307.230455 181.140625,309.925781 C181.140625,311.852874 180.31381,313.412103 178.660156,314.603516 C177.006502,315.794928 174.871107,316.390625 172.253906,316.390625 C170.483064,316.390625 168.910814,316.074873 167.537109,315.443359 C166.163405,314.811846 165.085941,313.945969 164.304688,312.845703 C163.523434,311.745437 163.132812,310.557298 163.132812,309.28125 L168.484375,309.28125 C168.536459,310.283859 168.907549,311.052081 169.597656,311.585938 C170.287764,312.119794 171.212234,312.386719 172.371094,312.386719 C173.451828,312.386719 174.268877,312.181643 174.822266,311.771484 C175.375654,311.361326 175.652344,310.824222 175.652344,310.160156 Z M201.492188,289.671875 L201.492188,294.867188 L205.105469,294.867188 L205.105469,299.007812 L201.492188,299.007812 L201.492188,309.554688 C201.492188,310.335941 201.641926,310.895832 201.941406,311.234375 C202.240887,311.572918 202.813798,311.742188 203.660156,311.742188 C204.285159,311.742188 204.838539,311.696615 205.320312,311.605469 L205.320312,315.882812 C204.213536,316.221356 203.074225,316.390625 201.902344,316.390625 C197.943991,316.390625 195.925782,314.391947 195.847656,310.394531 L195.847656,299.007812 L192.761719,299.007812 L192.761719,294.867188 L195.847656,294.867188 L195.847656,289.671875 L201.492188,289.671875 Z M213.757812,297.171875 C215.255216,295.374991 217.136707,294.476562 219.402344,294.476562 C223.9857,294.476562 226.309896,297.139296 226.375,302.464844 L226.375,316 L220.730469,316 L220.730469,302.621094 C220.730469,301.41015 220.470055,300.514977 219.949219,299.935547 C219.428383,299.356117 218.562506,299.066406 217.351562,299.066406 C215.697908,299.066406 214.500004,299.704421 213.757812,300.980469 L213.757812,316 L208.113281,316 L208.113281,286 L213.757812,286 L213.757812,297.171875 Z M240.359375,316.390625 C237.260401,316.390625 234.73764,315.440114 232.791016,313.539062 C230.844391,311.638011 229.871094,309.105485 229.871094,305.941406 L229.871094,305.394531 C229.871094,303.272125 230.281246,301.374357 231.101562,299.701172 C231.921879,298.027986 233.083977,296.738937 234.587891,295.833984 C236.091804,294.929032 237.807282,294.476562 239.734375,294.476562 C242.625014,294.476562 244.900382,295.388012 246.560547,297.210938 C248.220711,299.033863 249.050781,301.618473 249.050781,304.964844 L249.050781,307.269531 L235.59375,307.269531 C235.776043,308.649746 236.326167,309.756506 237.244141,310.589844 C238.162114,311.423181 239.324212,311.839844 240.730469,311.839844 C242.904959,311.839844 244.604161,311.052091 245.828125,309.476562 L248.601562,312.582031 C247.755204,313.779954 246.609382,314.714189 245.164062,315.384766 C243.718743,316.055342 242.117196,316.390625 240.359375,316.390625 Z M239.714844,299.046875 C238.595046,299.046875 237.686852,299.424475 236.990234,300.179688 C236.293616,300.9349 235.847657,302.015618 235.652344,303.421875 L243.503906,303.421875 L243.503906,302.972656 C243.477864,301.72265 243.139326,300.755863 242.488281,300.072266 C241.837236,299.388668 240.912766,299.046875 239.714844,299.046875 Z M261.394531,305.277344 C261.394531,302.03514 262.166008,299.424489 263.708984,297.445312 C265.251961,295.466136 267.332018,294.476562 269.949219,294.476562 C272.266939,294.476562 274.070306,295.270825 275.359375,296.859375 L275.59375,294.867188 L280.710938,294.867188 L280.710938,315.296875 C280.710938,317.145843 280.29102,318.753899 279.451172,320.121094 C278.611324,321.488288 277.429695,322.529944 275.90625,323.246094 C274.382805,323.962243 272.598969,324.320312 270.554688,324.320312 C269.005201,324.320312 267.494799,324.011071 266.023438,323.392578 C264.552076,322.774085 263.438806,321.976567 262.683594,321 L265.183594,317.5625 C266.589851,319.138029 268.295563,319.925781 270.300781,319.925781 C271.798185,319.925781 272.963538,319.525395 273.796875,318.724609 C274.630212,317.923824 275.046875,316.787768 275.046875,315.316406 L275.046875,314.183594 C273.744785,315.654955 272.032563,316.390625 269.910156,316.390625 C267.371081,316.390625 265.317065,315.397796 263.748047,313.412109 C262.179029,311.426422 261.394531,308.792985 261.394531,305.511719 L261.394531,305.277344 Z M267.039062,305.6875 C267.039062,307.601572 267.423173,309.102208 268.191406,310.189453 C268.959639,311.276698 270.014316,311.820312 271.355469,311.820312 C273.074227,311.820312 274.304684,311.175788 275.046875,309.886719 L275.046875,301 C274.291663,299.710931 273.074227,299.066406 271.394531,299.066406 C270.040358,299.066406 268.975915,299.619786 268.201172,300.726562 C267.426428,301.833339 267.039062,303.486968 267.039062,305.6875 Z M296.921875,300.160156 C296.153642,300.055989 295.476565,300.003906 294.890625,300.003906 C292.755198,300.003906 291.355472,300.726555 290.691406,302.171875 L290.691406,316 L285.046875,316 L285.046875,294.867188 L290.378906,294.867188 L290.535156,297.386719 C291.667974,295.446605 293.236969,294.476562 295.242188,294.476562 C295.867191,294.476562 296.453122,294.561197 297,294.730469 L296.921875,300.160156 Z M309.363281,316.390625 C306.264307,316.390625 303.741546,315.440114 301.794922,313.539062 C299.848298,311.638011 298.875,309.105485 298.875,305.941406 L298.875,305.394531 C298.875,303.272125 299.285152,301.374357 300.105469,299.701172 C300.925785,298.027986 302.087883,296.738937 303.591797,295.833984 C305.095711,294.929032 306.811188,294.476562 308.738281,294.476562 C311.628921,294.476562 313.904289,295.388012 315.564453,297.210938 C317.224618,299.033863 318.054688,301.618473 318.054688,304.964844 L318.054688,307.269531 L304.597656,307.269531 C304.779949,308.649746 305.330074,309.756506 306.248047,310.589844 C307.16602,311.423181 308.328118,311.839844 309.734375,311.839844 C311.908865,311.839844 313.608067,311.052091 314.832031,309.476562 L317.605469,312.582031 C316.75911,313.779954 315.613288,314.714189 314.167969,315.384766 C312.722649,316.055342 311.121103,316.390625 309.363281,316.390625 Z M308.71875,299.046875 C307.598953,299.046875 306.690759,299.424475 305.994141,300.179688 C305.297523,300.9349 304.851563,302.015618 304.65625,303.421875 L312.507812,303.421875 L312.507812,302.972656 C312.481771,301.72265 312.143232,300.755863 311.492188,300.072266 C310.841143,299.388668 309.916673,299.046875 308.71875,299.046875 Z M330.984375,316.390625 C327.885401,316.390625 325.36264,315.440114 323.416016,313.539062 C321.469391,311.638011 320.496094,309.105485 320.496094,305.941406 L320.496094,305.394531 C320.496094,303.272125 320.906246,301.374357 321.726562,299.701172 C322.546879,298.027986 323.708977,296.738937 325.212891,295.833984 C326.716804,294.929032 328.432282,294.476562 330.359375,294.476562 C333.250014,294.476562 335.525382,295.388012 337.185547,297.210938 C338.845711,299.033863 339.675781,301.618473 339.675781,304.964844 L339.675781,307.269531 L326.21875,307.269531 C326.401043,308.649746 326.951167,309.756506 327.869141,310.589844 C328.787114,311.423181 329.949212,311.839844 331.355469,311.839844 C333.529959,311.839844 335.229161,311.052091 336.453125,309.476562 L339.226562,312.582031 C338.380204,313.779954 337.234382,314.714189 335.789062,315.384766 C334.343743,316.055342 332.742196,316.390625 330.984375,316.390625 Z M330.339844,299.046875 C329.220046,299.046875 328.311852,299.424475 327.615234,300.179688 C326.918616,300.9349 326.472657,302.015618 326.277344,303.421875 L334.128906,303.421875 L334.128906,302.972656 C334.102864,301.72265 333.764326,300.755863 333.113281,300.072266 C332.462236,299.388668 331.537766,299.046875 330.339844,299.046875 Z M348.074219,294.867188 L348.25,297.308594 C349.760424,295.420563 351.785144,294.476562 354.324219,294.476562 C356.563813,294.476562 358.230463,295.134108 359.324219,296.449219 C360.417974,297.764329 360.977864,299.730456 361.003906,302.347656 L361.003906,316 L355.359375,316 L355.359375,302.484375 C355.359375,301.286452 355.098961,300.41732 354.578125,299.876953 C354.057289,299.336586 353.191412,299.066406 351.980469,299.066406 C350.391919,299.066406 349.200525,299.743483 348.40625,301.097656 L348.40625,316 L342.761719,316 L342.761719,294.867188 L348.074219,294.867188 Z M394.285156,305.628906 C394.285156,309.01434 393.562507,311.654287 392.117188,313.548828 C390.671868,315.443369 388.653659,316.390625 386.0625,316.390625 C383.770822,316.390625 381.941413,315.511728 380.574219,313.753906 L380.320312,316 L375.242188,316 L375.242188,286 L380.886719,286 L380.886719,296.761719 C382.188809,295.238274 383.901031,294.476562 386.023438,294.476562 C388.601575,294.476562 390.62304,295.423819 392.087891,297.318359 C393.552742,299.2129 394.285156,301.878889 394.285156,305.316406 L394.285156,305.628906 Z M388.640625,305.21875 C388.640625,303.083323 388.302087,301.524093 387.625,300.541016 C386.947913,299.557938 385.938809,299.066406 384.597656,299.066406 C382.800772,299.066406 381.563805,299.802076 380.886719,301.273438 L380.886719,309.613281 C381.576826,311.097664 382.826814,311.839844 384.636719,311.839844 C386.459645,311.839844 387.657549,310.941415 388.230469,309.144531 C388.503908,308.285152 388.640625,306.976571 388.640625,305.21875 Z M410.417969,313.851562 C409.024733,315.544279 407.097669,316.390625 404.636719,316.390625 C402.371082,316.390625 400.642584,315.73959 399.451172,314.4375 C398.25976,313.13541 397.651042,311.227877 397.625,308.714844 L397.625,294.867188 L403.269531,294.867188 L403.269531,308.519531 C403.269531,310.720063 404.272125,311.820312 406.277344,311.820312 C408.191416,311.820312 409.506507,311.156257 410.222656,309.828125 L410.222656,294.867188 L415.886719,294.867188 L415.886719,316 L410.574219,316 L410.417969,313.851562 Z M426.902344,289.671875 L426.902344,294.867188 L430.515625,294.867188 L430.515625,299.007812 L426.902344,299.007812 L426.902344,309.554688 C426.902344,310.335941 427.052082,310.895832 427.351562,311.234375 C427.651043,311.572918 428.223954,311.742188 429.070312,311.742188 C429.695316,311.742188 430.248696,311.696615 430.730469,311.605469 L430.730469,315.882812 C429.623692,316.221356 428.484381,316.390625 427.3125,316.390625 C423.354147,316.390625 421.335938,314.391947 421.257812,310.394531 L421.257812,299.007812 L418.171875,299.007812 L418.171875,294.867188 L421.257812,294.867188 L421.257812,289.671875 L426.902344,289.671875 Z M440.417969,289.671875 L440.417969,294.867188 L444.03125,294.867188 L444.03125,299.007812 L440.417969,299.007812 L440.417969,309.554688 C440.417969,310.335941 440.567707,310.895832 440.867188,311.234375 C441.166668,311.572918 441.739579,311.742188 442.585938,311.742188 C443.210941,311.742188 443.764321,311.696615 444.246094,311.605469 L444.246094,315.882812 C443.139317,316.221356 442.000006,316.390625 440.828125,316.390625 C436.869772,316.390625 434.851563,314.391947 434.773438,310.394531 L434.773438,299.007812 L431.6875,299.007812 L431.6875,294.867188 L434.773438,294.867188 L434.773438,289.671875 L440.417969,289.671875 Z M446.296875,305.238281 C446.296875,303.141917 446.700517,301.273446 447.507812,299.632812 C448.315108,297.992179 449.477206,296.722661 450.994141,295.824219 C452.511075,294.925777 454.272125,294.476562 456.277344,294.476562 C459.128921,294.476562 461.456371,295.34895 463.259766,297.09375 C465.06316,298.83855 466.069009,301.208318 466.277344,304.203125 L466.316406,305.648438 C466.316406,308.890641 465.411467,311.491527 463.601562,313.451172 C461.791658,315.410817 459.363296,316.390625 456.316406,316.390625 C453.269516,316.390625 450.8379,315.414072 449.021484,313.460938 C447.205069,311.507803 446.296875,308.851579 446.296875,305.492188 L446.296875,305.238281 Z M451.941406,305.648438 C451.941406,307.653656 452.319007,309.186844 453.074219,310.248047 C453.829431,311.30925 454.910149,311.839844 456.316406,311.839844 C457.683601,311.839844 458.751298,311.31576 459.519531,310.267578 C460.287764,309.219396 460.671875,307.54298 460.671875,305.238281 C460.671875,303.272126 460.287764,301.748703 459.519531,300.667969 C458.751298,299.587234 457.67058,299.046875 456.277344,299.046875 C454.897129,299.046875 453.829431,299.583979 453.074219,300.658203 C452.319007,301.732427 451.941406,303.395822 451.941406,305.648438 Z M474.988281,294.867188 L475.164062,297.308594 C476.674487,295.420563 478.699206,294.476562 481.238281,294.476562 C483.477876,294.476562 485.144526,295.134108 486.238281,296.449219 C487.332037,297.764329 487.891927,299.730456 487.917969,302.347656 L487.917969,316 L482.273438,316 L482.273438,302.484375 C482.273438,301.286452 482.013023,300.41732 481.492188,299.876953 C480.971352,299.336586 480.105475,299.066406 478.894531,299.066406 C477.305982,299.066406 476.114587,299.743483 475.320312,301.097656 L475.320312,316 L469.675781,316 L469.675781,294.867188 L474.988281,294.867188 Z" id="Press-the-green-butt" fill="#375270"></path>
        <polygon id="Line" fill="#375270" fill-rule="nonzero" points="274.797979 480.254484 275.544534 382.923594 295.543946 383.076995 294.797391 480.407885 336.796156 480.730027 284 584.328125 232.799215 479.932342 274.797979 480.254484"></polygon>
    </g>
</svg>