<?xml version="1.0" encoding="UTF-8"?>
<svg width="570px" height="792px" viewBox="0 0 570 792" version="1.1" xmlns="http://www.w3.org/2000/svg" xmlns:xlink="http://www.w3.org/1999/xlink">
    <!-- Generator: Sketch 54.1 (76490) - https://sketchapp.com -->
    <title>1_create_en</title>
    <desc>Created with Sketch.</desc>
    <g id="1_create_en" stroke="none" stroke-width="1" fill="none" fill-rule="evenodd">
        <rect id="Rectangle" fill="#00B0FF" x="0" y="0" width="570" height="792" rx="16"></rect>
        <path d="M47,226 L524,226 C530.627417,226 536,231.372583 536,238 L536,753 L35,753 L35,238 C35,231.372583 40.372583,226 47,226 Z" id="Rectangle" fill="#080B26"></path>
        <path d="M43,634 L528,634 C532.418278,634 536,637.581722 536,642 L536,753 L35,753 L35,642 C35,637.581722 38.581722,634 43,634 Z" id="Rectangle" fill="#99CC00"></path>
        <polygon id="+" fill="#000000" points="290.327637 687.318848 303.547852 687.318848 303.547852 696.876953 290.327637 696.876953 290.327637 711.818359 280.256836 711.818359 280.256836 696.876953 267 696.876953 267 687.318848 280.256836 687.318848 280.256836 673 290.327637 673"></polygon>
        <rect id="Rectangle" fill="#FFFFFF" x="46" y="47" width="478" height="157" rx="12"></rect>
        <polygon id="Line" fill="#FFFFFF" fill-rule="nonzero" points="275.544534 169.328125 295.543946 169.659445 294.797391 519.87784 336.796156 520.573613 284 612 232.799215 518.850746 274.797979 519.546519"></polygon>
        <g id="TO-CREATE-A-TAB-(ALS" transform="translate(87.008545, 74.216797)" fill-rule="nonzero">
            <path d="M80.1796875,4.23779297 L72.9931641,4.23779297 L72.9931641,23.7832031 L68.1591797,23.7832031 L68.1591797,4.23779297 L61.0693359,4.23779297 L61.0693359,0.322265625 L80.1796875,0.322265625 L80.1796875,4.23779297 Z M102.206543,12.5844727 C102.206543,14.8940545 101.798344,16.9189366 100.981934,18.6591797 C100.165523,20.3994228 98.9973221,21.7421828 97.4772949,22.6875 C95.9572678,23.6328172 94.2143653,24.1054688 92.2485352,24.1054688 C90.3041895,24.1054688 88.5693436,23.6381883 87.0439453,22.7036133 C85.5185471,21.7690383 84.3369183,20.4343348 83.4990234,18.6994629 C82.6611286,16.9645909 82.2368165,14.9692496 82.2260742,12.7133789 L82.2260742,11.5532227 C82.2260742,9.2436408 82.6423298,7.21070214 83.4748535,5.4543457 C84.3073772,3.69798927 85.483635,2.34985822 87.0036621,1.40991211 C88.5236892,0.469966003 90.2612207,0 92.2163086,0 C94.1713965,0 95.9089279,0.469966003 97.4289551,1.40991211 C98.9489822,2.34985822 100.12524,3.69798927 100.957764,5.4543457 C101.790287,7.21070214 102.206543,9.23826976 102.206543,11.5371094 L102.206543,12.5844727 Z M97.3081055,11.5209961 C97.3081055,9.06102286 96.8676802,7.19190092 95.9868164,5.91357422 C95.1059526,4.63524751 93.8491293,3.99609375 92.2163086,3.99609375 C90.5942302,3.99609375 89.3427778,4.62719095 88.4619141,5.8894043 C87.5810503,7.15161764 87.135254,9.00194093 87.1245117,11.4404297 L87.1245117,12.5844727 C87.1245117,14.9799924 87.564937,16.8383723 88.4458008,18.159668 C89.3266646,19.4809636 90.59423,20.1416016 92.2485352,20.1416016 C93.8706136,20.1416016 95.1166949,19.5051333 95.9868164,18.2321777 C96.8569379,16.9592222 97.2973632,15.1035278 97.3081055,12.6650391 L97.3081055,11.5209961 Z M132.354492,15.9682617 C132.171874,18.4926884 131.239999,20.4799732 129.558838,21.9301758 C127.877677,23.3803783 125.662123,24.1054688 122.912109,24.1054688 C119.904282,24.1054688 117.538339,23.0930277 115.814209,21.0681152 C114.090079,19.0432028 113.228027,16.2636895 113.228027,12.7294922 L113.228027,11.2954102 C113.228027,9.0395395 113.625484,7.05225469 114.42041,5.33349609 C115.215336,3.6147375 116.351311,2.29614717 117.828369,1.37768555 C119.305427,0.459223923 121.021475,0 122.976562,0 C125.683607,0 127.86425,0.725090405 129.518555,2.17529297 C131.17286,3.62549553 132.128905,5.66111971 132.386719,8.28222656 L127.552734,8.28222656 C127.43457,6.76757055 127.012943,5.66919286 126.287842,4.98706055 C125.562741,4.30492823 124.458992,3.96386719 122.976562,3.96386719 C121.365226,3.96386719 120.159428,4.54125399 119.359131,5.69604492 C118.558834,6.85083585 118.147949,8.64207771 118.126465,11.0698242 L118.126465,12.8422852 C118.126465,15.3774541 118.510494,17.2304629 119.278564,18.4013672 C120.046635,19.5722715 121.257804,20.1577148 122.912109,20.1577148 C124.405281,20.1577148 125.519772,19.8166538 126.255615,19.1345215 C126.991459,18.4523892 127.413085,17.3969798 127.520508,15.9682617 L132.354492,15.9682617 Z M144.213867,15.1948242 L140.362793,15.1948242 L140.362793,23.7832031 L135.528809,23.7832031 L135.528809,0.322265625 L144.246094,0.322265625 C147.017592,0.322265625 149.155266,0.939935229 150.65918,2.17529297 C152.163093,3.41065071 152.915039,5.15623872 152.915039,7.41210938 C152.915039,9.01270332 152.568607,10.3474068 151.875732,11.4162598 C151.182858,12.4851128 150.13282,13.3364226 148.725586,13.9702148 L153.80127,23.5576172 L153.80127,23.7832031 L148.612793,23.7832031 L144.213867,15.1948242 Z M140.362793,11.2792969 L144.262207,11.2792969 C145.47608,11.2792969 146.416012,10.9704621 147.082031,10.3527832 C147.74805,9.73510433 148.081055,8.88379449 148.081055,7.79882812 C148.081055,6.69237728 147.766849,5.82226879 147.138428,5.18847656 C146.510007,4.55468433 145.545905,4.23779297 144.246094,4.23779297 L140.362793,4.23779297 L140.362793,11.2792969 Z M170.704102,13.6157227 L161.422852,13.6157227 L161.422852,19.8999023 L172.31543,19.8999023 L172.31543,23.7832031 L156.588867,23.7832031 L156.588867,0.322265625 L172.283203,0.322265625 L172.283203,4.23779297 L161.422852,4.23779297 L161.422852,9.82910156 L170.704102,9.82910156 L170.704102,13.6157227 Z M188.396484,18.9492188 L179.920898,18.9492188 L178.30957,23.7832031 L173.169434,23.7832031 L181.902832,0.322265625 L186.382324,0.322265625 L195.164062,23.7832031 L190.023926,23.7832031 L188.396484,18.9492188 Z M181.226074,15.0336914 L187.091309,15.0336914 L184.142578,6.25195312 L181.226074,15.0336914 Z M215.015625,4.23779297 L207.829102,4.23779297 L207.829102,23.7832031 L202.995117,23.7832031 L202.995117,4.23779297 L195.905273,4.23779297 L195.905273,0.322265625 L215.015625,0.322265625 L215.015625,4.23779297 Z M231.88623,13.6157227 L222.60498,13.6157227 L222.60498,19.8999023 L233.497559,19.8999023 L233.497559,23.7832031 L217.770996,23.7832031 L217.770996,0.322265625 L233.465332,0.322265625 L233.465332,4.23779297 L222.60498,4.23779297 L222.60498,9.82910156 L231.88623,9.82910156 L231.88623,13.6157227 Z M257.796387,18.9492188 L249.320801,18.9492188 L247.709473,23.7832031 L242.569336,23.7832031 L251.302734,0.322265625 L255.782227,0.322265625 L264.563965,23.7832031 L259.423828,23.7832031 L257.796387,18.9492188 Z M250.625977,15.0336914 L256.491211,15.0336914 L253.54248,6.25195312 L250.625977,15.0336914 Z M292.633301,4.23779297 L285.446777,4.23779297 L285.446777,23.7832031 L280.612793,23.7832031 L280.612793,4.23779297 L273.522949,4.23779297 L273.522949,0.322265625 L292.633301,0.322265625 L292.633301,4.23779297 Z M308.633789,18.9492188 L300.158203,18.9492188 L298.546875,23.7832031 L293.406738,23.7832031 L302.140137,0.322265625 L306.619629,0.322265625 L315.401367,23.7832031 L310.26123,23.7832031 L308.633789,18.9492188 Z M301.463379,15.0336914 L307.328613,15.0336914 L304.379883,6.25195312 L301.463379,15.0336914 Z M317.592773,23.7832031 L317.592773,0.322265625 L325.810547,0.322265625 C328.657241,0.322265625 330.816399,0.867426189 332.288086,1.95776367 C333.759773,3.04810115 334.495605,4.64598557 334.495605,6.75146484 C334.495605,7.90088465 334.200198,8.9133257 333.609375,9.78881836 C333.018552,10.664311 332.196783,11.3061503 331.144043,11.7143555 C332.347174,12.0151382 333.295163,12.6220657 333.988037,13.5351562 C334.680912,14.4482468 335.027344,15.5654231 335.027344,16.8867188 C335.027344,19.1425894 334.307624,20.8505801 332.868164,22.0107422 C331.428704,23.1709042 329.376966,23.7617186 326.712891,23.7832031 L317.592773,23.7832031 Z M322.426758,13.5673828 L322.426758,19.8999023 L326.567871,19.8999023 C327.706549,19.8999023 328.595456,19.6286648 329.234619,19.0861816 C329.873782,18.5436985 330.193359,17.7944384 330.193359,16.8383789 C330.193359,14.6899307 329.081554,13.5996095 326.85791,13.5673828 L322.426758,13.5673828 Z M322.426758,10.1513672 L326.003906,10.1513672 C328.442395,10.1083982 329.661621,9.13623998 329.661621,7.23486328 C329.661621,6.1713814 329.352786,5.4060082 328.735107,4.9387207 C328.117429,4.47143321 327.142585,4.23779297 325.810547,4.23779297 L322.426758,4.23779297 L322.426758,10.1513672 Z M0,53.2441406 C0,50.7841674 0.327633442,48.4423939 0.982910156,46.21875 C1.63818687,43.9951061 2.60497408,42.0266199 3.88330078,40.3132324 C5.16162749,38.5998449 6.54735582,37.4101596 8.04052734,36.7441406 L8.94287109,39.2578125 C7.37450388,40.4179746 6.14990675,42.2119019 5.26904297,44.6396484 C4.38817919,47.067395 3.94775391,49.9033041 3.94775391,53.1474609 L3.94775391,53.6469727 C3.94775391,56.9018717 4.38280815,59.748523 5.25292969,62.1870117 C6.12305123,64.6255005 7.35301939,66.446283 8.94287109,67.6494141 L8.04052734,70.1147461 C6.57958254,69.4594694 5.21802389,68.3020103 3.95581055,66.642334 C2.6935972,64.9826577 1.72949552,63.0678819 1.06347656,60.8979492 C0.397457607,58.7280165 0.0429689648,56.4614376 0,54.0981445 L0,53.2441406 Z M24.9272461,57.9492188 L16.4516602,57.9492188 L14.840332,62.7832031 L9.70019531,62.7832031 L18.4335938,39.3222656 L22.9130859,39.3222656 L31.6948242,62.7832031 L26.5546875,62.7832031 L24.9272461,57.9492188 Z M17.7568359,54.0336914 L23.6220703,54.0336914 L20.6733398,45.2519531 L17.7568359,54.0336914 Z M38.7202148,58.8999023 L48.984375,58.8999023 L48.984375,62.7832031 L33.8862305,62.7832031 L33.8862305,39.3222656 L38.7202148,39.3222656 L38.7202148,58.8999023 Z M63.9213867,56.6279297 C63.9213867,55.7148392 63.5991243,55.0139185 62.9545898,54.5251465 C62.3100554,54.0363745 61.1499107,53.5207547 59.4741211,52.9782715 C57.7983315,52.4357883 56.4716846,51.9013698 55.4941406,51.375 C52.8300648,49.9355397 51.4980469,47.9965942 51.4980469,45.5581055 C51.4980469,44.290521 51.855221,43.1599171 52.5695801,42.1662598 C53.2839391,41.1726025 54.3098078,40.3964872 55.6472168,39.8378906 C56.9846258,39.2792941 58.4858315,39 60.1508789,39 C61.8266685,39 63.3198177,39.3034638 64.6303711,39.9104004 C65.9409245,40.517337 66.9587366,41.3740179 67.6838379,42.4804688 C68.4089392,43.5869196 68.7714844,44.843743 68.7714844,46.2509766 L63.9375,46.2509766 C63.9375,45.1767524 63.5991245,44.3415557 62.9223633,43.7453613 C62.2456021,43.1491669 61.294928,42.8510742 60.0703125,42.8510742 C58.888666,42.8510742 57.9702181,43.1008276 57.3149414,43.6003418 C56.6596647,44.099856 56.3320312,44.7578084 56.3320312,45.5742188 C56.3320312,46.3369179 56.7160606,46.9760716 57.4841309,47.4916992 C58.2522011,48.0073268 59.382805,48.4907204 60.8759766,48.9418945 C63.6259903,49.7690471 65.6293882,50.7949158 66.8862305,52.0195312 C68.1430727,53.2441467 68.7714844,54.7695221 68.7714844,56.5957031 C68.7714844,58.6259867 68.0034256,60.2185001 66.4672852,61.373291 C64.9311447,62.5280819 62.8632942,63.1054688 60.2636719,63.1054688 C58.4589754,63.1054688 56.8154371,62.7751498 55.3330078,62.114502 C53.8505785,61.4538541 52.7199746,60.5488339 51.9411621,59.3994141 C51.1623496,58.2499943 50.7729492,56.9179763 50.7729492,55.4033203 L55.6230469,55.4033203 C55.6230469,57.9922004 57.1699064,59.2866211 60.2636719,59.2866211 C61.4130917,59.2866211 62.3100554,59.0529809 62.9545898,58.5856934 C63.5991243,58.1184059 63.9213867,57.4658245 63.9213867,56.6279297 Z M91.3139648,51.5844727 C91.3139648,53.8940545 90.9057658,55.9189366 90.0893555,57.6591797 C89.2729451,59.3994228 88.1047439,60.7421828 86.5847168,61.6875 C85.0646897,62.6328172 83.3217872,63.1054688 81.355957,63.1054688 C79.4116114,63.1054688 77.6767654,62.6381883 76.1513672,61.7036133 C74.6259689,60.7690383 73.4443401,59.4343348 72.6064453,57.6994629 C71.7685505,55.9645909 71.3442383,53.9692496 71.3334961,51.7133789 L71.3334961,50.5532227 C71.3334961,48.2436408 71.7497517,46.2107021 72.5822754,44.4543457 C73.4147991,42.6979893 74.5910569,41.3498582 76.111084,40.4099121 C77.6311111,39.469966 79.3686426,39 81.3237305,39 C83.2788184,39 85.0163498,39.469966 86.536377,40.4099121 C88.0564041,41.3498582 89.2326619,42.6979893 90.0651855,44.4543457 C90.8977092,46.2107021 91.3139648,48.2382698 91.3139648,50.5371094 L91.3139648,51.5844727 Z M86.4155273,50.5209961 C86.4155273,48.0610229 85.9751021,46.1919009 85.0942383,44.9135742 C84.2133745,43.6352475 82.9565511,42.9960938 81.3237305,42.9960938 C79.701652,42.9960938 78.4501997,43.627191 77.5693359,44.8894043 C76.6884722,46.1516176 76.2426758,48.0019409 76.2319336,50.4404297 L76.2319336,51.5844727 C76.2319336,53.9799924 76.6723589,55.8383723 77.5532227,57.159668 C78.4340864,58.4809636 79.7016519,59.1416016 81.355957,59.1416016 C82.9780355,59.1416016 84.2241167,58.5051333 85.0942383,57.2321777 C85.9643598,55.9592222 86.4047851,54.1035278 86.4155273,51.6650391 L86.4155273,50.5209961 Z M121.461914,54.9682617 C121.279296,57.4926884 120.347421,59.4799732 118.66626,60.9301758 C116.985099,62.3803783 114.769545,63.1054688 112.019531,63.1054688 C109.011704,63.1054688 106.645761,62.0930277 104.921631,60.0681152 C103.197501,58.0432028 102.335449,55.2636895 102.335449,51.7294922 L102.335449,50.2954102 C102.335449,48.0395395 102.732906,46.0522547 103.527832,44.3334961 C104.322758,42.6147375 105.458733,41.2961472 106.935791,40.3776855 C108.412849,39.4592239 110.128896,39 112.083984,39 C114.791029,39 116.971671,39.7250904 118.625977,41.175293 C120.280282,42.6254955 121.236327,44.6611197 121.494141,47.2822266 L116.660156,47.2822266 C116.541992,45.7675706 116.120365,44.6691929 115.395264,43.9870605 C114.670162,43.3049282 113.566414,42.9638672 112.083984,42.9638672 C110.472648,42.9638672 109.26685,43.541254 108.466553,44.6960449 C107.666256,45.8508359 107.255371,47.6420777 107.233887,50.0698242 L107.233887,51.8422852 C107.233887,54.3774541 107.617916,56.2304629 108.385986,57.4013672 C109.154057,58.5722715 110.365226,59.1577148 112.019531,59.1577148 C113.512703,59.1577148 114.627194,58.8166538 115.363037,58.1345215 C116.098881,57.4523892 116.520507,56.3969798 116.62793,54.9682617 L121.461914,54.9682617 Z M137.881348,57.9492188 L129.405762,57.9492188 L127.794434,62.7832031 L122.654297,62.7832031 L131.387695,39.3222656 L135.867188,39.3222656 L144.648926,62.7832031 L139.508789,62.7832031 L137.881348,57.9492188 Z M130.710938,54.0336914 L136.576172,54.0336914 L133.627441,45.2519531 L130.710938,54.0336914 Z M151.674316,58.8999023 L161.938477,58.8999023 L161.938477,62.7832031 L146.840332,62.7832031 L146.840332,39.3222656 L151.674316,39.3222656 L151.674316,58.8999023 Z M169.543945,58.8999023 L179.808105,58.8999023 L179.808105,62.7832031 L164.709961,62.7832031 L164.709961,39.3222656 L169.543945,39.3222656 L169.543945,58.8999023 Z M196.694824,52.6157227 L187.413574,52.6157227 L187.413574,58.8999023 L198.306152,58.8999023 L198.306152,62.7832031 L182.57959,62.7832031 L182.57959,39.3222656 L198.273926,39.3222656 L198.273926,43.237793 L187.413574,43.237793 L187.413574,48.8291016 L196.694824,48.8291016 L196.694824,52.6157227 Z M201.14209,62.7832031 L201.14209,39.3222656 L208.36084,39.3222656 C210.42335,39.3222656 212.268302,39.7868606 213.895752,40.7160645 C215.523201,41.6452683 216.793452,42.9665442 217.706543,44.6799316 C218.619633,46.3933191 219.076172,48.3403211 219.076172,50.5209961 L219.076172,51.6005859 C219.076172,53.7812609 218.62769,55.7202064 217.730713,57.4174805 C216.833736,59.1147546 215.568856,60.4306594 213.936035,61.3652344 C212.303214,62.2998094 210.460948,62.7724609 208.40918,62.7832031 L201.14209,62.7832031 Z M205.976074,43.237793 L205.976074,58.8999023 L208.3125,58.8999023 C210.203134,58.8999023 211.647944,58.2822327 212.646973,57.046875 C213.646001,55.8115173 214.15625,54.0444451 214.177734,51.7456055 L214.177734,50.5048828 C214.177734,48.1201053 213.683599,46.3127503 212.695312,45.0827637 C211.707026,43.8527771 210.262217,43.237793 208.36084,43.237793 L205.976074,43.237793 Z M244.051758,57.9492188 L235.576172,57.9492188 L233.964844,62.7832031 L228.824707,62.7832031 L237.558105,39.3222656 L242.037598,39.3222656 L250.819336,62.7832031 L245.679199,62.7832031 L244.051758,57.9492188 Z M236.881348,54.0336914 L242.746582,54.0336914 L239.797852,45.2519531 L236.881348,54.0336914 Z M272.088867,62.7832031 L267.254883,62.7832031 L257.844727,47.3466797 L257.844727,62.7832031 L253.010742,62.7832031 L253.010742,39.3222656 L257.844727,39.3222656 L267.270996,54.7910156 L267.270996,39.3222656 L272.088867,39.3222656 L272.088867,62.7832031 Z M303.799805,51.5844727 C303.799805,53.8940545 303.391606,55.9189366 302.575195,57.6591797 C301.758785,59.3994228 300.590584,60.7421828 299.070557,61.6875 C297.55053,62.6328172 295.807627,63.1054688 293.841797,63.1054688 C291.897451,63.1054688 290.162605,62.6381883 288.637207,61.7036133 C287.111809,60.7690383 285.93018,59.4343348 285.092285,57.6994629 C284.25439,55.9645909 283.830078,53.9692496 283.819336,51.7133789 L283.819336,50.5532227 C283.819336,48.2436408 284.235592,46.2107021 285.068115,44.4543457 C285.900639,42.6979893 287.076897,41.3498582 288.596924,40.4099121 C290.116951,39.469966 291.854482,39 293.80957,39 C295.764658,39 297.50219,39.469966 299.022217,40.4099121 C300.542244,41.3498582 301.718502,42.6979893 302.551025,44.4543457 C303.383549,46.2107021 303.799805,48.2382698 303.799805,50.5371094 L303.799805,51.5844727 Z M298.901367,50.5209961 C298.901367,48.0610229 298.460942,46.1919009 297.580078,44.9135742 C296.699214,43.6352475 295.442391,42.9960938 293.80957,42.9960938 C292.187492,42.9960938 290.93604,43.627191 290.055176,44.8894043 C289.174312,46.1516176 288.728516,48.0019409 288.717773,50.4404297 L288.717773,51.5844727 C288.717773,53.9799924 289.158199,55.8383723 290.039062,57.159668 C290.919926,58.4809636 292.187492,59.1416016 293.841797,59.1416016 C295.463875,59.1416016 296.709957,58.5051333 297.580078,57.2321777 C298.4502,55.9592222 298.890625,54.1035278 298.901367,51.6650391 L298.901367,50.5209961 Z M315.997559,54.1948242 L312.146484,54.1948242 L312.146484,62.7832031 L307.3125,62.7832031 L307.3125,39.3222656 L316.029785,39.3222656 C318.801283,39.3222656 320.938957,39.9399352 322.442871,41.175293 C323.946785,42.4106507 324.69873,44.1562387 324.69873,46.4121094 C324.69873,48.0127033 324.352298,49.3474068 323.659424,50.4162598 C322.966549,51.4851128 321.916511,52.3364226 320.509277,52.9702148 L325.584961,62.5576172 L325.584961,62.7832031 L320.396484,62.7832031 L315.997559,54.1948242 Z M312.146484,50.2792969 L316.045898,50.2792969 C317.259772,50.2792969 318.199704,49.9704621 318.865723,49.3527832 C319.531742,48.7351043 319.864746,47.8837945 319.864746,46.7988281 C319.864746,45.6923773 319.55054,44.8222688 318.922119,44.1884766 C318.293698,43.5546843 317.329596,43.237793 316.029785,43.237793 L312.146484,43.237793 L312.146484,50.2792969 Z M328.372559,62.7832031 L328.372559,39.3222656 L335.591309,39.3222656 C337.653819,39.3222656 339.498771,39.7868606 341.126221,40.7160645 C342.75367,41.6452683 344.023921,42.9665442 344.937012,44.6799316 C345.850102,46.3933191 346.306641,48.3403211 346.306641,50.5209961 L346.306641,51.6005859 C346.306641,53.7812609 345.858159,55.7202064 344.961182,57.4174805 C344.064204,59.1147546 342.799325,60.4306594 341.166504,61.3652344 C339.533683,62.2998094 337.691417,62.7724609 335.639648,62.7832031 L328.372559,62.7832031 Z M333.206543,43.237793 L333.206543,58.8999023 L335.542969,58.8999023 C337.433603,58.8999023 338.878413,58.2822327 339.877441,57.046875 C340.87647,55.8115173 341.386719,54.0444451 341.408203,51.7456055 L341.408203,50.5048828 C341.408203,48.1201053 340.914067,46.3127503 339.925781,45.0827637 C338.937495,43.8527771 337.492685,43.237793 335.591309,43.237793 L333.206543,43.237793 Z M363.93457,52.6157227 L354.65332,52.6157227 L354.65332,58.8999023 L365.545898,58.8999023 L365.545898,62.7832031 L349.819336,62.7832031 L349.819336,39.3222656 L365.513672,39.3222656 L365.513672,43.237793 L354.65332,43.237793 L354.65332,48.8291016 L363.93457,48.8291016 L363.93457,52.6157227 Z M377.066895,54.1948242 L373.21582,54.1948242 L373.21582,62.7832031 L368.381836,62.7832031 L368.381836,39.3222656 L377.099121,39.3222656 C379.870619,39.3222656 382.008293,39.9399352 383.512207,41.175293 C385.016121,42.4106507 385.768066,44.1562387 385.768066,46.4121094 C385.768066,48.0127033 385.421634,49.3474068 384.72876,50.4162598 C384.035885,51.4851128 382.985847,52.3364226 381.578613,52.9702148 L386.654297,62.5576172 L386.654297,62.7832031 L381.46582,62.7832031 L377.066895,54.1948242 Z M373.21582,50.2792969 L377.115234,50.2792969 C378.329108,50.2792969 379.26904,49.9704621 379.935059,49.3527832 C380.601078,48.7351043 380.934082,47.8837945 380.934082,46.7988281 C380.934082,45.6923773 380.619876,44.8222688 379.991455,44.1884766 C379.363034,43.5546843 378.398932,43.237793 377.099121,43.237793 L373.21582,43.237793 L373.21582,50.2792969 Z M397.160156,53.6147461 C397.160156,56.0424926 396.811039,58.378895 396.112793,60.6240234 C395.414547,62.8691519 394.410163,64.8510656 393.099609,66.5698242 C391.789056,68.2885828 390.387214,69.4702116 388.894043,70.1147461 L387.991699,67.6494141 C389.517097,66.4999943 390.72021,64.727551 391.601074,62.3320312 C392.481938,59.9365115 392.938476,57.1811679 392.970703,54.065918 L392.970703,53.2119141 C392.970703,49.9999839 392.532963,47.1694458 391.657471,44.7202148 C390.781978,42.2709838 389.560066,40.4340882 387.991699,39.2094727 L388.894043,36.7441406 C390.354988,37.3779329 391.73266,38.5273354 393.0271,40.1923828 C394.32154,41.8574302 395.325924,43.7963757 396.040283,46.0092773 C396.754642,48.222179 397.12793,50.5156131 397.160156,52.8896484 L397.160156,53.6147461 Z" id="TOCREATEATAB(ALSOCALLEDANORDER)" fill="#000000"></path>
            <path d="M25.9907227,82.237793 L18.8041992,82.237793 L18.8041992,101.783203 L13.9702148,101.783203 L13.9702148,82.237793 L6.88037109,82.237793 L6.88037109,78.3222656 L25.9907227,78.3222656 L25.9907227,82.237793 Z M41.9912109,96.9492188 L33.515625,96.9492188 L31.9042969,101.783203 L26.7641602,101.783203 L35.4975586,78.3222656 L39.9770508,78.3222656 L48.7587891,101.783203 L43.6186523,101.783203 L41.9912109,96.9492188 Z M34.8208008,93.0336914 L40.6860352,93.0336914 L37.7373047,84.2519531 L34.8208008,93.0336914 Z M55.7841797,93.5170898 L55.7841797,101.783203 L50.9501953,101.783203 L50.9501953,78.3222656 L60.1025391,78.3222656 C61.8642666,78.3222656 63.4138117,78.644528 64.7512207,79.2890625 C66.0886297,79.933597 67.1171839,80.8493593 67.8369141,82.036377 C68.5566442,83.2233946 68.9165039,84.5742112 68.9165039,86.0888672 C68.9165039,88.3877068 68.1296465,90.2004328 66.5559082,91.5270996 C64.9821699,92.8537664 62.8042131,93.5170898 60.0219727,93.5170898 L55.7841797,93.5170898 Z M55.7841797,89.6015625 L60.1025391,89.6015625 C61.3808658,89.6015625 62.3557095,89.3007843 63.0270996,88.6992188 C63.6984897,88.0976532 64.0341797,87.2382868 64.0341797,86.1210938 C64.0341797,84.9716739 63.6958042,84.042484 63.019043,83.3334961 C62.3422818,82.6245082 61.4077208,82.2592775 60.215332,82.237793 L55.7841797,82.237793 L55.7841797,89.6015625 Z M98.1137695,82.237793 L90.9272461,82.237793 L90.9272461,101.783203 L86.0932617,101.783203 L86.0932617,82.237793 L79.003418,82.237793 L79.003418,78.3222656 L98.1137695,78.3222656 L98.1137695,82.237793 Z M119.963379,101.783203 L115.129395,101.783203 L115.129395,91.7285156 L105.703125,91.7285156 L105.703125,101.783203 L100.869141,101.783203 L100.869141,78.3222656 L105.703125,78.3222656 L105.703125,87.8291016 L115.129395,87.8291016 L115.129395,78.3222656 L119.963379,78.3222656 L119.963379,101.783203 Z M138.300293,91.6157227 L129.019043,91.6157227 L129.019043,97.8999023 L139.911621,97.8999023 L139.911621,101.783203 L124.185059,101.783203 L124.185059,78.3222656 L139.879395,78.3222656 L139.879395,82.237793 L129.019043,82.237793 L129.019043,87.8291016 L138.300293,87.8291016 L138.300293,91.6157227 Z M169.527832,98.8183594 C168.65771,99.8603568 167.427742,100.668698 165.837891,101.243408 C164.248039,101.818118 162.486338,102.105469 160.552734,102.105469 C158.522451,102.105469 156.741951,101.662358 155.211182,100.776123 C153.680412,99.8898881 152.498783,98.6035241 151.66626,96.9169922 C150.833736,95.2304603 150.406738,93.2485465 150.385254,90.9711914 L150.385254,89.3759766 C150.385254,87.034168 150.780025,85.0066004 151.56958,83.2932129 C152.359135,81.5798254 153.497795,80.2692916 154.985596,79.3615723 C156.473396,78.4538529 158.216299,78 160.214355,78 C162.996596,78 165.171867,78.6633234 166.740234,79.9899902 C168.308602,81.316657 169.237792,83.2475459 169.527832,85.7827148 L164.822754,85.7827148 C164.607909,84.4399347 164.132572,83.4570344 163.396729,82.8339844 C162.660885,82.2109344 161.648444,81.8994141 160.359375,81.8994141 C158.715812,81.8994141 157.46436,82.5170837 156.60498,83.7524414 C155.745601,84.9877991 155.310547,86.8246948 155.299805,89.2631836 L155.299805,90.7617188 C155.299805,93.221692 155.767085,95.0800718 156.70166,96.3369141 C157.636235,97.5937563 159.00585,98.222168 160.810547,98.222168 C162.625986,98.222168 163.920406,97.8354531 164.693848,97.0620117 L164.693848,93.0175781 L160.294922,93.0175781 L160.294922,89.456543 L169.527832,89.456543 L169.527832,98.8183594 Z M182.128418,93.1948242 L178.277344,93.1948242 L178.277344,101.783203 L173.443359,101.783203 L173.443359,78.3222656 L182.160645,78.3222656 C184.932143,78.3222656 187.069817,78.9399352 188.57373,80.175293 C190.077644,81.4106507 190.82959,83.1562387 190.82959,85.4121094 C190.82959,87.0127033 190.483158,88.3474068 189.790283,89.4162598 C189.097409,90.4851128 188.04737,91.3364226 186.640137,91.9702148 L191.71582,101.557617 L191.71582,101.783203 L186.527344,101.783203 L182.128418,93.1948242 Z M178.277344,89.2792969 L182.176758,89.2792969 C183.390631,89.2792969 184.330563,88.9704621 184.996582,88.3527832 C185.662601,87.7351043 185.995605,86.8837945 185.995605,85.7988281 C185.995605,84.6923773 185.6814,83.8222688 185.052979,83.1884766 C184.424557,82.5546843 183.460456,82.237793 182.160645,82.237793 L178.277344,82.237793 L178.277344,89.2792969 Z M208.618652,91.6157227 L199.337402,91.6157227 L199.337402,97.8999023 L210.22998,97.8999023 L210.22998,101.783203 L194.503418,101.783203 L194.503418,78.3222656 L210.197754,78.3222656 L210.197754,82.237793 L199.337402,82.237793 L199.337402,87.8291016 L208.618652,87.8291016 L208.618652,91.6157227 Z M227.181152,91.6157227 L217.899902,91.6157227 L217.899902,97.8999023 L228.79248,97.8999023 L228.79248,101.783203 L213.065918,101.783203 L213.065918,78.3222656 L228.760254,78.3222656 L228.760254,82.237793 L217.899902,82.237793 L217.899902,87.8291016 L227.181152,87.8291016 L227.181152,91.6157227 Z M250.706543,101.783203 L245.872559,101.783203 L236.462402,86.3466797 L236.462402,101.783203 L231.628418,101.783203 L231.628418,78.3222656 L236.462402,78.3222656 L245.888672,93.7910156 L245.888672,78.3222656 L250.706543,78.3222656 L250.706543,101.783203 Z M263.145996,101.783203 L263.145996,78.3222656 L271.36377,78.3222656 C274.210463,78.3222656 276.369622,78.8674262 277.841309,79.9577637 C279.312996,81.0481012 280.048828,82.6459856 280.048828,84.7514648 C280.048828,85.9008847 279.753421,86.9133257 279.162598,87.7888184 C278.571774,88.664311 277.750005,89.3061503 276.697266,89.7143555 C277.900397,90.0151382 278.848385,90.6220657 279.54126,91.5351562 C280.234134,92.4482468 280.580566,93.5654231 280.580566,94.8867188 C280.580566,97.1425894 279.860847,98.8505801 278.421387,100.010742 C276.981926,101.170904 274.930189,101.761719 272.266113,101.783203 L263.145996,101.783203 Z M267.97998,91.5673828 L267.97998,97.8999023 L272.121094,97.8999023 C273.259771,97.8999023 274.148678,97.6286648 274.787842,97.0861816 C275.427005,96.5436985 275.746582,95.7944384 275.746582,94.8383789 C275.746582,92.6899307 274.634777,91.5996095 272.411133,91.5673828 L267.97998,91.5673828 Z M267.97998,88.1513672 L271.557129,88.1513672 C273.995618,88.1083982 275.214844,87.13624 275.214844,85.2348633 C275.214844,84.1713814 274.906009,83.4060082 274.28833,82.9387207 C273.670651,82.4714332 272.695807,82.237793 271.36377,82.237793 L267.97998,82.237793 L267.97998,88.1513672 Z M301.962891,78.3222656 L301.962891,93.7749023 C301.962891,96.342298 301.15992,98.3725511 299.553955,99.8657227 C297.94799,101.358894 295.75392,102.105469 292.97168,102.105469 C290.232408,102.105469 288.057137,101.380378 286.445801,99.9301758 C284.834465,98.4799732 284.012695,96.4873174 283.980469,93.9521484 L283.980469,78.3222656 L288.814453,78.3222656 L288.814453,93.8071289 C288.814453,95.3432694 289.182369,96.4631312 289.918213,97.166748 C290.654056,97.8703648 291.671869,98.222168 292.97168,98.222168 C295.689467,98.222168 297.069824,96.7934713 297.112793,93.9360352 L297.112793,78.3222656 L301.962891,78.3222656 Z M323.586914,82.237793 L316.400391,82.237793 L316.400391,101.783203 L311.566406,101.783203 L311.566406,82.237793 L304.476562,82.237793 L304.476562,78.3222656 L323.586914,78.3222656 L323.586914,82.237793 Z M344.002441,82.237793 L336.815918,82.237793 L336.815918,101.783203 L331.981934,101.783203 L331.981934,82.237793 L324.89209,82.237793 L324.89209,78.3222656 L344.002441,78.3222656 L344.002441,82.237793 Z M366.029297,90.5844727 C366.029297,92.8940545 365.621098,94.9189366 364.804688,96.6591797 C363.988277,98.3994228 362.820076,99.7421828 361.300049,100.6875 C359.780022,101.632817 358.037119,102.105469 356.071289,102.105469 C354.126943,102.105469 352.392097,101.638188 350.866699,100.703613 C349.341301,99.7690383 348.159672,98.4343348 347.321777,96.6994629 C346.483883,94.9645909 346.05957,92.9692496 346.048828,90.7133789 L346.048828,89.5532227 C346.048828,87.2436408 346.465084,85.2107021 347.297607,83.4543457 C348.130131,81.6979893 349.306389,80.3498582 350.826416,79.4099121 C352.346443,78.469966 354.083975,78 356.039062,78 C357.99415,78 359.731682,78.469966 361.251709,79.4099121 C362.771736,80.3498582 363.947994,81.6979893 364.780518,83.4543457 C365.613041,85.2107021 366.029297,87.2382698 366.029297,89.5371094 L366.029297,90.5844727 Z M361.130859,89.5209961 C361.130859,87.0610229 360.690434,85.1919009 359.80957,83.9135742 C358.928707,82.6352475 357.671883,81.9960938 356.039062,81.9960938 C354.416984,81.9960938 353.165532,82.627191 352.284668,83.8894043 C351.403804,85.1516176 350.958008,87.0019409 350.947266,89.4404297 L350.947266,90.5844727 C350.947266,92.9799924 351.387691,94.8383723 352.268555,96.159668 C353.149418,97.4809636 354.416984,98.1416016 356.071289,98.1416016 C357.693367,98.1416016 358.939449,97.5051333 359.80957,96.2321777 C360.679692,94.9592222 361.120117,93.1035278 361.130859,90.6650391 L361.130859,89.5209961 Z M388.620117,101.783203 L383.786133,101.783203 L374.375977,86.3466797 L374.375977,101.783203 L369.541992,101.783203 L369.541992,78.3222656 L374.375977,78.3222656 L383.802246,93.7910156 L383.802246,78.3222656 L388.620117,78.3222656 L388.620117,101.783203 Z" id="TAPTHEGREENBUTTON" fill="#CE0052"></path>
        </g>
    </g>
</svg>