<?xml version="1.0" encoding="UTF-8"?>
<svg width="570px" height="792px" viewBox="0 0 570 792" version="1.1" xmlns="http://www.w3.org/2000/svg" xmlns:xlink="http://www.w3.org/1999/xlink">
    <!-- Generator: Sketch 54.1 (76490) - https://sketchapp.com -->
    <title>2_create_en</title>
    <desc>Created with Sketch.</desc>
    <g id="2_create_en" stroke="none" stroke-width="1" fill="none" fill-rule="evenodd">
        <rect fill="#00B0FF" x="0" y="0" width="570" height="792"></rect>
        <g id="Group-3" transform="translate(12.000000, 225.000000)">
            <rect id="Rectangle" fill="#0B0C24" x="0" y="0" width="547" height="547" rx="13"></rect>
            <path d="M12,286 L189,286 L189,388 L25,388 C17.8202983,388 12,382.179702 12,375 L12,286 Z" id="Rectangle" fill="#0098CE"></path>
            <path d="M355,286 L532,286 L532,388 L368,388 C360.820298,388 355,382.179702 355,375 L355,286 Z" id="Rectangle" fill="#0098CE" transform="translate(443.500000, 337.000000) scale(-1, 1) translate(-443.500000, -337.000000) "></path>
            <rect id="Rectangle" stroke="#979797" fill="#FFFFFF" x="12.5" y="400.5" width="519" height="64"></rect>
            <path d="M12,465 L532,465 L532,519 C532,525.075132 527.075132,530 521,530 L23,530 C16.9248678,530 12,525.075132 12,519 L12,465 Z" id="Rectangle" fill="#0098CE"></path>
            <text id="ADD-ITEM" font-family="Lato-Bold, Lato" font-size="40" font-weight="bold" fill="#FFFFFF">
                <tspan x="180" y="508">ADD ITEM</tspan>
            </text>
            <text id="-$0.00" font-family="Roboto-Bold, Roboto" font-size="30" font-weight="bold" fill="#FF0088">
                <tspan x="423.805664" y="243">-$0.00</tspan>
            </text>
            <text id="Discount:" font-family="Roboto-Bold, Roboto" font-size="30" font-weight="bold" fill="#00E7FF">
                <tspan x="403.324219" y="189">Discount:</tspan>
            </text>
            <text id="Sub:-Tax:-Tip:" font-family="Roboto-Bold, Roboto" font-size="30" font-weight="bold" fill="#00E7FF">
                <tspan x="21.4140625" y="189">Sub:</tspan>
                <tspan x="23.6259766" y="224">Tax:</tspan>
                <tspan x="30.1298828" y="259">Tip:</tspan>
            </text>
            <text id="$0.00" font-family="Lato-Bold, Lato" font-size="40" font-weight="bold" fill="#659B00">
                <tspan x="411.7" y="446">$0.00</tspan>
            </text>
            <text id="CUSTOMER-1" font-family="Roboto-Bold, Roboto" font-size="40" font-weight="bold" fill="#FFFFFF">
                <tspan x="34.2851562" y="76">CUSTOMER 1</tspan>
            </text>
            <rect id="Rectangle" stroke-opacity="0.329200634" stroke="#00C9FE" stroke-width="3" x="21.5" y="28.5" width="269" height="67" rx="6"></rect>
            <rect id="Rectangle" stroke-opacity="0.329200634" stroke="#00C9FE" stroke-width="3" x="405.5" y="210.5" width="125" height="47" rx="6"></rect>
            <text id="$0.00" font-family="Lato-Bold, Lato" font-size="60" font-weight="bold" fill="#FFFFFF">
                <tspan x="188.55" y="256">$0.00</tspan>
            </text>
            <text id="OPEN" font-family="Roboto-Bold, Roboto" font-size="40" font-weight="bold" fill="#FFFFFF">
                <tspan x="424.419922" y="141">OPEN</tspan>
            </text>
            <text id="SERVER-MINS-TIME" font-family="Roboto-Bold, Roboto" font-size="40" font-weight="bold" fill="#FFFFFF">
                <tspan x="24" y="141">SERVER MINS TIME</tspan>
            </text>
            <rect id="Rectangle" fill="#ADFB5F" x="449" y="39" width="82" height="50" rx="3"></rect>
            <ellipse id="Oval" fill="#FFFFFF" cx="491" cy="64" rx="18" ry="19"></ellipse>
            <text id="$" font-family="Roboto-Bold, Roboto" font-size="30" font-weight="bold" fill="#509209">
                <tspan x="482.394043" y="75">$</tspan>
            </text>
            <text id="Custom-Item-1" font-family="Lato-Bold, Lato" font-size="40" font-weight="bold" fill="#949494">
                <tspan x="26.8" y="445">Custom Item 1</tspan>
            </text>
            <rect id="Rectangle" fill="#98CE00" x="189" y="286" width="166" height="102"></rect>
            <text id="AUTH" font-family="Roboto-Black, Roboto" font-size="35" font-weight="700" fill="#080B26">
                <tspan x="54" y="350">AUTH</tspan>
            </text>
            <text id="PAY" font-family="Roboto-Black, Roboto" font-size="35" font-weight="700" fill="#080B26">
                <tspan x="238" y="350">PAY</tspan>
            </text>
            <text id="CATALOG" font-family="Roboto-Black, Roboto" font-size="35" font-weight="700" fill="#080B26">
                <tspan x="364" y="349">CATALOG</tspan>
            </text>
        </g>
        <rect id="Rectangle" fill="#FFFFFF" x="61" y="47" width="449" height="126" rx="12"></rect>
        <path d="M191.55,71.98 L182.55,101 L177.13,101 L171.19,82.02 C171.096666,81.753332 171.003334,81.4600016 170.91,81.14 C170.816666,80.8199984 170.73,80.4800018 170.65,80.12 C170.57,80.4800018 170.483334,80.8199984 170.39,81.14 C170.296666,81.4600016 170.203334,81.753332 170.11,82.02 L164.11,101 L158.67,101 L149.69,71.98 L154.73,71.98 C155.250003,71.98 155.686665,72.0999988 156.04,72.34 C156.393335,72.5800012 156.623333,72.899998 156.73,73.3 L161.23,89.66 C161.336667,90.1133356 161.446666,90.6033307 161.56,91.13 C161.673334,91.6566693 161.783333,92.2133304 161.89,92.8 C162.010001,92.199997 162.136666,91.6400026 162.27,91.12 C162.403334,90.5999974 162.549999,90.1133356 162.71,89.66 L167.95,73.3 C168.056667,72.966665 168.286665,72.6633347 168.64,72.39 C168.993335,72.1166653 169.423331,71.98 169.93,71.98 L171.69,71.98 C172.210003,71.98 172.633332,72.1033321 172.96,72.35 C173.286668,72.5966679 173.529999,72.9133314 173.69,73.3 L178.91,89.66 C179.070001,90.0866688 179.216666,90.5499975 179.35,91.05 C179.483334,91.5500025 179.609999,92.0799972 179.73,92.64 C179.836667,92.0799972 179.939999,91.5500025 180.04,91.05 C180.14,90.5499975 180.243333,90.0866688 180.35,89.66 L184.85,73.3 C184.943334,72.9533316 185.169998,72.646668 185.53,72.38 C185.890002,72.113332 186.323331,71.98 186.83,71.98 L191.55,71.98 Z M200.85,76.68 L200.85,84.14 L210.53,84.14 L210.53,88.68 L200.85,88.68 L200.85,96.3 L213.29,96.3 L213.29,101 L194.81,101 L194.81,71.98 L213.29,71.98 L213.29,76.68 L200.85,76.68 Z M234.99,96.12 L234.99,101 L217.77,101 L217.77,71.98 L223.77,71.98 L223.77,96.12 L234.99,96.12 Z M258.41,93.86 C258.743335,93.86 259.023332,93.9799988 259.25,94.22 L261.63,96.76 C260.456661,98.2533408 259.000009,99.3866628 257.26,100.16 C255.519991,100.933337 253.450012,101.32 251.05,101.32 C248.876656,101.32 246.923342,100.950004 245.19,100.21 C243.456658,99.4699963 241.983339,98.4400066 240.77,97.12 C239.556661,95.7999934 238.623337,94.2333424 237.97,92.42 C237.316663,90.6066576 236.99,88.6266774 236.99,86.48 C236.99,85.0399928 237.146665,83.6700065 237.46,82.37 C237.773335,81.0699935 238.229997,79.8733388 238.83,78.78 C239.430003,77.6866612 240.153329,76.7000044 241,75.82 C241.846671,74.9399956 242.803328,74.1900031 243.87,73.57 C244.936672,72.9499969 246.099994,72.4766683 247.36,72.15 C248.620006,71.8233317 249.963326,71.66 251.39,71.66 C252.456672,71.66 253.466662,71.7533324 254.42,71.94 C255.373338,72.1266676 256.263329,72.386665 257.09,72.72 C257.916671,73.053335 258.679997,73.4566643 259.38,73.93 C260.080003,74.4033357 260.709997,74.9199972 261.27,75.48 L259.25,78.24 C259.129999,78.4133342 258.976668,78.566666 258.79,78.7 C258.603332,78.833334 258.350002,78.9 258.03,78.9 C257.709998,78.9 257.386668,78.7866678 257.06,78.56 C256.733332,78.3333322 256.333336,78.0800014 255.86,77.8 C255.386664,77.5199986 254.793337,77.2666678 254.08,77.04 C253.366663,76.8133322 252.463339,76.7 251.37,76.7 C250.156661,76.7 249.043338,76.9199978 248.03,77.36 C247.016662,77.8000022 246.14667,78.4366625 245.42,79.27 C244.69333,80.1033375 244.130002,81.1266606 243.73,82.34 C243.329998,83.5533394 243.13,84.9333256 243.13,86.48 C243.13,88.0400078 243.346664,89.4299939 243.78,90.65 C244.213335,91.8700061 244.806663,92.8999958 245.56,93.74 C246.313337,94.5800042 247.193328,95.2166645 248.2,95.65 C249.206672,96.0833355 250.283328,96.3 251.43,96.3 C252.110003,96.3 252.726664,96.266667 253.28,96.2 C253.833336,96.133333 254.346664,96.0200008 254.82,95.86 C255.293336,95.6999992 255.739998,95.4933346 256.16,95.24 C256.580002,94.9866654 257.003331,94.6666686 257.43,94.28 C257.576667,94.1599994 257.729999,94.0600004 257.89,93.98 C258.050001,93.8999996 258.223332,93.86 258.41,93.86 Z M293.05,86.48 C293.05,88.6000106 292.693337,90.5666576 291.98,92.38 C291.266663,94.1933424 290.260006,95.7599934 288.96,97.08 C287.659993,98.4000066 286.096676,99.4366629 284.27,100.19 C282.443324,100.943337 280.416678,101.32 278.19,101.32 C275.963322,101.32 273.936676,100.943337 272.11,100.19 C270.283324,99.4366629 268.716673,98.4000066 267.41,97.08 C266.103327,95.7599934 265.093337,94.1933424 264.38,92.38 C263.666663,90.5666576 263.31,88.6000106 263.31,86.48 C263.31,84.3599894 263.666663,82.3966757 264.38,80.59 C265.093337,78.7833243 266.103327,77.2200066 267.41,75.9 C268.716673,74.5799934 270.283324,73.5433371 272.11,72.79 C273.936676,72.0366629 275.963322,71.66 278.19,71.66 C280.416678,71.66 282.443324,72.0366629 284.27,72.79 C286.096676,73.5433371 287.659993,74.5833267 288.96,75.91 C290.260006,77.2366733 291.266663,78.8033243 291.98,80.61 C292.693337,82.4166757 293.05,84.3733228 293.05,86.48 Z M286.91,86.48 C286.91,84.9599924 286.710002,83.5966727 286.31,82.39 C285.909998,81.1833273 285.333337,80.1566709 284.58,79.31 C283.826663,78.4633291 282.913339,77.8166689 281.84,77.37 C280.766661,76.9233311 279.550007,76.7 278.19,76.7 C276.829993,76.7 275.610005,76.9233311 274.53,77.37 C273.449995,77.8166689 272.533337,78.4633291 271.78,79.31 C271.026663,80.1566709 270.450002,81.1833273 270.05,82.39 C269.649998,83.5966727 269.45,84.9599924 269.45,86.48 C269.45,88.013341 269.649998,89.3833273 270.05,90.59 C270.450002,91.7966727 271.026663,92.8199958 271.78,93.66 C272.533337,94.5000042 273.449995,95.1433311 274.53,95.59 C275.610005,96.0366689 276.829993,96.26 278.19,96.26 C279.550007,96.26 280.766661,96.0366689 281.84,95.59 C282.913339,95.1433311 283.826663,94.5000042 284.58,93.66 C285.333337,92.8199958 285.909998,91.7966727 286.31,90.59 C286.710002,89.3833273 286.91,88.013341 286.91,86.48 Z M329.45,71.98 L329.45,101 L324.15,101 L324.15,83.18 C324.15,82.8066648 324.16,82.4066688 324.18,81.98 C324.2,81.5533312 324.236666,81.1200022 324.29,80.68 L315.99,96.42 C315.536664,97.286671 314.836671,97.72 313.89,97.72 L313.05,97.72 C312.583331,97.72 312.170002,97.6100011 311.81,97.39 C311.449998,97.1699989 311.163334,96.8466688 310.95,96.42 L302.61,80.62 C302.65,81.086669 302.683333,81.5366645 302.71,81.97 C302.736667,82.4033355 302.75,82.8066648 302.75,83.18 L302.75,101 L297.45,101 L297.45,71.98 L302.01,71.98 C302.263335,71.98 302.489999,71.9866666 302.69,72 C302.890001,72.0133334 303.066666,72.0499997 303.22,72.11 C303.373334,72.1700003 303.513333,72.2633327 303.64,72.39 C303.766667,72.5166673 303.889999,72.6933322 304.01,72.92 L312.13,88.4 C312.383335,88.866669 312.619999,89.3466642 312.84,89.84 C313.060001,90.3333358 313.269999,90.8399974 313.47,91.36 C313.670001,90.826664 313.879999,90.3066692 314.1,89.8 C314.320001,89.2933308 314.556665,88.806669 314.81,88.34 L322.87,72.92 C322.990001,72.6933322 323.116666,72.5166673 323.25,72.39 C323.383334,72.2633327 323.526666,72.1700003 323.68,72.11 C323.833334,72.0499997 324.006666,72.0133334 324.2,72 C324.393334,71.9866666 324.623332,71.98 324.89,71.98 L329.45,71.98 Z M341.55,76.68 L341.55,84.14 L351.23,84.14 L351.23,88.68 L341.55,88.68 L341.55,96.3 L353.99,96.3 L353.99,101 L335.51,101 L335.51,71.98 L353.99,71.98 L353.99,76.68 L341.55,76.68 Z M388.51,76.82 L380.03,76.82 L380.03,101 L374.01,101 L374.01,76.82 L365.53,76.82 L365.53,71.98 L388.51,71.98 L388.51,76.82 Z M420.17,86.48 C420.17,88.6000106 419.813337,90.5666576 419.1,92.38 C418.386663,94.1933424 417.380006,95.7599934 416.08,97.08 C414.779993,98.4000066 413.216676,99.4366629 411.39,100.19 C409.563324,100.943337 407.536678,101.32 405.31,101.32 C403.083322,101.32 401.056676,100.943337 399.23,100.19 C397.403324,99.4366629 395.836673,98.4000066 394.53,97.08 C393.223327,95.7599934 392.213337,94.1933424 391.5,92.38 C390.786663,90.5666576 390.43,88.6000106 390.43,86.48 C390.43,84.3599894 390.786663,82.3966757 391.5,80.59 C392.213337,78.7833243 393.223327,77.2200066 394.53,75.9 C395.836673,74.5799934 397.403324,73.5433371 399.23,72.79 C401.056676,72.0366629 403.083322,71.66 405.31,71.66 C407.536678,71.66 409.563324,72.0366629 411.39,72.79 C413.216676,73.5433371 414.779993,74.5833267 416.08,75.91 C417.380006,77.2366733 418.386663,78.8033243 419.1,80.61 C419.813337,82.4166757 420.17,84.3733228 420.17,86.48 Z M414.03,86.48 C414.03,84.9599924 413.830002,83.5966727 413.43,82.39 C413.029998,81.1833273 412.453337,80.1566709 411.7,79.31 C410.946663,78.4633291 410.033339,77.8166689 408.96,77.37 C407.886661,76.9233311 406.670007,76.7 405.31,76.7 C403.949993,76.7 402.730005,76.9233311 401.65,77.37 C400.569995,77.8166689 399.653337,78.4633291 398.9,79.31 C398.146663,80.1566709 397.570002,81.1833273 397.17,82.39 C396.769998,83.5966727 396.57,84.9599924 396.57,86.48 C396.57,88.013341 396.769998,89.3833273 397.17,90.59 C397.570002,91.7966727 398.146663,92.8199958 398.9,93.66 C399.653337,94.5000042 400.569995,95.1433311 401.65,95.59 C402.730005,96.0366689 403.949993,96.26 405.31,96.26 C406.670007,96.26 407.886661,96.0366689 408.96,95.59 C410.033339,95.1433311 410.946663,94.5000042 411.7,93.66 C412.453337,92.8199958 413.029998,91.7966727 413.43,90.59 C413.830002,89.3833273 414.03,88.013341 414.03,86.48 Z M136.3,137.84 L136.3,149 L130.3,149 L130.3,137.84 L119.76,119.98 L125.04,119.98 C125.560003,119.98 125.976665,120.103332 126.29,120.35 C126.603335,120.596668 126.853332,120.913331 127.04,121.3 L131.8,130.44 C132.120002,131.053336 132.409999,131.626664 132.67,132.16 C132.930001,132.693336 133.159999,133.226664 133.36,133.76 C133.546668,133.226664 133.763332,132.690003 134.01,132.15 C134.256668,131.609997 134.533332,131.040003 134.84,130.44 L139.56,121.3 C139.720001,120.979998 139.959998,120.680001 140.28,120.4 C140.600002,120.119999 141.013331,119.98 141.52,119.98 L146.84,119.98 L136.3,137.84 Z M177.54,134.48 C177.54,136.600011 177.183337,138.566658 176.47,140.38 C175.756663,142.193342 174.750007,143.759993 173.45,145.08 C172.149994,146.400007 170.586676,147.436663 168.76,148.19 C166.933324,148.943337 164.906678,149.32 162.68,149.32 C160.453322,149.32 158.426676,148.943337 156.6,148.19 C154.773324,147.436663 153.206673,146.400007 151.9,145.08 C150.593327,143.759993 149.583337,142.193342 148.87,140.38 C148.156663,138.566658 147.8,136.600011 147.8,134.48 C147.8,132.359989 148.156663,130.396676 148.87,128.59 C149.583337,126.783324 150.593327,125.220007 151.9,123.9 C153.206673,122.579993 154.773324,121.543337 156.6,120.79 C158.426676,120.036663 160.453322,119.66 162.68,119.66 C164.906678,119.66 166.933324,120.036663 168.76,120.79 C170.586676,121.543337 172.149994,122.583327 173.45,123.91 C174.750007,125.236673 175.756663,126.803324 176.47,128.61 C177.183337,130.416676 177.54,132.373323 177.54,134.48 Z M171.4,134.48 C171.4,132.959992 171.200002,131.596673 170.8,130.39 C170.399998,129.183327 169.823337,128.156671 169.07,127.31 C168.316663,126.463329 167.403339,125.816669 166.33,125.37 C165.256661,124.923331 164.040007,124.7 162.68,124.7 C161.319993,124.7 160.100005,124.923331 159.02,125.37 C157.939995,125.816669 157.023337,126.463329 156.27,127.31 C155.516663,128.156671 154.940002,129.183327 154.54,130.39 C154.139998,131.596673 153.94,132.959992 153.94,134.48 C153.94,136.013341 154.139998,137.383327 154.54,138.59 C154.940002,139.796673 155.516663,140.819996 156.27,141.66 C157.023337,142.500004 157.939995,143.143331 159.02,143.59 C160.100005,144.036669 161.319993,144.26 162.68,144.26 C164.040007,144.26 165.256661,144.036669 166.33,143.59 C167.403339,143.143331 168.316663,142.500004 169.07,141.66 C169.823337,140.819996 170.399998,139.796673 170.8,138.59 C171.200002,137.383327 171.4,136.013341 171.4,134.48 Z M193.82,144.2 C194.793338,144.2 195.666663,144.036668 196.44,143.71 C197.213337,143.383332 197.866664,142.920003 198.4,142.32 C198.933336,141.719997 199.339999,140.993338 199.62,140.14 C199.900001,139.286662 200.04,138.326672 200.04,137.26 L200.04,119.98 L206.04,119.98 L206.04,137.26 C206.04,139.020009 205.75667,140.636659 205.19,142.11 C204.623331,143.583341 203.813339,144.853328 202.76,145.92 C201.706661,146.986672 200.426674,147.819997 198.92,148.42 C197.413326,149.020003 195.713343,149.32 193.82,149.32 C191.926657,149.32 190.223341,149.020003 188.71,148.42 C187.196659,147.819997 185.913339,146.986672 184.86,145.92 C183.806661,144.853328 182.996669,143.583341 182.43,142.11 C181.863331,140.636659 181.58,139.020009 181.58,137.26 L181.58,119.98 L187.58,119.98 L187.58,137.26 C187.58,138.326672 187.719999,139.286662 188,140.14 C188.280001,140.993338 188.686664,141.719997 189.22,142.32 C189.753336,142.920003 190.406663,143.383332 191.18,143.71 C191.953337,144.036668 192.833328,144.2 193.82,144.2 Z M220.84,133.72 C221.813338,133.72 222.65333,133.596668 223.36,133.35 C224.06667,133.103332 224.646664,132.763335 225.1,132.33 C225.553336,131.896664 225.886666,131.38667 226.1,130.8 C226.313334,130.21333 226.42,129.573337 226.42,128.88 C226.42,127.50666 225.963338,126.440004 225.05,125.68 C224.136662,124.919996 222.746676,124.54 220.88,124.54 L217.76,124.54 L217.76,133.72 L220.84,133.72 Z M234.9,149 L229.48,149 C228.466662,149 227.733336,148.613337 227.28,147.84 L221.76,138.94 C221.533332,138.593332 221.283335,138.340001 221.01,138.18 C220.736665,138.019999 220.333336,137.94 219.8,137.94 L217.76,137.94 L217.76,149 L211.76,149 L211.76,119.98 L220.88,119.98 C222.906677,119.98 224.639993,120.189998 226.08,120.61 C227.520007,121.030002 228.699995,121.61333 229.62,122.36 C230.540005,123.10667 231.213331,123.996662 231.64,125.03 C232.066669,126.063339 232.28,127.199994 232.28,128.44 C232.28,129.400005 232.143335,130.309996 231.87,131.17 C231.596665,132.030004 231.200003,132.81333 230.68,133.52 C230.159997,134.22667 229.520004,134.853331 228.76,135.4 C227.999996,135.946669 227.133338,136.386665 226.16,136.72 C226.546669,136.933334 226.906665,137.189999 227.24,137.49 C227.573335,137.790002 227.873332,138.146665 228.14,138.56 L234.9,149 Z M253.28,124.68 L253.28,132.7 L263.72,132.7 L263.72,137.42 L253.28,137.42 L253.28,149 L247.24,149 L247.24,119.98 L265.72,119.98 L265.72,124.68 L253.28,124.68 Z M275.92,149 L269.88,149 L269.88,119.98 L275.92,119.98 L275.92,149 Z M291.08,133.72 C292.053338,133.72 292.89333,133.596668 293.6,133.35 C294.30667,133.103332 294.886664,132.763335 295.34,132.33 C295.793336,131.896664 296.126666,131.38667 296.34,130.8 C296.553334,130.21333 296.66,129.573337 296.66,128.88 C296.66,127.50666 296.203338,126.440004 295.29,125.68 C294.376662,124.919996 292.986676,124.54 291.12,124.54 L288,124.54 L288,133.72 L291.08,133.72 Z M305.14,149 L299.72,149 C298.706662,149 297.973336,148.613337 297.52,147.84 L292,138.94 C291.773332,138.593332 291.523335,138.340001 291.25,138.18 C290.976665,138.019999 290.573336,137.94 290.04,137.94 L288,137.94 L288,149 L282,149 L282,119.98 L291.12,119.98 C293.146677,119.98 294.879993,120.189998 296.32,120.61 C297.760007,121.030002 298.939995,121.61333 299.86,122.36 C300.780005,123.10667 301.453331,123.996662 301.88,125.03 C302.306669,126.063339 302.52,127.199994 302.52,128.44 C302.52,129.400005 302.383335,130.309996 302.11,131.17 C301.836665,132.030004 301.440003,132.81333 300.92,133.52 C300.399997,134.22667 299.760004,134.853331 299,135.4 C298.239996,135.946669 297.373338,136.386665 296.4,136.72 C296.786669,136.933334 297.146665,137.189999 297.48,137.49 C297.813335,137.790002 298.113332,138.146665 298.38,138.56 L305.14,149 Z M323.7,125.54 C323.513332,125.846668 323.323334,126.069999 323.13,126.21 C322.936666,126.350001 322.686668,126.42 322.38,126.42 C322.086665,126.42 321.770002,126.316668 321.43,126.11 C321.089998,125.903332 320.693336,125.680001 320.24,125.44 C319.786664,125.199999 319.26667,124.976668 318.68,124.77 C318.09333,124.563332 317.406671,124.46 316.62,124.46 C315.233326,124.46 314.193337,124.769997 313.5,125.39 C312.806663,126.010003 312.46,126.819995 312.46,127.82 C312.46,128.460003 312.649998,128.989998 313.03,129.41 C313.410002,129.830002 313.909997,130.193332 314.53,130.5 C315.150003,130.806668 315.853329,131.079999 316.64,131.32 C317.426671,131.560001 318.233329,131.823332 319.06,132.11 C319.886671,132.396668 320.693329,132.733331 321.48,133.12 C322.266671,133.506669 322.969997,133.99333 323.59,134.58 C324.210003,135.16667 324.709998,135.883329 325.09,136.73 C325.470002,137.576671 325.66,138.606661 325.66,139.82 C325.66,141.140007 325.430002,142.376661 324.97,143.53 C324.509998,144.683339 323.846671,145.689996 322.98,146.55 C322.113329,147.410004 321.04334,148.086664 319.77,148.58 C318.49666,149.073336 317.053341,149.32 315.44,149.32 C314.519995,149.32 313.603338,149.226668 312.69,149.04 C311.776662,148.853332 310.896671,148.593335 310.05,148.26 C309.203329,147.926665 308.40667,147.526669 307.66,147.06 C306.91333,146.593331 306.260003,146.073336 305.7,145.5 L307.46,142.66 C307.606667,142.446666 307.799999,142.270001 308.04,142.13 C308.280001,141.989999 308.533332,141.92 308.8,141.92 C309.160002,141.92 309.539998,142.053332 309.94,142.32 C310.340002,142.586668 310.799997,142.879998 311.32,143.2 C311.840003,143.520002 312.44333,143.813332 313.13,144.08 C313.81667,144.346668 314.639995,144.48 315.6,144.48 C317.000007,144.48 318.083329,144.160003 318.85,143.52 C319.61667,142.879997 320,141.926673 320,140.66 C320,139.926663 319.810002,139.333336 319.43,138.88 C319.049998,138.426664 318.553336,138.046668 317.94,137.74 C317.326664,137.433332 316.626671,137.170001 315.84,136.95 C315.053329,136.729999 314.246671,136.486668 313.42,136.22 C312.593329,135.953332 311.786671,135.633335 311,135.26 C310.213329,134.886665 309.513336,134.393336 308.9,133.78 C308.286664,133.166664 307.790002,132.406671 307.41,131.5 C307.029998,130.593329 306.84,129.466673 306.84,128.12 C306.84,127.039995 307.053331,125.993338 307.48,124.98 C307.906669,123.966662 308.533329,123.066671 309.36,122.28 C310.186671,121.493329 311.203327,120.860002 312.41,120.38 C313.616673,119.899998 314.999992,119.66 316.56,119.66 C318.306675,119.66 319.923326,119.929997 321.41,120.47 C322.896674,121.010003 324.153328,121.759995 325.18,122.72 L323.7,125.54 Z M350.56,124.82 L342.08,124.82 L342.08,149 L336.06,149 L336.06,124.82 L327.58,124.82 L327.58,119.98 L350.56,119.98 L350.56,124.82 Z M384.22,124.82 L375.74,124.82 L375.74,149 L369.72,149 L369.72,124.82 L361.24,124.82 L361.24,119.98 L384.22,119.98 L384.22,124.82 Z M403.16,137.98 L400.02,129.1 C399.833332,128.633331 399.636668,128.08667 399.43,127.46 C399.223332,126.83333 399.026668,126.153337 398.84,125.42 C398.653332,126.16667 398.456668,126.856663 398.25,127.49 C398.043332,128.123336 397.846668,128.673331 397.66,129.14 L394.54,137.98 L403.16,137.98 Z M413.24,149 L408.58,149 C408.059997,149 407.636668,148.876668 407.31,148.63 C406.983332,148.383332 406.740001,148.066669 406.58,147.68 L404.62,142.14 L393.06,142.14 L391.1,147.68 C390.966666,148.013335 390.733335,148.316665 390.4,148.59 C390.066665,148.863335 389.646669,149 389.14,149 L384.44,149 L395.78,119.98 L401.92,119.98 L413.24,149 Z M427.06,144.4 C428.020005,144.4 428.809997,144.283334 429.43,144.05 C430.050003,143.816665 430.546665,143.506669 430.92,143.12 C431.293335,142.733331 431.553333,142.290003 431.7,141.79 C431.846667,141.289997 431.92,140.773336 431.92,140.24 C431.92,139.65333 431.833334,139.126669 431.66,138.66 C431.486666,138.193331 431.206669,137.796668 430.82,137.47 C430.433331,137.143332 429.930003,136.893334 429.31,136.72 C428.689997,136.546666 427.926671,136.46 427.02,136.46 L421.92,136.46 L421.92,144.4 L427.06,144.4 Z M421.92,124.54 L421.92,132.38 L425.86,132.38 C426.700004,132.38 427.446663,132.310001 428.1,132.17 C428.753337,132.029999 429.299998,131.806668 429.74,131.5 C430.180002,131.193332 430.516665,130.790003 430.75,130.29 C430.983334,129.789997 431.1,129.18667 431.1,128.48 C431.1,127.759996 431.003334,127.146669 430.81,126.64 C430.616666,126.133331 430.320002,125.726668 429.92,125.42 C429.519998,125.113332 429.013336,124.890001 428.4,124.75 C427.786664,124.609999 427.060004,124.54 426.22,124.54 L421.92,124.54 Z M426.22,119.98 C428.166676,119.98 429.829993,120.163331 431.21,120.53 C432.590007,120.896669 433.716662,121.416663 434.59,122.09 C435.463338,122.763337 436.099998,123.579995 436.5,124.54 C436.900002,125.500005 437.1,126.573327 437.1,127.76 C437.1,128.42667 437.003334,129.066664 436.81,129.68 C436.616666,130.293336 436.316669,130.869997 435.91,131.41 C435.503331,131.950003 434.980003,132.439998 434.34,132.88 C433.699997,133.320002 432.940004,133.693332 432.06,134 C434.033343,134.466669 435.493329,135.226661 436.44,136.28 C437.386671,137.333339 437.86,138.699992 437.86,140.38 C437.86,141.606673 437.623336,142.746661 437.15,143.8 C436.676664,144.853339 435.986671,145.766663 435.08,146.54 C434.173329,147.313337 433.056673,147.916664 431.73,148.35 C430.403327,148.783335 428.880009,149 427.16,149 L415.92,149 L415.92,119.98 L426.22,119.98 Z M447.74,119.98 L447.74,131.42 C447.74,132.633339 447.676667,133.833327 447.55,135.02 C447.423333,136.206673 447.246668,137.439994 447.02,138.72 L443.3,138.72 C443.073332,137.439994 442.896667,136.206673 442.77,135.02 C442.643333,133.833327 442.58,132.633339 442.58,131.42 L442.58,119.98 L447.74,119.98 Z M441.84,146.1 C441.84,145.659998 441.923333,145.243335 442.09,144.85 C442.256668,144.456665 442.486665,144.116668 442.78,143.83 C443.073335,143.543332 443.416665,143.316667 443.81,143.15 C444.203335,142.983333 444.633331,142.9 445.1,142.9 C445.553336,142.9 445.976665,142.983333 446.37,143.15 C446.763335,143.316667 447.106665,143.543332 447.4,143.83 C447.693335,144.116668 447.926666,144.456665 448.1,144.85 C448.273334,145.243335 448.36,145.659998 448.36,146.1 C448.36,146.553336 448.273334,146.973331 448.1,147.36 C447.926666,147.746669 447.693335,148.083332 447.4,148.37 C447.106665,148.656668 446.763335,148.879999 446.37,149.04 C445.976665,149.200001 445.553336,149.28 445.1,149.28 C444.633331,149.28 444.203335,149.200001 443.81,149.04 C443.416665,148.879999 443.073335,148.656668 442.78,148.37 C442.486665,148.083332 442.256668,147.746669 442.09,147.36 C441.923333,146.973331 441.84,146.553336 441.84,146.1 Z" id="WELCOMETOYOURFIRSTTAB!" fill="#000000" fill-rule="nonzero"></path>
    </g>
</svg>