<?xml version="1.0" encoding="UTF-8"?>
<svg width="570px" height="792px" viewBox="0 0 570 792" version="1.1" xmlns="http://www.w3.org/2000/svg" xmlns:xlink="http://www.w3.org/1999/xlink">
    <!-- Generator: Sketch 54.1 (76490) - https://sketchapp.com -->
    <title>create_1_en copy</title>
    <desc>Created with Sketch.</desc>
    <g id="create_1_en-copy" stroke="none" stroke-width="1" fill="none" fill-rule="evenodd">
        <rect fill="#00B0FF" x="0" y="0" width="570" height="792"></rect>
        <path d="M145.650146,87.2207031 L150.913818,59.3984375 L158.943604,59.3984375 L150.269287,98.5 L142.158936,98.5 L135.794189,72.3427734 L129.429443,98.5 L121.319092,98.5 L112.644775,59.3984375 L120.674561,59.3984375 L125.965088,87.1669922 L132.4104,59.3984375 L139.231689,59.3984375 L145.650146,87.2207031 Z M186.81958,81.5541992 L171.35083,81.5541992 L171.35083,92.027832 L189.505127,92.027832 L189.505127,98.5 L163.294189,98.5 L163.294189,59.3984375 L189.451416,59.3984375 L189.451416,65.9243164 L171.35083,65.9243164 L171.35083,75.2431641 L186.81958,75.2431641 L186.81958,81.5541992 Z M202.28833,92.027832 L219.395264,92.027832 L219.395264,98.5 L194.231689,98.5 L194.231689,59.3984375 L202.28833,59.3984375 L202.28833,92.027832 Z M254.710205,85.4750977 C254.405842,89.6824755 252.852716,92.9946168 250.050781,95.4116211 C247.248847,97.8286254 243.556257,99.0371094 238.9729,99.0371094 C233.959854,99.0371094 230.016616,97.3497076 227.143066,93.9748535 C224.269517,90.5999994 222.832764,85.9674774 222.832764,80.0771484 L222.832764,77.6870117 C222.832764,73.9272273 223.495192,70.6150859 224.820068,67.7504883 C226.144945,64.8858906 228.038236,62.6882401 230.5,61.1574707 C232.961764,59.6267013 235.821842,58.8613281 239.080322,58.8613281 C243.592064,58.8613281 247.226467,60.0698121 249.983643,62.4868164 C252.740818,64.9038207 254.334226,68.2965276 254.763916,72.6650391 L246.707275,72.6650391 C246.510334,70.1406124 245.807623,68.3099829 244.599121,67.1730957 C243.390619,66.0362085 241.551038,65.4677734 239.080322,65.4677734 C236.394762,65.4677734 234.385098,66.4300848 233.05127,68.3547363 C231.717441,70.2793879 231.032634,73.264791 230.996826,77.3110352 L230.996826,80.2651367 C230.996826,84.4904183 231.636875,87.5787663 232.916992,89.5302734 C234.197109,91.4817806 236.215725,92.4575195 238.9729,92.4575195 C241.46152,92.4575195 243.319004,91.8890845 244.54541,90.7521973 C245.771816,89.6153101 246.474527,87.8562945 246.653564,85.4750977 L254.710205,85.4750977 Z M292.119873,79.8354492 C292.119873,83.6847523 291.439541,87.0595558 290.078857,89.9599609 C288.718174,92.8603661 286.771172,95.0982994 284.237793,96.6738281 C281.704414,98.2493568 278.799577,99.0371094 275.523193,99.0371094 C272.282617,99.0371094 269.391207,98.2583086 266.848877,96.7006836 C264.306547,95.1430586 262.337165,92.9185529 260.940674,90.0270996 C259.544182,87.1356464 258.836996,83.8100774 258.819092,80.050293 L258.819092,78.1166992 C258.819092,74.2673961 259.512851,70.879165 260.900391,67.9519043 C262.28793,65.0246436 264.24836,62.7777585 266.781738,61.2111816 C269.315117,59.6446048 272.211003,58.8613281 275.469482,58.8613281 C278.727962,58.8613281 281.623848,59.6446048 284.157227,61.2111816 C286.690605,62.7777585 288.651035,65.0246436 290.038574,67.9519043 C291.426114,70.879165 292.119873,74.2584444 292.119873,78.0898438 L292.119873,79.8354492 Z M283.955811,78.0629883 C283.955811,73.9630329 283.221768,70.8478297 281.753662,68.7172852 C280.285556,66.5867406 278.19085,65.5214844 275.469482,65.5214844 C272.766018,65.5214844 270.680265,66.573313 269.212158,68.677002 C267.744052,70.7806909 267.001058,73.864563 266.983154,77.9287109 L266.983154,79.8354492 C266.983154,83.8279822 267.717196,86.925282 269.185303,89.1274414 C270.653409,91.3296009 272.766018,92.4306641 275.523193,92.4306641 C278.226657,92.4306641 280.30346,91.3698837 281.753662,89.248291 C283.203865,87.1266984 283.937907,84.0338745 283.955811,79.9697266 L283.955811,78.0629883 Z M308.501709,59.3984375 L318.545654,87.7578125 L328.535889,59.3984375 L339.116943,59.3984375 L339.116943,98.5 L331.033447,98.5 L331.033447,87.8115234 L331.839111,69.3618164 L321.284912,98.5 L315.752686,98.5 L305.225342,69.3886719 L306.031006,87.8115234 L306.031006,98.5 L297.974365,98.5 L297.974365,59.3984375 L308.501709,59.3984375 Z M369.678467,81.5541992 L354.209717,81.5541992 L354.209717,92.027832 L372.364014,92.027832 L372.364014,98.5 L346.153076,98.5 L346.153076,59.3984375 L372.310303,59.3984375 L372.310303,65.9243164 L354.209717,65.9243164 L354.209717,75.2431641 L369.678467,75.2431641 L369.678467,81.5541992 Z M420.220459,65.9243164 L408.24292,65.9243164 L408.24292,98.5 L400.186279,98.5 L400.186279,65.9243164 L388.369873,65.9243164 L388.369873,59.3984375 L420.220459,59.3984375 L420.220459,65.9243164 Z M456.931885,79.8354492 C456.931885,83.6847523 456.251553,87.0595558 454.890869,89.9599609 C453.530185,92.8603661 451.583183,95.0982994 449.049805,96.6738281 C446.516426,98.2493568 443.611589,99.0371094 440.335205,99.0371094 C437.094629,99.0371094 434.203219,98.2583086 431.660889,96.7006836 C429.118558,95.1430586 427.149177,92.9185529 425.752686,90.0270996 C424.356194,87.1356464 423.649007,83.8100774 423.631104,80.050293 L423.631104,78.1166992 C423.631104,74.2673961 424.324863,70.879165 425.712402,67.9519043 C427.099942,65.0246436 429.060371,62.7777585 431.59375,61.2111816 C434.127129,59.6446048 437.023014,58.8613281 440.281494,58.8613281 C443.539974,58.8613281 446.43586,59.6446048 448.969238,61.2111816 C451.502617,62.7777585 453.463046,65.0246436 454.850586,67.9519043 C456.238125,70.879165 456.931885,74.2584444 456.931885,78.0898438 L456.931885,79.8354492 Z M448.767822,78.0629883 C448.767822,73.9630329 448.03378,70.8478297 446.565674,68.7172852 C445.097568,66.5867406 443.002862,65.5214844 440.281494,65.5214844 C437.57803,65.5214844 435.492276,66.573313 434.02417,68.677002 C432.556064,70.7806909 431.81307,73.864563 431.795166,77.9287109 L431.795166,79.8354492 C431.795166,83.8279822 432.529208,86.925282 433.997314,89.1274414 C435.465421,91.3296009 437.57803,92.4306641 440.335205,92.4306641 C443.038669,92.4306641 445.115471,91.3698837 446.565674,89.248291 C448.015876,87.1266984 448.749919,84.0338745 448.767822,79.9697266 L448.767822,78.0629883 Z M82.0429688,141.015625 L90.1801758,123.398438 L98.9887695,123.398438 L86.1518555,148.320312 L86.1518555,162.5 L77.9609375,162.5 L77.9609375,148.320312 L65.1240234,123.398438 L73.9594727,123.398438 L82.0429688,141.015625 Z M134.679688,143.835449 C134.679688,147.684752 133.999356,151.059556 132.638672,153.959961 C131.277988,156.860366 129.330986,159.098299 126.797607,160.673828 C124.264229,162.249357 121.359391,163.037109 118.083008,163.037109 C114.842432,163.037109 111.951022,162.258309 109.408691,160.700684 C106.866361,159.143059 104.89698,156.918553 103.500488,154.0271 C102.103997,151.135646 101.39681,147.810077 101.378906,144.050293 L101.378906,142.116699 C101.378906,138.267396 102.072666,134.879165 103.460205,131.951904 C104.847745,129.024644 106.808174,126.777758 109.341553,125.211182 C111.874931,123.644605 114.770817,122.861328 118.029297,122.861328 C121.287777,122.861328 124.183662,123.644605 126.717041,125.211182 C129.25042,126.777758 131.210849,129.024644 132.598389,131.951904 C133.985928,134.879165 134.679688,138.258444 134.679688,142.089844 L134.679688,143.835449 Z M126.515625,142.062988 C126.515625,137.963033 125.781583,134.84783 124.313477,132.717285 C122.84537,130.586741 120.750665,129.521484 118.029297,129.521484 C115.325833,129.521484 113.240079,130.573313 111.771973,132.677002 C110.303866,134.780691 109.560872,137.864563 109.542969,141.928711 L109.542969,143.835449 C109.542969,147.827982 110.277011,150.925282 111.745117,153.127441 C113.213223,155.329601 115.325833,156.430664 118.083008,156.430664 C120.786472,156.430664 122.863274,155.369884 124.313477,153.248291 C125.763679,151.126698 126.497721,148.033874 126.515625,143.969727 L126.515625,142.062988 Z M170.128906,123.398438 L170.128906,149.152832 C170.128906,153.431825 168.790622,156.81558 166.114014,159.304199 C163.437405,161.792818 159.780622,163.037109 155.143555,163.037109 C150.578102,163.037109 146.95265,161.828625 144.26709,159.411621 C141.58153,156.994617 140.211914,153.673524 140.158203,149.448242 L140.158203,123.398438 L148.214844,123.398438 L148.214844,149.206543 C148.214844,151.766777 148.828037,153.633214 150.054443,154.805908 C151.280849,155.978603 152.977203,156.564941 155.143555,156.564941 C159.6732,156.564941 161.973795,154.18378 162.04541,149.421387 L162.04541,123.398438 L170.128906,123.398438 Z M191.210449,148.186035 L184.791992,148.186035 L184.791992,162.5 L176.735352,162.5 L176.735352,123.398438 L191.26416,123.398438 C195.883324,123.398438 199.446114,124.427887 201.952637,126.486816 C204.45916,128.545746 205.712402,131.455059 205.712402,135.214844 C205.712402,137.8825 205.135016,140.107006 203.980225,141.888428 C202.825434,143.669849 201.07537,145.088699 198.72998,146.14502 L207.189453,162.124023 L207.189453,162.5 L198.541992,162.5 L191.210449,148.186035 Z M184.791992,141.660156 L191.291016,141.660156 C193.314138,141.660156 194.880691,141.145432 195.990723,140.115967 C197.100754,139.086502 197.655762,137.667652 197.655762,135.859375 C197.655762,134.01529 197.132085,132.565109 196.084717,131.508789 C195.037348,130.452469 193.430512,129.924316 191.26416,129.924316 L184.791992,129.924316 L184.791992,141.660156 Z M249.057129,146.520996 L233.588379,146.520996 L233.588379,162.5 L225.531738,162.5 L225.531738,123.398438 L250.990723,123.398438 L250.990723,129.924316 L233.588379,129.924316 L233.588379,140.021973 L249.057129,140.021973 L249.057129,146.520996 Z M264.230469,162.5 L256.173828,162.5 L256.173828,123.398438 L264.230469,123.398438 L264.230469,162.5 Z M286.171387,148.186035 L279.75293,148.186035 L279.75293,162.5 L271.696289,162.5 L271.696289,123.398438 L286.225098,123.398438 C290.844261,123.398438 294.407051,124.427887 296.913574,126.486816 C299.420097,128.545746 300.67334,131.455059 300.67334,135.214844 C300.67334,137.8825 300.095953,140.107006 298.941162,141.888428 C297.786371,143.669849 296.036307,145.088699 293.690918,146.14502 L302.150391,162.124023 L302.150391,162.5 L293.50293,162.5 L286.171387,148.186035 Z M279.75293,141.660156 L286.251953,141.660156 C288.275075,141.660156 289.841629,141.145432 290.95166,140.115967 C292.061692,139.086502 292.616699,137.667652 292.616699,135.859375 C292.616699,134.01529 292.093023,132.565109 291.045654,131.508789 C289.998286,130.452469 288.39145,129.924316 286.225098,129.924316 L279.75293,129.924316 L279.75293,141.660156 Z M327.072266,152.241211 C327.072266,150.719393 326.535162,149.551192 325.460938,148.736572 C324.386713,147.921952 322.453139,147.062586 319.660156,146.158447 C316.867174,145.254309 314.656095,144.363611 313.026855,143.486328 C308.586729,141.087228 306.366699,137.855652 306.366699,133.791504 C306.366699,131.678863 306.961989,129.794523 308.152588,128.138428 C309.343186,126.482332 311.052967,125.188807 313.281982,124.257812 C315.510997,123.326818 318.013007,122.861328 320.788086,122.861328 C323.581069,122.861328 326.069651,123.367101 328.253906,124.378662 C330.438162,125.390223 332.134515,126.818025 333.343018,128.662109 C334.55152,130.506194 335.155762,132.6009 335.155762,134.946289 L327.099121,134.946289 C327.099121,133.155916 326.535162,131.763921 325.407227,130.770264 C324.279291,129.776606 322.694834,129.279785 320.653809,129.279785 C318.684398,129.279785 317.153651,129.696041 316.061523,130.528564 C314.969396,131.361088 314.42334,132.457675 314.42334,133.818359 C314.42334,135.089525 315.063389,136.154781 316.343506,137.01416 C317.623623,137.873539 319.507963,138.679195 321.996582,139.431152 C326.579938,140.80974 329.918935,142.519521 332.013672,144.560547 C334.108409,146.601573 335.155762,149.143865 335.155762,152.1875 C335.155762,155.571306 333.875664,158.225495 331.31543,160.150146 C328.755196,162.074798 325.308778,163.037109 320.976074,163.037109 C317.968247,163.037109 315.229016,162.486578 312.758301,161.385498 C310.287585,160.284418 308.403245,158.776051 307.105225,156.860352 C305.807204,154.944652 305.158203,152.724622 305.158203,150.200195 L313.241699,150.200195 C313.241699,154.514996 315.819798,156.672363 320.976074,156.672363 C322.891774,156.672363 324.386713,156.282963 325.460938,155.50415 C326.535162,154.725338 327.072266,153.637702 327.072266,152.241211 Z M370.041016,129.924316 L358.063477,129.924316 L358.063477,162.5 L350.006836,162.5 L350.006836,129.924316 L338.19043,129.924316 L338.19043,123.398438 L370.041016,123.398438 L370.041016,129.924316 Z M417.763184,129.924316 L405.785645,129.924316 L405.785645,162.5 L397.729004,162.5 L397.729004,129.924316 L385.912598,129.924316 L385.912598,123.398438 L417.763184,123.398438 L417.763184,129.924316 Z M444.430664,154.443359 L430.304688,154.443359 L427.619141,162.5 L419.052246,162.5 L433.60791,123.398438 L441.07373,123.398438 L455.709961,162.5 L447.143066,162.5 L444.430664,154.443359 Z M432.47998,147.91748 L442.255371,147.91748 L437.34082,133.28125 L432.47998,147.91748 Z M459.362305,162.5 L459.362305,123.398438 L473.058594,123.398438 C477.803084,123.398438 481.40168,124.307038 483.854492,126.124268 C486.307304,127.941497 487.533691,130.604637 487.533691,134.11377 C487.533691,136.029469 487.041346,137.716871 486.056641,139.176025 C485.071935,140.63518 483.70232,141.704912 481.947754,142.385254 C483.952972,142.886558 485.532953,143.898104 486.687744,145.419922 C487.842535,146.941739 488.419922,148.8037 488.419922,151.005859 C488.419922,154.765644 487.22039,157.612295 484.821289,159.545898 C482.422189,161.479502 479.002626,162.464193 474.5625,162.5 L459.362305,162.5 Z M467.418945,145.473633 L467.418945,156.027832 L474.320801,156.027832 C476.218597,156.027832 477.700109,155.575769 478.765381,154.671631 C479.830653,153.767492 480.363281,152.518725 480.363281,150.925293 C480.363281,147.344546 478.510272,145.527344 474.804199,145.473633 L467.418945,145.473633 Z M467.418945,139.780273 L473.380859,139.780273 C477.445007,139.708658 479.477051,138.088395 479.477051,134.919434 C479.477051,133.146964 478.962326,131.871342 477.932861,131.092529 C476.903397,130.313717 475.278657,129.924316 473.058594,129.924316 L467.418945,129.924316 L467.418945,139.780273 Z M501.847656,150.495605 L495.402344,150.495605 L494.489258,123.398438 L502.760742,123.398438 L501.847656,150.495605 Z M498.625,154.73877 C499.931973,154.73877 500.983801,155.123694 501.780518,155.893555 C502.577234,156.663415 502.975586,157.648106 502.975586,158.847656 C502.975586,160.029303 502.577234,161.005042 501.780518,161.774902 C500.983801,162.544763 499.931973,162.929688 498.625,162.929688 C497.335931,162.929688 496.293054,162.544763 495.496338,161.774902 C494.699622,161.005042 494.30127,160.029303 494.30127,158.847656 C494.30127,157.66601 494.699622,156.685795 495.496338,155.906982 C496.293054,155.12817 497.335931,154.73877 498.625,154.73877 Z" id="WELCOME-TO-YOUR-FIRS" fill="#000000"></path>
        <g id="Group-3" transform="translate(12.000000, 225.000000)">
            <rect id="Rectangle" fill="#0B0C24" x="0" y="0" width="547" height="547" rx="13"></rect>
            <path d="M12,286 L189,286 L189,388 L25,388 C17.8202983,388 12,382.179702 12,375 L12,286 Z" id="Rectangle" fill="#0098CE"></path>
            <path d="M355,286 L532,286 L532,388 L368,388 C360.820298,388 355,382.179702 355,375 L355,286 Z" id="Rectangle" fill="#0098CE" transform="translate(443.500000, 337.000000) scale(-1, 1) translate(-443.500000, -337.000000) "></path>
            <rect id="Rectangle" stroke="#979797" fill="#FFFFFF" x="12.5" y="400.5" width="519" height="64"></rect>
            <path d="M12,465 L532,465 L532,519 C532,525.075132 527.075132,530 521,530 L23,530 C16.9248678,530 12,525.075132 12,519 L12,465 Z" id="Rectangle" fill="#0098CE"></path>
            <text id="ADD-ITEM" font-family="Lato-Bold, Lato" font-size="40" font-weight="bold" fill="#FFFFFF">
                <tspan x="180" y="508">ADD ITEM</tspan>
            </text>
            <text id="-$0.00" font-family="Roboto-Bold, Roboto" font-size="30" font-weight="bold" fill="#FF0088">
                <tspan x="423.805664" y="243">-$0.00</tspan>
            </text>
            <text id="Discount:" font-family="Roboto-Bold, Roboto" font-size="30" font-weight="bold" fill="#00E7FF">
                <tspan x="403.324219" y="189">Discount:</tspan>
            </text>
            <text id="Sub:-Tax:-Tip:" font-family="Roboto-Bold, Roboto" font-size="30" font-weight="bold" fill="#00E7FF">
                <tspan x="21.4140625" y="189">Sub:</tspan>
                <tspan x="23.6259766" y="224">Tax:</tspan>
                <tspan x="30.1298828" y="259">Tip:</tspan>
            </text>
            <text id="$0.00" font-family="Lato-Bold, Lato" font-size="40" font-weight="bold" fill="#659B00">
                <tspan x="411.7" y="446">$0.00</tspan>
            </text>
            <text id="CUSTOMER-1" font-family="Roboto-Bold, Roboto" font-size="40" font-weight="bold" fill="#FFFFFF">
                <tspan x="34.2851562" y="76">CUSTOMER 1</tspan>
            </text>
            <rect id="Rectangle" stroke-opacity="0.329200634" stroke="#00C9FE" stroke-width="3" x="21.5" y="28.5" width="269" height="67" rx="6"></rect>
            <rect id="Rectangle" stroke-opacity="0.329200634" stroke="#00C9FE" stroke-width="3" x="405.5" y="210.5" width="125" height="47" rx="6"></rect>
            <text id="$0.00" font-family="Lato-Bold, Lato" font-size="60" font-weight="bold" fill="#FFFFFF">
                <tspan x="188.55" y="256">$0.00</tspan>
            </text>
            <text id="OPEN" font-family="Roboto-Bold, Roboto" font-size="40" font-weight="bold" fill="#FFFFFF">
                <tspan x="424.419922" y="141">OPEN</tspan>
            </text>
            <text id="SERVER-MINS-TIME" font-family="Roboto-Bold, Roboto" font-size="40" font-weight="bold" fill="#FFFFFF">
                <tspan x="24" y="141">SERVER MINS TIME</tspan>
            </text>
            <rect id="Rectangle" fill="#ADFB5F" x="449" y="39" width="82" height="50" rx="3"></rect>
            <ellipse id="Oval" fill="#FFFFFF" cx="491" cy="64" rx="18" ry="19"></ellipse>
            <text id="$" font-family="Roboto-Bold, Roboto" font-size="30" font-weight="bold" fill="#509209">
                <tspan x="482.394043" y="75">$</tspan>
            </text>
            <text id="Custom-Item-1" font-family="Lato-Bold, Lato" font-size="40" font-weight="bold" fill="#949494">
                <tspan x="26.8" y="445">Custom Item 1</tspan>
            </text>
            <rect id="Rectangle" fill="#98CE00" x="189" y="286" width="166" height="102"></rect>
            <text id="AUTH" font-family="Roboto-Black, Roboto" font-size="35" font-weight="700" fill="#080B26">
                <tspan x="54" y="350">AUTH</tspan>
            </text>
            <text id="PAY" font-family="Roboto-Black, Roboto" font-size="35" font-weight="700" fill="#080B26">
                <tspan x="238" y="350">PAY</tspan>
            </text>
            <text id="CATALOG" font-family="Roboto-Black, Roboto" font-size="35" font-weight="700" fill="#080B26">
                <tspan x="364" y="349">CATALOG</tspan>
            </text>
        </g>
    </g>
</svg>