<?xml version="1.0" encoding="UTF-8"?>
<svg width="570px" height="792px" viewBox="0 0 570 792" version="1.1" xmlns="http://www.w3.org/2000/svg" xmlns:xlink="http://www.w3.org/1999/xlink">
    <!-- Generator: Sketch 54.1 (76490) - https://sketchapp.com -->
    <title>3_create_en</title>
    <desc>Created with Sketch.</desc>
    <g id="3_create_en" stroke="none" stroke-width="1" fill="none" fill-rule="evenodd">
        <rect fill="#00B0FF" x="0" y="0" width="570" height="792"></rect>
        <g id="Group-3" transform="translate(12.000000, 225.000000)">
            <rect id="Rectangle" fill="#0B0C24" x="0" y="0" width="547" height="547" rx="13"></rect>
            <path d="M12,286 L189,286 L189,388 L25,388 C17.8202983,388 12,382.179702 12,375 L12,286 Z" id="Rectangle" fill="#0098CE"></path>
            <path d="M355,286 L532,286 L532,388 L368,388 C360.820298,388 355,382.179702 355,375 L355,286 Z" id="Rectangle" fill="#0098CE" transform="translate(443.500000, 337.000000) scale(-1, 1) translate(-443.500000, -337.000000) "></path>
            <rect id="Rectangle" stroke="#979797" fill="#FFFFFF" x="12.5" y="400.5" width="519" height="64"></rect>
            <path d="M12,465 L532,465 L532,519 C532,525.075132 527.075132,530 521,530 L23,530 C16.9248678,530 12,525.075132 12,519 L12,465 Z" id="Rectangle" fill="#0098CE"></path>
            <text id="ADD-ITEM" font-family="Lato-Bold, Lato" font-size="40" font-weight="bold" fill="#FFFFFF">
                <tspan x="180" y="508">ADD ITEM</tspan>
            </text>
            <text id="-$0.00" font-family="Roboto-Bold, Roboto" font-size="30" font-weight="bold" fill="#FF0088">
                <tspan x="423.805664" y="243">-$0.00</tspan>
            </text>
            <text id="Discount:" font-family="Roboto-Bold, Roboto" font-size="30" font-weight="bold" fill="#00E7FF">
                <tspan x="403.324219" y="189">Discount:</tspan>
            </text>
            <text id="Sub:-Tax:-Tip:" font-family="Roboto-Bold, Roboto" font-size="30" font-weight="bold" fill="#00E7FF">
                <tspan x="21.4140625" y="189">Sub:</tspan>
                <tspan x="23.6259766" y="224">Tax:</tspan>
                <tspan x="30.1298828" y="259">Tip:</tspan>
            </text>
            <text id="$0.00" font-family="Lato-Bold, Lato" font-size="40" font-weight="bold" fill="#659B00">
                <tspan x="411.7" y="446">$0.00</tspan>
            </text>
            <text id="CUSTOMER-1" font-family="Roboto-Bold, Roboto" font-size="40" font-weight="bold" fill="#FFFFFF">
                <tspan x="34.2851562" y="76">CUSTOMER 1</tspan>
            </text>
            <rect id="Rectangle" stroke-opacity="0.329200634" stroke="#00C9FE" stroke-width="3" x="21.5" y="28.5" width="269" height="67" rx="6"></rect>
            <rect id="Rectangle" stroke-opacity="0.329200634" stroke="#00C9FE" stroke-width="3" x="405.5" y="210.5" width="125" height="47" rx="6"></rect>
            <text id="$0.00" font-family="Lato-Bold, Lato" font-size="60" font-weight="bold" fill="#FFFFFF">
                <tspan x="188.55" y="256">$0.00</tspan>
            </text>
            <text id="OPEN" font-family="Roboto-Bold, Roboto" font-size="40" font-weight="bold" fill="#FFFFFF">
                <tspan x="424.419922" y="141">OPEN</tspan>
            </text>
            <text id="SERVER-MINS-TIME" font-family="Roboto-Bold, Roboto" font-size="40" font-weight="bold" fill="#FFFFFF">
                <tspan x="24" y="141">SERVER MINS TIME</tspan>
            </text>
            <rect id="Rectangle" fill="#ADFB5F" x="449" y="39" width="82" height="50" rx="3"></rect>
            <ellipse id="Oval" fill="#FFFFFF" cx="491" cy="64" rx="18" ry="19"></ellipse>
            <text id="$" font-family="Roboto-Bold, Roboto" font-size="30" font-weight="bold" fill="#509209">
                <tspan x="482.394043" y="75">$</tspan>
            </text>
            <text id="Custom-Item-1" font-family="Lato-Bold, Lato" font-size="40" font-weight="bold" fill="#949494">
                <tspan x="26.8" y="445">Custom Item 1</tspan>
            </text>
            <rect id="Rectangle" fill="#98CE00" x="189" y="286" width="166" height="102"></rect>
            <text id="AUTH" font-family="Roboto-Black, Roboto" font-size="35" font-weight="700" fill="#080B26">
                <tspan x="54" y="350">AUTH</tspan>
            </text>
            <text id="PAY" font-family="Roboto-Black, Roboto" font-size="35" font-weight="700" fill="#080B26">
                <tspan x="238" y="350">PAY</tspan>
            </text>
            <text id="CATALOG" font-family="Roboto-Black, Roboto" font-size="35" font-weight="700" fill="#080B26">
                <tspan x="364" y="349">CATALOG</tspan>
            </text>
        </g>
        <rect id="Rectangle" fill="#FFFFFF" x="61" y="47" width="449" height="126" rx="12"></rect>
        <path d="M97.05,79.8425 L89.63,79.8425 L89.63,101 L84.3625,101 L84.3625,79.8425 L76.9425,79.8425 L76.9425,75.6075 L97.05,75.6075 L97.05,79.8425 Z M113.6225,91.3575 L110.875,83.5875 C110.711666,83.1791646 110.539584,82.7008361 110.35875,82.1525 C110.177916,81.6041639 110.005834,81.0091699 109.8425,80.3675 C109.679166,81.0208366 109.507084,81.6245806 109.32625,82.17875 C109.145416,82.7329194 108.973334,83.2141646 108.81,83.6225 L106.08,91.3575 L113.6225,91.3575 Z M122.4425,101 L118.365,101 C117.909998,101 117.539585,100.892084 117.25375,100.67625 C116.967915,100.460416 116.755001,100.183335 116.615,99.845 L114.9,94.9975 L104.785,94.9975 L103.07,99.845 C102.953333,100.136668 102.749168,100.402082 102.4575,100.64125 C102.165832,100.880418 101.798336,101 101.355,101 L97.2425,101 L107.165,75.6075 L112.5375,75.6075 L122.4425,101 Z M134.535,96.975 C135.375004,96.975 136.066247,96.8729177 136.60875,96.66875 C137.151253,96.4645823 137.585832,96.193335 137.9125,95.855 C138.239168,95.516665 138.466666,95.1287522 138.595,94.69125 C138.723334,94.2537478 138.7875,93.801669 138.7875,93.335 C138.7875,92.8216641 138.711667,92.3608354 138.56,91.9525 C138.408333,91.5441646 138.163335,91.1970848 137.825,90.91125 C137.486665,90.6254152 137.046253,90.4066674 136.50375,90.255 C135.961247,90.1033326 135.293337,90.0275 134.5,90.0275 L130.0375,90.0275 L130.0375,96.975 L134.535,96.975 Z M130.0375,79.5975 L130.0375,86.4575 L133.485,86.4575 C134.220004,86.4575 134.87333,86.3962506 135.445,86.27375 C136.01667,86.1512494 136.494998,85.9558347 136.88,85.6875 C137.265002,85.4191653 137.559582,85.0662522 137.76375,84.62875 C137.967918,84.1912478 138.07,83.6633364 138.07,83.045 C138.07,82.4149968 137.985418,81.8783356 137.81625,81.435 C137.647082,80.9916645 137.387502,80.6358347 137.0375,80.3675 C136.687498,80.0991653 136.244169,79.9037506 135.7075,79.78125 C135.170831,79.6587494 134.535004,79.5975 133.8,79.5975 L130.0375,79.5975 Z M133.8,75.6075 C135.503342,75.6075 136.958744,75.7679151 138.16625,76.08875 C139.373756,76.4095849 140.35958,76.8645804 141.12375,77.45375 C141.88792,78.0429196 142.444998,78.7574958 142.795,79.5975 C143.145002,80.4375042 143.32,81.3766615 143.32,82.415 C143.32,82.9983362 143.235418,83.5583306 143.06625,84.095 C142.897082,84.6316694 142.634585,85.1362476 142.27875,85.60875 C141.922915,86.0812524 141.465003,86.5099981 140.905,86.895 C140.344997,87.2800019 139.680004,87.6066653 138.91,87.875 C140.636675,88.2833354 141.914163,88.9483287 142.7425,89.87 C143.570837,90.7916713 143.985,91.9874927 143.985,93.4575 C143.985,94.5308387 143.777919,95.5283287 143.36375,96.45 C142.949581,97.3716713 142.345837,98.1708299 141.5525,98.8475 C140.759163,99.52417 139.782089,100.052081 138.62125,100.43125 C137.460411,100.810419 136.127508,101 134.6225,101 L124.7875,101 L124.7875,75.6075 L133.8,75.6075 Z M161.765,80.4725 C161.601666,80.7408347 161.435418,80.9362494 161.26625,81.05875 C161.097082,81.1812506 160.878335,81.2425 160.61,81.2425 C160.353332,81.2425 160.076251,81.1520842 159.77875,80.97125 C159.481249,80.7904158 159.134169,80.5950011 158.7375,80.385 C158.340831,80.1749989 157.885836,79.9795842 157.3725,79.79875 C156.859164,79.6179158 156.258337,79.5275 155.57,79.5275 C154.356661,79.5275 153.44667,79.7987473 152.84,80.34125 C152.23333,80.8837527 151.93,81.5924956 151.93,82.4675 C151.93,83.0275028 152.096248,83.4912482 152.42875,83.85875 C152.761252,84.2262518 153.198747,84.5441653 153.74125,84.8125 C154.283753,85.0808347 154.899163,85.319999 155.5875,85.53 C156.275837,85.7400011 156.981663,85.9704154 157.705,86.22125 C158.428337,86.4720846 159.134163,86.766665 159.8225,87.105 C160.510837,87.443335 161.126247,87.8691641 161.66875,88.3825 C162.211253,88.8958359 162.648748,89.522913 162.98125,90.26375 C163.313752,91.004587 163.48,91.905828 163.48,92.9675 C163.48,94.1225058 163.278752,95.2045783 162.87625,96.21375 C162.473748,97.2229217 161.893337,98.1037462 161.135,98.85625 C160.376663,99.6087538 159.440422,100.200831 158.32625,100.6325 C157.212078,101.064169 155.949174,101.28 154.5375,101.28 C153.732496,101.28 152.930421,101.198334 152.13125,101.035 C151.332079,100.871666 150.562087,100.644168 149.82125,100.3525 C149.080413,100.060832 148.383337,99.7108354 147.73,99.3025 C147.076663,98.8941646 146.505002,98.4391692 146.015,97.9375 L147.555,95.4525 C147.683334,95.2658324 147.852499,95.1112506 148.0625,94.98875 C148.272501,94.8662494 148.494165,94.805 148.7275,94.805 C149.042502,94.805 149.374998,94.9216655 149.725,95.155 C150.075002,95.3883345 150.477498,95.6449986 150.9325,95.925 C151.387502,96.2050014 151.915414,96.4616655 152.51625,96.695 C153.117086,96.9283345 153.837496,97.045 154.6775,97.045 C155.902506,97.045 156.850413,96.7650028 157.52125,96.205 C158.192087,95.6449972 158.5275,94.8108389 158.5275,93.7025 C158.5275,93.0608301 158.361252,92.5416686 158.02875,92.145 C157.696248,91.7483314 157.261669,91.4158347 156.725,91.1475 C156.188331,90.8791653 155.575837,90.648751 154.8875,90.45625 C154.199163,90.263749 153.493337,90.0508345 152.77,89.8175 C152.046663,89.5841655 151.340837,89.3041683 150.6525,88.9775 C149.964163,88.6508317 149.351669,88.2191694 148.815,87.6825 C148.278331,87.1458306 147.843752,86.4808373 147.51125,85.6875 C147.178748,84.8941627 147.0125,83.9083392 147.0125,82.73 C147.0125,81.7849953 147.199165,80.8691711 147.5725,79.9825 C147.945835,79.0958289 148.494163,78.3083368 149.2175,77.62 C149.940837,76.9316632 150.830411,76.3775021 151.88625,75.9575 C152.942089,75.5374979 154.152493,75.3275 155.5175,75.3275 C157.045841,75.3275 158.46041,75.5637476 159.76125,76.03625 C161.06209,76.5087524 162.161662,77.1649958 163.06,78.005 L161.765,80.4725 Z M189.0125,91.3575 L186.265,83.5875 C186.101666,83.1791646 185.929584,82.7008361 185.74875,82.1525 C185.567916,81.6041639 185.395834,81.0091699 185.2325,80.3675 C185.069166,81.0208366 184.897084,81.6245806 184.71625,82.17875 C184.535416,82.7329194 184.363334,83.2141646 184.2,83.6225 L181.47,91.3575 L189.0125,91.3575 Z M197.8325,101 L193.755,101 C193.299998,101 192.929585,100.892084 192.64375,100.67625 C192.357915,100.460416 192.145001,100.183335 192.005,99.845 L190.29,94.9975 L180.175,94.9975 L178.46,99.845 C178.343333,100.136668 178.139168,100.402082 177.8475,100.64125 C177.555832,100.880418 177.188336,101 176.745,101 L172.6325,101 L182.555,75.6075 L187.9275,75.6075 L197.8325,101 Z M208.1225,87.63 C208.974171,87.63 209.709164,87.5220844 210.3275,87.30625 C210.945836,87.0904156 211.453331,86.7929186 211.85,86.41375 C212.246669,86.0345814 212.538332,85.5883359 212.725,85.075 C212.911668,84.5616641 213.005,84.0016697 213.005,83.395 C213.005,82.1933273 212.605421,81.2600033 211.80625,80.595 C211.007079,79.9299967 209.790841,79.5975 208.1575,79.5975 L205.4275,79.5975 L205.4275,87.63 L208.1225,87.63 Z M220.425,101 L215.6825,101 C214.795829,101 214.154169,100.66167 213.7575,99.985 L208.9275,92.1975 C208.729166,91.8941652 208.510418,91.6725007 208.27125,91.5325 C208.032082,91.3924993 207.679169,91.3225 207.2125,91.3225 L205.4275,91.3225 L205.4275,101 L200.1775,101 L200.1775,75.6075 L208.1575,75.6075 C209.930842,75.6075 211.447494,75.7912482 212.7075,76.15875 C213.967506,76.5262518 214.999996,77.0366634 215.805,77.69 C216.610004,78.3433366 217.199165,79.1220788 217.5725,80.02625 C217.945835,80.9304212 218.1325,81.9249946 218.1325,83.01 C218.1325,83.8500042 218.012918,84.6462462 217.77375,85.39875 C217.534582,86.1512538 217.187502,86.8366636 216.7325,87.455 C216.277498,88.0733364 215.717503,88.6216643 215.0525,89.1 C214.387497,89.5783357 213.629171,89.9633319 212.7775,90.255 C213.115835,90.4416676 213.430832,90.6662487 213.7225,90.92875 C214.014168,91.1912513 214.276665,91.5033315 214.51,91.865 L220.425,101 Z M228.195,79.72 L228.195,86.2475 L236.665,86.2475 L236.665,90.22 L228.195,90.22 L228.195,96.8875 L239.08,96.8875 L239.08,101 L222.91,101 L222.91,75.6075 L239.08,75.6075 L239.08,79.72 L228.195,79.72 Z M264.7175,91.3575 L261.97,83.5875 C261.806666,83.1791646 261.634584,82.7008361 261.45375,82.1525 C261.272916,81.6041639 261.100834,81.0091699 260.9375,80.3675 C260.774166,81.0208366 260.602084,81.6245806 260.42125,82.17875 C260.240416,82.7329194 260.068334,83.2141646 259.905,83.6225 L257.175,91.3575 L264.7175,91.3575 Z M273.5375,101 L269.46,101 C269.004998,101 268.634585,100.892084 268.34875,100.67625 C268.062915,100.460416 267.850001,100.183335 267.71,99.845 L265.995,94.9975 L255.88,94.9975 L254.165,99.845 C254.048333,100.136668 253.844168,100.402082 253.5525,100.64125 C253.260832,100.880418 252.893336,101 252.45,101 L248.3375,101 L258.26,75.6075 L263.6325,75.6075 L273.5375,101 Z M286.2775,96.8 C287.129171,96.8 287.89333,96.6570848 288.57,96.37125 C289.24667,96.0854152 289.818331,95.6800026 290.285,95.155 C290.751669,94.6299974 291.107499,93.9941704 291.3525,93.2475 C291.597501,92.5008296 291.72,91.660838 291.72,90.7275 L291.72,75.6075 L296.97,75.6075 L296.97,90.7275 C296.97,92.2675077 296.722086,93.6820769 296.22625,94.97125 C295.730414,96.2604231 295.021671,97.371662 294.1,98.305 C293.178329,99.238338 292.05834,99.9674974 290.74,100.4925 C289.42166,101.017503 287.934175,101.28 286.2775,101.28 C284.620825,101.28 283.130423,101.017503 281.80625,100.4925 C280.482077,99.9674974 279.359171,99.238338 278.4375,98.305 C277.515829,97.371662 276.807086,96.2604231 276.31125,94.97125 C275.815414,93.6820769 275.5675,92.2675077 275.5675,90.7275 L275.5675,75.6075 L280.8175,75.6075 L280.8175,90.7275 C280.8175,91.660838 280.939999,92.5008296 281.185,93.2475 C281.430001,93.9941704 281.785831,94.6299974 282.2525,95.155 C282.719169,95.6800026 283.29083,96.0854152 283.9675,96.37125 C284.64417,96.6570848 285.414162,96.8 286.2775,96.8 Z M319.9475,79.8425 L312.5275,79.8425 L312.5275,101 L307.26,101 L307.26,79.8425 L299.84,79.8425 L299.84,75.6075 L319.9475,75.6075 L319.9475,79.8425 Z M347.65,88.295 C347.65,90.1500093 347.33792,91.8708254 346.71375,93.4575 C346.08958,95.0441746 345.208756,96.4149942 344.07125,97.57 C342.933744,98.7250058 341.565841,99.63208 339.9675,100.29125 C338.369159,100.95042 336.595843,101.28 334.6475,101.28 C332.699157,101.28 330.925841,100.95042 329.3275,100.29125 C327.729159,99.63208 326.358339,98.7250058 325.215,97.57 C324.071661,96.4149942 323.18792,95.0441746 322.56375,93.4575 C321.93958,91.8708254 321.6275,90.1500093 321.6275,88.295 C321.6275,86.4399907 321.93958,84.7220912 322.56375,83.14125 C323.18792,81.5604088 324.071661,80.1925058 325.215,79.0375 C326.358339,77.8824942 327.729159,76.97542 329.3275,76.31625 C330.925841,75.65708 332.699157,75.3275 334.6475,75.3275 C336.595843,75.3275 338.369159,75.65708 339.9675,76.31625 C341.565841,76.97542 342.933744,77.8854109 344.07125,79.04625 C345.208756,80.2070891 346.08958,81.5779088 346.71375,83.15875 C347.33792,84.7395912 347.65,86.4516574 347.65,88.295 Z M342.2775,88.295 C342.2775,86.9649934 342.102502,85.7720886 341.7525,84.71625 C341.402498,83.6604114 340.89792,82.762087 340.23875,82.02125 C339.57958,81.280413 338.780421,80.7145853 337.84125,80.32375 C336.902079,79.9329147 335.837506,79.7375 334.6475,79.7375 C333.457494,79.7375 332.390005,79.9329147 331.445,80.32375 C330.499995,80.7145853 329.69792,81.280413 329.03875,82.02125 C328.37958,82.762087 327.875002,83.6604114 327.525,84.71625 C327.174998,85.7720886 327,86.9649934 327,88.295 C327,89.6366734 327.174998,90.8354114 327.525,91.89125 C327.875002,92.9470886 328.37958,93.8424963 329.03875,94.5775 C329.69792,95.3125037 330.499995,95.8754147 331.445,96.26625 C332.390005,96.6570853 333.457494,96.8525 334.6475,96.8525 C335.837506,96.8525 336.902079,96.6570853 337.84125,96.26625 C338.780421,95.8754147 339.57958,95.3125037 340.23875,94.5775 C340.89792,93.8424963 341.402498,92.9470886 341.7525,91.89125 C342.102502,90.8354114 342.2775,89.6366734 342.2775,88.295 Z M350.7475,88.4175 L359.9875,88.4175 L359.9875,92.3725 L350.7475,92.3725 L350.7475,88.4175 Z M386.325,75.6075 L386.325,101 L383.6125,101 C383.204165,101 382.860001,100.932917 382.58,100.79875 C382.299999,100.664583 382.025835,100.434168 381.7575,100.1075 L369.105,84.0075 C369.14,84.4158354 369.16625,84.8183314 369.18375,85.215 C369.20125,85.6116686 369.21,85.979165 369.21,86.3175 L369.21,101 L364.5725,101 L364.5725,75.6075 L367.3375,75.6075 C367.559168,75.6075 367.748749,75.6162499 367.90625,75.63375 C368.063751,75.6512501 368.206666,75.692083 368.335,75.75625 C368.463334,75.820417 368.585833,75.9049995 368.7025,76.01 C368.819167,76.1150005 368.947499,76.2549991 369.0875,76.43 L381.8275,92.6 C381.780833,92.1566644 381.745833,91.7279187 381.7225,91.31375 C381.699167,90.8995813 381.6875,90.5058352 381.6875,90.1325 L381.6875,75.6075 L386.325,75.6075 Z M405.05,91.3575 L402.3025,83.5875 C402.139166,83.1791646 401.967084,82.7008361 401.78625,82.1525 C401.605416,81.6041639 401.433334,81.0091699 401.27,80.3675 C401.106666,81.0208366 400.934584,81.6245806 400.75375,82.17875 C400.572916,82.7329194 400.400834,83.2141646 400.2375,83.6225 L397.5075,91.3575 L405.05,91.3575 Z M413.87,101 L409.7925,101 C409.337498,101 408.967085,100.892084 408.68125,100.67625 C408.395415,100.460416 408.182501,100.183335 408.0425,99.845 L406.3275,94.9975 L396.2125,94.9975 L394.4975,99.845 C394.380833,100.136668 394.176668,100.402082 393.885,100.64125 C393.593332,100.880418 393.225836,101 392.7825,101 L388.67,101 L398.5925,75.6075 L403.965,75.6075 L413.87,101 Z M444.215,75.6075 L444.215,101 L439.5775,101 L439.5775,85.4075 C439.5775,85.0808317 439.58625,84.7308352 439.60375,84.3575 C439.62125,83.9841648 439.653333,83.6050019 439.7,83.22 L432.4375,96.9925 C432.040831,97.7508371 431.428337,98.13 430.6,98.13 L429.865,98.13 C429.456665,98.13 429.095002,98.033751 428.78,97.84125 C428.464998,97.648749 428.214168,97.3658352 428.0275,96.9925 L420.73,83.1675 C420.765,83.5758354 420.794167,83.9695814 420.8175,84.34875 C420.840833,84.7279186 420.8525,85.0808317 420.8525,85.4075 L420.8525,101 L416.215,101 L416.215,75.6075 L420.205,75.6075 C420.426668,75.6075 420.624999,75.6133333 420.8,75.625 C420.975001,75.6366667 421.129583,75.6687497 421.26375,75.72125 C421.397917,75.7737503 421.520416,75.8554161 421.63125,75.96625 C421.742084,76.0770839 421.849999,76.2316657 421.955,76.43 L429.06,89.975 C429.281668,90.3833354 429.488749,90.8033312 429.68125,91.235 C429.873751,91.6666688 430.057499,92.1099977 430.2325,92.565 C430.407501,92.098331 430.591249,91.6433355 430.78375,91.2 C430.976251,90.7566645 431.183332,90.3308354 431.405,89.9225 L438.4575,76.43 C438.562501,76.2316657 438.673333,76.0770839 438.79,75.96625 C438.906667,75.8554161 439.032083,75.7737503 439.16625,75.72125 C439.300417,75.6687497 439.452082,75.6366667 439.62125,75.625 C439.790418,75.6133333 439.991665,75.6075 440.225,75.6075 L444.215,75.6075 Z M454.8025,79.72 L454.8025,86.2475 L463.2725,86.2475 L463.2725,90.22 L454.8025,90.22 L454.8025,96.8875 L465.6875,96.8875 L465.6875,101 L449.5175,101 L449.5175,75.6075 L465.6875,75.6075 L465.6875,79.72 L454.8025,79.72 Z M492.375,88.295 C492.375,90.1500093 492.06292,91.8562422 491.43875,93.41375 C490.81458,94.9712578 489.933756,96.3099944 488.79625,97.43 C487.658744,98.5500056 486.290841,99.4249968 484.6925,100.055 C483.094159,100.685003 481.320843,101 479.3725,101 L469.6075,101 L469.6075,75.6075 L479.3725,75.6075 C481.320843,75.6075 483.094159,75.9224969 484.6925,76.5525 C486.290841,77.1825032 487.658744,78.060411 488.79625,79.18625 C489.933756,80.312089 490.81458,81.6508256 491.43875,83.2025 C492.06292,84.7541744 492.375,86.4516574 492.375,88.295 Z M486.985,88.295 C486.985,86.9649934 486.810002,85.769172 486.46,84.7075 C486.109998,83.645828 485.608337,82.7475037 484.955,82.0125 C484.301663,81.2774963 483.505421,80.7116686 482.56625,80.315 C481.627079,79.9183314 480.562506,79.72 479.3725,79.72 L474.8925,79.72 L474.8925,96.8875 L479.3725,96.8875 C480.562506,96.8875 481.627079,96.6920853 482.56625,96.30125 C483.505421,95.9104147 484.301663,95.344587 484.955,94.60375 C485.608337,93.862913 486.109998,92.961672 486.46,91.9 C486.810002,90.838328 486.985,89.6366734 486.985,88.295 Z M118.75,122.82 L110.27,122.82 L110.27,147 L104.25,147 L104.25,122.82 L95.77,122.82 L95.77,117.98 L118.75,117.98 L118.75,122.82 Z M137.69,135.98 L134.55,127.1 C134.363332,126.633331 134.166668,126.08667 133.96,125.46 C133.753332,124.83333 133.556668,124.153337 133.37,123.42 C133.183332,124.16667 132.986668,124.856663 132.78,125.49 C132.573332,126.123336 132.376668,126.673331 132.19,127.14 L129.07,135.98 L137.69,135.98 Z M147.77,147 L143.11,147 C142.589997,147 142.166668,146.876668 141.84,146.63 C141.513332,146.383332 141.270001,146.066669 141.11,145.68 L139.15,140.14 L127.59,140.14 L125.63,145.68 C125.496666,146.013335 125.263335,146.316665 124.93,146.59 C124.596665,146.863335 124.176669,147 123.67,147 L118.97,147 L130.31,117.98 L136.45,117.98 L147.77,147 Z M160.25,132.42 C162.130009,132.42 163.506662,131.966671 164.38,131.06 C165.253338,130.153329 165.69,128.913341 165.69,127.34 C165.69,126.619996 165.580001,125.963336 165.36,125.37 C165.139999,124.776664 164.806669,124.270002 164.36,123.85 C163.913331,123.429998 163.350003,123.106668 162.67,122.88 C161.989997,122.653332 161.183338,122.54 160.25,122.54 L156.45,122.54 L156.45,132.42 L160.25,132.42 Z M160.25,117.98 C162.236677,117.98 163.953326,118.213331 165.4,118.68 C166.846674,119.146669 168.036662,119.796662 168.97,120.63 C169.903338,121.463337 170.593331,122.453328 171.04,123.6 C171.486669,124.746672 171.71,125.993327 171.71,127.34 C171.71,128.766674 171.476669,130.073327 171.01,131.26 C170.543331,132.446673 169.836671,133.466662 168.89,134.32 C167.943329,135.173338 166.750007,135.836664 165.31,136.31 C163.869993,136.783336 162.183343,137.02 160.25,137.02 L156.45,137.02 L156.45,147 L150.45,147 L150.45,117.98 L160.25,117.98 Z M205.57,122.82 L197.09,122.82 L197.09,147 L191.07,147 L191.07,122.82 L182.59,122.82 L182.59,117.98 L205.57,117.98 L205.57,122.82 Z M237.23,132.48 C237.23,134.600011 236.873337,136.566658 236.16,138.38 C235.446663,140.193342 234.440006,141.759993 233.14,143.08 C231.839993,144.400007 230.276676,145.436663 228.45,146.19 C226.623324,146.943337 224.596678,147.32 222.37,147.32 C220.143322,147.32 218.116676,146.943337 216.29,146.19 C214.463324,145.436663 212.896673,144.400007 211.59,143.08 C210.283327,141.759993 209.273337,140.193342 208.56,138.38 C207.846663,136.566658 207.49,134.600011 207.49,132.48 C207.49,130.359989 207.846663,128.396676 208.56,126.59 C209.273337,124.783324 210.283327,123.220007 211.59,121.9 C212.896673,120.579993 214.463324,119.543337 216.29,118.79 C218.116676,118.036663 220.143322,117.66 222.37,117.66 C224.596678,117.66 226.623324,118.036663 228.45,118.79 C230.276676,119.543337 231.839993,120.583327 233.14,121.91 C234.440006,123.236673 235.446663,124.803324 236.16,126.61 C236.873337,128.416676 237.23,130.373323 237.23,132.48 Z M231.09,132.48 C231.09,130.959992 230.890002,129.596673 230.49,128.39 C230.089998,127.183327 229.513337,126.156671 228.76,125.31 C228.006663,124.463329 227.093339,123.816669 226.02,123.37 C224.946661,122.923331 223.730007,122.7 222.37,122.7 C221.009993,122.7 219.790005,122.923331 218.71,123.37 C217.629995,123.816669 216.713337,124.463329 215.96,125.31 C215.206663,126.156671 214.630002,127.183327 214.23,128.39 C213.829998,129.596673 213.63,130.959992 213.63,132.48 C213.63,134.013341 213.829998,135.383327 214.23,136.59 C214.630002,137.796673 215.206663,138.819996 215.96,139.66 C216.713337,140.500004 217.629995,141.143331 218.71,141.59 C219.790005,142.036669 221.009993,142.26 222.37,142.26 C223.730007,142.26 224.946661,142.036669 226.02,141.59 C227.093339,141.143331 228.006663,140.500004 228.76,139.66 C229.513337,138.819996 230.089998,137.796673 230.49,136.59 C230.890002,135.383327 231.09,134.013341 231.09,132.48 Z M257.17,122.68 L257.17,130.14 L266.85,130.14 L266.85,134.68 L257.17,134.68 L257.17,142.3 L269.61,142.3 L269.61,147 L251.13,147 L251.13,117.98 L269.61,117.98 L269.61,122.68 L257.17,122.68 Z M300.11,132.48 C300.11,134.600011 299.753337,136.549991 299.04,138.33 C298.326663,140.110009 297.320006,141.639994 296.02,142.92 C294.719993,144.200006 293.156676,145.199996 291.33,145.92 C289.503324,146.640004 287.476678,147 285.25,147 L274.09,147 L274.09,117.98 L285.25,117.98 C287.476678,117.98 289.503324,118.339996 291.33,119.06 C293.156676,119.780004 294.719993,120.783327 296.02,122.07 C297.320006,123.356673 298.326663,124.886658 299.04,126.66 C299.753337,128.433342 300.11,130.373323 300.11,132.48 Z M293.95,132.48 C293.95,130.959992 293.750002,129.593339 293.35,128.38 C292.949998,127.166661 292.37667,126.140004 291.63,125.3 C290.88333,124.459996 289.973339,123.813336 288.9,123.36 C287.826661,122.906664 286.610007,122.68 285.25,122.68 L280.13,122.68 L280.13,142.3 L285.25,142.3 C286.610007,142.3 287.826661,142.076669 288.9,141.63 C289.973339,141.183331 290.88333,140.536671 291.63,139.69 C292.37667,138.843329 292.949998,137.813339 293.35,136.6 C293.750002,135.386661 293.95,134.013341 293.95,132.48 Z M310.57,147 L304.53,147 L304.53,117.98 L310.57,117.98 L310.57,147 Z M337.19,122.82 L328.71,122.82 L328.71,147 L322.69,147 L322.69,122.82 L314.21,122.82 L314.21,117.98 L337.19,117.98 L337.19,122.82 Z M370.85,122.82 L362.37,122.82 L362.37,147 L356.35,147 L356.35,122.82 L347.87,122.82 L347.87,117.98 L370.85,117.98 L370.85,122.82 Z M399.33,117.98 L399.33,147 L393.29,147 L393.29,134.5 L380.51,134.5 L380.51,147 L374.47,147 L374.47,117.98 L380.51,117.98 L380.51,130.3 L393.29,130.3 L393.29,117.98 L399.33,117.98 Z M411.45,122.68 L411.45,130.14 L421.13,130.14 L421.13,134.68 L411.45,134.68 L411.45,142.3 L423.89,142.3 L423.89,147 L405.41,147 L405.41,117.98 L423.89,117.98 L423.89,122.68 L411.45,122.68 Z M460.37,117.98 L460.37,147 L455.07,147 L455.07,129.18 C455.07,128.806665 455.08,128.406669 455.1,127.98 C455.12,127.553331 455.156666,127.120002 455.21,126.68 L446.91,142.42 C446.456664,143.286671 445.756671,143.72 444.81,143.72 L443.97,143.72 C443.503331,143.72 443.090002,143.610001 442.73,143.39 C442.369998,143.169999 442.083334,142.846669 441.87,142.42 L433.53,126.62 C433.57,127.086669 433.603333,127.536665 433.63,127.97 C433.656667,128.403335 433.67,128.806665 433.67,129.18 L433.67,147 L428.37,147 L428.37,117.98 L432.93,117.98 C433.183335,117.98 433.409999,117.986667 433.61,118 C433.810001,118.013333 433.986666,118.05 434.14,118.11 C434.293334,118.17 434.433333,118.263333 434.56,118.39 C434.686667,118.516667 434.809999,118.693332 434.93,118.92 L443.05,134.4 C443.303335,134.866669 443.539999,135.346664 443.76,135.84 C443.980001,136.333336 444.189999,136.839997 444.39,137.36 C444.590001,136.826664 444.799999,136.306669 445.02,135.8 C445.240001,135.293331 445.476665,134.806669 445.73,134.34 L453.79,118.92 C453.910001,118.693332 454.036666,118.516667 454.17,118.39 C454.303334,118.263333 454.446666,118.17 454.6,118.11 C454.753334,118.05 454.926666,118.013333 455.12,118 C455.313334,117.986667 455.543332,117.98 455.81,117.98 L460.37,117.98 Z M471.71,117.98 L471.71,129.42 C471.71,130.633339 471.646667,131.833327 471.52,133.02 C471.393333,134.206673 471.216668,135.439994 470.99,136.72 L467.27,136.72 C467.043332,135.439994 466.866667,134.206673 466.74,133.02 C466.613333,131.833327 466.55,130.633339 466.55,129.42 L466.55,117.98 L471.71,117.98 Z M465.81,144.1 C465.81,143.659998 465.893333,143.243335 466.06,142.85 C466.226667,142.456665 466.456665,142.116668 466.75,141.83 C467.043335,141.543332 467.386665,141.316667 467.78,141.15 C468.173335,140.983333 468.603331,140.9 469.07,140.9 C469.523336,140.9 469.946665,140.983333 470.34,141.15 C470.733335,141.316667 471.076665,141.543332 471.37,141.83 C471.663335,142.116668 471.896666,142.456665 472.07,142.85 C472.243334,143.243335 472.33,143.659998 472.33,144.1 C472.33,144.553336 472.243334,144.973331 472.07,145.36 C471.896666,145.746669 471.663335,146.083332 471.37,146.37 C471.076665,146.656668 470.733335,146.879999 470.34,147.04 C469.946665,147.200001 469.523336,147.28 469.07,147.28 C468.603331,147.28 468.173335,147.200001 467.78,147.04 C467.386665,146.879999 467.043335,146.656668 466.75,146.37 C466.456665,146.083332 466.226667,145.746669 466.06,145.36 C465.893333,144.973331 465.81,144.553336 465.81,144.1 Z" id="TABSAREAUTO-NAMEDTAPTOEDITTHEM!" fill="#000000" fill-rule="nonzero"></path>
        <polygon id="Path-2" fill="#000000" opacity="0.825497582" points="24 327.815385 24 764 544 764 544 252 319 252 319 327.815385"></polygon>
        <path id="Line-2" d="M139.985,199.233798 L139.985,160.5 L147.985,160.5 L147.985,199.233798 L165.985,199.233798 L143.985,243.233798 L121.985,199.233798 L139.985,199.233798 Z" fill="#FFFFFF" fill-rule="nonzero"></path>
    </g>
</svg>