<?xml version="1.0" encoding="UTF-8"?>
<svg width="570px" height="792px" viewBox="0 0 570 792" version="1.1" xmlns="http://www.w3.org/2000/svg" xmlns:xlink="http://www.w3.org/1999/xlink">
    <!-- Generator: Sketch 54.1 (76490) - https://sketchapp.com -->
    <title>3_create_en</title>
    <desc>Created with Sketch.</desc>
    <g id="3_create_en" stroke="none" stroke-width="1" fill="none" fill-rule="evenodd">
        <rect fill="#00B0FF" x="0" y="0" width="570" height="792"></rect>
        <g id="Group-3" transform="translate(12.000000, 225.000000)">
            <rect id="Rectangle" fill="#0B0C24" x="0" y="0" width="547" height="547" rx="13"></rect>
            <path d="M12,286 L189,286 L189,388 L25,388 C17.8202983,388 12,382.179702 12,375 L12,286 Z" id="Rectangle" fill="#0098CE"></path>
            <path d="M355,286 L532,286 L532,388 L368,388 C360.820298,388 355,382.179702 355,375 L355,286 Z" id="Rectangle" fill="#0098CE" transform="translate(443.500000, 337.000000) scale(-1, 1) translate(-443.500000, -337.000000) "></path>
            <rect id="Rectangle" stroke="#979797" fill="#FFFFFF" x="12.5" y="400.5" width="519" height="64"></rect>
            <path d="M12,465 L532,465 L532,519 C532,525.075132 527.075132,530 521,530 L23,530 C16.9248678,530 12,525.075132 12,519 L12,465 Z" id="Rectangle" fill="#0098CE"></path>
            <text id="ADD-ITEM" font-family="Lato-Bold, Lato" font-size="40" font-weight="bold" fill="#FFFFFF">
                <tspan x="180" y="508">ADD ITEM</tspan>
            </text>
            <text id="-$0.00" font-family="Roboto-Bold, Roboto" font-size="30" font-weight="bold" fill="#FF0088">
                <tspan x="423.805664" y="243">-$0.00</tspan>
            </text>
            <text id="Discount:" font-family="Roboto-Bold, Roboto" font-size="30" font-weight="bold" fill="#00E7FF">
                <tspan x="403.324219" y="189">Discount:</tspan>
            </text>
            <text id="Sub:-Tax:-Tip:" font-family="Roboto-Bold, Roboto" font-size="30" font-weight="bold" fill="#00E7FF">
                <tspan x="21.4140625" y="189">Sub:</tspan>
                <tspan x="23.6259766" y="224">Tax:</tspan>
                <tspan x="30.1298828" y="259">Tip:</tspan>
            </text>
            <text id="$0.00" font-family="Lato-Bold, Lato" font-size="40" font-weight="bold" fill="#659B00">
                <tspan x="411.7" y="446">$0.00</tspan>
            </text>
            <text id="CUSTOMER-1" font-family="Roboto-Bold, Roboto" font-size="40" font-weight="bold" fill="#FFFFFF">
                <tspan x="34.2851562" y="76">CUSTOMER 1</tspan>
            </text>
            <rect id="Rectangle" stroke-opacity="0.329200634" stroke="#00C9FE" stroke-width="3" x="21.5" y="28.5" width="269" height="67" rx="6"></rect>
            <rect id="Rectangle" stroke-opacity="0.329200634" stroke="#00C9FE" stroke-width="3" x="405.5" y="210.5" width="125" height="47" rx="6"></rect>
            <text id="$0.00" font-family="Lato-Bold, Lato" font-size="60" font-weight="bold" fill="#FFFFFF">
                <tspan x="188.55" y="256">$0.00</tspan>
            </text>
            <text id="OPEN" font-family="Roboto-Bold, Roboto" font-size="40" font-weight="bold" fill="#FFFFFF">
                <tspan x="424.419922" y="141">OPEN</tspan>
            </text>
            <text id="SERVER-MINS-TIME" font-family="Roboto-Bold, Roboto" font-size="40" font-weight="bold" fill="#FFFFFF">
                <tspan x="24" y="141">SERVER MINS TIME</tspan>
            </text>
            <rect id="Rectangle" fill="#ADFB5F" x="449" y="39" width="82" height="50" rx="3"></rect>
            <ellipse id="Oval" fill="#FFFFFF" cx="491" cy="64" rx="18" ry="19"></ellipse>
            <text id="$" font-family="Roboto-Bold, Roboto" font-size="30" font-weight="bold" fill="#509209">
                <tspan x="482.394043" y="75">$</tspan>
            </text>
            <text id="Custom-Item-1" font-family="Lato-Bold, Lato" font-size="40" font-weight="bold" fill="#949494">
                <tspan x="26.8" y="445">Custom Item 1</tspan>
            </text>
            <rect id="Rectangle" fill="#98CE00" x="189" y="286" width="166" height="102"></rect>
            <text id="AUTH" font-family="Roboto-Black, Roboto" font-size="35" font-weight="700" fill="#080B26">
                <tspan x="54" y="350">AUTH</tspan>
            </text>
            <text id="PAY" font-family="Roboto-Black, Roboto" font-size="35" font-weight="700" fill="#080B26">
                <tspan x="238" y="350">PAY</tspan>
            </text>
            <text id="CATALOG" font-family="Roboto-Black, Roboto" font-size="35" font-weight="700" fill="#080B26">
                <tspan x="364" y="349">CATALOG</tspan>
            </text>
        </g>
        <rect id="Rectangle" fill="#FFFFFF" x="61" y="42" width="449" height="145" rx="12"></rect>
        <polygon id="Path-2" fill="#000000" opacity="0.825497582" points="24 327.815385 24 764 544 764 544 252 319 252 319 327.815385"></polygon>
        <path id="Line-2" d="M139.985,199.233798 L139.985,160.5 L147.985,160.5 L147.985,199.233798 L165.985,199.233798 L143.985,243.233798 L121.985,199.233798 L139.985,199.233798 Z" fill="#FFFFFF" fill-rule="nonzero"></path>
        <path d="M111.983643,70.9545898 L104.797119,70.9545898 L104.797119,90.5 L99.9631348,90.5 L99.9631348,70.9545898 L92.873291,70.9545898 L92.873291,67.0390625 L111.983643,67.0390625 L111.983643,70.9545898 Z M127.984131,85.6660156 L119.508545,85.6660156 L117.897217,90.5 L112.75708,90.5 L121.490479,67.0390625 L125.969971,67.0390625 L134.751709,90.5 L129.611572,90.5 L127.984131,85.6660156 Z M120.813721,81.7504883 L126.678955,81.7504883 L123.730225,72.96875 L120.813721,81.7504883 Z M136.943115,90.5 L136.943115,67.0390625 L145.160889,67.0390625 C148.007583,67.0390625 150.166741,67.5842231 151.638428,68.6745605 C153.110115,69.764898 153.845947,71.3627824 153.845947,73.4682617 C153.845947,74.6176815 153.55054,75.6301226 152.959717,76.5056152 C152.368894,77.3811079 151.547124,78.0229472 150.494385,78.4311523 C151.697516,78.7319351 152.645504,79.3388626 153.338379,80.2519531 C154.031253,81.1650436 154.377686,82.28222 154.377686,83.6035156 C154.377686,85.8593863 153.657966,87.567377 152.218506,88.7275391 C150.779046,89.8877011 148.727308,90.4785155 146.063232,90.5 L136.943115,90.5 Z M141.7771,80.2841797 L141.7771,86.6166992 L145.918213,86.6166992 C147.05689,86.6166992 147.945798,86.3454617 148.584961,85.8029785 C149.224124,85.2604953 149.543701,84.5112352 149.543701,83.5551758 C149.543701,81.4067275 148.431896,80.3164064 146.208252,80.2841797 L141.7771,80.2841797 Z M141.7771,76.8681641 L145.354248,76.8681641 C147.792737,76.8251951 149.011963,75.8530369 149.011963,73.9516602 C149.011963,72.8881783 148.703128,72.1228051 148.085449,71.6555176 C147.46777,71.1882301 146.492927,70.9545898 145.160889,70.9545898 L141.7771,70.9545898 L141.7771,76.8681641 Z M170.168701,84.3447266 C170.168701,83.4316361 169.846439,82.7307153 169.201904,82.2419434 C168.55737,81.7531714 167.397225,81.2375515 165.721436,80.6950684 C164.045646,80.1525852 162.718999,79.6181667 161.741455,79.0917969 C159.077379,77.6523366 157.745361,75.7133911 157.745361,73.2749023 C157.745361,72.0073179 158.102535,70.876714 158.816895,69.8830566 C159.531254,68.8893993 160.557122,68.113284 161.894531,67.5546875 C163.23194,66.996091 164.733146,66.7167969 166.398193,66.7167969 C168.073983,66.7167969 169.567132,67.0202606 170.877686,67.6271973 C172.188239,68.2341339 173.206051,69.0908148 173.931152,70.1972656 C174.656254,71.3037165 175.018799,72.5605398 175.018799,73.9677734 L170.184814,73.9677734 C170.184814,72.8935493 169.846439,72.0583526 169.169678,71.4621582 C168.492917,70.8659638 167.542242,70.5678711 166.317627,70.5678711 C165.13598,70.5678711 164.217533,70.8176245 163.562256,71.3171387 C162.906979,71.8166529 162.579346,72.4746053 162.579346,73.2910156 C162.579346,74.0537148 162.963375,74.6928685 163.731445,75.2084961 C164.499516,75.7241237 165.630119,76.2075173 167.123291,76.6586914 C169.873305,77.485844 171.876703,78.5117126 173.133545,79.7363281 C174.390387,80.9609436 175.018799,82.486319 175.018799,84.3125 C175.018799,86.3427836 174.25074,87.935297 172.7146,89.0900879 C171.178459,90.2448788 169.110609,90.8222656 166.510986,90.8222656 C164.70629,90.8222656 163.062752,90.4919467 161.580322,89.8312988 C160.097893,89.170651 158.967289,88.2656307 158.188477,87.1162109 C157.409664,85.9667911 157.020264,84.6347732 157.020264,83.1201172 L161.870361,83.1201172 C161.870361,85.7089973 163.417221,87.003418 166.510986,87.003418 C167.660406,87.003418 168.55737,86.7697777 169.201904,86.3024902 C169.846439,85.8352027 170.168701,85.1826214 170.168701,84.3447266 Z M199.752686,85.6660156 L191.2771,85.6660156 L189.665771,90.5 L184.525635,90.5 L193.259033,67.0390625 L197.738525,67.0390625 L206.520264,90.5 L201.380127,90.5 L199.752686,85.6660156 Z M192.582275,81.7504883 L198.44751,81.7504883 L195.498779,72.96875 L192.582275,81.7504883 Z M217.396729,81.9116211 L213.545654,81.9116211 L213.545654,90.5 L208.71167,90.5 L208.71167,67.0390625 L217.428955,67.0390625 C220.200453,67.0390625 222.338127,67.6567321 223.842041,68.8920898 C225.345955,70.1274476 226.0979,71.8730356 226.0979,74.1289062 C226.0979,75.7295002 225.751468,77.0642036 225.058594,78.1330566 C224.365719,79.2019096 223.315681,80.0532195 221.908447,80.6870117 L226.984131,90.2744141 L226.984131,90.5 L221.795654,90.5 L217.396729,81.9116211 Z M213.545654,77.9960938 L217.445068,77.9960938 C218.658942,77.9960938 219.598874,77.6872589 220.264893,77.0695801 C220.930912,76.4519012 221.263916,75.6005914 221.263916,74.515625 C221.263916,73.4091742 220.94971,72.5390657 220.321289,71.9052734 C219.692868,71.2714812 218.728766,70.9545898 217.428955,70.9545898 L213.545654,70.9545898 L213.545654,77.9960938 Z M243.886963,80.3325195 L234.605713,80.3325195 L234.605713,86.6166992 L245.498291,86.6166992 L245.498291,90.5 L229.771729,90.5 L229.771729,67.0390625 L245.466064,67.0390625 L245.466064,70.9545898 L234.605713,70.9545898 L234.605713,76.5458984 L243.886963,76.5458984 L243.886963,80.3325195 Z M269.797119,85.6660156 L261.321533,85.6660156 L259.710205,90.5 L254.570068,90.5 L263.303467,67.0390625 L267.782959,67.0390625 L276.564697,90.5 L271.424561,90.5 L269.797119,85.6660156 Z M262.626709,81.7504883 L268.491943,81.7504883 L265.543213,72.96875 L262.626709,81.7504883 Z M296.512939,67.0390625 L296.512939,82.4916992 C296.512939,85.0590949 295.709969,87.089348 294.104004,88.5825195 C292.498039,90.0756911 290.303969,90.8222656 287.521729,90.8222656 C284.782457,90.8222656 282.607186,90.0971752 280.99585,88.6469727 C279.384513,87.1967701 278.562744,85.2041142 278.530518,82.6689453 L278.530518,67.0390625 L283.364502,67.0390625 L283.364502,82.5239258 C283.364502,84.0600663 283.732418,85.1799281 284.468262,85.8835449 C285.204105,86.5871617 286.221917,86.9389648 287.521729,86.9389648 C290.239516,86.9389648 291.619873,85.5102682 291.662842,82.652832 L291.662842,67.0390625 L296.512939,67.0390625 Z M318.136963,70.9545898 L310.950439,70.9545898 L310.950439,90.5 L306.116455,90.5 L306.116455,70.9545898 L299.026611,70.9545898 L299.026611,67.0390625 L318.136963,67.0390625 L318.136963,70.9545898 Z M340.163818,79.3012695 C340.163818,81.6108514 339.755619,83.6357335 338.939209,85.3759766 C338.122799,87.1162196 336.954597,88.4589796 335.43457,89.4042969 C333.914543,90.3496141 332.171641,90.8222656 330.205811,90.8222656 C328.261465,90.8222656 326.526619,90.3549851 325.001221,89.4204102 C323.475822,88.4858352 322.294194,87.1511317 321.456299,85.4162598 C320.618404,83.6813878 320.194092,81.6860464 320.18335,79.4301758 L320.18335,78.2700195 C320.18335,75.9604377 320.599605,73.927499 321.432129,72.1711426 C322.264653,70.4147861 323.44091,69.0666551 324.960938,68.126709 C326.480965,67.1867629 328.218496,66.7167969 330.173584,66.7167969 C332.128672,66.7167969 333.866203,67.1867629 335.38623,68.126709 C336.906258,69.0666551 338.082515,70.4147861 338.915039,72.1711426 C339.747563,73.927499 340.163818,75.9550666 340.163818,78.2539062 L340.163818,79.3012695 Z M335.265381,78.237793 C335.265381,75.7778197 334.824956,73.9086978 333.944092,72.6303711 C333.063228,71.3520444 331.806405,70.7128906 330.173584,70.7128906 C328.551506,70.7128906 327.300053,71.3439878 326.419189,72.6062012 C325.538326,73.8684145 325.092529,75.7187378 325.081787,78.1572266 L325.081787,79.3012695 C325.081787,81.6967893 325.522212,83.5551692 326.403076,84.8764648 C327.28394,86.1977605 328.551505,86.8583984 330.205811,86.8583984 C331.827889,86.8583984 333.07397,86.2219302 333.944092,84.9489746 C334.814213,83.676019 335.254639,81.8203247 335.265381,79.3818359 L335.265381,78.237793 Z M352.426025,82.3305664 L343.354248,82.3305664 L343.354248,78.5761719 L352.426025,78.5761719 L352.426025,82.3305664 Z M375.548584,90.5 L370.7146,90.5 L361.304443,75.0634766 L361.304443,90.5 L356.470459,90.5 L356.470459,67.0390625 L361.304443,67.0390625 L370.730713,82.5078125 L370.730713,67.0390625 L375.548584,67.0390625 L375.548584,90.5 Z M393.015381,85.6660156 L384.539795,85.6660156 L382.928467,90.5 L377.78833,90.5 L386.521729,67.0390625 L391.001221,67.0390625 L399.782959,90.5 L394.642822,90.5 L393.015381,85.6660156 Z M385.844971,81.7504883 L391.710205,81.7504883 L388.761475,72.96875 L385.844971,81.7504883 Z M408.290771,67.0390625 L414.317139,84.0546875 L420.311279,67.0390625 L426.659912,67.0390625 L426.659912,90.5 L421.809814,90.5 L421.809814,84.0869141 L422.293213,73.0170898 L415.960693,90.5 L412.641357,90.5 L406.324951,73.0332031 L406.80835,84.0869141 L406.80835,90.5 L401.974365,90.5 L401.974365,67.0390625 L408.290771,67.0390625 Z M444.996826,80.3325195 L435.715576,80.3325195 L435.715576,86.6166992 L446.608154,86.6166992 L446.608154,90.5 L430.881592,90.5 L430.881592,67.0390625 L446.575928,67.0390625 L446.575928,70.9545898 L435.715576,70.9545898 L435.715576,76.5458984 L444.996826,76.5458984 L444.996826,80.3325195 Z M449.444092,90.5 L449.444092,67.0390625 L456.662842,67.0390625 C458.725352,67.0390625 460.570304,67.5036575 462.197754,68.4328613 C463.825203,69.3620652 465.095454,70.683341 466.008545,72.3967285 C466.921635,74.110116 467.378174,76.057118 467.378174,78.237793 L467.378174,79.3173828 C467.378174,81.4980578 466.929692,83.4370032 466.032715,85.1342773 C465.135738,86.8315515 463.870858,88.1474563 462.238037,89.0820312 C460.605216,90.0166062 458.76295,90.4892578 456.711182,90.5 L449.444092,90.5 Z M454.278076,70.9545898 L454.278076,86.6166992 L456.614502,86.6166992 C458.505136,86.6166992 459.949946,85.9990296 460.948975,84.7636719 C461.948003,83.5283141 462.458252,81.761242 462.479736,79.4624023 L462.479736,78.2216797 C462.479736,75.8369021 461.985601,74.0295472 460.997314,72.7995605 C460.009028,71.5695739 458.564218,70.9545898 456.662842,70.9545898 L454.278076,70.9545898 Z M475.322021,83.2973633 L471.454834,83.2973633 L470.906982,67.0390625 L475.869873,67.0390625 L475.322021,83.2973633 Z M473.388428,85.8432617 C474.172611,85.8432617 474.803709,86.0742164 475.281738,86.5361328 C475.759768,86.9980492 475.998779,87.5888636 475.998779,88.3085938 C475.998779,89.0175817 475.759768,89.603025 475.281738,90.0649414 C474.803709,90.5268578 474.172611,90.7578125 473.388428,90.7578125 C472.614986,90.7578125 471.98926,90.5268578 471.51123,90.0649414 C471.033201,89.603025 470.794189,89.0175817 470.794189,88.3085938 C470.794189,87.5996058 471.033201,87.0114769 471.51123,86.5441895 C471.98926,86.076902 472.614986,85.8432617 473.388428,85.8432617 Z M122.11084,109.95459 L114.924316,109.95459 L114.924316,129.5 L110.090332,129.5 L110.090332,109.95459 L103.000488,109.95459 L103.000488,106.039062 L122.11084,106.039062 L122.11084,109.95459 Z M138.111328,124.666016 L129.635742,124.666016 L128.024414,129.5 L122.884277,129.5 L131.617676,106.039062 L136.097168,106.039062 L144.878906,129.5 L139.73877,129.5 L138.111328,124.666016 Z M130.940918,120.750488 L136.806152,120.750488 L133.857422,111.96875 L130.940918,120.750488 Z M151.904297,121.233887 L151.904297,129.5 L147.070312,129.5 L147.070312,106.039062 L156.222656,106.039062 C157.984384,106.039062 159.533929,106.361325 160.871338,107.005859 C162.208747,107.650394 163.237301,108.566156 163.957031,109.753174 C164.676761,110.940191 165.036621,112.291008 165.036621,113.805664 C165.036621,116.104504 164.249764,117.91723 162.676025,119.243896 C161.102287,120.570563 158.92433,121.233887 156.14209,121.233887 L151.904297,121.233887 Z M151.904297,117.318359 L156.222656,117.318359 C157.500983,117.318359 158.475827,117.017581 159.147217,116.416016 C159.818607,115.81445 160.154297,114.955084 160.154297,113.837891 C160.154297,112.688471 159.815921,111.759281 159.13916,111.050293 C158.462399,110.341305 157.527838,109.976074 156.335449,109.95459 L151.904297,109.95459 L151.904297,117.318359 Z M194.233887,109.95459 L187.047363,109.95459 L187.047363,129.5 L182.213379,129.5 L182.213379,109.95459 L175.123535,109.95459 L175.123535,106.039062 L194.233887,106.039062 L194.233887,109.95459 Z M216.260742,118.30127 C216.260742,120.610851 215.852543,122.635733 215.036133,124.375977 C214.219722,126.11622 213.051521,127.45898 211.531494,128.404297 C210.011467,129.349614 208.268565,129.822266 206.302734,129.822266 C204.358389,129.822266 202.623543,129.354985 201.098145,128.42041 C199.572746,127.485835 198.391117,126.151132 197.553223,124.41626 C196.715328,122.681388 196.291016,120.686046 196.280273,118.430176 L196.280273,117.27002 C196.280273,114.960438 196.696529,112.927499 197.529053,111.171143 C198.361576,109.414786 199.537834,108.066655 201.057861,107.126709 C202.577888,106.186763 204.31542,105.716797 206.270508,105.716797 C208.225596,105.716797 209.963127,106.186763 211.483154,107.126709 C213.003181,108.066655 214.179439,109.414786 215.011963,111.171143 C215.844487,112.927499 216.260742,114.955067 216.260742,117.253906 L216.260742,118.30127 Z M211.362305,117.237793 C211.362305,114.77782 210.921879,112.908698 210.041016,111.630371 C209.160152,110.352044 207.903328,109.712891 206.270508,109.712891 C204.648429,109.712891 203.396977,110.343988 202.516113,111.606201 C201.63525,112.868415 201.189453,114.718738 201.178711,117.157227 L201.178711,118.30127 C201.178711,120.696789 201.619136,122.555169 202.5,123.876465 C203.380864,125.197761 204.648429,125.858398 206.302734,125.858398 C207.924813,125.858398 209.170894,125.22193 210.041016,123.948975 C210.911137,122.676019 211.351562,120.820325 211.362305,118.381836 L211.362305,117.237793 Z M242.106445,119.33252 L232.825195,119.33252 L232.825195,125.616699 L243.717773,125.616699 L243.717773,129.5 L227.991211,129.5 L227.991211,106.039062 L243.685547,106.039062 L243.685547,109.95459 L232.825195,109.95459 L232.825195,115.545898 L242.106445,115.545898 L242.106445,119.33252 Z M246.553711,129.5 L246.553711,106.039062 L253.772461,106.039062 C255.834971,106.039062 257.679924,106.503657 259.307373,107.432861 C260.934823,108.362065 262.205074,109.683341 263.118164,111.396729 C264.031255,113.110116 264.487793,115.057118 264.487793,117.237793 L264.487793,118.317383 C264.487793,120.498058 264.039311,122.437003 263.142334,124.134277 C262.245357,125.831551 260.980477,127.147456 259.347656,128.082031 C257.714836,129.016606 255.872569,129.489258 253.820801,129.5 L246.553711,129.5 Z M251.387695,109.95459 L251.387695,125.616699 L253.724121,125.616699 C255.614756,125.616699 257.059565,124.99903 258.058594,123.763672 C259.057622,122.528314 259.567871,120.761242 259.589355,118.462402 L259.589355,117.22168 C259.589355,114.836902 259.09522,113.029547 258.106934,111.799561 C257.118647,110.569574 255.673838,109.95459 253.772461,109.95459 L251.387695,109.95459 Z M273.140625,129.5 L268.306641,129.5 L268.306641,106.039062 L273.140625,106.039062 L273.140625,129.5 Z M295.280273,109.95459 L288.09375,109.95459 L288.09375,129.5 L283.259766,129.5 L283.259766,109.95459 L276.169922,109.95459 L276.169922,106.039062 L295.280273,106.039062 L295.280273,109.95459 Z M323.913574,109.95459 L316.727051,109.95459 L316.727051,129.5 L311.893066,129.5 L311.893066,109.95459 L304.803223,109.95459 L304.803223,106.039062 L323.913574,106.039062 L323.913574,109.95459 Z M345.763184,129.5 L340.929199,129.5 L340.929199,119.445312 L331.50293,119.445312 L331.50293,129.5 L326.668945,129.5 L326.668945,106.039062 L331.50293,106.039062 L331.50293,115.545898 L340.929199,115.545898 L340.929199,106.039062 L345.763184,106.039062 L345.763184,129.5 Z M364.100098,119.33252 L354.818848,119.33252 L354.818848,125.616699 L365.711426,125.616699 L365.711426,129.5 L349.984863,129.5 L349.984863,106.039062 L365.679199,106.039062 L365.679199,109.95459 L354.818848,109.95459 L354.818848,115.545898 L364.100098,115.545898 L364.100098,119.33252 Z M395.843262,129.5 L391.009277,129.5 L381.599121,114.063477 L381.599121,129.5 L376.765137,129.5 L376.765137,106.039062 L381.599121,106.039062 L391.025391,121.507812 L391.025391,106.039062 L395.843262,106.039062 L395.843262,129.5 Z M413.310059,124.666016 L404.834473,124.666016 L403.223145,129.5 L398.083008,129.5 L406.816406,106.039062 L411.295898,106.039062 L420.077637,129.5 L414.9375,129.5 L413.310059,124.666016 Z M406.139648,120.750488 L412.004883,120.750488 L409.056152,111.96875 L406.139648,120.750488 Z M428.585449,106.039062 L434.611816,123.054688 L440.605957,106.039062 L446.95459,106.039062 L446.95459,129.5 L442.104492,129.5 L442.104492,123.086914 L442.587891,112.01709 L436.255371,129.5 L432.936035,129.5 L426.619629,112.033203 L427.103027,123.086914 L427.103027,129.5 L422.269043,129.5 L422.269043,106.039062 L428.585449,106.039062 Z M465.291504,119.33252 L456.010254,119.33252 L456.010254,125.616699 L466.902832,125.616699 L466.902832,129.5 L451.17627,129.5 L451.17627,106.039062 L466.870605,106.039062 L466.870605,109.95459 L456.010254,109.95459 L456.010254,115.545898 L465.291504,115.545898 L465.291504,119.33252 Z M103.983398,148.95459 L96.796875,148.95459 L96.796875,168.5 L91.9628906,168.5 L91.9628906,148.95459 L84.8730469,148.95459 L84.8730469,145.039062 L103.983398,145.039062 L103.983398,148.95459 Z M126.010254,157.30127 C126.010254,159.610851 125.602055,161.635733 124.785645,163.375977 C123.969234,165.11622 122.801033,166.45898 121.281006,167.404297 C119.760979,168.349614 118.018076,168.822266 116.052246,168.822266 C114.1079,168.822266 112.373055,168.354985 110.847656,167.42041 C109.322258,166.485835 108.140629,165.151132 107.302734,163.41626 C106.46484,161.681388 106.040527,159.686046 106.029785,157.430176 L106.029785,156.27002 C106.029785,153.960438 106.446041,151.927499 107.278564,150.171143 C108.111088,148.414786 109.287346,147.066655 110.807373,146.126709 C112.3274,145.186763 114.064932,144.716797 116.02002,144.716797 C117.975107,144.716797 119.712639,145.186763 121.232666,146.126709 C122.752693,147.066655 123.928951,148.414786 124.761475,150.171143 C125.593998,151.927499 126.010254,153.955067 126.010254,156.253906 L126.010254,157.30127 Z M121.111816,156.237793 C121.111816,153.77782 120.671391,151.908698 119.790527,150.630371 C118.909664,149.352044 117.65284,148.712891 116.02002,148.712891 C114.397941,148.712891 113.146489,149.343988 112.265625,150.606201 C111.384761,151.868415 110.938965,153.718738 110.928223,156.157227 L110.928223,157.30127 C110.928223,159.696789 111.368648,161.555169 112.249512,162.876465 C113.130375,164.197761 114.397941,164.858398 116.052246,164.858398 C117.674325,164.858398 118.920406,164.22193 119.790527,162.948975 C120.660649,161.676019 121.101074,159.820325 121.111816,157.381836 L121.111816,156.237793 Z M150.98584,163.666016 L142.510254,163.666016 L140.898926,168.5 L135.758789,168.5 L144.492188,145.039062 L148.97168,145.039062 L157.753418,168.5 L152.613281,168.5 L150.98584,163.666016 Z M143.81543,159.750488 L149.680664,159.750488 L146.731934,150.96875 L143.81543,159.750488 Z M179.022949,168.5 L174.188965,168.5 L164.778809,153.063477 L164.778809,168.5 L159.944824,168.5 L159.944824,145.039062 L164.778809,145.039062 L174.205078,160.507812 L174.205078,145.039062 L179.022949,145.039062 L179.022949,168.5 Z M191.333496,155.609375 L196.21582,145.039062 L201.500977,145.039062 L193.798828,159.992188 L193.798828,168.5 L188.884277,168.5 L188.884277,159.992188 L181.182129,145.039062 L186.483398,145.039062 L191.333496,155.609375 Z M221.304199,148.95459 L214.117676,148.95459 L214.117676,168.5 L209.283691,168.5 L209.283691,148.95459 L202.193848,148.95459 L202.193848,145.039062 L221.304199,145.039062 L221.304199,148.95459 Z M243.153809,168.5 L238.319824,168.5 L238.319824,158.445312 L228.893555,158.445312 L228.893555,168.5 L224.05957,168.5 L224.05957,145.039062 L228.893555,145.039062 L228.893555,154.545898 L238.319824,154.545898 L238.319824,145.039062 L243.153809,145.039062 L243.153809,168.5 Z M252.515625,168.5 L247.681641,168.5 L247.681641,145.039062 L252.515625,145.039062 L252.515625,168.5 Z M276.073242,168.5 L271.239258,168.5 L261.829102,153.063477 L261.829102,168.5 L256.995117,168.5 L256.995117,145.039062 L261.829102,145.039062 L271.255371,160.507812 L271.255371,145.039062 L276.073242,145.039062 L276.073242,168.5 Z M298.857422,165.535156 C297.9873,166.577154 296.757332,167.385495 295.16748,167.960205 C293.577629,168.534915 291.815928,168.822266 289.882324,168.822266 C287.852041,168.822266 286.071541,168.379155 284.540771,167.49292 C283.010002,166.606685 281.828373,165.320321 280.99585,163.633789 C280.163326,161.947257 279.736328,159.965343 279.714844,157.687988 L279.714844,156.092773 C279.714844,153.750965 280.109615,151.723397 280.89917,150.01001 C281.688725,148.296622 282.827385,146.986089 284.315186,146.078369 C285.802986,145.17065 287.545888,144.716797 289.543945,144.716797 C292.326186,144.716797 294.501457,145.38012 296.069824,146.706787 C297.638191,148.033454 298.567381,149.964343 298.857422,152.499512 L294.152344,152.499512 C293.937499,151.156732 293.462162,150.173831 292.726318,149.550781 C291.990475,148.927731 290.978034,148.616211 289.688965,148.616211 C288.045402,148.616211 286.79395,149.233881 285.93457,150.469238 C285.075191,151.704596 284.640137,153.541492 284.629395,155.97998 L284.629395,157.478516 C284.629395,159.938489 285.096675,161.796869 286.03125,163.053711 C286.965825,164.310553 288.33544,164.938965 290.140137,164.938965 C291.955575,164.938965 293.249996,164.55225 294.023438,163.778809 L294.023438,159.734375 L289.624512,159.734375 L289.624512,156.17334 L298.857422,156.17334 L298.857422,165.535156 Z M319.07959,155.609375 L323.961914,145.039062 L329.24707,145.039062 L321.544922,159.992188 L321.544922,168.5 L316.630371,168.5 L316.630371,159.992188 L308.928223,145.039062 L314.229492,145.039062 L319.07959,155.609375 Z M350.661621,157.30127 C350.661621,159.610851 350.253422,161.635733 349.437012,163.375977 C348.620601,165.11622 347.4524,166.45898 345.932373,167.404297 C344.412346,168.349614 342.669443,168.822266 340.703613,168.822266 C338.759268,168.822266 337.024422,168.354985 335.499023,167.42041 C333.973625,166.485835 332.791996,165.151132 331.954102,163.41626 C331.116207,161.681388 330.691895,159.686046 330.681152,157.430176 L330.681152,156.27002 C330.681152,153.960438 331.097408,151.927499 331.929932,150.171143 C332.762455,148.414786 333.938713,147.066655 335.45874,146.126709 C336.978767,145.186763 338.716299,144.716797 340.671387,144.716797 C342.626475,144.716797 344.364006,145.186763 345.884033,146.126709 C347.40406,147.066655 348.580318,148.414786 349.412842,150.171143 C350.245365,151.927499 350.661621,153.955067 350.661621,156.253906 L350.661621,157.30127 Z M345.763184,156.237793 C345.763184,153.77782 345.322758,151.908698 344.441895,150.630371 C343.561031,149.352044 342.304207,148.712891 340.671387,148.712891 C339.049308,148.712891 337.797856,149.343988 336.916992,150.606201 C336.036128,151.868415 335.590332,153.718738 335.57959,156.157227 L335.57959,157.30127 C335.57959,159.696789 336.020015,161.555169 336.900879,162.876465 C337.781743,164.197761 339.049308,164.858398 340.703613,164.858398 C342.325692,164.858398 343.571773,164.22193 344.441895,162.948975 C345.312016,161.676019 345.752441,159.820325 345.763184,157.381836 L345.763184,156.237793 Z M371.931152,145.039062 L371.931152,160.491699 C371.931152,163.059095 371.128182,165.089348 369.522217,166.58252 C367.916252,168.075691 365.722182,168.822266 362.939941,168.822266 C360.20067,168.822266 358.025399,168.097175 356.414062,166.646973 C354.802726,165.19677 353.980957,163.204114 353.94873,160.668945 L353.94873,145.039062 L358.782715,145.039062 L358.782715,160.523926 C358.782715,162.060066 359.150631,163.179928 359.886475,163.883545 C360.622318,164.587162 361.64013,164.938965 362.939941,164.938965 C365.657728,164.938965 367.038086,163.510268 367.081055,160.652832 L367.081055,145.039062 L371.931152,145.039062 Z M402.385254,161.732422 L405.543457,145.039062 L410.361328,145.039062 L405.156738,168.5 L400.290527,168.5 L396.47168,152.805664 L392.652832,168.5 L387.786621,168.5 L382.582031,145.039062 L387.399902,145.039062 L390.574219,161.700195 L394.441406,145.039062 L398.53418,145.039062 L402.385254,161.732422 Z M426.216797,163.666016 L417.741211,163.666016 L416.129883,168.5 L410.989746,168.5 L419.723145,145.039062 L424.202637,145.039062 L432.984375,168.5 L427.844238,168.5 L426.216797,163.666016 Z M419.046387,159.750488 L424.911621,159.750488 L421.962891,150.96875 L419.046387,159.750488 Z M454.253906,168.5 L449.419922,168.5 L440.009766,153.063477 L440.009766,168.5 L435.175781,168.5 L435.175781,145.039062 L440.009766,145.039062 L449.436035,160.507812 L449.436035,145.039062 L454.253906,145.039062 L454.253906,168.5 Z M476.135742,148.95459 L468.949219,148.95459 L468.949219,168.5 L464.115234,168.5 L464.115234,148.95459 L457.025391,148.95459 L457.025391,145.039062 L476.135742,145.039062 L476.135742,148.95459 Z" id="TABSAREAUTO-NAMED!TAPTOEDITTHENAMETOANYTHINGYOUWANT!" fill="#000000" fill-rule="nonzero"></path>
    </g>
</svg>