<?xml version="1.0" encoding="UTF-8"?>
<svg width="570px" height="792px" viewBox="0 0 570 792" version="1.1" xmlns="http://www.w3.org/2000/svg" xmlns:xlink="http://www.w3.org/1999/xlink">
    <!-- Generator: Sketch 54.1 (76490) - https://sketchapp.com -->
    <title>4_create_en</title>
    <desc>Created with Sketch.</desc>
    <g id="4_create_en" stroke="none" stroke-width="1" fill="none" fill-rule="evenodd">
        <rect fill="#00B0FF" x="0" y="0" width="570" height="792"></rect>
        <g id="Group-3" transform="translate(12.000000, 225.000000)">
            <rect id="Rectangle" fill="#0B0C24" x="0" y="0" width="547" height="547" rx="13"></rect>
            <path d="M12,286 L189,286 L189,388 L25,388 C17.8202983,388 12,382.179702 12,375 L12,286 Z" id="Rectangle" fill="#0098CE"></path>
            <path d="M355,286 L532,286 L532,388 L368,388 C360.820298,388 355,382.179702 355,375 L355,286 Z" id="Rectangle" fill="#0098CE" transform="translate(443.500000, 337.000000) scale(-1, 1) translate(-443.500000, -337.000000) "></path>
            <rect id="Rectangle" stroke="#979797" fill="#FFFFFF" x="12.5" y="400.5" width="519" height="64"></rect>
            <path d="M12,465 L532,465 L532,519 C532,525.075132 527.075132,530 521,530 L23,530 C16.9248678,530 12,525.075132 12,519 L12,465 Z" id="Rectangle" fill="#0098CE"></path>
            <text id="ADD-ITEM" font-family="Lato-Bold, Lato" font-size="40" font-weight="bold" fill="#FFFFFF">
                <tspan x="180" y="508">ADD ITEM</tspan>
            </text>
            <text id="-$0.00" font-family="Roboto-Bold, Roboto" font-size="30" font-weight="bold" fill="#FF0088">
                <tspan x="423.805664" y="243">-$0.00</tspan>
            </text>
            <text id="Discount:" font-family="Roboto-Bold, Roboto" font-size="30" font-weight="bold" fill="#00E7FF">
                <tspan x="403.324219" y="189">Discount:</tspan>
            </text>
            <text id="Sub:-Tax:-Tip:" font-family="Roboto-Bold, Roboto" font-size="30" font-weight="bold" fill="#00E7FF">
                <tspan x="21.4140625" y="189">Sub:</tspan>
                <tspan x="23.6259766" y="224">Tax:</tspan>
                <tspan x="30.1298828" y="259">Tip:</tspan>
            </text>
            <text id="$0.00" font-family="Lato-Bold, Lato" font-size="40" font-weight="bold" fill="#659B00">
                <tspan x="411.7" y="446">$0.00</tspan>
            </text>
            <text id="CUSTOMER-1" font-family="Roboto-Bold, Roboto" font-size="40" font-weight="bold" fill="#FFFFFF">
                <tspan x="34.2851562" y="76">CUSTOMER 1</tspan>
            </text>
            <rect id="Rectangle" stroke-opacity="0.329200634" stroke="#00C9FE" stroke-width="3" x="21.5" y="28.5" width="269" height="67" rx="6"></rect>
            <rect id="Rectangle" stroke-opacity="0.329200634" stroke="#00C9FE" stroke-width="3" x="405.5" y="210.5" width="125" height="47" rx="6"></rect>
            <text id="$0.00" font-family="Lato-Bold, Lato" font-size="60" font-weight="bold" fill="#FFFFFF">
                <tspan x="188.55" y="256">$0.00</tspan>
            </text>
            <text id="OPEN" font-family="Roboto-Bold, Roboto" font-size="40" font-weight="bold" fill="#FFFFFF">
                <tspan x="424.419922" y="141">OPEN</tspan>
            </text>
            <text id="SERVER-MINS-TIME" font-family="Roboto-Bold, Roboto" font-size="40" font-weight="bold" fill="#FFFFFF">
                <tspan x="24" y="141">SERVER MINS TIME</tspan>
            </text>
            <rect id="Rectangle" fill="#ADFB5F" x="449" y="39" width="82" height="50" rx="3"></rect>
            <ellipse id="Oval" fill="#FFFFFF" cx="491" cy="64" rx="18" ry="19"></ellipse>
            <text id="$" font-family="Roboto-Bold, Roboto" font-size="30" font-weight="bold" fill="#509209">
                <tspan x="482.394043" y="75">$</tspan>
            </text>
            <text id="Custom-Item-1" font-family="Lato-Bold, Lato" font-size="40" font-weight="bold" fill="#949494">
                <tspan x="26.8" y="445">Custom Item 1</tspan>
            </text>
            <rect id="Rectangle" fill="#98CE00" x="189" y="286" width="166" height="102"></rect>
            <text id="AUTH" font-family="Roboto-Black, Roboto" font-size="35" font-weight="700" fill="#080B26">
                <tspan x="54" y="350">AUTH</tspan>
            </text>
            <text id="PAY" font-family="Roboto-Black, Roboto" font-size="35" font-weight="700" fill="#080B26">
                <tspan x="238" y="350">PAY</tspan>
            </text>
            <text id="CATALOG" font-family="Roboto-Black, Roboto" font-size="35" font-weight="700" fill="#080B26">
                <tspan x="364" y="349">CATALOG</tspan>
            </text>
        </g>
        <rect id="Rectangle" fill="#FFFFFF" x="61" y="47" width="449" height="151" rx="12"></rect>
        <path id="Line-2" d="M460.985,214.233798 L460.985,175.5 L468.985,175.5 L468.985,214.233798 L486.985,214.233798 L464.985,258.233798 L442.985,214.233798 L460.985,214.233798 Z" fill="#FFFFFF" fill-rule="nonzero"></path>
        <polygon id="Path-2" fill="#000000" opacity="0.825497582" points="24 251.315385 24 764 544 764 544 382 419 382 419 252 319 252 319 251.315385"></polygon>
        <path d="M135.992432,75.4545898 L128.805908,75.4545898 L128.805908,95 L123.971924,95 L123.971924,75.4545898 L116.88208,75.4545898 L116.88208,71.5390625 L135.992432,71.5390625 L135.992432,75.4545898 Z M157.842041,95 L153.008057,95 L153.008057,84.9453125 L143.581787,84.9453125 L143.581787,95 L138.747803,95 L138.747803,71.5390625 L143.581787,71.5390625 L143.581787,81.0458984 L153.008057,81.0458984 L153.008057,71.5390625 L157.842041,71.5390625 L157.842041,95 Z M167.203857,95 L162.369873,95 L162.369873,71.5390625 L167.203857,71.5390625 L167.203857,95 Z M183.848877,88.8447266 C183.848877,87.9316361 183.526615,87.2307153 182.88208,86.7419434 C182.237546,86.2531714 181.077401,85.7375515 179.401611,85.1950684 C177.725822,84.6525852 176.399175,84.1181667 175.421631,83.5917969 C172.757555,82.1523366 171.425537,80.2133911 171.425537,77.7749023 C171.425537,76.5073179 171.782711,75.376714 172.49707,74.3830566 C173.211429,73.3893993 174.237298,72.613284 175.574707,72.0546875 C176.912116,71.496091 178.413322,71.2167969 180.078369,71.2167969 C181.754159,71.2167969 183.247308,71.5202606 184.557861,72.1271973 C185.868415,72.7341339 186.886227,73.5908148 187.611328,74.6972656 C188.336429,75.8037165 188.698975,77.0605398 188.698975,78.4677734 L183.86499,78.4677734 C183.86499,77.3935493 183.526615,76.5583526 182.849854,75.9621582 C182.173092,75.3659638 181.222418,75.0678711 179.997803,75.0678711 C178.816156,75.0678711 177.897708,75.3176245 177.242432,75.8171387 C176.587155,76.3166529 176.259521,76.9746053 176.259521,77.7910156 C176.259521,78.5537148 176.643551,79.1928685 177.411621,79.7084961 C178.179691,80.2241237 179.310295,80.7075173 180.803467,81.1586914 C183.553481,81.985844 185.556878,83.0117126 186.813721,84.2363281 C188.070563,85.4609436 188.698975,86.986319 188.698975,88.8125 C188.698975,90.8427836 187.930916,92.435297 186.394775,93.5900879 C184.858635,94.7448788 182.790784,95.3222656 180.191162,95.3222656 C178.386466,95.3222656 176.742927,94.9919467 175.260498,94.3312988 C173.778069,93.670651 172.647465,92.7656307 171.868652,91.6162109 C171.08984,90.4667911 170.700439,89.1347732 170.700439,87.6201172 L175.550537,87.6201172 C175.550537,90.2089973 177.097397,91.503418 180.191162,91.503418 C181.340582,91.503418 182.237546,91.2697777 182.88208,90.8024902 C183.526615,90.3352027 183.848877,89.6826214 183.848877,88.8447266 Z M206.50415,71.5390625 L212.530518,88.5546875 L218.524658,71.5390625 L224.873291,71.5390625 L224.873291,95 L220.023193,95 L220.023193,88.5869141 L220.506592,77.5170898 L214.174072,95 L210.854736,95 L204.53833,77.5332031 L205.021729,88.5869141 L205.021729,95 L200.187744,95 L200.187744,71.5390625 L206.50415,71.5390625 Z M243.210205,84.8325195 L233.928955,84.8325195 L233.928955,91.1166992 L244.821533,91.1166992 L244.821533,95 L229.094971,95 L229.094971,71.5390625 L244.789307,71.5390625 L244.789307,75.4545898 L233.928955,75.4545898 L233.928955,81.0458984 L243.210205,81.0458984 L243.210205,84.8325195 Z M260.902588,90.1660156 L252.427002,90.1660156 L250.815674,95 L245.675537,95 L254.408936,71.5390625 L258.888428,71.5390625 L267.670166,95 L262.530029,95 L260.902588,90.1660156 Z M253.732178,86.2504883 L259.597412,86.2504883 L256.648682,77.46875 L253.732178,86.2504883 Z M288.939697,95 L284.105713,95 L274.695557,79.5634766 L274.695557,95 L269.861572,95 L269.861572,71.5390625 L274.695557,71.5390625 L284.121826,87.0078125 L284.121826,71.5390625 L288.939697,71.5390625 L288.939697,95 Z M305.326904,88.8447266 C305.326904,87.9316361 305.004642,87.2307153 304.360107,86.7419434 C303.715573,86.2531714 302.555428,85.7375515 300.879639,85.1950684 C299.203849,84.6525852 297.877202,84.1181667 296.899658,83.5917969 C294.235582,82.1523366 292.903564,80.2133911 292.903564,77.7749023 C292.903564,76.5073179 293.260739,75.376714 293.975098,74.3830566 C294.689457,73.3893993 295.715325,72.613284 297.052734,72.0546875 C298.390143,71.496091 299.891349,71.2167969 301.556396,71.2167969 C303.232186,71.2167969 304.725335,71.5202606 306.035889,72.1271973 C307.346442,72.7341339 308.364254,73.5908148 309.089355,74.6972656 C309.814457,75.8037165 310.177002,77.0605398 310.177002,78.4677734 L305.343018,78.4677734 C305.343018,77.3935493 305.004642,76.5583526 304.327881,75.9621582 C303.65112,75.3659638 302.700446,75.0678711 301.47583,75.0678711 C300.294184,75.0678711 299.375736,75.3176245 298.720459,75.8171387 C298.065182,76.3166529 297.737549,76.9746053 297.737549,77.7910156 C297.737549,78.5537148 298.121578,79.1928685 298.889648,79.7084961 C299.657719,80.2241237 300.788323,80.7075173 302.281494,81.1586914 C305.031508,81.985844 307.034906,83.0117126 308.291748,84.2363281 C309.54859,85.4609436 310.177002,86.986319 310.177002,88.8125 C310.177002,90.8427836 309.408943,92.435297 307.872803,93.5900879 C306.336662,94.7448788 304.268812,95.3222656 301.669189,95.3222656 C299.864493,95.3222656 298.220955,94.9919467 296.738525,94.3312988 C295.256096,93.670651 294.125492,92.7656307 293.34668,91.6162109 C292.567867,90.4667911 292.178467,89.1347732 292.178467,87.6201172 L297.028564,87.6201172 C297.028564,90.2089973 298.575424,91.503418 301.669189,91.503418 C302.818609,91.503418 303.715573,91.2697777 304.360107,90.8024902 C305.004642,90.3352027 305.326904,89.6826214 305.326904,88.8447266 Z M339.325928,75.4545898 L332.139404,75.4545898 L332.139404,95 L327.30542,95 L327.30542,75.4545898 L320.215576,75.4545898 L320.215576,71.5390625 L339.325928,71.5390625 L339.325928,75.4545898 Z M361.175537,95 L356.341553,95 L356.341553,84.9453125 L346.915283,84.9453125 L346.915283,95 L342.081299,95 L342.081299,71.5390625 L346.915283,71.5390625 L346.915283,81.0458984 L356.341553,81.0458984 L356.341553,71.5390625 L361.175537,71.5390625 L361.175537,95 Z M379.512451,84.8325195 L370.231201,84.8325195 L370.231201,91.1166992 L381.123779,91.1166992 L381.123779,95 L365.397217,95 L365.397217,71.5390625 L381.091553,71.5390625 L381.091553,75.4545898 L370.231201,75.4545898 L370.231201,81.0458984 L379.512451,81.0458984 L379.512451,84.8325195 Z M409.837646,75.4545898 L402.651123,75.4545898 L402.651123,95 L397.817139,95 L397.817139,75.4545898 L390.727295,75.4545898 L390.727295,71.5390625 L409.837646,71.5390625 L409.837646,75.4545898 Z M425.838135,90.1660156 L417.362549,90.1660156 L415.751221,95 L410.611084,95 L419.344482,71.5390625 L423.823975,71.5390625 L432.605713,95 L427.465576,95 L425.838135,90.1660156 Z M418.667725,86.2504883 L424.532959,86.2504883 L421.584229,77.46875 L418.667725,86.2504883 Z M434.797119,95 L434.797119,71.5390625 L443.014893,71.5390625 C445.861586,71.5390625 448.020745,72.0842231 449.492432,73.1745605 C450.964119,74.264898 451.699951,75.8627824 451.699951,77.9682617 C451.699951,79.1176815 451.404544,80.1301226 450.813721,81.0056152 C450.222897,81.8811079 449.401128,82.5229472 448.348389,82.9311523 C449.55152,83.2319351 450.499508,83.8388626 451.192383,84.7519531 C451.885257,85.6650436 452.231689,86.78222 452.231689,88.1035156 C452.231689,90.3593863 451.51197,92.067377 450.07251,93.2275391 C448.633049,94.3877011 446.581312,94.9785155 443.917236,95 L434.797119,95 Z M439.631104,84.7841797 L439.631104,91.1166992 L443.772217,91.1166992 C444.910894,91.1166992 445.799801,90.8454617 446.438965,90.3029785 C447.078128,89.7604953 447.397705,89.0112352 447.397705,88.0551758 C447.397705,85.9067275 446.2859,84.8164064 444.062256,84.7841797 L439.631104,84.7841797 Z M439.631104,81.3681641 L443.208252,81.3681641 C445.646741,81.3251951 446.865967,80.3530369 446.865967,78.4516602 C446.865967,77.3881783 446.557132,76.6228051 445.939453,76.1555176 C445.321774,75.6882301 444.34693,75.4545898 443.014893,75.4545898 L439.631104,75.4545898 L439.631104,81.3681641 Z M136.201904,134 L131.36792,134 L131.36792,110.539062 L136.201904,110.539062 L136.201904,134 Z M152.846924,127.844727 C152.846924,126.931636 152.524661,126.230715 151.880127,125.741943 C151.235592,125.253171 150.075448,124.737552 148.399658,124.195068 C146.723869,123.652585 145.397222,123.118167 144.419678,122.591797 C141.755602,121.152337 140.423584,119.213391 140.423584,116.774902 C140.423584,115.507318 140.780758,114.376714 141.495117,113.383057 C142.209476,112.389399 143.235345,111.613284 144.572754,111.054688 C145.910163,110.496091 147.411369,110.216797 149.076416,110.216797 C150.752206,110.216797 152.245355,110.520261 153.555908,111.127197 C154.866462,111.734134 155.884274,112.590815 156.609375,113.697266 C157.334476,114.803716 157.697021,116.06054 157.697021,117.467773 L152.863037,117.467773 C152.863037,116.393549 152.524662,115.558353 151.8479,114.962158 C151.171139,114.365964 150.220465,114.067871 148.99585,114.067871 C147.814203,114.067871 146.895755,114.317624 146.240479,114.817139 C145.585202,115.316653 145.257568,115.974605 145.257568,116.791016 C145.257568,117.553715 145.641598,118.192869 146.409668,118.708496 C147.177738,119.224124 148.308342,119.707517 149.801514,120.158691 C152.551527,120.985844 154.554925,122.011713 155.811768,123.236328 C157.06861,124.460944 157.697021,125.986319 157.697021,127.8125 C157.697021,129.842784 156.928963,131.435297 155.392822,132.590088 C153.856682,133.744879 151.788831,134.322266 149.189209,134.322266 C147.384512,134.322266 145.740974,133.991947 144.258545,133.331299 C142.776116,132.670651 141.645512,131.765631 140.866699,130.616211 C140.087887,129.466791 139.698486,128.134773 139.698486,126.620117 L144.548584,126.620117 C144.548584,129.208997 146.095444,130.503418 149.189209,130.503418 C150.338629,130.503418 151.235592,130.269778 151.880127,129.80249 C152.524661,129.335203 152.846924,128.682621 152.846924,127.844727 Z M188.457275,122.80127 C188.457275,125.110851 188.049076,127.135733 187.232666,128.875977 C186.416256,130.61622 185.248054,131.95898 183.728027,132.904297 C182.208,133.849614 180.465098,134.322266 178.499268,134.322266 C176.554922,134.322266 174.820076,133.854985 173.294678,132.92041 C171.769279,131.985835 170.587651,130.651132 169.749756,128.91626 C168.911861,127.181388 168.487549,125.186046 168.476807,122.930176 L168.476807,121.77002 C168.476807,119.460438 168.893062,117.427499 169.725586,115.671143 C170.55811,113.914786 171.734367,112.566655 173.254395,111.626709 C174.774422,110.686763 176.511953,110.216797 178.467041,110.216797 C180.422129,110.216797 182.15966,110.686763 183.679688,111.626709 C185.199715,112.566655 186.375972,113.914786 187.208496,115.671143 C188.04102,117.427499 188.457275,119.455067 188.457275,121.753906 L188.457275,122.80127 Z M183.558838,121.737793 C183.558838,119.27782 183.118413,117.408698 182.237549,116.130371 C181.356685,114.852044 180.099862,114.212891 178.467041,114.212891 C176.844963,114.212891 175.59351,114.843988 174.712646,116.106201 C173.831783,117.368415 173.385986,119.218738 173.375244,121.657227 L173.375244,122.80127 C173.375244,125.196789 173.815669,127.055169 174.696533,128.376465 C175.577397,129.697761 176.844962,130.358398 178.499268,130.358398 C180.121346,130.358398 181.367427,129.72193 182.237549,128.448975 C183.10767,127.176019 183.548096,125.320325 183.558838,122.881836 L183.558838,121.737793 Z M196.803955,125.733887 L196.803955,134 L191.969971,134 L191.969971,110.539062 L201.122314,110.539062 C202.884042,110.539062 204.433587,110.861325 205.770996,111.505859 C207.108405,112.150394 208.136959,113.066156 208.856689,114.253174 C209.57642,115.440191 209.936279,116.791008 209.936279,118.305664 C209.936279,120.604504 209.149422,122.41723 207.575684,123.743896 C206.001945,125.070563 203.823989,125.733887 201.041748,125.733887 L196.803955,125.733887 Z M196.803955,121.818359 L201.122314,121.818359 C202.400641,121.818359 203.375485,121.517581 204.046875,120.916016 C204.718265,120.31445 205.053955,119.455084 205.053955,118.337891 C205.053955,117.188471 204.71558,116.259281 204.038818,115.550293 C203.362057,114.841305 202.427496,114.476074 201.235107,114.45459 L196.803955,114.45459 L196.803955,121.818359 Z M227.37085,123.83252 L218.0896,123.83252 L218.0896,130.116699 L228.982178,130.116699 L228.982178,134 L213.255615,134 L213.255615,110.539062 L228.949951,110.539062 L228.949951,114.45459 L218.0896,114.45459 L218.0896,120.045898 L227.37085,120.045898 L227.37085,123.83252 Z M250.89624,134 L246.062256,134 L236.6521,118.563477 L236.6521,134 L231.818115,134 L231.818115,110.539062 L236.6521,110.539062 L246.078369,126.007812 L246.078369,110.539062 L250.89624,110.539062 L250.89624,134 Z M276.580811,129.166016 L268.105225,129.166016 L266.493896,134 L261.35376,134 L270.087158,110.539062 L274.56665,110.539062 L283.348389,134 L278.208252,134 L276.580811,129.166016 Z M269.4104,125.250488 L275.275635,125.250488 L272.326904,116.46875 L269.4104,125.250488 Z M304.61792,134 L299.783936,134 L290.373779,118.563477 L290.373779,134 L285.539795,134 L285.539795,110.539062 L290.373779,110.539062 L299.800049,126.007812 L299.800049,110.539062 L304.61792,110.539062 L304.61792,134 Z M308.8396,134 L308.8396,110.539062 L316.05835,110.539062 C318.12086,110.539062 319.965812,111.003657 321.593262,111.932861 C323.220711,112.862065 324.490962,114.183341 325.404053,115.896729 C326.317143,117.610116 326.773682,119.557118 326.773682,121.737793 L326.773682,122.817383 C326.773682,124.998058 326.3252,126.937003 325.428223,128.634277 C324.531246,130.331551 323.266366,131.647456 321.633545,132.582031 C320.000724,133.516606 318.158458,133.989258 316.106689,134 L308.8396,134 Z M313.673584,114.45459 L313.673584,130.116699 L316.01001,130.116699 C317.900644,130.116699 319.345454,129.49903 320.344482,128.263672 C321.343511,127.028314 321.85376,125.261242 321.875244,122.962402 L321.875244,121.72168 C321.875244,119.336902 321.381108,117.529547 320.392822,116.299561 C319.404536,115.069574 317.959726,114.45459 316.05835,114.45459 L313.673584,114.45459 Z M343.644287,134 L338.810303,134 L338.810303,110.539062 L343.644287,110.539062 L343.644287,134 Z M360.289307,127.844727 C360.289307,126.931636 359.967044,126.230715 359.32251,125.741943 C358.677975,125.253171 357.517831,124.737552 355.842041,124.195068 C354.166251,123.652585 352.839604,123.118167 351.862061,122.591797 C349.197985,121.152337 347.865967,119.213391 347.865967,116.774902 C347.865967,115.507318 348.223141,114.376714 348.9375,113.383057 C349.651859,112.389399 350.677728,111.613284 352.015137,111.054688 C353.352546,110.496091 354.853751,110.216797 356.518799,110.216797 C358.194588,110.216797 359.687738,110.520261 360.998291,111.127197 C362.308844,111.734134 363.326657,112.590815 364.051758,113.697266 C364.776859,114.803716 365.139404,116.06054 365.139404,117.467773 L360.30542,117.467773 C360.30542,116.393549 359.967044,115.558353 359.290283,114.962158 C358.613522,114.365964 357.662848,114.067871 356.438232,114.067871 C355.256586,114.067871 354.338138,114.317624 353.682861,114.817139 C353.027585,115.316653 352.699951,115.974605 352.699951,116.791016 C352.699951,117.553715 353.083981,118.192869 353.852051,118.708496 C354.620121,119.224124 355.750725,119.707517 357.243896,120.158691 C359.99391,120.985844 361.997308,122.011713 363.25415,123.236328 C364.510993,124.460944 365.139404,125.986319 365.139404,127.8125 C365.139404,129.842784 364.371346,131.435297 362.835205,132.590088 C361.299065,133.744879 359.231214,134.322266 356.631592,134.322266 C354.826895,134.322266 353.183357,133.991947 351.700928,133.331299 C350.218498,132.670651 349.087895,131.765631 348.309082,130.616211 C347.53027,129.466791 347.140869,128.134773 347.140869,126.620117 L351.990967,126.620117 C351.990967,129.208997 353.537826,130.503418 356.631592,130.503418 C357.781012,130.503418 358.677975,130.269778 359.32251,129.80249 C359.967044,129.335203 360.289307,128.682621 360.289307,127.844727 Z M395.706299,134 L390.872314,134 L381.462158,118.563477 L381.462158,134 L376.628174,134 L376.628174,110.539062 L381.462158,110.539062 L390.888428,126.007812 L390.888428,110.539062 L395.706299,110.539062 L395.706299,134 Z M419.199463,122.80127 C419.199463,125.110851 418.791264,127.135733 417.974854,128.875977 C417.158443,130.61622 415.990242,131.95898 414.470215,132.904297 C412.950188,133.849614 411.207285,134.322266 409.241455,134.322266 C407.297109,134.322266 405.562263,133.854985 404.036865,132.92041 C402.511467,131.985835 401.329838,130.651132 400.491943,128.91626 C399.654049,127.181388 399.229736,125.186046 399.218994,122.930176 L399.218994,121.77002 C399.218994,119.460438 399.63525,117.427499 400.467773,115.671143 C401.300297,113.914786 402.476555,112.566655 403.996582,111.626709 C405.516609,110.686763 407.254141,110.216797 409.209229,110.216797 C411.164316,110.216797 412.901848,110.686763 414.421875,111.626709 C415.941902,112.566655 417.11816,113.914786 417.950684,115.671143 C418.783207,117.427499 419.199463,119.455067 419.199463,121.753906 L419.199463,122.80127 Z M414.301025,121.737793 C414.301025,119.27782 413.8606,117.408698 412.979736,116.130371 C412.098873,114.852044 410.842049,114.212891 409.209229,114.212891 C407.58715,114.212891 406.335698,114.843988 405.454834,116.106201 C404.57397,117.368415 404.128174,119.218738 404.117432,121.657227 L404.117432,122.80127 C404.117432,125.196789 404.557857,127.055169 405.438721,128.376465 C406.319584,129.697761 407.58715,130.358398 409.241455,130.358398 C410.863534,130.358398 412.109615,129.72193 412.979736,128.448975 C413.849858,127.176019 414.290283,125.320325 414.301025,122.881836 L414.301025,121.737793 Z M440.372314,114.45459 L433.185791,114.45459 L433.185791,134 L428.351807,134 L428.351807,114.45459 L421.261963,114.45459 L421.261963,110.539062 L440.372314,110.539062 L440.372314,114.45459 Z M107.850586,165.185059 C107.667968,167.709485 106.736092,169.69677 105.054932,171.146973 C103.373771,172.597175 101.158217,173.322266 98.4082031,173.322266 C95.4003756,173.322266 93.0344324,172.309825 91.3103027,170.284912 C89.586173,168.26 88.7241211,165.480486 88.7241211,161.946289 L88.7241211,160.512207 C88.7241211,158.256336 89.1215781,156.269052 89.9165039,154.550293 C90.7114298,152.831534 91.8474047,151.512944 93.3244629,150.594482 C94.8015211,149.676021 96.5175683,149.216797 98.4726562,149.216797 C101.179701,149.216797 103.360343,149.941887 105.014648,151.39209 C106.668954,152.842292 107.624999,154.877917 107.882812,157.499023 L103.048828,157.499023 C102.930663,155.984367 102.509037,154.88599 101.783936,154.203857 C101.058834,153.521725 99.9550855,153.180664 98.4726562,153.180664 C96.8613201,153.180664 95.6555216,153.758051 94.8552246,154.912842 C94.0549276,156.067633 93.6440431,157.858875 93.6225586,160.286621 L93.6225586,162.059082 C93.6225586,164.594251 94.006588,166.44726 94.7746582,167.618164 C95.5427284,168.789068 96.753898,169.374512 98.4082031,169.374512 C99.9013747,169.374512 101.015865,169.033451 101.751709,168.351318 C102.487553,167.669186 102.909179,166.613777 103.016602,165.185059 L107.850586,165.185059 Z M128.781738,149.539062 L128.781738,164.991699 C128.781738,167.559095 127.978768,169.589348 126.372803,171.08252 C124.766838,172.575691 122.572768,173.322266 119.790527,173.322266 C117.051256,173.322266 114.875985,172.597175 113.264648,171.146973 C111.653312,169.69677 110.831543,167.704114 110.799316,165.168945 L110.799316,149.539062 L115.633301,149.539062 L115.633301,165.023926 C115.633301,166.560066 116.001217,167.679928 116.737061,168.383545 C117.472904,169.087162 118.490716,169.438965 119.790527,169.438965 C122.508314,169.438965 123.888672,168.010268 123.931641,165.152832 L123.931641,149.539062 L128.781738,149.539062 Z M141.430664,164.411621 L137.57959,164.411621 L137.57959,173 L132.745605,173 L132.745605,149.539062 L141.462891,149.539062 C144.234389,149.539062 146.372063,150.156732 147.875977,151.39209 C149.37989,152.627448 150.131836,154.373036 150.131836,156.628906 C150.131836,158.2295 149.785404,159.564204 149.092529,160.633057 C148.399655,161.70191 147.349616,162.553219 145.942383,163.187012 L151.018066,172.774414 L151.018066,173 L145.82959,173 L141.430664,164.411621 Z M137.57959,160.496094 L141.479004,160.496094 C142.692877,160.496094 143.632809,160.187259 144.298828,159.56958 C144.964847,158.951901 145.297852,158.100591 145.297852,157.015625 C145.297852,155.909174 144.983646,155.039066 144.355225,154.405273 C143.726803,153.771481 142.762702,153.45459 141.462891,153.45459 L137.57959,153.45459 L137.57959,160.496094 Z M162.490723,164.411621 L158.639648,164.411621 L158.639648,173 L153.805664,173 L153.805664,149.539062 L162.522949,149.539062 C165.294447,149.539062 167.432121,150.156732 168.936035,151.39209 C170.439949,152.627448 171.191895,154.373036 171.191895,156.628906 C171.191895,158.2295 170.845462,159.564204 170.152588,160.633057 C169.459713,161.70191 168.409675,162.553219 167.002441,163.187012 L172.078125,172.774414 L172.078125,173 L166.889648,173 L162.490723,164.411621 Z M158.639648,160.496094 L162.539062,160.496094 C163.752936,160.496094 164.692868,160.187259 165.358887,159.56958 C166.024906,158.951901 166.35791,158.100591 166.35791,157.015625 C166.35791,155.909174 166.043704,155.039066 165.415283,154.405273 C164.786862,153.771481 163.82276,153.45459 162.522949,153.45459 L158.639648,153.45459 L158.639648,160.496094 Z M188.980957,162.83252 L179.699707,162.83252 L179.699707,169.116699 L190.592285,169.116699 L190.592285,173 L174.865723,173 L174.865723,149.539062 L190.560059,149.539062 L190.560059,153.45459 L179.699707,153.45459 L179.699707,159.045898 L188.980957,159.045898 L188.980957,162.83252 Z M212.506348,173 L207.672363,173 L198.262207,157.563477 L198.262207,173 L193.428223,173 L193.428223,149.539062 L198.262207,149.539062 L207.688477,165.007812 L207.688477,149.539062 L212.506348,149.539062 L212.506348,173 Z M234.388184,153.45459 L227.20166,153.45459 L227.20166,173 L222.367676,173 L222.367676,153.45459 L215.277832,153.45459 L215.277832,149.539062 L234.388184,149.539062 L234.388184,153.45459 Z M241.977539,169.116699 L252.241699,169.116699 L252.241699,173 L237.143555,173 L237.143555,149.539062 L241.977539,149.539062 L241.977539,169.116699 Z M263.102051,160.109375 L267.984375,149.539062 L273.269531,149.539062 L265.567383,164.492188 L265.567383,173 L260.652832,173 L260.652832,164.492188 L252.950684,149.539062 L258.251953,149.539062 L263.102051,160.109375 Z M296.875488,168.166016 L288.399902,168.166016 L286.788574,173 L281.648438,173 L290.381836,149.539062 L294.861328,149.539062 L303.643066,173 L298.50293,173 L296.875488,168.166016 Z M289.705078,164.250488 L295.570312,164.250488 L292.621582,155.46875 L289.705078,164.250488 Z M323.591309,149.539062 L323.591309,164.991699 C323.591309,167.559095 322.788338,169.589348 321.182373,171.08252 C319.576408,172.575691 317.382338,173.322266 314.600098,173.322266 C311.860826,173.322266 309.685555,172.597175 308.074219,171.146973 C306.462883,169.69677 305.641113,167.704114 305.608887,165.168945 L305.608887,149.539062 L310.442871,149.539062 L310.442871,165.023926 C310.442871,166.560066 310.810787,167.679928 311.546631,168.383545 C312.282474,169.087162 313.300286,169.438965 314.600098,169.438965 C317.317885,169.438965 318.698242,168.010268 318.741211,165.152832 L318.741211,149.539062 L323.591309,149.539062 Z M345.215332,153.45459 L338.028809,153.45459 L338.028809,173 L333.194824,173 L333.194824,153.45459 L326.10498,153.45459 L326.10498,149.539062 L345.215332,149.539062 L345.215332,153.45459 Z M367.064941,173 L362.230957,173 L362.230957,162.945312 L352.804688,162.945312 L352.804688,173 L347.970703,173 L347.970703,149.539062 L352.804688,149.539062 L352.804688,159.045898 L362.230957,159.045898 L362.230957,149.539062 L367.064941,149.539062 L367.064941,173 Z M390.558105,161.80127 C390.558105,164.110851 390.149906,166.135733 389.333496,167.875977 C388.517086,169.61622 387.348885,170.95898 385.828857,171.904297 C384.30883,172.849614 382.565928,173.322266 380.600098,173.322266 C378.655752,173.322266 376.920906,172.854985 375.395508,171.92041 C373.87011,170.985835 372.688481,169.651132 371.850586,167.91626 C371.012691,166.181388 370.588379,164.186046 370.577637,161.930176 L370.577637,160.77002 C370.577637,158.460438 370.993892,156.427499 371.826416,154.671143 C372.65894,152.914786 373.835197,151.566655 375.355225,150.626709 C376.875252,149.686763 378.612783,149.216797 380.567871,149.216797 C382.522959,149.216797 384.26049,149.686763 385.780518,150.626709 C387.300545,151.566655 388.476802,152.914786 389.309326,154.671143 C390.14185,156.427499 390.558105,158.455067 390.558105,160.753906 L390.558105,161.80127 Z M385.659668,160.737793 C385.659668,158.27782 385.219243,156.408698 384.338379,155.130371 C383.457515,153.852044 382.200692,153.212891 380.567871,153.212891 C378.945793,153.212891 377.69434,153.843988 376.813477,155.106201 C375.932613,156.368415 375.486816,158.218738 375.476074,160.657227 L375.476074,161.80127 C375.476074,164.196789 375.9165,166.055169 376.797363,167.376465 C377.678227,168.697761 378.945793,169.358398 380.600098,169.358398 C382.222176,169.358398 383.468257,168.72193 384.338379,167.448975 C385.2085,166.176019 385.648926,164.320325 385.659668,161.881836 L385.659668,160.737793 Z M402.755859,164.411621 L398.904785,164.411621 L398.904785,173 L394.070801,173 L394.070801,149.539062 L402.788086,149.539062 C405.559584,149.539062 407.697258,150.156732 409.201172,151.39209 C410.705086,152.627448 411.457031,154.373036 411.457031,156.628906 C411.457031,158.2295 411.110599,159.564204 410.417725,160.633057 C409.72485,161.70191 408.674812,162.553219 407.267578,163.187012 L412.343262,172.774414 L412.343262,173 L407.154785,173 L402.755859,164.411621 Z M398.904785,160.496094 L402.804199,160.496094 C404.018072,160.496094 404.958004,160.187259 405.624023,159.56958 C406.290042,158.951901 406.623047,158.100591 406.623047,157.015625 C406.623047,155.909174 406.308841,155.039066 405.68042,154.405273 C405.051999,153.771481 404.087897,153.45459 402.788086,153.45459 L398.904785,153.45459 L398.904785,160.496094 Z M420.270996,173 L415.437012,173 L415.437012,149.539062 L420.270996,149.539062 L420.270996,173 Z M429.874512,169.116699 L441.70166,169.116699 L441.70166,173 L423.832031,173 L423.832031,170.164062 L435.433594,153.45459 L423.848145,153.45459 L423.848145,149.539062 L441.443848,149.539062 L441.443848,152.310547 L429.874512,169.116699 Z M458.862305,162.83252 L449.581055,162.83252 L449.581055,169.116699 L460.473633,169.116699 L460.473633,173 L444.74707,173 L444.74707,149.539062 L460.441406,149.539062 L460.441406,153.45459 L449.581055,153.45459 L449.581055,159.045898 L458.862305,159.045898 L458.862305,162.83252 Z M463.30957,173 L463.30957,149.539062 L470.52832,149.539062 C472.590831,149.539062 474.435783,150.003657 476.063232,150.932861 C477.690682,151.862065 478.960933,153.183341 479.874023,154.896729 C480.787114,156.610116 481.243652,158.557118 481.243652,160.737793 L481.243652,161.817383 C481.243652,163.998058 480.795171,165.937003 479.898193,167.634277 C479.001216,169.331551 477.736336,170.647456 476.103516,171.582031 C474.470695,172.516606 472.628428,172.989258 470.57666,173 L463.30957,173 Z M468.143555,153.45459 L468.143555,169.116699 L470.47998,169.116699 C472.370615,169.116699 473.815425,168.49903 474.814453,167.263672 C475.813482,166.028314 476.32373,164.261242 476.345215,161.962402 L476.345215,160.72168 C476.345215,158.336902 475.851079,156.529547 474.862793,155.299561 C473.874507,154.069574 472.429697,153.45459 470.52832,153.45459 L468.143555,153.45459 Z" id="THISMEANSTHETABISOPENANDISNOTCURRENTLYAUTHORIZED" fill="#000000" fill-rule="nonzero"></path>
    </g>
</svg>