<?xml version="1.0" encoding="UTF-8"?>
<svg width="570px" height="792px" viewBox="0 0 570 792" version="1.1" xmlns="http://www.w3.org/2000/svg" xmlns:xlink="http://www.w3.org/1999/xlink">
    <!-- Generator: Sketch 54.1 (76490) - https://sketchapp.com -->
    <title>5_create_en</title>
    <desc>Created with Sketch.</desc>
    <g id="5_create_en" stroke="none" stroke-width="1" fill="none" fill-rule="evenodd">
        <rect fill="#00B0FF" x="0" y="0" width="570" height="792"></rect>
        <g id="Group-3" transform="translate(12.000000, 225.000000)">
            <rect id="Rectangle" fill="#0B0C24" x="0" y="0" width="547" height="547" rx="13"></rect>
            <path d="M12,286 L189,286 L189,388 L25,388 C17.8202983,388 12,382.179702 12,375 L12,286 Z" id="Rectangle" fill="#0098CE"></path>
            <path d="M355,286 L532,286 L532,388 L368,388 C360.820298,388 355,382.179702 355,375 L355,286 Z" id="Rectangle" fill="#0098CE" transform="translate(443.500000, 337.000000) scale(-1, 1) translate(-443.500000, -337.000000) "></path>
            <rect id="Rectangle" stroke="#979797" fill="#FFFFFF" x="12.5" y="400.5" width="519" height="64"></rect>
            <path d="M12,465 L532,465 L532,519 C532,525.075132 527.075132,530 521,530 L23,530 C16.9248678,530 12,525.075132 12,519 L12,465 Z" id="Rectangle" fill="#0098CE"></path>
            <text id="ADD-ITEM" font-family="Lato-Bold, Lato" font-size="40" font-weight="bold" fill="#FFFFFF">
                <tspan x="180" y="508">ADD ITEM</tspan>
            </text>
            <text id="-$0.00" font-family="Roboto-Bold, Roboto" font-size="30" font-weight="bold" fill="#FF0088">
                <tspan x="423.805664" y="243">-$0.00</tspan>
            </text>
            <text id="Discount:" font-family="Roboto-Bold, Roboto" font-size="30" font-weight="bold" fill="#00E7FF">
                <tspan x="403.324219" y="189">Discount:</tspan>
            </text>
            <text id="Sub:-Tax:-Tip:" font-family="Roboto-Bold, Roboto" font-size="30" font-weight="bold" fill="#00E7FF">
                <tspan x="21.4140625" y="189">Sub:</tspan>
                <tspan x="23.6259766" y="224">Tax:</tspan>
                <tspan x="30.1298828" y="259">Tip:</tspan>
            </text>
            <text id="$0.00" font-family="Lato-Bold, Lato" font-size="40" font-weight="bold" fill="#659B00">
                <tspan x="411.7" y="446">$0.00</tspan>
            </text>
            <text id="CUSTOMER-1" font-family="Roboto-Bold, Roboto" font-size="40" font-weight="bold" fill="#FFFFFF">
                <tspan x="34.2851562" y="76">CUSTOMER 1</tspan>
            </text>
            <rect id="Rectangle" stroke-opacity="0.329200634" stroke="#00C9FE" stroke-width="3" x="21.5" y="28.5" width="269" height="67" rx="6"></rect>
            <rect id="Rectangle" stroke-opacity="0.329200634" stroke="#00C9FE" stroke-width="3" x="405.5" y="210.5" width="125" height="47" rx="6"></rect>
            <text id="$0.00" font-family="Lato-Bold, Lato" font-size="60" font-weight="bold" fill="#FFFFFF">
                <tspan x="188.55" y="256">$0.00</tspan>
            </text>
            <text id="OPEN" font-family="Roboto-Bold, Roboto" font-size="40" font-weight="bold" fill="#FFFFFF">
                <tspan x="424.419922" y="141">OPEN</tspan>
            </text>
            <path d="M41.2851562,133.539062 C41.2851562,132.432286 40.8945352,131.582685 40.1132812,130.990234 C39.3320273,130.397783 37.9257914,129.77279 35.8945312,129.115234 C33.8632711,128.457679 32.2552143,127.809899 31.0703125,127.171875 C27.8411297,125.427075 26.2265625,123.076838 26.2265625,120.121094 C26.2265625,118.584628 26.6595009,117.214199 27.5253906,116.009766 C28.3912804,114.805333 29.6347575,113.864587 31.2558594,113.1875 C32.8769612,112.510413 34.6966045,112.171875 36.7148438,112.171875 C38.7461039,112.171875 40.5559816,112.53971 42.1445312,113.275391 C43.7330809,114.011071 44.9667925,115.049472 45.8457031,116.390625 C46.7246138,117.731778 47.1640625,119.2552 47.1640625,120.960938 L41.3046875,120.960938 C41.3046875,119.658848 40.8945354,118.646488 40.0742188,117.923828 C39.2539021,117.201168 38.1015699,116.839844 36.6171875,116.839844 C35.1848887,116.839844 34.0716186,117.142575 33.2773438,117.748047 C32.4830689,118.353519 32.0859375,119.151037 32.0859375,120.140625 C32.0859375,121.065109 32.5514276,121.839841 33.4824219,122.464844 C34.4134161,123.089847 35.7838451,123.675779 37.59375,124.222656 C40.9271,125.225265 43.3554611,126.468743 44.8789062,127.953125 C46.4023514,129.437507 47.1640625,131.286447 47.1640625,133.5 C47.1640625,135.96095 46.2330822,137.891269 44.3710938,139.291016 C42.5091053,140.690762 40.0026199,141.390625 36.8515625,141.390625 C34.6640516,141.390625 32.671884,140.990238 30.875,140.189453 C29.078116,139.388668 27.707687,138.291674 26.7636719,136.898438 C25.8196567,135.505201 25.3476562,133.890634 25.3476562,132.054688 L31.2265625,132.054688 C31.2265625,135.192724 33.1015438,136.761719 36.8515625,136.761719 C38.2447986,136.761719 39.3320273,136.478518 40.1132812,135.912109 C40.8945352,135.3457 41.2851562,134.554693 41.2851562,133.539062 Z M68.2382812,128.675781 L56.9882812,128.675781 L56.9882812,136.292969 L70.1914062,136.292969 L70.1914062,141 L51.1289062,141 L51.1289062,112.5625 L70.1523438,112.5625 L70.1523438,117.308594 L56.9882812,117.308594 L56.9882812,124.085938 L68.2382812,124.085938 L68.2382812,128.675781 Z M84.15625,130.589844 L79.4882812,130.589844 L79.4882812,141 L73.6289062,141 L73.6289062,112.5625 L84.1953125,112.5625 C87.5547043,112.5625 90.1458242,113.31119 91.96875,114.808594 C93.7916758,116.305997 94.703125,118.421861 94.703125,121.15625 C94.703125,123.096364 94.2832073,124.714186 93.4433594,126.009766 C92.6035114,127.305345 91.3307377,128.337236 89.625,129.105469 L95.7773438,140.726562 L95.7773438,141 L89.4882812,141 L84.15625,130.589844 Z M79.4882812,125.84375 L84.2148438,125.84375 C85.6862053,125.84375 86.8255168,125.469405 87.6328125,124.720703 C88.4401082,123.972001 88.84375,122.940111 88.84375,121.625 C88.84375,120.283847 88.4628944,119.229171 87.7011719,118.460938 C86.9394493,117.692704 85.7708412,117.308594 84.1953125,117.308594 L79.4882812,117.308594 L79.4882812,125.84375 Z M109.664062,133.949219 L116.109375,112.5625 L122.632812,112.5625 L112.730469,141 L106.617188,141 L96.7539062,112.5625 L103.257812,112.5625 L109.664062,133.949219 Z M142.417969,128.675781 L131.167969,128.675781 L131.167969,136.292969 L144.371094,136.292969 L144.371094,141 L125.308594,141 L125.308594,112.5625 L144.332031,112.5625 L144.332031,117.308594 L131.167969,117.308594 L131.167969,124.085938 L142.417969,124.085938 L142.417969,128.675781 Z M158.335938,130.589844 L153.667969,130.589844 L153.667969,141 L147.808594,141 L147.808594,112.5625 L158.375,112.5625 C161.734392,112.5625 164.325512,113.31119 166.148438,114.808594 C167.971363,116.305997 168.882812,118.421861 168.882812,121.15625 C168.882812,123.096364 168.462895,124.714186 167.623047,126.009766 C166.783199,127.305345 165.510425,128.337236 163.804688,129.105469 L169.957031,140.726562 L169.957031,141 L163.667969,141 L158.335938,130.589844 Z M153.667969,125.84375 L158.394531,125.84375 C159.865893,125.84375 161.005204,125.469405 161.8125,124.720703 C162.619796,123.972001 163.023438,122.940111 163.023438,121.625 C163.023438,120.283847 162.642582,119.229171 161.880859,118.460938 C161.119137,117.692704 159.950529,117.308594 158.375,117.308594 L153.667969,117.308594 L153.667969,125.84375 Z M190.953125,112.5625 L198.257812,133.1875 L205.523438,112.5625 L213.21875,112.5625 L213.21875,141 L207.339844,141 L207.339844,133.226562 L207.925781,119.808594 L200.25,141 L196.226562,141 L188.570312,119.828125 L189.15625,133.226562 L189.15625,141 L183.296875,141 L183.296875,112.5625 L190.953125,112.5625 Z M224.566406,141 L218.707031,141 L218.707031,112.5625 L224.566406,112.5625 L224.566406,141 Z M253.121094,141 L247.261719,141 L235.855469,122.289062 L235.855469,141 L229.996094,141 L229.996094,112.5625 L235.855469,112.5625 L247.28125,131.3125 L247.28125,112.5625 L253.121094,112.5625 L253.121094,141 Z M272.984375,133.539062 C272.984375,132.432286 272.593754,131.582685 271.8125,130.990234 C271.031246,130.397783 269.62501,129.77279 267.59375,129.115234 C265.56249,128.457679 263.954433,127.809899 262.769531,127.171875 C259.540348,125.427075 257.925781,123.076838 257.925781,120.121094 C257.925781,118.584628 258.35872,117.214199 259.224609,116.009766 C260.090499,114.805333 261.333976,113.864587 262.955078,113.1875 C264.57618,112.510413 266.395823,112.171875 268.414062,112.171875 C270.445323,112.171875 272.2552,112.53971 273.84375,113.275391 C275.4323,114.011071 276.666011,115.049472 277.544922,116.390625 C278.423833,117.731778 278.863281,119.2552 278.863281,120.960938 L273.003906,120.960938 C273.003906,119.658848 272.593754,118.646488 271.773438,117.923828 C270.953121,117.201168 269.800789,116.839844 268.316406,116.839844 C266.884107,116.839844 265.770837,117.142575 264.976562,117.748047 C264.182288,118.353519 263.785156,119.151037 263.785156,120.140625 C263.785156,121.065109 264.250646,121.839841 265.181641,122.464844 C266.112635,123.089847 267.483064,123.675779 269.292969,124.222656 C272.626319,125.225265 275.05468,126.468743 276.578125,127.953125 C278.10157,129.437507 278.863281,131.286447 278.863281,133.5 C278.863281,135.96095 277.932301,137.891269 276.070312,139.291016 C274.208324,140.690762 271.701839,141.390625 268.550781,141.390625 C266.36327,141.390625 264.371103,140.990238 262.574219,140.189453 C260.777335,139.388668 259.406906,138.291674 258.462891,136.898438 C257.518875,135.505201 257.046875,133.890634 257.046875,132.054688 L262.925781,132.054688 C262.925781,135.192724 264.800763,136.761719 268.550781,136.761719 C269.944017,136.761719 271.031246,136.478518 271.8125,135.912109 C272.593754,135.3457 272.984375,134.554693 272.984375,133.539062 Z M314.195312,117.308594 L305.484375,117.308594 L305.484375,141 L299.625,141 L299.625,117.308594 L291.03125,117.308594 L291.03125,112.5625 L314.195312,112.5625 L314.195312,117.308594 Z M323.765625,141 L317.90625,141 L317.90625,112.5625 L323.765625,112.5625 L323.765625,141 Z M336.851562,112.5625 L344.15625,133.1875 L351.421875,112.5625 L359.117188,112.5625 L359.117188,141 L353.238281,141 L353.238281,133.226562 L353.824219,119.808594 L346.148438,141 L342.125,141 L334.46875,119.828125 L335.054688,133.226562 L335.054688,141 L329.195312,141 L329.195312,112.5625 L336.851562,112.5625 Z M381.34375,128.675781 L370.09375,128.675781 L370.09375,136.292969 L383.296875,136.292969 L383.296875,141 L364.234375,141 L364.234375,112.5625 L383.257812,112.5625 L383.257812,117.308594 L370.09375,117.308594 L370.09375,124.085938 L381.34375,124.085938 L381.34375,128.675781 Z" id="SERVERMINSTIME" fill="#FFFFFF" fill-rule="nonzero"></path>
            <rect id="Rectangle" fill="#ADFB5F" x="449" y="39" width="82" height="50" rx="3"></rect>
            <ellipse id="Oval" fill="#FFFFFF" cx="491" cy="64" rx="18" ry="19"></ellipse>
            <text id="$" font-family="Roboto-Bold, Roboto" font-size="30" font-weight="bold" fill="#509209">
                <tspan x="482.394043" y="75">$</tspan>
            </text>
            <text id="Custom-Item-1" font-family="Lato-Bold, Lato" font-size="40" font-weight="bold" fill="#949494">
                <tspan x="26.8" y="445">Custom Item 1</tspan>
            </text>
            <rect id="Rectangle" fill="#98CE00" x="189" y="286" width="166" height="102"></rect>
            <text id="AUTH" font-family="Roboto-Black, Roboto" font-size="35" font-weight="700" fill="#080B26">
                <tspan x="54" y="350">AUTH</tspan>
            </text>
            <text id="PAY" font-family="Roboto-Black, Roboto" font-size="35" font-weight="700" fill="#080B26">
                <tspan x="238" y="350">PAY</tspan>
            </text>
            <text id="CATALOG" font-family="Roboto-Black, Roboto" font-size="35" font-weight="700" fill="#080B26">
                <tspan x="364" y="349">CATALOG</tspan>
            </text>
        </g>
        <polygon id="Path-2" fill="#000000" opacity="0.825497582" points="24 244 24 325 194 325 194 379 24 379 24 756.684615 544 756.684615 544 374.684615 544 245 419 244.684615 319 244.684615 319 244"></polygon>
        <rect id="Rectangle" fill="#FFFFFF" x="61" y="47" width="449" height="148" rx="12"></rect>
        <path d="M126.921143,87.7324219 L130.079346,71.0390625 L134.897217,71.0390625 L129.692627,94.5 L124.826416,94.5 L121.007568,78.8056641 L117.188721,94.5 L112.32251,94.5 L107.11792,71.0390625 L111.935791,71.0390625 L115.110107,87.7001953 L118.977295,71.0390625 L123.070068,71.0390625 L126.921143,87.7324219 Z M156.601807,94.5 L151.767822,94.5 L151.767822,84.4453125 L142.341553,84.4453125 L142.341553,94.5 L137.507568,94.5 L137.507568,71.0390625 L142.341553,71.0390625 L142.341553,80.5458984 L151.767822,80.5458984 L151.767822,71.0390625 L156.601807,71.0390625 L156.601807,94.5 Z M180.094971,83.3012695 C180.094971,85.6108514 179.686772,87.6357335 178.870361,89.3759766 C178.053951,91.1162196 176.88575,92.4589796 175.365723,93.4042969 C173.845696,94.3496141 172.102793,94.8222656 170.136963,94.8222656 C168.192617,94.8222656 166.457771,94.3549851 164.932373,93.4204102 C163.406975,92.4858352 162.225346,91.1511317 161.387451,89.4162598 C160.549556,87.6813878 160.125244,85.6860464 160.114502,83.4301758 L160.114502,82.2700195 C160.114502,79.9604377 160.530758,77.927499 161.363281,76.1711426 C162.195805,74.4147861 163.372063,73.0666551 164.89209,72.126709 C166.412117,71.1867629 168.149648,70.7167969 170.104736,70.7167969 C172.059824,70.7167969 173.797356,71.1867629 175.317383,72.126709 C176.83741,73.0666551 178.013668,74.4147861 178.846191,76.1711426 C179.678715,77.927499 180.094971,79.9550666 180.094971,82.2539062 L180.094971,83.3012695 Z M175.196533,82.237793 C175.196533,79.7778197 174.756108,77.9086978 173.875244,76.6303711 C172.99438,75.3520444 171.737557,74.7128906 170.104736,74.7128906 C168.482658,74.7128906 167.231206,75.3439878 166.350342,76.6062012 C165.469478,77.8684145 165.023682,79.7187378 165.012939,82.1572266 L165.012939,83.3012695 C165.012939,85.6967893 165.453365,87.5551692 166.334229,88.8764648 C167.215092,90.1977605 168.482658,90.8583984 170.136963,90.8583984 C171.759041,90.8583984 173.005123,90.2219302 173.875244,88.9489746 C174.745366,87.676019 175.185791,85.8203247 175.196533,83.3818359 L175.196533,82.237793 Z M197.7229,84.3325195 L188.44165,84.3325195 L188.44165,90.6166992 L199.334229,90.6166992 L199.334229,94.5 L183.607666,94.5 L183.607666,71.0390625 L199.302002,71.0390625 L199.302002,74.9545898 L188.44165,74.9545898 L188.44165,80.5458984 L197.7229,80.5458984 L197.7229,84.3325195 Z M210.839111,88.6831055 L216.156494,71.0390625 L221.53833,71.0390625 L213.368896,94.5 L208.325439,94.5 L200.188232,71.0390625 L205.553955,71.0390625 L210.839111,88.6831055 Z M237.861084,84.3325195 L228.579834,84.3325195 L228.579834,90.6166992 L239.472412,90.6166992 L239.472412,94.5 L223.74585,94.5 L223.74585,71.0390625 L239.440186,71.0390625 L239.440186,74.9545898 L228.579834,74.9545898 L228.579834,80.5458984 L237.861084,80.5458984 L237.861084,84.3325195 Z M250.993408,85.9116211 L247.142334,85.9116211 L247.142334,94.5 L242.30835,94.5 L242.30835,71.0390625 L251.025635,71.0390625 C253.797133,71.0390625 255.934807,71.6567321 257.438721,72.8920898 C258.942634,74.1274476 259.69458,75.8730356 259.69458,78.1289062 C259.69458,79.7295002 259.348148,81.0642036 258.655273,82.1330566 C257.962399,83.2019096 256.912361,84.0532195 255.505127,84.6870117 L260.580811,94.2744141 L260.580811,94.5 L255.392334,94.5 L250.993408,85.9116211 Z M247.142334,81.9960938 L251.041748,81.9960938 C252.255621,81.9960938 253.195553,81.6872589 253.861572,81.0695801 C254.527591,80.4519012 254.860596,79.6005914 254.860596,78.515625 C254.860596,77.4091742 254.54639,76.5390657 253.917969,75.9052734 C253.289548,75.2714812 252.325446,74.9545898 251.025635,74.9545898 L247.142334,74.9545898 L247.142334,81.9960938 Z M276.726318,94.5 L271.892334,94.5 L271.892334,71.0390625 L276.726318,71.0390625 L276.726318,94.5 Z M293.371338,88.3447266 C293.371338,87.4316361 293.049075,86.7307153 292.404541,86.2419434 C291.760007,85.7531714 290.599862,85.2375515 288.924072,84.6950684 C287.248283,84.1525852 285.921636,83.6181667 284.944092,83.0917969 C282.280016,81.6523366 280.947998,79.7133911 280.947998,77.2749023 C280.947998,76.0073179 281.305172,74.876714 282.019531,73.8830566 C282.73389,72.8893993 283.759759,72.113284 285.097168,71.5546875 C286.434577,70.996091 287.935783,70.7167969 289.60083,70.7167969 C291.27662,70.7167969 292.769769,71.0202606 294.080322,71.6271973 C295.390876,72.2341339 296.408688,73.0908148 297.133789,74.1972656 C297.85889,75.3037165 298.221436,76.5605398 298.221436,77.9677734 L293.387451,77.9677734 C293.387451,76.8935493 293.049076,76.0583526 292.372314,75.4621582 C291.695553,74.8659638 290.744879,74.5678711 289.520264,74.5678711 C288.338617,74.5678711 287.420169,74.8176245 286.764893,75.3171387 C286.109616,75.8166529 285.781982,76.4746053 285.781982,77.2910156 C285.781982,78.0537148 286.166012,78.6928685 286.934082,79.2084961 C287.702152,79.7241237 288.832756,80.2075173 290.325928,80.6586914 C293.075941,81.485844 295.079339,82.5117126 296.336182,83.7363281 C297.593024,84.9609436 298.221436,86.486319 298.221436,88.3125 C298.221436,90.3427836 297.453377,91.935297 295.917236,93.0900879 C294.381096,94.2448788 292.313245,94.8222656 289.713623,94.8222656 C287.908927,94.8222656 286.265388,94.4919467 284.782959,93.8312988 C283.30053,93.170651 282.169926,92.2656307 281.391113,91.1162109 C280.612301,89.9667911 280.2229,88.6347732 280.2229,87.1201172 L285.072998,87.1201172 C285.072998,89.7089973 286.619858,91.003418 289.713623,91.003418 C290.863043,91.003418 291.760007,90.7697777 292.404541,90.3024902 C293.049075,89.8352027 293.371338,89.1826214 293.371338,88.3447266 Z M321.875732,88.3447266 C321.875732,87.4316361 321.55347,86.7307153 320.908936,86.2419434 C320.264401,85.7531714 319.104256,85.2375515 317.428467,84.6950684 C315.752677,84.1525852 314.42603,83.6181667 313.448486,83.0917969 C310.784411,81.6523366 309.452393,79.7133911 309.452393,77.2749023 C309.452393,76.0073179 309.809567,74.876714 310.523926,73.8830566 C311.238285,72.8893993 312.264153,72.113284 313.601562,71.5546875 C314.938972,70.996091 316.440177,70.7167969 318.105225,70.7167969 C319.781014,70.7167969 321.274163,71.0202606 322.584717,71.6271973 C323.89527,72.2341339 324.913082,73.0908148 325.638184,74.1972656 C326.363285,75.3037165 326.72583,76.5605398 326.72583,77.9677734 L321.891846,77.9677734 C321.891846,76.8935493 321.55347,76.0583526 320.876709,75.4621582 C320.199948,74.8659638 319.249274,74.5678711 318.024658,74.5678711 C316.843012,74.5678711 315.924564,74.8176245 315.269287,75.3171387 C314.61401,75.8166529 314.286377,76.4746053 314.286377,77.2910156 C314.286377,78.0537148 314.670406,78.6928685 315.438477,79.2084961 C316.206547,79.7241237 317.337151,80.2075173 318.830322,80.6586914 C321.580336,81.485844 323.583734,82.5117126 324.840576,83.7363281 C326.097418,84.9609436 326.72583,86.486319 326.72583,88.3125 C326.72583,90.3427836 325.957771,91.935297 324.421631,93.0900879 C322.88549,94.2448788 320.81764,94.8222656 318.218018,94.8222656 C316.413321,94.8222656 314.769783,94.4919467 313.287354,93.8312988 C311.804924,93.170651 310.67432,92.2656307 309.895508,91.1162109 C309.116695,89.9667911 308.727295,88.6347732 308.727295,87.1201172 L313.577393,87.1201172 C313.577393,89.7089973 315.124252,91.003418 318.218018,91.003418 C319.367437,91.003418 320.264401,90.7697777 320.908936,90.3024902 C321.55347,89.8352027 321.875732,89.1826214 321.875732,88.3447266 Z M335.136963,94.5 L330.302979,94.5 L330.302979,71.0390625 L335.136963,71.0390625 L335.136963,94.5 Z M358.178955,91.5351562 C357.308834,92.5771536 356.078865,93.3854952 354.489014,93.9602051 C352.899162,94.534915 351.137461,94.8222656 349.203857,94.8222656 C347.173574,94.8222656 345.393074,94.3791548 343.862305,93.4929199 C342.331535,92.606685 341.149907,91.3203209 340.317383,89.6337891 C339.484859,87.9472572 339.057861,85.9653434 339.036377,83.6879883 L339.036377,82.0927734 C339.036377,79.7509649 339.431148,77.7233972 340.220703,76.0100098 C341.010258,74.2966223 342.148918,72.9860885 343.636719,72.0783691 C345.124519,71.1706498 346.867422,70.7167969 348.865479,70.7167969 C351.647719,70.7167969 353.82299,71.3801203 355.391357,72.7067871 C356.959725,74.0334539 357.888915,75.9643428 358.178955,78.4995117 L353.473877,78.4995117 C353.259032,77.1567316 352.783695,76.1738312 352.047852,75.5507812 C351.312008,74.9277313 350.299567,74.6162109 349.010498,74.6162109 C347.366935,74.6162109 346.115483,75.2338805 345.256104,76.4692383 C344.396724,77.704596 343.96167,79.5414917 343.950928,81.9799805 L343.950928,83.4785156 C343.950928,85.9384889 344.418208,87.7968687 345.352783,89.0537109 C346.287358,90.3105532 347.656973,90.9389648 349.46167,90.9389648 C351.277109,90.9389648 352.571529,90.55225 353.344971,89.7788086 L353.344971,85.734375 L348.946045,85.734375 L348.946045,82.1733398 L358.178955,82.1733398 L358.178955,91.5351562 Z M381.172607,94.5 L376.338623,94.5 L366.928467,79.0634766 L366.928467,94.5 L362.094482,94.5 L362.094482,71.0390625 L366.928467,71.0390625 L376.354736,86.5078125 L376.354736,71.0390625 L381.172607,71.0390625 L381.172607,94.5 Z M399.509521,84.3325195 L390.228271,84.3325195 L390.228271,90.6166992 L401.12085,90.6166992 L401.12085,94.5 L385.394287,94.5 L385.394287,71.0390625 L401.088623,71.0390625 L401.088623,74.9545898 L390.228271,74.9545898 L390.228271,80.5458984 L399.509521,80.5458984 L399.509521,84.3325195 Z M403.956787,94.5 L403.956787,71.0390625 L411.175537,71.0390625 C413.238047,71.0390625 415.083,71.5036575 416.710449,72.4328613 C418.337899,73.3620652 419.60815,74.683341 420.52124,76.3967285 C421.434331,78.110116 421.890869,80.057118 421.890869,82.237793 L421.890869,83.3173828 C421.890869,85.4980578 421.442387,87.4370032 420.54541,89.1342773 C419.648433,90.8315515 418.383553,92.1474563 416.750732,93.0820312 C415.117912,94.0166062 413.275645,94.4892578 411.223877,94.5 L403.956787,94.5 Z M408.790771,74.9545898 L408.790771,90.6166992 L411.127197,90.6166992 C413.017832,90.6166992 414.462641,89.9990296 415.46167,88.7636719 C416.460698,87.5283141 416.970947,85.761242 416.992432,83.4624023 L416.992432,82.2216797 C416.992432,79.8369021 416.498296,78.0295472 415.51001,76.7995605 C414.521724,75.5695739 413.076914,74.9545898 411.175537,74.9545898 L408.790771,74.9545898 Z M438.761475,94.5 L433.92749,94.5 L433.92749,71.0390625 L438.761475,71.0390625 L438.761475,94.5 Z M462.319092,94.5 L457.485107,94.5 L448.074951,79.0634766 L448.074951,94.5 L443.240967,94.5 L443.240967,71.0390625 L448.074951,71.0390625 L457.501221,86.5078125 L457.501221,71.0390625 L462.319092,71.0390625 L462.319092,94.5 Z M105.119873,113.95459 L97.9333496,113.95459 L97.9333496,133.5 L93.0993652,133.5 L93.0993652,113.95459 L86.0095215,113.95459 L86.0095215,110.039062 L105.119873,110.039062 L105.119873,113.95459 Z M127.146729,122.30127 C127.146729,124.610851 126.738529,126.635733 125.922119,128.375977 C125.105709,130.11622 123.937508,131.45898 122.41748,132.404297 C120.897453,133.349614 119.154551,133.822266 117.188721,133.822266 C115.244375,133.822266 113.509529,133.354985 111.984131,132.42041 C110.458733,131.485835 109.277104,130.151132 108.439209,128.41626 C107.601314,126.681388 107.177002,124.686046 107.16626,122.430176 L107.16626,121.27002 C107.16626,118.960438 107.582515,116.927499 108.415039,115.171143 C109.247563,113.414786 110.423821,112.066655 111.943848,111.126709 C113.463875,110.186763 115.201406,109.716797 117.156494,109.716797 C119.111582,109.716797 120.849113,110.186763 122.369141,111.126709 C123.889168,112.066655 125.065426,113.414786 125.897949,115.171143 C126.730473,116.927499 127.146729,118.955067 127.146729,121.253906 L127.146729,122.30127 Z M122.248291,121.237793 C122.248291,118.77782 121.807866,116.908698 120.927002,115.630371 C120.046138,114.352044 118.789315,113.712891 117.156494,113.712891 C115.534416,113.712891 114.282963,114.343988 113.4021,115.606201 C112.521236,116.868415 112.07544,118.718738 112.064697,121.157227 L112.064697,122.30127 C112.064697,124.696789 112.505123,126.555169 113.385986,127.876465 C114.26685,129.197761 115.534416,129.858398 117.188721,129.858398 C118.810799,129.858398 120.05688,129.22193 120.927002,127.948975 C121.797123,126.676019 122.237549,124.820325 122.248291,122.381836 L122.248291,121.237793 Z M156.537354,113.95459 L149.35083,113.95459 L149.35083,133.5 L144.516846,133.5 L144.516846,113.95459 L137.427002,113.95459 L137.427002,110.039062 L156.537354,110.039062 L156.537354,113.95459 Z M178.386963,133.5 L173.552979,133.5 L173.552979,123.445312 L164.126709,123.445312 L164.126709,133.5 L159.292725,133.5 L159.292725,110.039062 L164.126709,110.039062 L164.126709,119.545898 L173.552979,119.545898 L173.552979,110.039062 L178.386963,110.039062 L178.386963,133.5 Z M196.723877,123.33252 L187.442627,123.33252 L187.442627,129.616699 L198.335205,129.616699 L198.335205,133.5 L182.608643,133.5 L182.608643,110.039062 L198.302979,110.039062 L198.302979,113.95459 L187.442627,113.95459 L187.442627,119.545898 L196.723877,119.545898 L196.723877,123.33252 Z M214.2229,125.233887 L214.2229,133.5 L209.388916,133.5 L209.388916,110.039062 L218.54126,110.039062 C220.302987,110.039062 221.852532,110.361325 223.189941,111.005859 C224.52735,111.650394 225.555905,112.566156 226.275635,113.753174 C226.995365,114.940191 227.355225,116.291008 227.355225,117.805664 C227.355225,120.104504 226.568367,121.91723 224.994629,123.243896 C223.420891,124.570563 221.242934,125.233887 218.460693,125.233887 L214.2229,125.233887 Z M214.2229,121.318359 L218.54126,121.318359 C219.819586,121.318359 220.79443,121.017581 221.46582,120.416016 C222.13721,119.81445 222.4729,118.955084 222.4729,117.837891 C222.4729,116.688471 222.134525,115.759281 221.457764,115.050293 C220.781002,114.341305 219.846442,113.976074 218.654053,113.95459 L214.2229,113.95459 L214.2229,121.318359 Z M249.946045,122.30127 C249.946045,124.610851 249.537846,126.635733 248.721436,128.375977 C247.905025,130.11622 246.736824,131.45898 245.216797,132.404297 C243.69677,133.349614 241.953867,133.822266 239.988037,133.822266 C238.043691,133.822266 236.308846,133.354985 234.783447,132.42041 C233.258049,131.485835 232.07642,130.151132 231.238525,128.41626 C230.400631,126.681388 229.976318,124.686046 229.965576,122.430176 L229.965576,121.27002 C229.965576,118.960438 230.381832,116.927499 231.214355,115.171143 C232.046879,113.414786 233.223137,112.066655 234.743164,111.126709 C236.263191,110.186763 238.000723,109.716797 239.955811,109.716797 C241.910898,109.716797 243.64843,110.186763 245.168457,111.126709 C246.688484,112.066655 247.864742,113.414786 248.697266,115.171143 C249.529789,116.927499 249.946045,118.955067 249.946045,121.253906 L249.946045,122.30127 Z M245.047607,121.237793 C245.047607,118.77782 244.607182,116.908698 243.726318,115.630371 C242.845455,114.352044 241.588631,113.712891 239.955811,113.712891 C238.333732,113.712891 237.08228,114.343988 236.201416,115.606201 C235.320552,116.868415 234.874756,118.718738 234.864014,121.157227 L234.864014,122.30127 C234.864014,124.696789 235.304439,126.555169 236.185303,127.876465 C237.066167,129.197761 238.333732,129.858398 239.988037,129.858398 C241.610116,129.858398 242.856197,129.22193 243.726318,127.948975 C244.59644,126.676019 245.036865,124.820325 245.047607,122.381836 L245.047607,121.237793 Z M261.547607,120.609375 L266.429932,110.039062 L271.715088,110.039062 L264.012939,124.992188 L264.012939,133.5 L259.098389,133.5 L259.098389,124.992188 L251.39624,110.039062 L256.69751,110.039062 L261.547607,120.609375 Z M292.936279,133.5 L288.102295,133.5 L278.692139,118.063477 L278.692139,133.5 L273.858154,133.5 L273.858154,110.039062 L278.692139,110.039062 L288.118408,125.507812 L288.118408,110.039062 L292.936279,110.039062 L292.936279,133.5 Z M314.818115,113.95459 L307.631592,113.95459 L307.631592,133.5 L302.797607,133.5 L302.797607,113.95459 L295.707764,113.95459 L295.707764,110.039062 L314.818115,110.039062 L314.818115,113.95459 Z M343.451416,113.95459 L336.264893,113.95459 L336.264893,133.5 L331.430908,133.5 L331.430908,113.95459 L324.341064,113.95459 L324.341064,110.039062 L343.451416,110.039062 L343.451416,113.95459 Z M360.322021,123.33252 L351.040771,123.33252 L351.040771,129.616699 L361.93335,129.616699 L361.93335,133.5 L346.206787,133.5 L346.206787,110.039062 L361.901123,110.039062 L361.901123,113.95459 L351.040771,113.95459 L351.040771,119.545898 L360.322021,119.545898 L360.322021,123.33252 Z M373.454346,124.911621 L369.603271,124.911621 L369.603271,133.5 L364.769287,133.5 L364.769287,110.039062 L373.486572,110.039062 C376.25807,110.039062 378.395744,110.656732 379.899658,111.89209 C381.403572,113.127448 382.155518,114.873036 382.155518,117.128906 C382.155518,118.7295 381.809085,120.064204 381.116211,121.133057 C380.423336,122.20191 379.373298,123.053219 377.966064,123.687012 L383.041748,133.274414 L383.041748,133.5 L377.853271,133.5 L373.454346,124.911621 Z M369.603271,120.996094 L373.502686,120.996094 C374.716559,120.996094 375.656491,120.687259 376.32251,120.06958 C376.988529,119.451901 377.321533,118.600591 377.321533,117.515625 C377.321533,116.409174 377.007327,115.539066 376.378906,114.905273 C375.750485,114.271481 374.786383,113.95459 373.486572,113.95459 L369.603271,113.95459 L369.603271,120.996094 Z M392.145752,110.039062 L398.172119,127.054688 L404.16626,110.039062 L410.514893,110.039062 L410.514893,133.5 L405.664795,133.5 L405.664795,127.086914 L406.148193,116.01709 L399.815674,133.5 L396.496338,133.5 L390.179932,116.033203 L390.66333,127.086914 L390.66333,133.5 L385.829346,133.5 L385.829346,110.039062 L392.145752,110.039062 Z M419.876709,133.5 L415.042725,133.5 L415.042725,110.039062 L419.876709,110.039062 L419.876709,133.5 Z M443.434326,133.5 L438.600342,133.5 L429.190186,118.063477 L429.190186,133.5 L424.356201,133.5 L424.356201,110.039062 L429.190186,110.039062 L438.616455,125.507812 L438.616455,110.039062 L443.434326,110.039062 L443.434326,133.5 Z M460.901123,128.666016 L452.425537,128.666016 L450.814209,133.5 L445.674072,133.5 L454.407471,110.039062 L458.886963,110.039062 L467.668701,133.5 L462.528564,133.5 L460.901123,128.666016 Z M453.730713,124.750488 L459.595947,124.750488 L456.647217,115.96875 L453.730713,124.750488 Z M474.694092,129.616699 L484.958252,129.616699 L484.958252,133.5 L469.860107,133.5 L469.860107,110.039062 L474.694092,110.039062 L474.694092,129.616699 Z M142.067627,165.732422 L145.22583,149.039062 L150.043701,149.039062 L144.839111,172.5 L139.9729,172.5 L136.154053,156.805664 L132.335205,172.5 L127.468994,172.5 L122.264404,149.039062 L127.082275,149.039062 L130.256592,165.700195 L134.123779,149.039062 L138.216553,149.039062 L142.067627,165.732422 Z M157.794189,172.5 L152.960205,172.5 L152.960205,149.039062 L157.794189,149.039062 L157.794189,172.5 Z M167.107666,168.616699 L177.371826,168.616699 L177.371826,172.5 L162.273682,172.5 L162.273682,149.039062 L167.107666,149.039062 L167.107666,168.616699 Z M184.977295,168.616699 L195.241455,168.616699 L195.241455,172.5 L180.143311,172.5 L180.143311,149.039062 L184.977295,149.039062 L184.977295,168.616699 Z M218.39624,166.344727 C218.39624,165.431636 218.073978,164.730715 217.429443,164.241943 C216.784909,163.753171 215.624764,163.237552 213.948975,162.695068 C212.273185,162.152585 210.946538,161.618167 209.968994,161.091797 C207.304918,159.652337 205.9729,157.713391 205.9729,155.274902 C205.9729,154.007318 206.330075,152.876714 207.044434,151.883057 C207.758793,150.889399 208.784661,150.113284 210.12207,149.554688 C211.459479,148.996091 212.960685,148.716797 214.625732,148.716797 C216.301522,148.716797 217.794671,149.020261 219.105225,149.627197 C220.415778,150.234134 221.43359,151.090815 222.158691,152.197266 C222.883793,153.303716 223.246338,154.56054 223.246338,155.967773 L218.412354,155.967773 C218.412354,154.893549 218.073978,154.058353 217.397217,153.462158 C216.720456,152.865964 215.769782,152.567871 214.545166,152.567871 C213.363519,152.567871 212.445072,152.817624 211.789795,153.317139 C211.134518,153.816653 210.806885,154.474605 210.806885,155.291016 C210.806885,156.053715 211.190914,156.692869 211.958984,157.208496 C212.727055,157.724124 213.857659,158.207517 215.35083,158.658691 C218.100844,159.485844 220.104242,160.511713 221.361084,161.736328 C222.617926,162.960944 223.246338,164.486319 223.246338,166.3125 C223.246338,168.342784 222.478279,169.935297 220.942139,171.090088 C219.405998,172.244879 217.338148,172.822266 214.738525,172.822266 C212.933829,172.822266 211.290291,172.491947 209.807861,171.831299 C208.325432,171.170651 207.194828,170.265631 206.416016,169.116211 C205.637203,167.966791 205.247803,166.634773 205.247803,165.120117 L210.0979,165.120117 C210.0979,167.708997 211.64476,169.003418 214.738525,169.003418 C215.887945,169.003418 216.784909,168.769778 217.429443,168.30249 C218.073978,167.835203 218.39624,167.182621 218.39624,166.344727 Z M245.611572,172.5 L240.777588,172.5 L240.777588,162.445312 L231.351318,162.445312 L231.351318,172.5 L226.517334,172.5 L226.517334,149.039062 L231.351318,149.039062 L231.351318,158.545898 L240.777588,158.545898 L240.777588,149.039062 L245.611572,149.039062 L245.611572,172.5 Z M269.104736,161.30127 C269.104736,163.610851 268.696537,165.635733 267.880127,167.375977 C267.063717,169.11622 265.895515,170.45898 264.375488,171.404297 C262.855461,172.349614 261.112559,172.822266 259.146729,172.822266 C257.202383,172.822266 255.467537,172.354985 253.942139,171.42041 C252.41674,170.485835 251.235112,169.151132 250.397217,167.41626 C249.559322,165.681388 249.13501,163.686046 249.124268,161.430176 L249.124268,160.27002 C249.124268,157.960438 249.540523,155.927499 250.373047,154.171143 C251.205571,152.414786 252.381828,151.066655 253.901855,150.126709 C255.421883,149.186763 257.159414,148.716797 259.114502,148.716797 C261.06959,148.716797 262.807121,149.186763 264.327148,150.126709 C265.847176,151.066655 267.023433,152.414786 267.855957,154.171143 C268.688481,155.927499 269.104736,157.955067 269.104736,160.253906 L269.104736,161.30127 Z M264.206299,160.237793 C264.206299,157.77782 263.765874,155.908698 262.88501,154.630371 C262.004146,153.352044 260.747323,152.712891 259.114502,152.712891 C257.492424,152.712891 256.240971,153.343988 255.360107,154.606201 C254.479244,155.868415 254.033447,157.718738 254.022705,160.157227 L254.022705,161.30127 C254.022705,163.696789 254.46313,165.555169 255.343994,166.876465 C256.224858,168.197761 257.492423,168.858398 259.146729,168.858398 C260.768807,168.858398 262.014888,168.22193 262.88501,166.948975 C263.755131,165.676019 264.195557,163.820325 264.206299,161.381836 L264.206299,160.237793 Z M290.889893,165.732422 L294.048096,149.039062 L298.865967,149.039062 L293.661377,172.5 L288.795166,172.5 L284.976318,156.805664 L281.157471,172.5 L276.29126,172.5 L271.08667,149.039062 L275.904541,149.039062 L279.078857,165.700195 L282.946045,149.039062 L287.038818,149.039062 L290.889893,165.732422 Z M327.450928,149.039062 L327.450928,164.491699 C327.450928,167.059095 326.647957,169.089348 325.041992,170.58252 C323.436027,172.075691 321.241957,172.822266 318.459717,172.822266 C315.720445,172.822266 313.545174,172.097175 311.933838,170.646973 C310.322502,169.19677 309.500733,167.204114 309.468506,164.668945 L309.468506,149.039062 L314.30249,149.039062 L314.30249,164.523926 C314.30249,166.060066 314.670406,167.179928 315.40625,167.883545 C316.142094,168.587162 317.159906,168.938965 318.459717,168.938965 C321.177504,168.938965 322.557861,167.510268 322.60083,164.652832 L322.60083,149.039062 L327.450928,149.039062 Z M336.248779,164.233887 L336.248779,172.5 L331.414795,172.5 L331.414795,149.039062 L340.567139,149.039062 C342.328866,149.039062 343.878411,149.361325 345.21582,150.005859 C346.553229,150.650394 347.581784,151.566156 348.301514,152.753174 C349.021244,153.940191 349.381104,155.291008 349.381104,156.805664 C349.381104,159.104504 348.594246,160.91723 347.020508,162.243896 C345.446769,163.570563 343.268813,164.233887 340.486572,164.233887 L336.248779,164.233887 Z M336.248779,160.318359 L340.567139,160.318359 C341.845465,160.318359 342.820309,160.017581 343.491699,159.416016 C344.163089,158.81445 344.498779,157.955084 344.498779,156.837891 C344.498779,155.688471 344.160404,154.759281 343.483643,154.050293 C342.806881,153.341305 341.87232,152.976074 340.679932,152.95459 L336.248779,152.95459 L336.248779,160.318359 Z M380.012451,172.5 L375.178467,172.5 L375.178467,162.445312 L365.752197,162.445312 L365.752197,172.5 L360.918213,172.5 L360.918213,149.039062 L365.752197,149.039062 L365.752197,158.545898 L375.178467,158.545898 L375.178467,149.039062 L380.012451,149.039062 L380.012451,172.5 Z M398.349365,162.33252 L389.068115,162.33252 L389.068115,168.616699 L399.960693,168.616699 L399.960693,172.5 L384.234131,172.5 L384.234131,149.039062 L399.928467,149.039062 L399.928467,152.95459 L389.068115,152.95459 L389.068115,158.545898 L398.349365,158.545898 L398.349365,162.33252 Z M411.481689,163.911621 L407.630615,163.911621 L407.630615,172.5 L402.796631,172.5 L402.796631,149.039062 L411.513916,149.039062 C414.285414,149.039062 416.423088,149.656732 417.927002,150.89209 C419.430916,152.127448 420.182861,153.873036 420.182861,156.128906 C420.182861,157.7295 419.836429,159.064204 419.143555,160.133057 C418.45068,161.20191 417.400642,162.053219 415.993408,162.687012 L421.069092,172.274414 L421.069092,172.5 L415.880615,172.5 L411.481689,163.911621 Z M407.630615,159.996094 L411.530029,159.996094 C412.743903,159.996094 413.683835,159.687259 414.349854,159.06958 C415.015872,158.451901 415.348877,157.600591 415.348877,156.515625 C415.348877,155.409174 415.034671,154.539066 414.40625,153.905273 C413.777829,153.271481 412.813727,152.95459 411.513916,152.95459 L407.630615,152.95459 L407.630615,159.996094 Z M437.971924,162.33252 L428.690674,162.33252 L428.690674,168.616699 L439.583252,168.616699 L439.583252,172.5 L423.856689,172.5 L423.856689,149.039062 L439.551025,149.039062 L439.551025,152.95459 L428.690674,152.95459 L428.690674,158.545898 L437.971924,158.545898 L437.971924,162.33252 Z M446.850342,165.297363 L442.983154,165.297363 L442.435303,149.039062 L447.398193,149.039062 L446.850342,165.297363 Z M444.916748,167.843262 C445.700932,167.843262 446.332029,168.074216 446.810059,168.536133 C447.288088,168.998049 447.5271,169.588864 447.5271,170.308594 C447.5271,171.017582 447.288088,171.603025 446.810059,172.064941 C446.332029,172.526858 445.700932,172.757812 444.916748,172.757812 C444.143307,172.757812 443.517581,172.526858 443.039551,172.064941 C442.561521,171.603025 442.32251,171.017582 442.32251,170.308594 C442.32251,169.599606 442.561521,169.011477 443.039551,168.544189 C443.517581,168.076902 444.143307,167.843262 444.916748,167.843262 Z" id="WHOEVERISSIGNEDINTOTHEPOYNTTERMINALWILLSHOWUPHERE!" fill="#000000" fill-rule="nonzero"></path>
        <path id="Line-2" d="M99.985,279 L99.985,160 L107.985,160 L107.985,279 L125.985,279 L103.985,323 L81.985,279 L99.985,279 Z" fill="#FFFFFF" fill-rule="nonzero"></path>
    </g>
</svg>