<?xml version="1.0" encoding="UTF-8"?>
<svg width="570px" height="792px" viewBox="0 0 570 792" version="1.1" xmlns="http://www.w3.org/2000/svg" xmlns:xlink="http://www.w3.org/1999/xlink">
    <!-- Generator: Sketch 54.1 (76490) - https://sketchapp.com -->
    <title>5_create_en</title>
    <desc>Created with Sketch.</desc>
    <g id="5_create_en" stroke="none" stroke-width="1" fill="none" fill-rule="evenodd">
        <rect fill="#00B0FF" x="0" y="0" width="570" height="792"></rect>
        <g id="Group-3" transform="translate(12.000000, 225.000000)">
            <rect id="Rectangle" fill="#0B0C24" x="0" y="0" width="547" height="547" rx="13"></rect>
            <path d="M12,286 L189,286 L189,388 L25,388 C17.8202983,388 12,382.179702 12,375 L12,286 Z" id="Rectangle" fill="#0098CE"></path>
            <path d="M355,286 L532,286 L532,388 L368,388 C360.820298,388 355,382.179702 355,375 L355,286 Z" id="Rectangle" fill="#0098CE" transform="translate(443.500000, 337.000000) scale(-1, 1) translate(-443.500000, -337.000000) "></path>
            <rect id="Rectangle" stroke="#979797" fill="#FFFFFF" x="12.5" y="400.5" width="519" height="64"></rect>
            <path d="M12,465 L532,465 L532,519 C532,525.075132 527.075132,530 521,530 L23,530 C16.9248678,530 12,525.075132 12,519 L12,465 Z" id="Rectangle" fill="#0098CE"></path>
            <text id="ADD-ITEM" font-family="Lato-Bold, Lato" font-size="40" font-weight="bold" fill="#FFFFFF">
                <tspan x="180" y="508">ADD ITEM</tspan>
            </text>
            <text id="-$0.00" font-family="Roboto-Bold, Roboto" font-size="30" font-weight="bold" fill="#FF0088">
                <tspan x="423.805664" y="243">-$0.00</tspan>
            </text>
            <text id="Discount:" font-family="Roboto-Bold, Roboto" font-size="30" font-weight="bold" fill="#00E7FF">
                <tspan x="403.324219" y="189">Discount:</tspan>
            </text>
            <text id="Sub:-Tax:-Tip:" font-family="Roboto-Bold, Roboto" font-size="30" font-weight="bold" fill="#00E7FF">
                <tspan x="21.4140625" y="189">Sub:</tspan>
                <tspan x="23.6259766" y="224">Tax:</tspan>
                <tspan x="30.1298828" y="259">Tip:</tspan>
            </text>
            <text id="$0.00" font-family="Lato-Bold, Lato" font-size="40" font-weight="bold" fill="#659B00">
                <tspan x="411.7" y="446">$0.00</tspan>
            </text>
            <text id="CUSTOMER-1" font-family="Roboto-Bold, Roboto" font-size="40" font-weight="bold" fill="#FFFFFF">
                <tspan x="34.2851562" y="76">CUSTOMER 1</tspan>
            </text>
            <rect id="Rectangle" stroke-opacity="0.329200634" stroke="#00C9FE" stroke-width="3" x="21.5" y="28.5" width="269" height="67" rx="6"></rect>
            <rect id="Rectangle" stroke-opacity="0.329200634" stroke="#00C9FE" stroke-width="3" x="405.5" y="210.5" width="125" height="47" rx="6"></rect>
            <text id="$0.00" font-family="Lato-Bold, Lato" font-size="60" font-weight="bold" fill="#FFFFFF">
                <tspan x="188.55" y="256">$0.00</tspan>
            </text>
            <text id="OPEN" font-family="Roboto-Bold, Roboto" font-size="40" font-weight="bold" fill="#FFFFFF">
                <tspan x="424.419922" y="141">OPEN</tspan>
            </text>
            <path d="M41.2851562,133.539062 C41.2851562,132.432286 40.8945352,131.582685 40.1132812,130.990234 C39.3320273,130.397783 37.9257914,129.77279 35.8945312,129.115234 C33.8632711,128.457679 32.2552143,127.809899 31.0703125,127.171875 C27.8411297,125.427075 26.2265625,123.076838 26.2265625,120.121094 C26.2265625,118.584628 26.6595009,117.214199 27.5253906,116.009766 C28.3912804,114.805333 29.6347575,113.864587 31.2558594,113.1875 C32.8769612,112.510413 34.6966045,112.171875 36.7148438,112.171875 C38.7461039,112.171875 40.5559816,112.53971 42.1445312,113.275391 C43.7330809,114.011071 44.9667925,115.049472 45.8457031,116.390625 C46.7246138,117.731778 47.1640625,119.2552 47.1640625,120.960938 L41.3046875,120.960938 C41.3046875,119.658848 40.8945354,118.646488 40.0742188,117.923828 C39.2539021,117.201168 38.1015699,116.839844 36.6171875,116.839844 C35.1848887,116.839844 34.0716186,117.142575 33.2773438,117.748047 C32.4830689,118.353519 32.0859375,119.151037 32.0859375,120.140625 C32.0859375,121.065109 32.5514276,121.839841 33.4824219,122.464844 C34.4134161,123.089847 35.7838451,123.675779 37.59375,124.222656 C40.9271,125.225265 43.3554611,126.468743 44.8789062,127.953125 C46.4023514,129.437507 47.1640625,131.286447 47.1640625,133.5 C47.1640625,135.96095 46.2330822,137.891269 44.3710938,139.291016 C42.5091053,140.690762 40.0026199,141.390625 36.8515625,141.390625 C34.6640516,141.390625 32.671884,140.990238 30.875,140.189453 C29.078116,139.388668 27.707687,138.291674 26.7636719,136.898438 C25.8196567,135.505201 25.3476562,133.890634 25.3476562,132.054688 L31.2265625,132.054688 C31.2265625,135.192724 33.1015438,136.761719 36.8515625,136.761719 C38.2447986,136.761719 39.3320273,136.478518 40.1132812,135.912109 C40.8945352,135.3457 41.2851562,134.554693 41.2851562,133.539062 Z M68.2382812,128.675781 L56.9882812,128.675781 L56.9882812,136.292969 L70.1914062,136.292969 L70.1914062,141 L51.1289062,141 L51.1289062,112.5625 L70.1523438,112.5625 L70.1523438,117.308594 L56.9882812,117.308594 L56.9882812,124.085938 L68.2382812,124.085938 L68.2382812,128.675781 Z M84.15625,130.589844 L79.4882812,130.589844 L79.4882812,141 L73.6289062,141 L73.6289062,112.5625 L84.1953125,112.5625 C87.5547043,112.5625 90.1458242,113.31119 91.96875,114.808594 C93.7916758,116.305997 94.703125,118.421861 94.703125,121.15625 C94.703125,123.096364 94.2832073,124.714186 93.4433594,126.009766 C92.6035114,127.305345 91.3307377,128.337236 89.625,129.105469 L95.7773438,140.726562 L95.7773438,141 L89.4882812,141 L84.15625,130.589844 Z M79.4882812,125.84375 L84.2148438,125.84375 C85.6862053,125.84375 86.8255168,125.469405 87.6328125,124.720703 C88.4401082,123.972001 88.84375,122.940111 88.84375,121.625 C88.84375,120.283847 88.4628944,119.229171 87.7011719,118.460938 C86.9394493,117.692704 85.7708412,117.308594 84.1953125,117.308594 L79.4882812,117.308594 L79.4882812,125.84375 Z M109.664062,133.949219 L116.109375,112.5625 L122.632812,112.5625 L112.730469,141 L106.617188,141 L96.7539062,112.5625 L103.257812,112.5625 L109.664062,133.949219 Z M142.417969,128.675781 L131.167969,128.675781 L131.167969,136.292969 L144.371094,136.292969 L144.371094,141 L125.308594,141 L125.308594,112.5625 L144.332031,112.5625 L144.332031,117.308594 L131.167969,117.308594 L131.167969,124.085938 L142.417969,124.085938 L142.417969,128.675781 Z M158.335938,130.589844 L153.667969,130.589844 L153.667969,141 L147.808594,141 L147.808594,112.5625 L158.375,112.5625 C161.734392,112.5625 164.325512,113.31119 166.148438,114.808594 C167.971363,116.305997 168.882812,118.421861 168.882812,121.15625 C168.882812,123.096364 168.462895,124.714186 167.623047,126.009766 C166.783199,127.305345 165.510425,128.337236 163.804688,129.105469 L169.957031,140.726562 L169.957031,141 L163.667969,141 L158.335938,130.589844 Z M153.667969,125.84375 L158.394531,125.84375 C159.865893,125.84375 161.005204,125.469405 161.8125,124.720703 C162.619796,123.972001 163.023438,122.940111 163.023438,121.625 C163.023438,120.283847 162.642582,119.229171 161.880859,118.460938 C161.119137,117.692704 159.950529,117.308594 158.375,117.308594 L153.667969,117.308594 L153.667969,125.84375 Z M190.953125,112.5625 L198.257812,133.1875 L205.523438,112.5625 L213.21875,112.5625 L213.21875,141 L207.339844,141 L207.339844,133.226562 L207.925781,119.808594 L200.25,141 L196.226562,141 L188.570312,119.828125 L189.15625,133.226562 L189.15625,141 L183.296875,141 L183.296875,112.5625 L190.953125,112.5625 Z M224.566406,141 L218.707031,141 L218.707031,112.5625 L224.566406,112.5625 L224.566406,141 Z M253.121094,141 L247.261719,141 L235.855469,122.289062 L235.855469,141 L229.996094,141 L229.996094,112.5625 L235.855469,112.5625 L247.28125,131.3125 L247.28125,112.5625 L253.121094,112.5625 L253.121094,141 Z M272.984375,133.539062 C272.984375,132.432286 272.593754,131.582685 271.8125,130.990234 C271.031246,130.397783 269.62501,129.77279 267.59375,129.115234 C265.56249,128.457679 263.954433,127.809899 262.769531,127.171875 C259.540348,125.427075 257.925781,123.076838 257.925781,120.121094 C257.925781,118.584628 258.35872,117.214199 259.224609,116.009766 C260.090499,114.805333 261.333976,113.864587 262.955078,113.1875 C264.57618,112.510413 266.395823,112.171875 268.414062,112.171875 C270.445323,112.171875 272.2552,112.53971 273.84375,113.275391 C275.4323,114.011071 276.666011,115.049472 277.544922,116.390625 C278.423833,117.731778 278.863281,119.2552 278.863281,120.960938 L273.003906,120.960938 C273.003906,119.658848 272.593754,118.646488 271.773438,117.923828 C270.953121,117.201168 269.800789,116.839844 268.316406,116.839844 C266.884107,116.839844 265.770837,117.142575 264.976562,117.748047 C264.182288,118.353519 263.785156,119.151037 263.785156,120.140625 C263.785156,121.065109 264.250646,121.839841 265.181641,122.464844 C266.112635,123.089847 267.483064,123.675779 269.292969,124.222656 C272.626319,125.225265 275.05468,126.468743 276.578125,127.953125 C278.10157,129.437507 278.863281,131.286447 278.863281,133.5 C278.863281,135.96095 277.932301,137.891269 276.070312,139.291016 C274.208324,140.690762 271.701839,141.390625 268.550781,141.390625 C266.36327,141.390625 264.371103,140.990238 262.574219,140.189453 C260.777335,139.388668 259.406906,138.291674 258.462891,136.898438 C257.518875,135.505201 257.046875,133.890634 257.046875,132.054688 L262.925781,132.054688 C262.925781,135.192724 264.800763,136.761719 268.550781,136.761719 C269.944017,136.761719 271.031246,136.478518 271.8125,135.912109 C272.593754,135.3457 272.984375,134.554693 272.984375,133.539062 Z M314.195312,117.308594 L305.484375,117.308594 L305.484375,141 L299.625,141 L299.625,117.308594 L291.03125,117.308594 L291.03125,112.5625 L314.195312,112.5625 L314.195312,117.308594 Z M323.765625,141 L317.90625,141 L317.90625,112.5625 L323.765625,112.5625 L323.765625,141 Z M336.851562,112.5625 L344.15625,133.1875 L351.421875,112.5625 L359.117188,112.5625 L359.117188,141 L353.238281,141 L353.238281,133.226562 L353.824219,119.808594 L346.148438,141 L342.125,141 L334.46875,119.828125 L335.054688,133.226562 L335.054688,141 L329.195312,141 L329.195312,112.5625 L336.851562,112.5625 Z M381.34375,128.675781 L370.09375,128.675781 L370.09375,136.292969 L383.296875,136.292969 L383.296875,141 L364.234375,141 L364.234375,112.5625 L383.257812,112.5625 L383.257812,117.308594 L370.09375,117.308594 L370.09375,124.085938 L381.34375,124.085938 L381.34375,128.675781 Z" id="SERVERMINSTIME" fill="#FFFFFF" fill-rule="nonzero"></path>
            <rect id="Rectangle" fill="#ADFB5F" x="449" y="39" width="82" height="50" rx="3"></rect>
            <ellipse id="Oval" fill="#FFFFFF" cx="491" cy="64" rx="18" ry="19"></ellipse>
            <text id="$" font-family="Roboto-Bold, Roboto" font-size="30" font-weight="bold" fill="#509209">
                <tspan x="482.394043" y="75">$</tspan>
            </text>
            <text id="Custom-Item-1" font-family="Lato-Bold, Lato" font-size="40" font-weight="bold" fill="#949494">
                <tspan x="26.8" y="445">Custom Item 1</tspan>
            </text>
            <rect id="Rectangle" fill="#98CE00" x="189" y="286" width="166" height="102"></rect>
            <text id="AUTH" font-family="Roboto-Black, Roboto" font-size="35" font-weight="700" fill="#080B26">
                <tspan x="54" y="350">AUTH</tspan>
            </text>
            <text id="PAY" font-family="Roboto-Black, Roboto" font-size="35" font-weight="700" fill="#080B26">
                <tspan x="238" y="350">PAY</tspan>
            </text>
            <text id="CATALOG" font-family="Roboto-Black, Roboto" font-size="35" font-weight="700" fill="#080B26">
                <tspan x="364" y="349">CATALOG</tspan>
            </text>
        </g>
        <polygon id="Path-2" fill="#000000" opacity="0.825497582" points="24 244 24 325 194 325 194 379 24 379 24 756.684615 544 756.684615 544 374.684615 544 245 419 244.684615 319 244.684615 319 244"></polygon>
        <rect id="Rectangle" fill="#FFFFFF" x="61" y="47" width="449" height="126" rx="12"></rect>
        <path d="M126.921143,77.2324219 L130.079346,60.5390625 L134.897217,60.5390625 L129.692627,84 L124.826416,84 L121.007568,68.3056641 L117.188721,84 L112.32251,84 L107.11792,60.5390625 L111.935791,60.5390625 L115.110107,77.2001953 L118.977295,60.5390625 L123.070068,60.5390625 L126.921143,77.2324219 Z M156.601807,84 L151.767822,84 L151.767822,73.9453125 L142.341553,73.9453125 L142.341553,84 L137.507568,84 L137.507568,60.5390625 L142.341553,60.5390625 L142.341553,70.0458984 L151.767822,70.0458984 L151.767822,60.5390625 L156.601807,60.5390625 L156.601807,84 Z M180.094971,72.8012695 C180.094971,75.1108514 179.686772,77.1357335 178.870361,78.8759766 C178.053951,80.6162196 176.88575,81.9589796 175.365723,82.9042969 C173.845696,83.8496141 172.102793,84.3222656 170.136963,84.3222656 C168.192617,84.3222656 166.457771,83.8549851 164.932373,82.9204102 C163.406975,81.9858352 162.225346,80.6511317 161.387451,78.9162598 C160.549556,77.1813878 160.125244,75.1860464 160.114502,72.9301758 L160.114502,71.7700195 C160.114502,69.4604377 160.530758,67.427499 161.363281,65.6711426 C162.195805,63.9147861 163.372063,62.5666551 164.89209,61.626709 C166.412117,60.6867629 168.149648,60.2167969 170.104736,60.2167969 C172.059824,60.2167969 173.797356,60.6867629 175.317383,61.626709 C176.83741,62.5666551 178.013668,63.9147861 178.846191,65.6711426 C179.678715,67.427499 180.094971,69.4550666 180.094971,71.7539062 L180.094971,72.8012695 Z M175.196533,71.737793 C175.196533,69.2778197 174.756108,67.4086978 173.875244,66.1303711 C172.99438,64.8520444 171.737557,64.2128906 170.104736,64.2128906 C168.482658,64.2128906 167.231206,64.8439878 166.350342,66.1062012 C165.469478,67.3684145 165.023682,69.2187378 165.012939,71.6572266 L165.012939,72.8012695 C165.012939,75.1967893 165.453365,77.0551692 166.334229,78.3764648 C167.215092,79.6977605 168.482658,80.3583984 170.136963,80.3583984 C171.759041,80.3583984 173.005123,79.7219302 173.875244,78.4489746 C174.745366,77.176019 175.185791,75.3203247 175.196533,72.8818359 L175.196533,71.737793 Z M197.7229,73.8325195 L188.44165,73.8325195 L188.44165,80.1166992 L199.334229,80.1166992 L199.334229,84 L183.607666,84 L183.607666,60.5390625 L199.302002,60.5390625 L199.302002,64.4545898 L188.44165,64.4545898 L188.44165,70.0458984 L197.7229,70.0458984 L197.7229,73.8325195 Z M210.839111,78.1831055 L216.156494,60.5390625 L221.53833,60.5390625 L213.368896,84 L208.325439,84 L200.188232,60.5390625 L205.553955,60.5390625 L210.839111,78.1831055 Z M237.861084,73.8325195 L228.579834,73.8325195 L228.579834,80.1166992 L239.472412,80.1166992 L239.472412,84 L223.74585,84 L223.74585,60.5390625 L239.440186,60.5390625 L239.440186,64.4545898 L228.579834,64.4545898 L228.579834,70.0458984 L237.861084,70.0458984 L237.861084,73.8325195 Z M250.993408,75.4116211 L247.142334,75.4116211 L247.142334,84 L242.30835,84 L242.30835,60.5390625 L251.025635,60.5390625 C253.797133,60.5390625 255.934807,61.1567321 257.438721,62.3920898 C258.942634,63.6274476 259.69458,65.3730356 259.69458,67.6289062 C259.69458,69.2295002 259.348148,70.5642036 258.655273,71.6330566 C257.962399,72.7019096 256.912361,73.5532195 255.505127,74.1870117 L260.580811,83.7744141 L260.580811,84 L255.392334,84 L250.993408,75.4116211 Z M247.142334,71.4960938 L251.041748,71.4960938 C252.255621,71.4960938 253.195553,71.1872589 253.861572,70.5695801 C254.527591,69.9519012 254.860596,69.1005914 254.860596,68.015625 C254.860596,66.9091742 254.54639,66.0390657 253.917969,65.4052734 C253.289548,64.7714812 252.325446,64.4545898 251.025635,64.4545898 L247.142334,64.4545898 L247.142334,71.4960938 Z M276.726318,84 L271.892334,84 L271.892334,60.5390625 L276.726318,60.5390625 L276.726318,84 Z M293.371338,77.8447266 C293.371338,76.9316361 293.049075,76.2307153 292.404541,75.7419434 C291.760007,75.2531714 290.599862,74.7375515 288.924072,74.1950684 C287.248283,73.6525852 285.921636,73.1181667 284.944092,72.5917969 C282.280016,71.1523366 280.947998,69.2133911 280.947998,66.7749023 C280.947998,65.5073179 281.305172,64.376714 282.019531,63.3830566 C282.73389,62.3893993 283.759759,61.613284 285.097168,61.0546875 C286.434577,60.496091 287.935783,60.2167969 289.60083,60.2167969 C291.27662,60.2167969 292.769769,60.5202606 294.080322,61.1271973 C295.390876,61.7341339 296.408688,62.5908148 297.133789,63.6972656 C297.85889,64.8037165 298.221436,66.0605398 298.221436,67.4677734 L293.387451,67.4677734 C293.387451,66.3935493 293.049076,65.5583526 292.372314,64.9621582 C291.695553,64.3659638 290.744879,64.0678711 289.520264,64.0678711 C288.338617,64.0678711 287.420169,64.3176245 286.764893,64.8171387 C286.109616,65.3166529 285.781982,65.9746053 285.781982,66.7910156 C285.781982,67.5537148 286.166012,68.1928685 286.934082,68.7084961 C287.702152,69.2241237 288.832756,69.7075173 290.325928,70.1586914 C293.075941,70.985844 295.079339,72.0117126 296.336182,73.2363281 C297.593024,74.4609436 298.221436,75.986319 298.221436,77.8125 C298.221436,79.8427836 297.453377,81.435297 295.917236,82.5900879 C294.381096,83.7448788 292.313245,84.3222656 289.713623,84.3222656 C287.908927,84.3222656 286.265388,83.9919467 284.782959,83.3312988 C283.30053,82.670651 282.169926,81.7656307 281.391113,80.6162109 C280.612301,79.4667911 280.2229,78.1347732 280.2229,76.6201172 L285.072998,76.6201172 C285.072998,79.2089973 286.619858,80.503418 289.713623,80.503418 C290.863043,80.503418 291.760007,80.2697777 292.404541,79.8024902 C293.049075,79.3352027 293.371338,78.6826214 293.371338,77.8447266 Z M321.875732,77.8447266 C321.875732,76.9316361 321.55347,76.2307153 320.908936,75.7419434 C320.264401,75.2531714 319.104256,74.7375515 317.428467,74.1950684 C315.752677,73.6525852 314.42603,73.1181667 313.448486,72.5917969 C310.784411,71.1523366 309.452393,69.2133911 309.452393,66.7749023 C309.452393,65.5073179 309.809567,64.376714 310.523926,63.3830566 C311.238285,62.3893993 312.264153,61.613284 313.601562,61.0546875 C314.938972,60.496091 316.440177,60.2167969 318.105225,60.2167969 C319.781014,60.2167969 321.274163,60.5202606 322.584717,61.1271973 C323.89527,61.7341339 324.913082,62.5908148 325.638184,63.6972656 C326.363285,64.8037165 326.72583,66.0605398 326.72583,67.4677734 L321.891846,67.4677734 C321.891846,66.3935493 321.55347,65.5583526 320.876709,64.9621582 C320.199948,64.3659638 319.249274,64.0678711 318.024658,64.0678711 C316.843012,64.0678711 315.924564,64.3176245 315.269287,64.8171387 C314.61401,65.3166529 314.286377,65.9746053 314.286377,66.7910156 C314.286377,67.5537148 314.670406,68.1928685 315.438477,68.7084961 C316.206547,69.2241237 317.337151,69.7075173 318.830322,70.1586914 C321.580336,70.985844 323.583734,72.0117126 324.840576,73.2363281 C326.097418,74.4609436 326.72583,75.986319 326.72583,77.8125 C326.72583,79.8427836 325.957771,81.435297 324.421631,82.5900879 C322.88549,83.7448788 320.81764,84.3222656 318.218018,84.3222656 C316.413321,84.3222656 314.769783,83.9919467 313.287354,83.3312988 C311.804924,82.670651 310.67432,81.7656307 309.895508,80.6162109 C309.116695,79.4667911 308.727295,78.1347732 308.727295,76.6201172 L313.577393,76.6201172 C313.577393,79.2089973 315.124252,80.503418 318.218018,80.503418 C319.367437,80.503418 320.264401,80.2697777 320.908936,79.8024902 C321.55347,79.3352027 321.875732,78.6826214 321.875732,77.8447266 Z M335.136963,84 L330.302979,84 L330.302979,60.5390625 L335.136963,60.5390625 L335.136963,84 Z M358.178955,81.0351562 C357.308834,82.0771536 356.078865,82.8854952 354.489014,83.4602051 C352.899162,84.034915 351.137461,84.3222656 349.203857,84.3222656 C347.173574,84.3222656 345.393074,83.8791548 343.862305,82.9929199 C342.331535,82.106685 341.149907,80.8203209 340.317383,79.1337891 C339.484859,77.4472572 339.057861,75.4653434 339.036377,73.1879883 L339.036377,71.5927734 C339.036377,69.2509649 339.431148,67.2233972 340.220703,65.5100098 C341.010258,63.7966223 342.148918,62.4860885 343.636719,61.5783691 C345.124519,60.6706498 346.867422,60.2167969 348.865479,60.2167969 C351.647719,60.2167969 353.82299,60.8801203 355.391357,62.2067871 C356.959725,63.5334539 357.888915,65.4643428 358.178955,67.9995117 L353.473877,67.9995117 C353.259032,66.6567316 352.783695,65.6738312 352.047852,65.0507812 C351.312008,64.4277313 350.299567,64.1162109 349.010498,64.1162109 C347.366935,64.1162109 346.115483,64.7338805 345.256104,65.9692383 C344.396724,67.204596 343.96167,69.0414917 343.950928,71.4799805 L343.950928,72.9785156 C343.950928,75.4384889 344.418208,77.2968687 345.352783,78.5537109 C346.287358,79.8105532 347.656973,80.4389648 349.46167,80.4389648 C351.277109,80.4389648 352.571529,80.05225 353.344971,79.2788086 L353.344971,75.234375 L348.946045,75.234375 L348.946045,71.6733398 L358.178955,71.6733398 L358.178955,81.0351562 Z M381.172607,84 L376.338623,84 L366.928467,68.5634766 L366.928467,84 L362.094482,84 L362.094482,60.5390625 L366.928467,60.5390625 L376.354736,76.0078125 L376.354736,60.5390625 L381.172607,60.5390625 L381.172607,84 Z M399.509521,73.8325195 L390.228271,73.8325195 L390.228271,80.1166992 L401.12085,80.1166992 L401.12085,84 L385.394287,84 L385.394287,60.5390625 L401.088623,60.5390625 L401.088623,64.4545898 L390.228271,64.4545898 L390.228271,70.0458984 L399.509521,70.0458984 L399.509521,73.8325195 Z M403.956787,84 L403.956787,60.5390625 L411.175537,60.5390625 C413.238047,60.5390625 415.083,61.0036575 416.710449,61.9328613 C418.337899,62.8620652 419.60815,64.183341 420.52124,65.8967285 C421.434331,67.610116 421.890869,69.557118 421.890869,71.737793 L421.890869,72.8173828 C421.890869,74.9980578 421.442387,76.9370032 420.54541,78.6342773 C419.648433,80.3315515 418.383553,81.6474563 416.750732,82.5820312 C415.117912,83.5166062 413.275645,83.9892578 411.223877,84 L403.956787,84 Z M408.790771,64.4545898 L408.790771,80.1166992 L411.127197,80.1166992 C413.017832,80.1166992 414.462641,79.4990296 415.46167,78.2636719 C416.460698,77.0283141 416.970947,75.261242 416.992432,72.9624023 L416.992432,71.7216797 C416.992432,69.3369021 416.498296,67.5295472 415.51001,66.2995605 C414.521724,65.0695739 413.076914,64.4545898 411.175537,64.4545898 L408.790771,64.4545898 Z M438.761475,84 L433.92749,84 L433.92749,60.5390625 L438.761475,60.5390625 L438.761475,84 Z M462.319092,84 L457.485107,84 L448.074951,68.5634766 L448.074951,84 L443.240967,84 L443.240967,60.5390625 L448.074951,60.5390625 L457.501221,76.0078125 L457.501221,60.5390625 L462.319092,60.5390625 L462.319092,84 Z M105.119873,103.45459 L97.9333496,103.45459 L97.9333496,123 L93.0993652,123 L93.0993652,103.45459 L86.0095215,103.45459 L86.0095215,99.5390625 L105.119873,99.5390625 L105.119873,103.45459 Z M127.146729,111.80127 C127.146729,114.110851 126.738529,116.135733 125.922119,117.875977 C125.105709,119.61622 123.937508,120.95898 122.41748,121.904297 C120.897453,122.849614 119.154551,123.322266 117.188721,123.322266 C115.244375,123.322266 113.509529,122.854985 111.984131,121.92041 C110.458733,120.985835 109.277104,119.651132 108.439209,117.91626 C107.601314,116.181388 107.177002,114.186046 107.16626,111.930176 L107.16626,110.77002 C107.16626,108.460438 107.582515,106.427499 108.415039,104.671143 C109.247563,102.914786 110.423821,101.566655 111.943848,100.626709 C113.463875,99.6867629 115.201406,99.2167969 117.156494,99.2167969 C119.111582,99.2167969 120.849113,99.6867629 122.369141,100.626709 C123.889168,101.566655 125.065426,102.914786 125.897949,104.671143 C126.730473,106.427499 127.146729,108.455067 127.146729,110.753906 L127.146729,111.80127 Z M122.248291,110.737793 C122.248291,108.27782 121.807866,106.408698 120.927002,105.130371 C120.046138,103.852044 118.789315,103.212891 117.156494,103.212891 C115.534416,103.212891 114.282963,103.843988 113.4021,105.106201 C112.521236,106.368415 112.07544,108.218738 112.064697,110.657227 L112.064697,111.80127 C112.064697,114.196789 112.505123,116.055169 113.385986,117.376465 C114.26685,118.697761 115.534416,119.358398 117.188721,119.358398 C118.810799,119.358398 120.05688,118.72193 120.927002,117.448975 C121.797123,116.176019 122.237549,114.320325 122.248291,111.881836 L122.248291,110.737793 Z M156.537354,103.45459 L149.35083,103.45459 L149.35083,123 L144.516846,123 L144.516846,103.45459 L137.427002,103.45459 L137.427002,99.5390625 L156.537354,99.5390625 L156.537354,103.45459 Z M178.386963,123 L173.552979,123 L173.552979,112.945312 L164.126709,112.945312 L164.126709,123 L159.292725,123 L159.292725,99.5390625 L164.126709,99.5390625 L164.126709,109.045898 L173.552979,109.045898 L173.552979,99.5390625 L178.386963,99.5390625 L178.386963,123 Z M196.723877,112.83252 L187.442627,112.83252 L187.442627,119.116699 L198.335205,119.116699 L198.335205,123 L182.608643,123 L182.608643,99.5390625 L198.302979,99.5390625 L198.302979,103.45459 L187.442627,103.45459 L187.442627,109.045898 L196.723877,109.045898 L196.723877,112.83252 Z M214.2229,114.733887 L214.2229,123 L209.388916,123 L209.388916,99.5390625 L218.54126,99.5390625 C220.302987,99.5390625 221.852532,99.8613249 223.189941,100.505859 C224.52735,101.150394 225.555905,102.066156 226.275635,103.253174 C226.995365,104.440191 227.355225,105.791008 227.355225,107.305664 C227.355225,109.604504 226.568367,111.41723 224.994629,112.743896 C223.420891,114.070563 221.242934,114.733887 218.460693,114.733887 L214.2229,114.733887 Z M214.2229,110.818359 L218.54126,110.818359 C219.819586,110.818359 220.79443,110.517581 221.46582,109.916016 C222.13721,109.31445 222.4729,108.455084 222.4729,107.337891 C222.4729,106.188471 222.134525,105.259281 221.457764,104.550293 C220.781002,103.841305 219.846442,103.476074 218.654053,103.45459 L214.2229,103.45459 L214.2229,110.818359 Z M249.946045,111.80127 C249.946045,114.110851 249.537846,116.135733 248.721436,117.875977 C247.905025,119.61622 246.736824,120.95898 245.216797,121.904297 C243.69677,122.849614 241.953867,123.322266 239.988037,123.322266 C238.043691,123.322266 236.308846,122.854985 234.783447,121.92041 C233.258049,120.985835 232.07642,119.651132 231.238525,117.91626 C230.400631,116.181388 229.976318,114.186046 229.965576,111.930176 L229.965576,110.77002 C229.965576,108.460438 230.381832,106.427499 231.214355,104.671143 C232.046879,102.914786 233.223137,101.566655 234.743164,100.626709 C236.263191,99.6867629 238.000723,99.2167969 239.955811,99.2167969 C241.910898,99.2167969 243.64843,99.6867629 245.168457,100.626709 C246.688484,101.566655 247.864742,102.914786 248.697266,104.671143 C249.529789,106.427499 249.946045,108.455067 249.946045,110.753906 L249.946045,111.80127 Z M245.047607,110.737793 C245.047607,108.27782 244.607182,106.408698 243.726318,105.130371 C242.845455,103.852044 241.588631,103.212891 239.955811,103.212891 C238.333732,103.212891 237.08228,103.843988 236.201416,105.106201 C235.320552,106.368415 234.874756,108.218738 234.864014,110.657227 L234.864014,111.80127 C234.864014,114.196789 235.304439,116.055169 236.185303,117.376465 C237.066167,118.697761 238.333732,119.358398 239.988037,119.358398 C241.610116,119.358398 242.856197,118.72193 243.726318,117.448975 C244.59644,116.176019 245.036865,114.320325 245.047607,111.881836 L245.047607,110.737793 Z M261.547607,110.109375 L266.429932,99.5390625 L271.715088,99.5390625 L264.012939,114.492188 L264.012939,123 L259.098389,123 L259.098389,114.492188 L251.39624,99.5390625 L256.69751,99.5390625 L261.547607,110.109375 Z M292.936279,123 L288.102295,123 L278.692139,107.563477 L278.692139,123 L273.858154,123 L273.858154,99.5390625 L278.692139,99.5390625 L288.118408,115.007812 L288.118408,99.5390625 L292.936279,99.5390625 L292.936279,123 Z M314.818115,103.45459 L307.631592,103.45459 L307.631592,123 L302.797607,123 L302.797607,103.45459 L295.707764,103.45459 L295.707764,99.5390625 L314.818115,99.5390625 L314.818115,103.45459 Z M343.451416,103.45459 L336.264893,103.45459 L336.264893,123 L331.430908,123 L331.430908,103.45459 L324.341064,103.45459 L324.341064,99.5390625 L343.451416,99.5390625 L343.451416,103.45459 Z M360.322021,112.83252 L351.040771,112.83252 L351.040771,119.116699 L361.93335,119.116699 L361.93335,123 L346.206787,123 L346.206787,99.5390625 L361.901123,99.5390625 L361.901123,103.45459 L351.040771,103.45459 L351.040771,109.045898 L360.322021,109.045898 L360.322021,112.83252 Z M373.454346,114.411621 L369.603271,114.411621 L369.603271,123 L364.769287,123 L364.769287,99.5390625 L373.486572,99.5390625 C376.25807,99.5390625 378.395744,100.156732 379.899658,101.39209 C381.403572,102.627448 382.155518,104.373036 382.155518,106.628906 C382.155518,108.2295 381.809085,109.564204 381.116211,110.633057 C380.423336,111.70191 379.373298,112.553219 377.966064,113.187012 L383.041748,122.774414 L383.041748,123 L377.853271,123 L373.454346,114.411621 Z M369.603271,110.496094 L373.502686,110.496094 C374.716559,110.496094 375.656491,110.187259 376.32251,109.56958 C376.988529,108.951901 377.321533,108.100591 377.321533,107.015625 C377.321533,105.909174 377.007327,105.039066 376.378906,104.405273 C375.750485,103.771481 374.786383,103.45459 373.486572,103.45459 L369.603271,103.45459 L369.603271,110.496094 Z M392.145752,99.5390625 L398.172119,116.554688 L404.16626,99.5390625 L410.514893,99.5390625 L410.514893,123 L405.664795,123 L405.664795,116.586914 L406.148193,105.51709 L399.815674,123 L396.496338,123 L390.179932,105.533203 L390.66333,116.586914 L390.66333,123 L385.829346,123 L385.829346,99.5390625 L392.145752,99.5390625 Z M419.876709,123 L415.042725,123 L415.042725,99.5390625 L419.876709,99.5390625 L419.876709,123 Z M443.434326,123 L438.600342,123 L429.190186,107.563477 L429.190186,123 L424.356201,123 L424.356201,99.5390625 L429.190186,99.5390625 L438.616455,115.007812 L438.616455,99.5390625 L443.434326,99.5390625 L443.434326,123 Z M460.901123,118.166016 L452.425537,118.166016 L450.814209,123 L445.674072,123 L454.407471,99.5390625 L458.886963,99.5390625 L467.668701,123 L462.528564,123 L460.901123,118.166016 Z M453.730713,114.250488 L459.595947,114.250488 L456.647217,105.46875 L453.730713,114.250488 Z M474.694092,119.116699 L484.958252,119.116699 L484.958252,123 L469.860107,123 L469.860107,99.5390625 L474.694092,99.5390625 L474.694092,119.116699 Z M142.067627,155.232422 L145.22583,138.539062 L150.043701,138.539062 L144.839111,162 L139.9729,162 L136.154053,146.305664 L132.335205,162 L127.468994,162 L122.264404,138.539062 L127.082275,138.539062 L130.256592,155.200195 L134.123779,138.539062 L138.216553,138.539062 L142.067627,155.232422 Z M157.794189,162 L152.960205,162 L152.960205,138.539062 L157.794189,138.539062 L157.794189,162 Z M167.107666,158.116699 L177.371826,158.116699 L177.371826,162 L162.273682,162 L162.273682,138.539062 L167.107666,138.539062 L167.107666,158.116699 Z M184.977295,158.116699 L195.241455,158.116699 L195.241455,162 L180.143311,162 L180.143311,138.539062 L184.977295,138.539062 L184.977295,158.116699 Z M218.39624,155.844727 C218.39624,154.931636 218.073978,154.230715 217.429443,153.741943 C216.784909,153.253171 215.624764,152.737552 213.948975,152.195068 C212.273185,151.652585 210.946538,151.118167 209.968994,150.591797 C207.304918,149.152337 205.9729,147.213391 205.9729,144.774902 C205.9729,143.507318 206.330075,142.376714 207.044434,141.383057 C207.758793,140.389399 208.784661,139.613284 210.12207,139.054688 C211.459479,138.496091 212.960685,138.216797 214.625732,138.216797 C216.301522,138.216797 217.794671,138.520261 219.105225,139.127197 C220.415778,139.734134 221.43359,140.590815 222.158691,141.697266 C222.883793,142.803716 223.246338,144.06054 223.246338,145.467773 L218.412354,145.467773 C218.412354,144.393549 218.073978,143.558353 217.397217,142.962158 C216.720456,142.365964 215.769782,142.067871 214.545166,142.067871 C213.363519,142.067871 212.445072,142.317624 211.789795,142.817139 C211.134518,143.316653 210.806885,143.974605 210.806885,144.791016 C210.806885,145.553715 211.190914,146.192869 211.958984,146.708496 C212.727055,147.224124 213.857659,147.707517 215.35083,148.158691 C218.100844,148.985844 220.104242,150.011713 221.361084,151.236328 C222.617926,152.460944 223.246338,153.986319 223.246338,155.8125 C223.246338,157.842784 222.478279,159.435297 220.942139,160.590088 C219.405998,161.744879 217.338148,162.322266 214.738525,162.322266 C212.933829,162.322266 211.290291,161.991947 209.807861,161.331299 C208.325432,160.670651 207.194828,159.765631 206.416016,158.616211 C205.637203,157.466791 205.247803,156.134773 205.247803,154.620117 L210.0979,154.620117 C210.0979,157.208997 211.64476,158.503418 214.738525,158.503418 C215.887945,158.503418 216.784909,158.269778 217.429443,157.80249 C218.073978,157.335203 218.39624,156.682621 218.39624,155.844727 Z M245.611572,162 L240.777588,162 L240.777588,151.945312 L231.351318,151.945312 L231.351318,162 L226.517334,162 L226.517334,138.539062 L231.351318,138.539062 L231.351318,148.045898 L240.777588,148.045898 L240.777588,138.539062 L245.611572,138.539062 L245.611572,162 Z M269.104736,150.80127 C269.104736,153.110851 268.696537,155.135733 267.880127,156.875977 C267.063717,158.61622 265.895515,159.95898 264.375488,160.904297 C262.855461,161.849614 261.112559,162.322266 259.146729,162.322266 C257.202383,162.322266 255.467537,161.854985 253.942139,160.92041 C252.41674,159.985835 251.235112,158.651132 250.397217,156.91626 C249.559322,155.181388 249.13501,153.186046 249.124268,150.930176 L249.124268,149.77002 C249.124268,147.460438 249.540523,145.427499 250.373047,143.671143 C251.205571,141.914786 252.381828,140.566655 253.901855,139.626709 C255.421883,138.686763 257.159414,138.216797 259.114502,138.216797 C261.06959,138.216797 262.807121,138.686763 264.327148,139.626709 C265.847176,140.566655 267.023433,141.914786 267.855957,143.671143 C268.688481,145.427499 269.104736,147.455067 269.104736,149.753906 L269.104736,150.80127 Z M264.206299,149.737793 C264.206299,147.27782 263.765874,145.408698 262.88501,144.130371 C262.004146,142.852044 260.747323,142.212891 259.114502,142.212891 C257.492424,142.212891 256.240971,142.843988 255.360107,144.106201 C254.479244,145.368415 254.033447,147.218738 254.022705,149.657227 L254.022705,150.80127 C254.022705,153.196789 254.46313,155.055169 255.343994,156.376465 C256.224858,157.697761 257.492423,158.358398 259.146729,158.358398 C260.768807,158.358398 262.014888,157.72193 262.88501,156.448975 C263.755131,155.176019 264.195557,153.320325 264.206299,150.881836 L264.206299,149.737793 Z M290.889893,155.232422 L294.048096,138.539062 L298.865967,138.539062 L293.661377,162 L288.795166,162 L284.976318,146.305664 L281.157471,162 L276.29126,162 L271.08667,138.539062 L275.904541,138.539062 L279.078857,155.200195 L282.946045,138.539062 L287.038818,138.539062 L290.889893,155.232422 Z M327.450928,138.539062 L327.450928,153.991699 C327.450928,156.559095 326.647957,158.589348 325.041992,160.08252 C323.436027,161.575691 321.241957,162.322266 318.459717,162.322266 C315.720445,162.322266 313.545174,161.597175 311.933838,160.146973 C310.322502,158.69677 309.500733,156.704114 309.468506,154.168945 L309.468506,138.539062 L314.30249,138.539062 L314.30249,154.023926 C314.30249,155.560066 314.670406,156.679928 315.40625,157.383545 C316.142094,158.087162 317.159906,158.438965 318.459717,158.438965 C321.177504,158.438965 322.557861,157.010268 322.60083,154.152832 L322.60083,138.539062 L327.450928,138.539062 Z M336.248779,153.733887 L336.248779,162 L331.414795,162 L331.414795,138.539062 L340.567139,138.539062 C342.328866,138.539062 343.878411,138.861325 345.21582,139.505859 C346.553229,140.150394 347.581784,141.066156 348.301514,142.253174 C349.021244,143.440191 349.381104,144.791008 349.381104,146.305664 C349.381104,148.604504 348.594246,150.41723 347.020508,151.743896 C345.446769,153.070563 343.268813,153.733887 340.486572,153.733887 L336.248779,153.733887 Z M336.248779,149.818359 L340.567139,149.818359 C341.845465,149.818359 342.820309,149.517581 343.491699,148.916016 C344.163089,148.31445 344.498779,147.455084 344.498779,146.337891 C344.498779,145.188471 344.160404,144.259281 343.483643,143.550293 C342.806881,142.841305 341.87232,142.476074 340.679932,142.45459 L336.248779,142.45459 L336.248779,149.818359 Z M380.012451,162 L375.178467,162 L375.178467,151.945312 L365.752197,151.945312 L365.752197,162 L360.918213,162 L360.918213,138.539062 L365.752197,138.539062 L365.752197,148.045898 L375.178467,148.045898 L375.178467,138.539062 L380.012451,138.539062 L380.012451,162 Z M398.349365,151.83252 L389.068115,151.83252 L389.068115,158.116699 L399.960693,158.116699 L399.960693,162 L384.234131,162 L384.234131,138.539062 L399.928467,138.539062 L399.928467,142.45459 L389.068115,142.45459 L389.068115,148.045898 L398.349365,148.045898 L398.349365,151.83252 Z M411.481689,153.411621 L407.630615,153.411621 L407.630615,162 L402.796631,162 L402.796631,138.539062 L411.513916,138.539062 C414.285414,138.539062 416.423088,139.156732 417.927002,140.39209 C419.430916,141.627448 420.182861,143.373036 420.182861,145.628906 C420.182861,147.2295 419.836429,148.564204 419.143555,149.633057 C418.45068,150.70191 417.400642,151.553219 415.993408,152.187012 L421.069092,161.774414 L421.069092,162 L415.880615,162 L411.481689,153.411621 Z M407.630615,149.496094 L411.530029,149.496094 C412.743903,149.496094 413.683835,149.187259 414.349854,148.56958 C415.015872,147.951901 415.348877,147.100591 415.348877,146.015625 C415.348877,144.909174 415.034671,144.039066 414.40625,143.405273 C413.777829,142.771481 412.813727,142.45459 411.513916,142.45459 L407.630615,142.45459 L407.630615,149.496094 Z M437.971924,151.83252 L428.690674,151.83252 L428.690674,158.116699 L439.583252,158.116699 L439.583252,162 L423.856689,162 L423.856689,138.539062 L439.551025,138.539062 L439.551025,142.45459 L428.690674,142.45459 L428.690674,148.045898 L437.971924,148.045898 L437.971924,151.83252 Z M446.850342,154.797363 L442.983154,154.797363 L442.435303,138.539062 L447.398193,138.539062 L446.850342,154.797363 Z M444.916748,157.343262 C445.700932,157.343262 446.332029,157.574216 446.810059,158.036133 C447.288088,158.498049 447.5271,159.088864 447.5271,159.808594 C447.5271,160.517582 447.288088,161.103025 446.810059,161.564941 C446.332029,162.026858 445.700932,162.257812 444.916748,162.257812 C444.143307,162.257812 443.517581,162.026858 443.039551,161.564941 C442.561521,161.103025 442.32251,160.517582 442.32251,159.808594 C442.32251,159.099606 442.561521,158.511477 443.039551,158.044189 C443.517581,157.576902 444.143307,157.343262 444.916748,157.343262 Z" id="WHOEVERISSIGNEDINTOTHEPOYNTTERMINALWILLSHOWUPHERE!" fill="#000000" fill-rule="nonzero"></path>
        <path id="Line-2" d="M99.985,279 L99.985,160 L107.985,160 L107.985,279 L125.985,279 L103.985,323 L81.985,279 L99.985,279 Z" fill="#FFFFFF" fill-rule="nonzero"></path>
    </g>
</svg>