<?xml version="1.0" encoding="UTF-8"?>
<svg width="570px" height="792px" viewBox="0 0 570 792" version="1.1" xmlns="http://www.w3.org/2000/svg" xmlns:xlink="http://www.w3.org/1999/xlink">
    <!-- Generator: Sketch 54.1 (76490) - https://sketchapp.com -->
    <title>6_create_en</title>
    <desc>Created with Sketch.</desc>
    <g id="6_create_en" stroke="none" stroke-width="1" fill="none" fill-rule="evenodd">
        <rect fill="#00B0FF" x="0" y="0" width="570" height="792"></rect>
        <g id="Group-3" transform="translate(12.000000, 225.000000)">
            <rect id="Rectangle" fill="#0B0C24" x="0" y="0" width="547" height="547" rx="13"></rect>
            <path d="M12,286 L189,286 L189,388 L25,388 C17.8202983,388 12,382.179702 12,375 L12,286 Z" id="Rectangle" fill="#0098CE"></path>
            <path d="M355,286 L532,286 L532,388 L368,388 C360.820298,388 355,382.179702 355,375 L355,286 Z" id="Rectangle" fill="#0098CE" transform="translate(443.500000, 337.000000) scale(-1, 1) translate(-443.500000, -337.000000) "></path>
            <rect id="Rectangle" stroke="#979797" fill="#FFFFFF" x="12.5" y="400.5" width="519" height="64"></rect>
            <path d="M12,465 L532,465 L532,519 C532,525.075132 527.075132,530 521,530 L23,530 C16.9248678,530 12,525.075132 12,519 L12,465 Z" id="Rectangle" fill="#0098CE"></path>
            <text id="ADD-ITEM" font-family="Lato-Bold, Lato" font-size="40" font-weight="bold" fill="#FFFFFF">
                <tspan x="180" y="508">ADD ITEM</tspan>
            </text>
            <text id="-$0.00" font-family="Roboto-Bold, Roboto" font-size="30" font-weight="bold" fill="#FF0088">
                <tspan x="423.805664" y="243">-$0.00</tspan>
            </text>
            <text id="Discount:" font-family="Roboto-Bold, Roboto" font-size="30" font-weight="bold" fill="#00E7FF">
                <tspan x="403.324219" y="189">Discount:</tspan>
            </text>
            <text id="Sub:-Tax:-Tip:" font-family="Roboto-Bold, Roboto" font-size="30" font-weight="bold" fill="#00E7FF">
                <tspan x="21.4140625" y="189">Sub:</tspan>
                <tspan x="23.6259766" y="224">Tax:</tspan>
                <tspan x="30.1298828" y="259">Tip:</tspan>
            </text>
            <text id="$0.00" font-family="Lato-Bold, Lato" font-size="40" font-weight="bold" fill="#659B00">
                <tspan x="411.7" y="446">$0.00</tspan>
            </text>
            <text id="CUSTOMER-1" font-family="Roboto-Bold, Roboto" font-size="40" font-weight="bold" fill="#FFFFFF">
                <tspan x="34.2851562" y="76">CUSTOMER 1</tspan>
            </text>
            <rect id="Rectangle" stroke-opacity="0.329200634" stroke="#00C9FE" stroke-width="3" x="21.5" y="28.5" width="269" height="67" rx="6"></rect>
            <rect id="Rectangle" stroke-opacity="0.329200634" stroke="#00C9FE" stroke-width="3" x="405.5" y="210.5" width="125" height="47" rx="6"></rect>
            <text id="$0.00" font-family="Lato-Bold, Lato" font-size="60" font-weight="bold" fill="#FFFFFF">
                <tspan x="188.55" y="256">$0.00</tspan>
            </text>
            <text id="OPEN" font-family="Roboto-Bold, Roboto" font-size="40" font-weight="bold" fill="#FFFFFF">
                <tspan x="424.419922" y="141">OPEN</tspan>
            </text>
            <path d="M41.2851562,133.539062 C41.2851562,132.432286 40.8945352,131.582685 40.1132812,130.990234 C39.3320273,130.397783 37.9257914,129.77279 35.8945312,129.115234 C33.8632711,128.457679 32.2552143,127.809899 31.0703125,127.171875 C27.8411297,125.427075 26.2265625,123.076838 26.2265625,120.121094 C26.2265625,118.584628 26.6595009,117.214199 27.5253906,116.009766 C28.3912804,114.805333 29.6347575,113.864587 31.2558594,113.1875 C32.8769612,112.510413 34.6966045,112.171875 36.7148438,112.171875 C38.7461039,112.171875 40.5559816,112.53971 42.1445312,113.275391 C43.7330809,114.011071 44.9667925,115.049472 45.8457031,116.390625 C46.7246138,117.731778 47.1640625,119.2552 47.1640625,120.960938 L41.3046875,120.960938 C41.3046875,119.658848 40.8945354,118.646488 40.0742188,117.923828 C39.2539021,117.201168 38.1015699,116.839844 36.6171875,116.839844 C35.1848887,116.839844 34.0716186,117.142575 33.2773438,117.748047 C32.4830689,118.353519 32.0859375,119.151037 32.0859375,120.140625 C32.0859375,121.065109 32.5514276,121.839841 33.4824219,122.464844 C34.4134161,123.089847 35.7838451,123.675779 37.59375,124.222656 C40.9271,125.225265 43.3554611,126.468743 44.8789062,127.953125 C46.4023514,129.437507 47.1640625,131.286447 47.1640625,133.5 C47.1640625,135.96095 46.2330822,137.891269 44.3710938,139.291016 C42.5091053,140.690762 40.0026199,141.390625 36.8515625,141.390625 C34.6640516,141.390625 32.671884,140.990238 30.875,140.189453 C29.078116,139.388668 27.707687,138.291674 26.7636719,136.898438 C25.8196567,135.505201 25.3476562,133.890634 25.3476562,132.054688 L31.2265625,132.054688 C31.2265625,135.192724 33.1015438,136.761719 36.8515625,136.761719 C38.2447986,136.761719 39.3320273,136.478518 40.1132812,135.912109 C40.8945352,135.3457 41.2851562,134.554693 41.2851562,133.539062 Z M68.2382812,128.675781 L56.9882812,128.675781 L56.9882812,136.292969 L70.1914062,136.292969 L70.1914062,141 L51.1289062,141 L51.1289062,112.5625 L70.1523438,112.5625 L70.1523438,117.308594 L56.9882812,117.308594 L56.9882812,124.085938 L68.2382812,124.085938 L68.2382812,128.675781 Z M84.15625,130.589844 L79.4882812,130.589844 L79.4882812,141 L73.6289062,141 L73.6289062,112.5625 L84.1953125,112.5625 C87.5547043,112.5625 90.1458242,113.31119 91.96875,114.808594 C93.7916758,116.305997 94.703125,118.421861 94.703125,121.15625 C94.703125,123.096364 94.2832073,124.714186 93.4433594,126.009766 C92.6035114,127.305345 91.3307377,128.337236 89.625,129.105469 L95.7773438,140.726562 L95.7773438,141 L89.4882812,141 L84.15625,130.589844 Z M79.4882812,125.84375 L84.2148438,125.84375 C85.6862053,125.84375 86.8255168,125.469405 87.6328125,124.720703 C88.4401082,123.972001 88.84375,122.940111 88.84375,121.625 C88.84375,120.283847 88.4628944,119.229171 87.7011719,118.460938 C86.9394493,117.692704 85.7708412,117.308594 84.1953125,117.308594 L79.4882812,117.308594 L79.4882812,125.84375 Z M109.664062,133.949219 L116.109375,112.5625 L122.632812,112.5625 L112.730469,141 L106.617188,141 L96.7539062,112.5625 L103.257812,112.5625 L109.664062,133.949219 Z M142.417969,128.675781 L131.167969,128.675781 L131.167969,136.292969 L144.371094,136.292969 L144.371094,141 L125.308594,141 L125.308594,112.5625 L144.332031,112.5625 L144.332031,117.308594 L131.167969,117.308594 L131.167969,124.085938 L142.417969,124.085938 L142.417969,128.675781 Z M158.335938,130.589844 L153.667969,130.589844 L153.667969,141 L147.808594,141 L147.808594,112.5625 L158.375,112.5625 C161.734392,112.5625 164.325512,113.31119 166.148438,114.808594 C167.971363,116.305997 168.882812,118.421861 168.882812,121.15625 C168.882812,123.096364 168.462895,124.714186 167.623047,126.009766 C166.783199,127.305345 165.510425,128.337236 163.804688,129.105469 L169.957031,140.726562 L169.957031,141 L163.667969,141 L158.335938,130.589844 Z M153.667969,125.84375 L158.394531,125.84375 C159.865893,125.84375 161.005204,125.469405 161.8125,124.720703 C162.619796,123.972001 163.023438,122.940111 163.023438,121.625 C163.023438,120.283847 162.642582,119.229171 161.880859,118.460938 C161.119137,117.692704 159.950529,117.308594 158.375,117.308594 L153.667969,117.308594 L153.667969,125.84375 Z M190.953125,112.5625 L198.257812,133.1875 L205.523438,112.5625 L213.21875,112.5625 L213.21875,141 L207.339844,141 L207.339844,133.226562 L207.925781,119.808594 L200.25,141 L196.226562,141 L188.570312,119.828125 L189.15625,133.226562 L189.15625,141 L183.296875,141 L183.296875,112.5625 L190.953125,112.5625 Z M224.566406,141 L218.707031,141 L218.707031,112.5625 L224.566406,112.5625 L224.566406,141 Z M253.121094,141 L247.261719,141 L235.855469,122.289062 L235.855469,141 L229.996094,141 L229.996094,112.5625 L235.855469,112.5625 L247.28125,131.3125 L247.28125,112.5625 L253.121094,112.5625 L253.121094,141 Z M272.984375,133.539062 C272.984375,132.432286 272.593754,131.582685 271.8125,130.990234 C271.031246,130.397783 269.62501,129.77279 267.59375,129.115234 C265.56249,128.457679 263.954433,127.809899 262.769531,127.171875 C259.540348,125.427075 257.925781,123.076838 257.925781,120.121094 C257.925781,118.584628 258.35872,117.214199 259.224609,116.009766 C260.090499,114.805333 261.333976,113.864587 262.955078,113.1875 C264.57618,112.510413 266.395823,112.171875 268.414062,112.171875 C270.445323,112.171875 272.2552,112.53971 273.84375,113.275391 C275.4323,114.011071 276.666011,115.049472 277.544922,116.390625 C278.423833,117.731778 278.863281,119.2552 278.863281,120.960938 L273.003906,120.960938 C273.003906,119.658848 272.593754,118.646488 271.773438,117.923828 C270.953121,117.201168 269.800789,116.839844 268.316406,116.839844 C266.884107,116.839844 265.770837,117.142575 264.976562,117.748047 C264.182288,118.353519 263.785156,119.151037 263.785156,120.140625 C263.785156,121.065109 264.250646,121.839841 265.181641,122.464844 C266.112635,123.089847 267.483064,123.675779 269.292969,124.222656 C272.626319,125.225265 275.05468,126.468743 276.578125,127.953125 C278.10157,129.437507 278.863281,131.286447 278.863281,133.5 C278.863281,135.96095 277.932301,137.891269 276.070312,139.291016 C274.208324,140.690762 271.701839,141.390625 268.550781,141.390625 C266.36327,141.390625 264.371103,140.990238 262.574219,140.189453 C260.777335,139.388668 259.406906,138.291674 258.462891,136.898438 C257.518875,135.505201 257.046875,133.890634 257.046875,132.054688 L262.925781,132.054688 C262.925781,135.192724 264.800763,136.761719 268.550781,136.761719 C269.944017,136.761719 271.031246,136.478518 271.8125,135.912109 C272.593754,135.3457 272.984375,134.554693 272.984375,133.539062 Z M314.195312,117.308594 L305.484375,117.308594 L305.484375,141 L299.625,141 L299.625,117.308594 L291.03125,117.308594 L291.03125,112.5625 L314.195312,112.5625 L314.195312,117.308594 Z M323.765625,141 L317.90625,141 L317.90625,112.5625 L323.765625,112.5625 L323.765625,141 Z M336.851562,112.5625 L344.15625,133.1875 L351.421875,112.5625 L359.117188,112.5625 L359.117188,141 L353.238281,141 L353.238281,133.226562 L353.824219,119.808594 L346.148438,141 L342.125,141 L334.46875,119.828125 L335.054688,133.226562 L335.054688,141 L329.195312,141 L329.195312,112.5625 L336.851562,112.5625 Z M381.34375,128.675781 L370.09375,128.675781 L370.09375,136.292969 L383.296875,136.292969 L383.296875,141 L364.234375,141 L364.234375,112.5625 L383.257812,112.5625 L383.257812,117.308594 L370.09375,117.308594 L370.09375,124.085938 L381.34375,124.085938 L381.34375,128.675781 Z" id="SERVERMINSTIME" fill="#FFFFFF" fill-rule="nonzero"></path>
            <rect id="Rectangle" fill="#ADFB5F" x="449" y="39" width="82" height="50" rx="3"></rect>
            <ellipse id="Oval" fill="#FFFFFF" cx="491" cy="64" rx="18" ry="19"></ellipse>
            <text id="$" font-family="Roboto-Bold, Roboto" font-size="30" font-weight="bold" fill="#509209">
                <tspan x="482.394043" y="75">$</tspan>
            </text>
            <text id="Custom-Item-1" font-family="Lato-Bold, Lato" font-size="40" font-weight="bold" fill="#949494">
                <tspan x="26.8" y="445">Custom Item 1</tspan>
            </text>
            <rect id="Rectangle" fill="#98CE00" x="189" y="286" width="166" height="102"></rect>
            <text id="AUTH" font-family="Roboto-Black, Roboto" font-size="35" font-weight="700" fill="#080B26">
                <tspan x="54" y="350">AUTH</tspan>
            </text>
            <text id="PAY" font-family="Roboto-Black, Roboto" font-size="35" font-weight="700" fill="#080B26">
                <tspan x="238" y="350">PAY</tspan>
            </text>
            <text id="CATALOG" font-family="Roboto-Black, Roboto" font-size="35" font-weight="700" fill="#080B26">
                <tspan x="364" y="349">CATALOG</tspan>
            </text>
        </g>
        <polygon id="Path-2" fill="#000000" opacity="0.825497582" points="24 244 24 325 188 325 404 325 404 379 189 379 189 325 24 325 24 756.684615 544 756.684615 544 374.684615 544 245 419 244.684615 319 244.684615 319 244"></polygon>
        <rect id="Rectangle" fill="#FFFFFF" x="61" y="47" width="449" height="126" rx="12"></rect>
        <path d="M139.900391,64.4545898 L132.713867,64.4545898 L132.713867,84 L127.879883,84 L127.879883,64.4545898 L120.790039,64.4545898 L120.790039,60.5390625 L139.900391,60.5390625 L139.900391,64.4545898 Z M161.75,84 L156.916016,84 L156.916016,73.9453125 L147.489746,73.9453125 L147.489746,84 L142.655762,84 L142.655762,60.5390625 L147.489746,60.5390625 L147.489746,70.0458984 L156.916016,70.0458984 L156.916016,60.5390625 L161.75,60.5390625 L161.75,84 Z M171.111816,84 L166.277832,84 L166.277832,60.5390625 L171.111816,60.5390625 L171.111816,84 Z M187.756836,77.8447266 C187.756836,76.9316361 187.434574,76.2307153 186.790039,75.7419434 C186.145505,75.2531714 184.98536,74.7375515 183.30957,74.1950684 C181.633781,73.6525852 180.307134,73.1181667 179.32959,72.5917969 C176.665514,71.1523366 175.333496,69.2133911 175.333496,66.7749023 C175.333496,65.5073179 175.69067,64.376714 176.405029,63.3830566 C177.119388,62.3893993 178.145257,61.613284 179.482666,61.0546875 C180.820075,60.496091 182.321281,60.2167969 183.986328,60.2167969 C185.662118,60.2167969 187.155267,60.5202606 188.46582,61.1271973 C189.776374,61.7341339 190.794186,62.5908148 191.519287,63.6972656 C192.244388,64.8037165 192.606934,66.0605398 192.606934,67.4677734 L187.772949,67.4677734 C187.772949,66.3935493 187.434574,65.5583526 186.757812,64.9621582 C186.081051,64.3659638 185.130377,64.0678711 183.905762,64.0678711 C182.724115,64.0678711 181.805667,64.3176245 181.150391,64.8171387 C180.495114,65.3166529 180.16748,65.9746053 180.16748,66.7910156 C180.16748,67.5537148 180.55151,68.1928685 181.31958,68.7084961 C182.08765,69.2241237 183.218254,69.7075173 184.711426,70.1586914 C187.46144,70.985844 189.464837,72.0117126 190.72168,73.2363281 C191.978522,74.4609436 192.606934,75.986319 192.606934,77.8125 C192.606934,79.8427836 191.838875,81.435297 190.302734,82.5900879 C188.766594,83.7448788 186.698743,84.3222656 184.099121,84.3222656 C182.294425,84.3222656 180.650886,83.9919467 179.168457,83.3312988 C177.686028,82.670651 176.555424,81.7656307 175.776611,80.6162109 C174.997799,79.4667911 174.608398,78.1347732 174.608398,76.6201172 L179.458496,76.6201172 C179.458496,79.2089973 181.005356,80.503418 184.099121,80.503418 C185.248541,80.503418 186.145505,80.2697777 186.790039,79.8024902 C187.434574,79.3352027 187.756836,78.6826214 187.756836,77.8447266 Z M209.23584,84 L204.401855,84 L204.401855,60.5390625 L209.23584,60.5390625 L209.23584,84 Z M225.880859,77.8447266 C225.880859,76.9316361 225.558597,76.2307153 224.914062,75.7419434 C224.269528,75.2531714 223.109383,74.7375515 221.433594,74.1950684 C219.757804,73.6525852 218.431157,73.1181667 217.453613,72.5917969 C214.789537,71.1523366 213.45752,69.2133911 213.45752,66.7749023 C213.45752,65.5073179 213.814694,64.376714 214.529053,63.3830566 C215.243412,62.3893993 216.26928,61.613284 217.606689,61.0546875 C218.944098,60.496091 220.445304,60.2167969 222.110352,60.2167969 C223.786141,60.2167969 225.27929,60.5202606 226.589844,61.1271973 C227.900397,61.7341339 228.918209,62.5908148 229.643311,63.6972656 C230.368412,64.8037165 230.730957,66.0605398 230.730957,67.4677734 L225.896973,67.4677734 C225.896973,66.3935493 225.558597,65.5583526 224.881836,64.9621582 C224.205075,64.3659638 223.254401,64.0678711 222.029785,64.0678711 C220.848139,64.0678711 219.929691,64.3176245 219.274414,64.8171387 C218.619137,65.3166529 218.291504,65.9746053 218.291504,66.7910156 C218.291504,67.5537148 218.675533,68.1928685 219.443604,68.7084961 C220.211674,69.2241237 221.342278,69.7075173 222.835449,70.1586914 C225.585463,70.985844 227.588861,72.0117126 228.845703,73.2363281 C230.102545,74.4609436 230.730957,75.986319 230.730957,77.8125 C230.730957,79.8427836 229.962898,81.435297 228.426758,82.5900879 C226.890617,83.7448788 224.822767,84.3222656 222.223145,84.3222656 C220.418448,84.3222656 218.77491,83.9919467 217.29248,83.3312988 C215.810051,82.670651 214.679447,81.7656307 213.900635,80.6162109 C213.121822,79.4667911 212.732422,78.1347732 212.732422,76.6201172 L217.58252,76.6201172 C217.58252,79.2089973 219.129379,80.503418 222.223145,80.503418 C223.372564,80.503418 224.269528,80.2697777 224.914062,79.8024902 C225.558597,79.3352027 225.880859,78.6826214 225.880859,77.8447266 Z M259.879883,64.4545898 L252.693359,64.4545898 L252.693359,84 L247.859375,84 L247.859375,64.4545898 L240.769531,64.4545898 L240.769531,60.5390625 L259.879883,60.5390625 L259.879883,64.4545898 Z M281.729492,84 L276.895508,84 L276.895508,73.9453125 L267.469238,73.9453125 L267.469238,84 L262.635254,84 L262.635254,60.5390625 L267.469238,60.5390625 L267.469238,70.0458984 L276.895508,70.0458984 L276.895508,60.5390625 L281.729492,60.5390625 L281.729492,84 Z M300.066406,73.8325195 L290.785156,73.8325195 L290.785156,80.1166992 L301.677734,80.1166992 L301.677734,84 L285.951172,84 L285.951172,60.5390625 L301.645508,60.5390625 L301.645508,64.4545898 L290.785156,64.4545898 L290.785156,70.0458984 L300.066406,70.0458984 L300.066406,73.8325195 Z M326.84668,73.8325195 L317.56543,73.8325195 L317.56543,80.1166992 L328.458008,80.1166992 L328.458008,84 L312.731445,84 L312.731445,60.5390625 L328.425781,60.5390625 L328.425781,64.4545898 L317.56543,64.4545898 L317.56543,70.0458984 L326.84668,70.0458984 L326.84668,73.8325195 Z M336.12793,80.1166992 L346.39209,80.1166992 L346.39209,84 L331.293945,84 L331.293945,60.5390625 L336.12793,60.5390625 L336.12793,80.1166992 Z M362.408691,79.1660156 L353.933105,79.1660156 L352.321777,84 L347.181641,84 L355.915039,60.5390625 L360.394531,60.5390625 L369.17627,84 L364.036133,84 L362.408691,79.1660156 Z M355.238281,75.2504883 L361.103516,75.2504883 L358.154785,66.46875 L355.238281,75.2504883 Z M376.20166,75.7338867 L376.20166,84 L371.367676,84 L371.367676,60.5390625 L380.52002,60.5390625 C382.281747,60.5390625 383.831292,60.8613249 385.168701,61.5058594 C386.50611,62.1503938 387.534664,63.0661562 388.254395,64.2531738 C388.974125,65.4401915 389.333984,66.7910081 389.333984,68.3056641 C389.333984,70.6045037 388.547127,72.4172297 386.973389,73.7438965 C385.39965,75.0705633 383.221694,75.7338867 380.439453,75.7338867 L376.20166,75.7338867 Z M376.20166,71.8183594 L380.52002,71.8183594 C381.798346,71.8183594 382.77319,71.5175811 383.44458,70.9160156 C384.11597,70.3144501 384.45166,69.4550837 384.45166,68.3378906 C384.45166,67.1884708 384.113285,66.2592809 383.436523,65.550293 C382.759762,64.841305 381.825201,64.4760743 380.632812,64.4545898 L376.20166,64.4545898 L376.20166,71.8183594 Z M404.818848,77.8447266 C404.818848,76.9316361 404.496585,76.2307153 403.852051,75.7419434 C403.207516,75.2531714 402.047372,74.7375515 400.371582,74.1950684 C398.695792,73.6525852 397.369146,73.1181667 396.391602,72.5917969 C393.727526,71.1523366 392.395508,69.2133911 392.395508,66.7749023 C392.395508,65.5073179 392.752682,64.376714 393.467041,63.3830566 C394.1814,62.3893993 395.207269,61.613284 396.544678,61.0546875 C397.882087,60.496091 399.383292,60.2167969 401.04834,60.2167969 C402.724129,60.2167969 404.217279,60.5202606 405.527832,61.1271973 C406.838385,61.7341339 407.856198,62.5908148 408.581299,63.6972656 C409.3064,64.8037165 409.668945,66.0605398 409.668945,67.4677734 L404.834961,67.4677734 C404.834961,66.3935493 404.496585,65.5583526 403.819824,64.9621582 C403.143063,64.3659638 402.192389,64.0678711 400.967773,64.0678711 C399.786127,64.0678711 398.867679,64.3176245 398.212402,64.8171387 C397.557126,65.3166529 397.229492,65.9746053 397.229492,66.7910156 C397.229492,67.5537148 397.613522,68.1928685 398.381592,68.7084961 C399.149662,69.2241237 400.280266,69.7075173 401.773438,70.1586914 C404.523451,70.985844 406.526849,72.0117126 407.783691,73.2363281 C409.040534,74.4609436 409.668945,75.986319 409.668945,77.8125 C409.668945,79.8427836 408.900887,81.435297 407.364746,82.5900879 C405.828606,83.7448788 403.760755,84.3222656 401.161133,84.3222656 C399.356436,84.3222656 397.712898,83.9919467 396.230469,83.3312988 C394.748039,82.670651 393.617436,81.7656307 392.838623,80.6162109 C392.059811,79.4667911 391.67041,78.1347732 391.67041,76.6201172 L396.520508,76.6201172 C396.520508,79.2089973 398.067367,80.503418 401.161133,80.503418 C402.310553,80.503418 403.207516,80.2697777 403.852051,79.8024902 C404.496585,79.3352027 404.818848,78.6826214 404.818848,77.8447266 Z M427.055176,73.8325195 L417.773926,73.8325195 L417.773926,80.1166992 L428.666504,80.1166992 L428.666504,84 L412.939941,84 L412.939941,60.5390625 L428.634277,60.5390625 L428.634277,64.4545898 L417.773926,64.4545898 L417.773926,70.0458984 L427.055176,70.0458984 L427.055176,73.8325195 Z M431.502441,84 L431.502441,60.5390625 L438.721191,60.5390625 C440.783702,60.5390625 442.628654,61.0036575 444.256104,61.9328613 C445.883553,62.8620652 447.153804,64.183341 448.066895,65.8967285 C448.979985,67.610116 449.436523,69.557118 449.436523,71.737793 L449.436523,72.8173828 C449.436523,74.9980578 448.988042,76.9370032 448.091064,78.6342773 C447.194087,80.3315515 445.929207,81.6474563 444.296387,82.5820312 C442.663566,83.5166062 440.821299,83.9892578 438.769531,84 L431.502441,84 Z M436.336426,64.4545898 L436.336426,80.1166992 L438.672852,80.1166992 C440.563486,80.1166992 442.008296,79.4990296 443.007324,78.2636719 C444.006353,77.0283141 444.516601,75.261242 444.538086,72.9624023 L444.538086,71.7216797 C444.538086,69.3369021 444.04395,67.5295472 443.055664,66.2995605 C442.067378,65.0695739 440.622568,64.4545898 438.721191,64.4545898 L436.336426,64.4545898 Z M146.772705,103.45459 L139.586182,103.45459 L139.586182,123 L134.752197,123 L134.752197,103.45459 L127.662354,103.45459 L127.662354,99.5390625 L146.772705,99.5390625 L146.772705,103.45459 Z M154.668213,123 L149.834229,123 L149.834229,99.5390625 L154.668213,99.5390625 L154.668213,123 Z M165.464111,99.5390625 L171.490479,116.554688 L177.484619,99.5390625 L183.833252,99.5390625 L183.833252,123 L178.983154,123 L178.983154,116.586914 L179.466553,105.51709 L173.134033,123 L169.814697,123 L163.498291,105.533203 L163.981689,116.586914 L163.981689,123 L159.147705,123 L159.147705,99.5390625 L165.464111,99.5390625 Z M202.170166,112.83252 L192.888916,112.83252 L192.888916,119.116699 L203.781494,119.116699 L203.781494,123 L188.054932,123 L188.054932,99.5390625 L203.749268,99.5390625 L203.749268,103.45459 L192.888916,103.45459 L192.888916,109.045898 L202.170166,109.045898 L202.170166,112.83252 Z M207.519775,128.881348 L205.08667,127.608398 L205.666748,126.561035 C206.386478,125.250482 206.75708,123.945319 206.778564,122.645508 L206.778564,119.036133 L210.710205,119.036133 L210.694092,122.258789 C210.68335,123.451178 210.382571,124.654291 209.791748,125.868164 C209.200925,127.082037 208.443608,128.086422 207.519775,128.881348 Z M236.136963,118.166016 L227.661377,118.166016 L226.050049,123 L220.909912,123 L229.643311,99.5390625 L234.122803,99.5390625 L242.904541,123 L237.764404,123 L236.136963,118.166016 Z M228.966553,114.250488 L234.831787,114.250488 L231.883057,105.46875 L228.966553,114.250488 Z M264.174072,123 L259.340088,123 L249.929932,107.563477 L249.929932,123 L245.095947,123 L245.095947,99.5390625 L249.929932,99.5390625 L259.356201,115.007812 L259.356201,99.5390625 L264.174072,99.5390625 L264.174072,123 Z M268.395752,123 L268.395752,99.5390625 L275.614502,99.5390625 C277.677012,99.5390625 279.521965,100.003657 281.149414,100.932861 C282.776864,101.862065 284.047115,103.183341 284.960205,104.896729 C285.873296,106.610116 286.329834,108.557118 286.329834,110.737793 L286.329834,111.817383 C286.329834,113.998058 285.881352,115.937003 284.984375,117.634277 C284.087398,119.331551 282.822518,120.647456 281.189697,121.582031 C279.556877,122.516606 277.71461,122.989258 275.662842,123 L268.395752,123 Z M273.229736,103.45459 L273.229736,119.116699 L275.566162,119.116699 C277.456797,119.116699 278.901606,118.49903 279.900635,117.263672 C280.899663,116.028314 281.409912,114.261242 281.431396,111.962402 L281.431396,110.72168 C281.431396,108.336902 280.937261,106.529547 279.948975,105.299561 C278.960688,104.069574 277.515879,103.45459 275.614502,103.45459 L273.229736,103.45459 Z M315.720459,103.45459 L308.533936,103.45459 L308.533936,123 L303.699951,123 L303.699951,103.45459 L296.610107,103.45459 L296.610107,99.5390625 L315.720459,99.5390625 L315.720459,103.45459 Z M337.570068,123 L332.736084,123 L332.736084,112.945312 L323.309814,112.945312 L323.309814,123 L318.47583,123 L318.47583,99.5390625 L323.309814,99.5390625 L323.309814,109.045898 L332.736084,109.045898 L332.736084,99.5390625 L337.570068,99.5390625 L337.570068,123 Z M355.906982,112.83252 L346.625732,112.83252 L346.625732,119.116699 L357.518311,119.116699 L357.518311,123 L341.791748,123 L341.791748,99.5390625 L357.486084,99.5390625 L357.486084,103.45459 L346.625732,103.45459 L346.625732,109.045898 L355.906982,109.045898 L355.906982,112.83252 Z M386.232178,103.45459 L379.045654,103.45459 L379.045654,123 L374.21167,123 L374.21167,103.45459 L367.121826,103.45459 L367.121826,99.5390625 L386.232178,99.5390625 L386.232178,103.45459 Z M394.127686,123 L389.293701,123 L389.293701,99.5390625 L394.127686,99.5390625 L394.127686,123 Z M404.923584,99.5390625 L410.949951,116.554688 L416.944092,99.5390625 L423.292725,99.5390625 L423.292725,123 L418.442627,123 L418.442627,116.586914 L418.926025,105.51709 L412.593506,123 L409.27417,123 L402.957764,105.533203 L403.441162,116.586914 L403.441162,123 L398.607178,123 L398.607178,99.5390625 L404.923584,99.5390625 Z M441.629639,112.83252 L432.348389,112.83252 L432.348389,119.116699 L443.240967,119.116699 L443.240967,123 L427.514404,123 L427.514404,99.5390625 L443.20874,99.5390625 L443.20874,103.45459 L432.348389,103.45459 L432.348389,109.045898 L441.629639,109.045898 L441.629639,112.83252 Z M117.857422,142.45459 L110.670898,142.45459 L110.670898,162 L105.836914,162 L105.836914,142.45459 L98.7470703,142.45459 L98.7470703,138.539062 L117.857422,138.539062 L117.857422,142.45459 Z M139.707031,162 L134.873047,162 L134.873047,151.945312 L125.446777,151.945312 L125.446777,162 L120.612793,162 L120.612793,138.539062 L125.446777,138.539062 L125.446777,148.045898 L134.873047,148.045898 L134.873047,138.539062 L139.707031,138.539062 L139.707031,162 Z M158.043945,151.83252 L148.762695,151.83252 L148.762695,158.116699 L159.655273,158.116699 L159.655273,162 L143.928711,162 L143.928711,138.539062 L159.623047,138.539062 L159.623047,142.45459 L148.762695,142.45459 L148.762695,148.045898 L158.043945,148.045898 L158.043945,151.83252 Z M188.369141,142.45459 L181.182617,142.45459 L181.182617,162 L176.348633,162 L176.348633,142.45459 L169.258789,142.45459 L169.258789,138.539062 L188.369141,138.539062 L188.369141,142.45459 Z M204.369629,157.166016 L195.894043,157.166016 L194.282715,162 L189.142578,162 L197.875977,138.539062 L202.355469,138.539062 L211.137207,162 L205.99707,162 L204.369629,157.166016 Z M197.199219,153.250488 L203.064453,153.250488 L200.115723,144.46875 L197.199219,153.250488 Z M213.328613,162 L213.328613,138.539062 L221.546387,138.539062 C224.393081,138.539062 226.552239,139.084223 228.023926,140.174561 C229.495613,141.264898 230.231445,142.862782 230.231445,144.968262 C230.231445,146.117682 229.936038,147.130123 229.345215,148.005615 C228.754392,148.881108 227.932622,149.522947 226.879883,149.931152 C228.083014,150.231935 229.031002,150.838863 229.723877,151.751953 C230.416752,152.665044 230.763184,153.78222 230.763184,155.103516 C230.763184,157.359386 230.043464,159.067377 228.604004,160.227539 C227.164544,161.387701 225.112806,161.978516 222.44873,162 L213.328613,162 Z M218.162598,151.78418 L218.162598,158.116699 L222.303711,158.116699 C223.442389,158.116699 224.331296,157.845462 224.970459,157.302979 C225.609622,156.760495 225.929199,156.011235 225.929199,155.055176 C225.929199,152.906728 224.817394,151.816406 222.59375,151.78418 L218.162598,151.78418 Z M218.162598,148.368164 L221.739746,148.368164 C224.178235,148.325195 225.397461,147.353037 225.397461,145.45166 C225.397461,144.388178 225.088626,143.622805 224.470947,143.155518 C223.853268,142.68823 222.878425,142.45459 221.546387,142.45459 L218.162598,142.45459 L218.162598,148.368164 Z M260.878906,155.232422 L264.037109,138.539062 L268.85498,138.539062 L263.650391,162 L258.78418,162 L254.965332,146.305664 L251.146484,162 L246.280273,162 L241.075684,138.539062 L245.893555,138.539062 L249.067871,155.200195 L252.935059,138.539062 L257.027832,138.539062 L260.878906,155.232422 Z M284.710449,157.166016 L276.234863,157.166016 L274.623535,162 L269.483398,162 L278.216797,138.539062 L282.696289,138.539062 L291.478027,162 L286.337891,162 L284.710449,157.166016 Z M277.540039,153.250488 L283.405273,153.250488 L280.456543,144.46875 L277.540039,153.250488 Z M305.834961,155.844727 C305.834961,154.931636 305.512699,154.230715 304.868164,153.741943 C304.22363,153.253171 303.063485,152.737552 301.387695,152.195068 C299.711906,151.652585 298.385259,151.118167 297.407715,150.591797 C294.743639,149.152337 293.411621,147.213391 293.411621,144.774902 C293.411621,143.507318 293.768795,142.376714 294.483154,141.383057 C295.197513,140.389399 296.223382,139.613284 297.560791,139.054688 C298.8982,138.496091 300.399406,138.216797 302.064453,138.216797 C303.740243,138.216797 305.233392,138.520261 306.543945,139.127197 C307.854499,139.734134 308.872311,140.590815 309.597412,141.697266 C310.322513,142.803716 310.685059,144.06054 310.685059,145.467773 L305.851074,145.467773 C305.851074,144.393549 305.512699,143.558353 304.835938,142.962158 C304.159176,142.365964 303.208502,142.067871 301.983887,142.067871 C300.80224,142.067871 299.883792,142.317624 299.228516,142.817139 C298.573239,143.316653 298.245605,143.974605 298.245605,144.791016 C298.245605,145.553715 298.629635,146.192869 299.397705,146.708496 C300.165775,147.224124 301.296379,147.707517 302.789551,148.158691 C305.539565,148.985844 307.542962,150.011713 308.799805,151.236328 C310.056647,152.460944 310.685059,153.986319 310.685059,155.8125 C310.685059,157.842784 309.917,159.435297 308.380859,160.590088 C306.844719,161.744879 304.776868,162.322266 302.177246,162.322266 C300.37255,162.322266 298.729011,161.991947 297.246582,161.331299 C295.764153,160.670651 294.633549,159.765631 293.854736,158.616211 C293.075924,157.466791 292.686523,156.134773 292.686523,154.620117 L297.536621,154.620117 C297.536621,157.208997 299.083481,158.503418 302.177246,158.503418 C303.326666,158.503418 304.22363,158.269778 304.868164,157.80249 C305.512699,157.335203 305.834961,156.682621 305.834961,155.844727 Z M340.591309,154.185059 C340.40869,156.709485 339.476815,158.69677 337.795654,160.146973 C336.114494,161.597175 333.89894,162.322266 331.148926,162.322266 C328.141098,162.322266 325.775155,161.309825 324.051025,159.284912 C322.326896,157.26 321.464844,154.480486 321.464844,150.946289 L321.464844,149.512207 C321.464844,147.256336 321.862301,145.269052 322.657227,143.550293 C323.452152,141.831534 324.588127,140.512944 326.065186,139.594482 C327.542244,138.676021 329.258291,138.216797 331.213379,138.216797 C333.920424,138.216797 336.101066,138.941887 337.755371,140.39209 C339.409676,141.842292 340.365721,143.877917 340.623535,146.499023 L335.789551,146.499023 C335.671386,144.984367 335.249759,143.88599 334.524658,143.203857 C333.799557,142.521725 332.695808,142.180664 331.213379,142.180664 C329.602043,142.180664 328.396244,142.758051 327.595947,143.912842 C326.79565,145.067633 326.384766,146.858875 326.363281,149.286621 L326.363281,151.059082 C326.363281,153.594251 326.747311,155.44726 327.515381,156.618164 C328.283451,157.789068 329.494621,158.374512 331.148926,158.374512 C332.642097,158.374512 333.756588,158.033451 334.492432,157.351318 C335.228275,156.669186 335.649902,155.613777 335.757324,154.185059 L340.591309,154.185059 Z M352.450684,153.411621 L348.599609,153.411621 L348.599609,162 L343.765625,162 L343.765625,138.539062 L352.48291,138.539062 C355.254408,138.539062 357.392082,139.156732 358.895996,140.39209 C360.39991,141.627448 361.151855,143.373036 361.151855,145.628906 C361.151855,147.2295 360.805423,148.564204 360.112549,149.633057 C359.419674,150.70191 358.369636,151.553219 356.962402,152.187012 L362.038086,161.774414 L362.038086,162 L356.849609,162 L352.450684,153.411621 Z M348.599609,149.496094 L352.499023,149.496094 C353.712897,149.496094 354.652829,149.187259 355.318848,148.56958 C355.984867,147.951901 356.317871,147.100591 356.317871,146.015625 C356.317871,144.909174 356.003665,144.039066 355.375244,143.405273 C354.746823,142.771481 353.782721,142.45459 352.48291,142.45459 L348.599609,142.45459 L348.599609,149.496094 Z M378.940918,151.83252 L369.659668,151.83252 L369.659668,158.116699 L380.552246,158.116699 L380.552246,162 L364.825684,162 L364.825684,138.539062 L380.52002,138.539062 L380.52002,142.45459 L369.659668,142.45459 L369.659668,148.045898 L378.940918,148.045898 L378.940918,151.83252 Z M396.633301,157.166016 L388.157715,157.166016 L386.546387,162 L381.40625,162 L390.139648,138.539062 L394.619141,138.539062 L403.400879,162 L398.260742,162 L396.633301,157.166016 Z M389.462891,153.250488 L395.328125,153.250488 L392.379395,144.46875 L389.462891,153.250488 Z M423.252441,142.45459 L416.065918,142.45459 L416.065918,162 L411.231934,162 L411.231934,142.45459 L404.14209,142.45459 L404.14209,138.539062 L423.252441,138.539062 L423.252441,142.45459 Z M440.123047,151.83252 L430.841797,151.83252 L430.841797,158.116699 L441.734375,158.116699 L441.734375,162 L426.007812,162 L426.007812,138.539062 L441.702148,138.539062 L441.702148,142.45459 L430.841797,142.45459 L430.841797,148.045898 L440.123047,148.045898 L440.123047,151.83252 Z M444.570312,162 L444.570312,138.539062 L451.789062,138.539062 C453.851573,138.539062 455.696525,139.003657 457.323975,139.932861 C458.951424,140.862065 460.221675,142.183341 461.134766,143.896729 C462.047856,145.610116 462.504395,147.557118 462.504395,149.737793 L462.504395,150.817383 C462.504395,152.998058 462.055913,154.937003 461.158936,156.634277 C460.261958,158.331551 458.997078,159.647456 457.364258,160.582031 C455.731437,161.516606 453.88917,161.989258 451.837402,162 L444.570312,162 Z M449.404297,142.45459 L449.404297,158.116699 L451.740723,158.116699 C453.631357,158.116699 455.076167,157.49903 456.075195,156.263672 C457.074224,155.028314 457.584473,153.261242 457.605957,150.962402 L457.605957,149.72168 C457.605957,147.336902 457.111821,145.529547 456.123535,144.299561 C455.135249,143.069574 453.690439,142.45459 451.789062,142.45459 L449.404297,142.45459 Z M470.448242,154.797363 L466.581055,154.797363 L466.033203,138.539062 L470.996094,138.539062 L470.448242,154.797363 Z M468.514648,157.343262 C469.298832,157.343262 469.929929,157.574216 470.407959,158.036133 C470.885989,158.498049 471.125,159.088864 471.125,159.808594 C471.125,160.517582 470.885989,161.103025 470.407959,161.564941 C469.929929,162.026858 469.298832,162.257812 468.514648,162.257812 C467.741207,162.257812 467.115481,162.026858 466.637451,161.564941 C466.159421,161.103025 465.92041,160.517582 465.92041,159.808594 C465.92041,159.099606 466.159421,158.511477 466.637451,158.044189 C467.115481,157.576902 467.741207,157.343262 468.514648,157.343262 Z" id="THISISTHEELAPSEDTIME,ANDTHETIMETHETABWASCREATED!" fill="#000000" fill-rule="nonzero"></path>
        <path id="Line-2" d="M243.485,289 L243.485,170 L251.485,170 L251.485,289 L269.485,289 L247.485,333 L225.485,289 L243.485,289 Z" fill="#FFFFFF" fill-rule="nonzero"></path>
    </g>
</svg>