<?xml version="1.0" encoding="UTF-8"?>
<svg width="570px" height="792px" viewBox="0 0 570 792" version="1.1" xmlns="http://www.w3.org/2000/svg" xmlns:xlink="http://www.w3.org/1999/xlink">
    <!-- Generator: Sketch 54.1 (76490) - https://sketchapp.com -->
    <title>7_create_en</title>
    <desc>Created with Sketch.</desc>
    <g id="7_create_en" stroke="none" stroke-width="1" fill="none" fill-rule="evenodd">
        <rect fill="#00B0FF" x="0" y="0" width="570" height="792"></rect>
        <g id="Group-3" transform="translate(12.000000, 225.000000)">
            <rect id="Rectangle" fill="#0B0C24" x="0" y="0" width="547" height="547" rx="13"></rect>
            <path d="M12,286 L189,286 L189,388 L25,388 C17.8202983,388 12,382.179702 12,375 L12,286 Z" id="Rectangle" fill="#0098CE"></path>
            <path d="M355,286 L532,286 L532,388 L368,388 C360.820298,388 355,382.179702 355,375 L355,286 Z" id="Rectangle" fill="#0098CE" transform="translate(443.500000, 337.000000) scale(-1, 1) translate(-443.500000, -337.000000) "></path>
            <rect id="Rectangle" stroke="#979797" fill="#FFFFFF" x="12.5" y="400.5" width="519" height="64"></rect>
            <path d="M12,465 L532,465 L532,519 C532,525.075132 527.075132,530 521,530 L23,530 C16.9248678,530 12,525.075132 12,519 L12,465 Z" id="Rectangle" fill="#0098CE"></path>
            <text id="ADD-ITEM" font-family="Lato-Bold, Lato" font-size="40" font-weight="bold" fill="#FFFFFF">
                <tspan x="180" y="508">ADD ITEM</tspan>
            </text>
            <text id="-$0.00" font-family="Roboto-Bold, Roboto" font-size="30" font-weight="bold" fill="#FF0088">
                <tspan x="423.805664" y="243">-$0.00</tspan>
            </text>
            <text id="Discount:" font-family="Roboto-Bold, Roboto" font-size="30" font-weight="bold" fill="#00E7FF">
                <tspan x="403.324219" y="189">Discount:</tspan>
            </text>
            <text id="Sub:-Tax:-Tip:" font-family="Roboto-Bold, Roboto" font-size="30" font-weight="bold" fill="#00E7FF">
                <tspan x="21.4140625" y="189">Sub:</tspan>
                <tspan x="23.6259766" y="224">Tax:</tspan>
                <tspan x="30.1298828" y="259">Tip:</tspan>
            </text>
            <text id="$0.00" font-family="Lato-Bold, Lato" font-size="40" font-weight="bold" fill="#659B00">
                <tspan x="411.7" y="446">$0.00</tspan>
            </text>
            <text id="CUSTOMER-1" font-family="Roboto-Bold, Roboto" font-size="40" font-weight="bold" fill="#FFFFFF">
                <tspan x="34.2851562" y="76">CUSTOMER 1</tspan>
            </text>
            <rect id="Rectangle" stroke-opacity="0.329200634" stroke="#00C9FE" stroke-width="3" x="21.5" y="28.5" width="269" height="67" rx="6"></rect>
            <rect id="Rectangle" stroke-opacity="0.329200634" stroke="#00C9FE" stroke-width="3" x="405.5" y="210.5" width="125" height="47" rx="6"></rect>
            <text id="$0.00" font-family="Lato-Bold, Lato" font-size="60" font-weight="bold" fill="#FFFFFF">
                <tspan x="188.55" y="256">$0.00</tspan>
            </text>
            <text id="OPEN" font-family="Roboto-Bold, Roboto" font-size="40" font-weight="bold" fill="#FFFFFF">
                <tspan x="424.419922" y="141">OPEN</tspan>
            </text>
            <path d="M41.2851562,133.539062 C41.2851562,132.432286 40.8945352,131.582685 40.1132812,130.990234 C39.3320273,130.397783 37.9257914,129.77279 35.8945312,129.115234 C33.8632711,128.457679 32.2552143,127.809899 31.0703125,127.171875 C27.8411297,125.427075 26.2265625,123.076838 26.2265625,120.121094 C26.2265625,118.584628 26.6595009,117.214199 27.5253906,116.009766 C28.3912804,114.805333 29.6347575,113.864587 31.2558594,113.1875 C32.8769612,112.510413 34.6966045,112.171875 36.7148438,112.171875 C38.7461039,112.171875 40.5559816,112.53971 42.1445312,113.275391 C43.7330809,114.011071 44.9667925,115.049472 45.8457031,116.390625 C46.7246138,117.731778 47.1640625,119.2552 47.1640625,120.960938 L41.3046875,120.960938 C41.3046875,119.658848 40.8945354,118.646488 40.0742188,117.923828 C39.2539021,117.201168 38.1015699,116.839844 36.6171875,116.839844 C35.1848887,116.839844 34.0716186,117.142575 33.2773438,117.748047 C32.4830689,118.353519 32.0859375,119.151037 32.0859375,120.140625 C32.0859375,121.065109 32.5514276,121.839841 33.4824219,122.464844 C34.4134161,123.089847 35.7838451,123.675779 37.59375,124.222656 C40.9271,125.225265 43.3554611,126.468743 44.8789062,127.953125 C46.4023514,129.437507 47.1640625,131.286447 47.1640625,133.5 C47.1640625,135.96095 46.2330822,137.891269 44.3710938,139.291016 C42.5091053,140.690762 40.0026199,141.390625 36.8515625,141.390625 C34.6640516,141.390625 32.671884,140.990238 30.875,140.189453 C29.078116,139.388668 27.707687,138.291674 26.7636719,136.898438 C25.8196567,135.505201 25.3476562,133.890634 25.3476562,132.054688 L31.2265625,132.054688 C31.2265625,135.192724 33.1015438,136.761719 36.8515625,136.761719 C38.2447986,136.761719 39.3320273,136.478518 40.1132812,135.912109 C40.8945352,135.3457 41.2851562,134.554693 41.2851562,133.539062 Z M68.2382812,128.675781 L56.9882812,128.675781 L56.9882812,136.292969 L70.1914062,136.292969 L70.1914062,141 L51.1289062,141 L51.1289062,112.5625 L70.1523438,112.5625 L70.1523438,117.308594 L56.9882812,117.308594 L56.9882812,124.085938 L68.2382812,124.085938 L68.2382812,128.675781 Z M84.15625,130.589844 L79.4882812,130.589844 L79.4882812,141 L73.6289062,141 L73.6289062,112.5625 L84.1953125,112.5625 C87.5547043,112.5625 90.1458242,113.31119 91.96875,114.808594 C93.7916758,116.305997 94.703125,118.421861 94.703125,121.15625 C94.703125,123.096364 94.2832073,124.714186 93.4433594,126.009766 C92.6035114,127.305345 91.3307377,128.337236 89.625,129.105469 L95.7773438,140.726562 L95.7773438,141 L89.4882812,141 L84.15625,130.589844 Z M79.4882812,125.84375 L84.2148438,125.84375 C85.6862053,125.84375 86.8255168,125.469405 87.6328125,124.720703 C88.4401082,123.972001 88.84375,122.940111 88.84375,121.625 C88.84375,120.283847 88.4628944,119.229171 87.7011719,118.460938 C86.9394493,117.692704 85.7708412,117.308594 84.1953125,117.308594 L79.4882812,117.308594 L79.4882812,125.84375 Z M109.664062,133.949219 L116.109375,112.5625 L122.632812,112.5625 L112.730469,141 L106.617188,141 L96.7539062,112.5625 L103.257812,112.5625 L109.664062,133.949219 Z M142.417969,128.675781 L131.167969,128.675781 L131.167969,136.292969 L144.371094,136.292969 L144.371094,141 L125.308594,141 L125.308594,112.5625 L144.332031,112.5625 L144.332031,117.308594 L131.167969,117.308594 L131.167969,124.085938 L142.417969,124.085938 L142.417969,128.675781 Z M158.335938,130.589844 L153.667969,130.589844 L153.667969,141 L147.808594,141 L147.808594,112.5625 L158.375,112.5625 C161.734392,112.5625 164.325512,113.31119 166.148438,114.808594 C167.971363,116.305997 168.882812,118.421861 168.882812,121.15625 C168.882812,123.096364 168.462895,124.714186 167.623047,126.009766 C166.783199,127.305345 165.510425,128.337236 163.804688,129.105469 L169.957031,140.726562 L169.957031,141 L163.667969,141 L158.335938,130.589844 Z M153.667969,125.84375 L158.394531,125.84375 C159.865893,125.84375 161.005204,125.469405 161.8125,124.720703 C162.619796,123.972001 163.023438,122.940111 163.023438,121.625 C163.023438,120.283847 162.642582,119.229171 161.880859,118.460938 C161.119137,117.692704 159.950529,117.308594 158.375,117.308594 L153.667969,117.308594 L153.667969,125.84375 Z M190.953125,112.5625 L198.257812,133.1875 L205.523438,112.5625 L213.21875,112.5625 L213.21875,141 L207.339844,141 L207.339844,133.226562 L207.925781,119.808594 L200.25,141 L196.226562,141 L188.570312,119.828125 L189.15625,133.226562 L189.15625,141 L183.296875,141 L183.296875,112.5625 L190.953125,112.5625 Z M224.566406,141 L218.707031,141 L218.707031,112.5625 L224.566406,112.5625 L224.566406,141 Z M253.121094,141 L247.261719,141 L235.855469,122.289062 L235.855469,141 L229.996094,141 L229.996094,112.5625 L235.855469,112.5625 L247.28125,131.3125 L247.28125,112.5625 L253.121094,112.5625 L253.121094,141 Z M272.984375,133.539062 C272.984375,132.432286 272.593754,131.582685 271.8125,130.990234 C271.031246,130.397783 269.62501,129.77279 267.59375,129.115234 C265.56249,128.457679 263.954433,127.809899 262.769531,127.171875 C259.540348,125.427075 257.925781,123.076838 257.925781,120.121094 C257.925781,118.584628 258.35872,117.214199 259.224609,116.009766 C260.090499,114.805333 261.333976,113.864587 262.955078,113.1875 C264.57618,112.510413 266.395823,112.171875 268.414062,112.171875 C270.445323,112.171875 272.2552,112.53971 273.84375,113.275391 C275.4323,114.011071 276.666011,115.049472 277.544922,116.390625 C278.423833,117.731778 278.863281,119.2552 278.863281,120.960938 L273.003906,120.960938 C273.003906,119.658848 272.593754,118.646488 271.773438,117.923828 C270.953121,117.201168 269.800789,116.839844 268.316406,116.839844 C266.884107,116.839844 265.770837,117.142575 264.976562,117.748047 C264.182288,118.353519 263.785156,119.151037 263.785156,120.140625 C263.785156,121.065109 264.250646,121.839841 265.181641,122.464844 C266.112635,123.089847 267.483064,123.675779 269.292969,124.222656 C272.626319,125.225265 275.05468,126.468743 276.578125,127.953125 C278.10157,129.437507 278.863281,131.286447 278.863281,133.5 C278.863281,135.96095 277.932301,137.891269 276.070312,139.291016 C274.208324,140.690762 271.701839,141.390625 268.550781,141.390625 C266.36327,141.390625 264.371103,140.990238 262.574219,140.189453 C260.777335,139.388668 259.406906,138.291674 258.462891,136.898438 C257.518875,135.505201 257.046875,133.890634 257.046875,132.054688 L262.925781,132.054688 C262.925781,135.192724 264.800763,136.761719 268.550781,136.761719 C269.944017,136.761719 271.031246,136.478518 271.8125,135.912109 C272.593754,135.3457 272.984375,134.554693 272.984375,133.539062 Z M314.195312,117.308594 L305.484375,117.308594 L305.484375,141 L299.625,141 L299.625,117.308594 L291.03125,117.308594 L291.03125,112.5625 L314.195312,112.5625 L314.195312,117.308594 Z M323.765625,141 L317.90625,141 L317.90625,112.5625 L323.765625,112.5625 L323.765625,141 Z M336.851562,112.5625 L344.15625,133.1875 L351.421875,112.5625 L359.117188,112.5625 L359.117188,141 L353.238281,141 L353.238281,133.226562 L353.824219,119.808594 L346.148438,141 L342.125,141 L334.46875,119.828125 L335.054688,133.226562 L335.054688,141 L329.195312,141 L329.195312,112.5625 L336.851562,112.5625 Z M381.34375,128.675781 L370.09375,128.675781 L370.09375,136.292969 L383.296875,136.292969 L383.296875,141 L364.234375,141 L364.234375,112.5625 L383.257812,112.5625 L383.257812,117.308594 L370.09375,117.308594 L370.09375,124.085938 L381.34375,124.085938 L381.34375,128.675781 Z" id="SERVERMINSTIME" fill="#FFFFFF" fill-rule="nonzero"></path>
            <rect id="Rectangle" fill="#ADFB5F" x="449" y="39" width="82" height="50" rx="3"></rect>
            <ellipse id="Oval" fill="#FFFFFF" cx="491" cy="64" rx="18" ry="19"></ellipse>
            <text id="$" font-family="Roboto-Bold, Roboto" font-size="30" font-weight="bold" fill="#509209">
                <tspan x="482.394043" y="75">$</tspan>
            </text>
            <text id="Custom-Item-1" font-family="Lato-Bold, Lato" font-size="40" font-weight="bold" fill="#949494">
                <tspan x="26.8" y="445">Custom Item 1</tspan>
            </text>
            <rect id="Rectangle" fill="#98CE00" x="189" y="286" width="166" height="102"></rect>
            <text id="AUTH" font-family="Roboto-Black, Roboto" font-size="35" font-weight="700" fill="#080B26">
                <tspan x="54" y="350">AUTH</tspan>
            </text>
            <text id="PAY" font-family="Roboto-Black, Roboto" font-size="35" font-weight="700" fill="#080B26">
                <tspan x="238" y="350">PAY</tspan>
            </text>
            <text id="CATALOG" font-family="Roboto-Black, Roboto" font-size="35" font-weight="700" fill="#080B26">
                <tspan x="364" y="349">CATALOG</tspan>
            </text>
        </g>
        <polygon id="Path-2" fill="#000000" opacity="0.825497582" points="24 244 24 325 189 325 189 379 189 325 24 325 24 381 104 381 104 508 24 508 24 756.684615 544 756.684615 544 374.684615 544 245 419 244.684615 319 244.684615 319 244"></polygon>
        <rect id="Rectangle" fill="#FFFFFF" x="61" y="47" width="449" height="153" rx="12"></rect>
        <path id="Line-2" d="M123.485,359 L123.485,166 L131.485,166 L131.485,359 L149.485,359 L127.485,403 L105.485,359 L123.485,359 Z" fill="#FFFFFF" fill-rule="nonzero"></path>
        <path d="M129.260254,90.3447266 C129.260254,89.4316361 128.937992,88.7307153 128.293457,88.2419434 C127.648923,87.7531714 126.488778,87.2375515 124.812988,86.6950684 C123.137199,86.1525852 121.810552,85.6181667 120.833008,85.0917969 C118.168932,83.6523366 116.836914,81.7133911 116.836914,79.2749023 C116.836914,78.0073179 117.194088,76.876714 117.908447,75.8830566 C118.622806,74.8893993 119.648675,74.113284 120.986084,73.5546875 C122.323493,72.996091 123.824699,72.7167969 125.489746,72.7167969 C127.165536,72.7167969 128.658685,73.0202606 129.969238,73.6271973 C131.279792,74.2341339 132.297604,75.0908148 133.022705,76.1972656 C133.747806,77.3037165 134.110352,78.5605398 134.110352,79.9677734 L129.276367,79.9677734 C129.276367,78.8935493 128.937992,78.0583526 128.26123,77.4621582 C127.584469,76.8659638 126.633795,76.5678711 125.40918,76.5678711 C124.227533,76.5678711 123.309085,76.8176245 122.653809,77.3171387 C121.998532,77.8166529 121.670898,78.4746053 121.670898,79.2910156 C121.670898,80.0537148 122.054928,80.6928685 122.822998,81.2084961 C123.591068,81.7241237 124.721672,82.2075173 126.214844,82.6586914 C128.964857,83.485844 130.968255,84.5117126 132.225098,85.7363281 C133.48194,86.9609436 134.110352,88.486319 134.110352,90.3125 C134.110352,92.3427836 133.342293,93.935297 131.806152,95.0900879 C130.270012,96.2448788 128.202161,96.8222656 125.602539,96.8222656 C123.797843,96.8222656 122.154304,96.4919467 120.671875,95.8312988 C119.189446,95.170651 118.058842,94.2656307 117.280029,93.1162109 C116.501217,91.9667911 116.111816,90.6347732 116.111816,89.1201172 L120.961914,89.1201172 C120.961914,91.7089973 122.508774,93.003418 125.602539,93.003418 C126.751959,93.003418 127.648923,92.7697777 128.293457,92.3024902 C128.937992,91.8352027 129.260254,91.1826214 129.260254,90.3447266 Z M155.138184,73.0390625 L155.138184,88.4916992 C155.138184,91.0590949 154.335213,93.089348 152.729248,94.5825195 C151.123283,96.0756911 148.929213,96.8222656 146.146973,96.8222656 C143.407701,96.8222656 141.23243,96.0971752 139.621094,94.6469727 C138.009758,93.1967701 137.187988,91.2041142 137.155762,88.6689453 L137.155762,73.0390625 L141.989746,73.0390625 L141.989746,88.5239258 C141.989746,90.0600663 142.357662,91.1799281 143.093506,91.8835449 C143.829349,92.5871617 144.847161,92.9389648 146.146973,92.9389648 C148.86476,92.9389648 150.245117,91.5102682 150.288086,88.652832 L150.288086,73.0390625 L155.138184,73.0390625 Z M159.102051,96.5 L159.102051,73.0390625 L167.319824,73.0390625 C170.166518,73.0390625 172.325676,73.5842231 173.797363,74.6745605 C175.26905,75.764898 176.004883,77.3627824 176.004883,79.4682617 C176.004883,80.6176815 175.709476,81.6301226 175.118652,82.5056152 C174.527829,83.3811079 173.70606,84.0229472 172.65332,84.4311523 C173.856451,84.7319351 174.80444,85.3388626 175.497314,86.2519531 C176.190189,87.1650436 176.536621,88.28222 176.536621,89.6035156 C176.536621,91.8593863 175.816902,93.567377 174.377441,94.7275391 C172.937981,95.8877011 170.886244,96.4785155 168.222168,96.5 L159.102051,96.5 Z M163.936035,86.2841797 L163.936035,92.6166992 L168.077148,92.6166992 C169.215826,92.6166992 170.104733,92.3454617 170.743896,91.8029785 C171.38306,91.2604953 171.702637,90.5112352 171.702637,89.5551758 C171.702637,87.4067275 170.590831,86.3164064 168.367188,86.2841797 L163.936035,86.2841797 Z M163.936035,82.8681641 L167.513184,82.8681641 C169.951672,82.8251951 171.170898,81.8530369 171.170898,79.9516602 C171.170898,78.8881783 170.862064,78.1228051 170.244385,77.6555176 C169.626706,77.1882301 168.651862,76.9545898 167.319824,76.9545898 L163.936035,76.9545898 L163.936035,82.8681641 Z M197.822266,76.9545898 L190.635742,76.9545898 L190.635742,96.5 L185.801758,96.5 L185.801758,76.9545898 L178.711914,76.9545898 L178.711914,73.0390625 L197.822266,73.0390625 L197.822266,76.9545898 Z M219.849121,85.3012695 C219.849121,87.6108514 219.440922,89.6357335 218.624512,91.3759766 C217.808101,93.1162196 216.6399,94.4589796 215.119873,95.4042969 C213.599846,96.3496141 211.856943,96.8222656 209.891113,96.8222656 C207.946768,96.8222656 206.211922,96.3549851 204.686523,95.4204102 C203.161125,94.4858352 201.979496,93.1511317 201.141602,91.4162598 C200.303707,89.6813878 199.879395,87.6860464 199.868652,85.4301758 L199.868652,84.2700195 C199.868652,81.9604377 200.284908,79.927499 201.117432,78.1711426 C201.949955,76.4147861 203.126213,75.0666551 204.64624,74.126709 C206.166267,73.1867629 207.903799,72.7167969 209.858887,72.7167969 C211.813975,72.7167969 213.551506,73.1867629 215.071533,74.126709 C216.59156,75.0666551 217.767818,76.4147861 218.600342,78.1711426 C219.432865,79.927499 219.849121,81.9550666 219.849121,84.2539062 L219.849121,85.3012695 Z M214.950684,84.237793 C214.950684,81.7778197 214.510258,79.9086978 213.629395,78.6303711 C212.748531,77.3520444 211.491707,76.7128906 209.858887,76.7128906 C208.236808,76.7128906 206.985356,77.3439878 206.104492,78.6062012 C205.223628,79.8684145 204.777832,81.7187378 204.76709,84.1572266 L204.76709,85.3012695 C204.76709,87.6967893 205.207515,89.5551692 206.088379,90.8764648 C206.969243,92.1977605 208.236808,92.8583984 209.891113,92.8583984 C211.513192,92.8583984 212.759273,92.2219302 213.629395,90.9489746 C214.499516,89.676019 214.939941,87.8203247 214.950684,85.3818359 L214.950684,84.237793 Z M241.021973,76.9545898 L233.835449,76.9545898 L233.835449,96.5 L229.001465,96.5 L229.001465,76.9545898 L221.911621,76.9545898 L221.911621,73.0390625 L241.021973,73.0390625 L241.021973,76.9545898 Z M257.022461,91.6660156 L248.546875,91.6660156 L246.935547,96.5 L241.79541,96.5 L250.528809,73.0390625 L255.008301,73.0390625 L263.790039,96.5 L258.649902,96.5 L257.022461,91.6660156 Z M249.852051,87.7504883 L255.717285,87.7504883 L252.768555,78.96875 L249.852051,87.7504883 Z M270.81543,92.6166992 L281.07959,92.6166992 L281.07959,96.5 L265.981445,96.5 L265.981445,73.0390625 L270.81543,73.0390625 L270.81543,92.6166992 Z M284.753418,102.381348 L282.320312,101.108398 L282.900391,100.061035 C283.620121,98.7504817 283.990723,97.445319 284.012207,96.1455078 L284.012207,92.5361328 L287.943848,92.5361328 L287.927734,95.7587891 C287.916992,96.9511778 287.616214,98.1542908 287.025391,99.3681641 C286.434567,100.582037 285.677251,101.586422 284.753418,102.381348 Z M317.785645,76.9545898 L310.599121,76.9545898 L310.599121,96.5 L305.765137,96.5 L305.765137,76.9545898 L298.675293,76.9545898 L298.675293,73.0390625 L317.785645,73.0390625 L317.785645,76.9545898 Z M333.786133,91.6660156 L325.310547,91.6660156 L323.699219,96.5 L318.559082,96.5 L327.29248,73.0390625 L331.771973,73.0390625 L340.553711,96.5 L335.413574,96.5 L333.786133,91.6660156 Z M326.615723,87.7504883 L332.480957,87.7504883 L329.532227,78.96875 L326.615723,87.7504883 Z M351.140137,81.1279297 L355.539062,73.0390625 L361.098145,73.0390625 L354.266113,84.6728516 L361.275391,96.5 L355.651855,96.5 L351.140137,88.2822266 L346.628418,96.5 L341.004883,96.5 L348.01416,84.6728516 L341.182129,73.0390625 L346.741211,73.0390625 L351.140137,81.1279297 Z M364.61084,102.381348 L362.177734,101.108398 L362.757812,100.061035 C363.477543,98.7504817 363.848144,97.445319 363.869629,96.1455078 L363.869629,92.5361328 L367.80127,92.5361328 L367.785156,95.7587891 C367.774414,96.9511778 367.473636,98.1542908 366.882812,99.3681641 C366.291989,100.582037 365.534673,101.586422 364.61084,102.381348 Z M393.228027,91.6660156 L384.752441,91.6660156 L383.141113,96.5 L378.000977,96.5 L386.734375,73.0390625 L391.213867,73.0390625 L399.995605,96.5 L394.855469,96.5 L393.228027,91.6660156 Z M386.057617,87.7504883 L391.922852,87.7504883 L388.974121,78.96875 L386.057617,87.7504883 Z M421.265137,96.5 L416.431152,96.5 L407.020996,81.0634766 L407.020996,96.5 L402.187012,96.5 L402.187012,73.0390625 L407.020996,73.0390625 L416.447266,88.5078125 L416.447266,73.0390625 L421.265137,73.0390625 L421.265137,96.5 Z M425.486816,96.5 L425.486816,73.0390625 L432.705566,73.0390625 C434.768077,73.0390625 436.613029,73.5036575 438.240479,74.4328613 C439.867928,75.3620652 441.138179,76.683341 442.05127,78.3967285 C442.96436,80.110116 443.420898,82.057118 443.420898,84.237793 L443.420898,85.3173828 C443.420898,87.4980578 442.972417,89.4370032 442.075439,91.1342773 C441.178462,92.8315515 439.913582,94.1474563 438.280762,95.0820312 C436.647941,96.0166062 434.805674,96.4892578 432.753906,96.5 L425.486816,96.5 Z M430.320801,76.9545898 L430.320801,92.6166992 L432.657227,92.6166992 C434.547861,92.6166992 435.992671,91.9990296 436.991699,90.7636719 C437.990728,89.5283141 438.500976,87.761242 438.522461,85.4624023 L438.522461,84.2216797 C438.522461,81.8369021 438.028325,80.0295472 437.040039,78.7995605 C436.051753,77.5695739 434.606943,76.9545898 432.705566,76.9545898 L430.320801,76.9545898 Z M134.754883,115.95459 L127.568359,115.95459 L127.568359,135.5 L122.734375,135.5 L122.734375,115.95459 L115.644531,115.95459 L115.644531,112.039062 L134.754883,112.039062 L134.754883,115.95459 Z M142.650391,135.5 L137.816406,135.5 L137.816406,112.039062 L142.650391,112.039062 L142.650391,135.5 Z M151.963867,127.233887 L151.963867,135.5 L147.129883,135.5 L147.129883,112.039062 L156.282227,112.039062 C158.043954,112.039062 159.593499,112.361325 160.930908,113.005859 C162.268317,113.650394 163.296871,114.566156 164.016602,115.753174 C164.736332,116.940191 165.096191,118.291008 165.096191,119.805664 C165.096191,122.104504 164.309334,123.91723 162.735596,125.243896 C161.161857,126.570563 158.983901,127.233887 156.20166,127.233887 L151.963867,127.233887 Z M151.963867,123.318359 L156.282227,123.318359 C157.560553,123.318359 158.535397,123.017581 159.206787,122.416016 C159.878177,121.81445 160.213867,120.955084 160.213867,119.837891 C160.213867,118.688471 159.875492,117.759281 159.19873,117.050293 C158.521969,116.341305 157.587408,115.976074 156.39502,115.95459 L151.963867,115.95459 L151.963867,123.318359 Z M168.318848,125.960938 C168.318848,123.500964 168.646481,121.159191 169.301758,118.935547 C169.957035,116.711903 170.923822,114.743417 172.202148,113.030029 C173.480475,111.316642 174.866203,110.126956 176.359375,109.460938 L177.261719,111.974609 C175.693352,113.134771 174.468754,114.928699 173.587891,117.356445 C172.707027,119.784192 172.266602,122.620101 172.266602,125.864258 L172.266602,126.36377 C172.266602,129.618669 172.701656,132.46532 173.571777,134.903809 C174.441899,137.342297 175.671867,139.16308 177.261719,140.366211 L176.359375,142.831543 C174.89843,142.176266 173.536872,141.018807 172.274658,139.359131 C171.012445,137.699455 170.048343,135.784679 169.382324,133.614746 C168.716305,131.444813 168.361817,129.178234 168.318848,126.814941 L168.318848,125.960938 Z M193.246094,130.666016 L184.770508,130.666016 L183.15918,135.5 L178.019043,135.5 L186.752441,112.039062 L191.231934,112.039062 L200.013672,135.5 L194.873535,135.5 L193.246094,130.666016 Z M186.075684,126.750488 L191.940918,126.750488 L188.992188,117.96875 L186.075684,126.750488 Z M216.320312,125.912598 L207.039062,125.912598 L207.039062,135.5 L202.205078,135.5 L202.205078,112.039062 L217.480469,112.039062 L217.480469,115.95459 L207.039062,115.95459 L207.039062,122.013184 L216.320312,122.013184 L216.320312,125.912598 Z M237.944336,115.95459 L230.757812,115.95459 L230.757812,135.5 L225.923828,135.5 L225.923828,115.95459 L218.833984,115.95459 L218.833984,112.039062 L237.944336,112.039062 L237.944336,115.95459 Z M254.814941,125.33252 L245.533691,125.33252 L245.533691,131.616699 L256.42627,131.616699 L256.42627,135.5 L240.699707,135.5 L240.699707,112.039062 L256.394043,112.039062 L256.394043,115.95459 L245.533691,115.95459 L245.533691,121.545898 L254.814941,121.545898 L254.814941,125.33252 Z M267.947266,126.911621 L264.096191,126.911621 L264.096191,135.5 L259.262207,135.5 L259.262207,112.039062 L267.979492,112.039062 C270.75099,112.039062 272.888664,112.656732 274.392578,113.89209 C275.896492,115.127448 276.648438,116.873036 276.648438,119.128906 C276.648438,120.7295 276.302005,122.064204 275.609131,123.133057 C274.916256,124.20191 273.866218,125.053219 272.458984,125.687012 L277.534668,135.274414 L277.534668,135.5 L272.346191,135.5 L267.947266,126.911621 Z M264.096191,122.996094 L267.995605,122.996094 C269.209479,122.996094 270.149411,122.687259 270.81543,122.06958 C271.481449,121.451901 271.814453,120.600591 271.814453,119.515625 C271.814453,118.409174 271.500247,117.539066 270.871826,116.905273 C270.243405,116.271481 269.279303,115.95459 267.979492,115.95459 L264.096191,115.95459 L264.096191,122.996094 Z M293.374023,127.233887 L293.374023,135.5 L288.540039,135.5 L288.540039,112.039062 L297.692383,112.039062 C299.45411,112.039062 301.003655,112.361325 302.341064,113.005859 C303.678473,113.650394 304.707028,114.566156 305.426758,115.753174 C306.146488,116.940191 306.506348,118.291008 306.506348,119.805664 C306.506348,122.104504 305.71949,123.91723 304.145752,125.243896 C302.572014,126.570563 300.394057,127.233887 297.611816,127.233887 L293.374023,127.233887 Z M293.374023,123.318359 L297.692383,123.318359 C298.97071,123.318359 299.945553,123.017581 300.616943,122.416016 C301.288333,121.81445 301.624023,120.955084 301.624023,119.837891 C301.624023,118.688471 301.285648,117.759281 300.608887,117.050293 C299.932126,116.341305 298.997565,115.976074 297.805176,115.95459 L293.374023,115.95459 L293.374023,123.318359 Z M323.070801,130.666016 L314.595215,130.666016 L312.983887,135.5 L307.84375,135.5 L316.577148,112.039062 L321.056641,112.039062 L329.838379,135.5 L324.698242,135.5 L323.070801,130.666016 Z M315.900391,126.750488 L321.765625,126.750488 L318.816895,117.96875 L315.900391,126.750488 Z M340.118652,122.609375 L345.000977,112.039062 L350.286133,112.039062 L342.583984,126.992188 L342.583984,135.5 L337.669434,135.5 L337.669434,126.992188 L329.967285,112.039062 L335.268555,112.039062 L340.118652,122.609375 Z M358.745605,112.039062 L364.771973,129.054688 L370.766113,112.039062 L377.114746,112.039062 L377.114746,135.5 L372.264648,135.5 L372.264648,129.086914 L372.748047,118.01709 L366.415527,135.5 L363.096191,135.5 L356.779785,118.033203 L357.263184,129.086914 L357.263184,135.5 L352.429199,135.5 L352.429199,112.039062 L358.745605,112.039062 Z M395.45166,125.33252 L386.17041,125.33252 L386.17041,131.616699 L397.062988,131.616699 L397.062988,135.5 L381.336426,135.5 L381.336426,112.039062 L397.030762,112.039062 L397.030762,115.95459 L386.17041,115.95459 L386.17041,121.545898 L395.45166,121.545898 L395.45166,125.33252 Z M418.977051,135.5 L414.143066,135.5 L404.73291,120.063477 L404.73291,135.5 L399.898926,135.5 L399.898926,112.039062 L404.73291,112.039062 L414.15918,127.507812 L414.15918,112.039062 L418.977051,112.039062 L418.977051,135.5 Z M440.858887,115.95459 L433.672363,115.95459 L433.672363,135.5 L428.838379,135.5 L428.838379,115.95459 L421.748535,115.95459 L421.748535,112.039062 L440.858887,112.039062 L440.858887,115.95459 Z M451.33252,126.331543 C451.33252,128.759289 450.983402,131.095692 450.285156,133.34082 C449.586911,135.585949 448.582526,137.567862 447.271973,139.286621 C445.961419,141.00538 444.559578,142.187008 443.066406,142.831543 L442.164062,140.366211 C443.689461,139.216791 444.892574,137.444348 445.773438,135.048828 C446.654301,132.653308 447.11084,129.897965 447.143066,126.782715 L447.143066,125.928711 C447.143066,122.716781 446.705327,119.886243 445.829834,117.437012 C444.954341,114.987781 443.73243,113.150885 442.164062,111.92627 L443.066406,109.460938 C444.527351,110.09473 445.905023,111.244132 447.199463,112.90918 C448.493903,114.574227 449.498287,116.513173 450.212646,118.726074 C450.927006,120.938976 451.300293,123.23241 451.33252,125.606445 L451.33252,126.331543 Z M135.367188,167.732422 L138.525391,151.039062 L143.343262,151.039062 L138.138672,174.5 L133.272461,174.5 L129.453613,158.805664 L125.634766,174.5 L120.768555,174.5 L115.563965,151.039062 L120.381836,151.039062 L123.556152,167.700195 L127.42334,151.039062 L131.516113,151.039062 L135.367188,167.732422 Z M151.09375,174.5 L146.259766,174.5 L146.259766,151.039062 L151.09375,151.039062 L151.09375,174.5 Z M160.407227,170.616699 L170.671387,170.616699 L170.671387,174.5 L155.573242,174.5 L155.573242,151.039062 L160.407227,151.039062 L160.407227,170.616699 Z M178.276855,170.616699 L188.541016,170.616699 L188.541016,174.5 L173.442871,174.5 L173.442871,151.039062 L178.276855,151.039062 L178.276855,170.616699 Z M211.695801,168.344727 C211.695801,167.431636 211.373538,166.730715 210.729004,166.241943 C210.084469,165.753171 208.924325,165.237552 207.248535,164.695068 C205.572746,164.152585 204.246099,163.618167 203.268555,163.091797 C200.604479,161.652337 199.272461,159.713391 199.272461,157.274902 C199.272461,156.007318 199.629635,154.876714 200.343994,153.883057 C201.058353,152.889399 202.084222,152.113284 203.421631,151.554688 C204.75904,150.996091 206.260246,150.716797 207.925293,150.716797 C209.601083,150.716797 211.094232,151.020261 212.404785,151.627197 C213.715339,152.234134 214.733151,153.090815 215.458252,154.197266 C216.183353,155.303716 216.545898,156.56054 216.545898,157.967773 L211.711914,157.967773 C211.711914,156.893549 211.373539,156.058353 210.696777,155.462158 C210.020016,154.865964 209.069342,154.567871 207.844727,154.567871 C206.66308,154.567871 205.744632,154.817624 205.089355,155.317139 C204.434079,155.816653 204.106445,156.474605 204.106445,157.291016 C204.106445,158.053715 204.490475,158.692869 205.258545,159.208496 C206.026615,159.724124 207.157219,160.207517 208.650391,160.658691 C211.400404,161.485844 213.403802,162.511713 214.660645,163.736328 C215.917487,164.960944 216.545898,166.486319 216.545898,168.3125 C216.545898,170.342784 215.77784,171.935297 214.241699,173.090088 C212.705559,174.244879 210.637708,174.822266 208.038086,174.822266 C206.233389,174.822266 204.589851,174.491947 203.107422,173.831299 C201.624993,173.170651 200.494389,172.265631 199.715576,171.116211 C198.936764,169.966791 198.547363,168.634773 198.547363,167.120117 L203.397461,167.120117 C203.397461,169.708997 204.94432,171.003418 208.038086,171.003418 C209.187506,171.003418 210.084469,170.769778 210.729004,170.30249 C211.373538,169.835203 211.695801,169.182621 211.695801,168.344727 Z M238.911133,174.5 L234.077148,174.5 L234.077148,164.445312 L224.650879,164.445312 L224.650879,174.5 L219.816895,174.5 L219.816895,151.039062 L224.650879,151.039062 L224.650879,160.545898 L234.077148,160.545898 L234.077148,151.039062 L238.911133,151.039062 L238.911133,174.5 Z M262.404297,163.30127 C262.404297,165.610851 261.996098,167.635733 261.179688,169.375977 C260.363277,171.11622 259.195076,172.45898 257.675049,173.404297 C256.155022,174.349614 254.412119,174.822266 252.446289,174.822266 C250.501943,174.822266 248.767097,174.354985 247.241699,173.42041 C245.716301,172.485835 244.534672,171.151132 243.696777,169.41626 C242.858883,167.681388 242.43457,165.686046 242.423828,163.430176 L242.423828,162.27002 C242.423828,159.960438 242.840084,157.927499 243.672607,156.171143 C244.505131,154.414786 245.681389,153.066655 247.201416,152.126709 C248.721443,151.186763 250.458975,150.716797 252.414062,150.716797 C254.36915,150.716797 256.106682,151.186763 257.626709,152.126709 C259.146736,153.066655 260.322994,154.414786 261.155518,156.171143 C261.988041,157.927499 262.404297,159.955067 262.404297,162.253906 L262.404297,163.30127 Z M257.505859,162.237793 C257.505859,159.77782 257.065434,157.908698 256.18457,156.630371 C255.303707,155.352044 254.046883,154.712891 252.414062,154.712891 C250.791984,154.712891 249.540532,155.343988 248.659668,156.606201 C247.778804,157.868415 247.333008,159.718738 247.322266,162.157227 L247.322266,163.30127 C247.322266,165.696789 247.762691,167.555169 248.643555,168.876465 C249.524418,170.197761 250.791984,170.858398 252.446289,170.858398 C254.068367,170.858398 255.314449,170.22193 256.18457,168.948975 C257.054692,167.676019 257.495117,165.820325 257.505859,163.381836 L257.505859,162.237793 Z M284.189453,167.732422 L287.347656,151.039062 L292.165527,151.039062 L286.960938,174.5 L282.094727,174.5 L278.275879,158.805664 L274.457031,174.5 L269.59082,174.5 L264.38623,151.039062 L269.204102,151.039062 L272.378418,167.700195 L276.245605,151.039062 L280.338379,151.039062 L284.189453,167.732422 Z M320.750488,151.039062 L320.750488,166.491699 C320.750488,169.059095 319.947518,171.089348 318.341553,172.58252 C316.735588,174.075691 314.541518,174.822266 311.759277,174.822266 C309.020006,174.822266 306.844735,174.097175 305.233398,172.646973 C303.622062,171.19677 302.800293,169.204114 302.768066,166.668945 L302.768066,151.039062 L307.602051,151.039062 L307.602051,166.523926 C307.602051,168.060066 307.969967,169.179928 308.705811,169.883545 C309.441654,170.587162 310.459466,170.938965 311.759277,170.938965 C314.477064,170.938965 315.857422,169.510268 315.900391,166.652832 L315.900391,151.039062 L320.750488,151.039062 Z M329.54834,166.233887 L329.54834,174.5 L324.714355,174.5 L324.714355,151.039062 L333.866699,151.039062 C335.628427,151.039062 337.177972,151.361325 338.515381,152.005859 C339.85279,152.650394 340.881344,153.566156 341.601074,154.753174 C342.320804,155.940191 342.680664,157.291008 342.680664,158.805664 C342.680664,161.104504 341.893807,162.91723 340.320068,164.243896 C338.74633,165.570563 336.568373,166.233887 333.786133,166.233887 L329.54834,166.233887 Z M329.54834,162.318359 L333.866699,162.318359 C335.145026,162.318359 336.11987,162.017581 336.79126,161.416016 C337.46265,160.81445 337.79834,159.955084 337.79834,158.837891 C337.79834,157.688471 337.459964,156.759281 336.783203,156.050293 C336.106442,155.341305 335.171881,154.976074 333.979492,154.95459 L329.54834,154.95459 L329.54834,162.318359 Z M373.312012,174.5 L368.478027,174.5 L368.478027,164.445312 L359.051758,164.445312 L359.051758,174.5 L354.217773,174.5 L354.217773,151.039062 L359.051758,151.039062 L359.051758,160.545898 L368.478027,160.545898 L368.478027,151.039062 L373.312012,151.039062 L373.312012,174.5 Z M391.648926,164.33252 L382.367676,164.33252 L382.367676,170.616699 L393.260254,170.616699 L393.260254,174.5 L377.533691,174.5 L377.533691,151.039062 L393.228027,151.039062 L393.228027,154.95459 L382.367676,154.95459 L382.367676,160.545898 L391.648926,160.545898 L391.648926,164.33252 Z M404.78125,165.911621 L400.930176,165.911621 L400.930176,174.5 L396.096191,174.5 L396.096191,151.039062 L404.813477,151.039062 C407.584975,151.039062 409.722649,151.656732 411.226562,152.89209 C412.730476,154.127448 413.482422,155.873036 413.482422,158.128906 C413.482422,159.7295 413.13599,161.064204 412.443115,162.133057 C411.750241,163.20191 410.700202,164.053219 409.292969,164.687012 L414.368652,174.274414 L414.368652,174.5 L409.180176,174.5 L404.78125,165.911621 Z M400.930176,161.996094 L404.82959,161.996094 C406.043463,161.996094 406.983395,161.687259 407.649414,161.06958 C408.315433,160.451901 408.648438,159.600591 408.648438,158.515625 C408.648438,157.409174 408.334232,156.539066 407.705811,155.905273 C407.077389,155.271481 406.113288,154.95459 404.813477,154.95459 L400.930176,154.95459 L400.930176,161.996094 Z M431.271484,164.33252 L421.990234,164.33252 L421.990234,170.616699 L432.882812,170.616699 L432.882812,174.5 L417.15625,174.5 L417.15625,151.039062 L432.850586,151.039062 L432.850586,154.95459 L421.990234,154.95459 L421.990234,160.545898 L431.271484,160.545898 L431.271484,164.33252 Z M440.149902,167.297363 L436.282715,167.297363 L435.734863,151.039062 L440.697754,151.039062 L440.149902,167.297363 Z M438.216309,169.843262 C439.000492,169.843262 439.631589,170.074216 440.109619,170.536133 C440.587649,170.998049 440.82666,171.588864 440.82666,172.308594 C440.82666,173.017582 440.587649,173.603025 440.109619,174.064941 C439.631589,174.526858 439.000492,174.757812 438.216309,174.757812 C437.442867,174.757812 436.817141,174.526858 436.339111,174.064941 C435.861082,173.603025 435.62207,173.017582 435.62207,172.308594 C435.62207,171.599606 435.861082,171.011477 436.339111,170.544189 C436.817141,170.076902 437.442867,169.843262 438.216309,169.843262 Z" id="SUBTOTAL,TAX,ANDTIP(AFTERPAYMENT)WILLSHOWUPHERE!" fill="#000000" fill-rule="nonzero"></path>
    </g>
</svg>