<?xml version="1.0" encoding="UTF-8"?>
<svg width="570px" height="792px" viewBox="0 0 570 792" version="1.1" xmlns="http://www.w3.org/2000/svg" xmlns:xlink="http://www.w3.org/1999/xlink">
    <!-- Generator: Sketch 54.1 (76490) - https://sketchapp.com -->
    <title>8_create_en</title>
    <desc>Created with Sketch.</desc>
    <g id="8_create_en" stroke="none" stroke-width="1" fill="none" fill-rule="evenodd">
        <rect fill="#00B0FF" x="0" y="0" width="570" height="792"></rect>
        <g id="Group-3" transform="translate(12.000000, 225.000000)">
            <rect id="Rectangle" fill="#0B0C24" x="0" y="0" width="547" height="547" rx="13"></rect>
            <path d="M12,286 L189,286 L189,388 L25,388 C17.8202983,388 12,382.179702 12,375 L12,286 Z" id="Rectangle" fill="#0098CE"></path>
            <path d="M355,286 L532,286 L532,388 L368,388 C360.820298,388 355,382.179702 355,375 L355,286 Z" id="Rectangle" fill="#0098CE" transform="translate(443.500000, 337.000000) scale(-1, 1) translate(-443.500000, -337.000000) "></path>
            <rect id="Rectangle" stroke="#979797" fill="#FFFFFF" x="12.5" y="400.5" width="519" height="64"></rect>
            <path d="M12,465 L532,465 L532,519 C532,525.075132 527.075132,530 521,530 L23,530 C16.9248678,530 12,525.075132 12,519 L12,465 Z" id="Rectangle" fill="#0098CE"></path>
            <text id="ADD-ITEM" font-family="Lato-Bold, Lato" font-size="40" font-weight="bold" fill="#FFFFFF">
                <tspan x="180" y="508">ADD ITEM</tspan>
            </text>
            <text id="-$0.00" font-family="Roboto-Bold, Roboto" font-size="30" font-weight="bold" fill="#FF0088">
                <tspan x="423.805664" y="243">-$0.00</tspan>
            </text>
            <text id="Discount:" font-family="Roboto-Bold, Roboto" font-size="30" font-weight="bold" fill="#00E7FF">
                <tspan x="403.324219" y="189">Discount:</tspan>
            </text>
            <text id="Sub:-Tax:-Tip:" font-family="Roboto-Bold, Roboto" font-size="30" font-weight="bold" fill="#00E7FF">
                <tspan x="21.4140625" y="189">Sub:</tspan>
                <tspan x="23.6259766" y="224">Tax:</tspan>
                <tspan x="30.1298828" y="259">Tip:</tspan>
            </text>
            <text id="$0.00" font-family="Lato-Bold, Lato" font-size="40" font-weight="bold" fill="#659B00">
                <tspan x="411.7" y="446">$0.00</tspan>
            </text>
            <text id="CUSTOMER-1" font-family="Roboto-Bold, Roboto" font-size="40" font-weight="bold" fill="#FFFFFF">
                <tspan x="34.2851562" y="76">CUSTOMER 1</tspan>
            </text>
            <rect id="Rectangle" stroke-opacity="0.329200634" stroke="#00C9FE" stroke-width="3" x="21.5" y="28.5" width="269" height="67" rx="6"></rect>
            <rect id="Rectangle" stroke-opacity="0.329200634" stroke="#00C9FE" stroke-width="3" x="405.5" y="210.5" width="125" height="47" rx="6"></rect>
            <text id="$0.00" font-family="Lato-Bold, Lato" font-size="60" font-weight="bold" fill="#FFFFFF">
                <tspan x="188.55" y="256">$0.00</tspan>
            </text>
            <text id="OPEN" font-family="Roboto-Bold, Roboto" font-size="40" font-weight="bold" fill="#FFFFFF">
                <tspan x="424.419922" y="141">OPEN</tspan>
            </text>
            <path d="M41.2851562,133.539062 C41.2851562,132.432286 40.8945352,131.582685 40.1132812,130.990234 C39.3320273,130.397783 37.9257914,129.77279 35.8945312,129.115234 C33.8632711,128.457679 32.2552143,127.809899 31.0703125,127.171875 C27.8411297,125.427075 26.2265625,123.076838 26.2265625,120.121094 C26.2265625,118.584628 26.6595009,117.214199 27.5253906,116.009766 C28.3912804,114.805333 29.6347575,113.864587 31.2558594,113.1875 C32.8769612,112.510413 34.6966045,112.171875 36.7148438,112.171875 C38.7461039,112.171875 40.5559816,112.53971 42.1445312,113.275391 C43.7330809,114.011071 44.9667925,115.049472 45.8457031,116.390625 C46.7246138,117.731778 47.1640625,119.2552 47.1640625,120.960938 L41.3046875,120.960938 C41.3046875,119.658848 40.8945354,118.646488 40.0742188,117.923828 C39.2539021,117.201168 38.1015699,116.839844 36.6171875,116.839844 C35.1848887,116.839844 34.0716186,117.142575 33.2773438,117.748047 C32.4830689,118.353519 32.0859375,119.151037 32.0859375,120.140625 C32.0859375,121.065109 32.5514276,121.839841 33.4824219,122.464844 C34.4134161,123.089847 35.7838451,123.675779 37.59375,124.222656 C40.9271,125.225265 43.3554611,126.468743 44.8789062,127.953125 C46.4023514,129.437507 47.1640625,131.286447 47.1640625,133.5 C47.1640625,135.96095 46.2330822,137.891269 44.3710938,139.291016 C42.5091053,140.690762 40.0026199,141.390625 36.8515625,141.390625 C34.6640516,141.390625 32.671884,140.990238 30.875,140.189453 C29.078116,139.388668 27.707687,138.291674 26.7636719,136.898438 C25.8196567,135.505201 25.3476562,133.890634 25.3476562,132.054688 L31.2265625,132.054688 C31.2265625,135.192724 33.1015438,136.761719 36.8515625,136.761719 C38.2447986,136.761719 39.3320273,136.478518 40.1132812,135.912109 C40.8945352,135.3457 41.2851562,134.554693 41.2851562,133.539062 Z M68.2382812,128.675781 L56.9882812,128.675781 L56.9882812,136.292969 L70.1914062,136.292969 L70.1914062,141 L51.1289062,141 L51.1289062,112.5625 L70.1523438,112.5625 L70.1523438,117.308594 L56.9882812,117.308594 L56.9882812,124.085938 L68.2382812,124.085938 L68.2382812,128.675781 Z M84.15625,130.589844 L79.4882812,130.589844 L79.4882812,141 L73.6289062,141 L73.6289062,112.5625 L84.1953125,112.5625 C87.5547043,112.5625 90.1458242,113.31119 91.96875,114.808594 C93.7916758,116.305997 94.703125,118.421861 94.703125,121.15625 C94.703125,123.096364 94.2832073,124.714186 93.4433594,126.009766 C92.6035114,127.305345 91.3307377,128.337236 89.625,129.105469 L95.7773438,140.726562 L95.7773438,141 L89.4882812,141 L84.15625,130.589844 Z M79.4882812,125.84375 L84.2148438,125.84375 C85.6862053,125.84375 86.8255168,125.469405 87.6328125,124.720703 C88.4401082,123.972001 88.84375,122.940111 88.84375,121.625 C88.84375,120.283847 88.4628944,119.229171 87.7011719,118.460938 C86.9394493,117.692704 85.7708412,117.308594 84.1953125,117.308594 L79.4882812,117.308594 L79.4882812,125.84375 Z M109.664062,133.949219 L116.109375,112.5625 L122.632812,112.5625 L112.730469,141 L106.617188,141 L96.7539062,112.5625 L103.257812,112.5625 L109.664062,133.949219 Z M142.417969,128.675781 L131.167969,128.675781 L131.167969,136.292969 L144.371094,136.292969 L144.371094,141 L125.308594,141 L125.308594,112.5625 L144.332031,112.5625 L144.332031,117.308594 L131.167969,117.308594 L131.167969,124.085938 L142.417969,124.085938 L142.417969,128.675781 Z M158.335938,130.589844 L153.667969,130.589844 L153.667969,141 L147.808594,141 L147.808594,112.5625 L158.375,112.5625 C161.734392,112.5625 164.325512,113.31119 166.148438,114.808594 C167.971363,116.305997 168.882812,118.421861 168.882812,121.15625 C168.882812,123.096364 168.462895,124.714186 167.623047,126.009766 C166.783199,127.305345 165.510425,128.337236 163.804688,129.105469 L169.957031,140.726562 L169.957031,141 L163.667969,141 L158.335938,130.589844 Z M153.667969,125.84375 L158.394531,125.84375 C159.865893,125.84375 161.005204,125.469405 161.8125,124.720703 C162.619796,123.972001 163.023438,122.940111 163.023438,121.625 C163.023438,120.283847 162.642582,119.229171 161.880859,118.460938 C161.119137,117.692704 159.950529,117.308594 158.375,117.308594 L153.667969,117.308594 L153.667969,125.84375 Z M190.953125,112.5625 L198.257812,133.1875 L205.523438,112.5625 L213.21875,112.5625 L213.21875,141 L207.339844,141 L207.339844,133.226562 L207.925781,119.808594 L200.25,141 L196.226562,141 L188.570312,119.828125 L189.15625,133.226562 L189.15625,141 L183.296875,141 L183.296875,112.5625 L190.953125,112.5625 Z M224.566406,141 L218.707031,141 L218.707031,112.5625 L224.566406,112.5625 L224.566406,141 Z M253.121094,141 L247.261719,141 L235.855469,122.289062 L235.855469,141 L229.996094,141 L229.996094,112.5625 L235.855469,112.5625 L247.28125,131.3125 L247.28125,112.5625 L253.121094,112.5625 L253.121094,141 Z M272.984375,133.539062 C272.984375,132.432286 272.593754,131.582685 271.8125,130.990234 C271.031246,130.397783 269.62501,129.77279 267.59375,129.115234 C265.56249,128.457679 263.954433,127.809899 262.769531,127.171875 C259.540348,125.427075 257.925781,123.076838 257.925781,120.121094 C257.925781,118.584628 258.35872,117.214199 259.224609,116.009766 C260.090499,114.805333 261.333976,113.864587 262.955078,113.1875 C264.57618,112.510413 266.395823,112.171875 268.414062,112.171875 C270.445323,112.171875 272.2552,112.53971 273.84375,113.275391 C275.4323,114.011071 276.666011,115.049472 277.544922,116.390625 C278.423833,117.731778 278.863281,119.2552 278.863281,120.960938 L273.003906,120.960938 C273.003906,119.658848 272.593754,118.646488 271.773438,117.923828 C270.953121,117.201168 269.800789,116.839844 268.316406,116.839844 C266.884107,116.839844 265.770837,117.142575 264.976562,117.748047 C264.182288,118.353519 263.785156,119.151037 263.785156,120.140625 C263.785156,121.065109 264.250646,121.839841 265.181641,122.464844 C266.112635,123.089847 267.483064,123.675779 269.292969,124.222656 C272.626319,125.225265 275.05468,126.468743 276.578125,127.953125 C278.10157,129.437507 278.863281,131.286447 278.863281,133.5 C278.863281,135.96095 277.932301,137.891269 276.070312,139.291016 C274.208324,140.690762 271.701839,141.390625 268.550781,141.390625 C266.36327,141.390625 264.371103,140.990238 262.574219,140.189453 C260.777335,139.388668 259.406906,138.291674 258.462891,136.898438 C257.518875,135.505201 257.046875,133.890634 257.046875,132.054688 L262.925781,132.054688 C262.925781,135.192724 264.800763,136.761719 268.550781,136.761719 C269.944017,136.761719 271.031246,136.478518 271.8125,135.912109 C272.593754,135.3457 272.984375,134.554693 272.984375,133.539062 Z M314.195312,117.308594 L305.484375,117.308594 L305.484375,141 L299.625,141 L299.625,117.308594 L291.03125,117.308594 L291.03125,112.5625 L314.195312,112.5625 L314.195312,117.308594 Z M323.765625,141 L317.90625,141 L317.90625,112.5625 L323.765625,112.5625 L323.765625,141 Z M336.851562,112.5625 L344.15625,133.1875 L351.421875,112.5625 L359.117188,112.5625 L359.117188,141 L353.238281,141 L353.238281,133.226562 L353.824219,119.808594 L346.148438,141 L342.125,141 L334.46875,119.828125 L335.054688,133.226562 L335.054688,141 L329.195312,141 L329.195312,112.5625 L336.851562,112.5625 Z M381.34375,128.675781 L370.09375,128.675781 L370.09375,136.292969 L383.296875,136.292969 L383.296875,141 L364.234375,141 L364.234375,112.5625 L383.257812,112.5625 L383.257812,117.308594 L370.09375,117.308594 L370.09375,124.085938 L381.34375,124.085938 L381.34375,128.675781 Z" id="SERVERMINSTIME" fill="#FFFFFF" fill-rule="nonzero"></path>
            <rect id="Rectangle" fill="#ADFB5F" x="449" y="39" width="82" height="50" rx="3"></rect>
            <ellipse id="Oval" fill="#FFFFFF" cx="491" cy="64" rx="18" ry="19"></ellipse>
            <text id="$" font-family="Roboto-Bold, Roboto" font-size="30" font-weight="bold" fill="#509209">
                <tspan x="482.394043" y="75">$</tspan>
            </text>
            <text id="Custom-Item-1" font-family="Lato-Bold, Lato" font-size="40" font-weight="bold" fill="#949494">
                <tspan x="26.8" y="445">Custom Item 1</tspan>
            </text>
            <rect id="Rectangle" fill="#98CE00" x="189" y="286" width="166" height="102"></rect>
            <text id="AUTH" font-family="Roboto-Black, Roboto" font-size="35" font-weight="700" fill="#080B26">
                <tspan x="54" y="350">AUTH</tspan>
            </text>
            <text id="PAY" font-family="Roboto-Black, Roboto" font-size="35" font-weight="700" fill="#080B26">
                <tspan x="238" y="350">PAY</tspan>
            </text>
            <text id="CATALOG" font-family="Roboto-Black, Roboto" font-size="35" font-weight="700" fill="#080B26">
                <tspan x="364" y="349">CATALOG</tspan>
            </text>
        </g>
        <polygon id="Path-2" fill="#000000" opacity="0.825497582" points="24 244 24 325 189 325 189 379 189 325 24 325 24 386 179.053424 386.456039 185.417065 386.474756 364 387 364 500 187 500 187 387 24 386 24 508 24 756.684615 544 756.684615 544 374.684615 544 245 419 244.684615 319 244.684615 319 244"></polygon>
        <rect id="Rectangle" fill="#FFFFFF" x="61" y="47" width="449" height="126" rx="12"></rect>
        <path id="Line-2" d="M273.485,379 L273.485,186 L281.485,186 L281.485,379 L299.485,379 L277.485,423 L255.485,379 L273.485,379 Z" fill="#FFFFFF" fill-rule="nonzero"></path>
        <path d="M114.932373,62.4545898 L107.74585,62.4545898 L107.74585,82 L102.911865,82 L102.911865,62.4545898 L95.8220215,62.4545898 L95.8220215,58.5390625 L114.932373,58.5390625 L114.932373,62.4545898 Z M136.781982,82 L131.947998,82 L131.947998,71.9453125 L122.521729,71.9453125 L122.521729,82 L117.687744,82 L117.687744,58.5390625 L122.521729,58.5390625 L122.521729,68.0458984 L131.947998,68.0458984 L131.947998,58.5390625 L136.781982,58.5390625 L136.781982,82 Z M155.118896,71.8325195 L145.837646,71.8325195 L145.837646,78.1166992 L156.730225,78.1166992 L156.730225,82 L141.003662,82 L141.003662,58.5390625 L156.697998,58.5390625 L156.697998,62.4545898 L145.837646,62.4545898 L145.837646,68.0458984 L155.118896,68.0458984 L155.118896,71.8325195 Z M181.89917,72.4125977 L172.61792,72.4125977 L172.61792,82 L167.783936,82 L167.783936,58.5390625 L183.059326,58.5390625 L183.059326,62.4545898 L172.61792,62.4545898 L172.61792,68.5131836 L181.89917,68.5131836 L181.89917,72.4125977 Z M191.003174,82 L186.169189,82 L186.169189,58.5390625 L191.003174,58.5390625 L191.003174,82 Z M214.560791,82 L209.726807,82 L200.31665,66.5634766 L200.31665,82 L195.482666,82 L195.482666,58.5390625 L200.31665,58.5390625 L209.74292,74.0078125 L209.74292,58.5390625 L214.560791,58.5390625 L214.560791,82 Z M232.027588,77.1660156 L223.552002,77.1660156 L221.940674,82 L216.800537,82 L225.533936,58.5390625 L230.013428,58.5390625 L238.795166,82 L233.655029,82 L232.027588,77.1660156 Z M224.857178,73.2504883 L230.722412,73.2504883 L227.773682,64.46875 L224.857178,73.2504883 Z M245.820557,78.1166992 L256.084717,78.1166992 L256.084717,82 L240.986572,82 L240.986572,58.5390625 L245.820557,58.5390625 L245.820557,78.1166992 Z M280.319092,77.1660156 L271.843506,77.1660156 L270.232178,82 L265.092041,82 L273.825439,58.5390625 L278.304932,58.5390625 L287.08667,82 L281.946533,82 L280.319092,77.1660156 Z M273.148682,73.2504883 L279.013916,73.2504883 L276.065186,64.46875 L273.148682,73.2504883 Z M295.594482,58.5390625 L301.62085,75.5546875 L307.61499,58.5390625 L313.963623,58.5390625 L313.963623,82 L309.113525,82 L309.113525,75.5869141 L309.596924,64.5170898 L303.264404,82 L299.945068,82 L293.628662,64.5332031 L294.112061,75.5869141 L294.112061,82 L289.278076,82 L289.278076,58.5390625 L295.594482,58.5390625 Z M337.456787,70.8012695 C337.456787,73.1108514 337.048588,75.1357335 336.232178,76.8759766 C335.415767,78.6162196 334.247566,79.9589796 332.727539,80.9042969 C331.207512,81.8496141 329.464609,82.3222656 327.498779,82.3222656 C325.554434,82.3222656 323.819588,81.8549851 322.294189,80.9204102 C320.768791,79.9858352 319.587162,78.6511317 318.749268,76.9162598 C317.911373,75.1813878 317.487061,73.1860464 317.476318,70.9301758 L317.476318,69.7700195 C317.476318,67.4604377 317.892574,65.427499 318.725098,63.6711426 C319.557621,61.9147861 320.733879,60.5666551 322.253906,59.626709 C323.773933,58.6867629 325.511465,58.2167969 327.466553,58.2167969 C329.421641,58.2167969 331.159172,58.6867629 332.679199,59.626709 C334.199226,60.5666551 335.375484,61.9147861 336.208008,63.6711426 C337.040532,65.427499 337.456787,67.4550666 337.456787,69.7539062 L337.456787,70.8012695 Z M332.55835,69.737793 C332.55835,67.2778197 332.117924,65.4086978 331.237061,64.1303711 C330.356197,62.8520444 329.099373,62.2128906 327.466553,62.2128906 C325.844474,62.2128906 324.593022,62.8439878 323.712158,64.1062012 C322.831294,65.3684145 322.385498,67.2187378 322.374756,69.6572266 L322.374756,70.8012695 C322.374756,73.1967893 322.815181,75.0551692 323.696045,76.3764648 C324.576909,77.6977605 325.844474,78.3583984 327.498779,78.3583984 C329.120858,78.3583984 330.366939,77.7219302 331.237061,76.4489746 C332.107182,75.176019 332.547607,73.3203247 332.55835,70.8818359 L332.55835,69.737793 Z M358.726318,58.5390625 L358.726318,73.9916992 C358.726318,76.5590949 357.923348,78.589348 356.317383,80.0825195 C354.711418,81.5756911 352.517348,82.3222656 349.735107,82.3222656 C346.995836,82.3222656 344.820565,81.5971752 343.209229,80.1469727 C341.597892,78.6967701 340.776123,76.7041142 340.743896,74.1689453 L340.743896,58.5390625 L345.577881,58.5390625 L345.577881,74.0239258 C345.577881,75.5600663 345.945797,76.6799281 346.681641,77.3835449 C347.417484,78.0871617 348.435296,78.4389648 349.735107,78.4389648 C352.452894,78.4389648 353.833252,77.0102682 353.876221,74.152832 L353.876221,58.5390625 L358.726318,58.5390625 Z M381.768311,82 L376.934326,82 L367.52417,66.5634766 L367.52417,82 L362.690186,82 L362.690186,58.5390625 L367.52417,58.5390625 L376.950439,74.0078125 L376.950439,58.5390625 L381.768311,58.5390625 L381.768311,82 Z M403.650146,62.4545898 L396.463623,62.4545898 L396.463623,82 L391.629639,82 L391.629639,62.4545898 L384.539795,62.4545898 L384.539795,58.5390625 L403.650146,58.5390625 L403.650146,62.4545898 Z M432.283447,62.4545898 L425.096924,62.4545898 L425.096924,82 L420.262939,82 L420.262939,62.4545898 L413.173096,62.4545898 L413.173096,58.5390625 L432.283447,58.5390625 L432.283447,62.4545898 Z M454.133057,82 L449.299072,82 L449.299072,71.9453125 L439.872803,71.9453125 L439.872803,82 L435.038818,82 L435.038818,58.5390625 L439.872803,58.5390625 L439.872803,68.0458984 L449.299072,68.0458984 L449.299072,58.5390625 L454.133057,58.5390625 L454.133057,82 Z M472.469971,71.8325195 L463.188721,71.8325195 L463.188721,78.1166992 L474.081299,78.1166992 L474.081299,82 L458.354736,82 L458.354736,58.5390625 L474.049072,58.5390625 L474.049072,62.4545898 L463.188721,62.4545898 L463.188721,68.0458984 L472.469971,68.0458984 L472.469971,71.8325195 Z M100.897705,113.185059 C100.715087,115.709485 99.7832115,117.69677 98.1020508,119.146973 C96.42089,120.597175 94.205336,121.322266 91.4553223,121.322266 C88.4474947,121.322266 86.0815516,120.309825 84.3574219,118.284912 C82.6332922,116.26 81.7712402,113.480486 81.7712402,109.946289 L81.7712402,108.512207 C81.7712402,106.256336 82.1686972,104.269052 82.963623,102.550293 C83.7585489,100.831534 84.8945239,99.512944 86.371582,98.5944824 C87.8486402,97.6760208 89.5646875,97.2167969 91.5197754,97.2167969 C94.2268202,97.2167969 96.4074624,97.9418873 98.0617676,99.3920898 C99.7160727,100.842292 100.672118,102.877917 100.929932,105.499023 L96.0959473,105.499023 C95.9777826,103.984367 95.556156,102.88599 94.8310547,102.203857 C94.1059534,101.521725 93.0022047,101.180664 91.5197754,101.180664 C89.9084392,101.180664 88.7026407,101.758051 87.9023438,102.912842 C87.1020468,104.067633 86.6911622,105.858875 86.6696777,108.286621 L86.6696777,110.059082 C86.6696777,112.594251 87.0537071,114.44726 87.8217773,115.618164 C88.5898476,116.789068 89.8010171,117.374512 91.4553223,117.374512 C92.9484938,117.374512 94.0629846,117.033451 94.7988281,116.351318 C95.5346716,115.669186 95.9562983,114.613777 96.0637207,113.185059 L100.897705,113.185059 Z M121.828857,97.5390625 L121.828857,112.991699 C121.828857,115.559095 121.025887,117.589348 119.419922,119.08252 C117.813957,120.575691 115.619887,121.322266 112.837646,121.322266 C110.098375,121.322266 107.923104,120.597175 106.311768,119.146973 C104.700431,117.69677 103.878662,115.704114 103.846436,113.168945 L103.846436,97.5390625 L108.68042,97.5390625 L108.68042,113.023926 C108.68042,114.560066 109.048336,115.679928 109.78418,116.383545 C110.520023,117.087162 111.537835,117.438965 112.837646,117.438965 C115.555434,117.438965 116.935791,116.010268 116.97876,113.152832 L116.97876,97.5390625 L121.828857,97.5390625 Z M137.958252,114.844727 C137.958252,113.931636 137.63599,113.230715 136.991455,112.741943 C136.346921,112.253171 135.186776,111.737552 133.510986,111.195068 C131.835197,110.652585 130.50855,110.118167 129.531006,109.591797 C126.86693,108.152337 125.534912,106.213391 125.534912,103.774902 C125.534912,102.507318 125.892086,101.376714 126.606445,100.383057 C127.320804,99.3893993 128.346673,98.613284 129.684082,98.0546875 C131.021491,97.496091 132.522697,97.2167969 134.187744,97.2167969 C135.863534,97.2167969 137.356683,97.5202606 138.667236,98.1271973 C139.97779,98.7341339 140.995602,99.5908148 141.720703,100.697266 C142.445804,101.803716 142.80835,103.06054 142.80835,104.467773 L137.974365,104.467773 C137.974365,103.393549 137.63599,102.558353 136.959229,101.962158 C136.282467,101.365964 135.331793,101.067871 134.107178,101.067871 C132.925531,101.067871 132.007083,101.317624 131.351807,101.817139 C130.69653,102.316653 130.368896,102.974605 130.368896,103.791016 C130.368896,104.553715 130.752926,105.192869 131.520996,105.708496 C132.289066,106.224124 133.41967,106.707517 134.912842,107.158691 C137.662856,107.985844 139.666253,109.011713 140.923096,110.236328 C142.179938,111.460944 142.80835,112.986319 142.80835,114.8125 C142.80835,116.842784 142.040291,118.435297 140.50415,119.590088 C138.96801,120.744879 136.900159,121.322266 134.300537,121.322266 C132.495841,121.322266 130.852302,120.991947 129.369873,120.331299 C127.887444,119.670651 126.75684,118.765631 125.978027,117.616211 C125.199215,116.466791 124.809814,115.134773 124.809814,113.620117 L129.659912,113.620117 C129.659912,116.208997 131.206772,117.503418 134.300537,117.503418 C135.449957,117.503418 136.346921,117.269778 136.991455,116.80249 C137.63599,116.335203 137.958252,115.682621 137.958252,114.844727 Z M163.739502,101.45459 L156.552979,101.45459 L156.552979,121 L151.718994,121 L151.718994,101.45459 L144.62915,101.45459 L144.62915,97.5390625 L163.739502,97.5390625 L163.739502,101.45459 Z M185.766357,109.80127 C185.766357,112.110851 185.358158,114.135733 184.541748,115.875977 C183.725338,117.61622 182.557137,118.95898 181.037109,119.904297 C179.517082,120.849614 177.77418,121.322266 175.80835,121.322266 C173.864004,121.322266 172.129158,120.854985 170.60376,119.92041 C169.078362,118.985835 167.896733,117.651132 167.058838,115.91626 C166.220943,114.181388 165.796631,112.186046 165.785889,109.930176 L165.785889,108.77002 C165.785889,106.460438 166.202144,104.427499 167.034668,102.671143 C167.867192,100.914786 169.043449,99.5666551 170.563477,98.626709 C172.083504,97.6867629 173.821035,97.2167969 175.776123,97.2167969 C177.731211,97.2167969 179.468742,97.6867629 180.98877,98.626709 C182.508797,99.5666551 183.685054,100.914786 184.517578,102.671143 C185.350102,104.427499 185.766357,106.455067 185.766357,108.753906 L185.766357,109.80127 Z M180.86792,108.737793 C180.86792,106.27782 180.427495,104.408698 179.546631,103.130371 C178.665767,101.852044 177.408944,101.212891 175.776123,101.212891 C174.154045,101.212891 172.902592,101.843988 172.021729,103.106201 C171.140865,104.368415 170.695068,106.218738 170.684326,108.657227 L170.684326,109.80127 C170.684326,112.196789 171.124751,114.055169 172.005615,115.376465 C172.886479,116.697761 174.154044,117.358398 175.80835,117.358398 C177.430428,117.358398 178.676509,116.72193 179.546631,115.448975 C180.416752,114.176019 180.857178,112.320325 180.86792,109.881836 L180.86792,108.737793 Z M195.595459,97.5390625 L201.621826,114.554688 L207.615967,97.5390625 L213.9646,97.5390625 L213.9646,121 L209.114502,121 L209.114502,114.586914 L209.5979,103.51709 L203.265381,121 L199.946045,121 L193.629639,103.533203 L194.113037,114.586914 L194.113037,121 L189.279053,121 L189.279053,97.5390625 L195.595459,97.5390625 Z M232.301514,110.83252 L223.020264,110.83252 L223.020264,117.116699 L233.912842,117.116699 L233.912842,121 L218.186279,121 L218.186279,97.5390625 L233.880615,97.5390625 L233.880615,101.45459 L223.020264,101.45459 L223.020264,107.045898 L232.301514,107.045898 L232.301514,110.83252 Z M245.433838,112.411621 L241.582764,112.411621 L241.582764,121 L236.748779,121 L236.748779,97.5390625 L245.466064,97.5390625 C248.237563,97.5390625 250.375237,98.1567321 251.87915,99.3920898 C253.383064,100.627448 254.13501,102.373036 254.13501,104.628906 C254.13501,106.2295 253.788578,107.564204 253.095703,108.633057 C252.402829,109.70191 251.35279,110.553219 249.945557,111.187012 L255.02124,120.774414 L255.02124,121 L249.832764,121 L245.433838,112.411621 Z M241.582764,108.496094 L245.482178,108.496094 C246.696051,108.496094 247.635983,108.187259 248.302002,107.56958 C248.968021,106.951901 249.301025,106.100591 249.301025,105.015625 C249.301025,103.909174 248.98682,103.039066 248.358398,102.405273 C247.729977,101.771481 246.765876,101.45459 245.466064,101.45459 L241.582764,101.45459 L241.582764,108.496094 Z M285.104736,121 L280.270752,121 L270.860596,105.563477 L270.860596,121 L266.026611,121 L266.026611,97.5390625 L270.860596,97.5390625 L280.286865,113.007812 L280.286865,97.5390625 L285.104736,97.5390625 L285.104736,121 Z M303.44165,110.83252 L294.1604,110.83252 L294.1604,117.116699 L305.052979,117.116699 L305.052979,121 L289.326416,121 L289.326416,97.5390625 L305.020752,97.5390625 L305.020752,101.45459 L294.1604,101.45459 L294.1604,107.045898 L303.44165,107.045898 L303.44165,110.83252 Z M322.00415,110.83252 L312.7229,110.83252 L312.7229,117.116699 L323.615479,117.116699 L323.615479,121 L307.888916,121 L307.888916,97.5390625 L323.583252,97.5390625 L323.583252,101.45459 L312.7229,101.45459 L312.7229,107.045898 L322.00415,107.045898 L322.00415,110.83252 Z M326.451416,121 L326.451416,97.5390625 L333.670166,97.5390625 C335.732676,97.5390625 337.577629,98.0036575 339.205078,98.9328613 C340.832528,99.8620652 342.102779,101.183341 343.015869,102.896729 C343.92896,104.610116 344.385498,106.557118 344.385498,108.737793 L344.385498,109.817383 C344.385498,111.998058 343.937016,113.937003 343.040039,115.634277 C342.143062,117.331551 340.878182,118.647456 339.245361,119.582031 C337.612541,120.516606 335.770274,120.989258 333.718506,121 L326.451416,121 Z M331.2854,101.45459 L331.2854,117.116699 L333.621826,117.116699 C335.512461,117.116699 336.95727,116.49903 337.956299,115.263672 C338.955327,114.028314 339.465576,112.261242 339.487061,109.962402 L339.487061,108.72168 C339.487061,106.336902 338.992925,104.529547 338.004639,103.299561 C337.016352,102.069574 335.571543,101.45459 333.670166,101.45459 L331.2854,101.45459 Z M360.063721,114.844727 C360.063721,113.931636 359.741458,113.230715 359.096924,112.741943 C358.452389,112.253171 357.292245,111.737552 355.616455,111.195068 C353.940665,110.652585 352.614019,110.118167 351.636475,109.591797 C348.972399,108.152337 347.640381,106.213391 347.640381,103.774902 C347.640381,102.507318 347.997555,101.376714 348.711914,100.383057 C349.426273,99.3893993 350.452142,98.613284 351.789551,98.0546875 C353.12696,97.496091 354.628166,97.2167969 356.293213,97.2167969 C357.969003,97.2167969 359.462152,97.5202606 360.772705,98.1271973 C362.083259,98.7341339 363.101071,99.5908148 363.826172,100.697266 C364.551273,101.803716 364.913818,103.06054 364.913818,104.467773 L360.079834,104.467773 C360.079834,103.393549 359.741458,102.558353 359.064697,101.962158 C358.387936,101.365964 357.437262,101.067871 356.212646,101.067871 C355.031,101.067871 354.112552,101.317624 353.457275,101.817139 C352.801999,102.316653 352.474365,102.974605 352.474365,103.791016 C352.474365,104.553715 352.858395,105.192869 353.626465,105.708496 C354.394535,106.224124 355.525139,106.707517 357.018311,107.158691 C359.768324,107.985844 361.771722,109.011713 363.028564,110.236328 C364.285407,111.460944 364.913818,112.986319 364.913818,114.8125 C364.913818,116.842784 364.14576,118.435297 362.609619,119.590088 C361.073479,120.744879 359.005628,121.322266 356.406006,121.322266 C354.601309,121.322266 352.957771,120.991947 351.475342,120.331299 C349.992913,119.670651 348.862309,118.765631 348.083496,117.616211 C347.304684,116.466791 346.915283,115.134773 346.915283,113.620117 L351.765381,113.620117 C351.765381,116.208997 353.31224,117.503418 356.406006,117.503418 C357.555426,117.503418 358.452389,117.269778 359.096924,116.80249 C359.741458,116.335203 360.063721,115.682621 360.063721,114.844727 Z M394.062744,101.45459 L386.876221,101.45459 L386.876221,121 L382.042236,121 L382.042236,101.45459 L374.952393,101.45459 L374.952393,97.5390625 L394.062744,97.5390625 L394.062744,101.45459 Z M416.0896,109.80127 C416.0896,112.110851 415.681401,114.135733 414.86499,115.875977 C414.04858,117.61622 412.880379,118.95898 411.360352,119.904297 C409.840324,120.849614 408.097422,121.322266 406.131592,121.322266 C404.187246,121.322266 402.4524,120.854985 400.927002,119.92041 C399.401604,118.985835 398.219975,117.651132 397.38208,115.91626 C396.544185,114.181388 396.119873,112.186046 396.109131,109.930176 L396.109131,108.77002 C396.109131,106.460438 396.525386,104.427499 397.35791,102.671143 C398.190434,100.914786 399.366692,99.5666551 400.886719,98.626709 C402.406746,97.6867629 404.144277,97.2167969 406.099365,97.2167969 C408.054453,97.2167969 409.791985,97.6867629 411.312012,98.626709 C412.832039,99.5666551 414.008297,100.914786 414.84082,102.671143 C415.673344,104.427499 416.0896,106.455067 416.0896,108.753906 L416.0896,109.80127 Z M411.191162,108.737793 C411.191162,106.27782 410.750737,104.408698 409.869873,103.130371 C408.989009,101.852044 407.732186,101.212891 406.099365,101.212891 C404.477287,101.212891 403.225834,101.843988 402.344971,103.106201 C401.464107,104.368415 401.018311,106.218738 401.007568,108.657227 L401.007568,109.80127 C401.007568,112.196789 401.447994,114.055169 402.328857,115.376465 C403.209721,116.697761 404.477287,117.358398 406.131592,117.358398 C407.75367,117.358398 408.999752,116.72193 409.869873,115.448975 C410.739995,114.176019 411.18042,112.320325 411.191162,109.881836 L411.191162,108.737793 Z M432.654053,112.733887 L432.654053,121 L427.820068,121 L427.820068,97.5390625 L436.972412,97.5390625 C438.73414,97.5390625 440.283685,97.8613249 441.621094,98.5058594 C442.958503,99.1503938 443.987057,100.066156 444.706787,101.253174 C445.426517,102.440191 445.786377,103.791008 445.786377,105.305664 C445.786377,107.604504 444.99952,109.41723 443.425781,110.743896 C441.852043,112.070563 439.674086,112.733887 436.891846,112.733887 L432.654053,112.733887 Z M432.654053,108.818359 L436.972412,108.818359 C438.250739,108.818359 439.225583,108.517581 439.896973,107.916016 C440.568363,107.31445 440.904053,106.455084 440.904053,105.337891 C440.904053,104.188471 440.565677,103.259281 439.888916,102.550293 C439.212155,101.841305 438.277594,101.476074 437.085205,101.45459 L432.654053,101.45459 L432.654053,108.818359 Z M462.35083,116.166016 L453.875244,116.166016 L452.263916,121 L447.123779,121 L455.857178,97.5390625 L460.33667,97.5390625 L469.118408,121 L463.978271,121 L462.35083,116.166016 Z M455.18042,112.250488 L461.045654,112.250488 L458.096924,103.46875 L455.18042,112.250488 Z M479.398682,108.109375 L484.281006,97.5390625 L489.566162,97.5390625 L481.864014,112.492188 L481.864014,121 L476.949463,121 L476.949463,112.492188 L469.247314,97.5390625 L474.548584,97.5390625 L479.398682,108.109375 Z M124.970947,153.232422 L128.12915,136.539062 L132.947021,136.539062 L127.742432,160 L122.876221,160 L119.057373,144.305664 L115.238525,160 L110.372314,160 L105.167725,136.539062 L109.985596,136.539062 L113.159912,153.200195 L117.0271,136.539062 L121.119873,136.539062 L124.970947,153.232422 Z M140.69751,160 L135.863525,160 L135.863525,136.539062 L140.69751,136.539062 L140.69751,160 Z M150.010986,156.116699 L160.275146,156.116699 L160.275146,160 L145.177002,160 L145.177002,136.539062 L150.010986,136.539062 L150.010986,156.116699 Z M167.880615,156.116699 L178.144775,156.116699 L178.144775,160 L163.046631,160 L163.046631,136.539062 L167.880615,136.539062 L167.880615,156.116699 Z M202.37915,155.166016 L193.903564,155.166016 L192.292236,160 L187.1521,160 L195.885498,136.539062 L200.36499,136.539062 L209.146729,160 L204.006592,160 L202.37915,155.166016 Z M195.20874,151.250488 L201.073975,151.250488 L198.125244,142.46875 L195.20874,151.250488 Z M216.172119,156.116699 L226.436279,156.116699 L226.436279,160 L211.338135,160 L211.338135,136.539062 L216.172119,136.539062 L216.172119,156.116699 Z M247.480225,153.232422 L250.638428,136.539062 L255.456299,136.539062 L250.251709,160 L245.385498,160 L241.56665,144.305664 L237.747803,160 L232.881592,160 L227.677002,136.539062 L232.494873,136.539062 L235.669189,153.200195 L239.536377,136.539062 L243.62915,136.539062 L247.480225,153.232422 Z M271.311768,155.166016 L262.836182,155.166016 L261.224854,160 L256.084717,160 L264.818115,136.539062 L269.297607,136.539062 L278.079346,160 L272.939209,160 L271.311768,155.166016 Z M264.141357,151.250488 L270.006592,151.250488 L267.057861,142.46875 L264.141357,151.250488 Z M288.359619,147.109375 L293.241943,136.539062 L298.5271,136.539062 L290.824951,151.492188 L290.824951,160 L285.9104,160 L285.9104,151.492188 L278.208252,136.539062 L283.509521,136.539062 L288.359619,147.109375 Z M312.835693,153.844727 C312.835693,152.931636 312.513431,152.230715 311.868896,151.741943 C311.224362,151.253171 310.064217,150.737552 308.388428,150.195068 C306.712638,149.652585 305.385991,149.118167 304.408447,148.591797 C301.744371,147.152337 300.412354,145.213391 300.412354,142.774902 C300.412354,141.507318 300.769528,140.376714 301.483887,139.383057 C302.198246,138.389399 303.224114,137.613284 304.561523,137.054688 C305.898932,136.496091 307.400138,136.216797 309.065186,136.216797 C310.740975,136.216797 312.234124,136.520261 313.544678,137.127197 C314.855231,137.734134 315.873043,138.590815 316.598145,139.697266 C317.323246,140.803716 317.685791,142.06054 317.685791,143.467773 L312.851807,143.467773 C312.851807,142.393549 312.513431,141.558353 311.83667,140.962158 C311.159909,140.365964 310.209235,140.067871 308.984619,140.067871 C307.802973,140.067871 306.884525,140.317624 306.229248,140.817139 C305.573971,141.316653 305.246338,141.974605 305.246338,142.791016 C305.246338,143.553715 305.630367,144.192869 306.398438,144.708496 C307.166508,145.224124 308.297112,145.707517 309.790283,146.158691 C312.540297,146.985844 314.543695,148.011713 315.800537,149.236328 C317.057379,150.460944 317.685791,151.986319 317.685791,153.8125 C317.685791,155.842784 316.917732,157.435297 315.381592,158.590088 C313.845451,159.744879 311.777601,160.322266 309.177979,160.322266 C307.373282,160.322266 305.729744,159.991947 304.247314,159.331299 C302.764885,158.670651 301.634281,157.765631 300.855469,156.616211 C300.076656,155.466791 299.687256,154.134773 299.687256,152.620117 L304.537354,152.620117 C304.537354,155.208997 306.084213,156.503418 309.177979,156.503418 C310.327398,156.503418 311.224362,156.269778 311.868896,155.80249 C312.513431,155.335203 312.835693,154.682621 312.835693,153.844727 Z M329.174561,160 L329.174561,136.539062 L337.392334,136.539062 C340.239028,136.539062 342.398186,137.084223 343.869873,138.174561 C345.34156,139.264898 346.077393,140.862782 346.077393,142.968262 C346.077393,144.117682 345.781985,145.130123 345.191162,146.005615 C344.600339,146.881108 343.77857,147.522947 342.72583,147.931152 C343.928961,148.231935 344.87695,148.838863 345.569824,149.751953 C346.262699,150.665044 346.609131,151.78222 346.609131,153.103516 C346.609131,155.359386 345.889411,157.067377 344.449951,158.227539 C343.010491,159.387701 340.958754,159.978516 338.294678,160 L329.174561,160 Z M334.008545,149.78418 L334.008545,156.116699 L338.149658,156.116699 C339.288336,156.116699 340.177243,155.845462 340.816406,155.302979 C341.45557,154.760495 341.775146,154.011235 341.775146,153.055176 C341.775146,150.906728 340.663341,149.816406 338.439697,149.78418 L334.008545,149.78418 Z M334.008545,146.368164 L337.585693,146.368164 C340.024182,146.325195 341.243408,145.353037 341.243408,143.45166 C341.243408,142.388178 340.934573,141.622805 340.316895,141.155518 C339.699216,140.68823 338.724372,140.45459 337.392334,140.45459 L334.008545,140.45459 L334.008545,146.368164 Z M364.349854,149.83252 L355.068604,149.83252 L355.068604,156.116699 L365.961182,156.116699 L365.961182,160 L350.234619,160 L350.234619,136.539062 L365.928955,136.539062 L365.928955,140.45459 L355.068604,140.45459 L355.068604,146.045898 L364.349854,146.045898 L364.349854,149.83252 Z M396.109131,160 L391.275146,160 L391.275146,149.945312 L381.848877,149.945312 L381.848877,160 L377.014893,160 L377.014893,136.539062 L381.848877,136.539062 L381.848877,146.045898 L391.275146,146.045898 L391.275146,136.539062 L396.109131,136.539062 L396.109131,160 Z M414.446045,149.83252 L405.164795,149.83252 L405.164795,156.116699 L416.057373,156.116699 L416.057373,160 L400.330811,160 L400.330811,136.539062 L416.025146,136.539062 L416.025146,140.45459 L405.164795,140.45459 L405.164795,146.045898 L414.446045,146.045898 L414.446045,149.83252 Z M427.578369,151.411621 L423.727295,151.411621 L423.727295,160 L418.893311,160 L418.893311,136.539062 L427.610596,136.539062 C430.382094,136.539062 432.519768,137.156732 434.023682,138.39209 C435.527595,139.627448 436.279541,141.373036 436.279541,143.628906 C436.279541,145.2295 435.933109,146.564204 435.240234,147.633057 C434.54736,148.70191 433.497321,149.553219 432.090088,150.187012 L437.165771,159.774414 L437.165771,160 L431.977295,160 L427.578369,151.411621 Z M423.727295,147.496094 L427.626709,147.496094 C428.840582,147.496094 429.780514,147.187259 430.446533,146.56958 C431.112552,145.951901 431.445557,145.100591 431.445557,144.015625 C431.445557,142.909174 431.131351,142.039066 430.50293,141.405273 C429.874509,140.771481 428.910407,140.45459 427.610596,140.45459 L423.727295,140.45459 L423.727295,147.496094 Z M454.068604,149.83252 L444.787354,149.83252 L444.787354,156.116699 L455.679932,156.116699 L455.679932,160 L439.953369,160 L439.953369,136.539062 L455.647705,136.539062 L455.647705,140.45459 L444.787354,140.45459 L444.787354,146.045898 L454.068604,146.045898 L454.068604,149.83252 Z M462.947021,152.797363 L459.079834,152.797363 L458.531982,136.539062 L463.494873,136.539062 L462.947021,152.797363 Z M461.013428,155.343262 C461.797611,155.343262 462.428709,155.574216 462.906738,156.036133 C463.384768,156.498049 463.623779,157.088864 463.623779,157.808594 C463.623779,158.517582 463.384768,159.103025 462.906738,159.564941 C462.428709,160.026858 461.797611,160.257812 461.013428,160.257812 C460.239986,160.257812 459.61426,160.026858 459.13623,159.564941 C458.658201,159.103025 458.419189,158.517582 458.419189,157.808594 C458.419189,157.099606 458.658201,156.511477 459.13623,156.044189 C459.61426,155.576902 460.239986,155.343262 461.013428,155.343262 Z" id="THEFINALAMOUNTTHECUSTOMERNEEDSTOPAYWILLALWAYSBEHERE!" fill="#000000" fill-rule="nonzero"></path>
    </g>
</svg>