<?xml version="1.0" encoding="UTF-8"?>
<svg width="570px" height="792px" viewBox="0 0 570 792" version="1.1" xmlns="http://www.w3.org/2000/svg" xmlns:xlink="http://www.w3.org/1999/xlink">
    <!-- Generator: Sketch 54.1 (76490) - https://sketchapp.com -->
    <title>8_create_en</title>
    <desc>Created with Sketch.</desc>
    <g id="8_create_en" stroke="none" stroke-width="1" fill="none" fill-rule="evenodd">
        <rect fill="#00B0FF" x="0" y="0" width="570" height="792"></rect>
        <g id="Group-3" transform="translate(12.000000, 225.000000)">
            <rect id="Rectangle" fill="#0B0C24" x="0" y="0" width="547" height="547" rx="13"></rect>
            <path d="M12,286 L189,286 L189,388 L25,388 C17.8202983,388 12,382.179702 12,375 L12,286 Z" id="Rectangle" fill="#0098CE"></path>
            <path d="M355,286 L532,286 L532,388 L368,388 C360.820298,388 355,382.179702 355,375 L355,286 Z" id="Rectangle" fill="#0098CE" transform="translate(443.500000, 337.000000) scale(-1, 1) translate(-443.500000, -337.000000) "></path>
            <rect id="Rectangle" stroke="#979797" fill="#FFFFFF" x="12.5" y="400.5" width="519" height="64"></rect>
            <path d="M12,465 L532,465 L532,519 C532,525.075132 527.075132,530 521,530 L23,530 C16.9248678,530 12,525.075132 12,519 L12,465 Z" id="Rectangle" fill="#0098CE"></path>
            <text id="ADD-ITEM" font-family="Lato-Bold, Lato" font-size="40" font-weight="bold" fill="#FFFFFF">
                <tspan x="180" y="508">ADD ITEM</tspan>
            </text>
            <text id="-$0.00" font-family="Roboto-Bold, Roboto" font-size="30" font-weight="bold" fill="#FF0088">
                <tspan x="423.805664" y="243">-$0.00</tspan>
            </text>
            <text id="Discount:" font-family="Roboto-Bold, Roboto" font-size="30" font-weight="bold" fill="#00E7FF">
                <tspan x="403.324219" y="189">Discount:</tspan>
            </text>
            <text id="Sub:-Tax:-Tip:" font-family="Roboto-Bold, Roboto" font-size="30" font-weight="bold" fill="#00E7FF">
                <tspan x="21.4140625" y="189">Sub:</tspan>
                <tspan x="23.6259766" y="224">Tax:</tspan>
                <tspan x="30.1298828" y="259">Tip:</tspan>
            </text>
            <text id="$0.00" font-family="Lato-Bold, Lato" font-size="40" font-weight="bold" fill="#659B00">
                <tspan x="411.7" y="446">$0.00</tspan>
            </text>
            <text id="CUSTOMER-1" font-family="Roboto-Bold, Roboto" font-size="40" font-weight="bold" fill="#FFFFFF">
                <tspan x="34.2851562" y="76">CUSTOMER 1</tspan>
            </text>
            <rect id="Rectangle" stroke-opacity="0.329200634" stroke="#00C9FE" stroke-width="3" x="21.5" y="28.5" width="269" height="67" rx="6"></rect>
            <rect id="Rectangle" stroke-opacity="0.329200634" stroke="#00C9FE" stroke-width="3" x="405.5" y="210.5" width="125" height="47" rx="6"></rect>
            <text id="$0.00" font-family="Lato-Bold, Lato" font-size="60" font-weight="bold" fill="#FFFFFF">
                <tspan x="188.55" y="256">$0.00</tspan>
            </text>
            <text id="OPEN" font-family="Roboto-Bold, Roboto" font-size="40" font-weight="bold" fill="#FFFFFF">
                <tspan x="424.419922" y="141">OPEN</tspan>
            </text>
            <path d="M41.2851562,133.539062 C41.2851562,132.432286 40.8945352,131.582685 40.1132812,130.990234 C39.3320273,130.397783 37.9257914,129.77279 35.8945312,129.115234 C33.8632711,128.457679 32.2552143,127.809899 31.0703125,127.171875 C27.8411297,125.427075 26.2265625,123.076838 26.2265625,120.121094 C26.2265625,118.584628 26.6595009,117.214199 27.5253906,116.009766 C28.3912804,114.805333 29.6347575,113.864587 31.2558594,113.1875 C32.8769612,112.510413 34.6966045,112.171875 36.7148438,112.171875 C38.7461039,112.171875 40.5559816,112.53971 42.1445312,113.275391 C43.7330809,114.011071 44.9667925,115.049472 45.8457031,116.390625 C46.7246138,117.731778 47.1640625,119.2552 47.1640625,120.960938 L41.3046875,120.960938 C41.3046875,119.658848 40.8945354,118.646488 40.0742188,117.923828 C39.2539021,117.201168 38.1015699,116.839844 36.6171875,116.839844 C35.1848887,116.839844 34.0716186,117.142575 33.2773438,117.748047 C32.4830689,118.353519 32.0859375,119.151037 32.0859375,120.140625 C32.0859375,121.065109 32.5514276,121.839841 33.4824219,122.464844 C34.4134161,123.089847 35.7838451,123.675779 37.59375,124.222656 C40.9271,125.225265 43.3554611,126.468743 44.8789062,127.953125 C46.4023514,129.437507 47.1640625,131.286447 47.1640625,133.5 C47.1640625,135.96095 46.2330822,137.891269 44.3710938,139.291016 C42.5091053,140.690762 40.0026199,141.390625 36.8515625,141.390625 C34.6640516,141.390625 32.671884,140.990238 30.875,140.189453 C29.078116,139.388668 27.707687,138.291674 26.7636719,136.898438 C25.8196567,135.505201 25.3476562,133.890634 25.3476562,132.054688 L31.2265625,132.054688 C31.2265625,135.192724 33.1015438,136.761719 36.8515625,136.761719 C38.2447986,136.761719 39.3320273,136.478518 40.1132812,135.912109 C40.8945352,135.3457 41.2851562,134.554693 41.2851562,133.539062 Z M68.2382812,128.675781 L56.9882812,128.675781 L56.9882812,136.292969 L70.1914062,136.292969 L70.1914062,141 L51.1289062,141 L51.1289062,112.5625 L70.1523438,112.5625 L70.1523438,117.308594 L56.9882812,117.308594 L56.9882812,124.085938 L68.2382812,124.085938 L68.2382812,128.675781 Z M84.15625,130.589844 L79.4882812,130.589844 L79.4882812,141 L73.6289062,141 L73.6289062,112.5625 L84.1953125,112.5625 C87.5547043,112.5625 90.1458242,113.31119 91.96875,114.808594 C93.7916758,116.305997 94.703125,118.421861 94.703125,121.15625 C94.703125,123.096364 94.2832073,124.714186 93.4433594,126.009766 C92.6035114,127.305345 91.3307377,128.337236 89.625,129.105469 L95.7773438,140.726562 L95.7773438,141 L89.4882812,141 L84.15625,130.589844 Z M79.4882812,125.84375 L84.2148438,125.84375 C85.6862053,125.84375 86.8255168,125.469405 87.6328125,124.720703 C88.4401082,123.972001 88.84375,122.940111 88.84375,121.625 C88.84375,120.283847 88.4628944,119.229171 87.7011719,118.460938 C86.9394493,117.692704 85.7708412,117.308594 84.1953125,117.308594 L79.4882812,117.308594 L79.4882812,125.84375 Z M109.664062,133.949219 L116.109375,112.5625 L122.632812,112.5625 L112.730469,141 L106.617188,141 L96.7539062,112.5625 L103.257812,112.5625 L109.664062,133.949219 Z M142.417969,128.675781 L131.167969,128.675781 L131.167969,136.292969 L144.371094,136.292969 L144.371094,141 L125.308594,141 L125.308594,112.5625 L144.332031,112.5625 L144.332031,117.308594 L131.167969,117.308594 L131.167969,124.085938 L142.417969,124.085938 L142.417969,128.675781 Z M158.335938,130.589844 L153.667969,130.589844 L153.667969,141 L147.808594,141 L147.808594,112.5625 L158.375,112.5625 C161.734392,112.5625 164.325512,113.31119 166.148438,114.808594 C167.971363,116.305997 168.882812,118.421861 168.882812,121.15625 C168.882812,123.096364 168.462895,124.714186 167.623047,126.009766 C166.783199,127.305345 165.510425,128.337236 163.804688,129.105469 L169.957031,140.726562 L169.957031,141 L163.667969,141 L158.335938,130.589844 Z M153.667969,125.84375 L158.394531,125.84375 C159.865893,125.84375 161.005204,125.469405 161.8125,124.720703 C162.619796,123.972001 163.023438,122.940111 163.023438,121.625 C163.023438,120.283847 162.642582,119.229171 161.880859,118.460938 C161.119137,117.692704 159.950529,117.308594 158.375,117.308594 L153.667969,117.308594 L153.667969,125.84375 Z M190.953125,112.5625 L198.257812,133.1875 L205.523438,112.5625 L213.21875,112.5625 L213.21875,141 L207.339844,141 L207.339844,133.226562 L207.925781,119.808594 L200.25,141 L196.226562,141 L188.570312,119.828125 L189.15625,133.226562 L189.15625,141 L183.296875,141 L183.296875,112.5625 L190.953125,112.5625 Z M224.566406,141 L218.707031,141 L218.707031,112.5625 L224.566406,112.5625 L224.566406,141 Z M253.121094,141 L247.261719,141 L235.855469,122.289062 L235.855469,141 L229.996094,141 L229.996094,112.5625 L235.855469,112.5625 L247.28125,131.3125 L247.28125,112.5625 L253.121094,112.5625 L253.121094,141 Z M272.984375,133.539062 C272.984375,132.432286 272.593754,131.582685 271.8125,130.990234 C271.031246,130.397783 269.62501,129.77279 267.59375,129.115234 C265.56249,128.457679 263.954433,127.809899 262.769531,127.171875 C259.540348,125.427075 257.925781,123.076838 257.925781,120.121094 C257.925781,118.584628 258.35872,117.214199 259.224609,116.009766 C260.090499,114.805333 261.333976,113.864587 262.955078,113.1875 C264.57618,112.510413 266.395823,112.171875 268.414062,112.171875 C270.445323,112.171875 272.2552,112.53971 273.84375,113.275391 C275.4323,114.011071 276.666011,115.049472 277.544922,116.390625 C278.423833,117.731778 278.863281,119.2552 278.863281,120.960938 L273.003906,120.960938 C273.003906,119.658848 272.593754,118.646488 271.773438,117.923828 C270.953121,117.201168 269.800789,116.839844 268.316406,116.839844 C266.884107,116.839844 265.770837,117.142575 264.976562,117.748047 C264.182288,118.353519 263.785156,119.151037 263.785156,120.140625 C263.785156,121.065109 264.250646,121.839841 265.181641,122.464844 C266.112635,123.089847 267.483064,123.675779 269.292969,124.222656 C272.626319,125.225265 275.05468,126.468743 276.578125,127.953125 C278.10157,129.437507 278.863281,131.286447 278.863281,133.5 C278.863281,135.96095 277.932301,137.891269 276.070312,139.291016 C274.208324,140.690762 271.701839,141.390625 268.550781,141.390625 C266.36327,141.390625 264.371103,140.990238 262.574219,140.189453 C260.777335,139.388668 259.406906,138.291674 258.462891,136.898438 C257.518875,135.505201 257.046875,133.890634 257.046875,132.054688 L262.925781,132.054688 C262.925781,135.192724 264.800763,136.761719 268.550781,136.761719 C269.944017,136.761719 271.031246,136.478518 271.8125,135.912109 C272.593754,135.3457 272.984375,134.554693 272.984375,133.539062 Z M314.195312,117.308594 L305.484375,117.308594 L305.484375,141 L299.625,141 L299.625,117.308594 L291.03125,117.308594 L291.03125,112.5625 L314.195312,112.5625 L314.195312,117.308594 Z M323.765625,141 L317.90625,141 L317.90625,112.5625 L323.765625,112.5625 L323.765625,141 Z M336.851562,112.5625 L344.15625,133.1875 L351.421875,112.5625 L359.117188,112.5625 L359.117188,141 L353.238281,141 L353.238281,133.226562 L353.824219,119.808594 L346.148438,141 L342.125,141 L334.46875,119.828125 L335.054688,133.226562 L335.054688,141 L329.195312,141 L329.195312,112.5625 L336.851562,112.5625 Z M381.34375,128.675781 L370.09375,128.675781 L370.09375,136.292969 L383.296875,136.292969 L383.296875,141 L364.234375,141 L364.234375,112.5625 L383.257812,112.5625 L383.257812,117.308594 L370.09375,117.308594 L370.09375,124.085938 L381.34375,124.085938 L381.34375,128.675781 Z" id="SERVERMINSTIME" fill="#FFFFFF" fill-rule="nonzero"></path>
            <rect id="Rectangle" fill="#ADFB5F" x="449" y="39" width="82" height="50" rx="3"></rect>
            <ellipse id="Oval" fill="#FFFFFF" cx="491" cy="64" rx="18" ry="19"></ellipse>
            <text id="$" font-family="Roboto-Bold, Roboto" font-size="30" font-weight="bold" fill="#509209">
                <tspan x="482.394043" y="75">$</tspan>
            </text>
            <text id="Custom-Item-1" font-family="Lato-Bold, Lato" font-size="40" font-weight="bold" fill="#949494">
                <tspan x="26.8" y="445">Custom Item 1</tspan>
            </text>
            <rect id="Rectangle" fill="#98CE00" x="189" y="286" width="166" height="102"></rect>
            <text id="AUTH" font-family="Roboto-Black, Roboto" font-size="35" font-weight="700" fill="#080B26">
                <tspan x="54" y="350">AUTH</tspan>
            </text>
            <text id="PAY" font-family="Roboto-Black, Roboto" font-size="35" font-weight="700" fill="#080B26">
                <tspan x="238" y="350">PAY</tspan>
            </text>
            <text id="CATALOG" font-family="Roboto-Black, Roboto" font-size="35" font-weight="700" fill="#080B26">
                <tspan x="364" y="349">CATALOG</tspan>
            </text>
        </g>
        <polygon id="Path-2" fill="#000000" opacity="0.825497582" points="24 244 24 325 189 325 189 379 189 325 24 325 24 386 179.053424 386.456039 185.417065 386.474756 364 387 364 500 187 500 187 387 24 386 24 508 24 756.684615 544 756.684615 544 374.684615 544 245 419 244.684615 319 244.684615 319 244"></polygon>
        <rect id="Rectangle" fill="#FFFFFF" x="61" y="47" width="449" height="151" rx="12"></rect>
        <path id="Line-2" d="M273.485,379 L273.485,186 L281.485,186 L281.485,379 L299.485,379 L277.485,423 L255.485,379 L273.485,379 Z" fill="#FFFFFF" fill-rule="nonzero"></path>
        <path d="M114.932373,75.9545898 L107.74585,75.9545898 L107.74585,95.5 L102.911865,95.5 L102.911865,75.9545898 L95.8220215,75.9545898 L95.8220215,72.0390625 L114.932373,72.0390625 L114.932373,75.9545898 Z M136.781982,95.5 L131.947998,95.5 L131.947998,85.4453125 L122.521729,85.4453125 L122.521729,95.5 L117.687744,95.5 L117.687744,72.0390625 L122.521729,72.0390625 L122.521729,81.5458984 L131.947998,81.5458984 L131.947998,72.0390625 L136.781982,72.0390625 L136.781982,95.5 Z M155.118896,85.3325195 L145.837646,85.3325195 L145.837646,91.6166992 L156.730225,91.6166992 L156.730225,95.5 L141.003662,95.5 L141.003662,72.0390625 L156.697998,72.0390625 L156.697998,75.9545898 L145.837646,75.9545898 L145.837646,81.5458984 L155.118896,81.5458984 L155.118896,85.3325195 Z M181.89917,85.9125977 L172.61792,85.9125977 L172.61792,95.5 L167.783936,95.5 L167.783936,72.0390625 L183.059326,72.0390625 L183.059326,75.9545898 L172.61792,75.9545898 L172.61792,82.0131836 L181.89917,82.0131836 L181.89917,85.9125977 Z M191.003174,95.5 L186.169189,95.5 L186.169189,72.0390625 L191.003174,72.0390625 L191.003174,95.5 Z M214.560791,95.5 L209.726807,95.5 L200.31665,80.0634766 L200.31665,95.5 L195.482666,95.5 L195.482666,72.0390625 L200.31665,72.0390625 L209.74292,87.5078125 L209.74292,72.0390625 L214.560791,72.0390625 L214.560791,95.5 Z M232.027588,90.6660156 L223.552002,90.6660156 L221.940674,95.5 L216.800537,95.5 L225.533936,72.0390625 L230.013428,72.0390625 L238.795166,95.5 L233.655029,95.5 L232.027588,90.6660156 Z M224.857178,86.7504883 L230.722412,86.7504883 L227.773682,77.96875 L224.857178,86.7504883 Z M245.820557,91.6166992 L256.084717,91.6166992 L256.084717,95.5 L240.986572,95.5 L240.986572,72.0390625 L245.820557,72.0390625 L245.820557,91.6166992 Z M280.319092,90.6660156 L271.843506,90.6660156 L270.232178,95.5 L265.092041,95.5 L273.825439,72.0390625 L278.304932,72.0390625 L287.08667,95.5 L281.946533,95.5 L280.319092,90.6660156 Z M273.148682,86.7504883 L279.013916,86.7504883 L276.065186,77.96875 L273.148682,86.7504883 Z M295.594482,72.0390625 L301.62085,89.0546875 L307.61499,72.0390625 L313.963623,72.0390625 L313.963623,95.5 L309.113525,95.5 L309.113525,89.0869141 L309.596924,78.0170898 L303.264404,95.5 L299.945068,95.5 L293.628662,78.0332031 L294.112061,89.0869141 L294.112061,95.5 L289.278076,95.5 L289.278076,72.0390625 L295.594482,72.0390625 Z M337.456787,84.3012695 C337.456787,86.6108514 337.048588,88.6357335 336.232178,90.3759766 C335.415767,92.1162196 334.247566,93.4589796 332.727539,94.4042969 C331.207512,95.3496141 329.464609,95.8222656 327.498779,95.8222656 C325.554434,95.8222656 323.819588,95.3549851 322.294189,94.4204102 C320.768791,93.4858352 319.587162,92.1511317 318.749268,90.4162598 C317.911373,88.6813878 317.487061,86.6860464 317.476318,84.4301758 L317.476318,83.2700195 C317.476318,80.9604377 317.892574,78.927499 318.725098,77.1711426 C319.557621,75.4147861 320.733879,74.0666551 322.253906,73.126709 C323.773933,72.1867629 325.511465,71.7167969 327.466553,71.7167969 C329.421641,71.7167969 331.159172,72.1867629 332.679199,73.126709 C334.199226,74.0666551 335.375484,75.4147861 336.208008,77.1711426 C337.040532,78.927499 337.456787,80.9550666 337.456787,83.2539062 L337.456787,84.3012695 Z M332.55835,83.237793 C332.55835,80.7778197 332.117924,78.9086978 331.237061,77.6303711 C330.356197,76.3520444 329.099373,75.7128906 327.466553,75.7128906 C325.844474,75.7128906 324.593022,76.3439878 323.712158,77.6062012 C322.831294,78.8684145 322.385498,80.7187378 322.374756,83.1572266 L322.374756,84.3012695 C322.374756,86.6967893 322.815181,88.5551692 323.696045,89.8764648 C324.576909,91.1977605 325.844474,91.8583984 327.498779,91.8583984 C329.120858,91.8583984 330.366939,91.2219302 331.237061,89.9489746 C332.107182,88.676019 332.547607,86.8203247 332.55835,84.3818359 L332.55835,83.237793 Z M358.726318,72.0390625 L358.726318,87.4916992 C358.726318,90.0590949 357.923348,92.089348 356.317383,93.5825195 C354.711418,95.0756911 352.517348,95.8222656 349.735107,95.8222656 C346.995836,95.8222656 344.820565,95.0971752 343.209229,93.6469727 C341.597892,92.1967701 340.776123,90.2041142 340.743896,87.6689453 L340.743896,72.0390625 L345.577881,72.0390625 L345.577881,87.5239258 C345.577881,89.0600663 345.945797,90.1799281 346.681641,90.8835449 C347.417484,91.5871617 348.435296,91.9389648 349.735107,91.9389648 C352.452894,91.9389648 353.833252,90.5102682 353.876221,87.652832 L353.876221,72.0390625 L358.726318,72.0390625 Z M381.768311,95.5 L376.934326,95.5 L367.52417,80.0634766 L367.52417,95.5 L362.690186,95.5 L362.690186,72.0390625 L367.52417,72.0390625 L376.950439,87.5078125 L376.950439,72.0390625 L381.768311,72.0390625 L381.768311,95.5 Z M403.650146,75.9545898 L396.463623,75.9545898 L396.463623,95.5 L391.629639,95.5 L391.629639,75.9545898 L384.539795,75.9545898 L384.539795,72.0390625 L403.650146,72.0390625 L403.650146,75.9545898 Z M432.283447,75.9545898 L425.096924,75.9545898 L425.096924,95.5 L420.262939,95.5 L420.262939,75.9545898 L413.173096,75.9545898 L413.173096,72.0390625 L432.283447,72.0390625 L432.283447,75.9545898 Z M454.133057,95.5 L449.299072,95.5 L449.299072,85.4453125 L439.872803,85.4453125 L439.872803,95.5 L435.038818,95.5 L435.038818,72.0390625 L439.872803,72.0390625 L439.872803,81.5458984 L449.299072,81.5458984 L449.299072,72.0390625 L454.133057,72.0390625 L454.133057,95.5 Z M472.469971,85.3325195 L463.188721,85.3325195 L463.188721,91.6166992 L474.081299,91.6166992 L474.081299,95.5 L458.354736,95.5 L458.354736,72.0390625 L474.049072,72.0390625 L474.049072,75.9545898 L463.188721,75.9545898 L463.188721,81.5458984 L472.469971,81.5458984 L472.469971,85.3325195 Z M100.897705,126.685059 C100.715087,129.209485 99.7832115,131.19677 98.1020508,132.646973 C96.42089,134.097175 94.205336,134.822266 91.4553223,134.822266 C88.4474947,134.822266 86.0815516,133.809825 84.3574219,131.784912 C82.6332922,129.76 81.7712402,126.980486 81.7712402,123.446289 L81.7712402,122.012207 C81.7712402,119.756336 82.1686972,117.769052 82.963623,116.050293 C83.7585489,114.331534 84.8945239,113.012944 86.371582,112.094482 C87.8486402,111.176021 89.5646875,110.716797 91.5197754,110.716797 C94.2268202,110.716797 96.4074624,111.441887 98.0617676,112.89209 C99.7160727,114.342292 100.672118,116.377917 100.929932,118.999023 L96.0959473,118.999023 C95.9777826,117.484367 95.556156,116.38599 94.8310547,115.703857 C94.1059534,115.021725 93.0022047,114.680664 91.5197754,114.680664 C89.9084392,114.680664 88.7026407,115.258051 87.9023438,116.412842 C87.1020468,117.567633 86.6911622,119.358875 86.6696777,121.786621 L86.6696777,123.559082 C86.6696777,126.094251 87.0537071,127.94726 87.8217773,129.118164 C88.5898476,130.289068 89.8010171,130.874512 91.4553223,130.874512 C92.9484938,130.874512 94.0629846,130.533451 94.7988281,129.851318 C95.5346716,129.169186 95.9562983,128.113777 96.0637207,126.685059 L100.897705,126.685059 Z M121.828857,111.039062 L121.828857,126.491699 C121.828857,129.059095 121.025887,131.089348 119.419922,132.58252 C117.813957,134.075691 115.619887,134.822266 112.837646,134.822266 C110.098375,134.822266 107.923104,134.097175 106.311768,132.646973 C104.700431,131.19677 103.878662,129.204114 103.846436,126.668945 L103.846436,111.039062 L108.68042,111.039062 L108.68042,126.523926 C108.68042,128.060066 109.048336,129.179928 109.78418,129.883545 C110.520023,130.587162 111.537835,130.938965 112.837646,130.938965 C115.555434,130.938965 116.935791,129.510268 116.97876,126.652832 L116.97876,111.039062 L121.828857,111.039062 Z M137.958252,128.344727 C137.958252,127.431636 137.63599,126.730715 136.991455,126.241943 C136.346921,125.753171 135.186776,125.237552 133.510986,124.695068 C131.835197,124.152585 130.50855,123.618167 129.531006,123.091797 C126.86693,121.652337 125.534912,119.713391 125.534912,117.274902 C125.534912,116.007318 125.892086,114.876714 126.606445,113.883057 C127.320804,112.889399 128.346673,112.113284 129.684082,111.554688 C131.021491,110.996091 132.522697,110.716797 134.187744,110.716797 C135.863534,110.716797 137.356683,111.020261 138.667236,111.627197 C139.97779,112.234134 140.995602,113.090815 141.720703,114.197266 C142.445804,115.303716 142.80835,116.56054 142.80835,117.967773 L137.974365,117.967773 C137.974365,116.893549 137.63599,116.058353 136.959229,115.462158 C136.282467,114.865964 135.331793,114.567871 134.107178,114.567871 C132.925531,114.567871 132.007083,114.817624 131.351807,115.317139 C130.69653,115.816653 130.368896,116.474605 130.368896,117.291016 C130.368896,118.053715 130.752926,118.692869 131.520996,119.208496 C132.289066,119.724124 133.41967,120.207517 134.912842,120.658691 C137.662856,121.485844 139.666253,122.511713 140.923096,123.736328 C142.179938,124.960944 142.80835,126.486319 142.80835,128.3125 C142.80835,130.342784 142.040291,131.935297 140.50415,133.090088 C138.96801,134.244879 136.900159,134.822266 134.300537,134.822266 C132.495841,134.822266 130.852302,134.491947 129.369873,133.831299 C127.887444,133.170651 126.75684,132.265631 125.978027,131.116211 C125.199215,129.966791 124.809814,128.634773 124.809814,127.120117 L129.659912,127.120117 C129.659912,129.708997 131.206772,131.003418 134.300537,131.003418 C135.449957,131.003418 136.346921,130.769778 136.991455,130.30249 C137.63599,129.835203 137.958252,129.182621 137.958252,128.344727 Z M163.739502,114.95459 L156.552979,114.95459 L156.552979,134.5 L151.718994,134.5 L151.718994,114.95459 L144.62915,114.95459 L144.62915,111.039062 L163.739502,111.039062 L163.739502,114.95459 Z M185.766357,123.30127 C185.766357,125.610851 185.358158,127.635733 184.541748,129.375977 C183.725338,131.11622 182.557137,132.45898 181.037109,133.404297 C179.517082,134.349614 177.77418,134.822266 175.80835,134.822266 C173.864004,134.822266 172.129158,134.354985 170.60376,133.42041 C169.078362,132.485835 167.896733,131.151132 167.058838,129.41626 C166.220943,127.681388 165.796631,125.686046 165.785889,123.430176 L165.785889,122.27002 C165.785889,119.960438 166.202144,117.927499 167.034668,116.171143 C167.867192,114.414786 169.043449,113.066655 170.563477,112.126709 C172.083504,111.186763 173.821035,110.716797 175.776123,110.716797 C177.731211,110.716797 179.468742,111.186763 180.98877,112.126709 C182.508797,113.066655 183.685054,114.414786 184.517578,116.171143 C185.350102,117.927499 185.766357,119.955067 185.766357,122.253906 L185.766357,123.30127 Z M180.86792,122.237793 C180.86792,119.77782 180.427495,117.908698 179.546631,116.630371 C178.665767,115.352044 177.408944,114.712891 175.776123,114.712891 C174.154045,114.712891 172.902592,115.343988 172.021729,116.606201 C171.140865,117.868415 170.695068,119.718738 170.684326,122.157227 L170.684326,123.30127 C170.684326,125.696789 171.124751,127.555169 172.005615,128.876465 C172.886479,130.197761 174.154044,130.858398 175.80835,130.858398 C177.430428,130.858398 178.676509,130.22193 179.546631,128.948975 C180.416752,127.676019 180.857178,125.820325 180.86792,123.381836 L180.86792,122.237793 Z M195.595459,111.039062 L201.621826,128.054688 L207.615967,111.039062 L213.9646,111.039062 L213.9646,134.5 L209.114502,134.5 L209.114502,128.086914 L209.5979,117.01709 L203.265381,134.5 L199.946045,134.5 L193.629639,117.033203 L194.113037,128.086914 L194.113037,134.5 L189.279053,134.5 L189.279053,111.039062 L195.595459,111.039062 Z M232.301514,124.33252 L223.020264,124.33252 L223.020264,130.616699 L233.912842,130.616699 L233.912842,134.5 L218.186279,134.5 L218.186279,111.039062 L233.880615,111.039062 L233.880615,114.95459 L223.020264,114.95459 L223.020264,120.545898 L232.301514,120.545898 L232.301514,124.33252 Z M245.433838,125.911621 L241.582764,125.911621 L241.582764,134.5 L236.748779,134.5 L236.748779,111.039062 L245.466064,111.039062 C248.237563,111.039062 250.375237,111.656732 251.87915,112.89209 C253.383064,114.127448 254.13501,115.873036 254.13501,118.128906 C254.13501,119.7295 253.788578,121.064204 253.095703,122.133057 C252.402829,123.20191 251.35279,124.053219 249.945557,124.687012 L255.02124,134.274414 L255.02124,134.5 L249.832764,134.5 L245.433838,125.911621 Z M241.582764,121.996094 L245.482178,121.996094 C246.696051,121.996094 247.635983,121.687259 248.302002,121.06958 C248.968021,120.451901 249.301025,119.600591 249.301025,118.515625 C249.301025,117.409174 248.98682,116.539066 248.358398,115.905273 C247.729977,115.271481 246.765876,114.95459 245.466064,114.95459 L241.582764,114.95459 L241.582764,121.996094 Z M285.104736,134.5 L280.270752,134.5 L270.860596,119.063477 L270.860596,134.5 L266.026611,134.5 L266.026611,111.039062 L270.860596,111.039062 L280.286865,126.507812 L280.286865,111.039062 L285.104736,111.039062 L285.104736,134.5 Z M303.44165,124.33252 L294.1604,124.33252 L294.1604,130.616699 L305.052979,130.616699 L305.052979,134.5 L289.326416,134.5 L289.326416,111.039062 L305.020752,111.039062 L305.020752,114.95459 L294.1604,114.95459 L294.1604,120.545898 L303.44165,120.545898 L303.44165,124.33252 Z M322.00415,124.33252 L312.7229,124.33252 L312.7229,130.616699 L323.615479,130.616699 L323.615479,134.5 L307.888916,134.5 L307.888916,111.039062 L323.583252,111.039062 L323.583252,114.95459 L312.7229,114.95459 L312.7229,120.545898 L322.00415,120.545898 L322.00415,124.33252 Z M326.451416,134.5 L326.451416,111.039062 L333.670166,111.039062 C335.732676,111.039062 337.577629,111.503657 339.205078,112.432861 C340.832528,113.362065 342.102779,114.683341 343.015869,116.396729 C343.92896,118.110116 344.385498,120.057118 344.385498,122.237793 L344.385498,123.317383 C344.385498,125.498058 343.937016,127.437003 343.040039,129.134277 C342.143062,130.831551 340.878182,132.147456 339.245361,133.082031 C337.612541,134.016606 335.770274,134.489258 333.718506,134.5 L326.451416,134.5 Z M331.2854,114.95459 L331.2854,130.616699 L333.621826,130.616699 C335.512461,130.616699 336.95727,129.99903 337.956299,128.763672 C338.955327,127.528314 339.465576,125.761242 339.487061,123.462402 L339.487061,122.22168 C339.487061,119.836902 338.992925,118.029547 338.004639,116.799561 C337.016352,115.569574 335.571543,114.95459 333.670166,114.95459 L331.2854,114.95459 Z M360.063721,128.344727 C360.063721,127.431636 359.741458,126.730715 359.096924,126.241943 C358.452389,125.753171 357.292245,125.237552 355.616455,124.695068 C353.940665,124.152585 352.614019,123.618167 351.636475,123.091797 C348.972399,121.652337 347.640381,119.713391 347.640381,117.274902 C347.640381,116.007318 347.997555,114.876714 348.711914,113.883057 C349.426273,112.889399 350.452142,112.113284 351.789551,111.554688 C353.12696,110.996091 354.628166,110.716797 356.293213,110.716797 C357.969003,110.716797 359.462152,111.020261 360.772705,111.627197 C362.083259,112.234134 363.101071,113.090815 363.826172,114.197266 C364.551273,115.303716 364.913818,116.56054 364.913818,117.967773 L360.079834,117.967773 C360.079834,116.893549 359.741458,116.058353 359.064697,115.462158 C358.387936,114.865964 357.437262,114.567871 356.212646,114.567871 C355.031,114.567871 354.112552,114.817624 353.457275,115.317139 C352.801999,115.816653 352.474365,116.474605 352.474365,117.291016 C352.474365,118.053715 352.858395,118.692869 353.626465,119.208496 C354.394535,119.724124 355.525139,120.207517 357.018311,120.658691 C359.768324,121.485844 361.771722,122.511713 363.028564,123.736328 C364.285407,124.960944 364.913818,126.486319 364.913818,128.3125 C364.913818,130.342784 364.14576,131.935297 362.609619,133.090088 C361.073479,134.244879 359.005628,134.822266 356.406006,134.822266 C354.601309,134.822266 352.957771,134.491947 351.475342,133.831299 C349.992913,133.170651 348.862309,132.265631 348.083496,131.116211 C347.304684,129.966791 346.915283,128.634773 346.915283,127.120117 L351.765381,127.120117 C351.765381,129.708997 353.31224,131.003418 356.406006,131.003418 C357.555426,131.003418 358.452389,130.769778 359.096924,130.30249 C359.741458,129.835203 360.063721,129.182621 360.063721,128.344727 Z M394.062744,114.95459 L386.876221,114.95459 L386.876221,134.5 L382.042236,134.5 L382.042236,114.95459 L374.952393,114.95459 L374.952393,111.039062 L394.062744,111.039062 L394.062744,114.95459 Z M416.0896,123.30127 C416.0896,125.610851 415.681401,127.635733 414.86499,129.375977 C414.04858,131.11622 412.880379,132.45898 411.360352,133.404297 C409.840324,134.349614 408.097422,134.822266 406.131592,134.822266 C404.187246,134.822266 402.4524,134.354985 400.927002,133.42041 C399.401604,132.485835 398.219975,131.151132 397.38208,129.41626 C396.544185,127.681388 396.119873,125.686046 396.109131,123.430176 L396.109131,122.27002 C396.109131,119.960438 396.525386,117.927499 397.35791,116.171143 C398.190434,114.414786 399.366692,113.066655 400.886719,112.126709 C402.406746,111.186763 404.144277,110.716797 406.099365,110.716797 C408.054453,110.716797 409.791985,111.186763 411.312012,112.126709 C412.832039,113.066655 414.008297,114.414786 414.84082,116.171143 C415.673344,117.927499 416.0896,119.955067 416.0896,122.253906 L416.0896,123.30127 Z M411.191162,122.237793 C411.191162,119.77782 410.750737,117.908698 409.869873,116.630371 C408.989009,115.352044 407.732186,114.712891 406.099365,114.712891 C404.477287,114.712891 403.225834,115.343988 402.344971,116.606201 C401.464107,117.868415 401.018311,119.718738 401.007568,122.157227 L401.007568,123.30127 C401.007568,125.696789 401.447994,127.555169 402.328857,128.876465 C403.209721,130.197761 404.477287,130.858398 406.131592,130.858398 C407.75367,130.858398 408.999752,130.22193 409.869873,128.948975 C410.739995,127.676019 411.18042,125.820325 411.191162,123.381836 L411.191162,122.237793 Z M432.654053,126.233887 L432.654053,134.5 L427.820068,134.5 L427.820068,111.039062 L436.972412,111.039062 C438.73414,111.039062 440.283685,111.361325 441.621094,112.005859 C442.958503,112.650394 443.987057,113.566156 444.706787,114.753174 C445.426517,115.940191 445.786377,117.291008 445.786377,118.805664 C445.786377,121.104504 444.99952,122.91723 443.425781,124.243896 C441.852043,125.570563 439.674086,126.233887 436.891846,126.233887 L432.654053,126.233887 Z M432.654053,122.318359 L436.972412,122.318359 C438.250739,122.318359 439.225583,122.017581 439.896973,121.416016 C440.568363,120.81445 440.904053,119.955084 440.904053,118.837891 C440.904053,117.688471 440.565677,116.759281 439.888916,116.050293 C439.212155,115.341305 438.277594,114.976074 437.085205,114.95459 L432.654053,114.95459 L432.654053,122.318359 Z M462.35083,129.666016 L453.875244,129.666016 L452.263916,134.5 L447.123779,134.5 L455.857178,111.039062 L460.33667,111.039062 L469.118408,134.5 L463.978271,134.5 L462.35083,129.666016 Z M455.18042,125.750488 L461.045654,125.750488 L458.096924,116.96875 L455.18042,125.750488 Z M479.398682,121.609375 L484.281006,111.039062 L489.566162,111.039062 L481.864014,125.992188 L481.864014,134.5 L476.949463,134.5 L476.949463,125.992188 L469.247314,111.039062 L474.548584,111.039062 L479.398682,121.609375 Z M124.970947,166.732422 L128.12915,150.039062 L132.947021,150.039062 L127.742432,173.5 L122.876221,173.5 L119.057373,157.805664 L115.238525,173.5 L110.372314,173.5 L105.167725,150.039062 L109.985596,150.039062 L113.159912,166.700195 L117.0271,150.039062 L121.119873,150.039062 L124.970947,166.732422 Z M140.69751,173.5 L135.863525,173.5 L135.863525,150.039062 L140.69751,150.039062 L140.69751,173.5 Z M150.010986,169.616699 L160.275146,169.616699 L160.275146,173.5 L145.177002,173.5 L145.177002,150.039062 L150.010986,150.039062 L150.010986,169.616699 Z M167.880615,169.616699 L178.144775,169.616699 L178.144775,173.5 L163.046631,173.5 L163.046631,150.039062 L167.880615,150.039062 L167.880615,169.616699 Z M202.37915,168.666016 L193.903564,168.666016 L192.292236,173.5 L187.1521,173.5 L195.885498,150.039062 L200.36499,150.039062 L209.146729,173.5 L204.006592,173.5 L202.37915,168.666016 Z M195.20874,164.750488 L201.073975,164.750488 L198.125244,155.96875 L195.20874,164.750488 Z M216.172119,169.616699 L226.436279,169.616699 L226.436279,173.5 L211.338135,173.5 L211.338135,150.039062 L216.172119,150.039062 L216.172119,169.616699 Z M247.480225,166.732422 L250.638428,150.039062 L255.456299,150.039062 L250.251709,173.5 L245.385498,173.5 L241.56665,157.805664 L237.747803,173.5 L232.881592,173.5 L227.677002,150.039062 L232.494873,150.039062 L235.669189,166.700195 L239.536377,150.039062 L243.62915,150.039062 L247.480225,166.732422 Z M271.311768,168.666016 L262.836182,168.666016 L261.224854,173.5 L256.084717,173.5 L264.818115,150.039062 L269.297607,150.039062 L278.079346,173.5 L272.939209,173.5 L271.311768,168.666016 Z M264.141357,164.750488 L270.006592,164.750488 L267.057861,155.96875 L264.141357,164.750488 Z M288.359619,160.609375 L293.241943,150.039062 L298.5271,150.039062 L290.824951,164.992188 L290.824951,173.5 L285.9104,173.5 L285.9104,164.992188 L278.208252,150.039062 L283.509521,150.039062 L288.359619,160.609375 Z M312.835693,167.344727 C312.835693,166.431636 312.513431,165.730715 311.868896,165.241943 C311.224362,164.753171 310.064217,164.237552 308.388428,163.695068 C306.712638,163.152585 305.385991,162.618167 304.408447,162.091797 C301.744371,160.652337 300.412354,158.713391 300.412354,156.274902 C300.412354,155.007318 300.769528,153.876714 301.483887,152.883057 C302.198246,151.889399 303.224114,151.113284 304.561523,150.554688 C305.898932,149.996091 307.400138,149.716797 309.065186,149.716797 C310.740975,149.716797 312.234124,150.020261 313.544678,150.627197 C314.855231,151.234134 315.873043,152.090815 316.598145,153.197266 C317.323246,154.303716 317.685791,155.56054 317.685791,156.967773 L312.851807,156.967773 C312.851807,155.893549 312.513431,155.058353 311.83667,154.462158 C311.159909,153.865964 310.209235,153.567871 308.984619,153.567871 C307.802973,153.567871 306.884525,153.817624 306.229248,154.317139 C305.573971,154.816653 305.246338,155.474605 305.246338,156.291016 C305.246338,157.053715 305.630367,157.692869 306.398438,158.208496 C307.166508,158.724124 308.297112,159.207517 309.790283,159.658691 C312.540297,160.485844 314.543695,161.511713 315.800537,162.736328 C317.057379,163.960944 317.685791,165.486319 317.685791,167.3125 C317.685791,169.342784 316.917732,170.935297 315.381592,172.090088 C313.845451,173.244879 311.777601,173.822266 309.177979,173.822266 C307.373282,173.822266 305.729744,173.491947 304.247314,172.831299 C302.764885,172.170651 301.634281,171.265631 300.855469,170.116211 C300.076656,168.966791 299.687256,167.634773 299.687256,166.120117 L304.537354,166.120117 C304.537354,168.708997 306.084213,170.003418 309.177979,170.003418 C310.327398,170.003418 311.224362,169.769778 311.868896,169.30249 C312.513431,168.835203 312.835693,168.182621 312.835693,167.344727 Z M329.174561,173.5 L329.174561,150.039062 L337.392334,150.039062 C340.239028,150.039062 342.398186,150.584223 343.869873,151.674561 C345.34156,152.764898 346.077393,154.362782 346.077393,156.468262 C346.077393,157.617682 345.781985,158.630123 345.191162,159.505615 C344.600339,160.381108 343.77857,161.022947 342.72583,161.431152 C343.928961,161.731935 344.87695,162.338863 345.569824,163.251953 C346.262699,164.165044 346.609131,165.28222 346.609131,166.603516 C346.609131,168.859386 345.889411,170.567377 344.449951,171.727539 C343.010491,172.887701 340.958754,173.478516 338.294678,173.5 L329.174561,173.5 Z M334.008545,163.28418 L334.008545,169.616699 L338.149658,169.616699 C339.288336,169.616699 340.177243,169.345462 340.816406,168.802979 C341.45557,168.260495 341.775146,167.511235 341.775146,166.555176 C341.775146,164.406728 340.663341,163.316406 338.439697,163.28418 L334.008545,163.28418 Z M334.008545,159.868164 L337.585693,159.868164 C340.024182,159.825195 341.243408,158.853037 341.243408,156.95166 C341.243408,155.888178 340.934573,155.122805 340.316895,154.655518 C339.699216,154.18823 338.724372,153.95459 337.392334,153.95459 L334.008545,153.95459 L334.008545,159.868164 Z M364.349854,163.33252 L355.068604,163.33252 L355.068604,169.616699 L365.961182,169.616699 L365.961182,173.5 L350.234619,173.5 L350.234619,150.039062 L365.928955,150.039062 L365.928955,153.95459 L355.068604,153.95459 L355.068604,159.545898 L364.349854,159.545898 L364.349854,163.33252 Z M396.109131,173.5 L391.275146,173.5 L391.275146,163.445312 L381.848877,163.445312 L381.848877,173.5 L377.014893,173.5 L377.014893,150.039062 L381.848877,150.039062 L381.848877,159.545898 L391.275146,159.545898 L391.275146,150.039062 L396.109131,150.039062 L396.109131,173.5 Z M414.446045,163.33252 L405.164795,163.33252 L405.164795,169.616699 L416.057373,169.616699 L416.057373,173.5 L400.330811,173.5 L400.330811,150.039062 L416.025146,150.039062 L416.025146,153.95459 L405.164795,153.95459 L405.164795,159.545898 L414.446045,159.545898 L414.446045,163.33252 Z M427.578369,164.911621 L423.727295,164.911621 L423.727295,173.5 L418.893311,173.5 L418.893311,150.039062 L427.610596,150.039062 C430.382094,150.039062 432.519768,150.656732 434.023682,151.89209 C435.527595,153.127448 436.279541,154.873036 436.279541,157.128906 C436.279541,158.7295 435.933109,160.064204 435.240234,161.133057 C434.54736,162.20191 433.497321,163.053219 432.090088,163.687012 L437.165771,173.274414 L437.165771,173.5 L431.977295,173.5 L427.578369,164.911621 Z M423.727295,160.996094 L427.626709,160.996094 C428.840582,160.996094 429.780514,160.687259 430.446533,160.06958 C431.112552,159.451901 431.445557,158.600591 431.445557,157.515625 C431.445557,156.409174 431.131351,155.539066 430.50293,154.905273 C429.874509,154.271481 428.910407,153.95459 427.610596,153.95459 L423.727295,153.95459 L423.727295,160.996094 Z M454.068604,163.33252 L444.787354,163.33252 L444.787354,169.616699 L455.679932,169.616699 L455.679932,173.5 L439.953369,173.5 L439.953369,150.039062 L455.647705,150.039062 L455.647705,153.95459 L444.787354,153.95459 L444.787354,159.545898 L454.068604,159.545898 L454.068604,163.33252 Z M462.947021,166.297363 L459.079834,166.297363 L458.531982,150.039062 L463.494873,150.039062 L462.947021,166.297363 Z M461.013428,168.843262 C461.797611,168.843262 462.428709,169.074216 462.906738,169.536133 C463.384768,169.998049 463.623779,170.588864 463.623779,171.308594 C463.623779,172.017582 463.384768,172.603025 462.906738,173.064941 C462.428709,173.526858 461.797611,173.757812 461.013428,173.757812 C460.239986,173.757812 459.61426,173.526858 459.13623,173.064941 C458.658201,172.603025 458.419189,172.017582 458.419189,171.308594 C458.419189,170.599606 458.658201,170.011477 459.13623,169.544189 C459.61426,169.076902 460.239986,168.843262 461.013428,168.843262 Z" id="THEFINALAMOUNTTHECUSTOMERNEEDSTOPAYWILLALWAYSBEHERE!" fill="#000000" fill-rule="nonzero"></path>
    </g>
</svg>