<?xml version="1.0" encoding="UTF-8"?>
<svg width="570px" height="792px" viewBox="0 0 570 792" version="1.1" xmlns="http://www.w3.org/2000/svg" xmlns:xlink="http://www.w3.org/1999/xlink">
    <!-- Generator: Sketch 54.1 (76490) - https://sketchapp.com -->
    <title>9_create_en</title>
    <desc>Created with Sketch.</desc>
    <g id="9_create_en" stroke="none" stroke-width="1" fill="none" fill-rule="evenodd">
        <rect fill="#00B0FF" x="0" y="0" width="570" height="792"></rect>
        <g id="Group-3" transform="translate(12.000000, 225.000000)">
            <rect id="Rectangle" fill="#0B0C24" x="0" y="0" width="547" height="547" rx="13"></rect>
            <path d="M12,286 L189,286 L189,388 L25,388 C17.8202983,388 12,382.179702 12,375 L12,286 Z" id="Rectangle" fill="#0098CE"></path>
            <path d="M355,286 L532,286 L532,388 L368,388 C360.820298,388 355,382.179702 355,375 L355,286 Z" id="Rectangle" fill="#0098CE" transform="translate(443.500000, 337.000000) scale(-1, 1) translate(-443.500000, -337.000000) "></path>
            <rect id="Rectangle" stroke="#979797" fill="#FFFFFF" x="12.5" y="400.5" width="519" height="64"></rect>
            <path d="M12,465 L532,465 L532,519 C532,525.075132 527.075132,530 521,530 L23,530 C16.9248678,530 12,525.075132 12,519 L12,465 Z" id="Rectangle" fill="#0098CE"></path>
            <text id="ADD-ITEM" font-family="Lato-Bold, Lato" font-size="40" font-weight="bold" fill="#FFFFFF">
                <tspan x="180" y="508">ADD ITEM</tspan>
            </text>
            <path d="M433.664062,235.573242 L425.416992,235.573242 L425.416992,232.160156 L433.664062,232.160156 L433.664062,235.573242 Z M447.008789,237.389648 C447.008789,236.588863 446.786623,235.951663 446.342285,235.478027 C445.897947,235.004392 445.14356,234.567385 444.079102,234.166992 C443.014643,233.7666 442.096684,233.368654 441.325195,232.973145 C440.553707,232.577635 439.892093,232.123538 439.340332,231.61084 C438.788571,231.098142 438.358888,230.495121 438.05127,229.801758 C437.743651,229.108395 437.589844,228.283208 437.589844,227.326172 C437.589844,225.675773 438.117182,224.323247 439.171875,223.268555 C440.226568,222.213862 441.627921,221.598634 443.375977,221.422852 L443.375977,218.288086 L445.719727,218.288086 L445.719727,221.466797 C447.448251,221.710939 448.800776,222.431146 449.777344,223.627441 C450.753911,224.823736 451.242188,226.374014 451.242188,228.27832 L447.008789,228.27832 C447.008789,227.106439 446.767092,226.229983 446.283691,225.648926 C445.800291,225.067868 445.153324,224.777344 444.342773,224.777344 C443.541988,224.777344 442.921877,225.004392 442.482422,225.458496 C442.042967,225.9126 441.823242,226.540035 441.823242,227.34082 C441.823242,228.083012 442.038084,228.678709 442.467773,229.12793 C442.897463,229.577151 443.695795,230.03613 444.862793,230.504883 C446.029791,230.973635 446.989254,231.415525 447.741211,231.830566 C448.493168,232.245608 449.127927,232.714353 449.645508,233.236816 C450.163089,233.75928 450.558592,234.354977 450.832031,235.023926 C451.10547,235.692874 451.242188,236.471675 451.242188,237.360352 C451.242188,239.020516 450.724615,240.368159 449.689453,241.40332 C448.654292,242.438482 447.228525,243.048827 445.412109,243.234375 L445.412109,246.149414 L443.083008,246.149414 L443.083008,243.249023 C441.081045,243.034179 439.530767,242.323736 438.432129,241.117676 C437.333491,239.911615 436.78418,238.307627 436.78418,236.305664 L441.017578,236.305664 C441.017578,237.467779 441.293454,238.358884 441.845215,238.979004 C442.396975,239.599124 443.190425,239.90918 444.225586,239.90918 C445.084965,239.90918 445.763669,239.682131 446.261719,239.228027 C446.759768,238.773924 447.008789,238.161137 447.008789,237.389648 Z M468.454102,234.181641 C468.454102,237.130874 467.843756,239.386711 466.623047,240.949219 C465.402338,242.511727 463.615246,243.292969 461.261719,243.292969 C458.937488,243.292969 457.160162,242.526375 455.929688,240.993164 C454.699213,239.459953 454.069336,237.26271 454.040039,234.401367 L454.040039,230.475586 C454.040039,227.497055 454.657709,225.236336 455.893066,223.693359 C457.128424,222.150383 458.908192,221.378906 461.232422,221.378906 C463.556652,221.378906 465.333978,222.143059 466.564453,223.671387 C467.794928,225.199715 468.424805,227.394517 468.454102,230.255859 L468.454102,234.181641 Z M464.220703,229.875 C464.220703,228.107413 463.979006,226.820805 463.495605,226.015137 C463.012205,225.209469 462.257818,224.806641 461.232422,224.806641 C460.236323,224.806641 459.501467,225.189938 459.027832,225.956543 C458.554197,226.723148 458.302735,227.921867 458.273438,229.552734 L458.273438,234.738281 C458.273438,236.476571 458.510252,237.768062 458.983887,238.612793 C459.457522,239.457524 460.216792,239.879883 461.261719,239.879883 C462.29688,239.879883 463.043943,239.474613 463.50293,238.664062 C463.961916,237.853512 464.201172,236.61329 464.220703,234.943359 L464.220703,229.875 Z M471.706055,240.919922 C471.706055,240.24609 471.933103,239.699221 472.387207,239.279297 C472.841311,238.859373 473.410153,238.649414 474.09375,238.649414 C474.787113,238.649414 475.360838,238.859373 475.814941,239.279297 C476.269045,239.699221 476.496094,240.24609 476.496094,240.919922 C476.496094,241.583988 476.271487,242.123533 475.822266,242.538574 C475.373045,242.953615 474.796879,243.161133 474.09375,243.161133 C473.400387,243.161133 472.829104,242.953615 472.379883,242.538574 C471.930662,242.123533 471.706055,241.583988 471.706055,240.919922 Z M494.381836,234.181641 C494.381836,237.130874 493.77149,239.386711 492.550781,240.949219 C491.330072,242.511727 489.542981,243.292969 487.189453,243.292969 C484.865223,243.292969 483.087897,242.526375 481.857422,240.993164 C480.626947,239.459953 479.99707,237.26271 479.967773,234.401367 L479.967773,230.475586 C479.967773,227.497055 480.585443,225.236336 481.820801,223.693359 C483.056159,222.150383 484.835926,221.378906 487.160156,221.378906 C489.484387,221.378906 491.261713,222.143059 492.492188,223.671387 C493.722662,225.199715 494.352539,227.394517 494.381836,230.255859 L494.381836,234.181641 Z M490.148438,229.875 C490.148438,228.107413 489.906741,226.820805 489.42334,226.015137 C488.939939,225.209469 488.185552,224.806641 487.160156,224.806641 C486.164058,224.806641 485.429202,225.189938 484.955566,225.956543 C484.481931,226.723148 484.230469,227.921867 484.201172,229.552734 L484.201172,234.738281 C484.201172,236.476571 484.437986,237.768062 484.911621,238.612793 C485.385256,239.457524 486.144526,239.879883 487.189453,239.879883 C488.224615,239.879883 488.971677,239.474613 489.430664,238.664062 C489.889651,237.853512 490.128906,236.61329 490.148438,234.943359 L490.148438,229.875 Z M511.59375,234.181641 C511.59375,237.130874 510.983405,239.386711 509.762695,240.949219 C508.541986,242.511727 506.754895,243.292969 504.401367,243.292969 C502.077137,243.292969 500.299811,242.526375 499.069336,240.993164 C497.838861,239.459953 497.208985,237.26271 497.179688,234.401367 L497.179688,230.475586 C497.179688,227.497055 497.797357,225.236336 499.032715,223.693359 C500.268073,222.150383 502.04784,221.378906 504.37207,221.378906 C506.696301,221.378906 508.473627,222.143059 509.704102,223.671387 C510.934576,225.199715 511.564453,227.394517 511.59375,230.255859 L511.59375,234.181641 Z M507.360352,229.875 C507.360352,228.107413 507.118655,226.820805 506.635254,226.015137 C506.151853,225.209469 505.397466,224.806641 504.37207,224.806641 C503.375972,224.806641 502.641116,225.189938 502.16748,225.956543 C501.693845,226.723148 501.442383,227.921867 501.413086,229.552734 L501.413086,234.738281 C501.413086,236.476571 501.6499,237.768062 502.123535,238.612793 C502.59717,239.457524 503.35644,239.879883 504.401367,239.879883 C505.436529,239.879883 506.183591,239.474613 506.642578,238.664062 C507.101565,237.853512 507.34082,236.61329 507.360352,234.943359 L507.360352,229.875 Z" id="-$0.00" fill="#FF0088" fill-rule="nonzero"></path>
            <path d="M405.228516,189 L405.228516,167.671875 L411.791016,167.671875 C413.666025,167.671875 415.343254,168.094234 416.822754,168.938965 C418.302253,169.783696 419.457027,170.984855 420.287109,172.54248 C421.117192,174.100105 421.532227,175.870107 421.532227,177.852539 L421.532227,178.833984 C421.532227,180.816416 421.124516,182.579094 420.309082,184.12207 C419.493648,185.665047 418.343757,186.861324 416.859375,187.710938 C415.374993,188.560551 413.700205,188.990234 411.834961,189 L405.228516,189 Z M409.623047,171.231445 L409.623047,185.469727 L411.74707,185.469727 C413.465829,185.469727 414.779292,184.908209 415.6875,183.785156 C416.595708,182.662104 417.05957,181.055675 417.079102,178.96582 L417.079102,177.837891 C417.079102,175.669911 416.629887,174.026861 415.731445,172.908691 C414.833003,171.790522 413.51954,171.231445 411.791016,171.231445 L409.623047,171.231445 Z M428.915039,189 L424.666992,189 L424.666992,173.150391 L428.915039,173.150391 L428.915039,189 Z M424.417969,169.048828 C424.417969,168.414059 424.630369,167.891604 425.055176,167.481445 C425.479983,167.071287 426.05859,166.866211 426.791016,166.866211 C427.513675,166.866211 428.089842,167.071287 428.519531,167.481445 C428.949221,167.891604 429.164062,168.414059 429.164062,169.048828 C429.164062,169.693363 428.94678,170.220701 428.512207,170.630859 C428.077635,171.041018 427.50391,171.246094 426.791016,171.246094 C426.078121,171.246094 425.504397,171.041018 425.069824,170.630859 C424.635252,170.220701 424.417969,169.693363 424.417969,169.048828 Z M440.985352,184.620117 C440.985352,184.102536 440.729006,183.694826 440.216309,183.396973 C439.703611,183.09912 438.880865,182.833009 437.748047,182.598633 C433.978497,181.807613 432.09375,180.206067 432.09375,177.793945 C432.09375,176.387688 432.67724,175.213384 433.844238,174.270996 C435.011236,173.328609 436.5371,172.857422 438.421875,172.857422 C440.433604,172.857422 442.042474,173.33105 443.248535,174.27832 C444.454596,175.225591 445.057617,176.456047 445.057617,177.969727 L440.824219,177.969727 C440.824219,177.364255 440.628908,176.863772 440.238281,176.468262 C439.847654,176.072752 439.237309,175.875 438.407227,175.875 C437.694332,175.875 437.14258,176.036131 436.751953,176.358398 C436.361326,176.680666 436.166016,177.090818 436.166016,177.588867 C436.166016,178.05762 436.388181,178.436034 436.83252,178.724121 C437.276858,179.012208 438.026362,179.261229 439.081055,179.471191 C440.135747,179.681153 441.02441,179.917967 441.74707,180.181641 C443.98341,181.001957 445.101562,182.422841 445.101562,184.444336 C445.101562,185.889656 444.481452,187.059078 443.241211,187.952637 C442.00097,188.846196 440.399424,189.292969 438.436523,189.292969 C437.108392,189.292969 435.929204,189.056155 434.898926,188.58252 C433.868647,188.108884 433.06055,187.459477 432.474609,186.634277 C431.888669,185.809078 431.595703,184.917974 431.595703,183.960938 L435.609375,183.960938 C435.648438,184.712894 435.926755,185.28906 436.444336,185.689453 C436.961917,186.089846 437.655269,186.290039 438.524414,186.290039 C439.334965,186.290039 439.947752,186.136232 440.362793,185.828613 C440.777834,185.520995 440.985352,185.118167 440.985352,184.620117 Z M454.417969,185.879883 C455.199223,185.879883 455.833982,185.665041 456.322266,185.235352 C456.810549,184.805662 457.064453,184.234379 457.083984,183.521484 L461.053711,183.521484 C461.043945,184.595708 460.750979,185.579585 460.174805,186.473145 C459.59863,187.366704 458.810064,188.060056 457.809082,188.553223 C456.8081,189.046389 455.702154,189.292969 454.491211,189.292969 C452.225575,189.292969 450.438483,188.572761 449.129883,187.132324 C447.821283,185.691887 447.166992,183.702161 447.166992,181.163086 L447.166992,180.884766 C447.166992,178.443347 447.8164,176.495124 449.115234,175.040039 C450.414069,173.584954 452.196278,172.857422 454.461914,172.857422 C456.444346,172.857422 458.033685,173.421381 459.22998,174.549316 C460.426276,175.677252 461.03418,177.178702 461.053711,179.053711 L457.083984,179.053711 C457.064453,178.233394 456.810549,177.566897 456.322266,177.054199 C455.833982,176.541501 455.189457,176.285156 454.388672,176.285156 C453.402339,176.285156 452.657717,176.644039 452.154785,177.361816 C451.651853,178.079593 451.400391,179.244133 451.400391,180.855469 L451.400391,181.294922 C451.400391,182.925789 451.649412,184.097653 452.147461,184.810547 C452.64551,185.523441 453.402339,185.879883 454.417969,185.879883 Z M462.811523,180.928711 C462.811523,179.356437 463.114255,177.955084 463.719727,176.724609 C464.325198,175.494134 465.196772,174.541996 466.334473,173.868164 C467.472174,173.194333 468.792961,172.857422 470.296875,172.857422 C472.435558,172.857422 474.181146,173.511712 475.533691,174.820312 C476.886237,176.128913 477.640624,177.906239 477.796875,180.152344 L477.826172,181.236328 C477.826172,183.667981 477.147468,185.618645 475.790039,187.088379 C474.43261,188.558113 472.61134,189.292969 470.326172,189.292969 C468.041004,189.292969 466.217292,188.560554 464.85498,187.095703 C463.492669,185.630852 462.811523,183.638684 462.811523,181.119141 L462.811523,180.928711 Z M467.044922,181.236328 C467.044922,182.740242 467.328122,183.890133 467.894531,184.686035 C468.46094,185.481938 469.271479,185.879883 470.326172,185.879883 C471.351568,185.879883 472.152341,185.48682 472.728516,184.700684 C473.30469,183.914547 473.592773,182.657235 473.592773,180.928711 C473.592773,179.454094 473.30469,178.311527 472.728516,177.500977 C472.152341,176.690426 471.341802,176.285156 470.296875,176.285156 C469.261714,176.285156 468.46094,176.687984 467.894531,177.493652 C467.328122,178.29932 467.044922,179.546867 467.044922,181.236328 Z M489.925781,187.388672 C488.880854,188.658209 487.435556,189.292969 485.589844,189.292969 C483.890617,189.292969 482.594243,188.804692 481.700684,187.828125 C480.807124,186.851558 480.350586,185.420908 480.331055,183.536133 L480.331055,173.150391 L484.564453,173.150391 L484.564453,183.389648 C484.564453,185.040047 485.316399,185.865234 486.820312,185.865234 C488.255867,185.865234 489.242185,185.367192 489.779297,184.371094 L489.779297,173.150391 L494.027344,173.150391 L494.027344,189 L490.042969,189 L489.925781,187.388672 Z M501.117188,173.150391 L501.249023,174.981445 C502.381842,173.565423 503.900381,172.857422 505.804688,172.857422 C507.484383,172.857422 508.734371,173.350581 509.554688,174.336914 C510.375004,175.323247 510.794922,176.797842 510.814453,178.760742 L510.814453,189 L506.581055,189 L506.581055,178.863281 C506.581055,177.964839 506.385744,177.31299 505.995117,176.907715 C505.60449,176.502439 504.955083,176.299805 504.046875,176.299805 C502.855463,176.299805 501.961917,176.807612 501.366211,177.823242 L501.366211,189 L497.132812,189 L497.132812,173.150391 L501.117188,173.150391 Z M519.09082,169.253906 L519.09082,173.150391 L521.800781,173.150391 L521.800781,176.255859 L519.09082,176.255859 L519.09082,184.166016 C519.09082,184.751956 519.203124,185.171874 519.427734,185.425781 C519.652345,185.679689 520.082028,185.806641 520.716797,185.806641 C521.185549,185.806641 521.600584,185.772461 521.961914,185.704102 L521.961914,188.912109 C521.131832,189.166017 520.277348,189.292969 519.398438,189.292969 C516.429673,189.292969 514.916016,187.79396 514.857422,184.795898 L514.857422,176.255859 L512.542969,176.255859 L512.542969,173.150391 L514.857422,173.150391 L514.857422,169.253906 L519.09082,169.253906 Z M524.364258,186.919922 C524.364258,186.24609 524.591306,185.699221 525.04541,185.279297 C525.499514,184.859373 526.068356,184.649414 526.751953,184.649414 C527.445316,184.649414 528.019041,184.859373 528.473145,185.279297 C528.927248,185.699221 529.154297,186.24609 529.154297,186.919922 C529.154297,187.583988 528.92969,188.123533 528.480469,188.538574 C528.031248,188.953615 527.455082,189.161133 526.751953,189.161133 C526.05859,189.161133 525.487307,188.953615 525.038086,188.538574 C524.588865,188.123533 524.364258,187.583988 524.364258,186.919922 Z M524.364258,174.922852 C524.364258,174.24902 524.591306,173.702151 525.04541,173.282227 C525.499514,172.862303 526.068356,172.652344 526.751953,172.652344 C527.445316,172.652344 528.019041,172.862303 528.473145,173.282227 C528.927248,173.702151 529.154297,174.24902 529.154297,174.922852 C529.154297,175.586917 528.92969,176.126463 528.480469,176.541504 C528.031248,176.956545 527.455082,177.164062 526.751953,177.164062 C526.05859,177.164062 525.487307,176.956545 525.038086,176.541504 C524.588865,176.126463 524.364258,175.586917 524.364258,174.922852 Z" id="Discount:" fill="#00E7FF" fill-rule="nonzero"></path>
            <text id="Sub:-Tax:-Tip:" font-family="Roboto-Bold, Roboto" font-size="30" font-weight="bold" fill="#00E7FF">
                <tspan x="21.4140625" y="189">Sub:</tspan>
                <tspan x="23.6259766" y="224">Tax:</tspan>
                <tspan x="30.1298828" y="259">Tip:</tspan>
            </text>
            <text id="$0.00" font-family="Lato-Bold, Lato" font-size="40" font-weight="bold" fill="#659B00">
                <tspan x="411.7" y="446">$0.00</tspan>
            </text>
            <text id="CUSTOMER-1" font-family="Roboto-Bold, Roboto" font-size="40" font-weight="bold" fill="#FFFFFF">
                <tspan x="34.2851562" y="76">CUSTOMER 1</tspan>
            </text>
            <rect id="Rectangle" stroke-opacity="0.329200634" stroke="#00C9FE" stroke-width="3" x="21.5" y="28.5" width="269" height="67" rx="6"></rect>
            <path d="M410,209 L526,209 C529.313708,209 532,211.686292 532,215 L532,253 C532,256.313708 529.313708,259 526,259 L410,259 C406.686292,259 404,256.313708 404,253 L404,215 C404,211.686292 406.686292,209 410,209 Z M410,212 C408.343146,212 407,213.343146 407,215 L407,253 C407,254.656854 408.343146,256 410,256 L526,256 C527.656854,256 529,254.656854 529,253 L529,215 C529,213.343146 527.656854,212 526,212 L410,212 Z" id="Rectangle" fill-opacity="0.329200634" fill="#00C9FE" fill-rule="nonzero"></path>
            <text id="$0.00" font-family="Lato-Bold, Lato" font-size="60" font-weight="bold" fill="#FFFFFF">
                <tspan x="188.55" y="256">$0.00</tspan>
            </text>
            <text id="OPEN" font-family="Roboto-Bold, Roboto" font-size="40" font-weight="bold" fill="#FFFFFF">
                <tspan x="424.419922" y="141">OPEN</tspan>
            </text>
            <path d="M41.2851562,133.539062 C41.2851562,132.432286 40.8945352,131.582685 40.1132812,130.990234 C39.3320273,130.397783 37.9257914,129.77279 35.8945312,129.115234 C33.8632711,128.457679 32.2552143,127.809899 31.0703125,127.171875 C27.8411297,125.427075 26.2265625,123.076838 26.2265625,120.121094 C26.2265625,118.584628 26.6595009,117.214199 27.5253906,116.009766 C28.3912804,114.805333 29.6347575,113.864587 31.2558594,113.1875 C32.8769612,112.510413 34.6966045,112.171875 36.7148438,112.171875 C38.7461039,112.171875 40.5559816,112.53971 42.1445312,113.275391 C43.7330809,114.011071 44.9667925,115.049472 45.8457031,116.390625 C46.7246138,117.731778 47.1640625,119.2552 47.1640625,120.960938 L41.3046875,120.960938 C41.3046875,119.658848 40.8945354,118.646488 40.0742188,117.923828 C39.2539021,117.201168 38.1015699,116.839844 36.6171875,116.839844 C35.1848887,116.839844 34.0716186,117.142575 33.2773438,117.748047 C32.4830689,118.353519 32.0859375,119.151037 32.0859375,120.140625 C32.0859375,121.065109 32.5514276,121.839841 33.4824219,122.464844 C34.4134161,123.089847 35.7838451,123.675779 37.59375,124.222656 C40.9271,125.225265 43.3554611,126.468743 44.8789062,127.953125 C46.4023514,129.437507 47.1640625,131.286447 47.1640625,133.5 C47.1640625,135.96095 46.2330822,137.891269 44.3710938,139.291016 C42.5091053,140.690762 40.0026199,141.390625 36.8515625,141.390625 C34.6640516,141.390625 32.671884,140.990238 30.875,140.189453 C29.078116,139.388668 27.707687,138.291674 26.7636719,136.898438 C25.8196567,135.505201 25.3476562,133.890634 25.3476562,132.054688 L31.2265625,132.054688 C31.2265625,135.192724 33.1015438,136.761719 36.8515625,136.761719 C38.2447986,136.761719 39.3320273,136.478518 40.1132812,135.912109 C40.8945352,135.3457 41.2851562,134.554693 41.2851562,133.539062 Z M68.2382812,128.675781 L56.9882812,128.675781 L56.9882812,136.292969 L70.1914062,136.292969 L70.1914062,141 L51.1289062,141 L51.1289062,112.5625 L70.1523438,112.5625 L70.1523438,117.308594 L56.9882812,117.308594 L56.9882812,124.085938 L68.2382812,124.085938 L68.2382812,128.675781 Z M84.15625,130.589844 L79.4882812,130.589844 L79.4882812,141 L73.6289062,141 L73.6289062,112.5625 L84.1953125,112.5625 C87.5547043,112.5625 90.1458242,113.31119 91.96875,114.808594 C93.7916758,116.305997 94.703125,118.421861 94.703125,121.15625 C94.703125,123.096364 94.2832073,124.714186 93.4433594,126.009766 C92.6035114,127.305345 91.3307377,128.337236 89.625,129.105469 L95.7773438,140.726562 L95.7773438,141 L89.4882812,141 L84.15625,130.589844 Z M79.4882812,125.84375 L84.2148438,125.84375 C85.6862053,125.84375 86.8255168,125.469405 87.6328125,124.720703 C88.4401082,123.972001 88.84375,122.940111 88.84375,121.625 C88.84375,120.283847 88.4628944,119.229171 87.7011719,118.460938 C86.9394493,117.692704 85.7708412,117.308594 84.1953125,117.308594 L79.4882812,117.308594 L79.4882812,125.84375 Z M109.664062,133.949219 L116.109375,112.5625 L122.632812,112.5625 L112.730469,141 L106.617188,141 L96.7539062,112.5625 L103.257812,112.5625 L109.664062,133.949219 Z M142.417969,128.675781 L131.167969,128.675781 L131.167969,136.292969 L144.371094,136.292969 L144.371094,141 L125.308594,141 L125.308594,112.5625 L144.332031,112.5625 L144.332031,117.308594 L131.167969,117.308594 L131.167969,124.085938 L142.417969,124.085938 L142.417969,128.675781 Z M158.335938,130.589844 L153.667969,130.589844 L153.667969,141 L147.808594,141 L147.808594,112.5625 L158.375,112.5625 C161.734392,112.5625 164.325512,113.31119 166.148438,114.808594 C167.971363,116.305997 168.882812,118.421861 168.882812,121.15625 C168.882812,123.096364 168.462895,124.714186 167.623047,126.009766 C166.783199,127.305345 165.510425,128.337236 163.804688,129.105469 L169.957031,140.726562 L169.957031,141 L163.667969,141 L158.335938,130.589844 Z M153.667969,125.84375 L158.394531,125.84375 C159.865893,125.84375 161.005204,125.469405 161.8125,124.720703 C162.619796,123.972001 163.023438,122.940111 163.023438,121.625 C163.023438,120.283847 162.642582,119.229171 161.880859,118.460938 C161.119137,117.692704 159.950529,117.308594 158.375,117.308594 L153.667969,117.308594 L153.667969,125.84375 Z M190.953125,112.5625 L198.257812,133.1875 L205.523438,112.5625 L213.21875,112.5625 L213.21875,141 L207.339844,141 L207.339844,133.226562 L207.925781,119.808594 L200.25,141 L196.226562,141 L188.570312,119.828125 L189.15625,133.226562 L189.15625,141 L183.296875,141 L183.296875,112.5625 L190.953125,112.5625 Z M224.566406,141 L218.707031,141 L218.707031,112.5625 L224.566406,112.5625 L224.566406,141 Z M253.121094,141 L247.261719,141 L235.855469,122.289062 L235.855469,141 L229.996094,141 L229.996094,112.5625 L235.855469,112.5625 L247.28125,131.3125 L247.28125,112.5625 L253.121094,112.5625 L253.121094,141 Z M272.984375,133.539062 C272.984375,132.432286 272.593754,131.582685 271.8125,130.990234 C271.031246,130.397783 269.62501,129.77279 267.59375,129.115234 C265.56249,128.457679 263.954433,127.809899 262.769531,127.171875 C259.540348,125.427075 257.925781,123.076838 257.925781,120.121094 C257.925781,118.584628 258.35872,117.214199 259.224609,116.009766 C260.090499,114.805333 261.333976,113.864587 262.955078,113.1875 C264.57618,112.510413 266.395823,112.171875 268.414062,112.171875 C270.445323,112.171875 272.2552,112.53971 273.84375,113.275391 C275.4323,114.011071 276.666011,115.049472 277.544922,116.390625 C278.423833,117.731778 278.863281,119.2552 278.863281,120.960938 L273.003906,120.960938 C273.003906,119.658848 272.593754,118.646488 271.773438,117.923828 C270.953121,117.201168 269.800789,116.839844 268.316406,116.839844 C266.884107,116.839844 265.770837,117.142575 264.976562,117.748047 C264.182288,118.353519 263.785156,119.151037 263.785156,120.140625 C263.785156,121.065109 264.250646,121.839841 265.181641,122.464844 C266.112635,123.089847 267.483064,123.675779 269.292969,124.222656 C272.626319,125.225265 275.05468,126.468743 276.578125,127.953125 C278.10157,129.437507 278.863281,131.286447 278.863281,133.5 C278.863281,135.96095 277.932301,137.891269 276.070312,139.291016 C274.208324,140.690762 271.701839,141.390625 268.550781,141.390625 C266.36327,141.390625 264.371103,140.990238 262.574219,140.189453 C260.777335,139.388668 259.406906,138.291674 258.462891,136.898438 C257.518875,135.505201 257.046875,133.890634 257.046875,132.054688 L262.925781,132.054688 C262.925781,135.192724 264.800763,136.761719 268.550781,136.761719 C269.944017,136.761719 271.031246,136.478518 271.8125,135.912109 C272.593754,135.3457 272.984375,134.554693 272.984375,133.539062 Z M314.195312,117.308594 L305.484375,117.308594 L305.484375,141 L299.625,141 L299.625,117.308594 L291.03125,117.308594 L291.03125,112.5625 L314.195312,112.5625 L314.195312,117.308594 Z M323.765625,141 L317.90625,141 L317.90625,112.5625 L323.765625,112.5625 L323.765625,141 Z M336.851562,112.5625 L344.15625,133.1875 L351.421875,112.5625 L359.117188,112.5625 L359.117188,141 L353.238281,141 L353.238281,133.226562 L353.824219,119.808594 L346.148438,141 L342.125,141 L334.46875,119.828125 L335.054688,133.226562 L335.054688,141 L329.195312,141 L329.195312,112.5625 L336.851562,112.5625 Z M381.34375,128.675781 L370.09375,128.675781 L370.09375,136.292969 L383.296875,136.292969 L383.296875,141 L364.234375,141 L364.234375,112.5625 L383.257812,112.5625 L383.257812,117.308594 L370.09375,117.308594 L370.09375,124.085938 L381.34375,124.085938 L381.34375,128.675781 Z" id="SERVERMINSTIME" fill="#FFFFFF" fill-rule="nonzero"></path>
            <rect id="Rectangle" fill="#ADFB5F" x="449" y="39" width="82" height="50" rx="3"></rect>
            <ellipse id="Oval" fill="#FFFFFF" cx="491" cy="64" rx="18" ry="19"></ellipse>
            <text id="$" font-family="Roboto-Bold, Roboto" font-size="30" font-weight="bold" fill="#509209">
                <tspan x="482.394043" y="75">$</tspan>
            </text>
            <text id="Custom-Item-1" font-family="Lato-Bold, Lato" font-size="40" font-weight="bold" fill="#949494">
                <tspan x="26.8" y="445">Custom Item 1</tspan>
            </text>
            <rect id="Rectangle" fill="#98CE00" x="189" y="286" width="166" height="102"></rect>
            <text id="AUTH" font-family="Roboto-Black, Roboto" font-size="35" font-weight="700" fill="#080B26">
                <tspan x="54" y="350">AUTH</tspan>
            </text>
            <text id="PAY" font-family="Roboto-Black, Roboto" font-size="35" font-weight="700" fill="#080B26">
                <tspan x="238" y="350">PAY</tspan>
            </text>
            <text id="CATALOG" font-family="Roboto-Black, Roboto" font-size="35" font-weight="700" fill="#080B26">
                <tspan x="364" y="349">CATALOG</tspan>
            </text>
        </g>
        <polygon id="Path-2" fill="#000000" opacity="0.825497582" points="24 244 24 325 189 325 189 379 189 325 24 325 24 386 179.053424 386.456039 185.417065 386.474756 544.5 387 544.5 500 407 500 407 387 24 386 24 508 24 756.684615 544 756.684615 544 374.684615 544 245 419 244.684615 319 244.684615 319 244"></polygon>
        <rect id="Rectangle" fill="#FFFFFF" x="42" y="47" width="486" height="152" rx="12"></rect>
        <polygon id="Line-2" fill="#FFFFFF" fill-rule="nonzero" points="476.985 340 476.985 186 484.985 186 484.985 340 502.985 340 480.985 384 458.985 340 476.985 340"></polygon>
        <path d="M87.8981934,75.9545898 L80.7116699,75.9545898 L80.7116699,95.5 L75.8776855,95.5 L75.8776855,75.9545898 L68.7878418,75.9545898 L68.7878418,72.0390625 L87.8981934,72.0390625 L87.8981934,75.9545898 Z M103.898682,90.6660156 L95.4230957,90.6660156 L93.8117676,95.5 L88.6716309,95.5 L97.4050293,72.0390625 L101.884521,72.0390625 L110.66626,95.5 L105.526123,95.5 L103.898682,90.6660156 Z M96.7282715,86.7504883 L102.593506,86.7504883 L99.6447754,77.96875 L96.7282715,86.7504883 Z M117.69165,87.2338867 L117.69165,95.5 L112.857666,95.5 L112.857666,72.0390625 L122.01001,72.0390625 C123.771737,72.0390625 125.321282,72.3613249 126.658691,73.0058594 C127.9961,73.6503938 129.024655,74.5661562 129.744385,75.7531738 C130.464115,76.9401915 130.823975,78.2910081 130.823975,79.8056641 C130.823975,82.1045037 130.037117,83.9172297 128.463379,85.2438965 C126.889641,86.5705633 124.711684,87.2338867 121.929443,87.2338867 L117.69165,87.2338867 Z M117.69165,83.3183594 L122.01001,83.3183594 C123.288336,83.3183594 124.26318,83.0175811 124.93457,82.4160156 C125.60596,81.8144501 125.94165,80.9550837 125.94165,79.8378906 C125.94165,78.6884708 125.603275,77.7592809 124.926514,77.050293 C124.249752,76.341305 123.315192,75.9760743 122.122803,75.9545898 L117.69165,75.9545898 L117.69165,83.3183594 Z M160.02124,75.9545898 L152.834717,75.9545898 L152.834717,95.5 L148.000732,95.5 L148.000732,75.9545898 L140.910889,75.9545898 L140.910889,72.0390625 L160.02124,72.0390625 L160.02124,75.9545898 Z M181.87085,95.5 L177.036865,95.5 L177.036865,85.4453125 L167.610596,85.4453125 L167.610596,95.5 L162.776611,95.5 L162.776611,72.0390625 L167.610596,72.0390625 L167.610596,81.5458984 L177.036865,81.5458984 L177.036865,72.0390625 L181.87085,72.0390625 L181.87085,95.5 Z M200.207764,85.3325195 L190.926514,85.3325195 L190.926514,91.6166992 L201.819092,91.6166992 L201.819092,95.5 L186.092529,95.5 L186.092529,72.0390625 L201.786865,72.0390625 L201.786865,75.9545898 L190.926514,75.9545898 L190.926514,81.5458984 L200.207764,81.5458984 L200.207764,85.3325195 Z M212.872803,95.5 L212.872803,72.0390625 L220.091553,72.0390625 C222.154063,72.0390625 223.999015,72.5036575 225.626465,73.4328613 C227.253914,74.3620652 228.524165,75.683341 229.437256,77.3967285 C230.350346,79.110116 230.806885,81.057118 230.806885,83.237793 L230.806885,84.3173828 C230.806885,86.4980578 230.358403,88.4370032 229.461426,90.1342773 C228.564449,91.8315515 227.299569,93.1474563 225.666748,94.0820312 C224.033927,95.0166062 222.191661,95.4892578 220.139893,95.5 L212.872803,95.5 Z M217.706787,75.9545898 L217.706787,91.6166992 L220.043213,91.6166992 C221.933847,91.6166992 223.378657,90.9990296 224.377686,89.7636719 C225.376714,88.5283141 225.886963,86.761242 225.908447,84.4624023 L225.908447,83.2216797 C225.908447,80.8369021 225.414312,79.0295472 224.426025,77.7995605 C223.437739,76.5695739 221.992929,75.9545898 220.091553,75.9545898 L217.706787,75.9545898 Z M239.459717,95.5 L234.625732,95.5 L234.625732,72.0390625 L239.459717,72.0390625 L239.459717,95.5 Z M256.104736,89.3447266 C256.104736,88.4316361 255.782474,87.7307153 255.137939,87.2419434 C254.493405,86.7531714 253.33326,86.2375515 251.657471,85.6950684 C249.981681,85.1525852 248.655034,84.6181667 247.67749,84.0917969 C245.013414,82.6523366 243.681396,80.7133911 243.681396,78.2749023 C243.681396,77.0073179 244.038571,75.876714 244.75293,74.8830566 C245.467289,73.8893993 246.493157,73.113284 247.830566,72.5546875 C249.167975,71.996091 250.669181,71.7167969 252.334229,71.7167969 C254.010018,71.7167969 255.503167,72.0202606 256.813721,72.6271973 C258.124274,73.2341339 259.142086,74.0908148 259.867188,75.1972656 C260.592289,76.3037165 260.954834,77.5605398 260.954834,78.9677734 L256.12085,78.9677734 C256.12085,77.8935493 255.782474,77.0583526 255.105713,76.4621582 C254.428952,75.8659638 253.478278,75.5678711 252.253662,75.5678711 C251.072016,75.5678711 250.153568,75.8176245 249.498291,76.3171387 C248.843014,76.8166529 248.515381,77.4746053 248.515381,78.2910156 C248.515381,79.0537148 248.89941,79.6928685 249.66748,80.2084961 C250.435551,80.7241237 251.566155,81.2075173 253.059326,81.6586914 C255.80934,82.485844 257.812738,83.5117126 259.06958,84.7363281 C260.326422,85.9609436 260.954834,87.486319 260.954834,89.3125 C260.954834,91.3427836 260.186775,92.935297 258.650635,94.0900879 C257.114494,95.2448788 255.046644,95.8222656 252.447021,95.8222656 C250.642325,95.8222656 248.998787,95.4919467 247.516357,94.8312988 C246.033928,94.170651 244.903324,93.2656307 244.124512,92.1162109 C243.345699,90.9667911 242.956299,89.6347732 242.956299,88.1201172 L247.806396,88.1201172 C247.806396,90.7089973 249.353256,92.003418 252.447021,92.003418 C253.596441,92.003418 254.493405,91.7697777 255.137939,91.3024902 C255.782474,90.8352027 256.104736,90.1826214 256.104736,89.3447266 Z M282.643311,87.6850586 C282.460692,90.2094853 281.528817,92.1967701 279.847656,93.6469727 C278.166496,95.0971752 275.950941,95.8222656 273.200928,95.8222656 C270.1931,95.8222656 267.827157,94.8098246 266.103027,92.7849121 C264.378898,90.7599996 263.516846,87.9804864 263.516846,84.4462891 L263.516846,83.012207 C263.516846,80.7563364 263.914303,78.7690516 264.709229,77.050293 C265.504154,75.3315344 266.640129,74.012944 268.117188,73.0944824 C269.594246,72.1760208 271.310293,71.7167969 273.265381,71.7167969 C275.972426,71.7167969 278.153068,72.4418873 279.807373,73.8920898 C281.461678,75.3422924 282.417723,77.3779166 282.675537,79.9990234 L277.841553,79.9990234 C277.723388,78.4843674 277.301761,77.3859897 276.57666,76.7038574 C275.851559,76.0217251 274.74781,75.6806641 273.265381,75.6806641 C271.654045,75.6806641 270.448246,76.2580509 269.647949,77.4128418 C268.847652,78.5676327 268.436768,80.3588746 268.415283,82.7866211 L268.415283,84.559082 C268.415283,87.094251 268.799313,88.9472598 269.567383,90.1181641 C270.335453,91.2890684 271.546623,91.8745117 273.200928,91.8745117 C274.694099,91.8745117 275.80859,91.5334507 276.544434,90.8513184 C277.280277,90.169186 277.701904,89.1137767 277.809326,87.6850586 L282.643311,87.6850586 Z M305.089111,84.3012695 C305.089111,86.6108514 304.680912,88.6357335 303.864502,90.3759766 C303.048092,92.1162196 301.87989,93.4589796 300.359863,94.4042969 C298.839836,95.3496141 297.096934,95.8222656 295.131104,95.8222656 C293.186758,95.8222656 291.451912,95.3549851 289.926514,94.4204102 C288.401115,93.4858352 287.219487,92.1511317 286.381592,90.4162598 C285.543697,88.6813878 285.119385,86.6860464 285.108643,84.4301758 L285.108643,83.2700195 C285.108643,80.9604377 285.524898,78.927499 286.357422,77.1711426 C287.189946,75.4147861 288.366203,74.0666551 289.88623,73.126709 C291.406258,72.1867629 293.143789,71.7167969 295.098877,71.7167969 C297.053965,71.7167969 298.791496,72.1867629 300.311523,73.126709 C301.831551,74.0666551 303.007808,75.4147861 303.840332,77.1711426 C304.672856,78.927499 305.089111,80.9550666 305.089111,83.2539062 L305.089111,84.3012695 Z M300.190674,83.237793 C300.190674,80.7778197 299.750249,78.9086978 298.869385,77.6303711 C297.988521,76.3520444 296.731698,75.7128906 295.098877,75.7128906 C293.476799,75.7128906 292.225346,76.3439878 291.344482,77.6062012 C290.463619,78.8684145 290.017822,80.7187378 290.00708,83.1572266 L290.00708,84.3012695 C290.00708,86.6967893 290.447505,88.5551692 291.328369,89.8764648 C292.209233,91.1977605 293.476798,91.8583984 295.131104,91.8583984 C296.753182,91.8583984 297.999263,91.2219302 298.869385,89.9489746 C299.739506,88.676019 300.179932,86.8203247 300.190674,84.3818359 L300.190674,83.237793 Z M326.358643,72.0390625 L326.358643,87.4916992 C326.358643,90.0590949 325.555672,92.089348 323.949707,93.5825195 C322.343742,95.0756911 320.149672,95.8222656 317.367432,95.8222656 C314.62816,95.8222656 312.452889,95.0971752 310.841553,93.6469727 C309.230217,92.1967701 308.408447,90.2041142 308.376221,87.6689453 L308.376221,72.0390625 L313.210205,72.0390625 L313.210205,87.5239258 C313.210205,89.0600663 313.578121,90.1799281 314.313965,90.8835449 C315.049808,91.5871617 316.06762,91.9389648 317.367432,91.9389648 C320.085219,91.9389648 321.465576,90.5102682 321.508545,87.652832 L321.508545,72.0390625 L326.358643,72.0390625 Z M349.400635,95.5 L344.56665,95.5 L335.156494,80.0634766 L335.156494,95.5 L330.32251,95.5 L330.32251,72.0390625 L335.156494,72.0390625 L344.582764,87.5078125 L344.582764,72.0390625 L349.400635,72.0390625 L349.400635,95.5 Z M371.282471,75.9545898 L364.095947,75.9545898 L364.095947,95.5 L359.261963,95.5 L359.261963,75.9545898 L352.172119,75.9545898 L352.172119,72.0390625 L371.282471,72.0390625 L371.282471,75.9545898 Z M382.255615,95.5 L382.255615,72.0390625 L390.473389,72.0390625 C393.320083,72.0390625 395.479241,72.5842231 396.950928,73.6745605 C398.422615,74.764898 399.158447,76.3627824 399.158447,78.4682617 C399.158447,79.6176815 398.86304,80.6301226 398.272217,81.5056152 C397.681394,82.3811079 396.859624,83.0229472 395.806885,83.4311523 C397.010016,83.7319351 397.958004,84.3388626 398.650879,85.2519531 C399.343753,86.1650436 399.690186,87.28222 399.690186,88.6035156 C399.690186,90.8593863 398.970466,92.567377 397.531006,93.7275391 C396.091546,94.8877011 394.039808,95.4785155 391.375732,95.5 L382.255615,95.5 Z M387.0896,85.2841797 L387.0896,91.6166992 L391.230713,91.6166992 C392.36939,91.6166992 393.258298,91.3454617 393.897461,90.8029785 C394.536624,90.2604953 394.856201,89.5112352 394.856201,88.5551758 C394.856201,86.4067275 393.744396,85.3164064 391.520752,85.2841797 L387.0896,85.2841797 Z M387.0896,81.8681641 L390.666748,81.8681641 C393.105237,81.8251951 394.324463,80.8530369 394.324463,78.9516602 C394.324463,77.8881783 394.015628,77.1228051 393.397949,76.6555176 C392.78027,76.1882301 391.805427,75.9545898 390.473389,75.9545898 L387.0896,75.9545898 L387.0896,81.8681641 Z M421.07251,72.0390625 L421.07251,87.4916992 C421.07251,90.0590949 420.269539,92.089348 418.663574,93.5825195 C417.057609,95.0756911 414.863539,95.8222656 412.081299,95.8222656 C409.342027,95.8222656 407.166756,95.0971752 405.55542,93.6469727 C403.944084,92.1967701 403.122315,90.2041142 403.090088,87.6689453 L403.090088,72.0390625 L407.924072,72.0390625 L407.924072,87.5239258 C407.924072,89.0600663 408.291989,90.1799281 409.027832,90.8835449 C409.763676,91.5871617 410.781488,91.9389648 412.081299,91.9389648 C414.799086,91.9389648 416.179443,90.5102682 416.222412,87.652832 L416.222412,72.0390625 L421.07251,72.0390625 Z M442.696533,75.9545898 L435.51001,75.9545898 L435.51001,95.5 L430.676025,95.5 L430.676025,75.9545898 L423.586182,75.9545898 L423.586182,72.0390625 L442.696533,72.0390625 L442.696533,75.9545898 Z M463.112061,75.9545898 L455.925537,75.9545898 L455.925537,95.5 L451.091553,95.5 L451.091553,75.9545898 L444.001709,75.9545898 L444.001709,72.0390625 L463.112061,72.0390625 L463.112061,75.9545898 Z M485.138916,84.3012695 C485.138916,86.6108514 484.730717,88.6357335 483.914307,90.3759766 C483.097896,92.1162196 481.929695,93.4589796 480.409668,94.4042969 C478.889641,95.3496141 477.146738,95.8222656 475.180908,95.8222656 C473.236563,95.8222656 471.501717,95.3549851 469.976318,94.4204102 C468.45092,93.4858352 467.269291,92.1511317 466.431396,90.4162598 C465.593502,88.6813878 465.16919,86.6860464 465.158447,84.4301758 L465.158447,83.2700195 C465.158447,80.9604377 465.574703,78.927499 466.407227,77.1711426 C467.23975,75.4147861 468.416008,74.0666551 469.936035,73.126709 C471.456062,72.1867629 473.193594,71.7167969 475.148682,71.7167969 C477.10377,71.7167969 478.841301,72.1867629 480.361328,73.126709 C481.881355,74.0666551 483.057613,75.4147861 483.890137,77.1711426 C484.72266,78.927499 485.138916,80.9550666 485.138916,83.2539062 L485.138916,84.3012695 Z M480.240479,83.237793 C480.240479,80.7778197 479.800053,78.9086978 478.919189,77.6303711 C478.038326,76.3520444 476.781502,75.7128906 475.148682,75.7128906 C473.526603,75.7128906 472.275151,76.3439878 471.394287,77.6062012 C470.513423,78.8684145 470.067627,80.7187378 470.056885,83.1572266 L470.056885,84.3012695 C470.056885,86.6967893 470.49731,88.5551692 471.378174,89.8764648 C472.259038,91.1977605 473.526603,91.8583984 475.180908,91.8583984 C476.802987,91.8583984 478.049068,91.2219302 478.919189,89.9489746 C479.789311,88.676019 480.229736,86.8203247 480.240479,84.3818359 L480.240479,83.237793 Z M507.729736,95.5 L502.895752,95.5 L493.485596,80.0634766 L493.485596,95.5 L488.651611,95.5 L488.651611,72.0390625 L493.485596,72.0390625 L502.911865,87.5078125 L502.911865,72.0390625 L507.729736,72.0390625 L507.729736,95.5 Z M102.150391,114.95459 L94.9638672,114.95459 L94.9638672,134.5 L90.1298828,134.5 L90.1298828,114.95459 L83.0400391,114.95459 L83.0400391,111.039062 L102.150391,111.039062 L102.150391,114.95459 Z M124.177246,123.30127 C124.177246,125.610851 123.769047,127.635733 122.952637,129.375977 C122.136226,131.11622 120.968025,132.45898 119.447998,133.404297 C117.927971,134.349614 116.185068,134.822266 114.219238,134.822266 C112.274893,134.822266 110.540047,134.354985 109.014648,133.42041 C107.48925,132.485835 106.307621,131.151132 105.469727,129.41626 C104.631832,127.681388 104.20752,125.686046 104.196777,123.430176 L104.196777,122.27002 C104.196777,119.960438 104.613033,117.927499 105.445557,116.171143 C106.27808,114.414786 107.454338,113.066655 108.974365,112.126709 C110.494392,111.186763 112.231924,110.716797 114.187012,110.716797 C116.1421,110.716797 117.879631,111.186763 119.399658,112.126709 C120.919685,113.066655 122.095943,114.414786 122.928467,116.171143 C123.76099,117.927499 124.177246,119.955067 124.177246,122.253906 L124.177246,123.30127 Z M119.278809,122.237793 C119.278809,119.77782 118.838383,117.908698 117.95752,116.630371 C117.076656,115.352044 115.819832,114.712891 114.187012,114.712891 C112.564933,114.712891 111.313481,115.343988 110.432617,116.606201 C109.551753,117.868415 109.105957,119.718738 109.095215,122.157227 L109.095215,123.30127 C109.095215,125.696789 109.53564,127.555169 110.416504,128.876465 C111.297368,130.197761 112.564933,130.858398 114.219238,130.858398 C115.841317,130.858398 117.087398,130.22193 117.95752,128.948975 C118.827641,127.676019 119.268066,125.820325 119.278809,123.381836 L119.278809,122.237793 Z M149.152832,129.666016 L140.677246,129.666016 L139.065918,134.5 L133.925781,134.5 L142.65918,111.039062 L147.138672,111.039062 L155.92041,134.5 L150.780273,134.5 L149.152832,129.666016 Z M141.982422,125.750488 L147.847656,125.750488 L144.898926,116.96875 L141.982422,125.750488 Z M158.111816,134.5 L158.111816,111.039062 L165.330566,111.039062 C167.393077,111.039062 169.238029,111.503657 170.865479,112.432861 C172.492928,113.362065 173.763179,114.683341 174.67627,116.396729 C175.58936,118.110116 176.045898,120.057118 176.045898,122.237793 L176.045898,123.317383 C176.045898,125.498058 175.597417,127.437003 174.700439,129.134277 C173.803462,130.831551 172.538582,132.147456 170.905762,133.082031 C169.272941,134.016606 167.430674,134.489258 165.378906,134.5 L158.111816,134.5 Z M162.945801,114.95459 L162.945801,130.616699 L165.282227,130.616699 C167.172861,130.616699 168.617671,129.99903 169.616699,128.763672 C170.615728,127.528314 171.125976,125.761242 171.147461,123.462402 L171.147461,122.22168 C171.147461,119.836902 170.653325,118.029547 169.665039,116.799561 C168.676753,115.569574 167.231943,114.95459 165.330566,114.95459 L162.945801,114.95459 Z M179.558594,134.5 L179.558594,111.039062 L186.777344,111.039062 C188.839854,111.039062 190.684806,111.503657 192.312256,112.432861 C193.939705,113.362065 195.209956,114.683341 196.123047,116.396729 C197.036137,118.110116 197.492676,120.057118 197.492676,122.237793 L197.492676,123.317383 C197.492676,125.498058 197.044194,127.437003 196.147217,129.134277 C195.25024,130.831551 193.98536,132.147456 192.352539,133.082031 C190.719718,134.016606 188.877452,134.489258 186.825684,134.5 L179.558594,134.5 Z M184.392578,114.95459 L184.392578,130.616699 L186.729004,130.616699 C188.619638,130.616699 190.064448,129.99903 191.063477,128.763672 C192.062505,127.528314 192.572754,125.761242 192.594238,123.462402 L192.594238,122.22168 C192.594238,119.836902 192.100103,118.029547 191.111816,116.799561 C190.12353,115.569574 188.67872,114.95459 186.777344,114.95459 L184.392578,114.95459 Z M222.468262,129.666016 L213.992676,129.666016 L212.381348,134.5 L207.241211,134.5 L215.974609,111.039062 L220.454102,111.039062 L229.23584,134.5 L224.095703,134.5 L222.468262,129.666016 Z M215.297852,125.750488 L221.163086,125.750488 L218.214355,116.96875 L215.297852,125.750488 Z M253.760254,124.912598 L244.479004,124.912598 L244.479004,134.5 L239.64502,134.5 L239.64502,111.039062 L254.92041,111.039062 L254.92041,114.95459 L244.479004,114.95459 L244.479004,121.013184 L253.760254,121.013184 L253.760254,124.912598 Z M262.864258,134.5 L258.030273,134.5 L258.030273,111.039062 L262.864258,111.039062 L262.864258,134.5 Z M275.73877,119.12793 L280.137695,111.039062 L285.696777,111.039062 L278.864746,122.672852 L285.874023,134.5 L280.250488,134.5 L275.73877,126.282227 L271.227051,134.5 L265.603516,134.5 L272.612793,122.672852 L265.780762,111.039062 L271.339844,111.039062 L275.73877,119.12793 Z M302.422363,124.33252 L293.141113,124.33252 L293.141113,130.616699 L304.033691,130.616699 L304.033691,134.5 L288.307129,134.5 L288.307129,111.039062 L304.001465,111.039062 L304.001465,114.95459 L293.141113,114.95459 L293.141113,120.545898 L302.422363,120.545898 L302.422363,124.33252 Z M306.869629,134.5 L306.869629,111.039062 L314.088379,111.039062 C316.150889,111.039062 317.995841,111.503657 319.623291,112.432861 C321.250741,113.362065 322.520992,114.683341 323.434082,116.396729 C324.347173,118.110116 324.803711,120.057118 324.803711,122.237793 L324.803711,123.317383 C324.803711,125.498058 324.355229,127.437003 323.458252,129.134277 C322.561275,130.831551 321.296395,132.147456 319.663574,133.082031 C318.030754,134.016606 316.188487,134.489258 314.136719,134.5 L306.869629,134.5 Z M311.703613,114.95459 L311.703613,130.616699 L314.040039,130.616699 C315.930674,130.616699 317.375483,129.99903 318.374512,128.763672 C319.37354,127.528314 319.883789,125.761242 319.905273,123.462402 L319.905273,122.22168 C319.905273,119.836902 319.411138,118.029547 318.422852,116.799561 C317.434565,115.569574 315.989756,114.95459 314.088379,114.95459 L311.703613,114.95459 Z M336.53418,134.5 L336.53418,111.039062 L343.75293,111.039062 C345.81544,111.039062 347.660392,111.503657 349.287842,112.432861 C350.915291,113.362065 352.185542,114.683341 353.098633,116.396729 C354.011723,118.110116 354.468262,120.057118 354.468262,122.237793 L354.468262,123.317383 C354.468262,125.498058 354.01978,127.437003 353.122803,129.134277 C352.225826,130.831551 350.960946,132.147456 349.328125,133.082031 C347.695304,134.016606 345.853038,134.489258 343.80127,134.5 L336.53418,134.5 Z M341.368164,114.95459 L341.368164,130.616699 L343.70459,130.616699 C345.595224,130.616699 347.040034,129.99903 348.039062,128.763672 C349.038091,127.528314 349.54834,125.761242 349.569824,123.462402 L349.569824,122.22168 C349.569824,119.836902 349.075689,118.029547 348.087402,116.799561 C347.099116,115.569574 345.654306,114.95459 343.75293,114.95459 L341.368164,114.95459 Z M363.121094,134.5 L358.287109,134.5 L358.287109,111.039062 L363.121094,111.039062 L363.121094,134.5 Z M379.766113,128.344727 C379.766113,127.431636 379.443851,126.730715 378.799316,126.241943 C378.154782,125.753171 376.994637,125.237552 375.318848,124.695068 C373.643058,124.152585 372.316411,123.618167 371.338867,123.091797 C368.674791,121.652337 367.342773,119.713391 367.342773,117.274902 C367.342773,116.007318 367.699948,114.876714 368.414307,113.883057 C369.128666,112.889399 370.154534,112.113284 371.491943,111.554688 C372.829352,110.996091 374.330558,110.716797 375.995605,110.716797 C377.671395,110.716797 379.164544,111.020261 380.475098,111.627197 C381.785651,112.234134 382.803463,113.090815 383.528564,114.197266 C384.253666,115.303716 384.616211,116.56054 384.616211,117.967773 L379.782227,117.967773 C379.782227,116.893549 379.443851,116.058353 378.76709,115.462158 C378.090329,114.865964 377.139655,114.567871 375.915039,114.567871 C374.733393,114.567871 373.814945,114.817624 373.159668,115.317139 C372.504391,115.816653 372.176758,116.474605 372.176758,117.291016 C372.176758,118.053715 372.560787,118.692869 373.328857,119.208496 C374.096928,119.724124 375.227532,120.207517 376.720703,120.658691 C379.470717,121.485844 381.474115,122.511713 382.730957,123.736328 C383.987799,124.960944 384.616211,126.486319 384.616211,128.3125 C384.616211,130.342784 383.848152,131.935297 382.312012,133.090088 C380.775871,134.244879 378.708021,134.822266 376.108398,134.822266 C374.303702,134.822266 372.660164,134.491947 371.177734,133.831299 C369.695305,133.170651 368.564701,132.265631 367.785889,131.116211 C367.007076,129.966791 366.617676,128.634773 366.617676,127.120117 L371.467773,127.120117 C371.467773,129.708997 373.014633,131.003418 376.108398,131.003418 C377.257818,131.003418 378.154782,130.769778 378.799316,130.30249 C379.443851,129.835203 379.766113,129.182621 379.766113,128.344727 Z M406.304688,126.685059 C406.122069,129.209485 405.190194,131.19677 403.509033,132.646973 C401.827872,134.097175 399.612318,134.822266 396.862305,134.822266 C393.854477,134.822266 391.488534,133.809825 389.764404,131.784912 C388.040275,129.76 387.178223,126.980486 387.178223,123.446289 L387.178223,122.012207 C387.178223,119.756336 387.57568,117.769052 388.370605,116.050293 C389.165531,114.331534 390.301506,113.012944 391.778564,112.094482 C393.255623,111.176021 394.97167,110.716797 396.926758,110.716797 C399.633803,110.716797 401.814445,111.441887 403.46875,112.89209 C405.123055,114.342292 406.0791,116.377917 406.336914,118.999023 L401.50293,118.999023 C401.384765,117.484367 400.963138,116.38599 400.238037,115.703857 C399.512936,115.021725 398.409187,114.680664 396.926758,114.680664 C395.315422,114.680664 394.109623,115.258051 393.309326,116.412842 C392.509029,117.567633 392.098145,119.358875 392.07666,121.786621 L392.07666,123.559082 C392.07666,126.094251 392.46069,127.94726 393.22876,129.118164 C393.99683,130.289068 395.208,130.874512 396.862305,130.874512 C398.355476,130.874512 399.469967,130.533451 400.205811,129.851318 C400.941654,129.169186 401.363281,128.113777 401.470703,126.685059 L406.304688,126.685059 Z M428.750488,123.30127 C428.750488,125.610851 428.342289,127.635733 427.525879,129.375977 C426.709469,131.11622 425.541267,132.45898 424.02124,133.404297 C422.501213,134.349614 420.758311,134.822266 418.79248,134.822266 C416.848135,134.822266 415.113289,134.354985 413.587891,133.42041 C412.062492,132.485835 410.880864,131.151132 410.042969,129.41626 C409.205074,127.681388 408.780762,125.686046 408.77002,123.430176 L408.77002,122.27002 C408.77002,119.960438 409.186275,117.927499 410.018799,116.171143 C410.851323,114.414786 412.02758,113.066655 413.547607,112.126709 C415.067635,111.186763 416.805166,110.716797 418.760254,110.716797 C420.715342,110.716797 422.452873,111.186763 423.9729,112.126709 C425.492928,113.066655 426.669185,114.414786 427.501709,116.171143 C428.334233,117.927499 428.750488,119.955067 428.750488,122.253906 L428.750488,123.30127 Z M423.852051,122.237793 C423.852051,119.77782 423.411625,117.908698 422.530762,116.630371 C421.649898,115.352044 420.393075,114.712891 418.760254,114.712891 C417.138175,114.712891 415.886723,115.343988 415.005859,116.606201 C414.124996,117.868415 413.679199,119.718738 413.668457,122.157227 L413.668457,123.30127 C413.668457,125.696789 414.108882,127.555169 414.989746,128.876465 C415.87061,130.197761 417.138175,130.858398 418.79248,130.858398 C420.414559,130.858398 421.66064,130.22193 422.530762,128.948975 C423.400883,127.676019 423.841309,125.820325 423.852051,123.381836 L423.852051,122.237793 Z M450.02002,111.039062 L450.02002,126.491699 C450.02002,129.059095 449.217049,131.089348 447.611084,132.58252 C446.005119,134.075691 443.811049,134.822266 441.028809,134.822266 C438.289537,134.822266 436.114266,134.097175 434.50293,132.646973 C432.891594,131.19677 432.069824,129.204114 432.037598,126.668945 L432.037598,111.039062 L436.871582,111.039062 L436.871582,126.523926 C436.871582,128.060066 437.239498,129.179928 437.975342,129.883545 C438.711185,130.587162 439.728997,130.938965 441.028809,130.938965 C443.746596,130.938965 445.126953,129.510268 445.169922,126.652832 L445.169922,111.039062 L450.02002,111.039062 Z M473.062012,134.5 L468.228027,134.5 L458.817871,119.063477 L458.817871,134.5 L453.983887,134.5 L453.983887,111.039062 L458.817871,111.039062 L468.244141,126.507812 L468.244141,111.039062 L473.062012,111.039062 L473.062012,134.5 Z M494.943848,114.95459 L487.757324,114.95459 L487.757324,134.5 L482.92334,134.5 L482.92334,114.95459 L475.833496,114.95459 L475.833496,111.039062 L494.943848,111.039062 L494.943848,114.95459 Z M105.34082,153.95459 L98.1542969,153.95459 L98.1542969,173.5 L93.3203125,173.5 L93.3203125,153.95459 L86.2304688,153.95459 L86.2304688,150.039062 L105.34082,150.039062 L105.34082,153.95459 Z M127.367676,162.30127 C127.367676,164.610851 126.959477,166.635733 126.143066,168.375977 C125.326656,170.11622 124.158455,171.45898 122.638428,172.404297 C121.118401,173.349614 119.375498,173.822266 117.409668,173.822266 C115.465322,173.822266 113.730476,173.354985 112.205078,172.42041 C110.67968,171.485835 109.498051,170.151132 108.660156,168.41626 C107.822261,166.681388 107.397949,164.686046 107.387207,162.430176 L107.387207,161.27002 C107.387207,158.960438 107.803463,156.927499 108.635986,155.171143 C109.46851,153.414786 110.644768,152.066655 112.164795,151.126709 C113.684822,150.186763 115.422354,149.716797 117.377441,149.716797 C119.332529,149.716797 121.070061,150.186763 122.590088,151.126709 C124.110115,152.066655 125.286373,153.414786 126.118896,155.171143 C126.95142,156.927499 127.367676,158.955067 127.367676,161.253906 L127.367676,162.30127 Z M122.469238,161.237793 C122.469238,158.77782 122.028813,156.908698 121.147949,155.630371 C120.267085,154.352044 119.010262,153.712891 117.377441,153.712891 C115.755363,153.712891 114.503911,154.343988 113.623047,155.606201 C112.742183,156.868415 112.296387,158.718738 112.285645,161.157227 L112.285645,162.30127 C112.285645,164.696789 112.72607,166.555169 113.606934,167.876465 C114.487797,169.197761 115.755363,169.858398 117.409668,169.858398 C119.031746,169.858398 120.277828,169.22193 121.147949,167.948975 C122.018071,166.676019 122.458496,164.820325 122.469238,162.381836 L122.469238,161.237793 Z M156.758301,153.95459 L149.571777,153.95459 L149.571777,173.5 L144.737793,173.5 L144.737793,153.95459 L137.647949,153.95459 L137.647949,150.039062 L156.758301,150.039062 L156.758301,153.95459 Z M178.60791,173.5 L173.773926,173.5 L173.773926,163.445312 L164.347656,163.445312 L164.347656,173.5 L159.513672,173.5 L159.513672,150.039062 L164.347656,150.039062 L164.347656,159.545898 L173.773926,159.545898 L173.773926,150.039062 L178.60791,150.039062 L178.60791,173.5 Z M196.944824,163.33252 L187.663574,163.33252 L187.663574,169.616699 L198.556152,169.616699 L198.556152,173.5 L182.82959,173.5 L182.82959,150.039062 L198.523926,150.039062 L198.523926,153.95459 L187.663574,153.95459 L187.663574,159.545898 L196.944824,159.545898 L196.944824,163.33252 Z M227.27002,153.95459 L220.083496,153.95459 L220.083496,173.5 L215.249512,173.5 L215.249512,153.95459 L208.159668,153.95459 L208.159668,150.039062 L227.27002,150.039062 L227.27002,153.95459 Z M249.296875,162.30127 C249.296875,164.610851 248.888676,166.635733 248.072266,168.375977 C247.255855,170.11622 246.087654,171.45898 244.567627,172.404297 C243.0476,173.349614 241.304697,173.822266 239.338867,173.822266 C237.394522,173.822266 235.659676,173.354985 234.134277,172.42041 C232.608879,171.485835 231.42725,170.151132 230.589355,168.41626 C229.751461,166.681388 229.327148,164.686046 229.316406,162.430176 L229.316406,161.27002 C229.316406,158.960438 229.732662,156.927499 230.565186,155.171143 C231.397709,153.414786 232.573967,152.066655 234.093994,151.126709 C235.614021,150.186763 237.351553,149.716797 239.306641,149.716797 C241.261729,149.716797 242.99926,150.186763 244.519287,151.126709 C246.039314,152.066655 247.215572,153.414786 248.048096,155.171143 C248.880619,156.927499 249.296875,158.955067 249.296875,161.253906 L249.296875,162.30127 Z M244.398438,161.237793 C244.398438,158.77782 243.958012,156.908698 243.077148,155.630371 C242.196285,154.352044 240.939461,153.712891 239.306641,153.712891 C237.684562,153.712891 236.43311,154.343988 235.552246,155.606201 C234.671382,156.868415 234.225586,158.718738 234.214844,161.157227 L234.214844,162.30127 C234.214844,164.696789 234.655269,166.555169 235.536133,167.876465 C236.416997,169.197761 237.684562,169.858398 239.338867,169.858398 C240.960946,169.858398 242.207027,169.22193 243.077148,167.948975 C243.94727,166.676019 244.387695,164.820325 244.398438,162.381836 L244.398438,161.237793 Z M270.469727,153.95459 L263.283203,153.95459 L263.283203,173.5 L258.449219,173.5 L258.449219,153.95459 L251.359375,153.95459 L251.359375,150.039062 L270.469727,150.039062 L270.469727,153.95459 Z M286.470215,168.666016 L277.994629,168.666016 L276.383301,173.5 L271.243164,173.5 L279.976562,150.039062 L284.456055,150.039062 L293.237793,173.5 L288.097656,173.5 L286.470215,168.666016 Z M279.299805,164.750488 L285.165039,164.750488 L282.216309,155.96875 L279.299805,164.750488 Z M300.263184,169.616699 L310.527344,169.616699 L310.527344,173.5 L295.429199,173.5 L295.429199,150.039062 L300.263184,150.039062 L300.263184,169.616699 Z M339.176758,153.95459 L331.990234,153.95459 L331.990234,173.5 L327.15625,173.5 L327.15625,153.95459 L320.066406,153.95459 L320.066406,150.039062 L339.176758,150.039062 L339.176758,153.95459 Z M355.177246,168.666016 L346.70166,168.666016 L345.090332,173.5 L339.950195,173.5 L348.683594,150.039062 L353.163086,150.039062 L361.944824,173.5 L356.804688,173.5 L355.177246,168.666016 Z M348.006836,164.750488 L353.87207,164.750488 L350.92334,155.96875 L348.006836,164.750488 Z M364.13623,173.5 L364.13623,150.039062 L372.354004,150.039062 C375.200698,150.039062 377.359856,150.584223 378.831543,151.674561 C380.30323,152.764898 381.039062,154.362782 381.039062,156.468262 C381.039062,157.617682 380.743655,158.630123 380.152832,159.505615 C379.562009,160.381108 378.74024,161.022947 377.6875,161.431152 C378.890631,161.731935 379.83862,162.338863 380.531494,163.251953 C381.224369,164.165044 381.570801,165.28222 381.570801,166.603516 C381.570801,168.859386 380.851081,170.567377 379.411621,171.727539 C377.972161,172.887701 375.920423,173.478516 373.256348,173.5 L364.13623,173.5 Z M368.970215,163.28418 L368.970215,169.616699 L373.111328,169.616699 C374.250006,169.616699 375.138913,169.345462 375.778076,168.802979 C376.41724,168.260495 376.736816,167.511235 376.736816,166.555176 C376.736816,164.406728 375.625011,163.316406 373.401367,163.28418 L368.970215,163.28418 Z M368.970215,159.868164 L372.547363,159.868164 C374.985852,159.825195 376.205078,158.853037 376.205078,156.95166 C376.205078,155.888178 375.896243,155.122805 375.278564,154.655518 C374.660886,154.18823 373.686042,153.95459 372.354004,153.95459 L368.970215,153.95459 L368.970215,159.868164 Z M398.248047,165.233887 L398.248047,173.5 L393.414062,173.5 L393.414062,150.039062 L402.566406,150.039062 C404.328134,150.039062 405.877679,150.361325 407.215088,151.005859 C408.552497,151.650394 409.581051,152.566156 410.300781,153.753174 C411.020511,154.940191 411.380371,156.291008 411.380371,157.805664 C411.380371,160.104504 410.593514,161.91723 409.019775,163.243896 C407.446037,164.570563 405.26808,165.233887 402.48584,165.233887 L398.248047,165.233887 Z M398.248047,161.318359 L402.566406,161.318359 C403.844733,161.318359 404.819577,161.017581 405.490967,160.416016 C406.162357,159.81445 406.498047,158.955084 406.498047,157.837891 C406.498047,156.688471 406.159671,155.759281 405.48291,155.050293 C404.806149,154.341305 403.871588,153.976074 402.679199,153.95459 L398.248047,153.95459 L398.248047,161.318359 Z M423.384766,164.911621 L419.533691,164.911621 L419.533691,173.5 L414.699707,173.5 L414.699707,150.039062 L423.416992,150.039062 C426.18849,150.039062 428.326164,150.656732 429.830078,151.89209 C431.333992,153.127448 432.085938,154.873036 432.085938,157.128906 C432.085938,158.7295 431.739505,160.064204 431.046631,161.133057 C430.353756,162.20191 429.303718,163.053219 427.896484,163.687012 L432.972168,173.274414 L432.972168,173.5 L427.783691,173.5 L423.384766,164.911621 Z M419.533691,160.996094 L423.433105,160.996094 C424.646979,160.996094 425.586911,160.687259 426.25293,160.06958 C426.918949,159.451901 427.251953,158.600591 427.251953,157.515625 C427.251953,156.409174 426.937747,155.539066 426.309326,154.905273 C425.680905,154.271481 424.716803,153.95459 423.416992,153.95459 L419.533691,153.95459 L419.533691,160.996094 Z M440.899902,173.5 L436.065918,173.5 L436.065918,150.039062 L440.899902,150.039062 L440.899902,173.5 Z M463.796875,165.685059 C463.614257,168.209485 462.682381,170.19677 461.001221,171.646973 C459.32006,173.097175 457.104506,173.822266 454.354492,173.822266 C451.346665,173.822266 448.980722,172.809825 447.256592,170.784912 C445.532462,168.76 444.67041,165.980486 444.67041,162.446289 L444.67041,161.012207 C444.67041,158.756336 445.067867,156.769052 445.862793,155.050293 C446.657719,153.331534 447.793694,152.012944 449.270752,151.094482 C450.74781,150.176021 452.463857,149.716797 454.418945,149.716797 C457.12599,149.716797 459.306632,150.441887 460.960938,151.89209 C462.615243,153.342292 463.571288,155.377917 463.829102,157.999023 L458.995117,157.999023 C458.876953,156.484367 458.455326,155.38599 457.730225,154.703857 C457.005123,154.021725 455.901375,153.680664 454.418945,153.680664 C452.807609,153.680664 451.601811,154.258051 450.801514,155.412842 C450.001217,156.567633 449.590332,158.358875 449.568848,160.786621 L449.568848,162.559082 C449.568848,165.094251 449.952877,166.94726 450.720947,168.118164 C451.489018,169.289068 452.700187,169.874512 454.354492,169.874512 C455.847664,169.874512 456.962155,169.533451 457.697998,168.851318 C458.433842,168.169186 458.855468,167.113777 458.962891,165.685059 L463.796875,165.685059 Z M481.086426,163.33252 L471.805176,163.33252 L471.805176,169.616699 L482.697754,169.616699 L482.697754,173.5 L466.971191,173.5 L466.971191,150.039062 L482.665527,150.039062 L482.665527,153.95459 L471.805176,153.95459 L471.805176,159.545898 L481.086426,159.545898 L481.086426,163.33252 Z M489.964844,166.297363 L486.097656,166.297363 L485.549805,150.039062 L490.512695,150.039062 L489.964844,166.297363 Z M488.03125,168.843262 C488.815434,168.843262 489.446531,169.074216 489.924561,169.536133 C490.40259,169.998049 490.641602,170.588864 490.641602,171.308594 C490.641602,172.017582 490.40259,172.603025 489.924561,173.064941 C489.446531,173.526858 488.815434,173.757812 488.03125,173.757812 C487.257809,173.757812 486.632082,173.526858 486.154053,173.064941 C485.676023,172.603025 485.437012,172.017582 485.437012,171.308594 C485.437012,170.599606 485.676023,170.011477 486.154053,169.544189 C486.632082,169.076902 487.257809,168.843262 488.03125,168.843262 Z" id="TAPTHEDISCOUNTBUTTONTOADDAFIXEDDISCOUNTTOTHETOTALTABPRICE!" fill="#000000" fill-rule="nonzero"></path>
    </g>
</svg>