<?xml version="1.0" encoding="UTF-8"?>
<svg width="570px" height="792px" viewBox="0 0 570 792" version="1.1" xmlns="http://www.w3.org/2000/svg" xmlns:xlink="http://www.w3.org/1999/xlink">
    <!-- Generator: Sketch 54.1 (76490) - https://sketchapp.com -->
    <title>B1_items_en</title>
    <desc>Created with Sketch.</desc>
    <g id="B1_items_en" stroke="none" stroke-width="1" fill="none" fill-rule="evenodd">
        <rect id="Rectangle" fill="#00B0FF" x="0" y="0" width="570" height="792" rx="16"></rect>
        <path d="M47,252 L524,252 C530.627417,252 536,257.372583 536,264 L536,779 L35,779 L35,264 C35,257.372583 40.372583,252 47,252 Z" id="Rectangle" fill="#080B26"></path>
        <path d="M347.882324,405.484375 C347.882324,403.546214 348.14046,401.701181 348.656738,399.949219 C349.173017,398.197257 349.934728,396.646328 350.941895,395.296387 C351.949061,393.946445 353.040847,393.009117 354.217285,392.484375 L354.928223,394.464844 C353.692539,395.378911 352.727705,396.792308 352.033691,398.705078 C351.339678,400.617848 350.992676,402.852201 350.992676,405.408203 L350.992676,405.801758 C350.992676,408.366224 351.335446,410.60904 352.020996,412.530273 C352.706546,414.451507 353.675612,415.886063 354.928223,416.833984 L354.217285,418.776367 C353.066238,418.260089 351.993495,417.348151 350.999023,416.040527 C350.004552,414.732904 349.244957,413.224292 348.720215,411.514648 C348.195473,409.805004 347.916179,408.019215 347.882324,406.157227 L347.882324,405.484375 Z M357.010254,405.484375 C357.010254,403.546214 357.268389,401.701181 357.784668,399.949219 C358.300947,398.197257 359.062658,396.646328 360.069824,395.296387 C361.076991,393.946445 362.168777,393.009117 363.345215,392.484375 L364.056152,394.464844 C362.820469,395.378911 361.855635,396.792308 361.161621,398.705078 C360.467607,400.617848 360.120605,402.852201 360.120605,405.408203 L360.120605,405.801758 C360.120605,408.366224 360.463375,410.60904 361.148926,412.530273 C361.834476,414.451507 362.803542,415.886063 364.056152,416.833984 L363.345215,418.776367 C362.194167,418.260089 361.121424,417.348151 360.126953,416.040527 C359.132482,414.732904 358.372887,413.224292 357.848145,411.514648 C357.323402,409.805004 357.044108,408.019215 357.010254,406.157227 L357.010254,405.484375 Z M366.138184,405.484375 C366.138184,403.546214 366.396319,401.701181 366.912598,399.949219 C367.428876,398.197257 368.190587,396.646328 369.197754,395.296387 C370.20492,393.946445 371.296706,393.009117 372.473145,392.484375 L373.184082,394.464844 C371.948399,395.378911 370.983565,396.792308 370.289551,398.705078 C369.595537,400.617848 369.248535,402.852201 369.248535,405.408203 L369.248535,405.801758 C369.248535,408.366224 369.591305,410.60904 370.276855,412.530273 C370.962406,414.451507 371.931472,415.886063 373.184082,416.833984 L372.473145,418.776367 C371.322097,418.260089 370.249354,417.348151 369.254883,416.040527 C368.260412,414.732904 367.500816,413.224292 366.976074,411.514648 C366.451332,409.805004 366.172038,408.019215 366.138184,406.157227 L366.138184,405.484375 Z" id="(((" fill="#FFFFFF" fill-rule="nonzero"></path>
        <rect id="Rectangle" fill="#FFFFFF" x="26" y="42" width="519" height="145" rx="12"></rect>
        <g id="Group" transform="translate(35.000000, 292.000000)">
            <rect id="Rectangle" fill="#375270" opacity="0.295014881" x="0" y="0" width="501" height="104"></rect>
            <path d="M285,16 L468,16 C475.179702,16 481,21.8202983 481,29 L481,75 C481,82.1797017 475.179702,88 468,88 L285,88 C277.820298,88 272,82.1797017 272,75 L272,29 C272,21.8202983 277.820298,16 285,16 Z M285,21 C280.581722,21 277,24.581722 277,29 L277,75 C277,79.418278 280.581722,83 285,83 L468,83 C472.418278,83 476,79.418278 476,75 L476,29 C476,24.581722 472.418278,21 468,21 L285,21 Z" id="Rectangle" fill="#00D3FF" fill-rule="nonzero"></path>
            <path d="M301.861475,64.5 L297.204736,64.5 L297.204736,46.5498047 L291.645654,48.2739258 L291.645654,44.4873047 L301.361963,41.0068359 L301.861475,41.0068359 L301.861475,64.5 Z M319.415088,52.2700195 L322.347705,47.0654297 L327.326709,47.0654297 L322.363818,55.6054688 L327.536182,64.5 L322.541064,64.5 L319.431201,59.0214844 L316.337451,64.5 L311.326221,64.5 L316.498584,55.6054688 L311.551807,47.0654297 L316.546924,47.0654297 L319.415088,52.2700195 Z M343.607373,58.3286133 C343.607373,57.4477495 343.362991,56.7468288 342.874219,56.2258301 C342.385447,55.7048314 341.555621,55.2241233 340.384717,54.7836914 C339.213813,54.3432595 338.204057,53.9055198 337.35542,53.470459 C336.506783,53.0353982 335.779007,52.5358915 335.17207,51.9719238 C334.565134,51.4079562 334.092482,50.7446327 333.754102,49.9819336 C333.415721,49.2192345 333.246533,48.3115287 333.246533,47.2587891 C333.246533,45.4433503 333.826606,43.9555722 334.986768,42.7954102 C336.14693,41.6352481 337.688418,40.9584971 339.611279,40.7651367 L339.611279,37.3168945 L342.189404,37.3168945 L342.189404,40.8134766 C344.090781,41.0820326 345.578559,41.874261 346.652783,43.1901855 C347.727007,44.5061101 348.264111,46.2114153 348.264111,48.3061523 L343.607373,48.3061523 C343.607373,47.0170834 343.341507,46.0529817 342.809766,45.4138184 C342.278025,44.774655 341.566362,44.4550781 340.674756,44.4550781 C339.793892,44.4550781 339.11177,44.7048315 338.628369,45.2043457 C338.144968,45.7038599 337.903271,46.3940386 337.903271,47.2749023 C337.903271,48.0913127 338.139597,48.7465796 338.612256,49.2407227 C339.084914,49.7348658 339.96308,50.2397435 341.246777,50.7553711 C342.530475,51.2709987 343.585885,51.7570778 344.413037,52.213623 C345.24019,52.6701683 345.938425,53.1857881 346.507764,53.760498 C347.077102,54.335208 347.512157,54.9904748 347.812939,55.7263184 C348.113722,56.4621619 348.264111,57.3188428 348.264111,58.2963867 C348.264111,60.1225677 347.694781,61.6049748 346.556104,62.7436523 C345.417426,63.8823299 343.849082,64.5537099 341.851025,64.7578125 L341.851025,67.9643555 L339.289014,67.9643555 L339.289014,64.7739258 C337.086854,64.5375965 335.381549,63.7561101 334.173047,62.4294434 C332.964545,61.1027766 332.360303,59.3383899 332.360303,57.1362305 L337.017041,57.1362305 C337.017041,58.4145572 337.320505,59.394772 337.927441,60.0769043 C338.534378,60.7590366 339.407172,61.1000977 340.54585,61.1000977 C341.491167,61.1000977 342.237741,60.8503443 342.785596,60.3508301 C343.33345,59.8513159 343.607373,59.1772503 343.607373,58.3286133 Z M370.45835,43.6494141 L361.386572,64.5 L356.472021,64.5 L365.559912,44.8095703 L353.893896,44.8095703 L353.893896,41.0390625 L370.45835,41.0390625 L370.45835,43.6494141 Z M373.874365,62.2119141 C373.874365,61.4706994 374.124119,60.8691429 374.623633,60.4072266 C375.123147,59.9453102 375.748873,59.7143555 376.50083,59.7143555 C377.263529,59.7143555 377.894626,59.9453102 378.394141,60.4072266 C378.893655,60.8691429 379.143408,61.4706994 379.143408,62.2119141 C379.143408,62.9423865 378.89634,63.5358864 378.402197,63.9924316 C377.908054,64.4489769 377.274271,64.6772461 376.50083,64.6772461 C375.738131,64.6772461 375.109719,64.4489769 374.615576,63.9924316 C374.121433,63.5358864 373.874365,62.9423865 373.874365,62.2119141 Z M396.803564,55.6699219 L399.462256,55.6699219 L399.462256,59.4243164 L396.803564,59.4243164 L396.803564,64.5 L392.146826,64.5 L392.146826,59.4243164 L382.527197,59.4243164 L382.317725,56.4916992 L392.098486,41.0390625 L396.803564,41.0390625 L396.803564,55.6699219 Z M386.95835,55.6699219 L392.146826,55.6699219 L392.146826,47.3876953 L391.840674,47.9194336 L386.95835,55.6699219 Z M412.852393,55.1220703 C411.638519,56.3144591 410.220565,56.9106445 408.598486,56.9106445 C406.525234,56.9106445 404.865582,56.1989817 403.619482,54.7756348 C402.373382,53.3522878 401.750342,51.432141 401.750342,49.0151367 C401.750342,47.4789962 402.086032,46.0690982 402.757422,44.7854004 C403.428812,43.5017026 404.366058,42.5026891 405.569189,41.7883301 C406.77232,41.073971 408.125823,40.7167969 409.629736,40.7167969 C411.176619,40.7167969 412.551605,41.1035118 413.754736,41.8769531 C414.957867,42.6503945 415.892428,43.7621998 416.558447,45.2124023 C417.224466,46.6626049 417.562842,48.3222563 417.573584,50.1914062 L417.573584,51.9155273 C417.573584,55.8257031 416.601426,58.897938 414.65708,61.1323242 C412.712734,63.3667104 409.957391,64.5590813 406.390967,64.7094727 L405.246924,64.7255859 L405.246924,60.8422852 L406.278174,60.8261719 C410.327999,60.6435538 412.519383,58.7422056 412.852393,55.1220703 Z M409.742529,53.3496094 C410.494486,53.3496094 411.141697,53.1562519 411.68418,52.7695312 C412.226663,52.3828106 412.637547,51.9155301 412.916846,51.3676758 L412.916846,49.4501953 C412.916846,47.8710859 412.616067,46.6464887 412.014502,45.7763672 C411.412936,44.9062456 410.60728,44.4711914 409.59751,44.4711914 C408.662935,44.4711914 407.894876,44.8981891 407.293311,45.7521973 C406.691745,46.6062054 406.390967,47.6777279 406.390967,48.9667969 C406.390967,50.2451236 406.683688,51.2951619 407.269141,52.1169434 C407.854593,52.9387248 408.679047,53.3496094 409.742529,53.3496094 Z M437.328467,64.8222656 C434.771813,64.8222656 432.690535,64.0380938 431.08457,62.4697266 C429.478605,60.9013593 428.675635,58.8120248 428.675635,56.2016602 L428.675635,55.7504883 C428.675635,53.999503 429.01401,52.4338448 429.690771,51.0534668 C430.367533,49.6730888 431.326263,48.6096229 432.566992,47.8630371 C433.807721,47.1164513 435.22299,46.7431641 436.812842,46.7431641 C439.197619,46.7431641 441.074798,47.4951097 442.444434,48.9990234 C443.814069,50.5029372 444.498877,52.6352401 444.498877,55.3959961 L444.498877,57.2973633 L433.396826,57.2973633 C433.547218,58.4360408 434.00107,59.3491177 434.758398,60.0366211 C435.515726,60.7241245 436.474457,61.0678711 437.634619,61.0678711 C439.428573,61.0678711 440.830415,60.4179752 441.840186,59.1181641 L444.128271,61.6801758 C443.430026,62.668462 442.484723,63.4392062 441.292334,63.9924316 C440.099945,64.5456571 438.778669,64.8222656 437.328467,64.8222656 Z M436.796729,50.5136719 C435.872896,50.5136719 435.123636,50.8251922 434.548926,51.4482422 C433.974216,52.0712922 433.6063,52.9628848 433.445166,54.1230469 L439.922705,54.1230469 L439.922705,53.7524414 C439.901221,52.7211863 439.621927,51.9235868 439.084814,51.3596191 C438.547702,50.7956515 437.785015,50.5136719 436.796729,50.5136719 Z M457.244482,64.5 C457.029638,64.0810526 456.873877,63.5600617 456.777197,62.9370117 C455.649262,64.1938539 454.182968,64.8222656 452.378271,64.8222656 C450.670255,64.8222656 449.254986,64.3281299 448.132422,63.3398438 C447.009858,62.3515576 446.448584,61.1054763 446.448584,59.6015625 C446.448584,57.753897 447.133392,56.3359424 448.503027,55.3476562 C449.872663,54.3593701 451.851891,53.8598633 454.440771,53.8491211 L456.583838,53.8491211 L456.583838,52.8500977 C456.583838,52.0444296 456.377053,51.3999048 455.963477,50.9165039 C455.5499,50.4331031 454.897319,50.1914062 454.005713,50.1914062 C453.221529,50.1914062 452.606545,50.3793927 452.160742,50.7553711 C451.714939,51.1313495 451.492041,51.6469694 451.492041,52.3022461 L446.835303,52.3022461 C446.835303,51.2924754 447.146823,50.3579145 447.769873,49.4985352 C448.392923,48.6391559 449.273774,47.9650903 450.412451,47.4763184 C451.551129,46.9875464 452.829436,46.7431641 454.247412,46.7431641 C456.39586,46.7431641 458.101166,47.2829536 459.363379,48.3625488 C460.625592,49.4421441 461.256689,50.9594629 461.256689,52.9145508 L461.256689,60.4716797 C461.267432,62.1259848 461.498386,63.3774372 461.949561,64.2260742 L461.949561,64.5 L457.244482,64.5 Z M453.393408,61.2612305 C454.080912,61.2612305 454.714694,61.1081558 455.294775,60.802002 C455.874856,60.4958481 456.30454,60.0849635 456.583838,59.5693359 L456.583838,56.5722656 L454.843604,56.5722656 C452.512537,56.5722656 451.271827,57.3779216 451.121436,58.9892578 L451.105322,59.2631836 C451.105322,59.8432646 451.309422,60.3212872 451.717627,60.6972656 C452.125832,61.0732441 452.68442,61.2612305 453.393408,61.2612305 Z" id="1x$7.49ea" fill="#00D3FF" fill-rule="nonzero"></path>
            <path d="M26.552002,63 L26.552002,39.5390625 L34.7697754,39.5390625 C37.6164693,39.5390625 39.7756274,40.0842231 41.2473145,41.1745605 C42.7190015,42.264898 43.454834,43.8627824 43.454834,45.9682617 C43.454834,47.1176815 43.1594268,48.1301226 42.5686035,49.0056152 C41.9777802,49.8811079 41.1560111,50.5229472 40.1032715,50.9311523 C41.3064025,51.2319351 42.2543911,51.8388626 42.9472656,52.7519531 C43.6401402,53.6650436 43.9865723,54.78222 43.9865723,56.1035156 C43.9865723,58.3593863 43.2668529,60.067377 41.8273926,61.2275391 C40.3879323,62.3877011 38.336195,62.9785155 35.6721191,63 L26.552002,63 Z M31.3859863,52.7841797 L31.3859863,59.1166992 L35.5270996,59.1166992 C36.6657772,59.1166992 37.5546843,58.8454617 38.1938477,58.3029785 C38.833011,57.7604953 39.1525879,57.0112352 39.1525879,56.0551758 C39.1525879,53.9067275 38.0407826,52.8164064 35.8171387,52.7841797 L31.3859863,52.7841797 Z M31.3859863,49.3681641 L34.9631348,49.3681641 C37.4016235,49.3251951 38.6208496,48.3530369 38.6208496,46.4516602 C38.6208496,45.3881783 38.3120148,44.6228051 37.6943359,44.1555176 C37.0766571,43.6882301 36.1018133,43.4545898 34.7697754,43.4545898 L31.3859863,43.4545898 L31.3859863,49.3681641 Z M47.6120605,63 L47.6120605,39.5390625 L55.829834,39.5390625 C58.6765279,39.5390625 60.835686,40.0842231 62.307373,41.1745605 C63.7790601,42.264898 64.5148926,43.8627824 64.5148926,45.9682617 C64.5148926,47.1176815 64.2194854,48.1301226 63.6286621,49.0056152 C63.0378388,49.8811079 62.2160697,50.5229472 61.1633301,50.9311523 C62.3664611,51.2319351 63.3144497,51.8388626 64.0073242,52.7519531 C64.7001988,53.6650436 65.0466309,54.78222 65.0466309,56.1035156 C65.0466309,58.3593863 64.3269115,60.067377 62.8874512,61.2275391 C61.4479908,62.3877011 59.3962536,62.9785155 56.7321777,63 L47.6120605,63 Z M52.4460449,52.7841797 L52.4460449,59.1166992 L56.5871582,59.1166992 C57.7258358,59.1166992 58.6147429,58.8454617 59.2539062,58.3029785 C59.8930696,57.7604953 60.2126465,57.0112352 60.2126465,56.0551758 C60.2126465,53.9067275 59.1008412,52.8164064 56.8771973,52.7841797 L52.4460449,52.7841797 Z M52.4460449,49.3681641 L56.0231934,49.3681641 C58.4616821,49.3251951 59.6809082,48.3530369 59.6809082,46.4516602 C59.6809082,45.3881783 59.3720734,44.6228051 58.7543945,44.1555176 C58.1367157,43.6882301 57.1618719,43.4545898 55.829834,43.4545898 L52.4460449,43.4545898 L52.4460449,49.3681641 Z M87.911377,51.8012695 C87.911377,53.9926867 87.5568883,55.8967204 86.8479004,57.5134277 C86.1389125,59.130135 85.1560121,60.4272412 83.8991699,61.4047852 L87.798584,64.4663086 L84.7209473,67.1894531 L79.7258301,63.1772461 C79.1564913,63.2739263 78.5656769,63.3222656 77.9533691,63.3222656 C76.0090235,63.3222656 74.2741775,62.8549851 72.7487793,61.9204102 C71.223381,60.9858352 70.0417522,59.6511317 69.2038574,57.9162598 C68.3659626,56.1813878 67.9416504,54.1860464 67.9309082,51.9301758 L67.9309082,50.7700195 C67.9309082,48.4604377 68.3471638,46.427499 69.1796875,44.6711426 C70.0122112,42.9147861 71.188469,41.5666551 72.7084961,40.626709 C74.2285232,39.6867629 75.9660547,39.2167969 77.9211426,39.2167969 C79.8762305,39.2167969 81.6137619,39.6867629 83.1337891,40.626709 C84.6538162,41.5666551 85.830074,42.9147861 86.6625977,44.6711426 C87.4951214,46.427499 87.911377,48.4550666 87.911377,50.7539062 L87.911377,51.8012695 Z M83.0129395,50.737793 C83.0129395,48.2778197 82.5725142,46.4086978 81.6916504,45.1303711 C80.8107866,43.8520444 79.5539632,43.2128906 77.9211426,43.2128906 C76.2990642,43.2128906 75.0476118,43.8439878 74.166748,45.1062012 C73.2858843,46.3684145 72.8400879,48.2187378 72.8293457,50.6572266 L72.8293457,51.8012695 C72.8293457,54.1967893 73.269771,56.0551692 74.1506348,57.3764648 C75.0314985,58.6977605 76.299064,59.3583984 77.9533691,59.3583984 C79.5754476,59.3583984 80.8215289,58.7219302 81.6916504,57.4489746 C82.5617719,56.176019 83.0021972,54.3203247 83.0129395,51.8818359 L83.0129395,50.737793 Z M118.091553,55.1850586 C117.908935,57.7094853 116.977059,59.6967701 115.295898,61.1469727 C113.614738,62.5971752 111.399184,63.3222656 108.64917,63.3222656 C105.641342,63.3222656 103.275399,62.3098246 101.55127,60.2849121 C99.8271398,58.2599996 98.9650879,55.4804864 98.9650879,51.9462891 L98.9650879,50.512207 C98.9650879,48.2563364 99.3625449,46.2690516 100.157471,44.550293 C100.952397,42.8315344 102.088372,41.512944 103.56543,40.5944824 C105.042488,39.6760208 106.758535,39.2167969 108.713623,39.2167969 C111.420668,39.2167969 113.60131,39.9418873 115.255615,41.3920898 C116.90992,42.8422924 117.865966,44.8779166 118.123779,47.4990234 L113.289795,47.4990234 C113.17163,45.9843674 112.750004,44.8859897 112.024902,44.2038574 C111.299801,43.5217251 110.196052,43.1806641 108.713623,43.1806641 C107.102287,43.1806641 105.896488,43.7580509 105.096191,44.9128418 C104.295894,46.0676327 103.88501,47.8588746 103.863525,50.2866211 L103.863525,52.059082 C103.863525,54.594251 104.247555,56.4472598 105.015625,57.6181641 C105.783695,58.7890684 106.994865,59.3745117 108.64917,59.3745117 C110.142341,59.3745117 111.256832,59.0334507 111.992676,58.3513184 C112.728519,57.669186 113.150146,56.6137767 113.257568,55.1850586 L118.091553,55.1850586 Z M125.503662,47.4667969 C126.73902,45.9843676 128.29125,45.2431641 130.1604,45.2431641 C133.941669,45.2431641 135.859131,47.4399194 135.912842,51.8334961 L135.912842,63 L131.256104,63 L131.256104,51.9624023 C131.256104,50.9633739 131.041262,50.2248559 130.611572,49.7468262 C130.181883,49.2687964 129.467534,49.0297852 128.468506,49.0297852 C127.104241,49.0297852 126.11597,49.5561471 125.503662,50.6088867 L125.503662,63 L120.846924,63 L120.846924,38.25 L125.503662,38.25 L125.503662,47.4667969 Z M144.340088,63 L139.667236,63 L139.667236,45.5654297 L144.340088,45.5654297 L144.340088,63 Z M139.393311,41.0537109 C139.393311,40.3554653 139.626951,39.780764 140.094238,39.3295898 C140.561526,38.8784157 141.197994,38.652832 142.003662,38.652832 C142.798588,38.652832 143.432371,38.8784157 143.905029,39.3295898 C144.377688,39.780764 144.614014,40.3554653 144.614014,41.0537109 C144.614014,41.7626989 144.375002,42.3427712 143.896973,42.7939453 C143.418943,43.2451194 142.787846,43.4707031 142.003662,43.4707031 C141.219479,43.4707031 140.588381,43.2451194 140.110352,42.7939453 C139.632322,42.3427712 139.393311,41.7626989 139.393311,41.0537109 Z M155.426025,59.5678711 C156.285405,59.5678711 156.98364,59.3315453 157.520752,58.8588867 C158.057864,58.3862281 158.337158,57.7578164 158.358643,56.9736328 L162.725342,56.9736328 C162.7146,58.1552793 162.392337,59.2375439 161.758545,60.220459 C161.124753,61.2033741 160.25733,61.9660617 159.15625,62.5085449 C158.05517,63.0510281 156.83863,63.3222656 155.506592,63.3222656 C153.014392,63.3222656 151.048591,62.5300372 149.609131,60.9455566 C148.169671,59.3610761 147.449951,57.1723772 147.449951,54.3793945 L147.449951,54.0732422 C147.449951,51.3876819 148.164299,49.2446369 149.593018,47.644043 C151.021736,46.043449 152.982165,45.2431641 155.474365,45.2431641 C157.65504,45.2431641 159.403314,45.8635192 160.719238,47.104248 C162.035163,48.3449769 162.703857,49.9965717 162.725342,52.059082 L158.358643,52.059082 C158.337158,51.1567338 158.057864,50.4235868 157.520752,49.8596191 C156.98364,49.2956515 156.274663,49.0136719 155.393799,49.0136719 C154.308832,49.0136719 153.489749,49.4084433 152.936523,50.197998 C152.383298,50.9875528 152.106689,52.2685458 152.106689,54.0410156 L152.106689,54.5244141 C152.106689,56.3183683 152.380612,57.607418 152.928467,58.3916016 C153.476321,59.1757852 154.308832,59.5678711 155.426025,59.5678711 Z M171.716553,56.0068359 L170.040771,57.6826172 L170.040771,63 L165.384033,63 L165.384033,38.25 L170.040771,38.25 L170.040771,51.9624023 L170.943115,50.8022461 L175.406494,45.5654297 L180.997803,45.5654297 L174.69751,52.8325195 L181.545654,63 L176.196045,63 L171.716553,56.0068359 Z M191.036377,63.3222656 C188.479724,63.3222656 186.398446,62.5380938 184.79248,60.9697266 C183.186515,59.4013593 182.383545,57.3120248 182.383545,54.7016602 L182.383545,54.2504883 C182.383545,52.499503 182.72192,50.9338448 183.398682,49.5534668 C184.075443,48.1730888 185.034173,47.1096229 186.274902,46.3630371 C187.515631,45.6164513 188.9309,45.2431641 190.520752,45.2431641 C192.90553,45.2431641 194.782708,45.9951097 196.152344,47.4990234 C197.52198,49.0029372 198.206787,51.1352401 198.206787,53.8959961 L198.206787,55.7973633 L187.104736,55.7973633 C187.255128,56.9360408 187.708981,57.8491177 188.466309,58.5366211 C189.223637,59.2241245 190.182367,59.5678711 191.342529,59.5678711 C193.136484,59.5678711 194.538325,58.9179752 195.548096,57.6181641 L197.836182,60.1801758 C197.137936,61.168462 196.192633,61.9392062 195.000244,62.4924316 C193.807855,63.0456571 192.48658,63.3222656 191.036377,63.3222656 Z M190.504639,49.0136719 C189.580806,49.0136719 188.831546,49.3251922 188.256836,49.9482422 C187.682126,50.5712922 187.31421,51.4628848 187.153076,52.6230469 L193.630615,52.6230469 L193.630615,52.2524414 C193.609131,51.2211863 193.329837,50.4235868 192.792725,49.8596191 C192.255613,49.2956515 191.492925,49.0136719 190.504639,49.0136719 Z M205.135498,45.5654297 L205.280518,47.5795898 C206.526618,46.0219649 208.197011,45.2431641 210.291748,45.2431641 C212.139414,45.2431641 213.5144,45.7856391 214.416748,46.8706055 C215.319096,47.9555718 215.781006,49.5776259 215.80249,51.7368164 L215.80249,63 L211.145752,63 L211.145752,51.8496094 C211.145752,50.8613232 210.93091,50.1442893 210.501221,49.6984863 C210.071531,49.2526833 209.357183,49.0297852 208.358154,49.0297852 C207.047601,49.0297852 206.064701,49.5883733 205.409424,50.7055664 L205.409424,63 L200.752686,63 L200.752686,45.5654297 L205.135498,45.5654297 Z" id="BBQChicken" fill="#00D3FF" fill-rule="nonzero"></path>
        </g>
        <polygon id="Line-2" fill="#FFFFFF" fill-rule="nonzero" points="411 230.776337 411 176 419 176 419 230.776337 437 230.776337 415 293 393 230.776337 411 230.776337"></polygon>
        <g id="finger" transform="translate(363.000000, 350.000000)" fill-rule="nonzero">
            <polygon id="Path-4" fill="#F0EBEB" points="25 33.5 17 42.5 14 52.5 17 67.5 31 80.5 41 83.5 51 78.5 68 52.5 63 46.5 61 39.5 56 36.5 53 29.5 49 27.5 55 14.5 50 11.5 41 22.5 33 34.5"></polygon>
            <g id="pointer" fill="#FFFFFF">
                <path d="M64,34 C63,34 61.5,34 61,34 C61,33 60,31 59,30 C58,29 56,28 53.5,28 C52.5,28 51.5,28 50.5,28.5 C50,27.5 49.5,27 49,26 C48,25 46.5,24 43.5,24 C42.5,24 41.5,24 41,24.5 L41,16 C41,13 39,9 34,9 C32,9 30,10 28.5,11 C26,14 26,18 26,18 L26,39.5 C23,40 20.5,41 19,42.5 C16,46 16,50.5 16,56.5 C16,57.5 16,59 16,60 C16,67 19.5,70.5 23,74 L24.5,76 C31,82 36.5,84 50,84 C64.5,84 71,76 71,58.5 L71,46 C71,42.5 70,35.5 64,34 Z M66,46 L66,59 C66,76 59.5,79.5 50,79.5 C38,79.5 33.5,78 28.5,73 C28,72.5 27.5,72 26.5,71 C23,67 21,65 21,60 C21,59 21,57.5 21,56.5 C21,51.5 21,48 22.5,46 C23,45.5 24.5,45 26,45 L26,47.5 L24.5,55 C24.5,55.5 24.5,55.5 25,56 C25.5,56.5 26,56 26,56 L31,50 C31,49.5 31,49 31,49 L31,18 C31,17.5 31,15.5 32,14.5 C32.5,14.5 33,14 34,14 C35.5,14 36,15.5 36,16 L36,31.5 C36,31.5 36,31.5 36,31.5 L36,37.5 C36,39 37,40.5 38.5,40.5 C40,40.5 41,39 41,38 L41,31.5 C41,31.5 41,31.5 41,31.5 C41,31 41.5,29 43.5,29 C45,29 46,29.5 46,31 L46,37.5 C46,39 47,40.5 48.5,40.5 C50,40.5 51,39 51,38 L51,34.5 C51,34 51.5,33 53.5,33 C54.5,33 55,33.5 55,33.5 C56,34 56,35.5 56,35.5 L56,39.5 C56,41 57,42 58,42 C59.5,42 60.5,41.5 60.5,40 C60.5,39.5 61,39 61.5,38.5 C61.5,38.5 62,38.5 62.5,38.5 C65.5,39.5 66,44.5 66,46 C66,45.5 66,45.5 66,46 L66,46 Z" id="Shape" transform="translate(43.500000, 46.500000) rotate(31.000000) translate(-43.500000, -46.500000) "></path>
            </g>
        </g>
        <g id="finger" transform="translate(378.000000, 350.000000)" fill-rule="nonzero">
            <polygon id="Path-4" fill="#F0EBEB" points="25 33.5 17 42.5 14 52.5 17 67.5 31 80.5 41 83.5 51 78.5 68 52.5 63 46.5 61 39.5 56 36.5 53 29.5 49 27.5 55 14.5 50 11.5 41 22.5 33 34.5"></polygon>
            <g id="pointer" fill="#FFFFFF">
                <path d="M64,34 C63,34 61.5,34 61,34 C61,33 60,31 59,30 C58,29 56,28 53.5,28 C52.5,28 51.5,28 50.5,28.5 C50,27.5 49.5,27 49,26 C48,25 46.5,24 43.5,24 C42.5,24 41.5,24 41,24.5 L41,16 C41,13 39,9 34,9 C32,9 30,10 28.5,11 C26,14 26,18 26,18 L26,39.5 C23,40 20.5,41 19,42.5 C16,46 16,50.5 16,56.5 C16,57.5 16,59 16,60 C16,67 19.5,70.5 23,74 L24.5,76 C31,82 36.5,84 50,84 C64.5,84 71,76 71,58.5 L71,46 C71,42.5 70,35.5 64,34 Z M66,46 L66,59 C66,76 59.5,79.5 50,79.5 C38,79.5 33.5,78 28.5,73 C28,72.5 27.5,72 26.5,71 C23,67 21,65 21,60 C21,59 21,57.5 21,56.5 C21,51.5 21,48 22.5,46 C23,45.5 24.5,45 26,45 L26,47.5 L24.5,55 C24.5,55.5 24.5,55.5 25,56 C25.5,56.5 26,56 26,56 L31,50 C31,49.5 31,49 31,49 L31,18 C31,17.5 31,15.5 32,14.5 C32.5,14.5 33,14 34,14 C35.5,14 36,15.5 36,16 L36,31.5 C36,31.5 36,31.5 36,31.5 L36,37.5 C36,39 37,40.5 38.5,40.5 C40,40.5 41,39 41,38 L41,31.5 C41,31.5 41,31.5 41,31.5 C41,31 41.5,29 43.5,29 C45,29 46,29.5 46,31 L46,37.5 C46,39 47,40.5 48.5,40.5 C50,40.5 51,39 51,38 L51,34.5 C51,34 51.5,33 53.5,33 C54.5,33 55,33.5 55,33.5 C56,34 56,35.5 56,35.5 L56,39.5 C56,41 57,42 58,42 C59.5,42 60.5,41.5 60.5,40 C60.5,39.5 61,39 61.5,38.5 C61.5,38.5 62,38.5 62.5,38.5 C65.5,39.5 66,44.5 66,46 C66,45.5 66,45.5 66,46 L66,46 Z" id="Shape" transform="translate(43.500000, 46.500000) rotate(31.000000) translate(-43.500000, -46.500000) "></path>
            </g>
        </g>
        <g id="finger" transform="translate(393.000000, 350.000000)" fill-rule="nonzero">
            <polygon id="Path-4" fill="#F0EBEB" points="25 33.5 17 42.5 14 52.5 17 67.5 31 80.5 41 83.5 51 78.5 68 52.5 63 46.5 61 39.5 56 36.5 53 29.5 49 27.5 55 14.5 50 11.5 41 22.5 33 34.5"></polygon>
            <g id="pointer" fill="#FFFFFF">
                <path d="M64,34 C63,34 61.5,34 61,34 C61,33 60,31 59,30 C58,29 56,28 53.5,28 C52.5,28 51.5,28 50.5,28.5 C50,27.5 49.5,27 49,26 C48,25 46.5,24 43.5,24 C42.5,24 41.5,24 41,24.5 L41,16 C41,13 39,9 34,9 C32,9 30,10 28.5,11 C26,14 26,18 26,18 L26,39.5 C23,40 20.5,41 19,42.5 C16,46 16,50.5 16,56.5 C16,57.5 16,59 16,60 C16,67 19.5,70.5 23,74 L24.5,76 C31,82 36.5,84 50,84 C64.5,84 71,76 71,58.5 L71,46 C71,42.5 70,35.5 64,34 Z M66,46 L66,59 C66,76 59.5,79.5 50,79.5 C38,79.5 33.5,78 28.5,73 C28,72.5 27.5,72 26.5,71 C23,67 21,65 21,60 C21,59 21,57.5 21,56.5 C21,51.5 21,48 22.5,46 C23,45.5 24.5,45 26,45 L26,47.5 L24.5,55 C24.5,55.5 24.5,55.5 25,56 C25.5,56.5 26,56 26,56 L31,50 C31,49.5 31,49 31,49 L31,18 C31,17.5 31,15.5 32,14.5 C32.5,14.5 33,14 34,14 C35.5,14 36,15.5 36,16 L36,31.5 C36,31.5 36,31.5 36,31.5 L36,37.5 C36,39 37,40.5 38.5,40.5 C40,40.5 41,39 41,38 L41,31.5 C41,31.5 41,31.5 41,31.5 C41,31 41.5,29 43.5,29 C45,29 46,29.5 46,31 L46,37.5 C46,39 47,40.5 48.5,40.5 C50,40.5 51,39 51,38 L51,34.5 C51,34 51.5,33 53.5,33 C54.5,33 55,33.5 55,33.5 C56,34 56,35.5 56,35.5 L56,39.5 C56,41 57,42 58,42 C59.5,42 60.5,41.5 60.5,40 C60.5,39.5 61,39 61.5,38.5 C61.5,38.5 62,38.5 62.5,38.5 C65.5,39.5 66,44.5 66,46 C66,45.5 66,45.5 66,46 L66,46 Z" id="Shape" transform="translate(43.500000, 46.500000) rotate(31.000000) translate(-43.500000, -46.500000) "></path>
            </g>
        </g>
        <g id="QUICKLY-INCREASE-AN" transform="translate(44.775635, 64.750000)" fill-rule="nonzero">
            <path d="M29.2375488,13.5512695 C29.2375488,15.7426867 28.8830602,17.6467204 28.1740723,19.2634277 C27.4650843,20.880135 26.482184,22.1772412 25.2253418,23.1547852 L29.1247559,26.2163086 L26.0471191,28.9394531 L21.052002,24.9272461 C20.4826632,25.0239263 19.8918488,25.0722656 19.279541,25.0722656 C17.3351954,25.0722656 15.6003494,24.6049851 14.0749512,23.6704102 C12.5495529,22.7358352 11.3679241,21.4011317 10.5300293,19.6662598 C9.69213448,17.9313878 9.26782232,15.9360464 9.25708008,13.6801758 L9.25708008,12.5200195 C9.25708008,10.2104377 9.67333568,8.17749902 10.5058594,6.42114258 C11.3383831,4.66478614 12.5146408,3.31665509 14.034668,2.37670898 C15.5546951,1.43676288 17.2922266,0.966796875 19.2473145,0.966796875 C21.2024024,0.966796875 22.9399338,1.43676288 24.4599609,2.37670898 C25.9799881,3.31665509 27.1562458,4.66478614 27.9887695,6.42114258 C28.8212932,8.17749902 29.2375488,10.2050666 29.2375488,12.5039062 L29.2375488,13.5512695 Z M24.3391113,12.487793 C24.3391113,10.0278197 23.898686,8.1586978 23.0178223,6.88037109 C22.1369585,5.60204439 20.8801351,4.96289062 19.2473145,4.96289062 C17.625236,4.96289062 16.3737837,5.59398783 15.4929199,6.85620117 C14.6120561,8.11841451 14.1662598,9.96873781 14.1555176,12.4072266 L14.1555176,13.5512695 C14.1555176,15.9467893 14.5959429,17.8051692 15.4768066,19.1264648 C16.3576704,20.4477605 17.6252359,21.1083984 19.279541,21.1083984 C20.9016194,21.1083984 22.1477007,20.4719302 23.0178223,19.1989746 C23.8879438,17.926019 24.3283691,16.0703247 24.3391113,13.6318359 L24.3391113,12.487793 Z M50.5393066,1.2890625 L50.5393066,16.7416992 C50.5393066,19.3090949 49.7363362,21.339348 48.1303711,22.8325195 C46.524406,24.3256911 44.3303362,25.0722656 41.5480957,25.0722656 C38.8088242,25.0722656 36.633553,24.3471752 35.0222168,22.8969727 C33.4108806,21.4467701 32.5891115,19.4541142 32.5568848,16.9189453 L32.5568848,1.2890625 L37.3908691,1.2890625 L37.3908691,16.7739258 C37.3908691,18.3100663 37.7587854,19.4299281 38.4946289,20.1335449 C39.2304724,20.8371617 40.2482845,21.1889648 41.5480957,21.1889648 C44.2658827,21.1889648 45.64624,19.7602682 45.689209,16.902832 L45.689209,1.2890625 L50.5393066,1.2890625 Z M59.6433105,24.75 L54.8093262,24.75 L54.8093262,1.2890625 L59.6433105,1.2890625 L59.6433105,24.75 Z M82.5402832,16.9350586 C82.3576651,19.4594853 81.4257897,21.4467701 79.7446289,22.8969727 C78.0634682,24.3471752 75.8479141,25.0722656 73.0979004,25.0722656 C70.0900729,25.0722656 67.7241297,24.0598246 66,22.0349121 C64.2758703,20.0099996 63.4138184,17.2304864 63.4138184,13.6962891 L63.4138184,12.262207 C63.4138184,10.0063364 63.8112753,8.01905156 64.6062012,6.30029297 C65.401127,4.58153437 66.537102,3.26294405 68.0141602,2.34448242 C69.4912183,1.4260208 71.2072656,0.966796875 73.1623535,0.966796875 C75.8693983,0.966796875 78.0500406,1.69188728 79.7043457,3.14208984 C81.3586508,4.59229241 82.314696,6.62791658 82.5725098,9.24902344 L77.7385254,9.24902344 C77.6203607,7.73436743 77.1987341,6.63598974 76.4736328,5.95385742 C75.7485315,5.2717251 74.6447828,4.93066406 73.1623535,4.93066406 C71.5510173,4.93066406 70.3452188,5.50805087 69.5449219,6.6628418 C68.7446249,7.81763273 68.3337403,9.60887458 68.3122559,12.0366211 L68.3122559,13.809082 C68.3122559,16.344251 68.6962852,18.1972598 69.4643555,19.3681641 C70.2324257,20.5390684 71.4435952,21.1245117 73.0979004,21.1245117 C74.5910719,21.1245117 75.7055627,20.7834507 76.4414062,20.1013184 C77.1772498,19.419186 77.5988764,18.3637767 77.7062988,16.9350586 L82.5402832,16.9350586 Z M93.0622559,15.3398438 L90.548584,18.046875 L90.548584,24.75 L85.7145996,24.75 L85.7145996,1.2890625 L90.548584,1.2890625 L90.548584,11.9238281 L92.6755371,9.00732422 L98.6535645,1.2890625 L104.599365,1.2890625 L96.2687988,11.7143555 L104.841064,24.75 L99.088623,24.75 L93.0622559,15.3398438 Z M111.49585,20.8666992 L121.76001,20.8666992 L121.76001,24.75 L106.661865,24.75 L106.661865,1.2890625 L111.49585,1.2890625 L111.49585,20.8666992 Z M132.620361,11.859375 L137.502686,1.2890625 L142.787842,1.2890625 L135.085693,16.2421875 L135.085693,24.75 L130.171143,24.75 L130.171143,16.2421875 L122.468994,1.2890625 L127.770264,1.2890625 L132.620361,11.859375 Z M158.288818,24.75 L153.454834,24.75 L153.454834,1.2890625 L158.288818,1.2890625 L158.288818,24.75 Z M181.846436,24.75 L177.012451,24.75 L167.602295,9.31347656 L167.602295,24.75 L162.768311,24.75 L162.768311,1.2890625 L167.602295,1.2890625 L177.028564,16.7578125 L177.028564,1.2890625 L181.846436,1.2890625 L181.846436,24.75 Z M204.485596,16.9350586 C204.302978,19.4594853 203.371102,21.4467701 201.689941,22.8969727 C200.008781,24.3471752 197.793227,25.0722656 195.043213,25.0722656 C192.035385,25.0722656 189.669442,24.0598246 187.945312,22.0349121 C186.221183,20.0099996 185.359131,17.2304864 185.359131,13.6962891 L185.359131,12.262207 C185.359131,10.0063364 185.756588,8.01905156 186.551514,6.30029297 C187.34644,4.58153437 188.482414,3.26294405 189.959473,2.34448242 C191.436531,1.4260208 193.152578,0.966796875 195.107666,0.966796875 C197.814711,0.966796875 199.995353,1.69188728 201.649658,3.14208984 C203.303963,4.59229241 204.260008,6.62791658 204.517822,9.24902344 L199.683838,9.24902344 C199.565673,7.73436743 199.144047,6.63598974 198.418945,5.95385742 C197.693844,5.2717251 196.590095,4.93066406 195.107666,4.93066406 C193.49633,4.93066406 192.290531,5.50805087 191.490234,6.6628418 C190.689937,7.81763273 190.279053,9.60887458 190.257568,12.0366211 L190.257568,13.809082 C190.257568,16.344251 190.641598,18.1972598 191.409668,19.3681641 C192.177738,20.5390684 193.388908,21.1245117 195.043213,21.1245117 C196.536384,21.1245117 197.650875,20.7834507 198.386719,20.1013184 C199.122562,19.419186 199.544189,18.3637767 199.651611,16.9350586 L204.485596,16.9350586 Z M216.344971,16.1616211 L212.493896,16.1616211 L212.493896,24.75 L207.659912,24.75 L207.659912,1.2890625 L216.377197,1.2890625 C219.148695,1.2890625 221.286369,1.9067321 222.790283,3.14208984 C224.294197,4.37744758 225.046143,6.1230356 225.046143,8.37890625 C225.046143,9.97950019 224.69971,11.3142036 224.006836,12.3830566 C223.313961,13.4519096 222.263923,14.3032195 220.856689,14.9370117 L225.932373,24.5244141 L225.932373,24.75 L220.743896,24.75 L216.344971,16.1616211 Z M212.493896,12.2460938 L216.393311,12.2460938 C217.607184,12.2460938 218.547116,11.9372589 219.213135,11.3195801 C219.879154,10.7019012 220.212158,9.85059136 220.212158,8.765625 C220.212158,7.65917416 219.897952,6.78906567 219.269531,6.15527344 C218.64111,5.52148121 217.677008,5.20458984 216.377197,5.20458984 L212.493896,5.20458984 L212.493896,12.2460938 Z M242.835205,14.5825195 L233.553955,14.5825195 L233.553955,20.8666992 L244.446533,20.8666992 L244.446533,24.75 L228.719971,24.75 L228.719971,1.2890625 L244.414307,1.2890625 L244.414307,5.20458984 L233.553955,5.20458984 L233.553955,10.7958984 L242.835205,10.7958984 L242.835205,14.5825195 Z M260.527588,19.9160156 L252.052002,19.9160156 L250.440674,24.75 L245.300537,24.75 L254.033936,1.2890625 L258.513428,1.2890625 L267.295166,24.75 L262.155029,24.75 L260.527588,19.9160156 Z M253.357178,16.0004883 L259.222412,16.0004883 L256.273682,7.21875 L253.357178,16.0004883 Z M281.6521,18.5947266 C281.6521,17.6816361 281.329837,16.9807153 280.685303,16.4919434 C280.040768,16.0031714 278.880624,15.4875515 277.204834,14.9450684 C275.529044,14.4025852 274.202397,13.8681667 273.224854,13.3417969 C270.560778,11.9023366 269.22876,9.9633911 269.22876,7.52490234 C269.22876,6.25731788 269.585934,5.12671395 270.300293,4.13305664 C271.014652,3.13939933 272.040521,2.36328404 273.37793,1.8046875 C274.715339,1.24609096 276.216544,0.966796875 277.881592,0.966796875 C279.557381,0.966796875 281.050531,1.27026064 282.361084,1.87719727 C283.671637,2.48413389 284.689449,3.34081478 285.414551,4.44726562 C286.139652,5.55371647 286.502197,6.81053984 286.502197,8.21777344 L281.668213,8.21777344 C281.668213,7.14354932 281.329837,6.30835259 280.653076,5.7121582 C279.976315,5.11596382 279.025641,4.81787109 277.801025,4.81787109 C276.619379,4.81787109 275.700931,5.06762446 275.045654,5.56713867 C274.390378,6.06665289 274.062744,6.72460529 274.062744,7.54101562 C274.062744,8.30371475 274.446774,8.94286852 275.214844,9.45849609 C275.982914,9.97412367 277.113518,10.4575173 278.606689,10.9086914 C281.356703,11.735844 283.360101,12.7617126 284.616943,13.9863281 C285.873786,15.2109436 286.502197,16.736319 286.502197,18.5625 C286.502197,20.5927836 285.734139,22.185297 284.197998,23.3400879 C282.661858,24.4948788 280.594007,25.0722656 277.994385,25.0722656 C276.189688,25.0722656 274.54615,24.7419467 273.063721,24.0812988 C271.581291,23.420651 270.450687,22.5156307 269.671875,21.3662109 C268.893063,20.2167911 268.503662,18.8847732 268.503662,17.3701172 L273.35376,17.3701172 C273.35376,19.9589973 274.900619,21.253418 277.994385,21.253418 C279.143805,21.253418 280.040768,21.0197777 280.685303,20.5524902 C281.329837,20.0852027 281.6521,19.4326214 281.6521,18.5947266 Z M303.888428,14.5825195 L294.607178,14.5825195 L294.607178,20.8666992 L305.499756,20.8666992 L305.499756,24.75 L289.773193,24.75 L289.773193,1.2890625 L305.467529,1.2890625 L305.467529,5.20458984 L294.607178,5.20458984 L294.607178,10.7958984 L303.888428,10.7958984 L303.888428,14.5825195 Z M329.798584,19.9160156 L321.322998,19.9160156 L319.71167,24.75 L314.571533,24.75 L323.304932,1.2890625 L327.784424,1.2890625 L336.566162,24.75 L331.426025,24.75 L329.798584,19.9160156 Z M322.628174,16.0004883 L328.493408,16.0004883 L325.544678,7.21875 L322.628174,16.0004883 Z M357.835693,24.75 L353.001709,24.75 L343.591553,9.31347656 L343.591553,24.75 L338.757568,24.75 L338.757568,1.2890625 L343.591553,1.2890625 L353.017822,16.7578125 L353.017822,1.2890625 L357.835693,1.2890625 L357.835693,24.75 Z M375.415283,24.75 L370.581299,24.75 L370.581299,1.2890625 L375.415283,1.2890625 L375.415283,24.75 Z M397.554932,5.20458984 L390.368408,5.20458984 L390.368408,24.75 L385.534424,24.75 L385.534424,5.20458984 L378.44458,5.20458984 L378.44458,1.2890625 L397.554932,1.2890625 L397.554932,5.20458984 Z M414.425537,14.5825195 L405.144287,14.5825195 L405.144287,20.8666992 L416.036865,20.8666992 L416.036865,24.75 L400.310303,24.75 L400.310303,1.2890625 L416.004639,1.2890625 L416.004639,5.20458984 L405.144287,5.20458984 L405.144287,10.7958984 L414.425537,10.7958984 L414.425537,14.5825195 Z M425.189209,1.2890625 L431.215576,18.3046875 L437.209717,1.2890625 L443.55835,1.2890625 L443.55835,24.75 L438.708252,24.75 L438.708252,18.3369141 L439.19165,7.26708984 L432.859131,24.75 L429.539795,24.75 L423.223389,7.28320312 L423.706787,18.3369141 L423.706787,24.75 L418.872803,24.75 L418.872803,1.2890625 L425.189209,1.2890625 Z M448.811279,8.49169922 L446.619873,7.21875 C447.543706,5.76854744 448.021728,4.27002727 448.053955,2.72314453 L448.053955,0 L451.76001,0 L451.76001,2.49755859 C451.76001,3.4643603 451.491458,4.51171311 450.954346,5.63964844 C450.417234,6.76758376 449.702885,7.71825785 448.811279,8.49169922 Z M467.518799,18.5947266 C467.518799,17.6816361 467.196536,16.9807153 466.552002,16.4919434 C465.907467,16.0031714 464.747323,15.4875515 463.071533,14.9450684 C461.395744,14.4025852 460.069097,13.8681667 459.091553,13.3417969 C456.427477,11.9023366 455.095459,9.9633911 455.095459,7.52490234 C455.095459,6.25731788 455.452633,5.12671395 456.166992,4.13305664 C456.881351,3.13939933 457.90722,2.36328404 459.244629,1.8046875 C460.582038,1.24609096 462.083244,0.966796875 463.748291,0.966796875 C465.424081,0.966796875 466.91723,1.27026064 468.227783,1.87719727 C469.538337,2.48413389 470.556149,3.34081478 471.28125,4.44726562 C472.006351,5.55371647 472.368896,6.81053984 472.368896,8.21777344 L467.534912,8.21777344 C467.534912,7.14354932 467.196537,6.30835259 466.519775,5.7121582 C465.843014,5.11596382 464.89234,4.81787109 463.667725,4.81787109 C462.486078,4.81787109 461.56763,5.06762446 460.912354,5.56713867 C460.257077,6.06665289 459.929443,6.72460529 459.929443,7.54101562 C459.929443,8.30371475 460.313473,8.94286852 461.081543,9.45849609 C461.849613,9.97412367 462.980217,10.4575173 464.473389,10.9086914 C467.223402,11.735844 469.2268,12.7617126 470.483643,13.9863281 C471.740485,15.2109436 472.368896,16.736319 472.368896,18.5625 C472.368896,20.5927836 471.600838,22.185297 470.064697,23.3400879 C468.528557,24.4948788 466.460706,25.0722656 463.861084,25.0722656 C462.056387,25.0722656 460.412849,24.7419467 458.93042,24.0812988 C457.447991,23.420651 456.317387,22.5156307 455.538574,21.3662109 C454.759762,20.2167911 454.370361,18.8847732 454.370361,17.3701172 L459.220459,17.3701172 C459.220459,19.9589973 460.767319,21.253418 463.861084,21.253418 C465.010504,21.253418 465.907467,21.0197777 466.552002,20.5524902 C467.196536,20.0852027 467.518799,19.4326214 467.518799,18.5947266 Z M19.9804688,52.5512695 C19.9804688,54.7426867 19.6259801,56.6467204 18.9169922,58.2634277 C18.2080043,59.880135 17.2251039,61.1772412 15.9682617,62.1547852 L19.8676758,65.2163086 L16.7900391,67.9394531 L11.7949219,63.9272461 C11.2255831,64.0239263 10.6347687,64.0722656 10.0224609,64.0722656 C8.07811528,64.0722656 6.34326935,63.6049851 4.81787109,62.6704102 C3.29247284,61.7358352 2.11084403,60.4011317 1.27294922,58.6662598 C0.435054404,56.9313878 0.0107422412,54.9360464 0,52.6801758 L0,51.5200195 C0,49.2104377 0.416255603,47.177499 1.2487793,45.4211426 C2.08130299,43.6647861 3.25756076,42.3166551 4.77758789,41.376709 C6.29761502,40.4367629 8.03514647,39.9667969 9.99023438,39.9667969 C11.9453223,39.9667969 13.6828537,40.4367629 15.2028809,41.376709 C16.722908,42.3166551 17.8991658,43.6647861 18.7316895,45.4211426 C19.5642131,47.177499 19.9804688,49.2050666 19.9804688,51.5039062 L19.9804688,52.5512695 Z M15.0820312,51.487793 C15.0820312,49.0278197 14.641606,47.1586978 13.7607422,45.8803711 C12.8798784,44.6020444 11.623055,43.9628906 9.99023438,43.9628906 C8.36815595,43.9628906 7.11670362,44.5939878 6.23583984,45.8562012 C5.35497606,47.1184145 4.90917974,48.9687378 4.8984375,51.4072266 L4.8984375,52.5512695 C4.8984375,54.9467893 5.33886278,56.8051692 6.21972656,58.1264648 C7.10059034,59.4477605 8.36815579,60.1083984 10.0224609,60.1083984 C11.6445394,60.1083984 12.8906206,59.4719302 13.7607422,58.1989746 C14.6308637,56.926019 15.071289,55.0703247 15.0820312,52.6318359 L15.0820312,51.487793 Z M41.2822266,40.2890625 L41.2822266,55.7416992 C41.2822266,58.3090949 40.4792561,60.339348 38.873291,61.8325195 C37.267326,63.3256911 35.0732561,64.0722656 32.2910156,64.0722656 C29.5517441,64.0722656 27.3764729,63.3471752 25.7651367,61.8969727 C24.1538005,60.4467701 23.3320314,58.4541142 23.2998047,55.9189453 L23.2998047,40.2890625 L28.1337891,40.2890625 L28.1337891,55.7739258 C28.1337891,57.3100663 28.5017053,58.4299281 29.2375488,59.1335449 C29.9733924,59.8371617 30.9912044,60.1889648 32.2910156,60.1889648 C35.0088027,60.1889648 36.3891599,58.7602682 36.4321289,55.902832 L36.4321289,40.2890625 L41.2822266,40.2890625 Z M58.4912109,58.9160156 L50.015625,58.9160156 L48.4042969,63.75 L43.2641602,63.75 L51.9975586,40.2890625 L56.4770508,40.2890625 L65.2587891,63.75 L60.1186523,63.75 L58.4912109,58.9160156 Z M51.3208008,55.0004883 L57.1860352,55.0004883 L54.2373047,46.21875 L51.3208008,55.0004883 Z M86.5283203,63.75 L81.6943359,63.75 L72.2841797,48.3134766 L72.2841797,63.75 L67.4501953,63.75 L67.4501953,40.2890625 L72.2841797,40.2890625 L81.7104492,55.7578125 L81.7104492,40.2890625 L86.5283203,40.2890625 L86.5283203,63.75 Z M108.410156,44.2045898 L101.223633,44.2045898 L101.223633,63.75 L96.3896484,63.75 L96.3896484,44.2045898 L89.2998047,44.2045898 L89.2998047,40.2890625 L108.410156,40.2890625 L108.410156,44.2045898 Z M116.305664,63.75 L111.47168,63.75 L111.47168,40.2890625 L116.305664,40.2890625 L116.305664,63.75 Z M138.445312,44.2045898 L131.258789,44.2045898 L131.258789,63.75 L126.424805,63.75 L126.424805,44.2045898 L119.334961,44.2045898 L119.334961,40.2890625 L138.445312,40.2890625 L138.445312,44.2045898 Z M149.289551,50.859375 L154.171875,40.2890625 L159.457031,40.2890625 L151.754883,55.2421875 L151.754883,63.75 L146.840332,63.75 L146.840332,55.2421875 L139.138184,40.2890625 L144.439453,40.2890625 L149.289551,50.859375 Z M169.817871,63.75 L169.817871,40.2890625 L178.035645,40.2890625 C180.882338,40.2890625 183.041497,40.8342231 184.513184,41.9245605 C185.984871,43.014898 186.720703,44.6127824 186.720703,46.7182617 C186.720703,47.8676815 186.425296,48.8801226 185.834473,49.7556152 C185.243649,50.6311079 184.42188,51.2729472 183.369141,51.6811523 C184.572272,51.9819351 185.52026,52.5888626 186.213135,53.5019531 C186.906009,54.4150436 187.252441,55.53222 187.252441,56.8535156 C187.252441,59.1093863 186.532722,60.817377 185.093262,61.9775391 C183.653801,63.1377011 181.602064,63.7285155 178.937988,63.75 L169.817871,63.75 Z M174.651855,53.5341797 L174.651855,59.8666992 L178.792969,59.8666992 C179.931646,59.8666992 180.820553,59.5954617 181.459717,59.0529785 C182.09888,58.5104953 182.418457,57.7612352 182.418457,56.8051758 C182.418457,54.6567275 181.306652,53.5664064 179.083008,53.5341797 L174.651855,53.5341797 Z M174.651855,50.1181641 L178.229004,50.1181641 C180.667493,50.0751951 181.886719,49.1030369 181.886719,47.2016602 C181.886719,46.1381783 181.577884,45.3728051 180.960205,44.9055176 C180.342526,44.4382301 179.367682,44.2045898 178.035645,44.2045898 L174.651855,44.2045898 L174.651855,50.1181641 Z M198.966797,50.859375 L203.849121,40.2890625 L209.134277,40.2890625 L201.432129,55.2421875 L201.432129,63.75 L196.517578,63.75 L196.517578,55.2421875 L188.81543,40.2890625 L194.116699,40.2890625 L198.966797,50.859375 Z" id="QUICKLYINCREASEANITEM’SQUANTITYBY" fill="#000000"></path>
            <path d="M237.155273,44.2045898 L229.96875,44.2045898 L229.96875,63.75 L225.134766,63.75 L225.134766,44.2045898 L218.044922,44.2045898 L218.044922,40.2890625 L237.155273,40.2890625 L237.155273,44.2045898 Z M253.155762,58.9160156 L244.680176,58.9160156 L243.068848,63.75 L237.928711,63.75 L246.662109,40.2890625 L251.141602,40.2890625 L259.92334,63.75 L254.783203,63.75 L253.155762,58.9160156 Z M245.985352,55.0004883 L251.850586,55.0004883 L248.901855,46.21875 L245.985352,55.0004883 Z M266.94873,55.4838867 L266.94873,63.75 L262.114746,63.75 L262.114746,40.2890625 L271.26709,40.2890625 C273.028817,40.2890625 274.578362,40.6113249 275.915771,41.2558594 C277.253181,41.9003938 278.281735,42.8161562 279.001465,44.0031738 C279.721195,45.1901915 280.081055,46.5410081 280.081055,48.0556641 C280.081055,50.3545037 279.294197,52.1672297 277.720459,53.4938965 C276.146721,54.8205633 273.968764,55.4838867 271.186523,55.4838867 L266.94873,55.4838867 Z M266.94873,51.5683594 L271.26709,51.5683594 C272.545417,51.5683594 273.52026,51.2675811 274.19165,50.6660156 C274.86304,50.0644501 275.19873,49.2050837 275.19873,48.0878906 C275.19873,46.9384708 274.860355,46.0092809 274.183594,45.300293 C273.506833,44.591305 272.572272,44.2260743 271.379883,44.2045898 L266.94873,44.2045898 L266.94873,51.5683594 Z M288.234375,55.4838867 L288.234375,63.75 L283.400391,63.75 L283.400391,40.2890625 L292.552734,40.2890625 C294.314462,40.2890625 295.864007,40.6113249 297.201416,41.2558594 C298.538825,41.9003938 299.567379,42.8161562 300.287109,44.0031738 C301.00684,45.1901915 301.366699,46.5410081 301.366699,48.0556641 C301.366699,50.3545037 300.579842,52.1672297 299.006104,53.4938965 C297.432365,54.8205633 295.254408,55.4838867 292.472168,55.4838867 L288.234375,55.4838867 Z M288.234375,51.5683594 L292.552734,51.5683594 C293.831061,51.5683594 294.805905,51.2675811 295.477295,50.6660156 C296.148685,50.0644501 296.484375,49.2050837 296.484375,48.0878906 C296.484375,46.9384708 296.145999,46.0092809 295.469238,45.300293 C294.792477,44.591305 293.857916,44.2260743 292.665527,44.2045898 L288.234375,44.2045898 L288.234375,51.5683594 Z M309.826172,63.75 L304.992188,63.75 L304.992188,40.2890625 L309.826172,40.2890625 L309.826172,63.75 Z M333.383789,63.75 L328.549805,63.75 L319.139648,48.3134766 L319.139648,63.75 L314.305664,63.75 L314.305664,40.2890625 L319.139648,40.2890625 L328.565918,55.7578125 L328.565918,40.2890625 L333.383789,40.2890625 L333.383789,63.75 Z M356.167969,60.7851562 C355.297847,61.8271536 354.067879,62.6354952 352.478027,63.2102051 C350.888176,63.784915 349.126475,64.0722656 347.192871,64.0722656 C345.162588,64.0722656 343.382088,63.6291548 341.851318,62.7429199 C340.320549,61.856685 339.13892,60.5703209 338.306396,58.8837891 C337.473873,57.1972572 337.046875,55.2153434 337.025391,52.9379883 L337.025391,51.3427734 C337.025391,49.0009649 337.420162,46.9733972 338.209717,45.2600098 C338.999272,43.5466223 340.137932,42.2360885 341.625732,41.3283691 C343.113533,40.4206498 344.856435,39.9667969 346.854492,39.9667969 C349.636733,39.9667969 351.812004,40.6301203 353.380371,41.9567871 C354.948738,43.2834539 355.877928,45.2143428 356.167969,47.7495117 L351.462891,47.7495117 C351.248046,46.4067316 350.772709,45.4238312 350.036865,44.8007812 C349.301022,44.1777313 348.288581,43.8662109 346.999512,43.8662109 C345.355949,43.8662109 344.104496,44.4838805 343.245117,45.7192383 C342.385738,46.954596 341.950684,48.7914917 341.939941,51.2299805 L341.939941,52.7285156 C341.939941,55.1884889 342.407222,57.0468687 343.341797,58.3037109 C344.276372,59.5605532 345.645987,60.1889648 347.450684,60.1889648 C349.266122,60.1889648 350.560543,59.80225 351.333984,59.0288086 L351.333984,54.984375 L346.935059,54.984375 L346.935059,51.4233398 L356.167969,51.4233398 L356.167969,60.7851562 Z" id="TAPPING" fill="#ED094D"></path>
            <path d="M387.572754,52.5512695 C387.572754,54.8608514 387.164555,56.8857335 386.348145,58.6259766 C385.531734,60.3662196 384.363533,61.7089796 382.843506,62.6542969 C381.323479,63.5996141 379.580576,64.0722656 377.614746,64.0722656 C375.6704,64.0722656 373.935555,63.6049851 372.410156,62.6704102 C370.884758,61.7358352 369.703129,60.4011317 368.865234,58.6662598 C368.02734,56.9313878 367.603027,54.9360464 367.592285,52.6801758 L367.592285,51.5200195 C367.592285,49.2104377 368.008541,47.177499 368.841064,45.4211426 C369.673588,43.6647861 370.849846,42.3166551 372.369873,41.376709 C373.8899,40.4367629 375.627432,39.9667969 377.58252,39.9667969 C379.537607,39.9667969 381.275139,40.4367629 382.795166,41.376709 C384.315193,42.3166551 385.491451,43.6647861 386.323975,45.4211426 C387.156498,47.177499 387.572754,49.2050666 387.572754,51.5039062 L387.572754,52.5512695 Z M382.674316,51.487793 C382.674316,49.0278197 382.233891,47.1586978 381.353027,45.8803711 C380.472164,44.6020444 379.21534,43.9628906 377.58252,43.9628906 C375.960441,43.9628906 374.708989,44.5939878 373.828125,45.8562012 C372.947261,47.1184145 372.501465,48.9687378 372.490723,51.4072266 L372.490723,52.5512695 C372.490723,54.9467893 372.931148,56.8051692 373.812012,58.1264648 C374.692875,59.4477605 375.960441,60.1083984 377.614746,60.1083984 C379.236825,60.1083984 380.482906,59.4719302 381.353027,58.1989746 C382.223149,56.926019 382.663574,55.0703247 382.674316,52.6318359 L382.674316,51.487793 Z M410.163574,63.75 L405.32959,63.75 L395.919434,48.3134766 L395.919434,63.75 L391.085449,63.75 L391.085449,40.2890625 L395.919434,40.2890625 L405.345703,55.7578125 L405.345703,40.2890625 L410.163574,40.2890625 L410.163574,63.75 Z M440.263184,44.2045898 L433.07666,44.2045898 L433.07666,63.75 L428.242676,63.75 L428.242676,44.2045898 L421.152832,44.2045898 L421.152832,40.2890625 L440.263184,40.2890625 L440.263184,44.2045898 Z M462.112793,63.75 L457.278809,63.75 L457.278809,53.6953125 L447.852539,53.6953125 L447.852539,63.75 L443.018555,63.75 L443.018555,40.2890625 L447.852539,40.2890625 L447.852539,49.7958984 L457.278809,49.7958984 L457.278809,40.2890625 L462.112793,40.2890625 L462.112793,63.75 Z M480.449707,53.5825195 L471.168457,53.5825195 L471.168457,59.8666992 L482.061035,59.8666992 L482.061035,63.75 L466.334473,63.75 L466.334473,40.2890625 L482.028809,40.2890625 L482.028809,44.2045898 L471.168457,44.2045898 L471.168457,49.7958984 L480.449707,49.7958984 L480.449707,53.5825195 Z M51.2241211,102.75 L46.3901367,102.75 L46.3901367,79.2890625 L51.2241211,79.2890625 L51.2241211,102.75 Z M73.3637695,83.2045898 L66.1772461,83.2045898 L66.1772461,102.75 L61.3432617,102.75 L61.3432617,83.2045898 L54.253418,83.2045898 L54.253418,79.2890625 L73.3637695,79.2890625 L73.3637695,83.2045898 Z M90.234375,92.5825195 L80.953125,92.5825195 L80.953125,98.8666992 L91.8457031,98.8666992 L91.8457031,102.75 L76.1191406,102.75 L76.1191406,79.2890625 L91.8134766,79.2890625 L91.8134766,83.2045898 L80.953125,83.2045898 L80.953125,88.7958984 L90.234375,88.7958984 L90.234375,92.5825195 Z M100.998047,79.2890625 L107.024414,96.3046875 L113.018555,79.2890625 L119.367188,79.2890625 L119.367188,102.75 L114.51709,102.75 L114.51709,96.3369141 L115.000488,85.2670898 L108.667969,102.75 L105.348633,102.75 L99.0322266,85.2832031 L99.515625,96.3369141 L99.515625,102.75 L94.6816406,102.75 L94.6816406,79.2890625 L100.998047,79.2890625 Z M151.045898,91.5512695 C151.045898,93.7426867 150.69141,95.6467204 149.982422,97.2634277 C149.273434,98.880135 148.290534,100.177241 147.033691,101.154785 L150.933105,104.216309 L147.855469,106.939453 L142.860352,102.927246 C142.291013,103.023926 141.700198,103.072266 141.087891,103.072266 C139.143545,103.072266 137.408699,102.604985 135.883301,101.67041 C134.357903,100.735835 133.176274,99.4011317 132.338379,97.6662598 C131.500484,95.9313878 131.076172,93.9360464 131.06543,91.6801758 L131.06543,90.5200195 C131.06543,88.2104377 131.481685,86.177499 132.314209,84.4211426 C133.146733,82.6647861 134.32299,81.3166551 135.843018,80.376709 C137.363045,79.4367629 139.100576,78.9667969 141.055664,78.9667969 C143.010752,78.9667969 144.748283,79.4367629 146.268311,80.376709 C147.788338,81.3166551 148.964595,82.6647861 149.797119,84.4211426 C150.629643,86.177499 151.045898,88.2050666 151.045898,90.5039062 L151.045898,91.5512695 Z M146.147461,90.487793 C146.147461,88.0278197 145.707036,86.1586978 144.826172,84.8803711 C143.945308,83.6020444 142.688485,82.9628906 141.055664,82.9628906 C139.433586,82.9628906 138.182133,83.5939878 137.30127,84.8562012 C136.420406,86.1184145 135.974609,87.9687378 135.963867,90.4072266 L135.963867,91.5512695 C135.963867,93.9467893 136.404292,95.8051692 137.285156,97.1264648 C138.16602,98.4477605 139.433585,99.1083984 141.087891,99.1083984 C142.709969,99.1083984 143.95605,98.4719302 144.826172,97.1989746 C145.696293,95.926019 146.136719,94.0703247 146.147461,91.6318359 L146.147461,90.487793 Z M172.347656,79.2890625 L172.347656,94.7416992 C172.347656,97.3090949 171.544686,99.339348 169.938721,100.83252 C168.332756,102.325691 166.138686,103.072266 163.356445,103.072266 C160.617174,103.072266 158.441903,102.347175 156.830566,100.896973 C155.21923,99.4467701 154.397461,97.4541142 154.365234,94.9189453 L154.365234,79.2890625 L159.199219,79.2890625 L159.199219,94.7739258 C159.199219,96.3100663 159.567135,97.4299281 160.302979,98.1335449 C161.038822,98.8371617 162.056634,99.1889648 163.356445,99.1889648 C166.074232,99.1889648 167.45459,97.7602682 167.497559,94.902832 L167.497559,79.2890625 L172.347656,79.2890625 Z M189.556641,97.9160156 L181.081055,97.9160156 L179.469727,102.75 L174.32959,102.75 L183.062988,79.2890625 L187.54248,79.2890625 L196.324219,102.75 L191.184082,102.75 L189.556641,97.9160156 Z M182.38623,94.0004883 L188.251465,94.0004883 L185.302734,85.21875 L182.38623,94.0004883 Z M217.59375,102.75 L212.759766,102.75 L203.349609,87.3134766 L203.349609,102.75 L198.515625,102.75 L198.515625,79.2890625 L203.349609,79.2890625 L212.775879,94.7578125 L212.775879,79.2890625 L217.59375,79.2890625 L217.59375,102.75 Z M239.475586,83.2045898 L232.289062,83.2045898 L232.289062,102.75 L227.455078,102.75 L227.455078,83.2045898 L220.365234,83.2045898 L220.365234,79.2890625 L239.475586,79.2890625 L239.475586,83.2045898 Z M247.371094,102.75 L242.537109,102.75 L242.537109,79.2890625 L247.371094,79.2890625 L247.371094,102.75 Z M269.510742,83.2045898 L262.324219,83.2045898 L262.324219,102.75 L257.490234,102.75 L257.490234,83.2045898 L250.400391,83.2045898 L250.400391,79.2890625 L269.510742,79.2890625 L269.510742,83.2045898 Z M280.35498,89.859375 L285.237305,79.2890625 L290.522461,79.2890625 L282.820312,94.2421875 L282.820312,102.75 L277.905762,102.75 L277.905762,94.2421875 L270.203613,79.2890625 L275.504883,79.2890625 L280.35498,89.859375 Z M300.883301,102.75 L300.883301,79.2890625 L309.101074,79.2890625 C311.947768,79.2890625 314.106926,79.8342231 315.578613,80.9245605 C317.0503,82.014898 317.786133,83.6127824 317.786133,85.7182617 C317.786133,86.8676815 317.490726,87.8801226 316.899902,88.7556152 C316.309079,89.6311079 315.48731,90.2729472 314.43457,90.6811523 C315.637701,90.9819351 316.58569,91.5888626 317.278564,92.5019531 C317.971439,93.4150436 318.317871,94.53222 318.317871,95.8535156 C318.317871,98.1093863 317.598152,99.817377 316.158691,100.977539 C314.719231,102.137701 312.667494,102.728516 310.003418,102.75 L300.883301,102.75 Z M305.717285,92.5341797 L305.717285,98.8666992 L309.858398,98.8666992 C310.997076,98.8666992 311.885983,98.5954617 312.525146,98.0529785 C313.16431,97.5104953 313.483887,96.7612352 313.483887,95.8051758 C313.483887,93.6567275 312.372081,92.5664064 310.148438,92.5341797 L305.717285,92.5341797 Z M305.717285,89.1181641 L309.294434,89.1181641 C311.732922,89.0751951 312.952148,88.1030369 312.952148,86.2016602 C312.952148,85.1381783 312.643314,84.3728051 312.025635,83.9055176 C311.407956,83.4382301 310.433112,83.2045898 309.101074,83.2045898 L305.717285,83.2045898 L305.717285,89.1181641 Z M339.700195,79.2890625 L339.700195,94.7416992 C339.700195,97.3090949 338.897225,99.339348 337.29126,100.83252 C335.685295,102.325691 333.491225,103.072266 330.708984,103.072266 C327.969713,103.072266 325.794442,102.347175 324.183105,100.896973 C322.571769,99.4467701 321.75,97.4541142 321.717773,94.9189453 L321.717773,79.2890625 L326.551758,79.2890625 L326.551758,94.7739258 C326.551758,96.3100663 326.919674,97.4299281 327.655518,98.1335449 C328.391361,98.8371617 329.409173,99.1889648 330.708984,99.1889648 C333.426771,99.1889648 334.807129,97.7602682 334.850098,94.902832 L334.850098,79.2890625 L339.700195,79.2890625 Z M361.324219,83.2045898 L354.137695,83.2045898 L354.137695,102.75 L349.303711,102.75 L349.303711,83.2045898 L342.213867,83.2045898 L342.213867,79.2890625 L361.324219,79.2890625 L361.324219,83.2045898 Z M381.739746,83.2045898 L374.553223,83.2045898 L374.553223,102.75 L369.719238,102.75 L369.719238,83.2045898 L362.629395,83.2045898 L362.629395,79.2890625 L381.739746,79.2890625 L381.739746,83.2045898 Z M403.766602,91.5512695 C403.766602,93.8608514 403.358403,95.8857335 402.541992,97.6259766 C401.725582,99.3662196 400.557381,100.70898 399.037354,101.654297 C397.517326,102.599614 395.774424,103.072266 393.808594,103.072266 C391.864248,103.072266 390.129402,102.604985 388.604004,101.67041 C387.078606,100.735835 385.896977,99.4011317 385.059082,97.6662598 C384.221187,95.9313878 383.796875,93.9360464 383.786133,91.6801758 L383.786133,90.5200195 C383.786133,88.2104377 384.202388,86.177499 385.034912,84.4211426 C385.867436,82.6647861 387.043694,81.3166551 388.563721,80.376709 C390.083748,79.4367629 391.821279,78.9667969 393.776367,78.9667969 C395.731455,78.9667969 397.468987,79.4367629 398.989014,80.376709 C400.509041,81.3166551 401.685299,82.6647861 402.517822,84.4211426 C403.350346,86.177499 403.766602,88.2050666 403.766602,90.5039062 L403.766602,91.5512695 Z M398.868164,90.487793 C398.868164,88.0278197 398.427739,86.1586978 397.546875,84.8803711 C396.666011,83.6020444 395.409188,82.9628906 393.776367,82.9628906 C392.154289,82.9628906 390.902836,83.5939878 390.021973,84.8562012 C389.141109,86.1184145 388.695313,87.9687378 388.68457,90.4072266 L388.68457,91.5512695 C388.68457,93.9467893 389.124996,95.8051692 390.005859,97.1264648 C390.886723,98.4477605 392.154289,99.1083984 393.808594,99.1083984 C395.430672,99.1083984 396.676753,98.4719302 397.546875,97.1989746 C398.416997,95.926019 398.857422,94.0703247 398.868164,91.6318359 L398.868164,90.487793 Z M426.357422,102.75 L421.523438,102.75 L412.113281,87.3134766 L412.113281,102.75 L407.279297,102.75 L407.279297,79.2890625 L412.113281,79.2890625 L421.539551,94.7578125 L421.539551,79.2890625 L426.357422,79.2890625 L426.357422,102.75 Z M435.010254,95.5473633 L431.143066,95.5473633 L430.595215,79.2890625 L435.558105,79.2890625 L435.010254,95.5473633 Z M433.07666,98.0932617 C433.860844,98.0932617 434.491941,98.3242164 434.969971,98.7861328 C435.448,99.2480492 435.687012,99.8388636 435.687012,100.558594 C435.687012,101.267582 435.448,101.853025 434.969971,102.314941 C434.491941,102.776858 433.860844,103.007812 433.07666,103.007812 C432.303219,103.007812 431.677493,102.776858 431.199463,102.314941 C430.721433,101.853025 430.482422,101.267582 430.482422,100.558594 C430.482422,99.8496058 430.721433,99.2614769 431.199463,98.7941895 C431.677493,98.326902 432.303219,98.0932617 433.07666,98.0932617 Z" id="ONTHEITEMQUANTITYBUTTON!" fill="#000000"></path>
        </g>
    </g>
</svg>