<?xml version="1.0" encoding="UTF-8"?>
<svg width="570px" height="792px" viewBox="0 0 570 792" version="1.1" xmlns="http://www.w3.org/2000/svg" xmlns:xlink="http://www.w3.org/1999/xlink">
    <!-- Generator: Sketch 54.1 (76490) - https://sketchapp.com -->
    <title>B1_items_en</title>
    <desc>Created with Sketch.</desc>
    <g id="B1_items_en" stroke="none" stroke-width="1" fill="none" fill-rule="evenodd">
        <rect id="Rectangle" fill="#00B0FF" x="0" y="0" width="570" height="792" rx="16"></rect>
        <path d="M47,252 L524,252 C530.627417,252 536,257.372583 536,264 L536,779 L35,779 L35,264 C35,257.372583 40.372583,252 47,252 Z" id="Rectangle" fill="#080B26"></path>
        <rect id="Rectangle" fill="#FFFFFF" x="35" y="42" width="501" height="145" rx="12"></rect>
        <rect id="Rectangle" fill="#375270" opacity="0.295014881" x="35" y="292" width="501" height="104"></rect>
        <path d="M320,308 L503,308 C510.179702,308 516,313.820298 516,321 L516,367 C516,374.179702 510.179702,380 503,380 L320,380 C312.820298,380 307,374.179702 307,367 L307,321 C307,313.820298 312.820298,308 320,308 Z M320,313 C315.581722,313 312,316.581722 312,321 L312,367 C312,371.418278 315.581722,375 320,375 L503,375 C507.418278,375 511,371.418278 511,367 L511,321 C511,316.581722 507.418278,313 503,313 L320,313 Z" id="Rectangle" fill="#00D3FF" fill-rule="nonzero"></path>
        <polygon id="Line-2" fill="#FFFFFF" fill-rule="nonzero" points="411 230.776337 411 176 419 176 419 230.776337 437 230.776337 415 293 393 230.776337 411 230.776337"></polygon>
        <path d="M336.861475,356.5 L332.204736,356.5 L332.204736,338.549805 L326.645654,340.273926 L326.645654,336.487305 L336.361963,333.006836 L336.861475,333.006836 L336.861475,356.5 Z M354.415088,344.27002 L357.347705,339.06543 L362.326709,339.06543 L357.363818,347.605469 L362.536182,356.5 L357.541064,356.5 L354.431201,351.021484 L351.337451,356.5 L346.326221,356.5 L351.498584,347.605469 L346.551807,339.06543 L351.546924,339.06543 L354.415088,344.27002 Z M378.607373,350.328613 C378.607373,349.44775 378.362991,348.746829 377.874219,348.22583 C377.385447,347.704831 376.555621,347.224123 375.384717,346.783691 C374.213813,346.34326 373.204057,345.90552 372.35542,345.470459 C371.506783,345.035398 370.779007,344.535891 370.17207,343.971924 C369.565134,343.407956 369.092482,342.744633 368.754102,341.981934 C368.415721,341.219234 368.246533,340.311529 368.246533,339.258789 C368.246533,337.44335 368.826606,335.955572 369.986768,334.79541 C371.14693,333.635248 372.688418,332.958497 374.611279,332.765137 L374.611279,329.316895 L377.189404,329.316895 L377.189404,332.813477 C379.090781,333.082033 380.578559,333.874261 381.652783,335.190186 C382.727007,336.50611 383.264111,338.211415 383.264111,340.306152 L378.607373,340.306152 C378.607373,339.017083 378.341507,338.052982 377.809766,337.413818 C377.278025,336.774655 376.566362,336.455078 375.674756,336.455078 C374.793892,336.455078 374.11177,336.704831 373.628369,337.204346 C373.144968,337.70386 372.903271,338.394039 372.903271,339.274902 C372.903271,340.091313 373.139597,340.74658 373.612256,341.240723 C374.084914,341.734866 374.96308,342.239744 376.246777,342.755371 C377.530475,343.270999 378.585885,343.757078 379.413037,344.213623 C380.24019,344.670168 380.938425,345.185788 381.507764,345.760498 C382.077102,346.335208 382.512157,346.990475 382.812939,347.726318 C383.113722,348.462162 383.264111,349.318843 383.264111,350.296387 C383.264111,352.122568 382.694781,353.604975 381.556104,354.743652 C380.417426,355.88233 378.849082,356.55371 376.851025,356.757812 L376.851025,359.964355 L374.289014,359.964355 L374.289014,356.773926 C372.086854,356.537596 370.381549,355.75611 369.173047,354.429443 C367.964545,353.102777 367.360303,351.33839 367.360303,349.13623 L372.017041,349.13623 C372.017041,350.414557 372.320505,351.394772 372.927441,352.076904 C373.534378,352.759037 374.407172,353.100098 375.54585,353.100098 C376.491167,353.100098 377.237741,352.850344 377.785596,352.35083 C378.33345,351.851316 378.607373,351.17725 378.607373,350.328613 Z M405.45835,335.649414 L396.386572,356.5 L391.472021,356.5 L400.559912,336.80957 L388.893896,336.80957 L388.893896,333.039062 L405.45835,333.039062 L405.45835,335.649414 Z M408.874365,354.211914 C408.874365,353.470699 409.124119,352.869143 409.623633,352.407227 C410.123147,351.94531 410.748873,351.714355 411.50083,351.714355 C412.263529,351.714355 412.894626,351.94531 413.394141,352.407227 C413.893655,352.869143 414.143408,353.470699 414.143408,354.211914 C414.143408,354.942386 413.89634,355.535886 413.402197,355.992432 C412.908054,356.448977 412.274271,356.677246 411.50083,356.677246 C410.738131,356.677246 410.109719,356.448977 409.615576,355.992432 C409.121433,355.535886 408.874365,354.942386 408.874365,354.211914 Z M431.803564,347.669922 L434.462256,347.669922 L434.462256,351.424316 L431.803564,351.424316 L431.803564,356.5 L427.146826,356.5 L427.146826,351.424316 L417.527197,351.424316 L417.317725,348.491699 L427.098486,333.039062 L431.803564,333.039062 L431.803564,347.669922 Z M421.95835,347.669922 L427.146826,347.669922 L427.146826,339.387695 L426.840674,339.919434 L421.95835,347.669922 Z M447.852393,347.12207 C446.638519,348.314459 445.220565,348.910645 443.598486,348.910645 C441.525234,348.910645 439.865582,348.198982 438.619482,346.775635 C437.373382,345.352288 436.750342,343.432141 436.750342,341.015137 C436.750342,339.478996 437.086032,338.069098 437.757422,336.7854 C438.428812,335.501703 439.366058,334.502689 440.569189,333.78833 C441.77232,333.073971 443.125823,332.716797 444.629736,332.716797 C446.176619,332.716797 447.551605,333.103512 448.754736,333.876953 C449.957867,334.650394 450.892428,335.7622 451.558447,337.212402 C452.224466,338.662605 452.562842,340.322256 452.573584,342.191406 L452.573584,343.915527 C452.573584,347.825703 451.601426,350.897938 449.65708,353.132324 C447.712734,355.36671 444.957391,356.559081 441.390967,356.709473 L440.246924,356.725586 L440.246924,352.842285 L441.278174,352.826172 C445.327999,352.643554 447.519383,350.742206 447.852393,347.12207 Z M444.742529,345.349609 C445.494486,345.349609 446.141697,345.156252 446.68418,344.769531 C447.226663,344.382811 447.637547,343.91553 447.916846,343.367676 L447.916846,341.450195 C447.916846,339.871086 447.616067,338.646489 447.014502,337.776367 C446.412936,336.906246 445.60728,336.471191 444.59751,336.471191 C443.662935,336.471191 442.894876,336.898189 442.293311,337.752197 C441.691745,338.606205 441.390967,339.677728 441.390967,340.966797 C441.390967,342.245124 441.683688,343.295162 442.269141,344.116943 C442.854593,344.938725 443.679047,345.349609 444.742529,345.349609 Z M472.328467,356.822266 C469.771813,356.822266 467.690535,356.038094 466.08457,354.469727 C464.478605,352.901359 463.675635,350.812025 463.675635,348.20166 L463.675635,347.750488 C463.675635,345.999503 464.01401,344.433845 464.690771,343.053467 C465.367533,341.673089 466.326263,340.609623 467.566992,339.863037 C468.807721,339.116451 470.22299,338.743164 471.812842,338.743164 C474.197619,338.743164 476.074798,339.49511 477.444434,340.999023 C478.814069,342.502937 479.498877,344.63524 479.498877,347.395996 L479.498877,349.297363 L468.396826,349.297363 C468.547218,350.436041 469.00107,351.349118 469.758398,352.036621 C470.515726,352.724125 471.474457,353.067871 472.634619,353.067871 C474.428573,353.067871 475.830415,352.417975 476.840186,351.118164 L479.128271,353.680176 C478.430026,354.668462 477.484723,355.439206 476.292334,355.992432 C475.099945,356.545657 473.778669,356.822266 472.328467,356.822266 Z M471.796729,342.513672 C470.872896,342.513672 470.123636,342.825192 469.548926,343.448242 C468.974216,344.071292 468.6063,344.962885 468.445166,346.123047 L474.922705,346.123047 L474.922705,345.752441 C474.901221,344.721186 474.621927,343.923587 474.084814,343.359619 C473.547702,342.795651 472.785015,342.513672 471.796729,342.513672 Z M492.244482,356.5 C492.029638,356.081053 491.873877,355.560062 491.777197,354.937012 C490.649262,356.193854 489.182968,356.822266 487.378271,356.822266 C485.670255,356.822266 484.254986,356.32813 483.132422,355.339844 C482.009858,354.351558 481.448584,353.105476 481.448584,351.601562 C481.448584,349.753897 482.133392,348.335942 483.503027,347.347656 C484.872663,346.35937 486.851891,345.859863 489.440771,345.849121 L491.583838,345.849121 L491.583838,344.850098 C491.583838,344.04443 491.377053,343.399905 490.963477,342.916504 C490.5499,342.433103 489.897319,342.191406 489.005713,342.191406 C488.221529,342.191406 487.606545,342.379393 487.160742,342.755371 C486.714939,343.13135 486.492041,343.646969 486.492041,344.302246 L481.835303,344.302246 C481.835303,343.292475 482.146823,342.357914 482.769873,341.498535 C483.392923,340.639156 484.273774,339.96509 485.412451,339.476318 C486.551129,338.987546 487.829436,338.743164 489.247412,338.743164 C491.39586,338.743164 493.101166,339.282954 494.363379,340.362549 C495.625592,341.442144 496.256689,342.959463 496.256689,344.914551 L496.256689,352.47168 C496.267432,354.125985 496.498386,355.377437 496.949561,356.226074 L496.949561,356.5 L492.244482,356.5 Z M488.393408,353.26123 C489.080912,353.26123 489.714694,353.108156 490.294775,352.802002 C490.874856,352.495848 491.30454,352.084964 491.583838,351.569336 L491.583838,348.572266 L489.843604,348.572266 C487.512537,348.572266 486.271827,349.377922 486.121436,350.989258 L486.105322,351.263184 C486.105322,351.843265 486.309422,352.321287 486.717627,352.697266 C487.125832,353.073244 487.68442,353.26123 488.393408,353.26123 Z" id="1x$7.49ea" fill="#00D3FF" fill-rule="nonzero"></path>
        <path d="M61.552002,355 L61.552002,331.539062 L69.7697754,331.539062 C72.6164693,331.539062 74.7756274,332.084223 76.2473145,333.174561 C77.7190015,334.264898 78.454834,335.862782 78.454834,337.968262 C78.454834,339.117682 78.1594268,340.130123 77.5686035,341.005615 C76.9777802,341.881108 76.1560111,342.522947 75.1032715,342.931152 C76.3064025,343.231935 77.2543911,343.838863 77.9472656,344.751953 C78.6401402,345.665044 78.9865723,346.78222 78.9865723,348.103516 C78.9865723,350.359386 78.2668529,352.067377 76.8273926,353.227539 C75.3879323,354.387701 73.336195,354.978516 70.6721191,355 L61.552002,355 Z M66.3859863,344.78418 L66.3859863,351.116699 L70.5270996,351.116699 C71.6657772,351.116699 72.5546843,350.845462 73.1938477,350.302979 C73.833011,349.760495 74.1525879,349.011235 74.1525879,348.055176 C74.1525879,345.906728 73.0407826,344.816406 70.8171387,344.78418 L66.3859863,344.78418 Z M66.3859863,341.368164 L69.9631348,341.368164 C72.4016235,341.325195 73.6208496,340.353037 73.6208496,338.45166 C73.6208496,337.388178 73.3120148,336.622805 72.6943359,336.155518 C72.0766571,335.68823 71.1018133,335.45459 69.7697754,335.45459 L66.3859863,335.45459 L66.3859863,341.368164 Z M82.6120605,355 L82.6120605,331.539062 L90.829834,331.539062 C93.6765279,331.539062 95.835686,332.084223 97.307373,333.174561 C98.7790601,334.264898 99.5148926,335.862782 99.5148926,337.968262 C99.5148926,339.117682 99.2194854,340.130123 98.6286621,341.005615 C98.0378388,341.881108 97.2160697,342.522947 96.1633301,342.931152 C97.3664611,343.231935 98.3144497,343.838863 99.0073242,344.751953 C99.7001988,345.665044 100.046631,346.78222 100.046631,348.103516 C100.046631,350.359386 99.3269115,352.067377 97.8874512,353.227539 C96.4479908,354.387701 94.3962536,354.978516 91.7321777,355 L82.6120605,355 Z M87.4460449,344.78418 L87.4460449,351.116699 L91.5871582,351.116699 C92.7258358,351.116699 93.6147429,350.845462 94.2539062,350.302979 C94.8930696,349.760495 95.2126465,349.011235 95.2126465,348.055176 C95.2126465,345.906728 94.1008412,344.816406 91.8771973,344.78418 L87.4460449,344.78418 Z M87.4460449,341.368164 L91.0231934,341.368164 C93.4616821,341.325195 94.6809082,340.353037 94.6809082,338.45166 C94.6809082,337.388178 94.3720734,336.622805 93.7543945,336.155518 C93.1367157,335.68823 92.1618719,335.45459 90.829834,335.45459 L87.4460449,335.45459 L87.4460449,341.368164 Z M122.911377,343.80127 C122.911377,345.992687 122.556888,347.89672 121.8479,349.513428 C121.138912,351.130135 120.156012,352.427241 118.89917,353.404785 L122.798584,356.466309 L119.720947,359.189453 L114.72583,355.177246 C114.156491,355.273926 113.565677,355.322266 112.953369,355.322266 C111.009023,355.322266 109.274178,354.854985 107.748779,353.92041 C106.223381,352.985835 105.041752,351.651132 104.203857,349.91626 C103.365963,348.181388 102.94165,346.186046 102.930908,343.930176 L102.930908,342.77002 C102.930908,340.460438 103.347164,338.427499 104.179688,336.671143 C105.012211,334.914786 106.188469,333.566655 107.708496,332.626709 C109.228523,331.686763 110.966055,331.216797 112.921143,331.216797 C114.87623,331.216797 116.613762,331.686763 118.133789,332.626709 C119.653816,333.566655 120.830074,334.914786 121.662598,336.671143 C122.495121,338.427499 122.911377,340.455067 122.911377,342.753906 L122.911377,343.80127 Z M118.012939,342.737793 C118.012939,340.27782 117.572514,338.408698 116.69165,337.130371 C115.810787,335.852044 114.553963,335.212891 112.921143,335.212891 C111.299064,335.212891 110.047612,335.843988 109.166748,337.106201 C108.285884,338.368415 107.840088,340.218738 107.829346,342.657227 L107.829346,343.80127 C107.829346,346.196789 108.269771,348.055169 109.150635,349.376465 C110.031499,350.697761 111.299064,351.358398 112.953369,351.358398 C114.575448,351.358398 115.821529,350.72193 116.69165,349.448975 C117.561772,348.176019 118.002197,346.320325 118.012939,343.881836 L118.012939,342.737793 Z M153.091553,347.185059 C152.908935,349.709485 151.977059,351.69677 150.295898,353.146973 C148.614738,354.597175 146.399184,355.322266 143.64917,355.322266 C140.641342,355.322266 138.275399,354.309825 136.55127,352.284912 C134.82714,350.26 133.965088,347.480486 133.965088,343.946289 L133.965088,342.512207 C133.965088,340.256336 134.362545,338.269052 135.157471,336.550293 C135.952397,334.831534 137.088372,333.512944 138.56543,332.594482 C140.042488,331.676021 141.758535,331.216797 143.713623,331.216797 C146.420668,331.216797 148.60131,331.941887 150.255615,333.39209 C151.90992,334.842292 152.865966,336.877917 153.123779,339.499023 L148.289795,339.499023 C148.17163,337.984367 147.750004,336.88599 147.024902,336.203857 C146.299801,335.521725 145.196052,335.180664 143.713623,335.180664 C142.102287,335.180664 140.896488,335.758051 140.096191,336.912842 C139.295894,338.067633 138.88501,339.858875 138.863525,342.286621 L138.863525,344.059082 C138.863525,346.594251 139.247555,348.44726 140.015625,349.618164 C140.783695,350.789068 141.994865,351.374512 143.64917,351.374512 C145.142341,351.374512 146.256832,351.033451 146.992676,350.351318 C147.728519,349.669186 148.150146,348.613777 148.257568,347.185059 L153.091553,347.185059 Z M160.503662,339.466797 C161.73902,337.984368 163.29125,337.243164 165.1604,337.243164 C168.941669,337.243164 170.859131,339.439919 170.912842,343.833496 L170.912842,355 L166.256104,355 L166.256104,343.962402 C166.256104,342.963374 166.041262,342.224856 165.611572,341.746826 C165.181883,341.268796 164.467534,341.029785 163.468506,341.029785 C162.104241,341.029785 161.11597,341.556147 160.503662,342.608887 L160.503662,355 L155.846924,355 L155.846924,330.25 L160.503662,330.25 L160.503662,339.466797 Z M179.340088,355 L174.667236,355 L174.667236,337.56543 L179.340088,337.56543 L179.340088,355 Z M174.393311,333.053711 C174.393311,332.355465 174.626951,331.780764 175.094238,331.32959 C175.561526,330.878416 176.197994,330.652832 177.003662,330.652832 C177.798588,330.652832 178.432371,330.878416 178.905029,331.32959 C179.377688,331.780764 179.614014,332.355465 179.614014,333.053711 C179.614014,333.762699 179.375002,334.342771 178.896973,334.793945 C178.418943,335.245119 177.787846,335.470703 177.003662,335.470703 C176.219479,335.470703 175.588381,335.245119 175.110352,334.793945 C174.632322,334.342771 174.393311,333.762699 174.393311,333.053711 Z M190.426025,351.567871 C191.285405,351.567871 191.98364,351.331545 192.520752,350.858887 C193.057864,350.386228 193.337158,349.757816 193.358643,348.973633 L197.725342,348.973633 C197.7146,350.155279 197.392337,351.237544 196.758545,352.220459 C196.124753,353.203374 195.25733,353.966062 194.15625,354.508545 C193.05517,355.051028 191.83863,355.322266 190.506592,355.322266 C188.014392,355.322266 186.048591,354.530037 184.609131,352.945557 C183.169671,351.361076 182.449951,349.172377 182.449951,346.379395 L182.449951,346.073242 C182.449951,343.387682 183.164299,341.244637 184.593018,339.644043 C186.021736,338.043449 187.982165,337.243164 190.474365,337.243164 C192.65504,337.243164 194.403314,337.863519 195.719238,339.104248 C197.035163,340.344977 197.703857,341.996572 197.725342,344.059082 L193.358643,344.059082 C193.337158,343.156734 193.057864,342.423587 192.520752,341.859619 C191.98364,341.295651 191.274663,341.013672 190.393799,341.013672 C189.308832,341.013672 188.489749,341.408443 187.936523,342.197998 C187.383298,342.987553 187.106689,344.268546 187.106689,346.041016 L187.106689,346.524414 C187.106689,348.318368 187.380612,349.607418 187.928467,350.391602 C188.476321,351.175785 189.308832,351.567871 190.426025,351.567871 Z M206.716553,348.006836 L205.040771,349.682617 L205.040771,355 L200.384033,355 L200.384033,330.25 L205.040771,330.25 L205.040771,343.962402 L205.943115,342.802246 L210.406494,337.56543 L215.997803,337.56543 L209.69751,344.83252 L216.545654,355 L211.196045,355 L206.716553,348.006836 Z M226.036377,355.322266 C223.479724,355.322266 221.398446,354.538094 219.79248,352.969727 C218.186515,351.401359 217.383545,349.312025 217.383545,346.70166 L217.383545,346.250488 C217.383545,344.499503 217.72192,342.933845 218.398682,341.553467 C219.075443,340.173089 220.034173,339.109623 221.274902,338.363037 C222.515631,337.616451 223.9309,337.243164 225.520752,337.243164 C227.90553,337.243164 229.782708,337.99511 231.152344,339.499023 C232.52198,341.002937 233.206787,343.13524 233.206787,345.895996 L233.206787,347.797363 L222.104736,347.797363 C222.255128,348.936041 222.708981,349.849118 223.466309,350.536621 C224.223637,351.224125 225.182367,351.567871 226.342529,351.567871 C228.136484,351.567871 229.538325,350.917975 230.548096,349.618164 L232.836182,352.180176 C232.137936,353.168462 231.192633,353.939206 230.000244,354.492432 C228.807855,355.045657 227.48658,355.322266 226.036377,355.322266 Z M225.504639,341.013672 C224.580806,341.013672 223.831546,341.325192 223.256836,341.948242 C222.682126,342.571292 222.31421,343.462885 222.153076,344.623047 L228.630615,344.623047 L228.630615,344.252441 C228.609131,343.221186 228.329837,342.423587 227.792725,341.859619 C227.255613,341.295651 226.492925,341.013672 225.504639,341.013672 Z M240.135498,337.56543 L240.280518,339.57959 C241.526618,338.021965 243.197011,337.243164 245.291748,337.243164 C247.139414,337.243164 248.5144,337.785639 249.416748,338.870605 C250.319096,339.955572 250.781006,341.577626 250.80249,343.736816 L250.80249,355 L246.145752,355 L246.145752,343.849609 C246.145752,342.861323 245.93091,342.144289 245.501221,341.698486 C245.071531,341.252683 244.357183,341.029785 243.358154,341.029785 C242.047601,341.029785 241.064701,341.588373 240.409424,342.705566 L240.409424,355 L235.752686,355 L235.752686,337.56543 L240.135498,337.56543 Z" id="BBQChicken" fill="#00D3FF" fill-rule="nonzero"></path>
        <g id="EASILY-INCREASE-AN-I" transform="translate(68.269287, 62.250000)" fill-rule="nonzero">
            <path d="M14.1152344,14.5825195 L4.83398438,14.5825195 L4.83398438,20.8666992 L15.7265625,20.8666992 L15.7265625,24.75 L0,24.75 L0,1.2890625 L15.6943359,1.2890625 L15.6943359,5.20458984 L4.83398438,5.20458984 L4.83398438,10.7958984 L14.1152344,10.7958984 L14.1152344,14.5825195 Z M31.8076172,19.9160156 L23.3320312,19.9160156 L21.7207031,24.75 L16.5805664,24.75 L25.3139648,1.2890625 L29.793457,1.2890625 L38.5751953,24.75 L33.4350586,24.75 L31.8076172,19.9160156 Z M24.637207,16.0004883 L30.5024414,16.0004883 L27.5537109,7.21875 L24.637207,16.0004883 Z M52.9321289,18.5947266 C52.9321289,17.6816361 52.6098665,16.9807153 51.965332,16.4919434 C51.3207976,16.0031714 50.1606529,15.4875515 48.4848633,14.9450684 C46.8090737,14.4025852 45.4824268,13.8681667 44.5048828,13.3417969 C41.840807,11.9023366 40.5087891,9.9633911 40.5087891,7.52490234 C40.5087891,6.25731788 40.8659632,5.12671395 41.5803223,4.13305664 C42.2946813,3.13939933 43.32055,2.36328404 44.657959,1.8046875 C45.995368,1.24609096 47.4965737,0.966796875 49.1616211,0.966796875 C50.8374107,0.966796875 52.3305599,1.27026064 53.6411133,1.87719727 C54.9516667,2.48413389 55.9694788,3.34081478 56.6945801,4.44726562 C57.4196814,5.55371647 57.7822266,6.81053984 57.7822266,8.21777344 L52.9482422,8.21777344 C52.9482422,7.14354932 52.6098667,6.30835259 51.9331055,5.7121582 C51.2563443,5.11596382 50.3056702,4.81787109 49.0810547,4.81787109 C47.8994082,4.81787109 46.9809603,5.06762446 46.3256836,5.56713867 C45.6704069,6.06665289 45.3427734,6.72460529 45.3427734,7.54101562 C45.3427734,8.30371475 45.7268028,8.94286852 46.494873,9.45849609 C47.2629433,9.97412367 48.3935472,10.4575173 49.8867188,10.9086914 C52.6367325,11.735844 54.6401304,12.7617126 55.8969727,13.9863281 C57.1538149,15.2109436 57.7822266,16.736319 57.7822266,18.5625 C57.7822266,20.5927836 57.0141678,22.185297 55.4780273,23.3400879 C53.9418869,24.4948788 51.8740364,25.0722656 49.2744141,25.0722656 C47.4697175,25.0722656 45.8261793,24.7419467 44.34375,24.0812988 C42.8613207,23.420651 41.7307168,22.5156307 40.9519043,21.3662109 C40.1730918,20.2167911 39.7836914,18.8847732 39.7836914,17.3701172 L44.6337891,17.3701172 C44.6337891,19.9589973 46.1806486,21.253418 49.2744141,21.253418 C50.4238339,21.253418 51.3207976,21.0197777 51.965332,20.5524902 C52.6098665,20.0852027 52.9321289,19.4326214 52.9321289,18.5947266 Z M66.1933594,24.75 L61.359375,24.75 L61.359375,1.2890625 L66.1933594,1.2890625 L66.1933594,24.75 Z M75.5068359,20.8666992 L85.7709961,20.8666992 L85.7709961,24.75 L70.6728516,24.75 L70.6728516,1.2890625 L75.5068359,1.2890625 L75.5068359,20.8666992 Z M96.6313477,11.859375 L101.513672,1.2890625 L106.798828,1.2890625 L99.0966797,16.2421875 L99.0966797,24.75 L94.1821289,24.75 L94.1821289,16.2421875 L86.4799805,1.2890625 L91.78125,1.2890625 L96.6313477,11.859375 Z M122.299805,24.75 L117.46582,24.75 L117.46582,1.2890625 L122.299805,1.2890625 L122.299805,24.75 Z M145.857422,24.75 L141.023438,24.75 L131.613281,9.31347656 L131.613281,24.75 L126.779297,24.75 L126.779297,1.2890625 L131.613281,1.2890625 L141.039551,16.7578125 L141.039551,1.2890625 L145.857422,1.2890625 L145.857422,24.75 Z M168.496582,16.9350586 C168.313964,19.4594853 167.382088,21.4467701 165.700928,22.8969727 C164.019767,24.3471752 161.804213,25.0722656 159.054199,25.0722656 C156.046372,25.0722656 153.680429,24.0598246 151.956299,22.0349121 C150.232169,20.0099996 149.370117,17.2304864 149.370117,13.6962891 L149.370117,12.262207 C149.370117,10.0063364 149.767574,8.01905156 150.5625,6.30029297 C151.357426,4.58153437 152.493401,3.26294405 153.970459,2.34448242 C155.447517,1.4260208 157.163564,0.966796875 159.118652,0.966796875 C161.825697,0.966796875 164.006339,1.69188728 165.660645,3.14208984 C167.31495,4.59229241 168.270995,6.62791658 168.528809,9.24902344 L163.694824,9.24902344 C163.57666,7.73436743 163.155033,6.63598974 162.429932,5.95385742 C161.70483,5.2717251 160.601082,4.93066406 159.118652,4.93066406 C157.507316,4.93066406 156.301518,5.50805087 155.501221,6.6628418 C154.700924,7.81763273 154.290039,9.60887458 154.268555,12.0366211 L154.268555,13.809082 C154.268555,16.344251 154.652584,18.1972598 155.420654,19.3681641 C156.188725,20.5390684 157.399894,21.1245117 159.054199,21.1245117 C160.547371,21.1245117 161.661862,20.7834507 162.397705,20.1013184 C163.133549,19.419186 163.555175,18.3637767 163.662598,16.9350586 L168.496582,16.9350586 Z M180.355957,16.1616211 L176.504883,16.1616211 L176.504883,24.75 L171.670898,24.75 L171.670898,1.2890625 L180.388184,1.2890625 C183.159682,1.2890625 185.297356,1.9067321 186.80127,3.14208984 C188.305183,4.37744758 189.057129,6.1230356 189.057129,8.37890625 C189.057129,9.97950019 188.710697,11.3142036 188.017822,12.3830566 C187.324948,13.4519096 186.274909,14.3032195 184.867676,14.9370117 L189.943359,24.5244141 L189.943359,24.75 L184.754883,24.75 L180.355957,16.1616211 Z M176.504883,12.2460938 L180.404297,12.2460938 C181.61817,12.2460938 182.558102,11.9372589 183.224121,11.3195801 C183.89014,10.7019012 184.223145,9.85059136 184.223145,8.765625 C184.223145,7.65917416 183.908939,6.78906567 183.280518,6.15527344 C182.652096,5.52148121 181.687995,5.20458984 180.388184,5.20458984 L176.504883,5.20458984 L176.504883,12.2460938 Z M206.846191,14.5825195 L197.564941,14.5825195 L197.564941,20.8666992 L208.45752,20.8666992 L208.45752,24.75 L192.730957,24.75 L192.730957,1.2890625 L208.425293,1.2890625 L208.425293,5.20458984 L197.564941,5.20458984 L197.564941,10.7958984 L206.846191,10.7958984 L206.846191,14.5825195 Z M224.538574,19.9160156 L216.062988,19.9160156 L214.45166,24.75 L209.311523,24.75 L218.044922,1.2890625 L222.524414,1.2890625 L231.306152,24.75 L226.166016,24.75 L224.538574,19.9160156 Z M217.368164,16.0004883 L223.233398,16.0004883 L220.284668,7.21875 L217.368164,16.0004883 Z M245.663086,18.5947266 C245.663086,17.6816361 245.340824,16.9807153 244.696289,16.4919434 C244.051755,16.0031714 242.89161,15.4875515 241.21582,14.9450684 C239.540031,14.4025852 238.213384,13.8681667 237.23584,13.3417969 C234.571764,11.9023366 233.239746,9.9633911 233.239746,7.52490234 C233.239746,6.25731788 233.59692,5.12671395 234.311279,4.13305664 C235.025638,3.13939933 236.051507,2.36328404 237.388916,1.8046875 C238.726325,1.24609096 240.227531,0.966796875 241.892578,0.966796875 C243.568368,0.966796875 245.061517,1.27026064 246.37207,1.87719727 C247.682624,2.48413389 248.700436,3.34081478 249.425537,4.44726562 C250.150638,5.55371647 250.513184,6.81053984 250.513184,8.21777344 L245.679199,8.21777344 C245.679199,7.14354932 245.340824,6.30835259 244.664062,5.7121582 C243.987301,5.11596382 243.036627,4.81787109 241.812012,4.81787109 C240.630365,4.81787109 239.711917,5.06762446 239.056641,5.56713867 C238.401364,6.06665289 238.07373,6.72460529 238.07373,7.54101562 C238.07373,8.30371475 238.45776,8.94286852 239.22583,9.45849609 C239.9939,9.97412367 241.124504,10.4575173 242.617676,10.9086914 C245.36769,11.735844 247.371087,12.7617126 248.62793,13.9863281 C249.884772,15.2109436 250.513184,16.736319 250.513184,18.5625 C250.513184,20.5927836 249.745125,22.185297 248.208984,23.3400879 C246.672844,24.4948788 244.604993,25.0722656 242.005371,25.0722656 C240.200675,25.0722656 238.557136,24.7419467 237.074707,24.0812988 C235.592278,23.420651 234.461674,22.5156307 233.682861,21.3662109 C232.904049,20.2167911 232.514648,18.8847732 232.514648,17.3701172 L237.364746,17.3701172 C237.364746,19.9589973 238.911606,21.253418 242.005371,21.253418 C243.154791,21.253418 244.051755,21.0197777 244.696289,20.5524902 C245.340824,20.0852027 245.663086,19.4326214 245.663086,18.5947266 Z M267.899414,14.5825195 L258.618164,14.5825195 L258.618164,20.8666992 L269.510742,20.8666992 L269.510742,24.75 L253.78418,24.75 L253.78418,1.2890625 L269.478516,1.2890625 L269.478516,5.20458984 L258.618164,5.20458984 L258.618164,10.7958984 L267.899414,10.7958984 L267.899414,14.5825195 Z M293.80957,19.9160156 L285.333984,19.9160156 L283.722656,24.75 L278.58252,24.75 L287.315918,1.2890625 L291.79541,1.2890625 L300.577148,24.75 L295.437012,24.75 L293.80957,19.9160156 Z M286.63916,16.0004883 L292.504395,16.0004883 L289.555664,7.21875 L286.63916,16.0004883 Z M321.84668,24.75 L317.012695,24.75 L307.602539,9.31347656 L307.602539,24.75 L302.768555,24.75 L302.768555,1.2890625 L307.602539,1.2890625 L317.028809,16.7578125 L317.028809,1.2890625 L321.84668,1.2890625 L321.84668,24.75 Z M339.42627,24.75 L334.592285,24.75 L334.592285,1.2890625 L339.42627,1.2890625 L339.42627,24.75 Z M361.565918,5.20458984 L354.379395,5.20458984 L354.379395,24.75 L349.54541,24.75 L349.54541,5.20458984 L342.455566,5.20458984 L342.455566,1.2890625 L361.565918,1.2890625 L361.565918,5.20458984 Z M378.436523,14.5825195 L369.155273,14.5825195 L369.155273,20.8666992 L380.047852,20.8666992 L380.047852,24.75 L364.321289,24.75 L364.321289,1.2890625 L380.015625,1.2890625 L380.015625,5.20458984 L369.155273,5.20458984 L369.155273,10.7958984 L378.436523,10.7958984 L378.436523,14.5825195 Z M389.200195,1.2890625 L395.226562,18.3046875 L401.220703,1.2890625 L407.569336,1.2890625 L407.569336,24.75 L402.719238,24.75 L402.719238,18.3369141 L403.202637,7.26708984 L396.870117,24.75 L393.550781,24.75 L387.234375,7.28320312 L387.717773,18.3369141 L387.717773,24.75 L382.883789,24.75 L382.883789,1.2890625 L389.200195,1.2890625 Z M412.822266,8.49169922 L410.630859,7.21875 C411.554692,5.76854744 412.032715,4.27002727 412.064941,2.72314453 L412.064941,0 L415.770996,0 L415.770996,2.49755859 C415.770996,3.4643603 415.502444,4.51171311 414.965332,5.63964844 C414.42822,6.76758376 413.713872,7.71825785 412.822266,8.49169922 Z M431.529785,18.5947266 C431.529785,17.6816361 431.207523,16.9807153 430.562988,16.4919434 C429.918454,16.0031714 428.758309,15.4875515 427.08252,14.9450684 C425.40673,14.4025852 424.080083,13.8681667 423.102539,13.3417969 C420.438463,11.9023366 419.106445,9.9633911 419.106445,7.52490234 C419.106445,6.25731788 419.463619,5.12671395 420.177979,4.13305664 C420.892338,3.13939933 421.918206,2.36328404 423.255615,1.8046875 C424.593024,1.24609096 426.09423,0.966796875 427.759277,0.966796875 C429.435067,0.966796875 430.928216,1.27026064 432.23877,1.87719727 C433.549323,2.48413389 434.567135,3.34081478 435.292236,4.44726562 C436.017338,5.55371647 436.379883,6.81053984 436.379883,8.21777344 L431.545898,8.21777344 C431.545898,7.14354932 431.207523,6.30835259 430.530762,5.7121582 C429.854001,5.11596382 428.903326,4.81787109 427.678711,4.81787109 C426.497064,4.81787109 425.578617,5.06762446 424.92334,5.56713867 C424.268063,6.06665289 423.94043,6.72460529 423.94043,7.54101562 C423.94043,8.30371475 424.324459,8.94286852 425.092529,9.45849609 C425.8606,9.97412367 426.991203,10.4575173 428.484375,10.9086914 C431.234389,11.735844 433.237787,12.7617126 434.494629,13.9863281 C435.751471,15.2109436 436.379883,16.736319 436.379883,18.5625 C436.379883,20.5927836 435.611824,22.185297 434.075684,23.3400879 C432.539543,24.4948788 430.471693,25.0722656 427.87207,25.0722656 C426.067374,25.0722656 424.423836,24.7419467 422.941406,24.0812988 C421.458977,23.420651 420.328373,22.5156307 419.549561,21.3662109 C418.770748,20.2167911 418.381348,18.8847732 418.381348,17.3701172 L423.231445,17.3701172 C423.231445,19.9589973 424.778305,21.253418 427.87207,21.253418 C429.02149,21.253418 429.918454,21.0197777 430.562988,20.5524902 C431.207523,20.0852027 431.529785,19.4326214 431.529785,18.5947266 Z M32.2426758,52.5512695 C32.2426758,54.7426867 31.8881871,56.6467204 31.1791992,58.2634277 C30.4702113,59.880135 29.487311,61.1772412 28.2304688,62.1547852 L32.1298828,65.2163086 L29.0522461,67.9394531 L24.0571289,63.9272461 C23.4877901,64.0239263 22.8969757,64.0722656 22.284668,64.0722656 C20.3403223,64.0722656 18.6054764,63.6049851 17.0800781,62.6704102 C15.5546799,61.7358352 14.3730511,60.4011317 13.5351562,58.6662598 C12.6972614,56.9313878 12.2729493,54.9360464 12.262207,52.6801758 L12.262207,51.5200195 C12.262207,49.2104377 12.6784626,47.177499 13.5109863,45.4211426 C14.34351,43.6647861 15.5197678,42.3166551 17.0397949,41.376709 C18.5598221,40.4367629 20.2973535,39.9667969 22.2524414,39.9667969 C24.2075293,39.9667969 25.9450608,40.4367629 27.4650879,41.376709 C28.985115,42.3166551 30.1613728,43.6647861 30.9938965,45.4211426 C31.8264202,47.177499 32.2426758,49.2050666 32.2426758,51.5039062 L32.2426758,52.5512695 Z M27.3442383,51.487793 C27.3442383,49.0278197 26.903813,47.1586978 26.0229492,45.8803711 C25.1420854,44.6020444 23.8852621,43.9628906 22.2524414,43.9628906 C20.630363,43.9628906 19.3789107,44.5939878 18.4980469,45.8562012 C17.6171831,47.1184145 17.1713868,48.9687378 17.1606445,51.4072266 L17.1606445,52.5512695 C17.1606445,54.9467893 17.6010698,56.8051692 18.4819336,58.1264648 C19.3627974,59.4477605 20.6303628,60.1083984 22.284668,60.1083984 C23.9067464,60.1083984 25.1528277,59.4719302 26.0229492,58.1989746 C26.8930708,56.926019 27.333496,55.0703247 27.3442383,52.6318359 L27.3442383,51.487793 Z M53.5444336,40.2890625 L53.5444336,55.7416992 C53.5444336,58.3090949 52.7414631,60.339348 51.135498,61.8325195 C49.529533,63.3256911 47.3354631,64.0722656 44.5532227,64.0722656 C41.8139511,64.0722656 39.6386799,63.3471752 38.0273438,61.8969727 C36.4160076,60.4467701 35.5942384,58.4541142 35.5620117,55.9189453 L35.5620117,40.2890625 L40.3959961,40.2890625 L40.3959961,55.7739258 C40.3959961,57.3100663 40.7639123,58.4299281 41.4997559,59.1335449 C42.2355994,59.8371617 43.2534115,60.1889648 44.5532227,60.1889648 C47.2710097,60.1889648 48.651367,58.7602682 48.6943359,55.902832 L48.6943359,40.2890625 L53.5444336,40.2890625 Z M70.753418,58.9160156 L62.277832,58.9160156 L60.6665039,63.75 L55.5263672,63.75 L64.2597656,40.2890625 L68.7392578,40.2890625 L77.5209961,63.75 L72.3808594,63.75 L70.753418,58.9160156 Z M63.5830078,55.0004883 L69.4482422,55.0004883 L66.4995117,46.21875 L63.5830078,55.0004883 Z M98.7905273,63.75 L93.956543,63.75 L84.5463867,48.3134766 L84.5463867,63.75 L79.7124023,63.75 L79.7124023,40.2890625 L84.5463867,40.2890625 L93.9726562,55.7578125 L93.9726562,40.2890625 L98.7905273,40.2890625 L98.7905273,63.75 Z M120.672363,44.2045898 L113.48584,44.2045898 L113.48584,63.75 L108.651855,63.75 L108.651855,44.2045898 L101.562012,44.2045898 L101.562012,40.2890625 L120.672363,40.2890625 L120.672363,44.2045898 Z M128.567871,63.75 L123.733887,63.75 L123.733887,40.2890625 L128.567871,40.2890625 L128.567871,63.75 Z M150.70752,44.2045898 L143.520996,44.2045898 L143.520996,63.75 L138.687012,63.75 L138.687012,44.2045898 L131.597168,44.2045898 L131.597168,40.2890625 L150.70752,40.2890625 L150.70752,44.2045898 Z M161.551758,50.859375 L166.434082,40.2890625 L171.719238,40.2890625 L164.01709,55.2421875 L164.01709,63.75 L159.102539,63.75 L159.102539,55.2421875 L151.400391,40.2890625 L156.70166,40.2890625 L161.551758,50.859375 Z M182.080078,63.75 L182.080078,40.2890625 L190.297852,40.2890625 C193.144545,40.2890625 195.303704,40.8342231 196.775391,41.9245605 C198.247078,43.014898 198.98291,44.6127824 198.98291,46.7182617 C198.98291,47.8676815 198.687503,48.8801226 198.09668,49.7556152 C197.505856,50.6311079 196.684087,51.2729472 195.631348,51.6811523 C196.834479,51.9819351 197.782467,52.5888626 198.475342,53.5019531 C199.168216,54.4150436 199.514648,55.53222 199.514648,56.8535156 C199.514648,59.1093863 198.794929,60.817377 197.355469,61.9775391 C195.916008,63.1377011 193.864271,63.7285155 191.200195,63.75 L182.080078,63.75 Z M186.914062,53.5341797 L186.914062,59.8666992 L191.055176,59.8666992 C192.193853,59.8666992 193.08276,59.5954617 193.721924,59.0529785 C194.361087,58.5104953 194.680664,57.7612352 194.680664,56.8051758 C194.680664,54.6567275 193.568859,53.5664064 191.345215,53.5341797 L186.914062,53.5341797 Z M186.914062,50.1181641 L190.491211,50.1181641 C192.9297,50.0751951 194.148926,49.1030369 194.148926,47.2016602 C194.148926,46.1381783 193.840091,45.3728051 193.222412,44.9055176 C192.604733,44.4382301 191.629889,44.2045898 190.297852,44.2045898 L186.914062,44.2045898 L186.914062,50.1181641 Z M211.229004,50.859375 L216.111328,40.2890625 L221.396484,40.2890625 L213.694336,55.2421875 L213.694336,63.75 L208.779785,63.75 L208.779785,55.2421875 L201.077637,40.2890625 L206.378906,40.2890625 L211.229004,50.859375 Z" id="EASILYINCREASEANITEM’SQUANTITYBY" fill="#000000"></path>
            <path d="M249.41748,44.2045898 L242.230957,44.2045898 L242.230957,63.75 L237.396973,63.75 L237.396973,44.2045898 L230.307129,44.2045898 L230.307129,40.2890625 L249.41748,40.2890625 L249.41748,44.2045898 Z M265.417969,58.9160156 L256.942383,58.9160156 L255.331055,63.75 L250.190918,63.75 L258.924316,40.2890625 L263.403809,40.2890625 L272.185547,63.75 L267.04541,63.75 L265.417969,58.9160156 Z M258.247559,55.0004883 L264.112793,55.0004883 L261.164062,46.21875 L258.247559,55.0004883 Z M279.210938,55.4838867 L279.210938,63.75 L274.376953,63.75 L274.376953,40.2890625 L283.529297,40.2890625 C285.291024,40.2890625 286.840569,40.6113249 288.177979,41.2558594 C289.515388,41.9003938 290.543942,42.8161562 291.263672,44.0031738 C291.983402,45.1901915 292.343262,46.5410081 292.343262,48.0556641 C292.343262,50.3545037 291.556404,52.1672297 289.982666,53.4938965 C288.408928,54.8205633 286.230971,55.4838867 283.44873,55.4838867 L279.210938,55.4838867 Z M279.210938,51.5683594 L283.529297,51.5683594 C284.807624,51.5683594 285.782467,51.2675811 286.453857,50.6660156 C287.125247,50.0644501 287.460938,49.2050837 287.460938,48.0878906 C287.460938,46.9384708 287.122562,46.0092809 286.445801,45.300293 C285.76904,44.591305 284.834479,44.2260743 283.64209,44.2045898 L279.210938,44.2045898 L279.210938,51.5683594 Z M300.496582,55.4838867 L300.496582,63.75 L295.662598,63.75 L295.662598,40.2890625 L304.814941,40.2890625 C306.576669,40.2890625 308.126214,40.6113249 309.463623,41.2558594 C310.801032,41.9003938 311.829586,42.8161562 312.549316,44.0031738 C313.269047,45.1901915 313.628906,46.5410081 313.628906,48.0556641 C313.628906,50.3545037 312.842049,52.1672297 311.268311,53.4938965 C309.694572,54.8205633 307.516615,55.4838867 304.734375,55.4838867 L300.496582,55.4838867 Z M300.496582,51.5683594 L304.814941,51.5683594 C306.093268,51.5683594 307.068112,51.2675811 307.739502,50.6660156 C308.410892,50.0644501 308.746582,49.2050837 308.746582,48.0878906 C308.746582,46.9384708 308.408207,46.0092809 307.731445,45.300293 C307.054684,44.591305 306.120123,44.2260743 304.927734,44.2045898 L300.496582,44.2045898 L300.496582,51.5683594 Z M322.088379,63.75 L317.254395,63.75 L317.254395,40.2890625 L322.088379,40.2890625 L322.088379,63.75 Z M345.645996,63.75 L340.812012,63.75 L331.401855,48.3134766 L331.401855,63.75 L326.567871,63.75 L326.567871,40.2890625 L331.401855,40.2890625 L340.828125,55.7578125 L340.828125,40.2890625 L345.645996,40.2890625 L345.645996,63.75 Z M368.430176,60.7851562 C367.560054,61.8271536 366.330086,62.6354952 364.740234,63.2102051 C363.150383,63.784915 361.388682,64.0722656 359.455078,64.0722656 C357.424795,64.0722656 355.644295,63.6291548 354.113525,62.7429199 C352.582756,61.856685 351.401127,60.5703209 350.568604,58.8837891 C349.73608,57.1972572 349.309082,55.2153434 349.287598,52.9379883 L349.287598,51.3427734 C349.287598,49.0009649 349.682369,46.9733972 350.471924,45.2600098 C351.261479,43.5466223 352.400139,42.2360885 353.887939,41.3283691 C355.37574,40.4206498 357.118642,39.9667969 359.116699,39.9667969 C361.89894,39.9667969 364.074211,40.6301203 365.642578,41.9567871 C367.210945,43.2834539 368.140135,45.2143428 368.430176,47.7495117 L363.725098,47.7495117 C363.510253,46.4067316 363.034916,45.4238312 362.299072,44.8007812 C361.563229,44.1777313 360.550788,43.8662109 359.261719,43.8662109 C357.618156,43.8662109 356.366704,44.4838805 355.507324,45.7192383 C354.647945,46.954596 354.212891,48.7914917 354.202148,51.2299805 L354.202148,52.7285156 C354.202148,55.1884889 354.669429,57.0468687 355.604004,58.3037109 C356.538579,59.5605532 357.908194,60.1889648 359.712891,60.1889648 C361.528329,60.1889648 362.82275,59.80225 363.596191,59.0288086 L363.596191,54.984375 L359.197266,54.984375 L359.197266,51.4233398 L368.430176,51.4233398 L368.430176,60.7851562 Z" id="TAPPING" fill="#ED094D"></path>
            <path d="M399.834961,52.5512695 C399.834961,54.8608514 399.426762,56.8857335 398.610352,58.6259766 C397.793941,60.3662196 396.62574,61.7089796 395.105713,62.6542969 C393.585686,63.5996141 391.842783,64.0722656 389.876953,64.0722656 C387.932607,64.0722656 386.197762,63.6049851 384.672363,62.6704102 C383.146965,61.7358352 381.965336,60.4011317 381.127441,58.6662598 C380.289547,56.9313878 379.865234,54.9360464 379.854492,52.6801758 L379.854492,51.5200195 C379.854492,49.2104377 380.270748,47.177499 381.103271,45.4211426 C381.935795,43.6647861 383.112053,42.3166551 384.63208,41.376709 C386.152107,40.4367629 387.889639,39.9667969 389.844727,39.9667969 C391.799814,39.9667969 393.537346,40.4367629 395.057373,41.376709 C396.5774,42.3166551 397.753658,43.6647861 398.586182,45.4211426 C399.418705,47.177499 399.834961,49.2050666 399.834961,51.5039062 L399.834961,52.5512695 Z M394.936523,51.487793 C394.936523,49.0278197 394.496098,47.1586978 393.615234,45.8803711 C392.734371,44.6020444 391.477547,43.9628906 389.844727,43.9628906 C388.222648,43.9628906 386.971196,44.5939878 386.090332,45.8562012 C385.209468,47.1184145 384.763672,48.9687378 384.75293,51.4072266 L384.75293,52.5512695 C384.75293,54.9467893 385.193355,56.8051692 386.074219,58.1264648 C386.955083,59.4477605 388.222648,60.1083984 389.876953,60.1083984 C391.499032,60.1083984 392.745113,59.4719302 393.615234,58.1989746 C394.485356,56.926019 394.925781,55.0703247 394.936523,52.6318359 L394.936523,51.487793 Z M422.425781,63.75 L417.591797,63.75 L408.181641,48.3134766 L408.181641,63.75 L403.347656,63.75 L403.347656,40.2890625 L408.181641,40.2890625 L417.60791,55.7578125 L417.60791,40.2890625 L422.425781,40.2890625 L422.425781,63.75 Z M44.3518066,83.2045898 L37.1652832,83.2045898 L37.1652832,102.75 L32.3312988,102.75 L32.3312988,83.2045898 L25.2414551,83.2045898 L25.2414551,79.2890625 L44.3518066,79.2890625 L44.3518066,83.2045898 Z M66.201416,102.75 L61.3674316,102.75 L61.3674316,92.6953125 L51.9411621,92.6953125 L51.9411621,102.75 L47.1071777,102.75 L47.1071777,79.2890625 L51.9411621,79.2890625 L51.9411621,88.7958984 L61.3674316,88.7958984 L61.3674316,79.2890625 L66.201416,79.2890625 L66.201416,102.75 Z M84.5383301,92.5825195 L75.2570801,92.5825195 L75.2570801,98.8666992 L86.1496582,98.8666992 L86.1496582,102.75 L70.4230957,102.75 L70.4230957,79.2890625 L86.1174316,79.2890625 L86.1174316,83.2045898 L75.2570801,83.2045898 L75.2570801,88.7958984 L84.5383301,88.7958984 L84.5383301,92.5825195 Z M102.343506,102.75 L97.5095215,102.75 L97.5095215,79.2890625 L102.343506,79.2890625 L102.343506,102.75 Z M124.483154,83.2045898 L117.296631,83.2045898 L117.296631,102.75 L112.462646,102.75 L112.462646,83.2045898 L105.372803,83.2045898 L105.372803,79.2890625 L124.483154,79.2890625 L124.483154,83.2045898 Z M141.35376,92.5825195 L132.07251,92.5825195 L132.07251,98.8666992 L142.965088,98.8666992 L142.965088,102.75 L127.238525,102.75 L127.238525,79.2890625 L142.932861,79.2890625 L142.932861,83.2045898 L132.07251,83.2045898 L132.07251,88.7958984 L141.35376,88.7958984 L141.35376,92.5825195 Z M152.117432,79.2890625 L158.143799,96.3046875 L164.137939,79.2890625 L170.486572,79.2890625 L170.486572,102.75 L165.636475,102.75 L165.636475,96.3369141 L166.119873,85.2670898 L159.787354,102.75 L156.468018,102.75 L150.151611,85.2832031 L150.63501,96.3369141 L150.63501,102.75 L145.801025,102.75 L145.801025,79.2890625 L152.117432,79.2890625 Z M187.76001,94.4838867 L187.76001,102.75 L182.926025,102.75 L182.926025,79.2890625 L192.078369,79.2890625 C193.840097,79.2890625 195.389642,79.6113249 196.727051,80.2558594 C198.06446,80.9003938 199.093014,81.8161562 199.812744,83.0031738 C200.532474,84.1901915 200.892334,85.5410081 200.892334,87.0556641 C200.892334,89.3545037 200.105477,91.1672297 198.531738,92.4938965 C196.958,93.8205633 194.780043,94.4838867 191.997803,94.4838867 L187.76001,94.4838867 Z M187.76001,90.5683594 L192.078369,90.5683594 C193.356696,90.5683594 194.33154,90.2675811 195.00293,89.6660156 C195.67432,89.0644501 196.01001,88.2050837 196.01001,87.0878906 C196.01001,85.9384708 195.671634,85.0092809 194.994873,84.300293 C194.318112,83.591305 193.383551,83.2260743 192.191162,83.2045898 L187.76001,83.2045898 L187.76001,90.5683594 Z M212.896729,94.1616211 L209.045654,94.1616211 L209.045654,102.75 L204.21167,102.75 L204.21167,79.2890625 L212.928955,79.2890625 C215.700453,79.2890625 217.838127,79.9067321 219.342041,81.1420898 C220.845955,82.3774476 221.5979,84.1230356 221.5979,86.3789062 C221.5979,87.9795002 221.251468,89.3142036 220.558594,90.3830566 C219.865719,91.4519096 218.815681,92.3032195 217.408447,92.9370117 L222.484131,102.524414 L222.484131,102.75 L217.295654,102.75 L212.896729,94.1616211 Z M209.045654,90.2460938 L212.945068,90.2460938 C214.158942,90.2460938 215.098874,89.9372589 215.764893,89.3195801 C216.430912,88.7019012 216.763916,87.8505914 216.763916,86.765625 C216.763916,85.6591742 216.44971,84.7890657 215.821289,84.1552734 C215.192868,83.5214812 214.228766,83.2045898 212.928955,83.2045898 L209.045654,83.2045898 L209.045654,90.2460938 Z M230.411865,102.75 L225.577881,102.75 L225.577881,79.2890625 L230.411865,79.2890625 L230.411865,102.75 Z M253.308838,94.9350586 C253.12622,97.4594853 252.194344,99.4467701 250.513184,100.896973 C248.832023,102.347175 246.616469,103.072266 243.866455,103.072266 C240.858628,103.072266 238.492684,102.059825 236.768555,100.034912 C235.044425,98.0099996 234.182373,95.2304864 234.182373,91.6962891 L234.182373,90.262207 C234.182373,88.0063364 234.57983,86.0190516 235.374756,84.300293 C236.169682,82.5815344 237.305657,81.262944 238.782715,80.3444824 C240.259773,79.4260208 241.97582,78.9667969 243.930908,78.9667969 C246.637953,78.9667969 248.818595,79.6918873 250.4729,81.1420898 C252.127206,82.5922924 253.083251,84.6279166 253.341064,87.2490234 L248.50708,87.2490234 C248.388915,85.7343674 247.967289,84.6359897 247.242188,83.9538574 C246.517086,83.2717251 245.413337,82.9306641 243.930908,82.9306641 C242.319572,82.9306641 241.113774,83.5080509 240.313477,84.6628418 C239.51318,85.8176327 239.102295,87.6088746 239.080811,90.0366211 L239.080811,91.809082 C239.080811,94.344251 239.46484,96.1972598 240.23291,97.3681641 C241.00098,98.5390684 242.21215,99.1245117 243.866455,99.1245117 C245.359627,99.1245117 246.474117,98.7834507 247.209961,98.1013184 C247.945804,97.419186 248.367431,96.3637767 248.474854,94.9350586 L253.308838,94.9350586 Z M270.598389,92.5825195 L261.317139,92.5825195 L261.317139,98.8666992 L272.209717,98.8666992 L272.209717,102.75 L256.483154,102.75 L256.483154,79.2890625 L272.17749,79.2890625 L272.17749,83.2045898 L261.317139,83.2045898 L261.317139,88.7958984 L270.598389,88.7958984 L270.598389,92.5825195 Z M283.263428,102.75 L283.263428,79.2890625 L291.481201,79.2890625 C294.327895,79.2890625 296.487053,79.8342231 297.95874,80.9245605 C299.430427,82.014898 300.16626,83.6127824 300.16626,85.7182617 C300.16626,86.8676815 299.870853,87.8801226 299.280029,88.7556152 C298.689206,89.6311079 297.867437,90.2729472 296.814697,90.6811523 C298.017828,90.9819351 298.965817,91.5888626 299.658691,92.5019531 C300.351566,93.4150436 300.697998,94.53222 300.697998,95.8535156 C300.697998,98.1093863 299.978279,99.817377 298.538818,100.977539 C297.099358,102.137701 295.047621,102.728516 292.383545,102.75 L283.263428,102.75 Z M288.097412,92.5341797 L288.097412,98.8666992 L292.238525,98.8666992 C293.377203,98.8666992 294.26611,98.5954617 294.905273,98.0529785 C295.544437,97.5104953 295.864014,96.7612352 295.864014,95.8051758 C295.864014,93.6567275 294.752208,92.5664064 292.528564,92.5341797 L288.097412,92.5341797 Z M288.097412,89.1181641 L291.674561,89.1181641 C294.113049,89.0751951 295.332275,88.1030369 295.332275,86.2016602 C295.332275,85.1381783 295.023441,84.3728051 294.405762,83.9055176 C293.788083,83.4382301 292.813239,83.2045898 291.481201,83.2045898 L288.097412,83.2045898 L288.097412,89.1181641 Z M322.080322,79.2890625 L322.080322,94.7416992 C322.080322,97.3090949 321.277352,99.339348 319.671387,100.83252 C318.065422,102.325691 315.871352,103.072266 313.089111,103.072266 C310.34984,103.072266 308.174569,102.347175 306.563232,100.896973 C304.951896,99.4467701 304.130127,97.4541142 304.0979,94.9189453 L304.0979,79.2890625 L308.931885,79.2890625 L308.931885,94.7739258 C308.931885,96.3100663 309.299801,97.4299281 310.035645,98.1335449 C310.771488,98.8371617 311.7893,99.1889648 313.089111,99.1889648 C315.806898,99.1889648 317.187256,97.7602682 317.230225,94.902832 L317.230225,79.2890625 L322.080322,79.2890625 Z M343.704346,83.2045898 L336.517822,83.2045898 L336.517822,102.75 L331.683838,102.75 L331.683838,83.2045898 L324.593994,83.2045898 L324.593994,79.2890625 L343.704346,79.2890625 L343.704346,83.2045898 Z M364.119873,83.2045898 L356.93335,83.2045898 L356.93335,102.75 L352.099365,102.75 L352.099365,83.2045898 L345.009521,83.2045898 L345.009521,79.2890625 L364.119873,79.2890625 L364.119873,83.2045898 Z M386.146729,91.5512695 C386.146729,93.8608514 385.738529,95.8857335 384.922119,97.6259766 C384.105709,99.3662196 382.937508,100.70898 381.41748,101.654297 C379.897453,102.599614 378.154551,103.072266 376.188721,103.072266 C374.244375,103.072266 372.509529,102.604985 370.984131,101.67041 C369.458733,100.735835 368.277104,99.4011317 367.439209,97.6662598 C366.601314,95.9313878 366.177002,93.9360464 366.16626,91.6801758 L366.16626,90.5200195 C366.16626,88.2104377 366.582515,86.177499 367.415039,84.4211426 C368.247563,82.6647861 369.423821,81.3166551 370.943848,80.376709 C372.463875,79.4367629 374.201406,78.9667969 376.156494,78.9667969 C378.111582,78.9667969 379.849113,79.4367629 381.369141,80.376709 C382.889168,81.3166551 384.065426,82.6647861 384.897949,84.4211426 C385.730473,86.177499 386.146729,88.2050666 386.146729,90.5039062 L386.146729,91.5512695 Z M381.248291,90.487793 C381.248291,88.0278197 380.807866,86.1586978 379.927002,84.8803711 C379.046138,83.6020444 377.789315,82.9628906 376.156494,82.9628906 C374.534416,82.9628906 373.282963,83.5939878 372.4021,84.8562012 C371.521236,86.1184145 371.07544,87.9687378 371.064697,90.4072266 L371.064697,91.5512695 C371.064697,93.9467893 371.505123,95.8051692 372.385986,97.1264648 C373.26685,98.4477605 374.534416,99.1083984 376.188721,99.1083984 C377.810799,99.1083984 379.05688,98.4719302 379.927002,97.1989746 C380.797123,95.926019 381.237549,94.0703247 381.248291,91.6318359 L381.248291,90.487793 Z M408.737549,102.75 L403.903564,102.75 L394.493408,87.3134766 L394.493408,102.75 L389.659424,102.75 L389.659424,79.2890625 L394.493408,79.2890625 L403.919678,94.7578125 L403.919678,79.2890625 L408.737549,79.2890625 L408.737549,102.75 Z" id="ONTHEITEMPRICEBUTTON" fill="#000000"></path>
        </g>
    </g>
</svg>