<?xml version="1.0" encoding="UTF-8"?>
<svg width="570px" height="792px" viewBox="0 0 570 792" version="1.1" xmlns="http://www.w3.org/2000/svg" xmlns:xlink="http://www.w3.org/1999/xlink">
    <!-- Generator: Sketch 54.1 (76490) - https://sketchapp.com -->
    <title>B2_items_en</title>
    <desc>Created with Sketch.</desc>
    <g id="B2_items_en" stroke="none" stroke-width="1" fill="none" fill-rule="evenodd">
        <rect id="Rectangle" fill="#00B0FF" x="0" y="0" width="570" height="792" rx="16"></rect>
        <path d="M47,252 L524,252 C530.627417,252 536,257.372583 536,264 L536,779 L35,779 L35,264 C35,257.372583 40.372583,252 47,252 Z" id="Rectangle" fill="#080B26"></path>
        <rect id="Rectangle" fill="#FFFFFF" x="35" y="42" width="501" height="145" rx="12"></rect>
        <rect id="Rectangle" fill="#375270" opacity="0.295014881" x="35" y="292" width="501" height="104"></rect>
        <path d="M320,308 L503,308 C510.179702,308 516,313.820298 516,321 L516,367 C516,374.179702 510.179702,380 503,380 L320,380 C312.820298,380 307,374.179702 307,367 L307,321 C307,313.820298 312.820298,308 320,308 Z M320,313 C315.581722,313 312,316.581722 312,321 L312,367 C312,371.418278 315.581722,375 320,375 L503,375 C507.418278,375 511,371.418278 511,367 L511,321 C511,316.581722 507.418278,313 503,313 L320,313 Z" id="Rectangle" fill="#00D3FF" fill-rule="nonzero"></path>
        <polygon id="Line-2" fill="#FFFFFF" fill-rule="nonzero" points="411 230.776337 411 176 419 176 419 230.776337 437 230.776337 415 293 393 230.776337 411 230.776337"></polygon>
        <path d="M330.287256,342.707031 L332.768701,342.707031 C333.950348,342.707031 334.825827,342.411624 335.395166,341.820801 C335.964505,341.229978 336.24917,340.445806 336.24917,339.468262 C336.24917,338.522944 335.96719,337.787112 335.403223,337.260742 C334.839255,336.734372 334.06314,336.471191 333.074854,336.471191 C332.183247,336.471191 331.436673,336.715574 330.835107,337.204346 C330.233542,337.693118 329.932764,338.329586 329.932764,339.11377 L325.276025,339.11377 C325.276025,337.889154 325.606344,336.790776 326.266992,335.818604 C326.92764,334.846431 327.851459,334.086429 329.038477,333.538574 C330.225494,332.99072 331.533342,332.716797 332.962061,332.716797 C335.443518,332.716797 337.387835,333.310297 338.795068,334.497314 C340.202302,335.684332 340.905908,337.319814 340.905908,339.403809 C340.905908,340.478033 340.578275,341.466304 339.922998,342.368652 C339.267721,343.271001 338.408355,343.963865 337.344873,344.447266 C338.666169,344.919924 339.651755,345.628902 340.30166,346.574219 C340.951566,347.519536 341.276514,348.636712 341.276514,349.925781 C341.276514,352.009776 340.516512,353.680169 338.996484,354.937012 C337.476457,356.193854 335.465003,356.822266 332.962061,356.822266 C330.620252,356.822266 328.705476,356.204596 327.217676,354.969238 C325.729875,353.733881 324.985986,352.101084 324.985986,350.070801 L329.642725,350.070801 C329.642725,350.951665 329.973044,351.671384 330.633691,352.22998 C331.294339,352.788577 332.108052,353.067871 333.074854,353.067871 C334.181304,353.067871 335.048727,352.775149 335.677148,352.189697 C336.30557,351.604245 336.619775,350.82813 336.619775,349.861328 C336.619775,347.51952 335.330726,346.348633 332.752588,346.348633 L330.287256,346.348633 L330.287256,342.707031 Z M354.415088,344.27002 L357.347705,339.06543 L362.326709,339.06543 L357.363818,347.605469 L362.536182,356.5 L357.541064,356.5 L354.431201,351.021484 L351.337451,356.5 L346.326221,356.5 L351.498584,347.605469 L346.551807,339.06543 L351.546924,339.06543 L354.415088,344.27002 Z M378.607373,350.328613 C378.607373,349.44775 378.362991,348.746829 377.874219,348.22583 C377.385447,347.704831 376.555621,347.224123 375.384717,346.783691 C374.213813,346.34326 373.204057,345.90552 372.35542,345.470459 C371.506783,345.035398 370.779007,344.535891 370.17207,343.971924 C369.565134,343.407956 369.092482,342.744633 368.754102,341.981934 C368.415721,341.219234 368.246533,340.311529 368.246533,339.258789 C368.246533,337.44335 368.826606,335.955572 369.986768,334.79541 C371.14693,333.635248 372.688418,332.958497 374.611279,332.765137 L374.611279,329.316895 L377.189404,329.316895 L377.189404,332.813477 C379.090781,333.082033 380.578559,333.874261 381.652783,335.190186 C382.727007,336.50611 383.264111,338.211415 383.264111,340.306152 L378.607373,340.306152 C378.607373,339.017083 378.341507,338.052982 377.809766,337.413818 C377.278025,336.774655 376.566362,336.455078 375.674756,336.455078 C374.793892,336.455078 374.11177,336.704831 373.628369,337.204346 C373.144968,337.70386 372.903271,338.394039 372.903271,339.274902 C372.903271,340.091313 373.139597,340.74658 373.612256,341.240723 C374.084914,341.734866 374.96308,342.239744 376.246777,342.755371 C377.530475,343.270999 378.585885,343.757078 379.413037,344.213623 C380.24019,344.670168 380.938425,345.185788 381.507764,345.760498 C382.077102,346.335208 382.512157,346.990475 382.812939,347.726318 C383.113722,348.462162 383.264111,349.318843 383.264111,350.296387 C383.264111,352.122568 382.694781,353.604975 381.556104,354.743652 C380.417426,355.88233 378.849082,356.55371 376.851025,356.757812 L376.851025,359.964355 L374.289014,359.964355 L374.289014,356.773926 C372.086854,356.537596 370.381549,355.75611 369.173047,354.429443 C367.964545,353.102777 367.360303,351.33839 367.360303,349.13623 L372.017041,349.13623 C372.017041,350.414557 372.320505,351.394772 372.927441,352.076904 C373.534378,352.759037 374.407172,353.100098 375.54585,353.100098 C376.491167,353.100098 377.237741,352.850344 377.785596,352.35083 C378.33345,351.851316 378.607373,351.17725 378.607373,350.328613 Z M405.45835,335.649414 L396.386572,356.5 L391.472021,356.5 L400.559912,336.80957 L388.893896,336.80957 L388.893896,333.039062 L405.45835,333.039062 L405.45835,335.649414 Z M408.874365,354.211914 C408.874365,353.470699 409.124119,352.869143 409.623633,352.407227 C410.123147,351.94531 410.748873,351.714355 411.50083,351.714355 C412.263529,351.714355 412.894626,351.94531 413.394141,352.407227 C413.893655,352.869143 414.143408,353.470699 414.143408,354.211914 C414.143408,354.942386 413.89634,355.535886 413.402197,355.992432 C412.908054,356.448977 412.274271,356.677246 411.50083,356.677246 C410.738131,356.677246 410.109719,356.448977 409.615576,355.992432 C409.121433,355.535886 408.874365,354.942386 408.874365,354.211914 Z M431.803564,347.669922 L434.462256,347.669922 L434.462256,351.424316 L431.803564,351.424316 L431.803564,356.5 L427.146826,356.5 L427.146826,351.424316 L417.527197,351.424316 L417.317725,348.491699 L427.098486,333.039062 L431.803564,333.039062 L431.803564,347.669922 Z M421.95835,347.669922 L427.146826,347.669922 L427.146826,339.387695 L426.840674,339.919434 L421.95835,347.669922 Z M447.852393,347.12207 C446.638519,348.314459 445.220565,348.910645 443.598486,348.910645 C441.525234,348.910645 439.865582,348.198982 438.619482,346.775635 C437.373382,345.352288 436.750342,343.432141 436.750342,341.015137 C436.750342,339.478996 437.086032,338.069098 437.757422,336.7854 C438.428812,335.501703 439.366058,334.502689 440.569189,333.78833 C441.77232,333.073971 443.125823,332.716797 444.629736,332.716797 C446.176619,332.716797 447.551605,333.103512 448.754736,333.876953 C449.957867,334.650394 450.892428,335.7622 451.558447,337.212402 C452.224466,338.662605 452.562842,340.322256 452.573584,342.191406 L452.573584,343.915527 C452.573584,347.825703 451.601426,350.897938 449.65708,353.132324 C447.712734,355.36671 444.957391,356.559081 441.390967,356.709473 L440.246924,356.725586 L440.246924,352.842285 L441.278174,352.826172 C445.327999,352.643554 447.519383,350.742206 447.852393,347.12207 Z M444.742529,345.349609 C445.494486,345.349609 446.141697,345.156252 446.68418,344.769531 C447.226663,344.382811 447.637547,343.91553 447.916846,343.367676 L447.916846,341.450195 C447.916846,339.871086 447.616067,338.646489 447.014502,337.776367 C446.412936,336.906246 445.60728,336.471191 444.59751,336.471191 C443.662935,336.471191 442.894876,336.898189 442.293311,337.752197 C441.691745,338.606205 441.390967,339.677728 441.390967,340.966797 C441.390967,342.245124 441.683688,343.295162 442.269141,344.116943 C442.854593,344.938725 443.679047,345.349609 444.742529,345.349609 Z M472.328467,356.822266 C469.771813,356.822266 467.690535,356.038094 466.08457,354.469727 C464.478605,352.901359 463.675635,350.812025 463.675635,348.20166 L463.675635,347.750488 C463.675635,345.999503 464.01401,344.433845 464.690771,343.053467 C465.367533,341.673089 466.326263,340.609623 467.566992,339.863037 C468.807721,339.116451 470.22299,338.743164 471.812842,338.743164 C474.197619,338.743164 476.074798,339.49511 477.444434,340.999023 C478.814069,342.502937 479.498877,344.63524 479.498877,347.395996 L479.498877,349.297363 L468.396826,349.297363 C468.547218,350.436041 469.00107,351.349118 469.758398,352.036621 C470.515726,352.724125 471.474457,353.067871 472.634619,353.067871 C474.428573,353.067871 475.830415,352.417975 476.840186,351.118164 L479.128271,353.680176 C478.430026,354.668462 477.484723,355.439206 476.292334,355.992432 C475.099945,356.545657 473.778669,356.822266 472.328467,356.822266 Z M471.796729,342.513672 C470.872896,342.513672 470.123636,342.825192 469.548926,343.448242 C468.974216,344.071292 468.6063,344.962885 468.445166,346.123047 L474.922705,346.123047 L474.922705,345.752441 C474.901221,344.721186 474.621927,343.923587 474.084814,343.359619 C473.547702,342.795651 472.785015,342.513672 471.796729,342.513672 Z M492.244482,356.5 C492.029638,356.081053 491.873877,355.560062 491.777197,354.937012 C490.649262,356.193854 489.182968,356.822266 487.378271,356.822266 C485.670255,356.822266 484.254986,356.32813 483.132422,355.339844 C482.009858,354.351558 481.448584,353.105476 481.448584,351.601562 C481.448584,349.753897 482.133392,348.335942 483.503027,347.347656 C484.872663,346.35937 486.851891,345.859863 489.440771,345.849121 L491.583838,345.849121 L491.583838,344.850098 C491.583838,344.04443 491.377053,343.399905 490.963477,342.916504 C490.5499,342.433103 489.897319,342.191406 489.005713,342.191406 C488.221529,342.191406 487.606545,342.379393 487.160742,342.755371 C486.714939,343.13135 486.492041,343.646969 486.492041,344.302246 L481.835303,344.302246 C481.835303,343.292475 482.146823,342.357914 482.769873,341.498535 C483.392923,340.639156 484.273774,339.96509 485.412451,339.476318 C486.551129,338.987546 487.829436,338.743164 489.247412,338.743164 C491.39586,338.743164 493.101166,339.282954 494.363379,340.362549 C495.625592,341.442144 496.256689,342.959463 496.256689,344.914551 L496.256689,352.47168 C496.267432,354.125985 496.498386,355.377437 496.949561,356.226074 L496.949561,356.5 L492.244482,356.5 Z M488.393408,353.26123 C489.080912,353.26123 489.714694,353.108156 490.294775,352.802002 C490.874856,352.495848 491.30454,352.084964 491.583838,351.569336 L491.583838,348.572266 L489.843604,348.572266 C487.512537,348.572266 486.271827,349.377922 486.121436,350.989258 L486.105322,351.263184 C486.105322,351.843265 486.309422,352.321287 486.717627,352.697266 C487.125832,353.073244 487.68442,353.26123 488.393408,353.26123 Z" id="3x$7.49ea" fill="#00D3FF" fill-rule="nonzero"></path>
        <path d="M61.552002,355 L61.552002,331.539062 L69.7697754,331.539062 C72.6164693,331.539062 74.7756274,332.084223 76.2473145,333.174561 C77.7190015,334.264898 78.454834,335.862782 78.454834,337.968262 C78.454834,339.117682 78.1594268,340.130123 77.5686035,341.005615 C76.9777802,341.881108 76.1560111,342.522947 75.1032715,342.931152 C76.3064025,343.231935 77.2543911,343.838863 77.9472656,344.751953 C78.6401402,345.665044 78.9865723,346.78222 78.9865723,348.103516 C78.9865723,350.359386 78.2668529,352.067377 76.8273926,353.227539 C75.3879323,354.387701 73.336195,354.978516 70.6721191,355 L61.552002,355 Z M66.3859863,344.78418 L66.3859863,351.116699 L70.5270996,351.116699 C71.6657772,351.116699 72.5546843,350.845462 73.1938477,350.302979 C73.833011,349.760495 74.1525879,349.011235 74.1525879,348.055176 C74.1525879,345.906728 73.0407826,344.816406 70.8171387,344.78418 L66.3859863,344.78418 Z M66.3859863,341.368164 L69.9631348,341.368164 C72.4016235,341.325195 73.6208496,340.353037 73.6208496,338.45166 C73.6208496,337.388178 73.3120148,336.622805 72.6943359,336.155518 C72.0766571,335.68823 71.1018133,335.45459 69.7697754,335.45459 L66.3859863,335.45459 L66.3859863,341.368164 Z M82.6120605,355 L82.6120605,331.539062 L90.829834,331.539062 C93.6765279,331.539062 95.835686,332.084223 97.307373,333.174561 C98.7790601,334.264898 99.5148926,335.862782 99.5148926,337.968262 C99.5148926,339.117682 99.2194854,340.130123 98.6286621,341.005615 C98.0378388,341.881108 97.2160697,342.522947 96.1633301,342.931152 C97.3664611,343.231935 98.3144497,343.838863 99.0073242,344.751953 C99.7001988,345.665044 100.046631,346.78222 100.046631,348.103516 C100.046631,350.359386 99.3269115,352.067377 97.8874512,353.227539 C96.4479908,354.387701 94.3962536,354.978516 91.7321777,355 L82.6120605,355 Z M87.4460449,344.78418 L87.4460449,351.116699 L91.5871582,351.116699 C92.7258358,351.116699 93.6147429,350.845462 94.2539062,350.302979 C94.8930696,349.760495 95.2126465,349.011235 95.2126465,348.055176 C95.2126465,345.906728 94.1008412,344.816406 91.8771973,344.78418 L87.4460449,344.78418 Z M87.4460449,341.368164 L91.0231934,341.368164 C93.4616821,341.325195 94.6809082,340.353037 94.6809082,338.45166 C94.6809082,337.388178 94.3720734,336.622805 93.7543945,336.155518 C93.1367157,335.68823 92.1618719,335.45459 90.829834,335.45459 L87.4460449,335.45459 L87.4460449,341.368164 Z M122.911377,343.80127 C122.911377,345.992687 122.556888,347.89672 121.8479,349.513428 C121.138912,351.130135 120.156012,352.427241 118.89917,353.404785 L122.798584,356.466309 L119.720947,359.189453 L114.72583,355.177246 C114.156491,355.273926 113.565677,355.322266 112.953369,355.322266 C111.009023,355.322266 109.274178,354.854985 107.748779,353.92041 C106.223381,352.985835 105.041752,351.651132 104.203857,349.91626 C103.365963,348.181388 102.94165,346.186046 102.930908,343.930176 L102.930908,342.77002 C102.930908,340.460438 103.347164,338.427499 104.179688,336.671143 C105.012211,334.914786 106.188469,333.566655 107.708496,332.626709 C109.228523,331.686763 110.966055,331.216797 112.921143,331.216797 C114.87623,331.216797 116.613762,331.686763 118.133789,332.626709 C119.653816,333.566655 120.830074,334.914786 121.662598,336.671143 C122.495121,338.427499 122.911377,340.455067 122.911377,342.753906 L122.911377,343.80127 Z M118.012939,342.737793 C118.012939,340.27782 117.572514,338.408698 116.69165,337.130371 C115.810787,335.852044 114.553963,335.212891 112.921143,335.212891 C111.299064,335.212891 110.047612,335.843988 109.166748,337.106201 C108.285884,338.368415 107.840088,340.218738 107.829346,342.657227 L107.829346,343.80127 C107.829346,346.196789 108.269771,348.055169 109.150635,349.376465 C110.031499,350.697761 111.299064,351.358398 112.953369,351.358398 C114.575448,351.358398 115.821529,350.72193 116.69165,349.448975 C117.561772,348.176019 118.002197,346.320325 118.012939,343.881836 L118.012939,342.737793 Z M153.091553,347.185059 C152.908935,349.709485 151.977059,351.69677 150.295898,353.146973 C148.614738,354.597175 146.399184,355.322266 143.64917,355.322266 C140.641342,355.322266 138.275399,354.309825 136.55127,352.284912 C134.82714,350.26 133.965088,347.480486 133.965088,343.946289 L133.965088,342.512207 C133.965088,340.256336 134.362545,338.269052 135.157471,336.550293 C135.952397,334.831534 137.088372,333.512944 138.56543,332.594482 C140.042488,331.676021 141.758535,331.216797 143.713623,331.216797 C146.420668,331.216797 148.60131,331.941887 150.255615,333.39209 C151.90992,334.842292 152.865966,336.877917 153.123779,339.499023 L148.289795,339.499023 C148.17163,337.984367 147.750004,336.88599 147.024902,336.203857 C146.299801,335.521725 145.196052,335.180664 143.713623,335.180664 C142.102287,335.180664 140.896488,335.758051 140.096191,336.912842 C139.295894,338.067633 138.88501,339.858875 138.863525,342.286621 L138.863525,344.059082 C138.863525,346.594251 139.247555,348.44726 140.015625,349.618164 C140.783695,350.789068 141.994865,351.374512 143.64917,351.374512 C145.142341,351.374512 146.256832,351.033451 146.992676,350.351318 C147.728519,349.669186 148.150146,348.613777 148.257568,347.185059 L153.091553,347.185059 Z M160.503662,339.466797 C161.73902,337.984368 163.29125,337.243164 165.1604,337.243164 C168.941669,337.243164 170.859131,339.439919 170.912842,343.833496 L170.912842,355 L166.256104,355 L166.256104,343.962402 C166.256104,342.963374 166.041262,342.224856 165.611572,341.746826 C165.181883,341.268796 164.467534,341.029785 163.468506,341.029785 C162.104241,341.029785 161.11597,341.556147 160.503662,342.608887 L160.503662,355 L155.846924,355 L155.846924,330.25 L160.503662,330.25 L160.503662,339.466797 Z M179.340088,355 L174.667236,355 L174.667236,337.56543 L179.340088,337.56543 L179.340088,355 Z M174.393311,333.053711 C174.393311,332.355465 174.626951,331.780764 175.094238,331.32959 C175.561526,330.878416 176.197994,330.652832 177.003662,330.652832 C177.798588,330.652832 178.432371,330.878416 178.905029,331.32959 C179.377688,331.780764 179.614014,332.355465 179.614014,333.053711 C179.614014,333.762699 179.375002,334.342771 178.896973,334.793945 C178.418943,335.245119 177.787846,335.470703 177.003662,335.470703 C176.219479,335.470703 175.588381,335.245119 175.110352,334.793945 C174.632322,334.342771 174.393311,333.762699 174.393311,333.053711 Z M190.426025,351.567871 C191.285405,351.567871 191.98364,351.331545 192.520752,350.858887 C193.057864,350.386228 193.337158,349.757816 193.358643,348.973633 L197.725342,348.973633 C197.7146,350.155279 197.392337,351.237544 196.758545,352.220459 C196.124753,353.203374 195.25733,353.966062 194.15625,354.508545 C193.05517,355.051028 191.83863,355.322266 190.506592,355.322266 C188.014392,355.322266 186.048591,354.530037 184.609131,352.945557 C183.169671,351.361076 182.449951,349.172377 182.449951,346.379395 L182.449951,346.073242 C182.449951,343.387682 183.164299,341.244637 184.593018,339.644043 C186.021736,338.043449 187.982165,337.243164 190.474365,337.243164 C192.65504,337.243164 194.403314,337.863519 195.719238,339.104248 C197.035163,340.344977 197.703857,341.996572 197.725342,344.059082 L193.358643,344.059082 C193.337158,343.156734 193.057864,342.423587 192.520752,341.859619 C191.98364,341.295651 191.274663,341.013672 190.393799,341.013672 C189.308832,341.013672 188.489749,341.408443 187.936523,342.197998 C187.383298,342.987553 187.106689,344.268546 187.106689,346.041016 L187.106689,346.524414 C187.106689,348.318368 187.380612,349.607418 187.928467,350.391602 C188.476321,351.175785 189.308832,351.567871 190.426025,351.567871 Z M206.716553,348.006836 L205.040771,349.682617 L205.040771,355 L200.384033,355 L200.384033,330.25 L205.040771,330.25 L205.040771,343.962402 L205.943115,342.802246 L210.406494,337.56543 L215.997803,337.56543 L209.69751,344.83252 L216.545654,355 L211.196045,355 L206.716553,348.006836 Z M226.036377,355.322266 C223.479724,355.322266 221.398446,354.538094 219.79248,352.969727 C218.186515,351.401359 217.383545,349.312025 217.383545,346.70166 L217.383545,346.250488 C217.383545,344.499503 217.72192,342.933845 218.398682,341.553467 C219.075443,340.173089 220.034173,339.109623 221.274902,338.363037 C222.515631,337.616451 223.9309,337.243164 225.520752,337.243164 C227.90553,337.243164 229.782708,337.99511 231.152344,339.499023 C232.52198,341.002937 233.206787,343.13524 233.206787,345.895996 L233.206787,347.797363 L222.104736,347.797363 C222.255128,348.936041 222.708981,349.849118 223.466309,350.536621 C224.223637,351.224125 225.182367,351.567871 226.342529,351.567871 C228.136484,351.567871 229.538325,350.917975 230.548096,349.618164 L232.836182,352.180176 C232.137936,353.168462 231.192633,353.939206 230.000244,354.492432 C228.807855,355.045657 227.48658,355.322266 226.036377,355.322266 Z M225.504639,341.013672 C224.580806,341.013672 223.831546,341.325192 223.256836,341.948242 C222.682126,342.571292 222.31421,343.462885 222.153076,344.623047 L228.630615,344.623047 L228.630615,344.252441 C228.609131,343.221186 228.329837,342.423587 227.792725,341.859619 C227.255613,341.295651 226.492925,341.013672 225.504639,341.013672 Z M240.135498,337.56543 L240.280518,339.57959 C241.526618,338.021965 243.197011,337.243164 245.291748,337.243164 C247.139414,337.243164 248.5144,337.785639 249.416748,338.870605 C250.319096,339.955572 250.781006,341.577626 250.80249,343.736816 L250.80249,355 L246.145752,355 L246.145752,343.849609 C246.145752,342.861323 245.93091,342.144289 245.501221,341.698486 C245.071531,341.252683 244.357183,341.029785 243.358154,341.029785 C242.047601,341.029785 241.064701,341.588373 240.409424,342.705566 L240.409424,355 L235.752686,355 L235.752686,337.56543 L240.135498,337.56543 Z" id="BBQChicken" fill="#00D3FF" fill-rule="nonzero"></path>
        <g id="TAP-AND-HOLD-THE-ITE" transform="translate(57.706055, 63.216797)" fill-rule="nonzero">
            <path d="M52.5776367,4.23779297 L45.3911133,4.23779297 L45.3911133,23.7832031 L40.5571289,23.7832031 L40.5571289,4.23779297 L33.4672852,4.23779297 L33.4672852,0.322265625 L52.5776367,0.322265625 L52.5776367,4.23779297 Z M68.578125,18.9492188 L60.1025391,18.9492188 L58.4912109,23.7832031 L53.3510742,23.7832031 L62.0844727,0.322265625 L66.5639648,0.322265625 L75.3457031,23.7832031 L70.2055664,23.7832031 L68.578125,18.9492188 Z M61.4077148,15.0336914 L67.2729492,15.0336914 L64.3242188,6.25195312 L61.4077148,15.0336914 Z M82.3710938,15.5170898 L82.3710938,23.7832031 L77.5371094,23.7832031 L77.5371094,0.322265625 L86.6894531,0.322265625 C88.4511807,0.322265625 90.0007257,0.644528027 91.3381348,1.2890625 C92.6755438,1.93359697 93.704098,2.8493593 94.4238281,4.03637695 C95.1435583,5.22339461 95.503418,6.57421118 95.503418,8.08886719 C95.503418,10.3877068 94.7165606,12.2004328 93.1428223,13.5270996 C91.5690839,14.8537664 89.3911272,15.5170898 86.6088867,15.5170898 L82.3710938,15.5170898 Z M82.3710938,11.6015625 L86.6894531,11.6015625 C87.9677798,11.6015625 88.9426236,11.3007843 89.6140137,10.6992188 C90.2854037,10.0976532 90.6210938,9.23828684 90.6210938,8.12109375 C90.6210938,6.97167394 90.2827182,6.04248401 89.605957,5.33349609 C88.9291958,4.62450817 87.9946349,4.25927745 86.8022461,4.23779297 L82.3710938,4.23779297 L82.3710938,11.6015625 Z M120.285645,18.9492188 L111.810059,18.9492188 L110.19873,23.7832031 L105.058594,23.7832031 L113.791992,0.322265625 L118.271484,0.322265625 L127.053223,23.7832031 L121.913086,23.7832031 L120.285645,18.9492188 Z M113.115234,15.0336914 L118.980469,15.0336914 L116.031738,6.25195312 L113.115234,15.0336914 Z M148.322754,23.7832031 L143.48877,23.7832031 L134.078613,8.34667969 L134.078613,23.7832031 L129.244629,23.7832031 L129.244629,0.322265625 L134.078613,0.322265625 L143.504883,15.7910156 L143.504883,0.322265625 L148.322754,0.322265625 L148.322754,23.7832031 Z M152.544434,23.7832031 L152.544434,0.322265625 L159.763184,0.322265625 C161.825694,0.322265625 163.670646,0.786860588 165.298096,1.71606445 C166.925545,2.64526832 168.195796,3.96654417 169.108887,5.67993164 C170.021977,7.39331911 170.478516,9.34032113 170.478516,11.5209961 L170.478516,12.6005859 C170.478516,14.7812609 170.030034,16.7202064 169.133057,18.4174805 C168.236079,20.1147546 166.9712,21.4306594 165.338379,22.3652344 C163.705558,23.2998094 161.863292,23.7724609 159.811523,23.7832031 L152.544434,23.7832031 Z M157.378418,4.23779297 L157.378418,19.8999023 L159.714844,19.8999023 C161.605478,19.8999023 163.050288,19.2822327 164.049316,18.046875 C165.048345,16.8115173 165.558594,15.0444451 165.580078,12.7456055 L165.580078,11.5048828 C165.580078,9.12010526 165.085942,7.31275029 164.097656,6.08276367 C163.10937,4.85277705 161.66456,4.23779297 159.763184,4.23779297 L157.378418,4.23779297 Z M201.303223,23.7832031 L196.469238,23.7832031 L196.469238,13.7285156 L187.042969,13.7285156 L187.042969,23.7832031 L182.208984,23.7832031 L182.208984,0.322265625 L187.042969,0.322265625 L187.042969,9.82910156 L196.469238,9.82910156 L196.469238,0.322265625 L201.303223,0.322265625 L201.303223,23.7832031 Z M224.796387,12.5844727 C224.796387,14.8940545 224.388188,16.9189366 223.571777,18.6591797 C222.755367,20.3994228 221.587166,21.7421828 220.067139,22.6875 C218.547112,23.6328172 216.804209,24.1054688 214.838379,24.1054688 C212.894033,24.1054688 211.159187,23.6381883 209.633789,22.7036133 C208.108391,21.7690383 206.926762,20.4343348 206.088867,18.6994629 C205.250972,16.9645909 204.82666,14.9692496 204.815918,12.7133789 L204.815918,11.5532227 C204.815918,9.2436408 205.232174,7.21070214 206.064697,5.4543457 C206.897221,3.69798927 208.073479,2.34985822 209.593506,1.40991211 C211.113533,0.469966003 212.851064,0 214.806152,0 C216.76124,0 218.498772,0.469966003 220.018799,1.40991211 C221.538826,2.34985822 222.715084,3.69798927 223.547607,5.4543457 C224.380131,7.21070214 224.796387,9.23826976 224.796387,11.5371094 L224.796387,12.5844727 Z M219.897949,11.5209961 C219.897949,9.06102286 219.457524,7.19190092 218.57666,5.91357422 C217.695796,4.63524751 216.438973,3.99609375 214.806152,3.99609375 C213.184074,3.99609375 211.932622,4.62719095 211.051758,5.8894043 C210.170894,7.15161764 209.725098,9.00194093 209.714355,11.4404297 L209.714355,12.5844727 C209.714355,14.9799924 210.154781,16.8383723 211.035645,18.159668 C211.916508,19.4809636 213.184074,20.1416016 214.838379,20.1416016 C216.460457,20.1416016 217.706539,19.5051333 218.57666,18.2321777 C219.446782,16.9592222 219.887207,15.1035278 219.897949,12.6650391 L219.897949,11.5209961 Z M233.143066,19.8999023 L243.407227,19.8999023 L243.407227,23.7832031 L228.309082,23.7832031 L228.309082,0.322265625 L233.143066,0.322265625 L233.143066,19.8999023 Z M246.178711,23.7832031 L246.178711,0.322265625 L253.397461,0.322265625 C255.459971,0.322265625 257.304924,0.786860588 258.932373,1.71606445 C260.559823,2.64526832 261.830074,3.96654417 262.743164,5.67993164 C263.656255,7.39331911 264.112793,9.34032113 264.112793,11.5209961 L264.112793,12.6005859 C264.112793,14.7812609 263.664311,16.7202064 262.767334,18.4174805 C261.870357,20.1147546 260.605477,21.4306594 258.972656,22.3652344 C257.339836,23.2998094 255.497569,23.7724609 253.445801,23.7832031 L246.178711,23.7832031 Z M251.012695,4.23779297 L251.012695,19.8999023 L253.349121,19.8999023 C255.239756,19.8999023 256.684565,19.2822327 257.683594,18.046875 C258.682622,16.8115173 259.192871,15.0444451 259.214355,12.7456055 L259.214355,11.5048828 C259.214355,9.12010526 258.72022,7.31275029 257.731934,6.08276367 C256.743647,4.85277705 255.298838,4.23779297 253.397461,4.23779297 L251.012695,4.23779297 Z" id="TAPANDHOLD" fill="#ED094D"></path>
            <path d="M293.503418,4.23779297 L286.316895,4.23779297 L286.316895,23.7832031 L281.48291,23.7832031 L281.48291,4.23779297 L274.393066,4.23779297 L274.393066,0.322265625 L293.503418,0.322265625 L293.503418,4.23779297 Z M315.353027,23.7832031 L310.519043,23.7832031 L310.519043,13.7285156 L301.092773,13.7285156 L301.092773,23.7832031 L296.258789,23.7832031 L296.258789,0.322265625 L301.092773,0.322265625 L301.092773,9.82910156 L310.519043,9.82910156 L310.519043,0.322265625 L315.353027,0.322265625 L315.353027,23.7832031 Z M333.689941,13.6157227 L324.408691,13.6157227 L324.408691,19.8999023 L335.30127,19.8999023 L335.30127,23.7832031 L319.574707,23.7832031 L319.574707,0.322265625 L335.269043,0.322265625 L335.269043,4.23779297 L324.408691,4.23779297 L324.408691,9.82910156 L333.689941,9.82910156 L333.689941,13.6157227 Z M351.495117,23.7832031 L346.661133,23.7832031 L346.661133,0.322265625 L351.495117,0.322265625 L351.495117,23.7832031 Z M373.634766,4.23779297 L366.448242,4.23779297 L366.448242,23.7832031 L361.614258,23.7832031 L361.614258,4.23779297 L354.524414,4.23779297 L354.524414,0.322265625 L373.634766,0.322265625 L373.634766,4.23779297 Z M390.505371,13.6157227 L381.224121,13.6157227 L381.224121,19.8999023 L392.116699,19.8999023 L392.116699,23.7832031 L376.390137,23.7832031 L376.390137,0.322265625 L392.084473,0.322265625 L392.084473,4.23779297 L381.224121,4.23779297 L381.224121,9.82910156 L390.505371,9.82910156 L390.505371,13.6157227 Z M401.269043,0.322265625 L407.29541,17.3378906 L413.289551,0.322265625 L419.638184,0.322265625 L419.638184,23.7832031 L414.788086,23.7832031 L414.788086,17.3701172 L415.271484,6.30029297 L408.938965,23.7832031 L405.619629,23.7832031 L399.303223,6.31640625 L399.786621,17.3701172 L399.786621,23.7832031 L394.952637,23.7832031 L394.952637,0.322265625 L401.269043,0.322265625 Z M19.9804688,51.5844727 C19.9804688,53.7758899 19.6259801,55.6799236 18.9169922,57.2966309 C18.2080043,58.9133382 17.2251039,60.2104443 15.9682617,61.1879883 L19.8676758,64.2495117 L16.7900391,66.9726562 L11.7949219,62.9604492 C11.2255831,63.0571294 10.6347687,63.1054688 10.0224609,63.1054688 C8.07811528,63.1054688 6.34326935,62.6381883 4.81787109,61.7036133 C3.29247284,60.7690383 2.11084403,59.4343348 1.27294922,57.6994629 C0.435054404,55.9645909 0.0107422412,53.9692496 0,51.7133789 L0,50.5532227 C0,48.2436408 0.416255603,46.2107021 1.2487793,44.4543457 C2.08130299,42.6979893 3.25756076,41.3498582 4.77758789,40.4099121 C6.29761502,39.469966 8.03514647,39 9.99023438,39 C11.9453223,39 13.6828537,39.469966 15.2028809,40.4099121 C16.722908,41.3498582 17.8991658,42.6979893 18.7316895,44.4543457 C19.5642131,46.2107021 19.9804688,48.2382698 19.9804688,50.5371094 L19.9804688,51.5844727 Z M15.0820312,50.5209961 C15.0820312,48.0610229 14.641606,46.1919009 13.7607422,44.9135742 C12.8798784,43.6352475 11.623055,42.9960938 9.99023438,42.9960938 C8.36815595,42.9960938 7.11670362,43.627191 6.23583984,44.8894043 C5.35497606,46.1516176 4.90917974,48.0019409 4.8984375,50.4404297 L4.8984375,51.5844727 C4.8984375,53.9799924 5.33886278,55.8383723 6.21972656,57.159668 C7.10059034,58.4809636 8.36815579,59.1416016 10.0224609,59.1416016 C11.6445394,59.1416016 12.8906206,58.5051333 13.7607422,57.2321777 C14.6308637,55.9592222 15.071289,54.1035278 15.0820312,51.6650391 L15.0820312,50.5209961 Z M41.2822266,39.3222656 L41.2822266,54.7749023 C41.2822266,57.342298 40.4792561,59.3725511 38.873291,60.8657227 C37.267326,62.3588942 35.0732561,63.1054688 32.2910156,63.1054688 C29.5517441,63.1054688 27.3764729,62.3803783 25.7651367,60.9301758 C24.1538005,59.4799732 23.3320314,57.4873174 23.2998047,54.9521484 L23.2998047,39.3222656 L28.1337891,39.3222656 L28.1337891,54.8071289 C28.1337891,56.3432694 28.5017053,57.4631312 29.2375488,58.166748 C29.9733924,58.8703648 30.9912044,59.222168 32.2910156,59.222168 C35.0088027,59.222168 36.3891599,57.7934713 36.4321289,54.9360352 L36.4321289,39.3222656 L41.2822266,39.3222656 Z M58.4912109,57.9492188 L50.015625,57.9492188 L48.4042969,62.7832031 L43.2641602,62.7832031 L51.9975586,39.3222656 L56.4770508,39.3222656 L65.2587891,62.7832031 L60.1186523,62.7832031 L58.4912109,57.9492188 Z M51.3208008,54.0336914 L57.1860352,54.0336914 L54.2373047,45.2519531 L51.3208008,54.0336914 Z M86.5283203,62.7832031 L81.6943359,62.7832031 L72.2841797,47.3466797 L72.2841797,62.7832031 L67.4501953,62.7832031 L67.4501953,39.3222656 L72.2841797,39.3222656 L81.7104492,54.7910156 L81.7104492,39.3222656 L86.5283203,39.3222656 L86.5283203,62.7832031 Z M108.410156,43.237793 L101.223633,43.237793 L101.223633,62.7832031 L96.3896484,62.7832031 L96.3896484,43.237793 L89.2998047,43.237793 L89.2998047,39.3222656 L108.410156,39.3222656 L108.410156,43.237793 Z M116.305664,62.7832031 L111.47168,62.7832031 L111.47168,39.3222656 L116.305664,39.3222656 L116.305664,62.7832031 Z M138.445312,43.237793 L131.258789,43.237793 L131.258789,62.7832031 L126.424805,62.7832031 L126.424805,43.237793 L119.334961,43.237793 L119.334961,39.3222656 L138.445312,39.3222656 L138.445312,43.237793 Z M149.289551,49.8925781 L154.171875,39.3222656 L159.457031,39.3222656 L151.754883,54.2753906 L151.754883,62.7832031 L146.840332,62.7832031 L146.840332,54.2753906 L139.138184,39.3222656 L144.439453,39.3222656 L149.289551,49.8925781 Z M169.817871,62.7832031 L169.817871,39.3222656 L178.035645,39.3222656 C180.882338,39.3222656 183.041497,39.8674262 184.513184,40.9577637 C185.984871,42.0481012 186.720703,43.6459856 186.720703,45.7514648 C186.720703,46.9008847 186.425296,47.9133257 185.834473,48.7888184 C185.243649,49.664311 184.42188,50.3061503 183.369141,50.7143555 C184.572272,51.0151382 185.52026,51.6220657 186.213135,52.5351562 C186.906009,53.4482468 187.252441,54.5654231 187.252441,55.8867188 C187.252441,58.1425894 186.532722,59.8505801 185.093262,61.0107422 C183.653801,62.1709042 181.602064,62.7617186 178.937988,62.7832031 L169.817871,62.7832031 Z M174.651855,52.5673828 L174.651855,58.8999023 L178.792969,58.8999023 C179.931646,58.8999023 180.820553,58.6286648 181.459717,58.0861816 C182.09888,57.5436985 182.418457,56.7944384 182.418457,55.8383789 C182.418457,53.6899307 181.306652,52.5996095 179.083008,52.5673828 L174.651855,52.5673828 Z M174.651855,49.1513672 L178.229004,49.1513672 C180.667493,49.1083982 181.886719,48.13624 181.886719,46.2348633 C181.886719,45.1713814 181.577884,44.4060082 180.960205,43.9387207 C180.342526,43.4714332 179.367682,43.237793 178.035645,43.237793 L174.651855,43.237793 L174.651855,49.1513672 Z M208.634766,39.3222656 L208.634766,54.7749023 C208.634766,57.342298 207.831795,59.3725511 206.22583,60.8657227 C204.619865,62.3588942 202.425795,63.1054688 199.643555,63.1054688 C196.904283,63.1054688 194.729012,62.3803783 193.117676,60.9301758 C191.50634,59.4799732 190.68457,57.4873174 190.652344,54.9521484 L190.652344,39.3222656 L195.486328,39.3222656 L195.486328,54.8071289 C195.486328,56.3432694 195.854244,57.4631312 196.590088,58.166748 C197.325931,58.8703648 198.343744,59.222168 199.643555,59.222168 C202.361342,59.222168 203.741699,57.7934713 203.784668,54.9360352 L203.784668,39.3222656 L208.634766,39.3222656 Z M230.258789,43.237793 L223.072266,43.237793 L223.072266,62.7832031 L218.238281,62.7832031 L218.238281,43.237793 L211.148438,43.237793 L211.148438,39.3222656 L230.258789,39.3222656 L230.258789,43.237793 Z M250.674316,43.237793 L243.487793,43.237793 L243.487793,62.7832031 L238.653809,62.7832031 L238.653809,43.237793 L231.563965,43.237793 L231.563965,39.3222656 L250.674316,39.3222656 L250.674316,43.237793 Z M272.701172,51.5844727 C272.701172,53.8940545 272.292973,55.9189366 271.476562,57.6591797 C270.660152,59.3994228 269.491951,60.7421828 267.971924,61.6875 C266.451897,62.6328172 264.708994,63.1054688 262.743164,63.1054688 C260.798818,63.1054688 259.063972,62.6381883 257.538574,61.7036133 C256.013176,60.7690383 254.831547,59.4343348 253.993652,57.6994629 C253.155758,55.9645909 252.731445,53.9692496 252.720703,51.7133789 L252.720703,50.5532227 C252.720703,48.2436408 253.136959,46.2107021 253.969482,44.4543457 C254.802006,42.6979893 255.978264,41.3498582 257.498291,40.4099121 C259.018318,39.469966 260.75585,39 262.710938,39 C264.666025,39 266.403557,39.469966 267.923584,40.4099121 C269.443611,41.3498582 270.619869,42.6979893 271.452393,44.4543457 C272.284916,46.2107021 272.701172,48.2382698 272.701172,50.5371094 L272.701172,51.5844727 Z M267.802734,50.5209961 C267.802734,48.0610229 267.362309,46.1919009 266.481445,44.9135742 C265.600582,43.6352475 264.343758,42.9960938 262.710938,42.9960938 C261.088859,42.9960938 259.837407,43.627191 258.956543,44.8894043 C258.075679,46.1516176 257.629883,48.0019409 257.619141,50.4404297 L257.619141,51.5844727 C257.619141,53.9799924 258.059566,55.8383723 258.94043,57.159668 C259.821293,58.4809636 261.088859,59.1416016 262.743164,59.1416016 C264.365242,59.1416016 265.611324,58.5051333 266.481445,57.2321777 C267.351567,55.9592222 267.791992,54.1035278 267.802734,51.6650391 L267.802734,50.5209961 Z M295.291992,62.7832031 L290.458008,62.7832031 L281.047852,47.3466797 L281.047852,62.7832031 L276.213867,62.7832031 L276.213867,39.3222656 L281.047852,39.3222656 L290.474121,54.7910156 L290.474121,39.3222656 L295.291992,39.3222656 L295.291992,62.7832031 Z M325.391602,43.237793 L318.205078,43.237793 L318.205078,62.7832031 L313.371094,62.7832031 L313.371094,43.237793 L306.28125,43.237793 L306.28125,39.3222656 L325.391602,39.3222656 L325.391602,43.237793 Z M347.418457,51.5844727 C347.418457,53.8940545 347.010258,55.9189366 346.193848,57.6591797 C345.377437,59.3994228 344.209236,60.7421828 342.689209,61.6875 C341.169182,62.6328172 339.426279,63.1054688 337.460449,63.1054688 C335.516104,63.1054688 333.781258,62.6381883 332.255859,61.7036133 C330.730461,60.7690383 329.548832,59.4343348 328.710938,57.6994629 C327.873043,55.9645909 327.448731,53.9692496 327.437988,51.7133789 L327.437988,50.5532227 C327.437988,48.2436408 327.854244,46.2107021 328.686768,44.4543457 C329.519291,42.6979893 330.695549,41.3498582 332.215576,40.4099121 C333.735603,39.469966 335.473135,39 337.428223,39 C339.383311,39 341.120842,39.469966 342.640869,40.4099121 C344.160896,41.3498582 345.337154,42.6979893 346.169678,44.4543457 C347.002201,46.2107021 347.418457,48.2382698 347.418457,50.5371094 L347.418457,51.5844727 Z M342.52002,50.5209961 C342.52002,48.0610229 342.079594,46.1919009 341.19873,44.9135742 C340.317867,43.6352475 339.061043,42.9960938 337.428223,42.9960938 C335.806144,42.9960938 334.554692,43.627191 333.673828,44.8894043 C332.792964,46.1516176 332.347168,48.0019409 332.336426,50.4404297 L332.336426,51.5844727 C332.336426,53.9799924 332.776851,55.8383723 333.657715,57.159668 C334.538579,58.4809636 335.806144,59.1416016 337.460449,59.1416016 C339.082528,59.1416016 340.328609,58.5051333 341.19873,57.2321777 C342.068852,55.9592222 342.509277,54.1035278 342.52002,51.6650391 L342.52002,50.5209961 Z M367.833984,54.1948242 L363.98291,54.1948242 L363.98291,62.7832031 L359.148926,62.7832031 L359.148926,39.3222656 L367.866211,39.3222656 C370.637709,39.3222656 372.775383,39.9399352 374.279297,41.175293 C375.783211,42.4106507 376.535156,44.1562387 376.535156,46.4121094 C376.535156,48.0127033 376.188724,49.3474068 375.49585,50.4162598 C374.802975,51.4851128 373.752937,52.3364226 372.345703,52.9702148 L377.421387,62.5576172 L377.421387,62.7832031 L372.23291,62.7832031 L367.833984,54.1948242 Z M363.98291,50.2792969 L367.882324,50.2792969 C369.096197,50.2792969 370.036129,49.9704621 370.702148,49.3527832 C371.368167,48.7351043 371.701172,47.8837945 371.701172,46.7988281 C371.701172,45.6923773 371.386966,44.8222688 370.758545,44.1884766 C370.130124,43.5546843 369.166022,43.237793 367.866211,43.237793 L363.98291,43.237793 L363.98291,50.2792969 Z M394.324219,52.6157227 L385.042969,52.6157227 L385.042969,58.8999023 L395.935547,58.8999023 L395.935547,62.7832031 L380.208984,62.7832031 L380.208984,39.3222656 L395.90332,39.3222656 L395.90332,43.237793 L385.042969,43.237793 L385.042969,48.8291016 L394.324219,48.8291016 L394.324219,52.6157227 Z M410.937012,56.6279297 C410.937012,55.7148392 410.614749,55.0139185 409.970215,54.5251465 C409.32568,54.0363745 408.165536,53.5207547 406.489746,52.9782715 C404.813956,52.4357883 403.48731,51.9013698 402.509766,51.375 C399.84569,49.9355397 398.513672,47.9965942 398.513672,45.5581055 C398.513672,44.290521 398.870846,43.1599171 399.585205,42.1662598 C400.299564,41.1726025 401.325433,40.3964872 402.662842,39.8378906 C404.000251,39.2792941 405.501457,39 407.166504,39 C408.842294,39 410.335443,39.3034638 411.645996,39.9104004 C412.95655,40.517337 413.974362,41.3740179 414.699463,42.4804688 C415.424564,43.5869196 415.787109,44.843743 415.787109,46.2509766 L410.953125,46.2509766 C410.953125,45.1767524 410.614749,44.3415557 409.937988,43.7453613 C409.261227,43.1491669 408.310553,42.8510742 407.085938,42.8510742 C405.904291,42.8510742 404.985843,43.1008276 404.330566,43.6003418 C403.67529,44.099856 403.347656,44.7578084 403.347656,45.5742188 C403.347656,46.3369179 403.731686,46.9760716 404.499756,47.4916992 C405.267826,48.0073268 406.39843,48.4907204 407.891602,48.9418945 C410.641615,49.7690471 412.645013,50.7949158 413.901855,52.0195312 C415.158698,53.2441467 415.787109,54.7695221 415.787109,56.5957031 C415.787109,58.6259867 415.019051,60.2185001 413.48291,61.373291 C411.94677,62.5280819 409.878919,63.1054688 407.279297,63.1054688 C405.4746,63.1054688 403.831062,62.7751498 402.348633,62.114502 C400.866204,61.4538541 399.7356,60.5488339 398.956787,59.3994141 C398.177975,58.2499943 397.788574,56.9179763 397.788574,55.4033203 L402.638672,55.4033203 C402.638672,57.9922004 404.185531,59.2866211 407.279297,59.2866211 C408.428717,59.2866211 409.32568,59.0529809 409.970215,58.5856934 C410.614749,58.1184059 410.937012,57.4658245 410.937012,56.6279297 Z M433.17334,52.6157227 L423.89209,52.6157227 L423.89209,58.8999023 L434.784668,58.8999023 L434.784668,62.7832031 L419.058105,62.7832031 L419.058105,39.3222656 L434.752441,39.3222656 L434.752441,43.237793 L423.89209,43.237793 L423.89209,48.8291016 L433.17334,48.8291016 L433.17334,52.6157227 Z M455.280762,43.237793 L448.094238,43.237793 L448.094238,62.7832031 L443.260254,62.7832031 L443.260254,43.237793 L436.17041,43.237793 L436.17041,39.3222656 L455.280762,39.3222656 L455.280762,43.237793 Z M92.0793457,82.237793 L84.8928223,82.237793 L84.8928223,101.783203 L80.0588379,101.783203 L80.0588379,82.237793 L72.9689941,82.237793 L72.9689941,78.3222656 L92.0793457,78.3222656 L92.0793457,82.237793 Z M113.928955,101.783203 L109.094971,101.783203 L109.094971,91.7285156 L99.6687012,91.7285156 L99.6687012,101.783203 L94.8347168,101.783203 L94.8347168,78.3222656 L99.6687012,78.3222656 L99.6687012,87.8291016 L109.094971,87.8291016 L109.094971,78.3222656 L113.928955,78.3222656 L113.928955,101.783203 Z M132.265869,91.6157227 L122.984619,91.6157227 L122.984619,97.8999023 L133.877197,97.8999023 L133.877197,101.783203 L118.150635,101.783203 L118.150635,78.3222656 L133.844971,78.3222656 L133.844971,82.237793 L122.984619,82.237793 L122.984619,87.8291016 L132.265869,87.8291016 L132.265869,91.6157227 Z M164.170166,90.5844727 C164.170166,92.7758899 163.815677,94.6799236 163.106689,96.2966309 C162.397702,97.9133382 161.414801,99.2104443 160.157959,100.187988 L164.057373,103.249512 L160.979736,105.972656 L155.984619,101.960449 C155.41528,102.057129 154.824466,102.105469 154.212158,102.105469 C152.267813,102.105469 150.532967,101.638188 149.007568,100.703613 C147.48217,99.7690383 146.300541,98.4343348 145.462646,96.6994629 C144.624752,94.9645909 144.20044,92.9692496 144.189697,90.7133789 L144.189697,89.5532227 C144.189697,87.2436408 144.605953,85.2107021 145.438477,83.4543457 C146.271,81.6979893 147.447258,80.3498582 148.967285,79.4099121 C150.487312,78.469966 152.224844,78 154.179932,78 C156.13502,78 157.872551,78.469966 159.392578,79.4099121 C160.912605,80.3498582 162.088863,81.6979893 162.921387,83.4543457 C163.75391,85.2107021 164.170166,87.2382698 164.170166,89.5371094 L164.170166,90.5844727 Z M159.271729,89.5209961 C159.271729,87.0610229 158.831303,85.1919009 157.950439,83.9135742 C157.069576,82.6352475 155.812752,81.9960938 154.179932,81.9960938 C152.557853,81.9960938 151.306401,82.627191 150.425537,83.8894043 C149.544673,85.1516176 149.098877,87.0019409 149.088135,89.4404297 L149.088135,90.5844727 C149.088135,92.9799924 149.52856,94.8383723 150.409424,96.159668 C151.290288,97.4809636 152.557853,98.1416016 154.212158,98.1416016 C155.834237,98.1416016 157.080318,97.5051333 157.950439,96.2321777 C158.820561,94.9592222 159.260986,93.1035278 159.271729,90.6650391 L159.271729,89.5209961 Z M185.471924,78.3222656 L185.471924,93.7749023 C185.471924,96.342298 184.668953,98.3725511 183.062988,99.8657227 C181.457023,101.358894 179.262953,102.105469 176.480713,102.105469 C173.741441,102.105469 171.56617,101.380378 169.954834,99.9301758 C168.343498,98.4799732 167.521729,96.4873174 167.489502,93.9521484 L167.489502,78.3222656 L172.323486,78.3222656 L172.323486,93.8071289 C172.323486,95.3432694 172.691403,96.4631312 173.427246,97.166748 C174.16309,97.8703648 175.180902,98.222168 176.480713,98.222168 C179.1985,98.222168 180.578857,96.7934713 180.621826,93.9360352 L180.621826,78.3222656 L185.471924,78.3222656 Z M202.680908,96.9492188 L194.205322,96.9492188 L192.593994,101.783203 L187.453857,101.783203 L196.187256,78.3222656 L200.666748,78.3222656 L209.448486,101.783203 L204.30835,101.783203 L202.680908,96.9492188 Z M195.510498,93.0336914 L201.375732,93.0336914 L198.427002,84.2519531 L195.510498,93.0336914 Z M230.718018,101.783203 L225.884033,101.783203 L216.473877,86.3466797 L216.473877,101.783203 L211.639893,101.783203 L211.639893,78.3222656 L216.473877,78.3222656 L225.900146,93.7910156 L225.900146,78.3222656 L230.718018,78.3222656 L230.718018,101.783203 Z M252.599854,82.237793 L245.41333,82.237793 L245.41333,101.783203 L240.579346,101.783203 L240.579346,82.237793 L233.489502,82.237793 L233.489502,78.3222656 L252.599854,78.3222656 L252.599854,82.237793 Z M260.495361,101.783203 L255.661377,101.783203 L255.661377,78.3222656 L260.495361,78.3222656 L260.495361,101.783203 Z M282.63501,82.237793 L275.448486,82.237793 L275.448486,101.783203 L270.614502,101.783203 L270.614502,82.237793 L263.524658,82.237793 L263.524658,78.3222656 L282.63501,78.3222656 L282.63501,82.237793 Z M293.479248,88.8925781 L298.361572,78.3222656 L303.646729,78.3222656 L295.94458,93.2753906 L295.94458,101.783203 L291.030029,101.783203 L291.030029,93.2753906 L283.327881,78.3222656 L288.62915,78.3222656 L293.479248,88.8925781 Z M331.667725,82.237793 L324.481201,82.237793 L324.481201,101.783203 L319.647217,101.783203 L319.647217,82.237793 L312.557373,82.237793 L312.557373,78.3222656 L331.667725,78.3222656 L331.667725,82.237793 Z M353.69458,90.5844727 C353.69458,92.8940545 353.286381,94.9189366 352.469971,96.6591797 C351.65356,98.3994228 350.485359,99.7421828 348.965332,100.6875 C347.445305,101.632817 345.702402,102.105469 343.736572,102.105469 C341.792227,102.105469 340.057381,101.638188 338.531982,100.703613 C337.006584,99.7690383 335.824955,98.4343348 334.987061,96.6994629 C334.149166,94.9645909 333.724854,92.9692496 333.714111,90.7133789 L333.714111,89.5532227 C333.714111,87.2436408 334.130367,85.2107021 334.962891,83.4543457 C335.795414,81.6979893 336.971672,80.3498582 338.491699,79.4099121 C340.011726,78.469966 341.749258,78 343.704346,78 C345.659434,78 347.396965,78.469966 348.916992,79.4099121 C350.437019,80.3498582 351.613277,81.6979893 352.445801,83.4543457 C353.278324,85.2107021 353.69458,87.2382698 353.69458,89.5371094 L353.69458,90.5844727 Z M348.796143,89.5209961 C348.796143,87.0610229 348.355717,85.1919009 347.474854,83.9135742 C346.59399,82.6352475 345.337166,81.9960938 343.704346,81.9960938 C342.082267,81.9960938 340.830815,82.627191 339.949951,83.8894043 C339.069087,85.1516176 338.623291,87.0019409 338.612549,89.4404297 L338.612549,90.5844727 C338.612549,92.9799924 339.052974,94.8383723 339.933838,96.159668 C340.814702,97.4809636 342.082267,98.1416016 343.736572,98.1416016 C345.358651,98.1416016 346.604732,97.5051333 347.474854,96.2321777 C348.344975,94.9592222 348.7854,93.1035278 348.796143,90.6650391 L348.796143,89.5209961 Z M376.237061,101.783203 L371.580322,101.783203 L371.580322,83.8330078 L366.02124,85.5571289 L366.02124,81.7705078 L375.737549,78.2900391 L376.237061,78.2900391 L376.237061,101.783203 Z" id="THEITEMQUANTITYBUTTONTORESETTHEQUANTITYTO1" fill="#000000"></path>
        </g>
    </g>
</svg>