<?xml version="1.0" encoding="UTF-8"?>
<svg width="570px" height="792px" viewBox="0 0 570 792" version="1.1" xmlns="http://www.w3.org/2000/svg" xmlns:xlink="http://www.w3.org/1999/xlink">
    <!-- Generator: Sketch 54.1 (76490) - https://sketchapp.com -->
    <title>B2_items_en</title>
    <desc>Created with Sketch.</desc>
    <g id="B2_items_en" stroke="none" stroke-width="1" fill="none" fill-rule="evenodd">
        <rect id="Rectangle" fill="#00B0FF" x="0" y="0" width="570" height="792" rx="16"></rect>
        <path d="M47,252 L524,252 C530.627417,252 536,257.372583 536,264 L536,779 L35,779 L35,264 C35,257.372583 40.372583,252 47,252 Z" id="Rectangle" fill="#080B26"></path>
        <g id="Group" transform="translate(35.500000, 554.000000)">
            <rect id="Rectangle" fill="#375270" opacity="0.295014881" x="0" y="0" width="501" height="104"></rect>
            <path d="M285,16 L468,16 C475.179702,16 481,21.8202983 481,29 L481,75 C481,82.1797017 475.179702,88 468,88 L285,88 C277.820298,88 272,82.1797017 272,75 L272,29 C272,21.8202983 277.820298,16 285,16 Z M285,21 C280.581722,21 277,24.581722 277,29 L277,75 C277,79.418278 280.581722,83 285,83 L468,83 C472.418278,83 476,79.418278 476,75 L476,29 C476,24.581722 472.418278,21 468,21 L285,21 Z" id="Rectangle" fill="#00D3FF" fill-rule="nonzero"></path>
            <path d="M301.861475,64.5 L297.204736,64.5 L297.204736,46.5498047 L291.645654,48.2739258 L291.645654,44.4873047 L301.361963,41.0068359 L301.861475,41.0068359 L301.861475,64.5 Z M319.415088,52.2700195 L322.347705,47.0654297 L327.326709,47.0654297 L322.363818,55.6054688 L327.536182,64.5 L322.541064,64.5 L319.431201,59.0214844 L316.337451,64.5 L311.326221,64.5 L316.498584,55.6054688 L311.551807,47.0654297 L316.546924,47.0654297 L319.415088,52.2700195 Z M343.607373,58.3286133 C343.607373,57.4477495 343.362991,56.7468288 342.874219,56.2258301 C342.385447,55.7048314 341.555621,55.2241233 340.384717,54.7836914 C339.213813,54.3432595 338.204057,53.9055198 337.35542,53.470459 C336.506783,53.0353982 335.779007,52.5358915 335.17207,51.9719238 C334.565134,51.4079562 334.092482,50.7446327 333.754102,49.9819336 C333.415721,49.2192345 333.246533,48.3115287 333.246533,47.2587891 C333.246533,45.4433503 333.826606,43.9555722 334.986768,42.7954102 C336.14693,41.6352481 337.688418,40.9584971 339.611279,40.7651367 L339.611279,37.3168945 L342.189404,37.3168945 L342.189404,40.8134766 C344.090781,41.0820326 345.578559,41.874261 346.652783,43.1901855 C347.727007,44.5061101 348.264111,46.2114153 348.264111,48.3061523 L343.607373,48.3061523 C343.607373,47.0170834 343.341507,46.0529817 342.809766,45.4138184 C342.278025,44.774655 341.566362,44.4550781 340.674756,44.4550781 C339.793892,44.4550781 339.11177,44.7048315 338.628369,45.2043457 C338.144968,45.7038599 337.903271,46.3940386 337.903271,47.2749023 C337.903271,48.0913127 338.139597,48.7465796 338.612256,49.2407227 C339.084914,49.7348658 339.96308,50.2397435 341.246777,50.7553711 C342.530475,51.2709987 343.585885,51.7570778 344.413037,52.213623 C345.24019,52.6701683 345.938425,53.1857881 346.507764,53.760498 C347.077102,54.335208 347.512157,54.9904748 347.812939,55.7263184 C348.113722,56.4621619 348.264111,57.3188428 348.264111,58.2963867 C348.264111,60.1225677 347.694781,61.6049748 346.556104,62.7436523 C345.417426,63.8823299 343.849082,64.5537099 341.851025,64.7578125 L341.851025,67.9643555 L339.289014,67.9643555 L339.289014,64.7739258 C337.086854,64.5375965 335.381549,63.7561101 334.173047,62.4294434 C332.964545,61.1027766 332.360303,59.3383899 332.360303,57.1362305 L337.017041,57.1362305 C337.017041,58.4145572 337.320505,59.394772 337.927441,60.0769043 C338.534378,60.7590366 339.407172,61.1000977 340.54585,61.1000977 C341.491167,61.1000977 342.237741,60.8503443 342.785596,60.3508301 C343.33345,59.8513159 343.607373,59.1772503 343.607373,58.3286133 Z M370.45835,43.6494141 L361.386572,64.5 L356.472021,64.5 L365.559912,44.8095703 L353.893896,44.8095703 L353.893896,41.0390625 L370.45835,41.0390625 L370.45835,43.6494141 Z M373.874365,62.2119141 C373.874365,61.4706994 374.124119,60.8691429 374.623633,60.4072266 C375.123147,59.9453102 375.748873,59.7143555 376.50083,59.7143555 C377.263529,59.7143555 377.894626,59.9453102 378.394141,60.4072266 C378.893655,60.8691429 379.143408,61.4706994 379.143408,62.2119141 C379.143408,62.9423865 378.89634,63.5358864 378.402197,63.9924316 C377.908054,64.4489769 377.274271,64.6772461 376.50083,64.6772461 C375.738131,64.6772461 375.109719,64.4489769 374.615576,63.9924316 C374.121433,63.5358864 373.874365,62.9423865 373.874365,62.2119141 Z M396.803564,55.6699219 L399.462256,55.6699219 L399.462256,59.4243164 L396.803564,59.4243164 L396.803564,64.5 L392.146826,64.5 L392.146826,59.4243164 L382.527197,59.4243164 L382.317725,56.4916992 L392.098486,41.0390625 L396.803564,41.0390625 L396.803564,55.6699219 Z M386.95835,55.6699219 L392.146826,55.6699219 L392.146826,47.3876953 L391.840674,47.9194336 L386.95835,55.6699219 Z M412.852393,55.1220703 C411.638519,56.3144591 410.220565,56.9106445 408.598486,56.9106445 C406.525234,56.9106445 404.865582,56.1989817 403.619482,54.7756348 C402.373382,53.3522878 401.750342,51.432141 401.750342,49.0151367 C401.750342,47.4789962 402.086032,46.0690982 402.757422,44.7854004 C403.428812,43.5017026 404.366058,42.5026891 405.569189,41.7883301 C406.77232,41.073971 408.125823,40.7167969 409.629736,40.7167969 C411.176619,40.7167969 412.551605,41.1035118 413.754736,41.8769531 C414.957867,42.6503945 415.892428,43.7621998 416.558447,45.2124023 C417.224466,46.6626049 417.562842,48.3222563 417.573584,50.1914062 L417.573584,51.9155273 C417.573584,55.8257031 416.601426,58.897938 414.65708,61.1323242 C412.712734,63.3667104 409.957391,64.5590813 406.390967,64.7094727 L405.246924,64.7255859 L405.246924,60.8422852 L406.278174,60.8261719 C410.327999,60.6435538 412.519383,58.7422056 412.852393,55.1220703 Z M409.742529,53.3496094 C410.494486,53.3496094 411.141697,53.1562519 411.68418,52.7695312 C412.226663,52.3828106 412.637547,51.9155301 412.916846,51.3676758 L412.916846,49.4501953 C412.916846,47.8710859 412.616067,46.6464887 412.014502,45.7763672 C411.412936,44.9062456 410.60728,44.4711914 409.59751,44.4711914 C408.662935,44.4711914 407.894876,44.8981891 407.293311,45.7521973 C406.691745,46.6062054 406.390967,47.6777279 406.390967,48.9667969 C406.390967,50.2451236 406.683688,51.2951619 407.269141,52.1169434 C407.854593,52.9387248 408.679047,53.3496094 409.742529,53.3496094 Z M437.328467,64.8222656 C434.771813,64.8222656 432.690535,64.0380938 431.08457,62.4697266 C429.478605,60.9013593 428.675635,58.8120248 428.675635,56.2016602 L428.675635,55.7504883 C428.675635,53.999503 429.01401,52.4338448 429.690771,51.0534668 C430.367533,49.6730888 431.326263,48.6096229 432.566992,47.8630371 C433.807721,47.1164513 435.22299,46.7431641 436.812842,46.7431641 C439.197619,46.7431641 441.074798,47.4951097 442.444434,48.9990234 C443.814069,50.5029372 444.498877,52.6352401 444.498877,55.3959961 L444.498877,57.2973633 L433.396826,57.2973633 C433.547218,58.4360408 434.00107,59.3491177 434.758398,60.0366211 C435.515726,60.7241245 436.474457,61.0678711 437.634619,61.0678711 C439.428573,61.0678711 440.830415,60.4179752 441.840186,59.1181641 L444.128271,61.6801758 C443.430026,62.668462 442.484723,63.4392062 441.292334,63.9924316 C440.099945,64.5456571 438.778669,64.8222656 437.328467,64.8222656 Z M436.796729,50.5136719 C435.872896,50.5136719 435.123636,50.8251922 434.548926,51.4482422 C433.974216,52.0712922 433.6063,52.9628848 433.445166,54.1230469 L439.922705,54.1230469 L439.922705,53.7524414 C439.901221,52.7211863 439.621927,51.9235868 439.084814,51.3596191 C438.547702,50.7956515 437.785015,50.5136719 436.796729,50.5136719 Z M457.244482,64.5 C457.029638,64.0810526 456.873877,63.5600617 456.777197,62.9370117 C455.649262,64.1938539 454.182968,64.8222656 452.378271,64.8222656 C450.670255,64.8222656 449.254986,64.3281299 448.132422,63.3398438 C447.009858,62.3515576 446.448584,61.1054763 446.448584,59.6015625 C446.448584,57.753897 447.133392,56.3359424 448.503027,55.3476562 C449.872663,54.3593701 451.851891,53.8598633 454.440771,53.8491211 L456.583838,53.8491211 L456.583838,52.8500977 C456.583838,52.0444296 456.377053,51.3999048 455.963477,50.9165039 C455.5499,50.4331031 454.897319,50.1914062 454.005713,50.1914062 C453.221529,50.1914062 452.606545,50.3793927 452.160742,50.7553711 C451.714939,51.1313495 451.492041,51.6469694 451.492041,52.3022461 L446.835303,52.3022461 C446.835303,51.2924754 447.146823,50.3579145 447.769873,49.4985352 C448.392923,48.6391559 449.273774,47.9650903 450.412451,47.4763184 C451.551129,46.9875464 452.829436,46.7431641 454.247412,46.7431641 C456.39586,46.7431641 458.101166,47.2829536 459.363379,48.3625488 C460.625592,49.4421441 461.256689,50.9594629 461.256689,52.9145508 L461.256689,60.4716797 C461.267432,62.1259848 461.498386,63.3774372 461.949561,64.2260742 L461.949561,64.5 L457.244482,64.5 Z M453.393408,61.2612305 C454.080912,61.2612305 454.714694,61.1081558 455.294775,60.802002 C455.874856,60.4958481 456.30454,60.0849635 456.583838,59.5693359 L456.583838,56.5722656 L454.843604,56.5722656 C452.512537,56.5722656 451.271827,57.3779216 451.121436,58.9892578 L451.105322,59.2631836 C451.105322,59.8432646 451.309422,60.3212872 451.717627,60.6972656 C452.125832,61.0732441 452.68442,61.2612305 453.393408,61.2612305 Z" id="1x$7.49ea" fill="#00D3FF" fill-rule="nonzero"></path>
            <path d="M26.552002,63 L26.552002,39.5390625 L34.7697754,39.5390625 C37.6164693,39.5390625 39.7756274,40.0842231 41.2473145,41.1745605 C42.7190015,42.264898 43.454834,43.8627824 43.454834,45.9682617 C43.454834,47.1176815 43.1594268,48.1301226 42.5686035,49.0056152 C41.9777802,49.8811079 41.1560111,50.5229472 40.1032715,50.9311523 C41.3064025,51.2319351 42.2543911,51.8388626 42.9472656,52.7519531 C43.6401402,53.6650436 43.9865723,54.78222 43.9865723,56.1035156 C43.9865723,58.3593863 43.2668529,60.067377 41.8273926,61.2275391 C40.3879323,62.3877011 38.336195,62.9785155 35.6721191,63 L26.552002,63 Z M31.3859863,52.7841797 L31.3859863,59.1166992 L35.5270996,59.1166992 C36.6657772,59.1166992 37.5546843,58.8454617 38.1938477,58.3029785 C38.833011,57.7604953 39.1525879,57.0112352 39.1525879,56.0551758 C39.1525879,53.9067275 38.0407826,52.8164064 35.8171387,52.7841797 L31.3859863,52.7841797 Z M31.3859863,49.3681641 L34.9631348,49.3681641 C37.4016235,49.3251951 38.6208496,48.3530369 38.6208496,46.4516602 C38.6208496,45.3881783 38.3120148,44.6228051 37.6943359,44.1555176 C37.0766571,43.6882301 36.1018133,43.4545898 34.7697754,43.4545898 L31.3859863,43.4545898 L31.3859863,49.3681641 Z M47.6120605,63 L47.6120605,39.5390625 L55.829834,39.5390625 C58.6765279,39.5390625 60.835686,40.0842231 62.307373,41.1745605 C63.7790601,42.264898 64.5148926,43.8627824 64.5148926,45.9682617 C64.5148926,47.1176815 64.2194854,48.1301226 63.6286621,49.0056152 C63.0378388,49.8811079 62.2160697,50.5229472 61.1633301,50.9311523 C62.3664611,51.2319351 63.3144497,51.8388626 64.0073242,52.7519531 C64.7001988,53.6650436 65.0466309,54.78222 65.0466309,56.1035156 C65.0466309,58.3593863 64.3269115,60.067377 62.8874512,61.2275391 C61.4479908,62.3877011 59.3962536,62.9785155 56.7321777,63 L47.6120605,63 Z M52.4460449,52.7841797 L52.4460449,59.1166992 L56.5871582,59.1166992 C57.7258358,59.1166992 58.6147429,58.8454617 59.2539062,58.3029785 C59.8930696,57.7604953 60.2126465,57.0112352 60.2126465,56.0551758 C60.2126465,53.9067275 59.1008412,52.8164064 56.8771973,52.7841797 L52.4460449,52.7841797 Z M52.4460449,49.3681641 L56.0231934,49.3681641 C58.4616821,49.3251951 59.6809082,48.3530369 59.6809082,46.4516602 C59.6809082,45.3881783 59.3720734,44.6228051 58.7543945,44.1555176 C58.1367157,43.6882301 57.1618719,43.4545898 55.829834,43.4545898 L52.4460449,43.4545898 L52.4460449,49.3681641 Z M87.911377,51.8012695 C87.911377,53.9926867 87.5568883,55.8967204 86.8479004,57.5134277 C86.1389125,59.130135 85.1560121,60.4272412 83.8991699,61.4047852 L87.798584,64.4663086 L84.7209473,67.1894531 L79.7258301,63.1772461 C79.1564913,63.2739263 78.5656769,63.3222656 77.9533691,63.3222656 C76.0090235,63.3222656 74.2741775,62.8549851 72.7487793,61.9204102 C71.223381,60.9858352 70.0417522,59.6511317 69.2038574,57.9162598 C68.3659626,56.1813878 67.9416504,54.1860464 67.9309082,51.9301758 L67.9309082,50.7700195 C67.9309082,48.4604377 68.3471638,46.427499 69.1796875,44.6711426 C70.0122112,42.9147861 71.188469,41.5666551 72.7084961,40.626709 C74.2285232,39.6867629 75.9660547,39.2167969 77.9211426,39.2167969 C79.8762305,39.2167969 81.6137619,39.6867629 83.1337891,40.626709 C84.6538162,41.5666551 85.830074,42.9147861 86.6625977,44.6711426 C87.4951214,46.427499 87.911377,48.4550666 87.911377,50.7539062 L87.911377,51.8012695 Z M83.0129395,50.737793 C83.0129395,48.2778197 82.5725142,46.4086978 81.6916504,45.1303711 C80.8107866,43.8520444 79.5539632,43.2128906 77.9211426,43.2128906 C76.2990642,43.2128906 75.0476118,43.8439878 74.166748,45.1062012 C73.2858843,46.3684145 72.8400879,48.2187378 72.8293457,50.6572266 L72.8293457,51.8012695 C72.8293457,54.1967893 73.269771,56.0551692 74.1506348,57.3764648 C75.0314985,58.6977605 76.299064,59.3583984 77.9533691,59.3583984 C79.5754476,59.3583984 80.8215289,58.7219302 81.6916504,57.4489746 C82.5617719,56.176019 83.0021972,54.3203247 83.0129395,51.8818359 L83.0129395,50.737793 Z M118.091553,55.1850586 C117.908935,57.7094853 116.977059,59.6967701 115.295898,61.1469727 C113.614738,62.5971752 111.399184,63.3222656 108.64917,63.3222656 C105.641342,63.3222656 103.275399,62.3098246 101.55127,60.2849121 C99.8271398,58.2599996 98.9650879,55.4804864 98.9650879,51.9462891 L98.9650879,50.512207 C98.9650879,48.2563364 99.3625449,46.2690516 100.157471,44.550293 C100.952397,42.8315344 102.088372,41.512944 103.56543,40.5944824 C105.042488,39.6760208 106.758535,39.2167969 108.713623,39.2167969 C111.420668,39.2167969 113.60131,39.9418873 115.255615,41.3920898 C116.90992,42.8422924 117.865966,44.8779166 118.123779,47.4990234 L113.289795,47.4990234 C113.17163,45.9843674 112.750004,44.8859897 112.024902,44.2038574 C111.299801,43.5217251 110.196052,43.1806641 108.713623,43.1806641 C107.102287,43.1806641 105.896488,43.7580509 105.096191,44.9128418 C104.295894,46.0676327 103.88501,47.8588746 103.863525,50.2866211 L103.863525,52.059082 C103.863525,54.594251 104.247555,56.4472598 105.015625,57.6181641 C105.783695,58.7890684 106.994865,59.3745117 108.64917,59.3745117 C110.142341,59.3745117 111.256832,59.0334507 111.992676,58.3513184 C112.728519,57.669186 113.150146,56.6137767 113.257568,55.1850586 L118.091553,55.1850586 Z M125.503662,47.4667969 C126.73902,45.9843676 128.29125,45.2431641 130.1604,45.2431641 C133.941669,45.2431641 135.859131,47.4399194 135.912842,51.8334961 L135.912842,63 L131.256104,63 L131.256104,51.9624023 C131.256104,50.9633739 131.041262,50.2248559 130.611572,49.7468262 C130.181883,49.2687964 129.467534,49.0297852 128.468506,49.0297852 C127.104241,49.0297852 126.11597,49.5561471 125.503662,50.6088867 L125.503662,63 L120.846924,63 L120.846924,38.25 L125.503662,38.25 L125.503662,47.4667969 Z M144.340088,63 L139.667236,63 L139.667236,45.5654297 L144.340088,45.5654297 L144.340088,63 Z M139.393311,41.0537109 C139.393311,40.3554653 139.626951,39.780764 140.094238,39.3295898 C140.561526,38.8784157 141.197994,38.652832 142.003662,38.652832 C142.798588,38.652832 143.432371,38.8784157 143.905029,39.3295898 C144.377688,39.780764 144.614014,40.3554653 144.614014,41.0537109 C144.614014,41.7626989 144.375002,42.3427712 143.896973,42.7939453 C143.418943,43.2451194 142.787846,43.4707031 142.003662,43.4707031 C141.219479,43.4707031 140.588381,43.2451194 140.110352,42.7939453 C139.632322,42.3427712 139.393311,41.7626989 139.393311,41.0537109 Z M155.426025,59.5678711 C156.285405,59.5678711 156.98364,59.3315453 157.520752,58.8588867 C158.057864,58.3862281 158.337158,57.7578164 158.358643,56.9736328 L162.725342,56.9736328 C162.7146,58.1552793 162.392337,59.2375439 161.758545,60.220459 C161.124753,61.2033741 160.25733,61.9660617 159.15625,62.5085449 C158.05517,63.0510281 156.83863,63.3222656 155.506592,63.3222656 C153.014392,63.3222656 151.048591,62.5300372 149.609131,60.9455566 C148.169671,59.3610761 147.449951,57.1723772 147.449951,54.3793945 L147.449951,54.0732422 C147.449951,51.3876819 148.164299,49.2446369 149.593018,47.644043 C151.021736,46.043449 152.982165,45.2431641 155.474365,45.2431641 C157.65504,45.2431641 159.403314,45.8635192 160.719238,47.104248 C162.035163,48.3449769 162.703857,49.9965717 162.725342,52.059082 L158.358643,52.059082 C158.337158,51.1567338 158.057864,50.4235868 157.520752,49.8596191 C156.98364,49.2956515 156.274663,49.0136719 155.393799,49.0136719 C154.308832,49.0136719 153.489749,49.4084433 152.936523,50.197998 C152.383298,50.9875528 152.106689,52.2685458 152.106689,54.0410156 L152.106689,54.5244141 C152.106689,56.3183683 152.380612,57.607418 152.928467,58.3916016 C153.476321,59.1757852 154.308832,59.5678711 155.426025,59.5678711 Z M171.716553,56.0068359 L170.040771,57.6826172 L170.040771,63 L165.384033,63 L165.384033,38.25 L170.040771,38.25 L170.040771,51.9624023 L170.943115,50.8022461 L175.406494,45.5654297 L180.997803,45.5654297 L174.69751,52.8325195 L181.545654,63 L176.196045,63 L171.716553,56.0068359 Z M191.036377,63.3222656 C188.479724,63.3222656 186.398446,62.5380938 184.79248,60.9697266 C183.186515,59.4013593 182.383545,57.3120248 182.383545,54.7016602 L182.383545,54.2504883 C182.383545,52.499503 182.72192,50.9338448 183.398682,49.5534668 C184.075443,48.1730888 185.034173,47.1096229 186.274902,46.3630371 C187.515631,45.6164513 188.9309,45.2431641 190.520752,45.2431641 C192.90553,45.2431641 194.782708,45.9951097 196.152344,47.4990234 C197.52198,49.0029372 198.206787,51.1352401 198.206787,53.8959961 L198.206787,55.7973633 L187.104736,55.7973633 C187.255128,56.9360408 187.708981,57.8491177 188.466309,58.5366211 C189.223637,59.2241245 190.182367,59.5678711 191.342529,59.5678711 C193.136484,59.5678711 194.538325,58.9179752 195.548096,57.6181641 L197.836182,60.1801758 C197.137936,61.168462 196.192633,61.9392062 195.000244,62.4924316 C193.807855,63.0456571 192.48658,63.3222656 191.036377,63.3222656 Z M190.504639,49.0136719 C189.580806,49.0136719 188.831546,49.3251922 188.256836,49.9482422 C187.682126,50.5712922 187.31421,51.4628848 187.153076,52.6230469 L193.630615,52.6230469 L193.630615,52.2524414 C193.609131,51.2211863 193.329837,50.4235868 192.792725,49.8596191 C192.255613,49.2956515 191.492925,49.0136719 190.504639,49.0136719 Z M205.135498,45.5654297 L205.280518,47.5795898 C206.526618,46.0219649 208.197011,45.2431641 210.291748,45.2431641 C212.139414,45.2431641 213.5144,45.7856391 214.416748,46.8706055 C215.319096,47.9555718 215.781006,49.5776259 215.80249,51.7368164 L215.80249,63 L211.145752,63 L211.145752,51.8496094 C211.145752,50.8613232 210.93091,50.1442893 210.501221,49.6984863 C210.071531,49.2526833 209.357183,49.0297852 208.358154,49.0297852 C207.047601,49.0297852 206.064701,49.5883733 205.409424,50.7055664 L205.409424,63 L200.752686,63 L200.752686,45.5654297 L205.135498,45.5654297 Z" id="BBQChicken" fill="#00D3FF" fill-rule="nonzero"></path>
        </g>
        <rect id="Rectangle" fill="#FFFFFF" x="35" y="42" width="501" height="145" rx="12"></rect>
        <rect id="Rectangle" fill="#375270" opacity="0.295014881" x="35" y="292" width="501" height="104"></rect>
        <polygon id="Line-2" fill="#FFFFFF" fill-rule="nonzero" points="407.5 511.208515 407.5 477.5 415.5 477.5 415.5 511.208515 433.5 511.208515 411.5 549.5 389.5 511.208515 407.5 511.208515"></polygon>
        <path d="M320,308 L503,308 C510.179702,308 516,313.820298 516,321 L516,367 C516,374.179702 510.179702,380 503,380 L320,380 C312.820298,380 307,374.179702 307,367 L307,321 C307,313.820298 312.820298,308 320,308 Z M320,313 C315.581722,313 312,316.581722 312,321 L312,367 C312,371.418278 315.581722,375 320,375 L503,375 C507.418278,375 511,371.418278 511,367 L511,321 C511,316.581722 507.418278,313 503,313 L320,313 Z" id="Rectangle" fill="#00D3FF" fill-rule="nonzero"></path>
        <g id="finger" transform="translate(369.000000, 353.000000)" fill-rule="nonzero">
            <polygon id="Path-4" fill="#F0EBEB" points="25 33.5 17 42.5 14 52.5 17 67.5 31 80.5 41 83.5 51 78.5 68 52.5 63 46.5 61 39.5 56 36.5 53 29.5 49 27.5 55 14.5 50 11.5 41 22.5 33 34.5"></polygon>
            <g id="pointer" fill="#FFFFFF">
                <path d="M64,34 C63,34 61.5,34 61,34 C61,33 60,31 59,30 C58,29 56,28 53.5,28 C52.5,28 51.5,28 50.5,28.5 C50,27.5 49.5,27 49,26 C48,25 46.5,24 43.5,24 C42.5,24 41.5,24 41,24.5 L41,16 C41,13 39,9 34,9 C32,9 30,10 28.5,11 C26,14 26,18 26,18 L26,39.5 C23,40 20.5,41 19,42.5 C16,46 16,50.5 16,56.5 C16,57.5 16,59 16,60 C16,67 19.5,70.5 23,74 L24.5,76 C31,82 36.5,84 50,84 C64.5,84 71,76 71,58.5 L71,46 C71,42.5 70,35.5 64,34 Z M66,46 L66,59 C66,76 59.5,79.5 50,79.5 C38,79.5 33.5,78 28.5,73 C28,72.5 27.5,72 26.5,71 C23,67 21,65 21,60 C21,59 21,57.5 21,56.5 C21,51.5 21,48 22.5,46 C23,45.5 24.5,45 26,45 L26,47.5 L24.5,55 C24.5,55.5 24.5,55.5 25,56 C25.5,56.5 26,56 26,56 L31,50 C31,49.5 31,49 31,49 L31,18 C31,17.5 31,15.5 32,14.5 C32.5,14.5 33,14 34,14 C35.5,14 36,15.5 36,16 L36,31.5 C36,31.5 36,31.5 36,31.5 L36,37.5 C36,39 37,40.5 38.5,40.5 C40,40.5 41,39 41,38 L41,31.5 C41,31.5 41,31.5 41,31.5 C41,31 41.5,29 43.5,29 C45,29 46,29.5 46,31 L46,37.5 C46,39 47,40.5 48.5,40.5 C50,40.5 51,39 51,38 L51,34.5 C51,34 51.5,33 53.5,33 C54.5,33 55,33.5 55,33.5 C56,34 56,35.5 56,35.5 L56,39.5 C56,41 57,42 58,42 C59.5,42 60.5,41.5 60.5,40 C60.5,39.5 61,39 61.5,38.5 C61.5,38.5 62,38.5 62.5,38.5 C65.5,39.5 66,44.5 66,46 C66,45.5 66,45.5 66,46 L66,46 Z" id="Shape" transform="translate(43.500000, 46.500000) rotate(31.000000) translate(-43.500000, -46.500000) "></path>
            </g>
        </g>
        <polygon id="Line-2" fill="#FFFFFF" fill-rule="nonzero" points="411 230.776337 411 176 419 176 419 230.776337 437 230.776337 415 293 393 230.776337 411 230.776337"></polygon>
        <path d="M330.287256,342.707031 L332.768701,342.707031 C333.950348,342.707031 334.825827,342.411624 335.395166,341.820801 C335.964505,341.229978 336.24917,340.445806 336.24917,339.468262 C336.24917,338.522944 335.96719,337.787112 335.403223,337.260742 C334.839255,336.734372 334.06314,336.471191 333.074854,336.471191 C332.183247,336.471191 331.436673,336.715574 330.835107,337.204346 C330.233542,337.693118 329.932764,338.329586 329.932764,339.11377 L325.276025,339.11377 C325.276025,337.889154 325.606344,336.790776 326.266992,335.818604 C326.92764,334.846431 327.851459,334.086429 329.038477,333.538574 C330.225494,332.99072 331.533342,332.716797 332.962061,332.716797 C335.443518,332.716797 337.387835,333.310297 338.795068,334.497314 C340.202302,335.684332 340.905908,337.319814 340.905908,339.403809 C340.905908,340.478033 340.578275,341.466304 339.922998,342.368652 C339.267721,343.271001 338.408355,343.963865 337.344873,344.447266 C338.666169,344.919924 339.651755,345.628902 340.30166,346.574219 C340.951566,347.519536 341.276514,348.636712 341.276514,349.925781 C341.276514,352.009776 340.516512,353.680169 338.996484,354.937012 C337.476457,356.193854 335.465003,356.822266 332.962061,356.822266 C330.620252,356.822266 328.705476,356.204596 327.217676,354.969238 C325.729875,353.733881 324.985986,352.101084 324.985986,350.070801 L329.642725,350.070801 C329.642725,350.951665 329.973044,351.671384 330.633691,352.22998 C331.294339,352.788577 332.108052,353.067871 333.074854,353.067871 C334.181304,353.067871 335.048727,352.775149 335.677148,352.189697 C336.30557,351.604245 336.619775,350.82813 336.619775,349.861328 C336.619775,347.51952 335.330726,346.348633 332.752588,346.348633 L330.287256,346.348633 L330.287256,342.707031 Z M354.415088,344.27002 L357.347705,339.06543 L362.326709,339.06543 L357.363818,347.605469 L362.536182,356.5 L357.541064,356.5 L354.431201,351.021484 L351.337451,356.5 L346.326221,356.5 L351.498584,347.605469 L346.551807,339.06543 L351.546924,339.06543 L354.415088,344.27002 Z M378.607373,350.328613 C378.607373,349.44775 378.362991,348.746829 377.874219,348.22583 C377.385447,347.704831 376.555621,347.224123 375.384717,346.783691 C374.213813,346.34326 373.204057,345.90552 372.35542,345.470459 C371.506783,345.035398 370.779007,344.535891 370.17207,343.971924 C369.565134,343.407956 369.092482,342.744633 368.754102,341.981934 C368.415721,341.219234 368.246533,340.311529 368.246533,339.258789 C368.246533,337.44335 368.826606,335.955572 369.986768,334.79541 C371.14693,333.635248 372.688418,332.958497 374.611279,332.765137 L374.611279,329.316895 L377.189404,329.316895 L377.189404,332.813477 C379.090781,333.082033 380.578559,333.874261 381.652783,335.190186 C382.727007,336.50611 383.264111,338.211415 383.264111,340.306152 L378.607373,340.306152 C378.607373,339.017083 378.341507,338.052982 377.809766,337.413818 C377.278025,336.774655 376.566362,336.455078 375.674756,336.455078 C374.793892,336.455078 374.11177,336.704831 373.628369,337.204346 C373.144968,337.70386 372.903271,338.394039 372.903271,339.274902 C372.903271,340.091313 373.139597,340.74658 373.612256,341.240723 C374.084914,341.734866 374.96308,342.239744 376.246777,342.755371 C377.530475,343.270999 378.585885,343.757078 379.413037,344.213623 C380.24019,344.670168 380.938425,345.185788 381.507764,345.760498 C382.077102,346.335208 382.512157,346.990475 382.812939,347.726318 C383.113722,348.462162 383.264111,349.318843 383.264111,350.296387 C383.264111,352.122568 382.694781,353.604975 381.556104,354.743652 C380.417426,355.88233 378.849082,356.55371 376.851025,356.757812 L376.851025,359.964355 L374.289014,359.964355 L374.289014,356.773926 C372.086854,356.537596 370.381549,355.75611 369.173047,354.429443 C367.964545,353.102777 367.360303,351.33839 367.360303,349.13623 L372.017041,349.13623 C372.017041,350.414557 372.320505,351.394772 372.927441,352.076904 C373.534378,352.759037 374.407172,353.100098 375.54585,353.100098 C376.491167,353.100098 377.237741,352.850344 377.785596,352.35083 C378.33345,351.851316 378.607373,351.17725 378.607373,350.328613 Z M405.45835,335.649414 L396.386572,356.5 L391.472021,356.5 L400.559912,336.80957 L388.893896,336.80957 L388.893896,333.039062 L405.45835,333.039062 L405.45835,335.649414 Z M408.874365,354.211914 C408.874365,353.470699 409.124119,352.869143 409.623633,352.407227 C410.123147,351.94531 410.748873,351.714355 411.50083,351.714355 C412.263529,351.714355 412.894626,351.94531 413.394141,352.407227 C413.893655,352.869143 414.143408,353.470699 414.143408,354.211914 C414.143408,354.942386 413.89634,355.535886 413.402197,355.992432 C412.908054,356.448977 412.274271,356.677246 411.50083,356.677246 C410.738131,356.677246 410.109719,356.448977 409.615576,355.992432 C409.121433,355.535886 408.874365,354.942386 408.874365,354.211914 Z M431.803564,347.669922 L434.462256,347.669922 L434.462256,351.424316 L431.803564,351.424316 L431.803564,356.5 L427.146826,356.5 L427.146826,351.424316 L417.527197,351.424316 L417.317725,348.491699 L427.098486,333.039062 L431.803564,333.039062 L431.803564,347.669922 Z M421.95835,347.669922 L427.146826,347.669922 L427.146826,339.387695 L426.840674,339.919434 L421.95835,347.669922 Z M447.852393,347.12207 C446.638519,348.314459 445.220565,348.910645 443.598486,348.910645 C441.525234,348.910645 439.865582,348.198982 438.619482,346.775635 C437.373382,345.352288 436.750342,343.432141 436.750342,341.015137 C436.750342,339.478996 437.086032,338.069098 437.757422,336.7854 C438.428812,335.501703 439.366058,334.502689 440.569189,333.78833 C441.77232,333.073971 443.125823,332.716797 444.629736,332.716797 C446.176619,332.716797 447.551605,333.103512 448.754736,333.876953 C449.957867,334.650394 450.892428,335.7622 451.558447,337.212402 C452.224466,338.662605 452.562842,340.322256 452.573584,342.191406 L452.573584,343.915527 C452.573584,347.825703 451.601426,350.897938 449.65708,353.132324 C447.712734,355.36671 444.957391,356.559081 441.390967,356.709473 L440.246924,356.725586 L440.246924,352.842285 L441.278174,352.826172 C445.327999,352.643554 447.519383,350.742206 447.852393,347.12207 Z M444.742529,345.349609 C445.494486,345.349609 446.141697,345.156252 446.68418,344.769531 C447.226663,344.382811 447.637547,343.91553 447.916846,343.367676 L447.916846,341.450195 C447.916846,339.871086 447.616067,338.646489 447.014502,337.776367 C446.412936,336.906246 445.60728,336.471191 444.59751,336.471191 C443.662935,336.471191 442.894876,336.898189 442.293311,337.752197 C441.691745,338.606205 441.390967,339.677728 441.390967,340.966797 C441.390967,342.245124 441.683688,343.295162 442.269141,344.116943 C442.854593,344.938725 443.679047,345.349609 444.742529,345.349609 Z M472.328467,356.822266 C469.771813,356.822266 467.690535,356.038094 466.08457,354.469727 C464.478605,352.901359 463.675635,350.812025 463.675635,348.20166 L463.675635,347.750488 C463.675635,345.999503 464.01401,344.433845 464.690771,343.053467 C465.367533,341.673089 466.326263,340.609623 467.566992,339.863037 C468.807721,339.116451 470.22299,338.743164 471.812842,338.743164 C474.197619,338.743164 476.074798,339.49511 477.444434,340.999023 C478.814069,342.502937 479.498877,344.63524 479.498877,347.395996 L479.498877,349.297363 L468.396826,349.297363 C468.547218,350.436041 469.00107,351.349118 469.758398,352.036621 C470.515726,352.724125 471.474457,353.067871 472.634619,353.067871 C474.428573,353.067871 475.830415,352.417975 476.840186,351.118164 L479.128271,353.680176 C478.430026,354.668462 477.484723,355.439206 476.292334,355.992432 C475.099945,356.545657 473.778669,356.822266 472.328467,356.822266 Z M471.796729,342.513672 C470.872896,342.513672 470.123636,342.825192 469.548926,343.448242 C468.974216,344.071292 468.6063,344.962885 468.445166,346.123047 L474.922705,346.123047 L474.922705,345.752441 C474.901221,344.721186 474.621927,343.923587 474.084814,343.359619 C473.547702,342.795651 472.785015,342.513672 471.796729,342.513672 Z M492.244482,356.5 C492.029638,356.081053 491.873877,355.560062 491.777197,354.937012 C490.649262,356.193854 489.182968,356.822266 487.378271,356.822266 C485.670255,356.822266 484.254986,356.32813 483.132422,355.339844 C482.009858,354.351558 481.448584,353.105476 481.448584,351.601562 C481.448584,349.753897 482.133392,348.335942 483.503027,347.347656 C484.872663,346.35937 486.851891,345.859863 489.440771,345.849121 L491.583838,345.849121 L491.583838,344.850098 C491.583838,344.04443 491.377053,343.399905 490.963477,342.916504 C490.5499,342.433103 489.897319,342.191406 489.005713,342.191406 C488.221529,342.191406 487.606545,342.379393 487.160742,342.755371 C486.714939,343.13135 486.492041,343.646969 486.492041,344.302246 L481.835303,344.302246 C481.835303,343.292475 482.146823,342.357914 482.769873,341.498535 C483.392923,340.639156 484.273774,339.96509 485.412451,339.476318 C486.551129,338.987546 487.829436,338.743164 489.247412,338.743164 C491.39586,338.743164 493.101166,339.282954 494.363379,340.362549 C495.625592,341.442144 496.256689,342.959463 496.256689,344.914551 L496.256689,352.47168 C496.267432,354.125985 496.498386,355.377437 496.949561,356.226074 L496.949561,356.5 L492.244482,356.5 Z M488.393408,353.26123 C489.080912,353.26123 489.714694,353.108156 490.294775,352.802002 C490.874856,352.495848 491.30454,352.084964 491.583838,351.569336 L491.583838,348.572266 L489.843604,348.572266 C487.512537,348.572266 486.271827,349.377922 486.121436,350.989258 L486.105322,351.263184 C486.105322,351.843265 486.309422,352.321287 486.717627,352.697266 C487.125832,353.073244 487.68442,353.26123 488.393408,353.26123 Z" id="3x$7.49ea" fill="#00D3FF" fill-rule="nonzero"></path>
        <path d="M61.552002,355 L61.552002,331.539062 L69.7697754,331.539062 C72.6164693,331.539062 74.7756274,332.084223 76.2473145,333.174561 C77.7190015,334.264898 78.454834,335.862782 78.454834,337.968262 C78.454834,339.117682 78.1594268,340.130123 77.5686035,341.005615 C76.9777802,341.881108 76.1560111,342.522947 75.1032715,342.931152 C76.3064025,343.231935 77.2543911,343.838863 77.9472656,344.751953 C78.6401402,345.665044 78.9865723,346.78222 78.9865723,348.103516 C78.9865723,350.359386 78.2668529,352.067377 76.8273926,353.227539 C75.3879323,354.387701 73.336195,354.978516 70.6721191,355 L61.552002,355 Z M66.3859863,344.78418 L66.3859863,351.116699 L70.5270996,351.116699 C71.6657772,351.116699 72.5546843,350.845462 73.1938477,350.302979 C73.833011,349.760495 74.1525879,349.011235 74.1525879,348.055176 C74.1525879,345.906728 73.0407826,344.816406 70.8171387,344.78418 L66.3859863,344.78418 Z M66.3859863,341.368164 L69.9631348,341.368164 C72.4016235,341.325195 73.6208496,340.353037 73.6208496,338.45166 C73.6208496,337.388178 73.3120148,336.622805 72.6943359,336.155518 C72.0766571,335.68823 71.1018133,335.45459 69.7697754,335.45459 L66.3859863,335.45459 L66.3859863,341.368164 Z M82.6120605,355 L82.6120605,331.539062 L90.829834,331.539062 C93.6765279,331.539062 95.835686,332.084223 97.307373,333.174561 C98.7790601,334.264898 99.5148926,335.862782 99.5148926,337.968262 C99.5148926,339.117682 99.2194854,340.130123 98.6286621,341.005615 C98.0378388,341.881108 97.2160697,342.522947 96.1633301,342.931152 C97.3664611,343.231935 98.3144497,343.838863 99.0073242,344.751953 C99.7001988,345.665044 100.046631,346.78222 100.046631,348.103516 C100.046631,350.359386 99.3269115,352.067377 97.8874512,353.227539 C96.4479908,354.387701 94.3962536,354.978516 91.7321777,355 L82.6120605,355 Z M87.4460449,344.78418 L87.4460449,351.116699 L91.5871582,351.116699 C92.7258358,351.116699 93.6147429,350.845462 94.2539062,350.302979 C94.8930696,349.760495 95.2126465,349.011235 95.2126465,348.055176 C95.2126465,345.906728 94.1008412,344.816406 91.8771973,344.78418 L87.4460449,344.78418 Z M87.4460449,341.368164 L91.0231934,341.368164 C93.4616821,341.325195 94.6809082,340.353037 94.6809082,338.45166 C94.6809082,337.388178 94.3720734,336.622805 93.7543945,336.155518 C93.1367157,335.68823 92.1618719,335.45459 90.829834,335.45459 L87.4460449,335.45459 L87.4460449,341.368164 Z M122.911377,343.80127 C122.911377,345.992687 122.556888,347.89672 121.8479,349.513428 C121.138912,351.130135 120.156012,352.427241 118.89917,353.404785 L122.798584,356.466309 L119.720947,359.189453 L114.72583,355.177246 C114.156491,355.273926 113.565677,355.322266 112.953369,355.322266 C111.009023,355.322266 109.274178,354.854985 107.748779,353.92041 C106.223381,352.985835 105.041752,351.651132 104.203857,349.91626 C103.365963,348.181388 102.94165,346.186046 102.930908,343.930176 L102.930908,342.77002 C102.930908,340.460438 103.347164,338.427499 104.179688,336.671143 C105.012211,334.914786 106.188469,333.566655 107.708496,332.626709 C109.228523,331.686763 110.966055,331.216797 112.921143,331.216797 C114.87623,331.216797 116.613762,331.686763 118.133789,332.626709 C119.653816,333.566655 120.830074,334.914786 121.662598,336.671143 C122.495121,338.427499 122.911377,340.455067 122.911377,342.753906 L122.911377,343.80127 Z M118.012939,342.737793 C118.012939,340.27782 117.572514,338.408698 116.69165,337.130371 C115.810787,335.852044 114.553963,335.212891 112.921143,335.212891 C111.299064,335.212891 110.047612,335.843988 109.166748,337.106201 C108.285884,338.368415 107.840088,340.218738 107.829346,342.657227 L107.829346,343.80127 C107.829346,346.196789 108.269771,348.055169 109.150635,349.376465 C110.031499,350.697761 111.299064,351.358398 112.953369,351.358398 C114.575448,351.358398 115.821529,350.72193 116.69165,349.448975 C117.561772,348.176019 118.002197,346.320325 118.012939,343.881836 L118.012939,342.737793 Z M153.091553,347.185059 C152.908935,349.709485 151.977059,351.69677 150.295898,353.146973 C148.614738,354.597175 146.399184,355.322266 143.64917,355.322266 C140.641342,355.322266 138.275399,354.309825 136.55127,352.284912 C134.82714,350.26 133.965088,347.480486 133.965088,343.946289 L133.965088,342.512207 C133.965088,340.256336 134.362545,338.269052 135.157471,336.550293 C135.952397,334.831534 137.088372,333.512944 138.56543,332.594482 C140.042488,331.676021 141.758535,331.216797 143.713623,331.216797 C146.420668,331.216797 148.60131,331.941887 150.255615,333.39209 C151.90992,334.842292 152.865966,336.877917 153.123779,339.499023 L148.289795,339.499023 C148.17163,337.984367 147.750004,336.88599 147.024902,336.203857 C146.299801,335.521725 145.196052,335.180664 143.713623,335.180664 C142.102287,335.180664 140.896488,335.758051 140.096191,336.912842 C139.295894,338.067633 138.88501,339.858875 138.863525,342.286621 L138.863525,344.059082 C138.863525,346.594251 139.247555,348.44726 140.015625,349.618164 C140.783695,350.789068 141.994865,351.374512 143.64917,351.374512 C145.142341,351.374512 146.256832,351.033451 146.992676,350.351318 C147.728519,349.669186 148.150146,348.613777 148.257568,347.185059 L153.091553,347.185059 Z M160.503662,339.466797 C161.73902,337.984368 163.29125,337.243164 165.1604,337.243164 C168.941669,337.243164 170.859131,339.439919 170.912842,343.833496 L170.912842,355 L166.256104,355 L166.256104,343.962402 C166.256104,342.963374 166.041262,342.224856 165.611572,341.746826 C165.181883,341.268796 164.467534,341.029785 163.468506,341.029785 C162.104241,341.029785 161.11597,341.556147 160.503662,342.608887 L160.503662,355 L155.846924,355 L155.846924,330.25 L160.503662,330.25 L160.503662,339.466797 Z M179.340088,355 L174.667236,355 L174.667236,337.56543 L179.340088,337.56543 L179.340088,355 Z M174.393311,333.053711 C174.393311,332.355465 174.626951,331.780764 175.094238,331.32959 C175.561526,330.878416 176.197994,330.652832 177.003662,330.652832 C177.798588,330.652832 178.432371,330.878416 178.905029,331.32959 C179.377688,331.780764 179.614014,332.355465 179.614014,333.053711 C179.614014,333.762699 179.375002,334.342771 178.896973,334.793945 C178.418943,335.245119 177.787846,335.470703 177.003662,335.470703 C176.219479,335.470703 175.588381,335.245119 175.110352,334.793945 C174.632322,334.342771 174.393311,333.762699 174.393311,333.053711 Z M190.426025,351.567871 C191.285405,351.567871 191.98364,351.331545 192.520752,350.858887 C193.057864,350.386228 193.337158,349.757816 193.358643,348.973633 L197.725342,348.973633 C197.7146,350.155279 197.392337,351.237544 196.758545,352.220459 C196.124753,353.203374 195.25733,353.966062 194.15625,354.508545 C193.05517,355.051028 191.83863,355.322266 190.506592,355.322266 C188.014392,355.322266 186.048591,354.530037 184.609131,352.945557 C183.169671,351.361076 182.449951,349.172377 182.449951,346.379395 L182.449951,346.073242 C182.449951,343.387682 183.164299,341.244637 184.593018,339.644043 C186.021736,338.043449 187.982165,337.243164 190.474365,337.243164 C192.65504,337.243164 194.403314,337.863519 195.719238,339.104248 C197.035163,340.344977 197.703857,341.996572 197.725342,344.059082 L193.358643,344.059082 C193.337158,343.156734 193.057864,342.423587 192.520752,341.859619 C191.98364,341.295651 191.274663,341.013672 190.393799,341.013672 C189.308832,341.013672 188.489749,341.408443 187.936523,342.197998 C187.383298,342.987553 187.106689,344.268546 187.106689,346.041016 L187.106689,346.524414 C187.106689,348.318368 187.380612,349.607418 187.928467,350.391602 C188.476321,351.175785 189.308832,351.567871 190.426025,351.567871 Z M206.716553,348.006836 L205.040771,349.682617 L205.040771,355 L200.384033,355 L200.384033,330.25 L205.040771,330.25 L205.040771,343.962402 L205.943115,342.802246 L210.406494,337.56543 L215.997803,337.56543 L209.69751,344.83252 L216.545654,355 L211.196045,355 L206.716553,348.006836 Z M226.036377,355.322266 C223.479724,355.322266 221.398446,354.538094 219.79248,352.969727 C218.186515,351.401359 217.383545,349.312025 217.383545,346.70166 L217.383545,346.250488 C217.383545,344.499503 217.72192,342.933845 218.398682,341.553467 C219.075443,340.173089 220.034173,339.109623 221.274902,338.363037 C222.515631,337.616451 223.9309,337.243164 225.520752,337.243164 C227.90553,337.243164 229.782708,337.99511 231.152344,339.499023 C232.52198,341.002937 233.206787,343.13524 233.206787,345.895996 L233.206787,347.797363 L222.104736,347.797363 C222.255128,348.936041 222.708981,349.849118 223.466309,350.536621 C224.223637,351.224125 225.182367,351.567871 226.342529,351.567871 C228.136484,351.567871 229.538325,350.917975 230.548096,349.618164 L232.836182,352.180176 C232.137936,353.168462 231.192633,353.939206 230.000244,354.492432 C228.807855,355.045657 227.48658,355.322266 226.036377,355.322266 Z M225.504639,341.013672 C224.580806,341.013672 223.831546,341.325192 223.256836,341.948242 C222.682126,342.571292 222.31421,343.462885 222.153076,344.623047 L228.630615,344.623047 L228.630615,344.252441 C228.609131,343.221186 228.329837,342.423587 227.792725,341.859619 C227.255613,341.295651 226.492925,341.013672 225.504639,341.013672 Z M240.135498,337.56543 L240.280518,339.57959 C241.526618,338.021965 243.197011,337.243164 245.291748,337.243164 C247.139414,337.243164 248.5144,337.785639 249.416748,338.870605 C250.319096,339.955572 250.781006,341.577626 250.80249,343.736816 L250.80249,355 L246.145752,355 L246.145752,343.849609 C246.145752,342.861323 245.93091,342.144289 245.501221,341.698486 C245.071531,341.252683 244.357183,341.029785 243.358154,341.029785 C242.047601,341.029785 241.064701,341.588373 240.409424,342.705566 L240.409424,355 L235.752686,355 L235.752686,337.56543 L240.135498,337.56543 Z" id="BBQChicken" fill="#00D3FF" fill-rule="nonzero"></path>
        <path d="M339.391602,452.100586 L333.729492,452.100586 L333.729492,467.5 L329.920898,467.5 L329.920898,452.100586 L324.334961,452.100586 L324.334961,449.015625 L339.391602,449.015625 L339.391602,452.100586 Z M351.998047,463.691406 L345.320312,463.691406 L344.050781,467.5 L340.000977,467.5 L346.881836,449.015625 L350.411133,449.015625 L357.330078,467.5 L353.280273,467.5 L351.998047,463.691406 Z M346.348633,460.606445 L350.969727,460.606445 L348.646484,453.6875 L346.348633,460.606445 Z M362.865234,460.987305 L362.865234,467.5 L359.056641,467.5 L359.056641,449.015625 L366.267578,449.015625 C367.655606,449.015625 368.87646,449.269529 369.930176,449.777344 C370.983892,450.285159 371.794268,451.006669 372.361328,451.941895 C372.928388,452.877121 373.211914,453.9414 373.211914,455.134766 C373.211914,456.945973 372.591966,458.374181 371.352051,459.419434 C370.112136,460.464686 368.39617,460.987305 366.204102,460.987305 L362.865234,460.987305 Z M362.865234,457.902344 L366.267578,457.902344 C367.274745,457.902344 368.042803,457.665367 368.571777,457.191406 C369.100751,456.717446 369.365234,456.040369 369.365234,455.160156 C369.365234,454.254553 369.098635,453.522464 368.56543,452.963867 C368.032224,452.405271 367.295903,452.117513 366.356445,452.100586 L362.865234,452.100586 L362.865234,457.902344 Z M392.737305,463.691406 L386.05957,463.691406 L384.790039,467.5 L380.740234,467.5 L387.621094,449.015625 L391.150391,449.015625 L398.069336,467.5 L394.019531,467.5 L392.737305,463.691406 Z M387.087891,460.606445 L391.708984,460.606445 L389.385742,453.6875 L387.087891,460.606445 Z M414.827148,467.5 L411.018555,467.5 L403.604492,455.337891 L403.604492,467.5 L399.795898,467.5 L399.795898,449.015625 L403.604492,449.015625 L411.03125,461.203125 L411.03125,449.015625 L414.827148,449.015625 L414.827148,467.5 Z M418.15332,467.5 L418.15332,449.015625 L423.84082,449.015625 C425.465828,449.015625 426.919427,449.38167 428.20166,450.11377 C429.483893,450.84587 430.484697,451.886875 431.204102,453.236816 C431.923506,454.586758 432.283203,456.12076 432.283203,457.838867 L432.283203,458.689453 C432.283203,460.407561 431.929854,461.935215 431.223145,463.272461 C430.516435,464.609707 429.519863,465.646481 428.233398,466.382812 C426.946934,467.119144 425.495451,467.491536 423.878906,467.5 L418.15332,467.5 Z M421.961914,452.100586 L421.961914,464.44043 L423.802734,464.44043 C425.292325,464.44043 426.43066,463.953781 427.217773,462.980469 C428.004887,462.007157 428.406901,460.614918 428.423828,458.803711 L428.423828,457.826172 C428.423828,455.947256 428.034509,454.52328 427.255859,453.554199 C426.47721,452.585119 425.338875,452.100586 423.84082,452.100586 L421.961914,452.100586 Z M456.569336,467.5 L452.760742,467.5 L452.760742,459.578125 L445.333984,459.578125 L445.333984,467.5 L441.525391,467.5 L441.525391,449.015625 L445.333984,449.015625 L445.333984,456.505859 L452.760742,456.505859 L452.760742,449.015625 L456.569336,449.015625 L456.569336,467.5 Z M475.079102,458.676758 C475.079102,460.496428 474.75749,462.09179 474.114258,463.462891 C473.471025,464.833991 472.550624,465.891923 471.353027,466.636719 C470.15543,467.381514 468.782234,467.753906 467.233398,467.753906 C465.70149,467.753906 464.334641,467.385746 463.132812,466.649414 C461.930984,465.913082 461.000003,464.861498 460.339844,463.494629 C459.679684,462.12776 459.345378,460.555673 459.336914,458.77832 L459.336914,457.864258 C459.336914,456.044587 459.664873,454.442878 460.320801,453.059082 C460.976729,451.675286 461.903477,450.613122 463.101074,449.872559 C464.298671,449.131995 465.667636,448.761719 467.208008,448.761719 C468.74838,448.761719 470.117344,449.131995 471.314941,449.872559 C472.512539,450.613122 473.439287,451.675286 474.095215,453.059082 C474.751143,454.442878 475.079102,456.040356 475.079102,457.851562 L475.079102,458.676758 Z M471.219727,457.838867 C471.219727,455.900706 470.872725,454.428065 470.178711,453.420898 C469.484697,452.413732 468.494473,451.910156 467.208008,451.910156 C465.930007,451.910156 464.944014,452.407384 464.25,453.401855 C463.555986,454.396327 463.204753,455.854157 463.196289,457.775391 L463.196289,458.676758 C463.196289,460.564137 463.543291,462.028315 464.237305,463.069336 C464.931319,464.110357 465.930007,464.630859 467.233398,464.630859 C468.5114,464.630859 469.493161,464.1294 470.178711,463.126465 C470.864261,462.12353 471.211263,460.661468 471.219727,458.740234 L471.219727,457.838867 Z M481.655273,464.44043 L489.742188,464.44043 L489.742188,467.5 L477.84668,467.5 L477.84668,449.015625 L481.655273,449.015625 L481.655273,464.44043 Z M491.925781,467.5 L491.925781,449.015625 L497.613281,449.015625 C499.238289,449.015625 500.691888,449.38167 501.974121,450.11377 C503.256354,450.84587 504.257158,451.886875 504.976562,453.236816 C505.695967,454.586758 506.055664,456.12076 506.055664,457.838867 L506.055664,458.689453 C506.055664,460.407561 505.702315,461.935215 504.995605,463.272461 C504.288896,464.609707 503.292324,465.646481 502.005859,466.382812 C500.719395,467.119144 499.267912,467.491536 497.651367,467.5 L491.925781,467.5 Z M495.734375,452.100586 L495.734375,464.44043 L497.575195,464.44043 C499.064786,464.44043 500.203121,463.953781 500.990234,462.980469 C501.777348,462.007157 502.179362,460.614918 502.196289,458.803711 L502.196289,457.826172 C502.196289,455.947256 501.80697,454.52328 501.02832,453.554199 C500.249671,452.585119 499.111336,452.100586 497.613281,452.100586 L495.734375,452.100586 Z" id="TAPANDHOLD" fill="#FFFFFF" fill-rule="nonzero"></path>
        <path d="M345.594727,687.733398 L342.560547,687.733398 L342.560547,694.5 L338.751953,694.5 L338.751953,676.015625 L345.620117,676.015625 C347.803722,676.015625 349.48795,676.502274 350.672852,677.475586 C351.857753,678.448898 352.450195,679.82421 352.450195,681.601562 C352.450195,682.862637 352.177249,683.914221 351.631348,684.756348 C351.085446,685.598474 350.258144,686.269203 349.149414,686.768555 L353.148438,694.322266 L353.148438,694.5 L349.060547,694.5 L345.594727,687.733398 Z M342.560547,684.648438 L345.632812,684.648438 C346.589197,684.648438 347.32975,684.405113 347.854492,683.918457 C348.379234,683.431801 348.641602,682.761072 348.641602,681.90625 C348.641602,681.034501 348.394045,680.348961 347.898926,679.849609 C347.403806,679.350258 346.644211,679.100586 345.620117,679.100586 L342.560547,679.100586 L342.560547,684.648438 Z M366.46582,686.489258 L359.15332,686.489258 L359.15332,691.44043 L367.735352,691.44043 L367.735352,694.5 L355.344727,694.5 L355.344727,676.015625 L367.709961,676.015625 L367.709961,679.100586 L359.15332,679.100586 L359.15332,683.505859 L366.46582,683.505859 L366.46582,686.489258 Z M379.554688,689.650391 C379.554688,688.930986 379.300784,688.378745 378.792969,687.993652 C378.285154,687.608559 377.3711,687.202313 376.050781,686.774902 C374.730462,686.347491 373.685225,685.926434 372.915039,685.511719 C370.81607,684.377598 369.766602,682.849945 369.766602,680.928711 C369.766602,679.930008 370.048012,679.039229 370.61084,678.256348 C371.173668,677.473466 371.981928,676.861981 373.035645,676.421875 C374.089361,675.981769 375.272129,675.761719 376.583984,675.761719 C377.904303,675.761719 379.080724,676.000811 380.113281,676.479004 C381.145838,676.957196 381.947751,677.632157 382.519043,678.503906 C383.090335,679.375655 383.375977,680.36588 383.375977,681.474609 L379.567383,681.474609 C379.567383,680.628251 379.300784,679.970217 378.767578,679.500488 C378.234372,679.030759 377.485356,678.795898 376.520508,678.795898 C375.589514,678.795898 374.865888,678.992674 374.349609,679.38623 C373.833331,679.779787 373.575195,680.298174 373.575195,680.941406 C373.575195,681.542321 373.877764,682.045896 374.48291,682.452148 C375.088056,682.8584 375.978835,683.239256 377.155273,683.594727 C379.321951,684.246423 380.900386,685.054683 381.890625,686.019531 C382.880864,686.98438 383.375977,688.186191 383.375977,689.625 C383.375977,691.224617 382.770839,692.479325 381.560547,693.38916 C380.350254,694.298995 378.721039,694.753906 376.672852,694.753906 C375.250969,694.753906 373.956061,694.493655 372.788086,693.973145 C371.620111,693.452634 370.729332,692.739588 370.115723,691.833984 C369.502113,690.928381 369.195312,689.878912 369.195312,688.685547 L373.016602,688.685547 C373.016602,690.725271 374.235339,691.745117 376.672852,691.745117 C377.578455,691.745117 378.285154,691.561037 378.792969,691.192871 C379.300784,690.824705 379.554688,690.31055 379.554688,689.650391 Z M397.074219,686.489258 L389.761719,686.489258 L389.761719,691.44043 L398.34375,691.44043 L398.34375,694.5 L385.953125,694.5 L385.953125,676.015625 L398.318359,676.015625 L398.318359,679.100586 L389.761719,679.100586 L389.761719,683.505859 L397.074219,683.505859 L397.074219,686.489258 Z M414.492188,679.100586 L408.830078,679.100586 L408.830078,694.5 L405.021484,694.5 L405.021484,679.100586 L399.435547,679.100586 L399.435547,676.015625 L414.492188,676.015625 L414.492188,679.100586 Z M426.248047,689.650391 C426.248047,688.930986 425.994143,688.378745 425.486328,687.993652 C424.978513,687.608559 424.06446,687.202313 422.744141,686.774902 C421.423822,686.347491 420.378585,685.926434 419.608398,685.511719 C417.50943,684.377598 416.459961,682.849945 416.459961,680.928711 C416.459961,679.930008 416.741371,679.039229 417.304199,678.256348 C417.867028,677.473466 418.675288,676.861981 419.729004,676.421875 C420.78272,675.981769 421.965488,675.761719 423.277344,675.761719 C424.597663,675.761719 425.774083,676.000811 426.806641,676.479004 C427.839198,676.957196 428.64111,677.632157 429.212402,678.503906 C429.783694,679.375655 430.069336,680.36588 430.069336,681.474609 L426.260742,681.474609 C426.260742,680.628251 425.994143,679.970217 425.460938,679.500488 C424.927732,679.030759 424.178716,678.795898 423.213867,678.795898 C422.282873,678.795898 421.559247,678.992674 421.042969,679.38623 C420.52669,679.779787 420.268555,680.298174 420.268555,680.941406 C420.268555,681.542321 420.571123,682.045896 421.17627,682.452148 C421.781416,682.8584 422.672195,683.239256 423.848633,683.594727 C426.01531,684.246423 427.593745,685.054683 428.583984,686.019531 C429.574224,686.98438 430.069336,688.186191 430.069336,689.625 C430.069336,691.224617 429.464199,692.479325 428.253906,693.38916 C427.043614,694.298995 425.414398,694.753906 423.366211,694.753906 C421.944329,694.753906 420.64942,694.493655 419.481445,693.973145 C418.313471,693.452634 417.422692,692.739588 416.809082,691.833984 C416.195472,690.928381 415.888672,689.878912 415.888672,688.685547 L419.709961,688.685547 C419.709961,690.725271 420.928699,691.745117 423.366211,691.745117 C424.271814,691.745117 424.978513,691.561037 425.486328,691.192871 C425.994143,690.824705 426.248047,690.31055 426.248047,689.650391 Z M453.035156,679.100586 L447.373047,679.100586 L447.373047,694.5 L443.564453,694.5 L443.564453,679.100586 L437.978516,679.100586 L437.978516,676.015625 L453.035156,676.015625 L453.035156,679.100586 Z M470.389648,685.676758 C470.389648,687.496428 470.068037,689.09179 469.424805,690.462891 C468.781572,691.833991 467.861171,692.891923 466.663574,693.636719 C465.465977,694.381514 464.092781,694.753906 462.543945,694.753906 C461.012037,694.753906 459.645188,694.385746 458.443359,693.649414 C457.24153,692.913082 456.31055,691.861498 455.650391,690.494629 C454.990231,689.12776 454.655925,687.555673 454.647461,685.77832 L454.647461,684.864258 C454.647461,683.044587 454.97542,681.442878 455.631348,680.059082 C456.287275,678.675286 457.214024,677.613122 458.411621,676.872559 C459.609218,676.131995 460.978182,675.761719 462.518555,675.761719 C464.058927,675.761719 465.427891,676.131995 466.625488,676.872559 C467.823085,677.613122 468.749834,678.675286 469.405762,680.059082 C470.061689,681.442878 470.389648,683.040356 470.389648,684.851562 L470.389648,685.676758 Z M466.530273,684.838867 C466.530273,682.900706 466.183272,681.428065 465.489258,680.420898 C464.795244,679.413732 463.805019,678.910156 462.518555,678.910156 C461.240554,678.910156 460.254561,679.407384 459.560547,680.401855 C458.866533,681.396327 458.5153,682.854157 458.506836,684.775391 L458.506836,685.676758 C458.506836,687.564137 458.853838,689.028315 459.547852,690.069336 C460.241865,691.110357 461.240553,691.630859 462.543945,691.630859 C463.821946,691.630859 464.803708,691.1294 465.489258,690.126465 C466.174808,689.12353 466.52181,687.661468 466.530273,685.740234 L466.530273,684.838867 Z M488.150391,694.5 L484.481445,694.5 L484.481445,680.357422 L480.101562,681.71582 L480.101562,678.732422 L487.756836,675.990234 L488.150391,675.990234 L488.150391,694.5 Z" id="RESETSTO1" fill="#FFFFFF" fill-rule="nonzero"></path>
        <g id="TAP-AND-HOLD-THE-ITE" transform="translate(57.706055, 65.216797)" fill-rule="nonzero">
            <path d="M52.5776367,4.23779297 L45.3911133,4.23779297 L45.3911133,23.7832031 L40.5571289,23.7832031 L40.5571289,4.23779297 L33.4672852,4.23779297 L33.4672852,0.322265625 L52.5776367,0.322265625 L52.5776367,4.23779297 Z M68.578125,18.9492188 L60.1025391,18.9492188 L58.4912109,23.7832031 L53.3510742,23.7832031 L62.0844727,0.322265625 L66.5639648,0.322265625 L75.3457031,23.7832031 L70.2055664,23.7832031 L68.578125,18.9492188 Z M61.4077148,15.0336914 L67.2729492,15.0336914 L64.3242188,6.25195312 L61.4077148,15.0336914 Z M82.3710938,15.5170898 L82.3710938,23.7832031 L77.5371094,23.7832031 L77.5371094,0.322265625 L86.6894531,0.322265625 C88.4511807,0.322265625 90.0007257,0.644528027 91.3381348,1.2890625 C92.6755438,1.93359697 93.704098,2.8493593 94.4238281,4.03637695 C95.1435583,5.22339461 95.503418,6.57421118 95.503418,8.08886719 C95.503418,10.3877068 94.7165606,12.2004328 93.1428223,13.5270996 C91.5690839,14.8537664 89.3911272,15.5170898 86.6088867,15.5170898 L82.3710938,15.5170898 Z M82.3710938,11.6015625 L86.6894531,11.6015625 C87.9677798,11.6015625 88.9426236,11.3007843 89.6140137,10.6992188 C90.2854037,10.0976532 90.6210938,9.23828684 90.6210938,8.12109375 C90.6210938,6.97167394 90.2827182,6.04248401 89.605957,5.33349609 C88.9291958,4.62450817 87.9946349,4.25927745 86.8022461,4.23779297 L82.3710938,4.23779297 L82.3710938,11.6015625 Z M120.285645,18.9492188 L111.810059,18.9492188 L110.19873,23.7832031 L105.058594,23.7832031 L113.791992,0.322265625 L118.271484,0.322265625 L127.053223,23.7832031 L121.913086,23.7832031 L120.285645,18.9492188 Z M113.115234,15.0336914 L118.980469,15.0336914 L116.031738,6.25195312 L113.115234,15.0336914 Z M148.322754,23.7832031 L143.48877,23.7832031 L134.078613,8.34667969 L134.078613,23.7832031 L129.244629,23.7832031 L129.244629,0.322265625 L134.078613,0.322265625 L143.504883,15.7910156 L143.504883,0.322265625 L148.322754,0.322265625 L148.322754,23.7832031 Z M152.544434,23.7832031 L152.544434,0.322265625 L159.763184,0.322265625 C161.825694,0.322265625 163.670646,0.786860588 165.298096,1.71606445 C166.925545,2.64526832 168.195796,3.96654417 169.108887,5.67993164 C170.021977,7.39331911 170.478516,9.34032113 170.478516,11.5209961 L170.478516,12.6005859 C170.478516,14.7812609 170.030034,16.7202064 169.133057,18.4174805 C168.236079,20.1147546 166.9712,21.4306594 165.338379,22.3652344 C163.705558,23.2998094 161.863292,23.7724609 159.811523,23.7832031 L152.544434,23.7832031 Z M157.378418,4.23779297 L157.378418,19.8999023 L159.714844,19.8999023 C161.605478,19.8999023 163.050288,19.2822327 164.049316,18.046875 C165.048345,16.8115173 165.558594,15.0444451 165.580078,12.7456055 L165.580078,11.5048828 C165.580078,9.12010526 165.085942,7.31275029 164.097656,6.08276367 C163.10937,4.85277705 161.66456,4.23779297 159.763184,4.23779297 L157.378418,4.23779297 Z M201.303223,23.7832031 L196.469238,23.7832031 L196.469238,13.7285156 L187.042969,13.7285156 L187.042969,23.7832031 L182.208984,23.7832031 L182.208984,0.322265625 L187.042969,0.322265625 L187.042969,9.82910156 L196.469238,9.82910156 L196.469238,0.322265625 L201.303223,0.322265625 L201.303223,23.7832031 Z M224.796387,12.5844727 C224.796387,14.8940545 224.388188,16.9189366 223.571777,18.6591797 C222.755367,20.3994228 221.587166,21.7421828 220.067139,22.6875 C218.547112,23.6328172 216.804209,24.1054688 214.838379,24.1054688 C212.894033,24.1054688 211.159187,23.6381883 209.633789,22.7036133 C208.108391,21.7690383 206.926762,20.4343348 206.088867,18.6994629 C205.250972,16.9645909 204.82666,14.9692496 204.815918,12.7133789 L204.815918,11.5532227 C204.815918,9.2436408 205.232174,7.21070214 206.064697,5.4543457 C206.897221,3.69798927 208.073479,2.34985822 209.593506,1.40991211 C211.113533,0.469966003 212.851064,0 214.806152,0 C216.76124,0 218.498772,0.469966003 220.018799,1.40991211 C221.538826,2.34985822 222.715084,3.69798927 223.547607,5.4543457 C224.380131,7.21070214 224.796387,9.23826976 224.796387,11.5371094 L224.796387,12.5844727 Z M219.897949,11.5209961 C219.897949,9.06102286 219.457524,7.19190092 218.57666,5.91357422 C217.695796,4.63524751 216.438973,3.99609375 214.806152,3.99609375 C213.184074,3.99609375 211.932622,4.62719095 211.051758,5.8894043 C210.170894,7.15161764 209.725098,9.00194093 209.714355,11.4404297 L209.714355,12.5844727 C209.714355,14.9799924 210.154781,16.8383723 211.035645,18.159668 C211.916508,19.4809636 213.184074,20.1416016 214.838379,20.1416016 C216.460457,20.1416016 217.706539,19.5051333 218.57666,18.2321777 C219.446782,16.9592222 219.887207,15.1035278 219.897949,12.6650391 L219.897949,11.5209961 Z M233.143066,19.8999023 L243.407227,19.8999023 L243.407227,23.7832031 L228.309082,23.7832031 L228.309082,0.322265625 L233.143066,0.322265625 L233.143066,19.8999023 Z M246.178711,23.7832031 L246.178711,0.322265625 L253.397461,0.322265625 C255.459971,0.322265625 257.304924,0.786860588 258.932373,1.71606445 C260.559823,2.64526832 261.830074,3.96654417 262.743164,5.67993164 C263.656255,7.39331911 264.112793,9.34032113 264.112793,11.5209961 L264.112793,12.6005859 C264.112793,14.7812609 263.664311,16.7202064 262.767334,18.4174805 C261.870357,20.1147546 260.605477,21.4306594 258.972656,22.3652344 C257.339836,23.2998094 255.497569,23.7724609 253.445801,23.7832031 L246.178711,23.7832031 Z M251.012695,4.23779297 L251.012695,19.8999023 L253.349121,19.8999023 C255.239756,19.8999023 256.684565,19.2822327 257.683594,18.046875 C258.682622,16.8115173 259.192871,15.0444451 259.214355,12.7456055 L259.214355,11.5048828 C259.214355,9.12010526 258.72022,7.31275029 257.731934,6.08276367 C256.743647,4.85277705 255.298838,4.23779297 253.397461,4.23779297 L251.012695,4.23779297 Z" id="TAPANDHOLD" fill="#ED094D"></path>
            <path d="M293.503418,4.23779297 L286.316895,4.23779297 L286.316895,23.7832031 L281.48291,23.7832031 L281.48291,4.23779297 L274.393066,4.23779297 L274.393066,0.322265625 L293.503418,0.322265625 L293.503418,4.23779297 Z M315.353027,23.7832031 L310.519043,23.7832031 L310.519043,13.7285156 L301.092773,13.7285156 L301.092773,23.7832031 L296.258789,23.7832031 L296.258789,0.322265625 L301.092773,0.322265625 L301.092773,9.82910156 L310.519043,9.82910156 L310.519043,0.322265625 L315.353027,0.322265625 L315.353027,23.7832031 Z M333.689941,13.6157227 L324.408691,13.6157227 L324.408691,19.8999023 L335.30127,19.8999023 L335.30127,23.7832031 L319.574707,23.7832031 L319.574707,0.322265625 L335.269043,0.322265625 L335.269043,4.23779297 L324.408691,4.23779297 L324.408691,9.82910156 L333.689941,9.82910156 L333.689941,13.6157227 Z M351.495117,23.7832031 L346.661133,23.7832031 L346.661133,0.322265625 L351.495117,0.322265625 L351.495117,23.7832031 Z M373.634766,4.23779297 L366.448242,4.23779297 L366.448242,23.7832031 L361.614258,23.7832031 L361.614258,4.23779297 L354.524414,4.23779297 L354.524414,0.322265625 L373.634766,0.322265625 L373.634766,4.23779297 Z M390.505371,13.6157227 L381.224121,13.6157227 L381.224121,19.8999023 L392.116699,19.8999023 L392.116699,23.7832031 L376.390137,23.7832031 L376.390137,0.322265625 L392.084473,0.322265625 L392.084473,4.23779297 L381.224121,4.23779297 L381.224121,9.82910156 L390.505371,9.82910156 L390.505371,13.6157227 Z M401.269043,0.322265625 L407.29541,17.3378906 L413.289551,0.322265625 L419.638184,0.322265625 L419.638184,23.7832031 L414.788086,23.7832031 L414.788086,17.3701172 L415.271484,6.30029297 L408.938965,23.7832031 L405.619629,23.7832031 L399.303223,6.31640625 L399.786621,17.3701172 L399.786621,23.7832031 L394.952637,23.7832031 L394.952637,0.322265625 L401.269043,0.322265625 Z M19.9804688,51.5844727 C19.9804688,53.7758899 19.6259801,55.6799236 18.9169922,57.2966309 C18.2080043,58.9133382 17.2251039,60.2104443 15.9682617,61.1879883 L19.8676758,64.2495117 L16.7900391,66.9726562 L11.7949219,62.9604492 C11.2255831,63.0571294 10.6347687,63.1054688 10.0224609,63.1054688 C8.07811528,63.1054688 6.34326935,62.6381883 4.81787109,61.7036133 C3.29247284,60.7690383 2.11084403,59.4343348 1.27294922,57.6994629 C0.435054404,55.9645909 0.0107422412,53.9692496 0,51.7133789 L0,50.5532227 C0,48.2436408 0.416255603,46.2107021 1.2487793,44.4543457 C2.08130299,42.6979893 3.25756076,41.3498582 4.77758789,40.4099121 C6.29761502,39.469966 8.03514647,39 9.99023438,39 C11.9453223,39 13.6828537,39.469966 15.2028809,40.4099121 C16.722908,41.3498582 17.8991658,42.6979893 18.7316895,44.4543457 C19.5642131,46.2107021 19.9804688,48.2382698 19.9804688,50.5371094 L19.9804688,51.5844727 Z M15.0820312,50.5209961 C15.0820312,48.0610229 14.641606,46.1919009 13.7607422,44.9135742 C12.8798784,43.6352475 11.623055,42.9960938 9.99023438,42.9960938 C8.36815595,42.9960938 7.11670362,43.627191 6.23583984,44.8894043 C5.35497606,46.1516176 4.90917974,48.0019409 4.8984375,50.4404297 L4.8984375,51.5844727 C4.8984375,53.9799924 5.33886278,55.8383723 6.21972656,57.159668 C7.10059034,58.4809636 8.36815579,59.1416016 10.0224609,59.1416016 C11.6445394,59.1416016 12.8906206,58.5051333 13.7607422,57.2321777 C14.6308637,55.9592222 15.071289,54.1035278 15.0820312,51.6650391 L15.0820312,50.5209961 Z M41.2822266,39.3222656 L41.2822266,54.7749023 C41.2822266,57.342298 40.4792561,59.3725511 38.873291,60.8657227 C37.267326,62.3588942 35.0732561,63.1054688 32.2910156,63.1054688 C29.5517441,63.1054688 27.3764729,62.3803783 25.7651367,60.9301758 C24.1538005,59.4799732 23.3320314,57.4873174 23.2998047,54.9521484 L23.2998047,39.3222656 L28.1337891,39.3222656 L28.1337891,54.8071289 C28.1337891,56.3432694 28.5017053,57.4631312 29.2375488,58.166748 C29.9733924,58.8703648 30.9912044,59.222168 32.2910156,59.222168 C35.0088027,59.222168 36.3891599,57.7934713 36.4321289,54.9360352 L36.4321289,39.3222656 L41.2822266,39.3222656 Z M58.4912109,57.9492188 L50.015625,57.9492188 L48.4042969,62.7832031 L43.2641602,62.7832031 L51.9975586,39.3222656 L56.4770508,39.3222656 L65.2587891,62.7832031 L60.1186523,62.7832031 L58.4912109,57.9492188 Z M51.3208008,54.0336914 L57.1860352,54.0336914 L54.2373047,45.2519531 L51.3208008,54.0336914 Z M86.5283203,62.7832031 L81.6943359,62.7832031 L72.2841797,47.3466797 L72.2841797,62.7832031 L67.4501953,62.7832031 L67.4501953,39.3222656 L72.2841797,39.3222656 L81.7104492,54.7910156 L81.7104492,39.3222656 L86.5283203,39.3222656 L86.5283203,62.7832031 Z M108.410156,43.237793 L101.223633,43.237793 L101.223633,62.7832031 L96.3896484,62.7832031 L96.3896484,43.237793 L89.2998047,43.237793 L89.2998047,39.3222656 L108.410156,39.3222656 L108.410156,43.237793 Z M116.305664,62.7832031 L111.47168,62.7832031 L111.47168,39.3222656 L116.305664,39.3222656 L116.305664,62.7832031 Z M138.445312,43.237793 L131.258789,43.237793 L131.258789,62.7832031 L126.424805,62.7832031 L126.424805,43.237793 L119.334961,43.237793 L119.334961,39.3222656 L138.445312,39.3222656 L138.445312,43.237793 Z M149.289551,49.8925781 L154.171875,39.3222656 L159.457031,39.3222656 L151.754883,54.2753906 L151.754883,62.7832031 L146.840332,62.7832031 L146.840332,54.2753906 L139.138184,39.3222656 L144.439453,39.3222656 L149.289551,49.8925781 Z M169.817871,62.7832031 L169.817871,39.3222656 L178.035645,39.3222656 C180.882338,39.3222656 183.041497,39.8674262 184.513184,40.9577637 C185.984871,42.0481012 186.720703,43.6459856 186.720703,45.7514648 C186.720703,46.9008847 186.425296,47.9133257 185.834473,48.7888184 C185.243649,49.664311 184.42188,50.3061503 183.369141,50.7143555 C184.572272,51.0151382 185.52026,51.6220657 186.213135,52.5351562 C186.906009,53.4482468 187.252441,54.5654231 187.252441,55.8867188 C187.252441,58.1425894 186.532722,59.8505801 185.093262,61.0107422 C183.653801,62.1709042 181.602064,62.7617186 178.937988,62.7832031 L169.817871,62.7832031 Z M174.651855,52.5673828 L174.651855,58.8999023 L178.792969,58.8999023 C179.931646,58.8999023 180.820553,58.6286648 181.459717,58.0861816 C182.09888,57.5436985 182.418457,56.7944384 182.418457,55.8383789 C182.418457,53.6899307 181.306652,52.5996095 179.083008,52.5673828 L174.651855,52.5673828 Z M174.651855,49.1513672 L178.229004,49.1513672 C180.667493,49.1083982 181.886719,48.13624 181.886719,46.2348633 C181.886719,45.1713814 181.577884,44.4060082 180.960205,43.9387207 C180.342526,43.4714332 179.367682,43.237793 178.035645,43.237793 L174.651855,43.237793 L174.651855,49.1513672 Z M208.634766,39.3222656 L208.634766,54.7749023 C208.634766,57.342298 207.831795,59.3725511 206.22583,60.8657227 C204.619865,62.3588942 202.425795,63.1054688 199.643555,63.1054688 C196.904283,63.1054688 194.729012,62.3803783 193.117676,60.9301758 C191.50634,59.4799732 190.68457,57.4873174 190.652344,54.9521484 L190.652344,39.3222656 L195.486328,39.3222656 L195.486328,54.8071289 C195.486328,56.3432694 195.854244,57.4631312 196.590088,58.166748 C197.325931,58.8703648 198.343744,59.222168 199.643555,59.222168 C202.361342,59.222168 203.741699,57.7934713 203.784668,54.9360352 L203.784668,39.3222656 L208.634766,39.3222656 Z M230.258789,43.237793 L223.072266,43.237793 L223.072266,62.7832031 L218.238281,62.7832031 L218.238281,43.237793 L211.148438,43.237793 L211.148438,39.3222656 L230.258789,39.3222656 L230.258789,43.237793 Z M250.674316,43.237793 L243.487793,43.237793 L243.487793,62.7832031 L238.653809,62.7832031 L238.653809,43.237793 L231.563965,43.237793 L231.563965,39.3222656 L250.674316,39.3222656 L250.674316,43.237793 Z M272.701172,51.5844727 C272.701172,53.8940545 272.292973,55.9189366 271.476562,57.6591797 C270.660152,59.3994228 269.491951,60.7421828 267.971924,61.6875 C266.451897,62.6328172 264.708994,63.1054688 262.743164,63.1054688 C260.798818,63.1054688 259.063972,62.6381883 257.538574,61.7036133 C256.013176,60.7690383 254.831547,59.4343348 253.993652,57.6994629 C253.155758,55.9645909 252.731445,53.9692496 252.720703,51.7133789 L252.720703,50.5532227 C252.720703,48.2436408 253.136959,46.2107021 253.969482,44.4543457 C254.802006,42.6979893 255.978264,41.3498582 257.498291,40.4099121 C259.018318,39.469966 260.75585,39 262.710938,39 C264.666025,39 266.403557,39.469966 267.923584,40.4099121 C269.443611,41.3498582 270.619869,42.6979893 271.452393,44.4543457 C272.284916,46.2107021 272.701172,48.2382698 272.701172,50.5371094 L272.701172,51.5844727 Z M267.802734,50.5209961 C267.802734,48.0610229 267.362309,46.1919009 266.481445,44.9135742 C265.600582,43.6352475 264.343758,42.9960938 262.710938,42.9960938 C261.088859,42.9960938 259.837407,43.627191 258.956543,44.8894043 C258.075679,46.1516176 257.629883,48.0019409 257.619141,50.4404297 L257.619141,51.5844727 C257.619141,53.9799924 258.059566,55.8383723 258.94043,57.159668 C259.821293,58.4809636 261.088859,59.1416016 262.743164,59.1416016 C264.365242,59.1416016 265.611324,58.5051333 266.481445,57.2321777 C267.351567,55.9592222 267.791992,54.1035278 267.802734,51.6650391 L267.802734,50.5209961 Z M295.291992,62.7832031 L290.458008,62.7832031 L281.047852,47.3466797 L281.047852,62.7832031 L276.213867,62.7832031 L276.213867,39.3222656 L281.047852,39.3222656 L290.474121,54.7910156 L290.474121,39.3222656 L295.291992,39.3222656 L295.291992,62.7832031 Z M325.391602,43.237793 L318.205078,43.237793 L318.205078,62.7832031 L313.371094,62.7832031 L313.371094,43.237793 L306.28125,43.237793 L306.28125,39.3222656 L325.391602,39.3222656 L325.391602,43.237793 Z M347.418457,51.5844727 C347.418457,53.8940545 347.010258,55.9189366 346.193848,57.6591797 C345.377437,59.3994228 344.209236,60.7421828 342.689209,61.6875 C341.169182,62.6328172 339.426279,63.1054688 337.460449,63.1054688 C335.516104,63.1054688 333.781258,62.6381883 332.255859,61.7036133 C330.730461,60.7690383 329.548832,59.4343348 328.710938,57.6994629 C327.873043,55.9645909 327.448731,53.9692496 327.437988,51.7133789 L327.437988,50.5532227 C327.437988,48.2436408 327.854244,46.2107021 328.686768,44.4543457 C329.519291,42.6979893 330.695549,41.3498582 332.215576,40.4099121 C333.735603,39.469966 335.473135,39 337.428223,39 C339.383311,39 341.120842,39.469966 342.640869,40.4099121 C344.160896,41.3498582 345.337154,42.6979893 346.169678,44.4543457 C347.002201,46.2107021 347.418457,48.2382698 347.418457,50.5371094 L347.418457,51.5844727 Z M342.52002,50.5209961 C342.52002,48.0610229 342.079594,46.1919009 341.19873,44.9135742 C340.317867,43.6352475 339.061043,42.9960938 337.428223,42.9960938 C335.806144,42.9960938 334.554692,43.627191 333.673828,44.8894043 C332.792964,46.1516176 332.347168,48.0019409 332.336426,50.4404297 L332.336426,51.5844727 C332.336426,53.9799924 332.776851,55.8383723 333.657715,57.159668 C334.538579,58.4809636 335.806144,59.1416016 337.460449,59.1416016 C339.082528,59.1416016 340.328609,58.5051333 341.19873,57.2321777 C342.068852,55.9592222 342.509277,54.1035278 342.52002,51.6650391 L342.52002,50.5209961 Z M367.833984,54.1948242 L363.98291,54.1948242 L363.98291,62.7832031 L359.148926,62.7832031 L359.148926,39.3222656 L367.866211,39.3222656 C370.637709,39.3222656 372.775383,39.9399352 374.279297,41.175293 C375.783211,42.4106507 376.535156,44.1562387 376.535156,46.4121094 C376.535156,48.0127033 376.188724,49.3474068 375.49585,50.4162598 C374.802975,51.4851128 373.752937,52.3364226 372.345703,52.9702148 L377.421387,62.5576172 L377.421387,62.7832031 L372.23291,62.7832031 L367.833984,54.1948242 Z M363.98291,50.2792969 L367.882324,50.2792969 C369.096197,50.2792969 370.036129,49.9704621 370.702148,49.3527832 C371.368167,48.7351043 371.701172,47.8837945 371.701172,46.7988281 C371.701172,45.6923773 371.386966,44.8222688 370.758545,44.1884766 C370.130124,43.5546843 369.166022,43.237793 367.866211,43.237793 L363.98291,43.237793 L363.98291,50.2792969 Z M394.324219,52.6157227 L385.042969,52.6157227 L385.042969,58.8999023 L395.935547,58.8999023 L395.935547,62.7832031 L380.208984,62.7832031 L380.208984,39.3222656 L395.90332,39.3222656 L395.90332,43.237793 L385.042969,43.237793 L385.042969,48.8291016 L394.324219,48.8291016 L394.324219,52.6157227 Z M410.937012,56.6279297 C410.937012,55.7148392 410.614749,55.0139185 409.970215,54.5251465 C409.32568,54.0363745 408.165536,53.5207547 406.489746,52.9782715 C404.813956,52.4357883 403.48731,51.9013698 402.509766,51.375 C399.84569,49.9355397 398.513672,47.9965942 398.513672,45.5581055 C398.513672,44.290521 398.870846,43.1599171 399.585205,42.1662598 C400.299564,41.1726025 401.325433,40.3964872 402.662842,39.8378906 C404.000251,39.2792941 405.501457,39 407.166504,39 C408.842294,39 410.335443,39.3034638 411.645996,39.9104004 C412.95655,40.517337 413.974362,41.3740179 414.699463,42.4804688 C415.424564,43.5869196 415.787109,44.843743 415.787109,46.2509766 L410.953125,46.2509766 C410.953125,45.1767524 410.614749,44.3415557 409.937988,43.7453613 C409.261227,43.1491669 408.310553,42.8510742 407.085938,42.8510742 C405.904291,42.8510742 404.985843,43.1008276 404.330566,43.6003418 C403.67529,44.099856 403.347656,44.7578084 403.347656,45.5742188 C403.347656,46.3369179 403.731686,46.9760716 404.499756,47.4916992 C405.267826,48.0073268 406.39843,48.4907204 407.891602,48.9418945 C410.641615,49.7690471 412.645013,50.7949158 413.901855,52.0195312 C415.158698,53.2441467 415.787109,54.7695221 415.787109,56.5957031 C415.787109,58.6259867 415.019051,60.2185001 413.48291,61.373291 C411.94677,62.5280819 409.878919,63.1054688 407.279297,63.1054688 C405.4746,63.1054688 403.831062,62.7751498 402.348633,62.114502 C400.866204,61.4538541 399.7356,60.5488339 398.956787,59.3994141 C398.177975,58.2499943 397.788574,56.9179763 397.788574,55.4033203 L402.638672,55.4033203 C402.638672,57.9922004 404.185531,59.2866211 407.279297,59.2866211 C408.428717,59.2866211 409.32568,59.0529809 409.970215,58.5856934 C410.614749,58.1184059 410.937012,57.4658245 410.937012,56.6279297 Z M433.17334,52.6157227 L423.89209,52.6157227 L423.89209,58.8999023 L434.784668,58.8999023 L434.784668,62.7832031 L419.058105,62.7832031 L419.058105,39.3222656 L434.752441,39.3222656 L434.752441,43.237793 L423.89209,43.237793 L423.89209,48.8291016 L433.17334,48.8291016 L433.17334,52.6157227 Z M455.280762,43.237793 L448.094238,43.237793 L448.094238,62.7832031 L443.260254,62.7832031 L443.260254,43.237793 L436.17041,43.237793 L436.17041,39.3222656 L455.280762,39.3222656 L455.280762,43.237793 Z M49.2180176,82.237793 L42.0314941,82.237793 L42.0314941,101.783203 L37.1975098,101.783203 L37.1975098,82.237793 L30.107666,82.237793 L30.107666,78.3222656 L49.2180176,78.3222656 L49.2180176,82.237793 Z M71.067627,101.783203 L66.2336426,101.783203 L66.2336426,91.7285156 L56.807373,91.7285156 L56.807373,101.783203 L51.9733887,101.783203 L51.9733887,78.3222656 L56.807373,78.3222656 L56.807373,87.8291016 L66.2336426,87.8291016 L66.2336426,78.3222656 L71.067627,78.3222656 L71.067627,101.783203 Z M89.404541,91.6157227 L80.123291,91.6157227 L80.123291,97.8999023 L91.0158691,97.8999023 L91.0158691,101.783203 L75.2893066,101.783203 L75.2893066,78.3222656 L90.9836426,78.3222656 L90.9836426,82.237793 L80.123291,82.237793 L80.123291,87.8291016 L89.404541,87.8291016 L89.404541,91.6157227 Z M107.209717,101.783203 L102.375732,101.783203 L102.375732,78.3222656 L107.209717,78.3222656 L107.209717,101.783203 Z M129.349365,82.237793 L122.162842,82.237793 L122.162842,101.783203 L117.328857,101.783203 L117.328857,82.237793 L110.239014,82.237793 L110.239014,78.3222656 L129.349365,78.3222656 L129.349365,82.237793 Z M146.219971,91.6157227 L136.938721,91.6157227 L136.938721,97.8999023 L147.831299,97.8999023 L147.831299,101.783203 L132.104736,101.783203 L132.104736,78.3222656 L147.799072,78.3222656 L147.799072,82.237793 L136.938721,82.237793 L136.938721,87.8291016 L146.219971,87.8291016 L146.219971,91.6157227 Z M156.983643,78.3222656 L163.01001,95.3378906 L169.00415,78.3222656 L175.352783,78.3222656 L175.352783,101.783203 L170.502686,101.783203 L170.502686,95.3701172 L170.986084,84.300293 L164.653564,101.783203 L161.334229,101.783203 L155.017822,84.3164062 L155.501221,95.3701172 L155.501221,101.783203 L150.667236,101.783203 L150.667236,78.3222656 L156.983643,78.3222656 Z M207.031494,90.5844727 C207.031494,92.7758899 206.677005,94.6799236 205.968018,96.2966309 C205.25903,97.9133382 204.276129,99.2104443 203.019287,100.187988 L206.918701,103.249512 L203.841064,105.972656 L198.845947,101.960449 C198.276608,102.057129 197.685794,102.105469 197.073486,102.105469 C195.129141,102.105469 193.394295,101.638188 191.868896,100.703613 C190.343498,99.7690383 189.161869,98.4343348 188.323975,96.6994629 C187.48608,94.9645909 187.061768,92.9692496 187.051025,90.7133789 L187.051025,89.5532227 C187.051025,87.2436408 187.467281,85.2107021 188.299805,83.4543457 C189.132328,81.6979893 190.308586,80.3498582 191.828613,79.4099121 C193.34864,78.469966 195.086172,78 197.04126,78 C198.996348,78 200.733879,78.469966 202.253906,79.4099121 C203.773933,80.3498582 204.950191,81.6979893 205.782715,83.4543457 C206.615239,85.2107021 207.031494,87.2382698 207.031494,89.5371094 L207.031494,90.5844727 Z M202.133057,89.5209961 C202.133057,87.0610229 201.692631,85.1919009 200.811768,83.9135742 C199.930904,82.6352475 198.67408,81.9960938 197.04126,81.9960938 C195.419181,81.9960938 194.167729,82.627191 193.286865,83.8894043 C192.406001,85.1516176 191.960205,87.0019409 191.949463,89.4404297 L191.949463,90.5844727 C191.949463,92.9799924 192.389888,94.8383723 193.270752,96.159668 C194.151616,97.4809636 195.419181,98.1416016 197.073486,98.1416016 C198.695565,98.1416016 199.941646,97.5051333 200.811768,96.2321777 C201.681889,94.9592222 202.122314,93.1035278 202.133057,90.6650391 L202.133057,89.5209961 Z M228.333252,78.3222656 L228.333252,93.7749023 C228.333252,96.342298 227.530281,98.3725511 225.924316,99.8657227 C224.318351,101.358894 222.124281,102.105469 219.342041,102.105469 C216.60277,102.105469 214.427498,101.380378 212.816162,99.9301758 C211.204826,98.4799732 210.383057,96.4873174 210.35083,93.9521484 L210.35083,78.3222656 L215.184814,78.3222656 L215.184814,93.8071289 C215.184814,95.3432694 215.552731,96.4631312 216.288574,97.166748 C217.024418,97.8703648 218.04223,98.222168 219.342041,98.222168 C222.059828,98.222168 223.440185,96.7934713 223.483154,93.9360352 L223.483154,78.3222656 L228.333252,78.3222656 Z M245.542236,96.9492188 L237.06665,96.9492188 L235.455322,101.783203 L230.315186,101.783203 L239.048584,78.3222656 L243.528076,78.3222656 L252.309814,101.783203 L247.169678,101.783203 L245.542236,96.9492188 Z M238.371826,93.0336914 L244.237061,93.0336914 L241.28833,84.2519531 L238.371826,93.0336914 Z M273.579346,101.783203 L268.745361,101.783203 L259.335205,86.3466797 L259.335205,101.783203 L254.501221,101.783203 L254.501221,78.3222656 L259.335205,78.3222656 L268.761475,93.7910156 L268.761475,78.3222656 L273.579346,78.3222656 L273.579346,101.783203 Z M295.461182,82.237793 L288.274658,82.237793 L288.274658,101.783203 L283.440674,101.783203 L283.440674,82.237793 L276.35083,82.237793 L276.35083,78.3222656 L295.461182,78.3222656 L295.461182,82.237793 Z M303.356689,101.783203 L298.522705,101.783203 L298.522705,78.3222656 L303.356689,78.3222656 L303.356689,101.783203 Z M325.496338,82.237793 L318.309814,82.237793 L318.309814,101.783203 L313.47583,101.783203 L313.47583,82.237793 L306.385986,82.237793 L306.385986,78.3222656 L325.496338,78.3222656 L325.496338,82.237793 Z M336.340576,88.8925781 L341.2229,78.3222656 L346.508057,78.3222656 L338.805908,93.2753906 L338.805908,101.783203 L333.891357,101.783203 L333.891357,93.2753906 L326.189209,78.3222656 L331.490479,78.3222656 L336.340576,88.8925781 Z M374.529053,82.237793 L367.342529,82.237793 L367.342529,101.783203 L362.508545,101.783203 L362.508545,82.237793 L355.418701,82.237793 L355.418701,78.3222656 L374.529053,78.3222656 L374.529053,82.237793 Z M396.555908,90.5844727 C396.555908,92.8940545 396.147709,94.9189366 395.331299,96.6591797 C394.514888,98.3994228 393.346687,99.7421828 391.82666,100.6875 C390.306633,101.632817 388.563731,102.105469 386.5979,102.105469 C384.653555,102.105469 382.918709,101.638188 381.393311,100.703613 C379.867912,99.7690383 378.686283,98.4343348 377.848389,96.6994629 C377.010494,94.9645909 376.586182,92.9692496 376.575439,90.7133789 L376.575439,89.5532227 C376.575439,87.2436408 376.991695,85.2107021 377.824219,83.4543457 C378.656742,81.6979893 379.833,80.3498582 381.353027,79.4099121 C382.873054,78.469966 384.610586,78 386.565674,78 C388.520762,78 390.258293,78.469966 391.77832,79.4099121 C393.298347,80.3498582 394.474605,81.6979893 395.307129,83.4543457 C396.139653,85.2107021 396.555908,87.2382698 396.555908,89.5371094 L396.555908,90.5844727 Z M391.657471,89.5209961 C391.657471,87.0610229 391.217045,85.1919009 390.336182,83.9135742 C389.455318,82.6352475 388.198494,81.9960938 386.565674,81.9960938 C384.943595,81.9960938 383.692143,82.627191 382.811279,83.8894043 C381.930416,85.1516176 381.484619,87.0019409 381.473877,89.4404297 L381.473877,90.5844727 C381.473877,92.9799924 381.914302,94.8383723 382.795166,96.159668 C383.67603,97.4809636 384.943595,98.1416016 386.5979,98.1416016 C388.219979,98.1416016 389.46606,97.5051333 390.336182,96.2321777 C391.206303,94.9592222 391.646728,93.1035278 391.657471,90.6650391 L391.657471,89.5209961 Z M419.098389,101.783203 L414.44165,101.783203 L414.44165,83.8330078 L408.882568,85.5571289 L408.882568,81.7705078 L418.598877,78.2900391 L419.098389,78.2900391 L419.098389,101.783203 Z" id="THEITEMQUANTITYBUTTONTORESETTHEITEMQUANTITYTO1" fill="#000000"></path>
        </g>
    </g>
</svg>