<?xml version="1.0" encoding="UTF-8"?>
<svg width="570px" height="792px" viewBox="0 0 570 792" version="1.1" xmlns="http://www.w3.org/2000/svg" xmlns:xlink="http://www.w3.org/1999/xlink">
    <!-- Generator: Sketch 54.1 (76490) - https://sketchapp.com -->
    <title>B3_items_en</title>
    <desc>Created with Sketch.</desc>
    <g id="B3_items_en" stroke="none" stroke-width="1" fill="none" fill-rule="evenodd">
        <rect id="Rectangle" fill="#00B0FF" x="0" y="0" width="570" height="792" rx="16"></rect>
        <path d="M47,252 L524,252 C530.627417,252 536,257.372583 536,264 L536,779 L35,779 L35,264 C35,257.372583 40.372583,252 47,252 Z" id="Rectangle" fill="#080B26"></path>
        <rect id="Rectangle" fill="#FFFFFF" x="35" y="42" width="501" height="145" rx="12"></rect>
        <rect id="Rectangle" fill="#375270" opacity="0.295014881" x="35" y="292" width="440" height="104"></rect>
        <path d="M260,308 L443,308 C450.179702,308 456,313.820298 456,321 L456,367 C456,374.179702 450.179702,380 443,380 L260,380 C252.820298,380 247,374.179702 247,367 L247,321 C247,313.820298 252.820298,308 260,308 Z M260,313 C255.581722,313 252,316.581722 252,321 L252,367 C252,371.418278 255.581722,375 260,375 L443,375 C447.418278,375 451,371.418278 451,367 L451,321 C451,316.581722 447.418278,313 443,313 L260,313 Z" id="Rectangle" fill="#00D3FF" fill-rule="nonzero"></path>
        <g id="finger" transform="translate(399.000000, 333.500000)" fill-rule="nonzero">
            <polygon id="Path-4" fill="#F0EBEB" points="25 33.5 17 42.5 14 52.5 17 67.5 31 80.5 41 83.5 51 78.5 68 52.5 63 46.5 61 39.5 56 36.5 53 29.5 49 27.5 55 14.5 50 11.5 41 22.5 33 34.5"></polygon>
            <g id="pointer" fill="#FFFFFF">
                <path d="M64,34 C63,34 61.5,34 61,34 C61,33 60,31 59,30 C58,29 56,28 53.5,28 C52.5,28 51.5,28 50.5,28.5 C50,27.5 49.5,27 49,26 C48,25 46.5,24 43.5,24 C42.5,24 41.5,24 41,24.5 L41,16 C41,13 39,9 34,9 C32,9 30,10 28.5,11 C26,14 26,18 26,18 L26,39.5 C23,40 20.5,41 19,42.5 C16,46 16,50.5 16,56.5 C16,57.5 16,59 16,60 C16,67 19.5,70.5 23,74 L24.5,76 C31,82 36.5,84 50,84 C64.5,84 71,76 71,58.5 L71,46 C71,42.5 70,35.5 64,34 Z M66,46 L66,59 C66,76 59.5,79.5 50,79.5 C38,79.5 33.5,78 28.5,73 C28,72.5 27.5,72 26.5,71 C23,67 21,65 21,60 C21,59 21,57.5 21,56.5 C21,51.5 21,48 22.5,46 C23,45.5 24.5,45 26,45 L26,47.5 L24.5,55 C24.5,55.5 24.5,55.5 25,56 C25.5,56.5 26,56 26,56 L31,50 C31,49.5 31,49 31,49 L31,18 C31,17.5 31,15.5 32,14.5 C32.5,14.5 33,14 34,14 C35.5,14 36,15.5 36,16 L36,31.5 C36,31.5 36,31.5 36,31.5 L36,37.5 C36,39 37,40.5 38.5,40.5 C40,40.5 41,39 41,38 L41,31.5 C41,31.5 41,31.5 41,31.5 C41,31 41.5,29 43.5,29 C45,29 46,29.5 46,31 L46,37.5 C46,39 47,40.5 48.5,40.5 C50,40.5 51,39 51,38 L51,34.5 C51,34 51.5,33 53.5,33 C54.5,33 55,33.5 55,33.5 C56,34 56,35.5 56,35.5 L56,39.5 C56,41 57,42 58,42 C59.5,42 60.5,41.5 60.5,40 C60.5,39.5 61,39 61.5,38.5 C61.5,38.5 62,38.5 62.5,38.5 C65.5,39.5 66,44.5 66,46 C66,45.5 66,45.5 66,46 L66,46 Z" id="Shape" transform="translate(43.500000, 46.500000) rotate(31.000000) translate(-43.500000, -46.500000) "></path>
            </g>
        </g>
        <path d="M471.382324,388.484375 C471.382324,386.546214 471.64046,384.701181 472.156738,382.949219 C472.673017,381.197257 473.434728,379.646328 474.441895,378.296387 C475.449061,376.946445 476.540847,376.009117 477.717285,375.484375 L478.428223,377.464844 C477.192539,378.378911 476.227705,379.792308 475.533691,381.705078 C474.839678,383.617848 474.492676,385.852201 474.492676,388.408203 L474.492676,388.801758 C474.492676,391.366224 474.835446,393.60904 475.520996,395.530273 C476.206546,397.451507 477.175612,398.886063 478.428223,399.833984 L477.717285,401.776367 C476.566238,401.260089 475.493495,400.348151 474.499023,399.040527 C473.504552,397.732904 472.744957,396.224292 472.220215,394.514648 C471.695473,392.805004 471.416179,391.019215 471.382324,389.157227 L471.382324,388.484375 Z M480.510254,388.484375 C480.510254,386.546214 480.768389,384.701181 481.284668,382.949219 C481.800947,381.197257 482.562658,379.646328 483.569824,378.296387 C484.576991,376.946445 485.668777,376.009117 486.845215,375.484375 L487.556152,377.464844 C486.320469,378.378911 485.355635,379.792308 484.661621,381.705078 C483.967607,383.617848 483.620605,385.852201 483.620605,388.408203 L483.620605,388.801758 C483.620605,391.366224 483.963375,393.60904 484.648926,395.530273 C485.334476,397.451507 486.303542,398.886063 487.556152,399.833984 L486.845215,401.776367 C485.694167,401.260089 484.621424,400.348151 483.626953,399.040527 C482.632482,397.732904 481.872887,396.224292 481.348145,394.514648 C480.823402,392.805004 480.544108,391.019215 480.510254,389.157227 L480.510254,388.484375 Z M489.638184,388.484375 C489.638184,386.546214 489.896319,384.701181 490.412598,382.949219 C490.928876,381.197257 491.690587,379.646328 492.697754,378.296387 C493.70492,376.946445 494.796706,376.009117 495.973145,375.484375 L496.684082,377.464844 C495.448399,378.378911 494.483565,379.792308 493.789551,381.705078 C493.095537,383.617848 492.748535,385.852201 492.748535,388.408203 L492.748535,388.801758 C492.748535,391.366224 493.091305,393.60904 493.776855,395.530273 C494.462406,397.451507 495.431472,398.886063 496.684082,399.833984 L495.973145,401.776367 C494.822097,401.260089 493.749354,400.348151 492.754883,399.040527 C491.760412,397.732904 491.000816,396.224292 490.476074,394.514648 C489.951332,392.805004 489.672038,391.019215 489.638184,389.157227 L489.638184,388.484375 Z" id="(((" fill="#FFFFFF" fill-rule="nonzero" transform="translate(484.033203, 388.630371) scale(-1, 1) translate(-484.033203, -388.630371) "></path>
        <polygon id="Line-2" fill="#FFFFFF" fill-rule="nonzero" points="411 230.776337 411 176 419 176 419 230.776337 437 230.776337 415 293 393 230.776337 411 230.776337"></polygon>
        <path d="M270.287256,342.707031 L272.768701,342.707031 C273.950348,342.707031 274.825827,342.411624 275.395166,341.820801 C275.964505,341.229978 276.24917,340.445806 276.24917,339.468262 C276.24917,338.522944 275.96719,337.787112 275.403223,337.260742 C274.839255,336.734372 274.06314,336.471191 273.074854,336.471191 C272.183247,336.471191 271.436673,336.715574 270.835107,337.204346 C270.233542,337.693118 269.932764,338.329586 269.932764,339.11377 L265.276025,339.11377 C265.276025,337.889154 265.606344,336.790776 266.266992,335.818604 C266.92764,334.846431 267.851459,334.086429 269.038477,333.538574 C270.225494,332.99072 271.533342,332.716797 272.962061,332.716797 C275.443518,332.716797 277.387835,333.310297 278.795068,334.497314 C280.202302,335.684332 280.905908,337.319814 280.905908,339.403809 C280.905908,340.478033 280.578275,341.466304 279.922998,342.368652 C279.267721,343.271001 278.408355,343.963865 277.344873,344.447266 C278.666169,344.919924 279.651755,345.628902 280.30166,346.574219 C280.951566,347.519536 281.276514,348.636712 281.276514,349.925781 C281.276514,352.009776 280.516512,353.680169 278.996484,354.937012 C277.476457,356.193854 275.465003,356.822266 272.962061,356.822266 C270.620252,356.822266 268.705476,356.204596 267.217676,354.969238 C265.729875,353.733881 264.985986,352.101084 264.985986,350.070801 L269.642725,350.070801 C269.642725,350.951665 269.973044,351.671384 270.633691,352.22998 C271.294339,352.788577 272.108052,353.067871 273.074854,353.067871 C274.181304,353.067871 275.048727,352.775149 275.677148,352.189697 C276.30557,351.604245 276.619775,350.82813 276.619775,349.861328 C276.619775,347.51952 275.330726,346.348633 272.752588,346.348633 L270.287256,346.348633 L270.287256,342.707031 Z M294.415088,344.27002 L297.347705,339.06543 L302.326709,339.06543 L297.363818,347.605469 L302.536182,356.5 L297.541064,356.5 L294.431201,351.021484 L291.337451,356.5 L286.326221,356.5 L291.498584,347.605469 L286.551807,339.06543 L291.546924,339.06543 L294.415088,344.27002 Z M318.607373,350.328613 C318.607373,349.44775 318.362991,348.746829 317.874219,348.22583 C317.385447,347.704831 316.555621,347.224123 315.384717,346.783691 C314.213813,346.34326 313.204057,345.90552 312.35542,345.470459 C311.506783,345.035398 310.779007,344.535891 310.17207,343.971924 C309.565134,343.407956 309.092482,342.744633 308.754102,341.981934 C308.415721,341.219234 308.246533,340.311529 308.246533,339.258789 C308.246533,337.44335 308.826606,335.955572 309.986768,334.79541 C311.14693,333.635248 312.688418,332.958497 314.611279,332.765137 L314.611279,329.316895 L317.189404,329.316895 L317.189404,332.813477 C319.090781,333.082033 320.578559,333.874261 321.652783,335.190186 C322.727007,336.50611 323.264111,338.211415 323.264111,340.306152 L318.607373,340.306152 C318.607373,339.017083 318.341507,338.052982 317.809766,337.413818 C317.278025,336.774655 316.566362,336.455078 315.674756,336.455078 C314.793892,336.455078 314.11177,336.704831 313.628369,337.204346 C313.144968,337.70386 312.903271,338.394039 312.903271,339.274902 C312.903271,340.091313 313.139597,340.74658 313.612256,341.240723 C314.084914,341.734866 314.96308,342.239744 316.246777,342.755371 C317.530475,343.270999 318.585885,343.757078 319.413037,344.213623 C320.24019,344.670168 320.938425,345.185788 321.507764,345.760498 C322.077102,346.335208 322.512157,346.990475 322.812939,347.726318 C323.113722,348.462162 323.264111,349.318843 323.264111,350.296387 C323.264111,352.122568 322.694781,353.604975 321.556104,354.743652 C320.417426,355.88233 318.849082,356.55371 316.851025,356.757812 L316.851025,359.964355 L314.289014,359.964355 L314.289014,356.773926 C312.086854,356.537596 310.381549,355.75611 309.173047,354.429443 C307.964545,353.102777 307.360303,351.33839 307.360303,349.13623 L312.017041,349.13623 C312.017041,350.414557 312.320505,351.394772 312.927441,352.076904 C313.534378,352.759037 314.407172,353.100098 315.54585,353.100098 C316.491167,353.100098 317.237741,352.850344 317.785596,352.35083 C318.33345,351.851316 318.607373,351.17725 318.607373,350.328613 Z M345.45835,335.649414 L336.386572,356.5 L331.472021,356.5 L340.559912,336.80957 L328.893896,336.80957 L328.893896,333.039062 L345.45835,333.039062 L345.45835,335.649414 Z M348.874365,354.211914 C348.874365,353.470699 349.124119,352.869143 349.623633,352.407227 C350.123147,351.94531 350.748873,351.714355 351.50083,351.714355 C352.263529,351.714355 352.894626,351.94531 353.394141,352.407227 C353.893655,352.869143 354.143408,353.470699 354.143408,354.211914 C354.143408,354.942386 353.89634,355.535886 353.402197,355.992432 C352.908054,356.448977 352.274271,356.677246 351.50083,356.677246 C350.738131,356.677246 350.109719,356.448977 349.615576,355.992432 C349.121433,355.535886 348.874365,354.942386 348.874365,354.211914 Z M371.803564,347.669922 L374.462256,347.669922 L374.462256,351.424316 L371.803564,351.424316 L371.803564,356.5 L367.146826,356.5 L367.146826,351.424316 L357.527197,351.424316 L357.317725,348.491699 L367.098486,333.039062 L371.803564,333.039062 L371.803564,347.669922 Z M361.95835,347.669922 L367.146826,347.669922 L367.146826,339.387695 L366.840674,339.919434 L361.95835,347.669922 Z M387.852393,347.12207 C386.638519,348.314459 385.220565,348.910645 383.598486,348.910645 C381.525234,348.910645 379.865582,348.198982 378.619482,346.775635 C377.373382,345.352288 376.750342,343.432141 376.750342,341.015137 C376.750342,339.478996 377.086032,338.069098 377.757422,336.7854 C378.428812,335.501703 379.366058,334.502689 380.569189,333.78833 C381.77232,333.073971 383.125823,332.716797 384.629736,332.716797 C386.176619,332.716797 387.551605,333.103512 388.754736,333.876953 C389.957867,334.650394 390.892428,335.7622 391.558447,337.212402 C392.224466,338.662605 392.562842,340.322256 392.573584,342.191406 L392.573584,343.915527 C392.573584,347.825703 391.601426,350.897938 389.65708,353.132324 C387.712734,355.36671 384.957391,356.559081 381.390967,356.709473 L380.246924,356.725586 L380.246924,352.842285 L381.278174,352.826172 C385.327999,352.643554 387.519383,350.742206 387.852393,347.12207 Z M384.742529,345.349609 C385.494486,345.349609 386.141697,345.156252 386.68418,344.769531 C387.226663,344.382811 387.637547,343.91553 387.916846,343.367676 L387.916846,341.450195 C387.916846,339.871086 387.616067,338.646489 387.014502,337.776367 C386.412936,336.906246 385.60728,336.471191 384.59751,336.471191 C383.662935,336.471191 382.894876,336.898189 382.293311,337.752197 C381.691745,338.606205 381.390967,339.677728 381.390967,340.966797 C381.390967,342.245124 381.683688,343.295162 382.269141,344.116943 C382.854593,344.938725 383.679047,345.349609 384.742529,345.349609 Z M412.328467,356.822266 C409.771813,356.822266 407.690535,356.038094 406.08457,354.469727 C404.478605,352.901359 403.675635,350.812025 403.675635,348.20166 L403.675635,347.750488 C403.675635,345.999503 404.01401,344.433845 404.690771,343.053467 C405.367533,341.673089 406.326263,340.609623 407.566992,339.863037 C408.807721,339.116451 410.22299,338.743164 411.812842,338.743164 C414.197619,338.743164 416.074798,339.49511 417.444434,340.999023 C418.814069,342.502937 419.498877,344.63524 419.498877,347.395996 L419.498877,349.297363 L408.396826,349.297363 C408.547218,350.436041 409.00107,351.349118 409.758398,352.036621 C410.515726,352.724125 411.474457,353.067871 412.634619,353.067871 C414.428573,353.067871 415.830415,352.417975 416.840186,351.118164 L419.128271,353.680176 C418.430026,354.668462 417.484723,355.439206 416.292334,355.992432 C415.099945,356.545657 413.778669,356.822266 412.328467,356.822266 Z M411.796729,342.513672 C410.872896,342.513672 410.123636,342.825192 409.548926,343.448242 C408.974216,344.071292 408.6063,344.962885 408.445166,346.123047 L414.922705,346.123047 L414.922705,345.752441 C414.901221,344.721186 414.621927,343.923587 414.084814,343.359619 C413.547702,342.795651 412.785015,342.513672 411.796729,342.513672 Z M432.244482,356.5 C432.029638,356.081053 431.873877,355.560062 431.777197,354.937012 C430.649262,356.193854 429.182968,356.822266 427.378271,356.822266 C425.670255,356.822266 424.254986,356.32813 423.132422,355.339844 C422.009858,354.351558 421.448584,353.105476 421.448584,351.601562 C421.448584,349.753897 422.133392,348.335942 423.503027,347.347656 C424.872663,346.35937 426.851891,345.859863 429.440771,345.849121 L431.583838,345.849121 L431.583838,344.850098 C431.583838,344.04443 431.377053,343.399905 430.963477,342.916504 C430.5499,342.433103 429.897319,342.191406 429.005713,342.191406 C428.221529,342.191406 427.606545,342.379393 427.160742,342.755371 C426.714939,343.13135 426.492041,343.646969 426.492041,344.302246 L421.835303,344.302246 C421.835303,343.292475 422.146823,342.357914 422.769873,341.498535 C423.392923,340.639156 424.273774,339.96509 425.412451,339.476318 C426.551129,338.987546 427.829436,338.743164 429.247412,338.743164 C431.39586,338.743164 433.101166,339.282954 434.363379,340.362549 C435.625592,341.442144 436.256689,342.959463 436.256689,344.914551 L436.256689,352.47168 C436.267432,354.125985 436.498386,355.377437 436.949561,356.226074 L436.949561,356.5 L432.244482,356.5 Z M428.393408,353.26123 C429.080912,353.26123 429.714694,353.108156 430.294775,352.802002 C430.874856,352.495848 431.30454,352.084964 431.583838,351.569336 L431.583838,348.572266 L429.843604,348.572266 C427.512537,348.572266 426.271827,349.377922 426.121436,350.989258 L426.105322,351.263184 C426.105322,351.843265 426.309422,352.321287 426.717627,352.697266 C427.125832,353.073244 427.68442,353.26123 428.393408,353.26123 Z" id="3x$7.49ea" fill="#00D3FF" fill-rule="nonzero"></path>
        <path d="M62.911377,343.80127 C62.911377,345.992687 62.5568883,347.89672 61.8479004,349.513428 C61.1389125,351.130135 60.1560121,352.427241 58.8991699,353.404785 L62.798584,356.466309 L59.7209473,359.189453 L54.7258301,355.177246 C54.1564913,355.273926 53.5656769,355.322266 52.9533691,355.322266 C51.0090235,355.322266 49.2741775,354.854985 47.7487793,353.92041 C46.223381,352.985835 45.0417522,351.651132 44.2038574,349.91626 C43.3659626,348.181388 42.9416504,346.186046 42.9309082,343.930176 L42.9309082,342.77002 C42.9309082,340.460438 43.3471638,338.427499 44.1796875,336.671143 C45.0122112,334.914786 46.188469,333.566655 47.7084961,332.626709 C49.2285232,331.686763 50.9660547,331.216797 52.9211426,331.216797 C54.8762305,331.216797 56.6137619,331.686763 58.1337891,332.626709 C59.6538162,333.566655 60.830074,334.914786 61.6625977,336.671143 C62.4951214,338.427499 62.911377,340.455067 62.911377,342.753906 L62.911377,343.80127 Z M58.0129395,342.737793 C58.0129395,340.27782 57.5725142,338.408698 56.6916504,337.130371 C55.8107866,335.852044 54.5539632,335.212891 52.9211426,335.212891 C51.2990642,335.212891 50.0476118,335.843988 49.166748,337.106201 C48.2858843,338.368415 47.8400879,340.218738 47.8293457,342.657227 L47.8293457,343.80127 C47.8293457,346.196789 48.269771,348.055169 49.1506348,349.376465 C50.0314985,350.697761 51.299064,351.358398 52.9533691,351.358398 C54.5754476,351.358398 55.8215289,350.72193 56.6916504,349.448975 C57.5617719,348.176019 58.0021972,346.320325 58.0129395,343.881836 L58.0129395,342.737793 Z M93.0915527,347.185059 C92.9089346,349.709485 91.9770592,351.69677 90.2958984,353.146973 C88.6147377,354.597175 86.3991837,355.322266 83.6491699,355.322266 C80.6413424,355.322266 78.2753992,354.309825 76.5512695,352.284912 C74.8271398,350.26 73.9650879,347.480486 73.9650879,343.946289 L73.9650879,342.512207 C73.9650879,340.256336 74.3625449,338.269052 75.1574707,336.550293 C75.9523966,334.831534 77.0883715,333.512944 78.5654297,332.594482 C80.0424879,331.676021 81.7585351,331.216797 83.713623,331.216797 C86.4206678,331.216797 88.6013101,331.941887 90.2556152,333.39209 C91.9099204,334.842292 92.8659655,336.877917 93.1237793,339.499023 L88.2897949,339.499023 C88.1716303,337.984367 87.7500036,336.88599 87.0249023,336.203857 C86.2998011,335.521725 85.1960523,335.180664 83.713623,335.180664 C82.1022869,335.180664 80.8964884,335.758051 80.0961914,336.912842 C79.2958944,338.067633 78.8850099,339.858875 78.8635254,342.286621 L78.8635254,344.059082 C78.8635254,346.594251 79.2475548,348.44726 80.015625,349.618164 C80.7836952,350.789068 81.9948648,351.374512 83.6491699,351.374512 C85.1423415,351.374512 86.2568323,351.033451 86.9926758,350.351318 C87.7285193,349.669186 88.1501459,348.613777 88.2575684,347.185059 L93.0915527,347.185059 Z M100.503662,339.466797 C101.73902,337.984368 103.29125,337.243164 105.1604,337.243164 C108.941669,337.243164 110.859131,339.439919 110.912842,343.833496 L110.912842,355 L106.256104,355 L106.256104,343.962402 C106.256104,342.963374 106.041262,342.224856 105.611572,341.746826 C105.181883,341.268796 104.467534,341.029785 103.468506,341.029785 C102.104241,341.029785 101.11597,341.556147 100.503662,342.608887 L100.503662,355 L95.8469238,355 L95.8469238,330.25 L100.503662,330.25 L100.503662,339.466797 Z M119.340088,355 L114.667236,355 L114.667236,337.56543 L119.340088,337.56543 L119.340088,355 Z M114.393311,333.053711 C114.393311,332.355465 114.626951,331.780764 115.094238,331.32959 C115.561526,330.878416 116.197994,330.652832 117.003662,330.652832 C117.798588,330.652832 118.432371,330.878416 118.905029,331.32959 C119.377688,331.780764 119.614014,332.355465 119.614014,333.053711 C119.614014,333.762699 119.375002,334.342771 118.896973,334.793945 C118.418943,335.245119 117.787846,335.470703 117.003662,335.470703 C116.219479,335.470703 115.588381,335.245119 115.110352,334.793945 C114.632322,334.342771 114.393311,333.762699 114.393311,333.053711 Z M130.426025,351.567871 C131.285405,351.567871 131.98364,351.331545 132.520752,350.858887 C133.057864,350.386228 133.337158,349.757816 133.358643,348.973633 L137.725342,348.973633 C137.7146,350.155279 137.392337,351.237544 136.758545,352.220459 C136.124753,353.203374 135.25733,353.966062 134.15625,354.508545 C133.05517,355.051028 131.83863,355.322266 130.506592,355.322266 C128.014392,355.322266 126.048591,354.530037 124.609131,352.945557 C123.169671,351.361076 122.449951,349.172377 122.449951,346.379395 L122.449951,346.073242 C122.449951,343.387682 123.164299,341.244637 124.593018,339.644043 C126.021736,338.043449 127.982165,337.243164 130.474365,337.243164 C132.65504,337.243164 134.403314,337.863519 135.719238,339.104248 C137.035163,340.344977 137.703857,341.996572 137.725342,344.059082 L133.358643,344.059082 C133.337158,343.156734 133.057864,342.423587 132.520752,341.859619 C131.98364,341.295651 131.274663,341.013672 130.393799,341.013672 C129.308832,341.013672 128.489749,341.408443 127.936523,342.197998 C127.383298,342.987553 127.106689,344.268546 127.106689,346.041016 L127.106689,346.524414 C127.106689,348.318368 127.380612,349.607418 127.928467,350.391602 C128.476321,351.175785 129.308832,351.567871 130.426025,351.567871 Z M146.716553,348.006836 L145.040771,349.682617 L145.040771,355 L140.384033,355 L140.384033,330.25 L145.040771,330.25 L145.040771,343.962402 L145.943115,342.802246 L150.406494,337.56543 L155.997803,337.56543 L149.69751,344.83252 L156.545654,355 L151.196045,355 L146.716553,348.006836 Z M166.036377,355.322266 C163.479724,355.322266 161.398446,354.538094 159.79248,352.969727 C158.186515,351.401359 157.383545,349.312025 157.383545,346.70166 L157.383545,346.250488 C157.383545,344.499503 157.72192,342.933845 158.398682,341.553467 C159.075443,340.173089 160.034173,339.109623 161.274902,338.363037 C162.515631,337.616451 163.9309,337.243164 165.520752,337.243164 C167.90553,337.243164 169.782708,337.99511 171.152344,339.499023 C172.52198,341.002937 173.206787,343.13524 173.206787,345.895996 L173.206787,347.797363 L162.104736,347.797363 C162.255128,348.936041 162.708981,349.849118 163.466309,350.536621 C164.223637,351.224125 165.182367,351.567871 166.342529,351.567871 C168.136484,351.567871 169.538325,350.917975 170.548096,349.618164 L172.836182,352.180176 C172.137936,353.168462 171.192633,353.939206 170.000244,354.492432 C168.807855,355.045657 167.48658,355.322266 166.036377,355.322266 Z M165.504639,341.013672 C164.580806,341.013672 163.831546,341.325192 163.256836,341.948242 C162.682126,342.571292 162.31421,343.462885 162.153076,344.623047 L168.630615,344.623047 L168.630615,344.252441 C168.609131,343.221186 168.329837,342.423587 167.792725,341.859619 C167.255613,341.295651 166.492925,341.013672 165.504639,341.013672 Z M180.135498,337.56543 L180.280518,339.57959 C181.526618,338.021965 183.197011,337.243164 185.291748,337.243164 C187.139414,337.243164 188.5144,337.785639 189.416748,338.870605 C190.319096,339.955572 190.781006,341.577626 190.80249,343.736816 L190.80249,355 L186.145752,355 L186.145752,343.849609 C186.145752,342.861323 185.93091,342.144289 185.501221,341.698486 C185.071531,341.252683 184.357183,341.029785 183.358154,341.029785 C182.047601,341.029785 181.064701,341.588373 180.409424,342.705566 L180.409424,355 L175.752686,355 L175.752686,337.56543 L180.135498,337.56543 Z" id="BBQChicken" fill="#00D3FF" fill-rule="nonzero"></path>
        <path id="Line" d="M97.9960453,342.955512 L449.101394,342.496077 L449.109245,348.496072 L98.0038965,348.955507 L98.022216,362.955495 L64,346 L97.9777257,328.955524 L97.9960453,342.955512 Z" fill="#FFFFFF" fill-rule="nonzero" opacity="0.83077567"></path>
        <rect id="Rectangle" fill="#FFFFFF" opacity="0.353655134" x="482" y="304" width="43" height="8" rx="4"></rect>
        <rect id="Rectangle" fill="#FFFFFF" opacity="0.353655134" x="482" y="353.333333" width="22" height="7" rx="3.5"></rect>
        <rect id="Rectangle" fill="#FFFFFF" opacity="0.353655134" x="482" y="377.5" width="14" height="7" rx="3.5"></rect>
        <rect id="Rectangle" fill="#FFFFFF" opacity="0.353655134" x="482" y="329.166667" width="33" height="7" rx="3.5"></rect>
        <rect id="Rectangle" fill="#DC0B41" x="35" y="668" width="501" height="111"></rect>
        <path d="M65.6005859,732.884766 L58.5986328,732.884766 L58.5986328,748.5 L49.8095703,748.5 L49.8095703,705.84375 L65.6591797,705.84375 C70.6982674,705.84375 74.5849473,706.966786 77.3193359,709.212891 C80.0537246,711.458996 81.4208984,714.632792 81.4208984,718.734375 C81.4208984,721.644546 80.7910219,724.071279 79.53125,726.014648 C78.2714781,727.958018 76.3623175,729.505854 73.8037109,730.658203 L83.0322266,748.089844 L83.0322266,748.5 L73.5986328,748.5 L65.6005859,732.884766 Z M58.5986328,725.765625 L65.6884766,725.765625 C67.8955188,725.765625 69.6044861,725.204107 70.8154297,724.081055 C72.0263732,722.958002 72.6318359,721.410166 72.6318359,719.4375 C72.6318359,717.425771 72.0605526,715.843756 70.9179688,714.691406 C69.7753849,713.539057 68.0224728,712.962891 65.6591797,712.962891 L58.5986328,712.962891 L58.5986328,725.765625 Z M113.764648,730.013672 L96.8896484,730.013672 L96.8896484,741.439453 L116.694336,741.439453 L116.694336,748.5 L88.1005859,748.5 L88.1005859,705.84375 L116.635742,705.84375 L116.635742,712.962891 L96.8896484,712.962891 L96.8896484,723.128906 L113.764648,723.128906 L113.764648,730.013672 Z M133.334961,705.84375 L144.291992,736.78125 L155.19043,705.84375 L166.733398,705.84375 L166.733398,748.5 L157.915039,748.5 L157.915039,736.839844 L158.793945,716.712891 L147.280273,748.5 L141.245117,748.5 L129.760742,716.742188 L130.639648,736.839844 L130.639648,748.5 L121.850586,748.5 L121.850586,705.84375 L133.334961,705.84375 Z M209.448242,728.138672 C209.448242,732.337912 208.706062,736.019515 207.22168,739.183594 C205.737297,742.347672 203.613295,744.789054 200.849609,746.507812 C198.085924,748.226571 194.91701,749.085938 191.342773,749.085938 C187.8076,749.085938 184.653334,748.236337 181.879883,746.537109 C179.106431,744.837882 176.958015,742.411149 175.43457,739.256836 C173.911125,736.102523 173.139649,732.47463 173.120117,728.373047 L173.120117,726.263672 C173.120117,722.064432 173.876946,718.36818 175.390625,715.174805 C176.904304,711.981429 179.042955,709.530282 181.806641,707.821289 C184.570326,706.112296 187.729474,705.257812 191.28418,705.257812 C194.838885,705.257812 197.998033,706.112296 200.761719,707.821289 C203.525404,709.530282 205.664055,711.981429 207.177734,715.174805 C208.691414,718.36818 209.448242,722.054667 209.448242,726.234375 L209.448242,728.138672 Z M200.541992,726.205078 C200.541992,721.7324 199.741219,718.333996 198.139648,716.009766 C196.538078,713.685535 194.252945,712.523438 191.28418,712.523438 C188.334946,712.523438 186.059578,713.670887 184.458008,715.96582 C182.856437,718.260754 182.045899,721.624978 182.026367,726.058594 L182.026367,728.138672 C182.026367,732.494162 182.82714,735.873035 184.428711,738.275391 C186.030281,740.677746 188.334946,741.878906 191.342773,741.878906 C194.292007,741.878906 196.557609,740.721691 198.139648,738.407227 C199.721688,736.092762 200.522461,732.718772 200.541992,728.285156 L200.541992,726.205078 Z M231.59668,737.923828 L241.264648,705.84375 L251.049805,705.84375 L236.196289,748.5 L227.026367,748.5 L212.231445,705.84375 L221.987305,705.84375 L231.59668,737.923828 Z M280.727539,730.013672 L263.852539,730.013672 L263.852539,741.439453 L283.657227,741.439453 L283.657227,748.5 L255.063477,748.5 L255.063477,705.84375 L283.598633,705.84375 L283.598633,712.962891 L263.852539,712.962891 L263.852539,723.128906 L280.727539,723.128906 L280.727539,730.013672 Z M288.813477,748.5 L288.813477,705.84375 L301.938477,705.84375 C305.688495,705.84375 309.042954,706.688468 312.001953,708.37793 C314.960952,710.067391 317.2705,712.469711 318.930664,715.584961 C320.590829,718.700211 321.420898,722.240215 321.420898,726.205078 L321.420898,728.167969 C321.420898,732.132832 320.605477,735.658188 318.974609,738.744141 C317.343742,741.830094 315.04396,744.222648 312.075195,745.921875 C309.10643,747.621102 305.756855,748.480469 302.026367,748.5 L288.813477,748.5 Z M297.602539,712.962891 L297.602539,741.439453 L301.850586,741.439453 C305.288103,741.439453 307.91503,740.316417 309.731445,738.070312 C311.547861,735.824208 312.475586,732.611349 312.514648,728.431641 L312.514648,726.175781 C312.514648,721.839822 311.61622,718.553722 309.819336,716.317383 C308.022452,714.081044 305.395525,712.962891 301.938477,712.962891 L297.602539,712.962891 Z" id="REMOVED" fill="#000000" fill-rule="nonzero" opacity="0.50155785"></path>
        <path d="M399.956055,705.84375 L399.956055,733.939453 C399.956055,738.607445 398.496108,742.298815 395.576172,745.013672 C392.656235,747.728529 388.667017,749.085938 383.608398,749.085938 C378.627905,749.085938 374.672866,747.767591 371.743164,745.130859 C368.813462,742.494127 367.319336,738.871117 367.260742,734.261719 L367.260742,705.84375 L376.049805,705.84375 L376.049805,733.998047 C376.049805,736.79103 376.718743,738.827142 378.056641,740.106445 C379.394538,741.385749 381.245105,742.025391 383.608398,742.025391 C388.549829,742.025391 391.05957,739.42776 391.137695,734.232422 L391.137695,705.84375 L399.956055,705.84375 Z M441.850586,748.5 L433.061523,748.5 L415.952148,720.433594 L415.952148,748.5 L407.163086,748.5 L407.163086,705.84375 L415.952148,705.84375 L433.09082,733.96875 L433.09082,705.84375 L441.850586,705.84375 L441.850586,748.5 Z M449.526367,748.5 L449.526367,705.84375 L462.651367,705.84375 C466.401386,705.84375 469.755845,706.688468 472.714844,708.37793 C475.673843,710.067391 477.98339,712.469711 479.643555,715.584961 C481.303719,718.700211 482.133789,722.240215 482.133789,726.205078 L482.133789,728.167969 C482.133789,732.132832 481.318368,735.658188 479.6875,738.744141 C478.056632,741.830094 475.756851,744.222648 472.788086,745.921875 C469.819321,747.621102 466.469745,748.480469 462.739258,748.5 L449.526367,748.5 Z M458.31543,712.962891 L458.31543,741.439453 L462.563477,741.439453 C466.000994,741.439453 468.627921,740.316417 470.444336,738.070312 C472.260751,735.824208 473.188476,732.611349 473.227539,728.431641 L473.227539,726.175781 C473.227539,721.839822 472.329111,718.553722 470.532227,716.317383 C468.735343,714.081044 466.108416,712.962891 462.651367,712.962891 L458.31543,712.962891 Z M523.55957,728.138672 C523.55957,732.337912 522.81739,736.019515 521.333008,739.183594 C519.848625,742.347672 517.724623,744.789054 514.960938,746.507812 C512.197252,748.226571 509.028338,749.085938 505.454102,749.085938 C501.918928,749.085938 498.764662,748.236337 495.991211,746.537109 C493.21776,744.837882 491.069344,742.411149 489.545898,739.256836 C488.022453,736.102523 487.250977,732.47463 487.231445,728.373047 L487.231445,726.263672 C487.231445,722.064432 487.988274,718.36818 489.501953,715.174805 C491.015633,711.981429 493.154283,709.530282 495.917969,707.821289 C498.681654,706.112296 501.840803,705.257812 505.395508,705.257812 C508.950213,705.257812 512.109361,706.112296 514.873047,707.821289 C517.636733,709.530282 519.775383,711.981429 521.289062,715.174805 C522.802742,718.36818 523.55957,722.054667 523.55957,726.234375 L523.55957,728.138672 Z M514.65332,726.205078 C514.65332,721.7324 513.852547,718.333996 512.250977,716.009766 C510.649406,713.685535 508.364273,712.523438 505.395508,712.523438 C502.446274,712.523438 500.170906,713.670887 498.569336,715.96582 C496.967765,718.260754 496.157227,721.624978 496.137695,726.058594 L496.137695,728.138672 C496.137695,732.494162 496.938469,735.873035 498.540039,738.275391 C500.14161,740.677746 502.446274,741.878906 505.454102,741.878906 C508.403335,741.878906 510.668937,740.721691 512.250977,738.407227 C513.833016,736.092762 514.633789,732.718772 514.65332,728.285156 L514.65332,726.205078 Z" id="UNDO" fill="#FFFFFF" fill-rule="nonzero"></path>
        <g id="SWIPE-LEFT-TO-REMOVE" transform="translate(95.283203, 83.216797)" fill-rule="nonzero">
            <path d="M18.5544434,17.6279297 C18.5544434,16.7148392 18.232181,16.0139185 17.5876465,15.5251465 C16.943112,15.0363745 15.7829674,14.5207547 14.1071777,13.9782715 C12.4313881,13.4357883 11.1047412,12.9013698 10.1271973,12.375 C7.46312145,10.9355397 6.13110352,8.99659422 6.13110352,6.55810547 C6.13110352,5.29052101 6.48827768,4.15991708 7.20263672,3.16625977 C7.91699576,2.17260245 8.94286441,1.39648717 10.2802734,0.837890625 C11.6176825,0.279294082 13.1188882,0 14.7839355,0 C16.4597252,0 17.9528743,0.303463762 19.2634277,0.910400391 C20.5739812,1.51733702 21.5917932,2.37401791 22.3168945,3.48046875 C23.0419958,4.58691959 23.404541,5.84374296 23.404541,7.25097656 L18.5705566,7.25097656 C18.5705566,6.17675244 18.2321811,5.34155572 17.5554199,4.74536133 C16.8786587,4.14916694 15.9279846,3.85107422 14.7033691,3.85107422 C13.5217226,3.85107422 12.6032748,4.10082758 11.947998,4.6003418 C11.2927213,5.09985601 10.9650879,5.75780842 10.9650879,6.57421875 C10.9650879,7.33691788 11.3491173,7.97607164 12.1171875,8.49169922 C12.8852577,9.0073268 14.0158617,9.4907204 15.5090332,9.94189453 C18.259047,10.7690471 20.2624449,11.7949158 21.5192871,13.0195313 C22.7761293,14.2441467 23.404541,15.7695221 23.404541,17.5957031 C23.404541,19.6259867 22.6364823,21.2185001 21.1003418,22.373291 C19.5642013,23.5280819 17.4963509,24.1054688 14.8967285,24.1054688 C13.092032,24.1054688 11.4484937,23.7751498 9.96606445,23.114502 C8.48363517,22.4538541 7.35303124,21.5488339 6.57421875,20.3994141 C5.79540626,19.2499943 5.40600586,17.9179763 5.40600586,16.4033203 L10.2561035,16.4033203 C10.2561035,18.9922004 11.802963,20.2866211 14.8967285,20.2866211 C16.0461483,20.2866211 16.943112,20.0529809 17.5876465,19.5856934 C18.232181,19.1184059 18.5544434,18.4658245 18.5544434,17.6279297 Z M44.947998,17.015625 L48.1062012,0.322265625 L52.9240723,0.322265625 L47.7194824,23.7832031 L42.8532715,23.7832031 L39.0344238,8.08886719 L35.2155762,23.7832031 L30.3493652,23.7832031 L25.1447754,0.322265625 L29.9626465,0.322265625 L33.1369629,16.9833984 L37.0041504,0.322265625 L41.0969238,0.322265625 L44.947998,17.015625 Z M60.6745605,23.7832031 L55.8405762,23.7832031 L55.8405762,0.322265625 L60.6745605,0.322265625 L60.6745605,23.7832031 Z M69.9880371,15.5170898 L69.9880371,23.7832031 L65.1540527,23.7832031 L65.1540527,0.322265625 L74.3063965,0.322265625 C76.068124,0.322265625 77.6176691,0.644528027 78.9550781,1.2890625 C80.2924872,1.93359697 81.3210413,2.8493593 82.0407715,4.03637695 C82.7605016,5.22339461 83.1203613,6.57421118 83.1203613,8.08886719 C83.1203613,10.3877068 82.333504,12.2004328 80.7597656,13.5270996 C79.1860273,14.8537664 77.0080706,15.5170898 74.2258301,15.5170898 L69.9880371,15.5170898 Z M69.9880371,11.6015625 L74.3063965,11.6015625 C75.5847232,11.6015625 76.559567,11.3007843 77.230957,10.6992188 C77.9023471,10.0976532 78.2380371,9.23828684 78.2380371,8.12109375 C78.2380371,6.97167394 77.8996616,6.04248401 77.2229004,5.33349609 C76.5461392,4.62450817 75.6115782,4.25927745 74.4191895,4.23779297 L69.9880371,4.23779297 L69.9880371,11.6015625 Z M100.554932,13.6157227 L91.2736816,13.6157227 L91.2736816,19.8999023 L102.16626,19.8999023 L102.16626,23.7832031 L86.4396973,23.7832031 L86.4396973,0.322265625 L102.134033,0.322265625 L102.134033,4.23779297 L91.2736816,4.23779297 L91.2736816,9.82910156 L100.554932,9.82910156 L100.554932,13.6157227 Z M118.053955,19.8999023 L128.318115,19.8999023 L128.318115,23.7832031 L113.219971,23.7832031 L113.219971,0.322265625 L118.053955,0.322265625 L118.053955,19.8999023 Z M145.204834,13.6157227 L135.923584,13.6157227 L135.923584,19.8999023 L146.816162,19.8999023 L146.816162,23.7832031 L131.0896,23.7832031 L131.0896,0.322265625 L146.783936,0.322265625 L146.783936,4.23779297 L135.923584,4.23779297 L135.923584,9.82910156 L145.204834,9.82910156 L145.204834,13.6157227 Z M163.767334,14.1958008 L154.486084,14.1958008 L154.486084,23.7832031 L149.6521,23.7832031 L149.6521,0.322265625 L164.92749,0.322265625 L164.92749,4.23779297 L154.486084,4.23779297 L154.486084,10.2963867 L163.767334,10.2963867 L163.767334,14.1958008 Z M185.391357,4.23779297 L178.204834,4.23779297 L178.204834,23.7832031 L173.37085,23.7832031 L173.37085,4.23779297 L166.281006,4.23779297 L166.281006,0.322265625 L185.391357,0.322265625 L185.391357,4.23779297 Z M214.024658,4.23779297 L206.838135,4.23779297 L206.838135,23.7832031 L202.00415,23.7832031 L202.00415,4.23779297 L194.914307,4.23779297 L194.914307,0.322265625 L214.024658,0.322265625 L214.024658,4.23779297 Z M236.051514,12.5844727 C236.051514,14.8940545 235.643315,16.9189366 234.826904,18.6591797 C234.010494,20.3994228 232.842293,21.7421828 231.322266,22.6875 C229.802238,23.6328172 228.059336,24.1054688 226.093506,24.1054688 C224.14916,24.1054688 222.414314,23.6381883 220.888916,22.7036133 C219.363518,21.7690383 218.181889,20.4343348 217.343994,18.6994629 C216.506099,16.9645909 216.081787,14.9692496 216.071045,12.7133789 L216.071045,11.5532227 C216.071045,9.2436408 216.487301,7.21070214 217.319824,5.4543457 C218.152348,3.69798927 219.328606,2.34985822 220.848633,1.40991211 C222.36866,0.469966003 224.106191,0 226.061279,0 C228.016367,0 229.753899,0.469966003 231.273926,1.40991211 C232.793953,2.34985822 233.970211,3.69798927 234.802734,5.4543457 C235.635258,7.21070214 236.051514,9.23826976 236.051514,11.5371094 L236.051514,12.5844727 Z M231.153076,11.5209961 C231.153076,9.06102286 230.712651,7.19190092 229.831787,5.91357422 C228.950923,4.63524751 227.6941,3.99609375 226.061279,3.99609375 C224.439201,3.99609375 223.187749,4.62719095 222.306885,5.8894043 C221.426021,7.15161764 220.980225,9.00194093 220.969482,11.4404297 L220.969482,12.5844727 C220.969482,14.9799924 221.409908,16.8383723 222.290771,18.159668 C223.171635,19.4809636 224.439201,20.1416016 226.093506,20.1416016 C227.715584,20.1416016 228.961666,19.5051333 229.831787,18.2321777 C230.701909,16.9592222 231.142334,15.1035278 231.153076,12.6650391 L231.153076,11.5209961 Z" id="SWIPELEFTTO" fill="#000000"></path>
            <path d="M256.467041,15.1948242 L252.615967,15.1948242 L252.615967,23.7832031 L247.781982,23.7832031 L247.781982,0.322265625 L256.499268,0.322265625 C259.270766,0.322265625 261.40844,0.939935229 262.912354,2.17529297 C264.416267,3.41065071 265.168213,5.15623872 265.168213,7.41210938 C265.168213,9.01270332 264.821781,10.3474068 264.128906,11.4162598 C263.436032,12.4851128 262.385993,13.3364226 260.97876,13.9702148 L266.054443,23.5576172 L266.054443,23.7832031 L260.865967,23.7832031 L256.467041,15.1948242 Z M252.615967,11.2792969 L256.515381,11.2792969 C257.729254,11.2792969 258.669186,10.9704621 259.335205,10.3527832 C260.001224,9.73510433 260.334229,8.88379449 260.334229,7.79882812 C260.334229,6.69237728 260.020023,5.82226879 259.391602,5.18847656 C258.76318,4.55468433 257.799079,4.23779297 256.499268,4.23779297 L252.615967,4.23779297 L252.615967,11.2792969 Z M282.957275,13.6157227 L273.676025,13.6157227 L273.676025,19.8999023 L284.568604,19.8999023 L284.568604,23.7832031 L268.842041,23.7832031 L268.842041,0.322265625 L284.536377,0.322265625 L284.536377,4.23779297 L273.676025,4.23779297 L273.676025,9.82910156 L282.957275,9.82910156 L282.957275,13.6157227 Z M293.720947,0.322265625 L299.747314,17.3378906 L305.741455,0.322265625 L312.090088,0.322265625 L312.090088,23.7832031 L307.23999,23.7832031 L307.23999,17.3701172 L307.723389,6.30029297 L301.390869,23.7832031 L298.071533,23.7832031 L291.755127,6.31640625 L292.238525,17.3701172 L292.238525,23.7832031 L287.404541,23.7832031 L287.404541,0.322265625 L293.720947,0.322265625 Z M335.583252,12.5844727 C335.583252,14.8940545 335.175053,16.9189366 334.358643,18.6591797 C333.542232,20.3994228 332.374031,21.7421828 330.854004,22.6875 C329.333977,23.6328172 327.591074,24.1054688 325.625244,24.1054688 C323.680898,24.1054688 321.946053,23.6381883 320.420654,22.7036133 C318.895256,21.7690383 317.713627,20.4343348 316.875732,18.6994629 C316.037838,16.9645909 315.613525,14.9692496 315.602783,12.7133789 L315.602783,11.5532227 C315.602783,9.2436408 316.019039,7.21070214 316.851562,5.4543457 C317.684086,3.69798927 318.860344,2.34985822 320.380371,1.40991211 C321.900398,0.469966003 323.63793,0 325.593018,0 C327.548105,0 329.285637,0.469966003 330.805664,1.40991211 C332.325691,2.34985822 333.501949,3.69798927 334.334473,5.4543457 C335.166996,7.21070214 335.583252,9.23826976 335.583252,11.5371094 L335.583252,12.5844727 Z M330.684814,11.5209961 C330.684814,9.06102286 330.244389,7.19190092 329.363525,5.91357422 C328.482662,4.63524751 327.225838,3.99609375 325.593018,3.99609375 C323.970939,3.99609375 322.719487,4.62719095 321.838623,5.8894043 C320.957759,7.15161764 320.511963,9.00194093 320.501221,11.4404297 L320.501221,12.5844727 C320.501221,14.9799924 320.941646,16.8383723 321.82251,18.159668 C322.703374,19.4809636 323.970939,20.1416016 325.625244,20.1416016 C327.247323,20.1416016 328.493404,19.5051333 329.363525,18.2321777 C330.233647,16.9592222 330.674072,15.1035278 330.684814,12.6650391 L330.684814,11.5209961 Z M347.764893,17.9663086 L353.082275,0.322265625 L358.464111,0.322265625 L350.294678,23.7832031 L345.251221,23.7832031 L337.114014,0.322265625 L342.479736,0.322265625 L347.764893,17.9663086 Z M374.786865,13.6157227 L365.505615,13.6157227 L365.505615,19.8999023 L376.398193,19.8999023 L376.398193,23.7832031 L360.671631,23.7832031 L360.671631,0.322265625 L376.365967,0.322265625 L376.365967,4.23779297 L365.505615,4.23779297 L365.505615,9.82910156 L374.786865,9.82910156 L374.786865,13.6157227 Z" id="REMOVE" fill="#ED094D"></path>
            <path d="M15.2270508,57.9492188 L6.75146484,57.9492188 L5.14013672,62.7832031 L0,62.7832031 L8.73339844,39.3222656 L13.2128906,39.3222656 L21.9946289,62.7832031 L16.8544922,62.7832031 L15.2270508,57.9492188 Z M8.05664062,54.0336914 L13.921875,54.0336914 L10.9731445,45.2519531 L8.05664062,54.0336914 Z M43.2641602,62.7832031 L38.4301758,62.7832031 L29.0200195,47.3466797 L29.0200195,62.7832031 L24.1860352,62.7832031 L24.1860352,39.3222656 L29.0200195,39.3222656 L38.4462891,54.7910156 L38.4462891,39.3222656 L43.2641602,39.3222656 L43.2641602,62.7832031 Z M60.84375,62.7832031 L56.0097656,62.7832031 L56.0097656,39.3222656 L60.84375,39.3222656 L60.84375,62.7832031 Z M82.9833984,43.237793 L75.796875,43.237793 L75.796875,62.7832031 L70.9628906,62.7832031 L70.9628906,43.237793 L63.8730469,43.237793 L63.8730469,39.3222656 L82.9833984,39.3222656 L82.9833984,43.237793 Z M99.8540039,52.6157227 L90.5727539,52.6157227 L90.5727539,58.8999023 L101.465332,58.8999023 L101.465332,62.7832031 L85.7387695,62.7832031 L85.7387695,39.3222656 L101.433105,39.3222656 L101.433105,43.237793 L90.5727539,43.237793 L90.5727539,48.8291016 L99.8540039,48.8291016 L99.8540039,52.6157227 Z M110.617676,39.3222656 L116.644043,56.3378906 L122.638184,39.3222656 L128.986816,39.3222656 L128.986816,62.7832031 L124.136719,62.7832031 L124.136719,56.3701172 L124.620117,45.300293 L118.287598,62.7832031 L114.968262,62.7832031 L108.651855,45.3164062 L109.135254,56.3701172 L109.135254,62.7832031 L104.30127,62.7832031 L104.30127,39.3222656 L110.617676,39.3222656 Z M155.541504,53.1958008 L146.260254,53.1958008 L146.260254,62.7832031 L141.42627,62.7832031 L141.42627,39.3222656 L156.70166,39.3222656 L156.70166,43.237793 L146.260254,43.237793 L146.260254,49.2963867 L155.541504,49.2963867 L155.541504,53.1958008 Z M168.19043,54.1948242 L164.339355,54.1948242 L164.339355,62.7832031 L159.505371,62.7832031 L159.505371,39.3222656 L168.222656,39.3222656 C170.994154,39.3222656 173.131828,39.9399352 174.635742,41.175293 C176.139656,42.4106507 176.891602,44.1562387 176.891602,46.4121094 C176.891602,48.0127033 176.545169,49.3474068 175.852295,50.4162598 C175.15942,51.4851128 174.109382,52.3364226 172.702148,52.9702148 L177.777832,62.5576172 L177.777832,62.7832031 L172.589355,62.7832031 L168.19043,54.1948242 Z M164.339355,50.2792969 L168.23877,50.2792969 C169.452643,50.2792969 170.392575,49.9704621 171.058594,49.3527832 C171.724613,48.7351043 172.057617,47.8837945 172.057617,46.7988281 C172.057617,45.6923773 171.743411,44.8222688 171.11499,44.1884766 C170.486569,43.5546843 169.522467,43.237793 168.222656,43.237793 L164.339355,43.237793 L164.339355,50.2792969 Z M199.836914,51.5844727 C199.836914,53.8940545 199.428715,55.9189366 198.612305,57.6591797 C197.795894,59.3994228 196.627693,60.7421828 195.107666,61.6875 C193.587639,62.6328172 191.844736,63.1054688 189.878906,63.1054688 C187.934561,63.1054688 186.199715,62.6381883 184.674316,61.7036133 C183.148918,60.7690383 181.967289,59.4343348 181.129395,57.6994629 C180.2915,55.9645909 179.867188,53.9692496 179.856445,51.7133789 L179.856445,50.5532227 C179.856445,48.2436408 180.272701,46.2107021 181.105225,44.4543457 C181.937748,42.6979893 183.114006,41.3498582 184.634033,40.4099121 C186.15406,39.469966 187.891592,39 189.84668,39 C191.801768,39 193.539299,39.469966 195.059326,40.4099121 C196.579353,41.3498582 197.755611,42.6979893 198.588135,44.4543457 C199.420658,46.2107021 199.836914,48.2382698 199.836914,50.5371094 L199.836914,51.5844727 Z M194.938477,50.5209961 C194.938477,48.0610229 194.498051,46.1919009 193.617188,44.9135742 C192.736324,43.6352475 191.4795,42.9960938 189.84668,42.9960938 C188.224601,42.9960938 186.973149,43.627191 186.092285,44.8894043 C185.211421,46.1516176 184.765625,48.0019409 184.754883,50.4404297 L184.754883,51.5844727 C184.754883,53.9799924 185.195308,55.8383723 186.076172,57.159668 C186.957036,58.4809636 188.224601,59.1416016 189.878906,59.1416016 C191.500985,59.1416016 192.747066,58.5051333 193.617188,57.2321777 C194.487309,55.9592222 194.927734,54.1035278 194.938477,51.6650391 L194.938477,50.5209961 Z M209.666016,39.3222656 L215.692383,56.3378906 L221.686523,39.3222656 L228.035156,39.3222656 L228.035156,62.7832031 L223.185059,62.7832031 L223.185059,56.3701172 L223.668457,45.300293 L217.335938,62.7832031 L214.016602,62.7832031 L207.700195,45.3164062 L208.183594,56.3701172 L208.183594,62.7832031 L203.349609,62.7832031 L203.349609,39.3222656 L209.666016,39.3222656 Z M258.134766,43.237793 L250.948242,43.237793 L250.948242,62.7832031 L246.114258,62.7832031 L246.114258,43.237793 L239.024414,43.237793 L239.024414,39.3222656 L258.134766,39.3222656 L258.134766,43.237793 Z M279.984375,62.7832031 L275.150391,62.7832031 L275.150391,52.7285156 L265.724121,52.7285156 L265.724121,62.7832031 L260.890137,62.7832031 L260.890137,39.3222656 L265.724121,39.3222656 L265.724121,48.8291016 L275.150391,48.8291016 L275.150391,39.3222656 L279.984375,39.3222656 L279.984375,62.7832031 Z M298.321289,52.6157227 L289.040039,52.6157227 L289.040039,58.8999023 L299.932617,58.8999023 L299.932617,62.7832031 L284.206055,62.7832031 L284.206055,39.3222656 L299.900391,39.3222656 L299.900391,43.237793 L289.040039,43.237793 L289.040039,48.8291016 L298.321289,48.8291016 L298.321289,52.6157227 Z M328.646484,43.237793 L321.459961,43.237793 L321.459961,62.7832031 L316.625977,62.7832031 L316.625977,43.237793 L309.536133,43.237793 L309.536133,39.3222656 L328.646484,39.3222656 L328.646484,43.237793 Z M344.646973,57.9492188 L336.171387,57.9492188 L334.560059,62.7832031 L329.419922,62.7832031 L338.15332,39.3222656 L342.632812,39.3222656 L351.414551,62.7832031 L346.274414,62.7832031 L344.646973,57.9492188 Z M337.476562,54.0336914 L343.341797,54.0336914 L340.393066,45.2519531 L337.476562,54.0336914 Z M353.605957,62.7832031 L353.605957,39.3222656 L361.82373,39.3222656 C364.670424,39.3222656 366.829582,39.8674262 368.30127,40.9577637 C369.772957,42.0481012 370.508789,43.6459856 370.508789,45.7514648 C370.508789,46.9008847 370.213382,47.9133257 369.622559,48.7888184 C369.031735,49.664311 368.209966,50.3061503 367.157227,50.7143555 C368.360358,51.0151382 369.308346,51.6220657 370.001221,52.5351562 C370.694095,53.4482468 371.040527,54.5654231 371.040527,55.8867188 C371.040527,58.1425894 370.320808,59.8505801 368.881348,61.0107422 C367.441887,62.1709042 365.39015,62.7617186 362.726074,62.7832031 L353.605957,62.7832031 Z M358.439941,52.5673828 L358.439941,58.8999023 L362.581055,58.8999023 C363.719732,58.8999023 364.608639,58.6286648 365.247803,58.0861816 C365.886966,57.5436985 366.206543,56.7944384 366.206543,55.8383789 C366.206543,53.6899307 365.094738,52.5996095 362.871094,52.5673828 L358.439941,52.5673828 Z M358.439941,49.1513672 L362.01709,49.1513672 C364.455579,49.1083982 365.674805,48.13624 365.674805,46.2348633 C365.674805,45.1713814 365.36597,44.4060082 364.748291,43.9387207 C364.130612,43.4714332 363.155768,43.237793 361.82373,43.237793 L358.439941,43.237793 L358.439941,49.1513672 Z M379.097168,55.5805664 L375.22998,55.5805664 L374.682129,39.3222656 L379.64502,39.3222656 L379.097168,55.5805664 Z M377.163574,58.1264648 C377.947758,58.1264648 378.578855,58.3574196 379.056885,58.8193359 C379.534914,59.2812523 379.773926,59.8720667 379.773926,60.5917969 C379.773926,61.3007848 379.534914,61.8862282 379.056885,62.3481445 C378.578855,62.8100609 377.947758,63.0410156 377.163574,63.0410156 C376.390133,63.0410156 375.764407,62.8100609 375.286377,62.3481445 C374.808347,61.8862282 374.569336,61.3007848 374.569336,60.5917969 C374.569336,59.882809 374.808347,59.2946801 375.286377,58.8273926 C375.764407,58.3601051 376.390133,58.1264648 377.163574,58.1264648 Z" id="ANITEMFROMTHETAB!" fill="#000000"></path>
        </g>
    </g>
</svg>