<?xml version="1.0" encoding="UTF-8"?>
<svg width="570px" height="792px" viewBox="0 0 570 792" version="1.1" xmlns="http://www.w3.org/2000/svg" xmlns:xlink="http://www.w3.org/1999/xlink">
    <!-- Generator: Sketch 54.1 (76490) - https://sketchapp.com -->
    <title>B3_items_en</title>
    <desc>Created with Sketch.</desc>
    <g id="B3_items_en" stroke="none" stroke-width="1" fill="none" fill-rule="evenodd">
        <rect id="Rectangle" fill="#00B0FF" x="0" y="0" width="570" height="792" rx="16"></rect>
        <path d="M47,252 L524,252 C530.627417,252 536,257.372583 536,264 L536,779 L35,779 L35,264 C35,257.372583 40.372583,252 47,252 Z" id="Rectangle" fill="#080B26"></path>
        <rect id="Rectangle" fill="#FFFFFF" x="35" y="42" width="501" height="145" rx="12"></rect>
        <rect id="Rectangle" fill="#375270" opacity="0.295014881" x="35" y="292" width="440" height="104"></rect>
        <path d="M260,308 L443,308 C450.179702,308 456,313.820298 456,321 L456,367 C456,374.179702 450.179702,380 443,380 L260,380 C252.820298,380 247,374.179702 247,367 L247,321 C247,313.820298 252.820298,308 260,308 Z M260,313 C255.581722,313 252,316.581722 252,321 L252,367 C252,371.418278 255.581722,375 260,375 L443,375 C447.418278,375 451,371.418278 451,367 L451,321 C451,316.581722 447.418278,313 443,313 L260,313 Z" id="Rectangle" fill="#00D3FF" fill-rule="nonzero"></path>
        <polygon id="Line-2" fill="#FFFFFF" fill-rule="nonzero" points="411 230.776337 411 176 419 176 419 230.776337 437 230.776337 415 293 393 230.776337 411 230.776337"></polygon>
        <path d="M270.287256,342.707031 L272.768701,342.707031 C273.950348,342.707031 274.825827,342.411624 275.395166,341.820801 C275.964505,341.229978 276.24917,340.445806 276.24917,339.468262 C276.24917,338.522944 275.96719,337.787112 275.403223,337.260742 C274.839255,336.734372 274.06314,336.471191 273.074854,336.471191 C272.183247,336.471191 271.436673,336.715574 270.835107,337.204346 C270.233542,337.693118 269.932764,338.329586 269.932764,339.11377 L265.276025,339.11377 C265.276025,337.889154 265.606344,336.790776 266.266992,335.818604 C266.92764,334.846431 267.851459,334.086429 269.038477,333.538574 C270.225494,332.99072 271.533342,332.716797 272.962061,332.716797 C275.443518,332.716797 277.387835,333.310297 278.795068,334.497314 C280.202302,335.684332 280.905908,337.319814 280.905908,339.403809 C280.905908,340.478033 280.578275,341.466304 279.922998,342.368652 C279.267721,343.271001 278.408355,343.963865 277.344873,344.447266 C278.666169,344.919924 279.651755,345.628902 280.30166,346.574219 C280.951566,347.519536 281.276514,348.636712 281.276514,349.925781 C281.276514,352.009776 280.516512,353.680169 278.996484,354.937012 C277.476457,356.193854 275.465003,356.822266 272.962061,356.822266 C270.620252,356.822266 268.705476,356.204596 267.217676,354.969238 C265.729875,353.733881 264.985986,352.101084 264.985986,350.070801 L269.642725,350.070801 C269.642725,350.951665 269.973044,351.671384 270.633691,352.22998 C271.294339,352.788577 272.108052,353.067871 273.074854,353.067871 C274.181304,353.067871 275.048727,352.775149 275.677148,352.189697 C276.30557,351.604245 276.619775,350.82813 276.619775,349.861328 C276.619775,347.51952 275.330726,346.348633 272.752588,346.348633 L270.287256,346.348633 L270.287256,342.707031 Z M294.415088,344.27002 L297.347705,339.06543 L302.326709,339.06543 L297.363818,347.605469 L302.536182,356.5 L297.541064,356.5 L294.431201,351.021484 L291.337451,356.5 L286.326221,356.5 L291.498584,347.605469 L286.551807,339.06543 L291.546924,339.06543 L294.415088,344.27002 Z M318.607373,350.328613 C318.607373,349.44775 318.362991,348.746829 317.874219,348.22583 C317.385447,347.704831 316.555621,347.224123 315.384717,346.783691 C314.213813,346.34326 313.204057,345.90552 312.35542,345.470459 C311.506783,345.035398 310.779007,344.535891 310.17207,343.971924 C309.565134,343.407956 309.092482,342.744633 308.754102,341.981934 C308.415721,341.219234 308.246533,340.311529 308.246533,339.258789 C308.246533,337.44335 308.826606,335.955572 309.986768,334.79541 C311.14693,333.635248 312.688418,332.958497 314.611279,332.765137 L314.611279,329.316895 L317.189404,329.316895 L317.189404,332.813477 C319.090781,333.082033 320.578559,333.874261 321.652783,335.190186 C322.727007,336.50611 323.264111,338.211415 323.264111,340.306152 L318.607373,340.306152 C318.607373,339.017083 318.341507,338.052982 317.809766,337.413818 C317.278025,336.774655 316.566362,336.455078 315.674756,336.455078 C314.793892,336.455078 314.11177,336.704831 313.628369,337.204346 C313.144968,337.70386 312.903271,338.394039 312.903271,339.274902 C312.903271,340.091313 313.139597,340.74658 313.612256,341.240723 C314.084914,341.734866 314.96308,342.239744 316.246777,342.755371 C317.530475,343.270999 318.585885,343.757078 319.413037,344.213623 C320.24019,344.670168 320.938425,345.185788 321.507764,345.760498 C322.077102,346.335208 322.512157,346.990475 322.812939,347.726318 C323.113722,348.462162 323.264111,349.318843 323.264111,350.296387 C323.264111,352.122568 322.694781,353.604975 321.556104,354.743652 C320.417426,355.88233 318.849082,356.55371 316.851025,356.757812 L316.851025,359.964355 L314.289014,359.964355 L314.289014,356.773926 C312.086854,356.537596 310.381549,355.75611 309.173047,354.429443 C307.964545,353.102777 307.360303,351.33839 307.360303,349.13623 L312.017041,349.13623 C312.017041,350.414557 312.320505,351.394772 312.927441,352.076904 C313.534378,352.759037 314.407172,353.100098 315.54585,353.100098 C316.491167,353.100098 317.237741,352.850344 317.785596,352.35083 C318.33345,351.851316 318.607373,351.17725 318.607373,350.328613 Z M345.45835,335.649414 L336.386572,356.5 L331.472021,356.5 L340.559912,336.80957 L328.893896,336.80957 L328.893896,333.039062 L345.45835,333.039062 L345.45835,335.649414 Z M348.874365,354.211914 C348.874365,353.470699 349.124119,352.869143 349.623633,352.407227 C350.123147,351.94531 350.748873,351.714355 351.50083,351.714355 C352.263529,351.714355 352.894626,351.94531 353.394141,352.407227 C353.893655,352.869143 354.143408,353.470699 354.143408,354.211914 C354.143408,354.942386 353.89634,355.535886 353.402197,355.992432 C352.908054,356.448977 352.274271,356.677246 351.50083,356.677246 C350.738131,356.677246 350.109719,356.448977 349.615576,355.992432 C349.121433,355.535886 348.874365,354.942386 348.874365,354.211914 Z M371.803564,347.669922 L374.462256,347.669922 L374.462256,351.424316 L371.803564,351.424316 L371.803564,356.5 L367.146826,356.5 L367.146826,351.424316 L357.527197,351.424316 L357.317725,348.491699 L367.098486,333.039062 L371.803564,333.039062 L371.803564,347.669922 Z M361.95835,347.669922 L367.146826,347.669922 L367.146826,339.387695 L366.840674,339.919434 L361.95835,347.669922 Z M387.852393,347.12207 C386.638519,348.314459 385.220565,348.910645 383.598486,348.910645 C381.525234,348.910645 379.865582,348.198982 378.619482,346.775635 C377.373382,345.352288 376.750342,343.432141 376.750342,341.015137 C376.750342,339.478996 377.086032,338.069098 377.757422,336.7854 C378.428812,335.501703 379.366058,334.502689 380.569189,333.78833 C381.77232,333.073971 383.125823,332.716797 384.629736,332.716797 C386.176619,332.716797 387.551605,333.103512 388.754736,333.876953 C389.957867,334.650394 390.892428,335.7622 391.558447,337.212402 C392.224466,338.662605 392.562842,340.322256 392.573584,342.191406 L392.573584,343.915527 C392.573584,347.825703 391.601426,350.897938 389.65708,353.132324 C387.712734,355.36671 384.957391,356.559081 381.390967,356.709473 L380.246924,356.725586 L380.246924,352.842285 L381.278174,352.826172 C385.327999,352.643554 387.519383,350.742206 387.852393,347.12207 Z M384.742529,345.349609 C385.494486,345.349609 386.141697,345.156252 386.68418,344.769531 C387.226663,344.382811 387.637547,343.91553 387.916846,343.367676 L387.916846,341.450195 C387.916846,339.871086 387.616067,338.646489 387.014502,337.776367 C386.412936,336.906246 385.60728,336.471191 384.59751,336.471191 C383.662935,336.471191 382.894876,336.898189 382.293311,337.752197 C381.691745,338.606205 381.390967,339.677728 381.390967,340.966797 C381.390967,342.245124 381.683688,343.295162 382.269141,344.116943 C382.854593,344.938725 383.679047,345.349609 384.742529,345.349609 Z M412.328467,356.822266 C409.771813,356.822266 407.690535,356.038094 406.08457,354.469727 C404.478605,352.901359 403.675635,350.812025 403.675635,348.20166 L403.675635,347.750488 C403.675635,345.999503 404.01401,344.433845 404.690771,343.053467 C405.367533,341.673089 406.326263,340.609623 407.566992,339.863037 C408.807721,339.116451 410.22299,338.743164 411.812842,338.743164 C414.197619,338.743164 416.074798,339.49511 417.444434,340.999023 C418.814069,342.502937 419.498877,344.63524 419.498877,347.395996 L419.498877,349.297363 L408.396826,349.297363 C408.547218,350.436041 409.00107,351.349118 409.758398,352.036621 C410.515726,352.724125 411.474457,353.067871 412.634619,353.067871 C414.428573,353.067871 415.830415,352.417975 416.840186,351.118164 L419.128271,353.680176 C418.430026,354.668462 417.484723,355.439206 416.292334,355.992432 C415.099945,356.545657 413.778669,356.822266 412.328467,356.822266 Z M411.796729,342.513672 C410.872896,342.513672 410.123636,342.825192 409.548926,343.448242 C408.974216,344.071292 408.6063,344.962885 408.445166,346.123047 L414.922705,346.123047 L414.922705,345.752441 C414.901221,344.721186 414.621927,343.923587 414.084814,343.359619 C413.547702,342.795651 412.785015,342.513672 411.796729,342.513672 Z M432.244482,356.5 C432.029638,356.081053 431.873877,355.560062 431.777197,354.937012 C430.649262,356.193854 429.182968,356.822266 427.378271,356.822266 C425.670255,356.822266 424.254986,356.32813 423.132422,355.339844 C422.009858,354.351558 421.448584,353.105476 421.448584,351.601562 C421.448584,349.753897 422.133392,348.335942 423.503027,347.347656 C424.872663,346.35937 426.851891,345.859863 429.440771,345.849121 L431.583838,345.849121 L431.583838,344.850098 C431.583838,344.04443 431.377053,343.399905 430.963477,342.916504 C430.5499,342.433103 429.897319,342.191406 429.005713,342.191406 C428.221529,342.191406 427.606545,342.379393 427.160742,342.755371 C426.714939,343.13135 426.492041,343.646969 426.492041,344.302246 L421.835303,344.302246 C421.835303,343.292475 422.146823,342.357914 422.769873,341.498535 C423.392923,340.639156 424.273774,339.96509 425.412451,339.476318 C426.551129,338.987546 427.829436,338.743164 429.247412,338.743164 C431.39586,338.743164 433.101166,339.282954 434.363379,340.362549 C435.625592,341.442144 436.256689,342.959463 436.256689,344.914551 L436.256689,352.47168 C436.267432,354.125985 436.498386,355.377437 436.949561,356.226074 L436.949561,356.5 L432.244482,356.5 Z M428.393408,353.26123 C429.080912,353.26123 429.714694,353.108156 430.294775,352.802002 C430.874856,352.495848 431.30454,352.084964 431.583838,351.569336 L431.583838,348.572266 L429.843604,348.572266 C427.512537,348.572266 426.271827,349.377922 426.121436,350.989258 L426.105322,351.263184 C426.105322,351.843265 426.309422,352.321287 426.717627,352.697266 C427.125832,353.073244 427.68442,353.26123 428.393408,353.26123 Z" id="3x$7.49ea" fill="#00D3FF" fill-rule="nonzero"></path>
        <path d="M62.911377,343.80127 C62.911377,345.992687 62.5568883,347.89672 61.8479004,349.513428 C61.1389125,351.130135 60.1560121,352.427241 58.8991699,353.404785 L62.798584,356.466309 L59.7209473,359.189453 L54.7258301,355.177246 C54.1564913,355.273926 53.5656769,355.322266 52.9533691,355.322266 C51.0090235,355.322266 49.2741775,354.854985 47.7487793,353.92041 C46.223381,352.985835 45.0417522,351.651132 44.2038574,349.91626 C43.3659626,348.181388 42.9416504,346.186046 42.9309082,343.930176 L42.9309082,342.77002 C42.9309082,340.460438 43.3471638,338.427499 44.1796875,336.671143 C45.0122112,334.914786 46.188469,333.566655 47.7084961,332.626709 C49.2285232,331.686763 50.9660547,331.216797 52.9211426,331.216797 C54.8762305,331.216797 56.6137619,331.686763 58.1337891,332.626709 C59.6538162,333.566655 60.830074,334.914786 61.6625977,336.671143 C62.4951214,338.427499 62.911377,340.455067 62.911377,342.753906 L62.911377,343.80127 Z M58.0129395,342.737793 C58.0129395,340.27782 57.5725142,338.408698 56.6916504,337.130371 C55.8107866,335.852044 54.5539632,335.212891 52.9211426,335.212891 C51.2990642,335.212891 50.0476118,335.843988 49.166748,337.106201 C48.2858843,338.368415 47.8400879,340.218738 47.8293457,342.657227 L47.8293457,343.80127 C47.8293457,346.196789 48.269771,348.055169 49.1506348,349.376465 C50.0314985,350.697761 51.299064,351.358398 52.9533691,351.358398 C54.5754476,351.358398 55.8215289,350.72193 56.6916504,349.448975 C57.5617719,348.176019 58.0021972,346.320325 58.0129395,343.881836 L58.0129395,342.737793 Z M93.0915527,347.185059 C92.9089346,349.709485 91.9770592,351.69677 90.2958984,353.146973 C88.6147377,354.597175 86.3991837,355.322266 83.6491699,355.322266 C80.6413424,355.322266 78.2753992,354.309825 76.5512695,352.284912 C74.8271398,350.26 73.9650879,347.480486 73.9650879,343.946289 L73.9650879,342.512207 C73.9650879,340.256336 74.3625449,338.269052 75.1574707,336.550293 C75.9523966,334.831534 77.0883715,333.512944 78.5654297,332.594482 C80.0424879,331.676021 81.7585351,331.216797 83.713623,331.216797 C86.4206678,331.216797 88.6013101,331.941887 90.2556152,333.39209 C91.9099204,334.842292 92.8659655,336.877917 93.1237793,339.499023 L88.2897949,339.499023 C88.1716303,337.984367 87.7500036,336.88599 87.0249023,336.203857 C86.2998011,335.521725 85.1960523,335.180664 83.713623,335.180664 C82.1022869,335.180664 80.8964884,335.758051 80.0961914,336.912842 C79.2958944,338.067633 78.8850099,339.858875 78.8635254,342.286621 L78.8635254,344.059082 C78.8635254,346.594251 79.2475548,348.44726 80.015625,349.618164 C80.7836952,350.789068 81.9948648,351.374512 83.6491699,351.374512 C85.1423415,351.374512 86.2568323,351.033451 86.9926758,350.351318 C87.7285193,349.669186 88.1501459,348.613777 88.2575684,347.185059 L93.0915527,347.185059 Z M100.503662,339.466797 C101.73902,337.984368 103.29125,337.243164 105.1604,337.243164 C108.941669,337.243164 110.859131,339.439919 110.912842,343.833496 L110.912842,355 L106.256104,355 L106.256104,343.962402 C106.256104,342.963374 106.041262,342.224856 105.611572,341.746826 C105.181883,341.268796 104.467534,341.029785 103.468506,341.029785 C102.104241,341.029785 101.11597,341.556147 100.503662,342.608887 L100.503662,355 L95.8469238,355 L95.8469238,330.25 L100.503662,330.25 L100.503662,339.466797 Z M119.340088,355 L114.667236,355 L114.667236,337.56543 L119.340088,337.56543 L119.340088,355 Z M114.393311,333.053711 C114.393311,332.355465 114.626951,331.780764 115.094238,331.32959 C115.561526,330.878416 116.197994,330.652832 117.003662,330.652832 C117.798588,330.652832 118.432371,330.878416 118.905029,331.32959 C119.377688,331.780764 119.614014,332.355465 119.614014,333.053711 C119.614014,333.762699 119.375002,334.342771 118.896973,334.793945 C118.418943,335.245119 117.787846,335.470703 117.003662,335.470703 C116.219479,335.470703 115.588381,335.245119 115.110352,334.793945 C114.632322,334.342771 114.393311,333.762699 114.393311,333.053711 Z M130.426025,351.567871 C131.285405,351.567871 131.98364,351.331545 132.520752,350.858887 C133.057864,350.386228 133.337158,349.757816 133.358643,348.973633 L137.725342,348.973633 C137.7146,350.155279 137.392337,351.237544 136.758545,352.220459 C136.124753,353.203374 135.25733,353.966062 134.15625,354.508545 C133.05517,355.051028 131.83863,355.322266 130.506592,355.322266 C128.014392,355.322266 126.048591,354.530037 124.609131,352.945557 C123.169671,351.361076 122.449951,349.172377 122.449951,346.379395 L122.449951,346.073242 C122.449951,343.387682 123.164299,341.244637 124.593018,339.644043 C126.021736,338.043449 127.982165,337.243164 130.474365,337.243164 C132.65504,337.243164 134.403314,337.863519 135.719238,339.104248 C137.035163,340.344977 137.703857,341.996572 137.725342,344.059082 L133.358643,344.059082 C133.337158,343.156734 133.057864,342.423587 132.520752,341.859619 C131.98364,341.295651 131.274663,341.013672 130.393799,341.013672 C129.308832,341.013672 128.489749,341.408443 127.936523,342.197998 C127.383298,342.987553 127.106689,344.268546 127.106689,346.041016 L127.106689,346.524414 C127.106689,348.318368 127.380612,349.607418 127.928467,350.391602 C128.476321,351.175785 129.308832,351.567871 130.426025,351.567871 Z M146.716553,348.006836 L145.040771,349.682617 L145.040771,355 L140.384033,355 L140.384033,330.25 L145.040771,330.25 L145.040771,343.962402 L145.943115,342.802246 L150.406494,337.56543 L155.997803,337.56543 L149.69751,344.83252 L156.545654,355 L151.196045,355 L146.716553,348.006836 Z M166.036377,355.322266 C163.479724,355.322266 161.398446,354.538094 159.79248,352.969727 C158.186515,351.401359 157.383545,349.312025 157.383545,346.70166 L157.383545,346.250488 C157.383545,344.499503 157.72192,342.933845 158.398682,341.553467 C159.075443,340.173089 160.034173,339.109623 161.274902,338.363037 C162.515631,337.616451 163.9309,337.243164 165.520752,337.243164 C167.90553,337.243164 169.782708,337.99511 171.152344,339.499023 C172.52198,341.002937 173.206787,343.13524 173.206787,345.895996 L173.206787,347.797363 L162.104736,347.797363 C162.255128,348.936041 162.708981,349.849118 163.466309,350.536621 C164.223637,351.224125 165.182367,351.567871 166.342529,351.567871 C168.136484,351.567871 169.538325,350.917975 170.548096,349.618164 L172.836182,352.180176 C172.137936,353.168462 171.192633,353.939206 170.000244,354.492432 C168.807855,355.045657 167.48658,355.322266 166.036377,355.322266 Z M165.504639,341.013672 C164.580806,341.013672 163.831546,341.325192 163.256836,341.948242 C162.682126,342.571292 162.31421,343.462885 162.153076,344.623047 L168.630615,344.623047 L168.630615,344.252441 C168.609131,343.221186 168.329837,342.423587 167.792725,341.859619 C167.255613,341.295651 166.492925,341.013672 165.504639,341.013672 Z M180.135498,337.56543 L180.280518,339.57959 C181.526618,338.021965 183.197011,337.243164 185.291748,337.243164 C187.139414,337.243164 188.5144,337.785639 189.416748,338.870605 C190.319096,339.955572 190.781006,341.577626 190.80249,343.736816 L190.80249,355 L186.145752,355 L186.145752,343.849609 C186.145752,342.861323 185.93091,342.144289 185.501221,341.698486 C185.071531,341.252683 184.357183,341.029785 183.358154,341.029785 C182.047601,341.029785 181.064701,341.588373 180.409424,342.705566 L180.409424,355 L175.752686,355 L175.752686,337.56543 L180.135498,337.56543 Z" id="BBQChicken" fill="#00D3FF" fill-rule="nonzero"></path>
        <g id="pointer" transform="translate(413.000000, 380.500000)" fill="#FFFFFF" fill-rule="nonzero">
            <path d="M64,34 C63,34 61.5,34 61,34 C61,33 60,31 59,30 C58,29 56,28 53.5,28 C52.5,28 51.5,28 50.5,28.5 C50,27.5 49.5,27 49,26 C48,25 46.5,24 43.5,24 C42.5,24 41.5,24 41,24.5 L41,16 C41,13 39,9 34,9 C32,9 30,10 28.5,11 C26,14 26,18 26,18 L26,39.5 C23,40 20.5,41 19,42.5 C16,46 16,50.5 16,56.5 C16,57.5 16,59 16,60 C16,67 19.5,70.5 23,74 L24.5,76 C31,82 36.5,84 50,84 C64.5,84 71,76 71,58.5 L71,46 C71,42.5 70,35.5 64,34 Z M66,46 L66,59 C66,76 59.5,79.5 50,79.5 C38,79.5 33.5,78 28.5,73 C28,72.5 27.5,72 26.5,71 C23,67 21,65 21,60 C21,59 21,57.5 21,56.5 C21,51.5 21,48 22.5,46 C23,45.5 24.5,45 26,45 L26,47.5 L24.5,55 C24.5,55.5 24.5,55.5 25,56 C25.5,56.5 26,56 26,56 L31,50 C31,49.5 31,49 31,49 L31,18 C31,17.5 31,15.5 32,14.5 C32.5,14.5 33,14 34,14 C35.5,14 36,15.5 36,16 L36,31.5 C36,31.5 36,31.5 36,31.5 L36,37.5 C36,39 37,40.5 38.5,40.5 C40,40.5 41,39 41,38 L41,31.5 C41,31.5 41,31.5 41,31.5 C41,31 41.5,29 43.5,29 C45,29 46,29.5 46,31 L46,37.5 C46,39 47,40.5 48.5,40.5 C50,40.5 51,39 51,38 L51,34.5 C51,34 51.5,33 53.5,33 C54.5,33 55,33.5 55,33.5 C56,34 56,35.5 56,35.5 L56,39.5 C56,41 57,42 58,42 C59.5,42 60.5,41.5 60.5,40 C60.5,39.5 61,39 61.5,38.5 C61.5,38.5 62,38.5 62.5,38.5 C65.5,39.5 66,44.5 66,46 C66,45.5 66,45.5 66,46 L66,46 Z" id="Shape" transform="translate(43.500000, 46.500000) rotate(31.000000) translate(-43.500000, -46.500000) "></path>
        </g>
        <path id="Line" d="M107.996045,392.955512 L459.101394,392.496077 L459.109245,398.496072 L108.003897,398.955507 L108.022216,412.955495 L74,396 L107.977726,378.955524 L107.996045,392.955512 Z" fill="#FFFFFF" fill-rule="nonzero"></path>
        <rect id="Rectangle" fill="#FFFFFF" opacity="0.353655134" x="482" y="304" width="43" height="8" rx="4"></rect>
        <rect id="Rectangle" fill="#FFFFFF" opacity="0.353655134" x="482" y="353.333333" width="22" height="7" rx="3.5"></rect>
        <rect id="Rectangle" fill="#FFFFFF" opacity="0.353655134" x="482" y="377.5" width="14" height="7" rx="3.5"></rect>
        <rect id="Rectangle" fill="#FFFFFF" opacity="0.353655134" x="482" y="329.166667" width="33" height="7" rx="3.5"></rect>
        <g id="SWIPE-LEFT-TO-DELETE" transform="translate(108.205566, 83.216797)" fill-rule="nonzero">
            <path d="M13.1484375,17.6279297 C13.1484375,16.7148392 12.8261751,16.0139185 12.1816406,15.5251465 C11.5371062,15.0363745 10.3769615,14.5207547 8.70117188,13.9782715 C7.02538225,13.4357883 5.69873536,12.9013698 4.72119141,12.375 C2.05711559,10.9355397 0.725097656,8.99659422 0.725097656,6.55810547 C0.725097656,5.29052101 1.08227182,4.15991708 1.79663086,3.16625977 C2.5109899,2.17260245 3.53685855,1.39648717 4.87426758,0.837890625 C6.21167661,0.279294082 7.7128823,0 9.37792969,0 C11.0537193,0 12.5468684,0.303463762 13.8574219,0.910400391 C15.1679753,1.51733702 16.1857874,2.37401791 16.9108887,3.48046875 C17.63599,4.58691959 17.9985352,5.84374296 17.9985352,7.25097656 L13.1645508,7.25097656 C13.1645508,6.17675244 12.8261753,5.34155572 12.1494141,4.74536133 C11.4726529,4.14916694 10.5219788,3.85107422 9.29736328,3.85107422 C8.11571675,3.85107422 7.1972689,4.10082758 6.54199219,4.6003418 C5.88671547,5.09985601 5.55908203,5.75780842 5.55908203,6.57421875 C5.55908203,7.33691788 5.94311139,7.97607164 6.71118164,8.49169922 C7.47925189,9.0073268 8.60985582,9.4907204 10.1030273,9.94189453 C12.8530411,10.7690471 14.856439,11.7949158 16.1132812,13.0195313 C17.3701235,14.2441467 17.9985352,15.7695221 17.9985352,17.5957031 C17.9985352,19.6259867 17.2304764,21.2185001 15.6943359,22.373291 C14.1581954,23.5280819 12.090345,24.1054688 9.49072266,24.1054688 C7.68602613,24.1054688 6.04248788,23.7751498 4.56005859,23.114502 C3.07762931,22.4538541 1.94702538,21.5488339 1.16821289,20.3994141 C0.389400403,19.2499943 0,17.9179763 0,16.4033203 L4.85009766,16.4033203 C4.85009766,18.9922004 6.39695719,20.2866211 9.49072266,20.2866211 C10.6401425,20.2866211 11.5371062,20.0529809 12.1816406,19.5856934 C12.8261751,19.1184059 13.1484375,18.4658245 13.1484375,17.6279297 Z M39.5419922,17.015625 L42.7001953,0.322265625 L47.5180664,0.322265625 L42.3134766,23.7832031 L37.4472656,23.7832031 L33.628418,8.08886719 L29.8095703,23.7832031 L24.9433594,23.7832031 L19.7387695,0.322265625 L24.5566406,0.322265625 L27.730957,16.9833984 L31.5981445,0.322265625 L35.690918,0.322265625 L39.5419922,17.015625 Z M55.2685547,23.7832031 L50.4345703,23.7832031 L50.4345703,0.322265625 L55.2685547,0.322265625 L55.2685547,23.7832031 Z M64.5820312,15.5170898 L64.5820312,23.7832031 L59.7480469,23.7832031 L59.7480469,0.322265625 L68.9003906,0.322265625 C70.6621182,0.322265625 72.2116632,0.644528027 73.5490723,1.2890625 C74.8864813,1.93359697 75.9150355,2.8493593 76.6347656,4.03637695 C77.3544958,5.22339461 77.7143555,6.57421118 77.7143555,8.08886719 C77.7143555,10.3877068 76.9274981,12.2004328 75.3537598,13.5270996 C73.7800214,14.8537664 71.6020647,15.5170898 68.8198242,15.5170898 L64.5820312,15.5170898 Z M64.5820312,11.6015625 L68.9003906,11.6015625 C70.1787173,11.6015625 71.1535611,11.3007843 71.8249512,10.6992188 C72.4963412,10.0976532 72.8320312,9.23828684 72.8320312,8.12109375 C72.8320312,6.97167394 72.4936557,6.04248401 71.8168945,5.33349609 C71.1401333,4.62450817 70.2055724,4.25927745 69.0131836,4.23779297 L64.5820312,4.23779297 L64.5820312,11.6015625 Z M95.1489258,13.6157227 L85.8676758,13.6157227 L85.8676758,19.8999023 L96.7602539,19.8999023 L96.7602539,23.7832031 L81.0336914,23.7832031 L81.0336914,0.322265625 L96.7280273,0.322265625 L96.7280273,4.23779297 L85.8676758,4.23779297 L85.8676758,9.82910156 L95.1489258,9.82910156 L95.1489258,13.6157227 Z M112.647949,19.8999023 L122.912109,19.8999023 L122.912109,23.7832031 L107.813965,23.7832031 L107.813965,0.322265625 L112.647949,0.322265625 L112.647949,19.8999023 Z M139.798828,13.6157227 L130.517578,13.6157227 L130.517578,19.8999023 L141.410156,19.8999023 L141.410156,23.7832031 L125.683594,23.7832031 L125.683594,0.322265625 L141.37793,0.322265625 L141.37793,4.23779297 L130.517578,4.23779297 L130.517578,9.82910156 L139.798828,9.82910156 L139.798828,13.6157227 Z M158.361328,14.1958008 L149.080078,14.1958008 L149.080078,23.7832031 L144.246094,23.7832031 L144.246094,0.322265625 L159.521484,0.322265625 L159.521484,4.23779297 L149.080078,4.23779297 L149.080078,10.2963867 L158.361328,10.2963867 L158.361328,14.1958008 Z M179.985352,4.23779297 L172.798828,4.23779297 L172.798828,23.7832031 L167.964844,23.7832031 L167.964844,4.23779297 L160.875,4.23779297 L160.875,0.322265625 L179.985352,0.322265625 L179.985352,4.23779297 Z M208.618652,4.23779297 L201.432129,4.23779297 L201.432129,23.7832031 L196.598145,23.7832031 L196.598145,4.23779297 L189.508301,4.23779297 L189.508301,0.322265625 L208.618652,0.322265625 L208.618652,4.23779297 Z M230.645508,12.5844727 C230.645508,14.8940545 230.237309,16.9189366 229.420898,18.6591797 C228.604488,20.3994228 227.436287,21.7421828 225.91626,22.6875 C224.396233,23.6328172 222.65333,24.1054688 220.6875,24.1054688 C218.743154,24.1054688 217.008308,23.6381883 215.48291,22.7036133 C213.957512,21.7690383 212.775883,20.4343348 211.937988,18.6994629 C211.100093,16.9645909 210.675781,14.9692496 210.665039,12.7133789 L210.665039,11.5532227 C210.665039,9.2436408 211.081295,7.21070214 211.913818,5.4543457 C212.746342,3.69798927 213.9226,2.34985822 215.442627,1.40991211 C216.962654,0.469966003 218.700186,0 220.655273,0 C222.610361,0 224.347893,0.469966003 225.86792,1.40991211 C227.387947,2.34985822 228.564205,3.69798927 229.396729,5.4543457 C230.229252,7.21070214 230.645508,9.23826976 230.645508,11.5371094 L230.645508,12.5844727 Z M225.74707,11.5209961 C225.74707,9.06102286 225.306645,7.19190092 224.425781,5.91357422 C223.544917,4.63524751 222.288094,3.99609375 220.655273,3.99609375 C219.033195,3.99609375 217.781743,4.62719095 216.900879,5.8894043 C216.020015,7.15161764 215.574219,9.00194093 215.563477,11.4404297 L215.563477,12.5844727 C215.563477,14.9799924 216.003902,16.8383723 216.884766,18.159668 C217.765629,19.4809636 219.033195,20.1416016 220.6875,20.1416016 C222.309578,20.1416016 223.55566,19.5051333 224.425781,18.2321777 C225.295903,16.9592222 225.736328,15.1035278 225.74707,12.6650391 L225.74707,11.5209961 Z" id="SWIPELEFTTO" fill="#000000"></path>
            <path d="M242.375977,23.7832031 L242.375977,0.322265625 L249.594727,0.322265625 C251.657237,0.322265625 253.502189,0.786860588 255.129639,1.71606445 C256.757088,2.64526832 258.027339,3.96654417 258.94043,5.67993164 C259.85352,7.39331911 260.310059,9.34032113 260.310059,11.5209961 L260.310059,12.6005859 C260.310059,14.7812609 259.861577,16.7202064 258.9646,18.4174805 C258.067622,20.1147546 256.802743,21.4306594 255.169922,22.3652344 C253.537101,23.2998094 251.694834,23.7724609 249.643066,23.7832031 L242.375977,23.7832031 Z M247.209961,4.23779297 L247.209961,19.8999023 L249.546387,19.8999023 C251.437021,19.8999023 252.881831,19.2822327 253.880859,18.046875 C254.879888,16.8115173 255.390137,15.0444451 255.411621,12.7456055 L255.411621,11.5048828 C255.411621,9.12010526 254.917485,7.31275029 253.929199,6.08276367 C252.940913,4.85277705 251.496103,4.23779297 249.594727,4.23779297 L247.209961,4.23779297 Z M277.937988,13.6157227 L268.656738,13.6157227 L268.656738,19.8999023 L279.549316,19.8999023 L279.549316,23.7832031 L263.822754,23.7832031 L263.822754,0.322265625 L279.51709,0.322265625 L279.51709,4.23779297 L268.656738,4.23779297 L268.656738,9.82910156 L277.937988,9.82910156 L277.937988,13.6157227 Z M287.219238,19.8999023 L297.483398,19.8999023 L297.483398,23.7832031 L282.385254,23.7832031 L282.385254,0.322265625 L287.219238,0.322265625 L287.219238,19.8999023 Z M314.370117,13.6157227 L305.088867,13.6157227 L305.088867,19.8999023 L315.981445,19.8999023 L315.981445,23.7832031 L300.254883,23.7832031 L300.254883,0.322265625 L315.949219,0.322265625 L315.949219,4.23779297 L305.088867,4.23779297 L305.088867,9.82910156 L314.370117,9.82910156 L314.370117,13.6157227 Z M336.477539,4.23779297 L329.291016,4.23779297 L329.291016,23.7832031 L324.457031,23.7832031 L324.457031,4.23779297 L317.367188,4.23779297 L317.367188,0.322265625 L336.477539,0.322265625 L336.477539,4.23779297 Z M353.348145,13.6157227 L344.066895,13.6157227 L344.066895,19.8999023 L354.959473,19.8999023 L354.959473,23.7832031 L339.23291,23.7832031 L339.23291,0.322265625 L354.927246,0.322265625 L354.927246,4.23779297 L344.066895,4.23779297 L344.066895,9.82910156 L353.348145,9.82910156 L353.348145,13.6157227 Z" id="DELETE" fill="#ED094D"></path>
            <path d="M21.8496094,57.9492188 L13.3740234,57.9492188 L11.7626953,62.7832031 L6.62255859,62.7832031 L15.355957,39.3222656 L19.8354492,39.3222656 L28.6171875,62.7832031 L23.4770508,62.7832031 L21.8496094,57.9492188 Z M14.6791992,54.0336914 L20.5444336,54.0336914 L17.5957031,45.2519531 L14.6791992,54.0336914 Z M49.8867188,62.7832031 L45.0527344,62.7832031 L35.6425781,47.3466797 L35.6425781,62.7832031 L30.8085938,62.7832031 L30.8085938,39.3222656 L35.6425781,39.3222656 L45.0688477,54.7910156 L45.0688477,39.3222656 L49.8867188,39.3222656 L49.8867188,62.7832031 Z M67.4663086,62.7832031 L62.6323242,62.7832031 L62.6323242,39.3222656 L67.4663086,39.3222656 L67.4663086,62.7832031 Z M89.605957,43.237793 L82.4194336,43.237793 L82.4194336,62.7832031 L77.5854492,62.7832031 L77.5854492,43.237793 L70.4956055,43.237793 L70.4956055,39.3222656 L89.605957,39.3222656 L89.605957,43.237793 Z M106.476562,52.6157227 L97.1953125,52.6157227 L97.1953125,58.8999023 L108.087891,58.8999023 L108.087891,62.7832031 L92.3613281,62.7832031 L92.3613281,39.3222656 L108.055664,39.3222656 L108.055664,43.237793 L97.1953125,43.237793 L97.1953125,48.8291016 L106.476562,48.8291016 L106.476562,52.6157227 Z M117.240234,39.3222656 L123.266602,56.3378906 L129.260742,39.3222656 L135.609375,39.3222656 L135.609375,62.7832031 L130.759277,62.7832031 L130.759277,56.3701172 L131.242676,45.300293 L124.910156,62.7832031 L121.59082,62.7832031 L115.274414,45.3164062 L115.757812,56.3701172 L115.757812,62.7832031 L110.923828,62.7832031 L110.923828,39.3222656 L117.240234,39.3222656 Z M162.164062,53.1958008 L152.882812,53.1958008 L152.882812,62.7832031 L148.048828,62.7832031 L148.048828,39.3222656 L163.324219,39.3222656 L163.324219,43.237793 L152.882812,43.237793 L152.882812,49.2963867 L162.164062,49.2963867 L162.164062,53.1958008 Z M174.812988,54.1948242 L170.961914,54.1948242 L170.961914,62.7832031 L166.12793,62.7832031 L166.12793,39.3222656 L174.845215,39.3222656 C177.616713,39.3222656 179.754387,39.9399352 181.258301,41.175293 C182.762215,42.4106507 183.51416,44.1562387 183.51416,46.4121094 C183.51416,48.0127033 183.167728,49.3474068 182.474854,50.4162598 C181.781979,51.4851128 180.731941,52.3364226 179.324707,52.9702148 L184.400391,62.5576172 L184.400391,62.7832031 L179.211914,62.7832031 L174.812988,54.1948242 Z M170.961914,50.2792969 L174.861328,50.2792969 C176.075201,50.2792969 177.015133,49.9704621 177.681152,49.3527832 C178.347171,48.7351043 178.680176,47.8837945 178.680176,46.7988281 C178.680176,45.6923773 178.36597,44.8222688 177.737549,44.1884766 C177.109128,43.5546843 176.145026,43.237793 174.845215,43.237793 L170.961914,43.237793 L170.961914,50.2792969 Z M206.459473,51.5844727 C206.459473,53.8940545 206.051274,55.9189366 205.234863,57.6591797 C204.418453,59.3994228 203.250252,60.7421828 201.730225,61.6875 C200.210197,62.6328172 198.467295,63.1054688 196.501465,63.1054688 C194.557119,63.1054688 192.822273,62.6381883 191.296875,61.7036133 C189.771477,60.7690383 188.589848,59.4343348 187.751953,57.6994629 C186.914058,55.9645909 186.489746,53.9692496 186.479004,51.7133789 L186.479004,50.5532227 C186.479004,48.2436408 186.89526,46.2107021 187.727783,44.4543457 C188.560307,42.6979893 189.736565,41.3498582 191.256592,40.4099121 C192.776619,39.469966 194.51415,39 196.469238,39 C198.424326,39 200.161858,39.469966 201.681885,40.4099121 C203.201912,41.3498582 204.37817,42.6979893 205.210693,44.4543457 C206.043217,46.2107021 206.459473,48.2382698 206.459473,50.5371094 L206.459473,51.5844727 Z M201.561035,50.5209961 C201.561035,48.0610229 201.12061,46.1919009 200.239746,44.9135742 C199.358882,43.6352475 198.102059,42.9960938 196.469238,42.9960938 C194.84716,42.9960938 193.595708,43.627191 192.714844,44.8894043 C191.83398,46.1516176 191.388184,48.0019409 191.377441,50.4404297 L191.377441,51.5844727 C191.377441,53.9799924 191.817867,55.8383723 192.69873,57.159668 C193.579594,58.4809636 194.84716,59.1416016 196.501465,59.1416016 C198.123543,59.1416016 199.369625,58.5051333 200.239746,57.2321777 C201.109868,55.9592222 201.550293,54.1035278 201.561035,51.6650391 L201.561035,50.5209961 Z M216.288574,39.3222656 L222.314941,56.3378906 L228.309082,39.3222656 L234.657715,39.3222656 L234.657715,62.7832031 L229.807617,62.7832031 L229.807617,56.3701172 L230.291016,45.300293 L223.958496,62.7832031 L220.63916,62.7832031 L214.322754,45.3164062 L214.806152,56.3701172 L214.806152,62.7832031 L209.972168,62.7832031 L209.972168,39.3222656 L216.288574,39.3222656 Z M260.342285,57.9492188 L251.866699,57.9492188 L250.255371,62.7832031 L245.115234,62.7832031 L253.848633,39.3222656 L258.328125,39.3222656 L267.109863,62.7832031 L261.969727,62.7832031 L260.342285,57.9492188 Z M253.171875,54.0336914 L259.037109,54.0336914 L256.088379,45.2519531 L253.171875,54.0336914 Z M295.179199,43.237793 L287.992676,43.237793 L287.992676,62.7832031 L283.158691,62.7832031 L283.158691,43.237793 L276.068848,43.237793 L276.068848,39.3222656 L295.179199,39.3222656 L295.179199,43.237793 Z M311.179688,57.9492188 L302.704102,57.9492188 L301.092773,62.7832031 L295.952637,62.7832031 L304.686035,39.3222656 L309.165527,39.3222656 L317.947266,62.7832031 L312.807129,62.7832031 L311.179688,57.9492188 Z M304.009277,54.0336914 L309.874512,54.0336914 L306.925781,45.2519531 L304.009277,54.0336914 Z M320.138672,62.7832031 L320.138672,39.3222656 L328.356445,39.3222656 C331.203139,39.3222656 333.362297,39.8674262 334.833984,40.9577637 C336.305671,42.0481012 337.041504,43.6459856 337.041504,45.7514648 C337.041504,46.9008847 336.746097,47.9133257 336.155273,48.7888184 C335.56445,49.664311 334.742681,50.3061503 333.689941,50.7143555 C334.893072,51.0151382 335.841061,51.6220657 336.533936,52.5351562 C337.22681,53.4482468 337.573242,54.5654231 337.573242,55.8867188 C337.573242,58.1425894 336.853523,59.8505801 335.414062,61.0107422 C333.974602,62.1709042 331.922865,62.7617186 329.258789,62.7832031 L320.138672,62.7832031 Z M324.972656,52.5673828 L324.972656,58.8999023 L329.11377,58.8999023 C330.252447,58.8999023 331.141354,58.6286648 331.780518,58.0861816 C332.419681,57.5436985 332.739258,56.7944384 332.739258,55.8383789 C332.739258,53.6899307 331.627453,52.5996095 329.403809,52.5673828 L324.972656,52.5673828 Z M324.972656,49.1513672 L328.549805,49.1513672 C330.988293,49.1083982 332.20752,48.13624 332.20752,46.2348633 C332.20752,45.1713814 331.898685,44.4060082 331.281006,43.9387207 C330.663327,43.4714332 329.688483,43.237793 328.356445,43.237793 L324.972656,43.237793 L324.972656,49.1513672 Z M345.629883,55.5805664 L341.762695,55.5805664 L341.214844,39.3222656 L346.177734,39.3222656 L345.629883,55.5805664 Z M343.696289,58.1264648 C344.480473,58.1264648 345.11157,58.3574196 345.5896,58.8193359 C346.067629,59.2812523 346.306641,59.8720667 346.306641,60.5917969 C346.306641,61.3007848 346.067629,61.8862282 345.5896,62.3481445 C345.11157,62.8100609 344.480473,63.0410156 343.696289,63.0410156 C342.922848,63.0410156 342.297122,62.8100609 341.819092,62.3481445 C341.341062,61.8862282 341.102051,61.3007848 341.102051,60.5917969 C341.102051,59.882809 341.341062,59.2946801 341.819092,58.8273926 C342.297122,58.3601051 342.922848,58.1264648 343.696289,58.1264648 Z" id="ANITEMFROMATAB!" fill="#000000"></path>
        </g>
    </g>
</svg>