<?xml version="1.0" encoding="UTF-8"?>
<svg width="570px" height="792px" viewBox="0 0 570 792" version="1.1" xmlns="http://www.w3.org/2000/svg" xmlns:xlink="http://www.w3.org/1999/xlink">
    <!-- Generator: Sketch 54.1 (76490) - https://sketchapp.com -->
    <title>B4_items_en</title>
    <desc>Created with Sketch.</desc>
    <g id="B4_items_en" stroke="none" stroke-width="1" fill="none" fill-rule="evenodd">
        <rect id="Rectangle" fill="#00B0FF" x="0" y="0" width="570" height="792" rx="16"></rect>
        <path d="M47,252 L524,252 C530.627417,252 536,257.372583 536,264 L536,779 L35,779 L35,264 C35,257.372583 40.372583,252 47,252 Z" id="Rectangle" fill="#080B26"></path>
        <rect id="Rectangle" fill="#FFFFFF" x="25" y="42" width="520" height="145" rx="12"></rect>
        <rect id="Rectangle" fill="#DC0B41" x="35" y="668" width="501" height="111"></rect>
        <path d="M65.6005859,732.884766 L58.5986328,732.884766 L58.5986328,748.5 L49.8095703,748.5 L49.8095703,705.84375 L65.6591797,705.84375 C70.6982674,705.84375 74.5849473,706.966786 77.3193359,709.212891 C80.0537246,711.458996 81.4208984,714.632792 81.4208984,718.734375 C81.4208984,721.644546 80.7910219,724.071279 79.53125,726.014648 C78.2714781,727.958018 76.3623175,729.505854 73.8037109,730.658203 L83.0322266,748.089844 L83.0322266,748.5 L73.5986328,748.5 L65.6005859,732.884766 Z M58.5986328,725.765625 L65.6884766,725.765625 C67.8955188,725.765625 69.6044861,725.204107 70.8154297,724.081055 C72.0263732,722.958002 72.6318359,721.410166 72.6318359,719.4375 C72.6318359,717.425771 72.0605526,715.843756 70.9179688,714.691406 C69.7753849,713.539057 68.0224728,712.962891 65.6591797,712.962891 L58.5986328,712.962891 L58.5986328,725.765625 Z M113.764648,730.013672 L96.8896484,730.013672 L96.8896484,741.439453 L116.694336,741.439453 L116.694336,748.5 L88.1005859,748.5 L88.1005859,705.84375 L116.635742,705.84375 L116.635742,712.962891 L96.8896484,712.962891 L96.8896484,723.128906 L113.764648,723.128906 L113.764648,730.013672 Z M133.334961,705.84375 L144.291992,736.78125 L155.19043,705.84375 L166.733398,705.84375 L166.733398,748.5 L157.915039,748.5 L157.915039,736.839844 L158.793945,716.712891 L147.280273,748.5 L141.245117,748.5 L129.760742,716.742188 L130.639648,736.839844 L130.639648,748.5 L121.850586,748.5 L121.850586,705.84375 L133.334961,705.84375 Z M209.448242,728.138672 C209.448242,732.337912 208.706062,736.019515 207.22168,739.183594 C205.737297,742.347672 203.613295,744.789054 200.849609,746.507812 C198.085924,748.226571 194.91701,749.085938 191.342773,749.085938 C187.8076,749.085938 184.653334,748.236337 181.879883,746.537109 C179.106431,744.837882 176.958015,742.411149 175.43457,739.256836 C173.911125,736.102523 173.139649,732.47463 173.120117,728.373047 L173.120117,726.263672 C173.120117,722.064432 173.876946,718.36818 175.390625,715.174805 C176.904304,711.981429 179.042955,709.530282 181.806641,707.821289 C184.570326,706.112296 187.729474,705.257812 191.28418,705.257812 C194.838885,705.257812 197.998033,706.112296 200.761719,707.821289 C203.525404,709.530282 205.664055,711.981429 207.177734,715.174805 C208.691414,718.36818 209.448242,722.054667 209.448242,726.234375 L209.448242,728.138672 Z M200.541992,726.205078 C200.541992,721.7324 199.741219,718.333996 198.139648,716.009766 C196.538078,713.685535 194.252945,712.523438 191.28418,712.523438 C188.334946,712.523438 186.059578,713.670887 184.458008,715.96582 C182.856437,718.260754 182.045899,721.624978 182.026367,726.058594 L182.026367,728.138672 C182.026367,732.494162 182.82714,735.873035 184.428711,738.275391 C186.030281,740.677746 188.334946,741.878906 191.342773,741.878906 C194.292007,741.878906 196.557609,740.721691 198.139648,738.407227 C199.721688,736.092762 200.522461,732.718772 200.541992,728.285156 L200.541992,726.205078 Z M231.59668,737.923828 L241.264648,705.84375 L251.049805,705.84375 L236.196289,748.5 L227.026367,748.5 L212.231445,705.84375 L221.987305,705.84375 L231.59668,737.923828 Z M280.727539,730.013672 L263.852539,730.013672 L263.852539,741.439453 L283.657227,741.439453 L283.657227,748.5 L255.063477,748.5 L255.063477,705.84375 L283.598633,705.84375 L283.598633,712.962891 L263.852539,712.962891 L263.852539,723.128906 L280.727539,723.128906 L280.727539,730.013672 Z M288.813477,748.5 L288.813477,705.84375 L301.938477,705.84375 C305.688495,705.84375 309.042954,706.688468 312.001953,708.37793 C314.960952,710.067391 317.2705,712.469711 318.930664,715.584961 C320.590829,718.700211 321.420898,722.240215 321.420898,726.205078 L321.420898,728.167969 C321.420898,732.132832 320.605477,735.658188 318.974609,738.744141 C317.343742,741.830094 315.04396,744.222648 312.075195,745.921875 C309.10643,747.621102 305.756855,748.480469 302.026367,748.5 L288.813477,748.5 Z M297.602539,712.962891 L297.602539,741.439453 L301.850586,741.439453 C305.288103,741.439453 307.91503,740.316417 309.731445,738.070312 C311.547861,735.824208 312.475586,732.611349 312.514648,728.431641 L312.514648,726.175781 C312.514648,721.839822 311.61622,718.553722 309.819336,716.317383 C308.022452,714.081044 305.395525,712.962891 301.938477,712.962891 L297.602539,712.962891 Z" id="REMOVED" fill="#000000" fill-rule="nonzero" opacity="0.50155785"></path>
        <path d="M399.956055,705.84375 L399.956055,733.939453 C399.956055,738.607445 398.496108,742.298815 395.576172,745.013672 C392.656235,747.728529 388.667017,749.085938 383.608398,749.085938 C378.627905,749.085938 374.672866,747.767591 371.743164,745.130859 C368.813462,742.494127 367.319336,738.871117 367.260742,734.261719 L367.260742,705.84375 L376.049805,705.84375 L376.049805,733.998047 C376.049805,736.79103 376.718743,738.827142 378.056641,740.106445 C379.394538,741.385749 381.245105,742.025391 383.608398,742.025391 C388.549829,742.025391 391.05957,739.42776 391.137695,734.232422 L391.137695,705.84375 L399.956055,705.84375 Z M441.850586,748.5 L433.061523,748.5 L415.952148,720.433594 L415.952148,748.5 L407.163086,748.5 L407.163086,705.84375 L415.952148,705.84375 L433.09082,733.96875 L433.09082,705.84375 L441.850586,705.84375 L441.850586,748.5 Z M449.526367,748.5 L449.526367,705.84375 L462.651367,705.84375 C466.401386,705.84375 469.755845,706.688468 472.714844,708.37793 C475.673843,710.067391 477.98339,712.469711 479.643555,715.584961 C481.303719,718.700211 482.133789,722.240215 482.133789,726.205078 L482.133789,728.167969 C482.133789,732.132832 481.318368,735.658188 479.6875,738.744141 C478.056632,741.830094 475.756851,744.222648 472.788086,745.921875 C469.819321,747.621102 466.469745,748.480469 462.739258,748.5 L449.526367,748.5 Z M458.31543,712.962891 L458.31543,741.439453 L462.563477,741.439453 C466.000994,741.439453 468.627921,740.316417 470.444336,738.070312 C472.260751,735.824208 473.188476,732.611349 473.227539,728.431641 L473.227539,726.175781 C473.227539,721.839822 472.329111,718.553722 470.532227,716.317383 C468.735343,714.081044 466.108416,712.962891 462.651367,712.962891 L458.31543,712.962891 Z M523.55957,728.138672 C523.55957,732.337912 522.81739,736.019515 521.333008,739.183594 C519.848625,742.347672 517.724623,744.789054 514.960938,746.507812 C512.197252,748.226571 509.028338,749.085938 505.454102,749.085938 C501.918928,749.085938 498.764662,748.236337 495.991211,746.537109 C493.21776,744.837882 491.069344,742.411149 489.545898,739.256836 C488.022453,736.102523 487.250977,732.47463 487.231445,728.373047 L487.231445,726.263672 C487.231445,722.064432 487.988274,718.36818 489.501953,715.174805 C491.015633,711.981429 493.154283,709.530282 495.917969,707.821289 C498.681654,706.112296 501.840803,705.257812 505.395508,705.257812 C508.950213,705.257812 512.109361,706.112296 514.873047,707.821289 C517.636733,709.530282 519.775383,711.981429 521.289062,715.174805 C522.802742,718.36818 523.55957,722.054667 523.55957,726.234375 L523.55957,728.138672 Z M514.65332,726.205078 C514.65332,721.7324 513.852547,718.333996 512.250977,716.009766 C510.649406,713.685535 508.364273,712.523438 505.395508,712.523438 C502.446274,712.523438 500.170906,713.670887 498.569336,715.96582 C496.967765,718.260754 496.157227,721.624978 496.137695,726.058594 L496.137695,728.138672 C496.137695,732.494162 496.938469,735.873035 498.540039,738.275391 C500.14161,740.677746 502.446274,741.878906 505.454102,741.878906 C508.403335,741.878906 510.668937,740.721691 512.250977,738.407227 C513.833016,736.092762 514.633789,732.718772 514.65332,728.285156 L514.65332,726.205078 Z" id="UNDO" fill="#FFFFFF" fill-rule="nonzero"></path>
        <polygon id="Line-2" fill="#FFFFFF" fill-rule="nonzero" points="425 151 433 151 433 647.625873 451 647.625873 429 689 407 647.625873 425 647.625873"></polygon>
        <g id="AFTER-REMOVING-AN-IT" transform="translate(40.916504, 62.716797)" fill-rule="nonzero">
            <path d="M15.2270508,18.9492188 L6.75146484,18.9492188 L5.14013672,23.7832031 L0,23.7832031 L8.73339844,0.322265625 L13.2128906,0.322265625 L21.9946289,23.7832031 L16.8544922,23.7832031 L15.2270508,18.9492188 Z M8.05664062,15.0336914 L13.921875,15.0336914 L10.9731445,6.25195312 L8.05664062,15.0336914 Z M38.3012695,14.1958008 L29.0200195,14.1958008 L29.0200195,23.7832031 L24.1860352,23.7832031 L24.1860352,0.322265625 L39.4614258,0.322265625 L39.4614258,4.23779297 L29.0200195,4.23779297 L29.0200195,10.2963867 L38.3012695,10.2963867 L38.3012695,14.1958008 Z M59.925293,4.23779297 L52.7387695,4.23779297 L52.7387695,23.7832031 L47.9047852,23.7832031 L47.9047852,4.23779297 L40.8149414,4.23779297 L40.8149414,0.322265625 L59.925293,0.322265625 L59.925293,4.23779297 Z M76.7958984,13.6157227 L67.5146484,13.6157227 L67.5146484,19.8999023 L78.4072266,19.8999023 L78.4072266,23.7832031 L62.6806641,23.7832031 L62.6806641,0.322265625 L78.375,0.322265625 L78.375,4.23779297 L67.5146484,4.23779297 L67.5146484,9.82910156 L76.7958984,9.82910156 L76.7958984,13.6157227 Z M89.9282227,15.1948242 L86.0771484,15.1948242 L86.0771484,23.7832031 L81.2431641,23.7832031 L81.2431641,0.322265625 L89.9604492,0.322265625 C92.7319475,0.322265625 94.8696214,0.939935229 96.3735352,2.17529297 C97.8774489,3.41065071 98.6293945,5.15623872 98.6293945,7.41210938 C98.6293945,9.01270332 98.2829624,10.3474068 97.5900879,11.4162598 C96.8972133,12.4851128 95.847175,13.3364226 94.4399414,13.9702148 L99.515625,23.5576172 L99.515625,23.7832031 L94.3271484,23.7832031 L89.9282227,15.1948242 Z M86.0771484,11.2792969 L89.9765625,11.2792969 C91.1904358,11.2792969 92.1303678,10.9704621 92.7963867,10.3527832 C93.4624057,9.73510433 93.7954102,8.88379449 93.7954102,7.79882812 C93.7954102,6.69237728 93.4812043,5.82226879 92.8527832,5.18847656 C92.2243621,4.55468433 91.2602604,4.23779297 89.9604492,4.23779297 L86.0771484,4.23779297 L86.0771484,11.2792969 Z M119.206055,15.1948242 L115.35498,15.1948242 L115.35498,23.7832031 L110.520996,23.7832031 L110.520996,0.322265625 L119.238281,0.322265625 C122.009779,0.322265625 124.147453,0.939935229 125.651367,2.17529297 C127.155281,3.41065071 127.907227,5.15623872 127.907227,7.41210938 C127.907227,9.01270332 127.560794,10.3474068 126.86792,11.4162598 C126.175045,12.4851128 125.125007,13.3364226 123.717773,13.9702148 L128.793457,23.5576172 L128.793457,23.7832031 L123.60498,23.7832031 L119.206055,15.1948242 Z M115.35498,11.2792969 L119.254395,11.2792969 C120.468268,11.2792969 121.4082,10.9704621 122.074219,10.3527832 C122.740238,9.73510433 123.073242,8.88379449 123.073242,7.79882812 C123.073242,6.69237728 122.759036,5.82226879 122.130615,5.18847656 C121.502194,4.55468433 120.538092,4.23779297 119.238281,4.23779297 L115.35498,4.23779297 L115.35498,11.2792969 Z M145.696289,13.6157227 L136.415039,13.6157227 L136.415039,19.8999023 L147.307617,19.8999023 L147.307617,23.7832031 L131.581055,23.7832031 L131.581055,0.322265625 L147.275391,0.322265625 L147.275391,4.23779297 L136.415039,4.23779297 L136.415039,9.82910156 L145.696289,9.82910156 L145.696289,13.6157227 Z M156.459961,0.322265625 L162.486328,17.3378906 L168.480469,0.322265625 L174.829102,0.322265625 L174.829102,23.7832031 L169.979004,23.7832031 L169.979004,17.3701172 L170.462402,6.30029297 L164.129883,23.7832031 L160.810547,23.7832031 L154.494141,6.31640625 L154.977539,17.3701172 L154.977539,23.7832031 L150.143555,23.7832031 L150.143555,0.322265625 L156.459961,0.322265625 Z M198.322266,12.5844727 C198.322266,14.8940545 197.914067,16.9189366 197.097656,18.6591797 C196.281246,20.3994228 195.113045,21.7421828 193.593018,22.6875 C192.07299,23.6328172 190.330088,24.1054688 188.364258,24.1054688 C186.419912,24.1054688 184.685066,23.6381883 183.159668,22.7036133 C181.63427,21.7690383 180.452641,20.4343348 179.614746,18.6994629 C178.776851,16.9645909 178.352539,14.9692496 178.341797,12.7133789 L178.341797,11.5532227 C178.341797,9.2436408 178.758052,7.21070214 179.590576,5.4543457 C180.4231,3.69798927 181.599358,2.34985822 183.119385,1.40991211 C184.639412,0.469966003 186.376943,0 188.332031,0 C190.287119,0 192.024651,0.469966003 193.544678,1.40991211 C195.064705,2.34985822 196.240963,3.69798927 197.073486,5.4543457 C197.90601,7.21070214 198.322266,9.23826976 198.322266,11.5371094 L198.322266,12.5844727 Z M193.423828,11.5209961 C193.423828,9.06102286 192.983403,7.19190092 192.102539,5.91357422 C191.221675,4.63524751 189.964852,3.99609375 188.332031,3.99609375 C186.709953,3.99609375 185.4585,4.62719095 184.577637,5.8894043 C183.696773,7.15161764 183.250977,9.00194093 183.240234,11.4404297 L183.240234,12.5844727 C183.240234,14.9799924 183.68066,16.8383723 184.561523,18.159668 C185.442387,19.4809636 186.709953,20.1416016 188.364258,20.1416016 C189.986336,20.1416016 191.232418,19.5051333 192.102539,18.2321777 C192.972661,16.9592222 193.413086,15.1035278 193.423828,12.6650391 L193.423828,11.5209961 Z M210.503906,17.9663086 L215.821289,0.322265625 L221.203125,0.322265625 L213.033691,23.7832031 L207.990234,23.7832031 L199.853027,0.322265625 L205.21875,0.322265625 L210.503906,17.9663086 Z M228.550781,23.7832031 L223.716797,23.7832031 L223.716797,0.322265625 L228.550781,0.322265625 L228.550781,23.7832031 Z M252.108398,23.7832031 L247.274414,23.7832031 L237.864258,8.34667969 L237.864258,23.7832031 L233.030273,23.7832031 L233.030273,0.322265625 L237.864258,0.322265625 L247.290527,15.7910156 L247.290527,0.322265625 L252.108398,0.322265625 L252.108398,23.7832031 Z M274.892578,20.8183594 C274.022457,21.8603568 272.792488,22.6686983 271.202637,23.2434082 C269.612785,23.8181181 267.851084,24.1054688 265.91748,24.1054688 C263.887197,24.1054688 262.106697,23.6623579 260.575928,22.776123 C259.045158,21.8898881 257.86353,20.6035241 257.031006,18.9169922 C256.198482,17.2304603 255.771484,15.2485465 255.75,12.9711914 L255.75,11.3759766 C255.75,9.03416798 256.144771,7.00660036 256.934326,5.29321289 C257.723881,3.57982542 258.862541,2.26929165 260.350342,1.36157227 C261.838142,0.453852883 263.581045,0 265.579102,0 C268.361342,0 270.536613,0.663323445 272.10498,1.98999023 C273.673348,3.31665702 274.602538,5.24754592 274.892578,7.78271484 L270.1875,7.78271484 C269.972655,6.43993469 269.497318,5.45703437 268.761475,4.83398438 C268.025631,4.21093438 267.01319,3.89941406 265.724121,3.89941406 C264.080558,3.89941406 262.829106,4.51708367 261.969727,5.75244141 C261.110347,6.98779915 260.675293,8.82469484 260.664551,11.2631836 L260.664551,12.7617188 C260.664551,15.221692 261.131831,17.0800718 262.066406,18.3369141 C263.000981,19.5937563 264.370596,20.222168 266.175293,20.222168 C267.990732,20.222168 269.285152,19.8354531 270.058594,19.0620117 L270.058594,15.0175781 L265.659668,15.0175781 L265.659668,11.456543 L274.892578,11.456543 L274.892578,20.8183594 Z M300.270996,18.9492188 L291.79541,18.9492188 L290.184082,23.7832031 L285.043945,23.7832031 L293.777344,0.322265625 L298.256836,0.322265625 L307.038574,23.7832031 L301.898438,23.7832031 L300.270996,18.9492188 Z M293.100586,15.0336914 L298.96582,15.0336914 L296.01709,6.25195312 L293.100586,15.0336914 Z M328.308105,23.7832031 L323.474121,23.7832031 L314.063965,8.34667969 L314.063965,23.7832031 L309.22998,23.7832031 L309.22998,0.322265625 L314.063965,0.322265625 L323.490234,15.7910156 L323.490234,0.322265625 L328.308105,0.322265625 L328.308105,23.7832031 Z M345.887695,23.7832031 L341.053711,23.7832031 L341.053711,0.322265625 L345.887695,0.322265625 L345.887695,23.7832031 Z M368.027344,4.23779297 L360.84082,4.23779297 L360.84082,23.7832031 L356.006836,23.7832031 L356.006836,4.23779297 L348.916992,4.23779297 L348.916992,0.322265625 L368.027344,0.322265625 L368.027344,4.23779297 Z M384.897949,13.6157227 L375.616699,13.6157227 L375.616699,19.8999023 L386.509277,19.8999023 L386.509277,23.7832031 L370.782715,23.7832031 L370.782715,0.322265625 L386.477051,0.322265625 L386.477051,4.23779297 L375.616699,4.23779297 L375.616699,9.82910156 L384.897949,9.82910156 L384.897949,13.6157227 Z M395.661621,0.322265625 L401.687988,17.3378906 L407.682129,0.322265625 L414.030762,0.322265625 L414.030762,23.7832031 L409.180664,23.7832031 L409.180664,17.3701172 L409.664062,6.30029297 L403.331543,23.7832031 L400.012207,23.7832031 L393.695801,6.31640625 L394.179199,17.3701172 L394.179199,23.7832031 L389.345215,23.7832031 L389.345215,0.322265625 L395.661621,0.322265625 Z M434.559082,10.8925781 L439.441406,0.322265625 L444.726562,0.322265625 L437.024414,15.2753906 L437.024414,23.7832031 L432.109863,23.7832031 L432.109863,15.2753906 L424.407715,0.322265625 L429.708984,0.322265625 L434.559082,10.8925781 Z M466.141113,12.5844727 C466.141113,14.8940545 465.732914,16.9189366 464.916504,18.6591797 C464.100094,20.3994228 462.931892,21.7421828 461.411865,22.6875 C459.891838,23.6328172 458.148936,24.1054688 456.183105,24.1054688 C454.23876,24.1054688 452.503914,23.6381883 450.978516,22.7036133 C449.453117,21.7690383 448.271489,20.4343348 447.433594,18.6994629 C446.595699,16.9645909 446.171387,14.9692496 446.160645,12.7133789 L446.160645,11.5532227 C446.160645,9.2436408 446.5769,7.21070214 447.409424,5.4543457 C448.241948,3.69798927 449.418205,2.34985822 450.938232,1.40991211 C452.45826,0.469966003 454.195791,0 456.150879,0 C458.105967,0 459.843498,0.469966003 461.363525,1.40991211 C462.883553,2.34985822 464.05981,3.69798927 464.892334,5.4543457 C465.724858,7.21070214 466.141113,9.23826976 466.141113,11.5371094 L466.141113,12.5844727 Z M461.242676,11.5209961 C461.242676,9.06102286 460.80225,7.19190092 459.921387,5.91357422 C459.040523,4.63524751 457.7837,3.99609375 456.150879,3.99609375 C454.5288,3.99609375 453.277348,4.62719095 452.396484,5.8894043 C451.515621,7.15161764 451.069824,9.00194093 451.059082,11.4404297 L451.059082,12.5844727 C451.059082,14.9799924 451.499507,16.8383723 452.380371,18.159668 C453.261235,19.4809636 454.5288,20.1416016 456.183105,20.1416016 C457.805184,20.1416016 459.051265,19.5051333 459.921387,18.2321777 C460.791508,16.9592222 461.231934,15.1035278 461.242676,12.6650391 L461.242676,11.5209961 Z M487.410645,0.322265625 L487.410645,15.7749023 C487.410645,18.342298 486.607674,20.3725511 485.001709,21.8657227 C483.395744,23.3588942 481.201674,24.1054688 478.419434,24.1054688 C475.680162,24.1054688 473.504891,23.3803783 471.893555,21.9301758 C470.282219,20.4799732 469.460449,18.4873174 469.428223,15.9521484 L469.428223,0.322265625 L474.262207,0.322265625 L474.262207,15.8071289 C474.262207,17.3432694 474.630123,18.4631312 475.365967,19.166748 C476.10181,19.8703648 477.119622,20.222168 478.419434,20.222168 C481.137221,20.222168 482.517578,18.7934713 482.560547,15.9360352 L482.560547,0.322265625 L487.410645,0.322265625 Z M54.1003418,62.7832031 L49.2663574,62.7832031 L49.2663574,52.7285156 L39.8400879,52.7285156 L39.8400879,62.7832031 L35.0061035,62.7832031 L35.0061035,39.3222656 L39.8400879,39.3222656 L39.8400879,48.8291016 L49.2663574,48.8291016 L49.2663574,39.3222656 L54.1003418,39.3222656 L54.1003418,62.7832031 Z M71.5671387,57.9492188 L63.0915527,57.9492188 L61.4802246,62.7832031 L56.3400879,62.7832031 L65.0734863,39.3222656 L69.5529785,39.3222656 L78.3347168,62.7832031 L73.1945801,62.7832031 L71.5671387,57.9492188 Z M64.3967285,54.0336914 L70.2619629,54.0336914 L67.3132324,45.2519531 L64.3967285,54.0336914 Z M89.1950684,56.9663086 L94.5124512,39.3222656 L99.8942871,39.3222656 L91.7248535,62.7832031 L86.6813965,62.7832031 L78.5441895,39.3222656 L83.9099121,39.3222656 L89.1950684,56.9663086 Z M116.217041,52.6157227 L106.935791,52.6157227 L106.935791,58.8999023 L117.828369,58.8999023 L117.828369,62.7832031 L102.101807,62.7832031 L102.101807,39.3222656 L117.796143,39.3222656 L117.796143,43.237793 L106.935791,43.237793 L106.935791,48.8291016 L116.217041,48.8291016 L116.217041,52.6157227 Z M146.638916,39.3222656 L146.638916,54.7749023 C146.638916,57.342298 145.835946,59.3725511 144.22998,60.8657227 C142.624015,62.3588942 140.429946,63.1054688 137.647705,63.1054688 C134.908434,63.1054688 132.733162,62.3803783 131.121826,60.9301758 C129.51049,59.4799732 128.688721,57.4873174 128.656494,54.9521484 L128.656494,39.3222656 L133.490479,39.3222656 L133.490479,54.8071289 C133.490479,56.3432694 133.858395,57.4631312 134.594238,58.166748 C135.330082,58.8703648 136.347894,59.222168 137.647705,59.222168 C140.365492,59.222168 141.745849,57.7934713 141.788818,54.9360352 L141.788818,39.3222656 L146.638916,39.3222656 Z M155.436768,54.5170898 L155.436768,62.7832031 L150.602783,62.7832031 L150.602783,39.3222656 L159.755127,39.3222656 C161.516855,39.3222656 163.0664,39.644528 164.403809,40.2890625 C165.741218,40.933597 166.769772,41.8493593 167.489502,43.036377 C168.209232,44.2233946 168.569092,45.5742112 168.569092,47.0888672 C168.569092,49.3877068 167.782234,51.2004328 166.208496,52.5270996 C164.634758,53.8537664 162.456801,54.5170898 159.674561,54.5170898 L155.436768,54.5170898 Z M155.436768,50.6015625 L159.755127,50.6015625 C161.033454,50.6015625 162.008297,50.3007843 162.679688,49.6992188 C163.351078,49.0976532 163.686768,48.2382868 163.686768,47.1210938 C163.686768,45.9716739 163.348392,45.042484 162.671631,44.3334961 C161.99487,43.6245082 161.060309,43.2592775 159.86792,43.237793 L155.436768,43.237793 L155.436768,50.6015625 Z M197.766357,43.237793 L190.579834,43.237793 L190.579834,62.7832031 L185.74585,62.7832031 L185.74585,43.237793 L178.656006,43.237793 L178.656006,39.3222656 L197.766357,39.3222656 L197.766357,43.237793 Z M219.793213,51.5844727 C219.793213,53.8940545 219.385014,55.9189366 218.568604,57.6591797 C217.752193,59.3994228 216.583992,60.7421828 215.063965,61.6875 C213.543938,62.6328172 211.801035,63.1054688 209.835205,63.1054688 C207.890859,63.1054688 206.156013,62.6381883 204.630615,61.7036133 C203.105217,60.7690383 201.923588,59.4343348 201.085693,57.6994629 C200.247799,55.9645909 199.823486,53.9692496 199.812744,51.7133789 L199.812744,50.5532227 C199.812744,48.2436408 200.229,46.2107021 201.061523,44.4543457 C201.894047,42.6979893 203.070305,41.3498582 204.590332,40.4099121 C206.110359,39.469966 207.847891,39 209.802979,39 C211.758066,39 213.495598,39.469966 215.015625,40.4099121 C216.535652,41.3498582 217.71191,42.6979893 218.544434,44.4543457 C219.376957,46.2107021 219.793213,48.2382698 219.793213,50.5371094 L219.793213,51.5844727 Z M214.894775,50.5209961 C214.894775,48.0610229 214.45435,46.1919009 213.573486,44.9135742 C212.692623,43.6352475 211.435799,42.9960938 209.802979,42.9960938 C208.1809,42.9960938 206.929448,43.627191 206.048584,44.8894043 C205.16772,46.1516176 204.721924,48.0019409 204.711182,50.4404297 L204.711182,51.5844727 C204.711182,53.9799924 205.151607,55.8383723 206.032471,57.159668 C206.913334,58.4809636 208.1809,59.1416016 209.835205,59.1416016 C211.457284,59.1416016 212.703365,58.5051333 213.573486,57.2321777 C214.443608,55.9592222 214.884033,54.1035278 214.894775,51.6650391 L214.894775,50.5209961 Z M231.717041,51.2460938 L233.070557,39.3222656 L246.218994,39.3222656 L246.218994,43.2055664 L236.889404,43.2055664 L236.309326,48.2490234 C237.415777,47.6582002 238.592035,47.362793 239.838135,47.362793 C242.072521,47.362793 243.82348,48.0556571 245.091064,49.4414062 C246.358649,50.8271554 246.992432,52.7661008 246.992432,55.2583008 C246.992432,56.7729568 246.672855,58.1291444 246.033691,59.3269043 C245.394528,60.5246642 244.478766,61.4538541 243.286377,62.114502 C242.093988,62.7751498 240.686776,63.1054688 239.064697,63.1054688 C237.646721,63.1054688 236.330817,62.8181181 235.116943,62.2434082 C233.90307,61.6686983 232.944339,60.8603568 232.240723,59.8183594 C231.537106,58.776362 231.163819,57.5893621 231.12085,56.2573242 L235.729248,56.2573242 C235.825928,57.2348682 236.166989,57.9948703 236.752441,58.5373535 C237.337894,59.0798367 238.103267,59.3510742 239.048584,59.3510742 C240.101324,59.3510742 240.912351,58.9724159 241.481689,58.2150879 C242.051028,57.4577599 242.335693,56.3862374 242.335693,55.0004883 C242.335693,53.6684504 242.00806,52.6479528 241.352783,51.9389648 C240.697506,51.2299769 239.768317,50.8754883 238.565186,50.8754883 C237.458735,50.8754883 236.561771,51.1655244 235.874268,51.7456055 L235.423096,52.1645508 L231.717041,51.2460938 Z M270.840088,56.6279297 C270.840088,55.7148392 270.517825,55.0139185 269.873291,54.5251465 C269.228757,54.0363745 268.068612,53.5207547 266.392822,52.9782715 C264.717033,52.4357883 263.390386,51.9013698 262.412842,51.375 C259.748766,49.9355397 258.416748,47.9965942 258.416748,45.5581055 C258.416748,44.290521 258.773922,43.1599171 259.488281,42.1662598 C260.20264,41.1726025 261.228509,40.3964872 262.565918,39.8378906 C263.903327,39.2792941 265.404533,39 267.06958,39 C268.74537,39 270.238519,39.3034638 271.549072,39.9104004 C272.859626,40.517337 273.877438,41.3740179 274.602539,42.4804688 C275.32764,43.5869196 275.690186,44.843743 275.690186,46.2509766 L270.856201,46.2509766 C270.856201,45.1767524 270.517826,44.3415557 269.841064,43.7453613 C269.164303,43.1491669 268.213629,42.8510742 266.989014,42.8510742 C265.807367,42.8510742 264.888919,43.1008276 264.233643,43.6003418 C263.578366,44.099856 263.250732,44.7578084 263.250732,45.5742188 C263.250732,46.3369179 263.634762,46.9760716 264.402832,47.4916992 C265.170902,48.0073268 266.301506,48.4907204 267.794678,48.9418945 C270.544691,49.7690471 272.548089,50.7949158 273.804932,52.0195312 C275.061774,53.2441467 275.690186,54.7695221 275.690186,56.5957031 C275.690186,58.6259867 274.922127,60.2185001 273.385986,61.373291 C271.849846,62.5280819 269.781995,63.1054688 267.182373,63.1054688 C265.377677,63.1054688 263.734138,62.7751498 262.251709,62.114502 C260.76928,61.4538541 259.638676,60.5488339 258.859863,59.3994141 C258.081051,58.2499943 257.69165,56.9179763 257.69165,55.4033203 L262.541748,55.4033203 C262.541748,57.9922004 264.088608,59.2866211 267.182373,59.2866211 C268.331793,59.2866211 269.228757,59.0529809 269.873291,58.5856934 C270.517825,58.1184059 270.840088,57.4658245 270.840088,56.6279297 Z M293.076416,52.6157227 L283.795166,52.6157227 L283.795166,58.8999023 L294.687744,58.8999023 L294.687744,62.7832031 L278.961182,62.7832031 L278.961182,39.3222656 L294.655518,39.3222656 L294.655518,43.237793 L283.795166,43.237793 L283.795166,48.8291016 L293.076416,48.8291016 L293.076416,52.6157227 Z M315.941162,54.9682617 C315.758544,57.4926884 314.826669,59.4799732 313.145508,60.9301758 C311.464347,62.3803783 309.248793,63.1054688 306.498779,63.1054688 C303.490952,63.1054688 301.125009,62.0930277 299.400879,60.0681152 C297.676749,58.0432028 296.814697,55.2636895 296.814697,51.7294922 L296.814697,50.2954102 C296.814697,48.0395395 297.212154,46.0522547 298.00708,44.3334961 C298.802006,42.6147375 299.937981,41.2961472 301.415039,40.3776855 C302.892097,39.4592239 304.608145,39 306.563232,39 C309.270277,39 311.450919,39.7250904 313.105225,41.175293 C314.75953,42.6254955 315.715575,44.6611197 315.973389,47.2822266 L311.139404,47.2822266 C311.02124,45.7675706 310.599613,44.6691929 309.874512,43.9870605 C309.14941,43.3049282 308.045662,42.9638672 306.563232,42.9638672 C304.951896,42.9638672 303.746098,43.541254 302.945801,44.6960449 C302.145504,45.8508359 301.734619,47.6420777 301.713135,50.0698242 L301.713135,51.8422852 C301.713135,54.3774541 302.097164,56.2304629 302.865234,57.4013672 C303.633305,58.5722715 304.844474,59.1577148 306.498779,59.1577148 C307.991951,59.1577148 309.106442,58.8166538 309.842285,58.1345215 C310.578129,57.4523892 310.999755,56.3969798 311.107178,54.9682617 L315.941162,54.9682617 Z M338.386963,51.5844727 C338.386963,53.8940545 337.978764,55.9189366 337.162354,57.6591797 C336.345943,59.3994228 335.177742,60.7421828 333.657715,61.6875 C332.137688,62.6328172 330.394785,63.1054688 328.428955,63.1054688 C326.484609,63.1054688 324.749763,62.6381883 323.224365,61.7036133 C321.698967,60.7690383 320.517338,59.4343348 319.679443,57.6994629 C318.841549,55.9645909 318.417236,53.9692496 318.406494,51.7133789 L318.406494,50.5532227 C318.406494,48.2436408 318.82275,46.2107021 319.655273,44.4543457 C320.487797,42.6979893 321.664055,41.3498582 323.184082,40.4099121 C324.704109,39.469966 326.441641,39 328.396729,39 C330.351816,39 332.089348,39.469966 333.609375,40.4099121 C335.129402,41.3498582 336.30566,42.6979893 337.138184,44.4543457 C337.970707,46.2107021 338.386963,48.2382698 338.386963,50.5371094 L338.386963,51.5844727 Z M333.488525,50.5209961 C333.488525,48.0610229 333.0481,46.1919009 332.167236,44.9135742 C331.286373,43.6352475 330.029549,42.9960938 328.396729,42.9960938 C326.77465,42.9960938 325.523198,43.627191 324.642334,44.8894043 C323.76147,46.1516176 323.315674,48.0019409 323.304932,50.4404297 L323.304932,51.5844727 C323.304932,53.9799924 323.745357,55.8383723 324.626221,57.159668 C325.507084,58.4809636 326.77465,59.1416016 328.428955,59.1416016 C330.051034,59.1416016 331.297115,58.5051333 332.167236,57.2321777 C333.037358,55.9592222 333.477783,54.1035278 333.488525,51.6650391 L333.488525,50.5209961 Z M360.977783,62.7832031 L356.143799,62.7832031 L346.733643,47.3466797 L346.733643,62.7832031 L341.899658,62.7832031 L341.899658,39.3222656 L346.733643,39.3222656 L356.159912,54.7910156 L356.159912,39.3222656 L360.977783,39.3222656 L360.977783,62.7832031 Z M365.199463,62.7832031 L365.199463,39.3222656 L372.418213,39.3222656 C374.480723,39.3222656 376.325675,39.7868606 377.953125,40.7160645 C379.580575,41.6452683 380.850826,42.9665442 381.763916,44.6799316 C382.677007,46.3933191 383.133545,48.3403211 383.133545,50.5209961 L383.133545,51.6005859 C383.133545,53.7812609 382.685063,55.7202064 381.788086,57.4174805 C380.891109,59.1147546 379.626229,60.4306594 377.993408,61.3652344 C376.360588,62.2998094 374.518321,62.7724609 372.466553,62.7832031 L365.199463,62.7832031 Z M370.033447,43.237793 L370.033447,58.8999023 L372.369873,58.8999023 C374.260508,58.8999023 375.705317,58.2822327 376.704346,57.046875 C377.703374,55.8115173 378.213623,54.0444451 378.235107,51.7456055 L378.235107,50.5048828 C378.235107,48.1201053 377.740972,46.3127503 376.752686,45.0827637 C375.764399,43.8527771 374.31959,43.237793 372.418213,43.237793 L370.033447,43.237793 Z M398.811768,56.6279297 C398.811768,55.7148392 398.489505,55.0139185 397.844971,54.5251465 C397.200436,54.0363745 396.040292,53.5207547 394.364502,52.9782715 C392.688712,52.4357883 391.362065,51.9013698 390.384521,51.375 C387.720446,49.9355397 386.388428,47.9965942 386.388428,45.5581055 C386.388428,44.290521 386.745602,43.1599171 387.459961,42.1662598 C388.17432,41.1726025 389.200189,40.3964872 390.537598,39.8378906 C391.875007,39.2792941 393.376212,39 395.04126,39 C396.717049,39 398.210199,39.3034638 399.520752,39.9104004 C400.831305,40.517337 401.849117,41.3740179 402.574219,42.4804688 C403.29932,43.5869196 403.661865,44.843743 403.661865,46.2509766 L398.827881,46.2509766 C398.827881,45.1767524 398.489505,44.3415557 397.812744,43.7453613 C397.135983,43.1491669 396.185309,42.8510742 394.960693,42.8510742 C393.779047,42.8510742 392.860599,43.1008276 392.205322,43.6003418 C391.550046,44.099856 391.222412,44.7578084 391.222412,45.5742188 C391.222412,46.3369179 391.606441,46.9760716 392.374512,47.4916992 C393.142582,48.0073268 394.273186,48.4907204 395.766357,48.9418945 C398.516371,49.7690471 400.519769,50.7949158 401.776611,52.0195312 C403.033454,53.2441467 403.661865,54.7695221 403.661865,56.5957031 C403.661865,58.6259867 402.893807,60.2185001 401.357666,61.373291 C399.821526,62.5280819 397.753675,63.1054688 395.154053,63.1054688 C393.349356,63.1054688 391.705818,62.7751498 390.223389,62.114502 C388.740959,61.4538541 387.610355,60.5488339 386.831543,59.3994141 C386.05273,58.2499943 385.66333,56.9179763 385.66333,55.4033203 L390.513428,55.4033203 C390.513428,57.9922004 392.060287,59.2866211 395.154053,59.2866211 C396.303473,59.2866211 397.200436,59.0529809 397.844971,58.5856934 C398.489505,58.1184059 398.811768,57.4658245 398.811768,56.6279297 Z M432.810791,43.237793 L425.624268,43.237793 L425.624268,62.7832031 L420.790283,62.7832031 L420.790283,43.237793 L413.700439,43.237793 L413.700439,39.3222656 L432.810791,39.3222656 L432.810791,43.237793 Z M454.837646,51.5844727 C454.837646,53.8940545 454.429447,55.9189366 453.613037,57.6591797 C452.796627,59.3994228 451.628426,60.7421828 450.108398,61.6875 C448.588371,62.6328172 446.845469,63.1054688 444.879639,63.1054688 C442.935293,63.1054688 441.200447,62.6381883 439.675049,61.7036133 C438.149651,60.7690383 436.968022,59.4343348 436.130127,57.6994629 C435.292232,55.9645909 434.86792,53.9692496 434.857178,51.7133789 L434.857178,50.5532227 C434.857178,48.2436408 435.273433,46.2107021 436.105957,44.4543457 C436.938481,42.6979893 438.114738,41.3498582 439.634766,40.4099121 C441.154793,39.469966 442.892324,39 444.847412,39 C446.8025,39 448.540031,39.469966 450.060059,40.4099121 C451.580086,41.3498582 452.756343,42.6979893 453.588867,44.4543457 C454.421391,46.2107021 454.837646,48.2382698 454.837646,50.5371094 L454.837646,51.5844727 Z M449.939209,50.5209961 C449.939209,48.0610229 449.498784,46.1919009 448.61792,44.9135742 C447.737056,43.6352475 446.480233,42.9960938 444.847412,42.9960938 C443.225334,42.9960938 441.973881,43.627191 441.093018,44.8894043 C440.212154,46.1516176 439.766357,48.0019409 439.755615,50.4404297 L439.755615,51.5844727 C439.755615,53.9799924 440.196041,55.8383723 441.076904,57.159668 C441.957768,58.4809636 443.225334,59.1416016 444.879639,59.1416016 C446.501717,59.1416016 447.747798,58.5051333 448.61792,57.2321777 C449.488041,55.9592222 449.928467,54.1035278 449.939209,51.6650391 L449.939209,50.5209961 Z M34.4501953,82.237793 L27.2636719,82.237793 L27.2636719,101.783203 L22.4296875,101.783203 L22.4296875,82.237793 L15.3398438,82.237793 L15.3398438,78.3222656 L34.4501953,78.3222656 L34.4501953,82.237793 Z M50.4506836,96.9492188 L41.9750977,96.9492188 L40.3637695,101.783203 L35.2236328,101.783203 L43.9570312,78.3222656 L48.4365234,78.3222656 L57.2182617,101.783203 L52.078125,101.783203 L50.4506836,96.9492188 Z M43.2802734,93.0336914 L49.1455078,93.0336914 L46.1967773,84.2519531 L43.2802734,93.0336914 Z M64.2436523,93.5170898 L64.2436523,101.783203 L59.409668,101.783203 L59.409668,78.3222656 L68.5620117,78.3222656 C70.3237393,78.3222656 71.8732843,78.644528 73.2106934,79.2890625 C74.5481024,79.933597 75.5766566,80.8493593 76.2963867,82.036377 C77.0161169,83.2233946 77.3759766,84.5742112 77.3759766,86.0888672 C77.3759766,88.3877068 76.5891192,90.2004328 75.0153809,91.5270996 C73.4416425,92.8537664 71.2636858,93.5170898 68.4814453,93.5170898 L64.2436523,93.5170898 Z M64.2436523,89.6015625 L68.5620117,89.6015625 C69.8403384,89.6015625 70.8151822,89.3007843 71.4865723,88.6992188 C72.1579623,88.0976532 72.4936523,87.2382868 72.4936523,86.1210938 C72.4936523,84.9716739 72.1552768,84.042484 71.4785156,83.3334961 C70.8017544,82.6245082 69.8671935,82.2592775 68.6748047,82.237793 L64.2436523,82.237793 L64.2436523,89.6015625 Z" id="AFTERREMOVINGANITEMYOUHAVEUPTO5SECONDSTOTAP" fill="#000000"></path>
            <path d="M106.669922,78.3222656 L106.669922,93.7749023 C106.669922,96.342298 105.866951,98.3725511 104.260986,99.8657227 C102.655021,101.358894 100.460951,102.105469 97.6787109,102.105469 C94.9394394,102.105469 92.7641682,101.380378 91.152832,99.9301758 C89.5414958,98.4799732 88.7197267,96.4873174 88.6875,93.9521484 L88.6875,78.3222656 L93.5214844,78.3222656 L93.5214844,93.8071289 C93.5214844,95.3432694 93.8894006,96.4631312 94.6252441,97.166748 C95.3610877,97.8703648 96.3788998,98.222168 97.6787109,98.222168 C100.396498,98.222168 101.776855,96.7934713 101.819824,93.9360352 L101.819824,78.3222656 L106.669922,78.3222656 Z M129.711914,101.783203 L124.87793,101.783203 L115.467773,86.3466797 L115.467773,101.783203 L110.633789,101.783203 L110.633789,78.3222656 L115.467773,78.3222656 L124.894043,93.7910156 L124.894043,78.3222656 L129.711914,78.3222656 L129.711914,101.783203 Z M133.933594,101.783203 L133.933594,78.3222656 L141.152344,78.3222656 C143.214854,78.3222656 145.059806,78.7868606 146.687256,79.7160645 C148.314705,80.6452683 149.584956,81.9665442 150.498047,83.6799316 C151.411137,85.3933191 151.867676,87.3403211 151.867676,89.5209961 L151.867676,90.6005859 C151.867676,92.7812609 151.419194,94.7202064 150.522217,96.4174805 C149.62524,98.1147546 148.36036,99.4306594 146.727539,100.365234 C145.094718,101.299809 143.252452,101.772461 141.200684,101.783203 L133.933594,101.783203 Z M138.767578,82.237793 L138.767578,97.8999023 L141.104004,97.8999023 C142.994638,97.8999023 144.439448,97.2822327 145.438477,96.046875 C146.437505,94.8115173 146.947754,93.0444451 146.969238,90.7456055 L146.969238,89.5048828 C146.969238,87.1201053 146.475103,85.3127503 145.486816,84.0827637 C144.49853,82.8527771 143.05372,82.237793 141.152344,82.237793 L138.767578,82.237793 Z M174.651855,90.5844727 C174.651855,92.8940545 174.243656,94.9189366 173.427246,96.6591797 C172.610836,98.3994228 171.442635,99.7421828 169.922607,100.6875 C168.40258,101.632817 166.659678,102.105469 164.693848,102.105469 C162.749502,102.105469 161.014656,101.638188 159.489258,100.703613 C157.96386,99.7690383 156.782231,98.4343348 155.944336,96.6994629 C155.106441,94.9645909 154.682129,92.9692496 154.671387,90.7133789 L154.671387,89.5532227 C154.671387,87.2436408 155.087642,85.2107021 155.920166,83.4543457 C156.75269,81.6979893 157.928947,80.3498582 159.448975,79.4099121 C160.969002,78.469966 162.706533,78 164.661621,78 C166.616709,78 168.35424,78.469966 169.874268,79.4099121 C171.394295,80.3498582 172.570552,81.6979893 173.403076,83.4543457 C174.2356,85.2107021 174.651855,87.2382698 174.651855,89.5371094 L174.651855,90.5844727 Z M169.753418,89.5209961 C169.753418,87.0610229 169.312993,85.1919009 168.432129,83.9135742 C167.551265,82.6352475 166.294442,81.9960938 164.661621,81.9960938 C163.039543,81.9960938 161.78809,82.627191 160.907227,83.8894043 C160.026363,85.1516176 159.580566,87.0019409 159.569824,89.4404297 L159.569824,90.5844727 C159.569824,92.9799924 160.01025,94.8383723 160.891113,96.159668 C161.771977,97.4809636 163.039543,98.1416016 164.693848,98.1416016 C166.315926,98.1416016 167.562007,97.5051333 168.432129,96.2321777 C169.30225,94.9592222 169.742676,93.1035278 169.753418,90.6650391 L169.753418,89.5209961 Z" id="UNDO" fill="#DC0B41"></path>
            <path d="M204.04248,82.237793 L196.855957,82.237793 L196.855957,101.783203 L192.021973,101.783203 L192.021973,82.237793 L184.932129,82.237793 L184.932129,78.3222656 L204.04248,78.3222656 L204.04248,82.237793 Z M226.069336,90.5844727 C226.069336,92.8940545 225.661137,94.9189366 224.844727,96.6591797 C224.028316,98.3994228 222.860115,99.7421828 221.340088,100.6875 C219.820061,101.632817 218.077158,102.105469 216.111328,102.105469 C214.166982,102.105469 212.432137,101.638188 210.906738,100.703613 C209.38134,99.7690383 208.199711,98.4343348 207.361816,96.6994629 C206.523922,94.9645909 206.099609,92.9692496 206.088867,90.7133789 L206.088867,89.5532227 C206.088867,87.2436408 206.505123,85.2107021 207.337646,83.4543457 C208.17017,81.6979893 209.346428,80.3498582 210.866455,79.4099121 C212.386482,78.469966 214.124014,78 216.079102,78 C218.034189,78 219.771721,78.469966 221.291748,79.4099121 C222.811775,80.3498582 223.988033,81.6979893 224.820557,83.4543457 C225.65308,85.2107021 226.069336,87.2382698 226.069336,89.5371094 L226.069336,90.5844727 Z M221.170898,89.5209961 C221.170898,87.0610229 220.730473,85.1919009 219.849609,83.9135742 C218.968746,82.6352475 217.711922,81.9960938 216.079102,81.9960938 C214.457023,81.9960938 213.205571,82.627191 212.324707,83.8894043 C211.443843,85.1516176 210.998047,87.0019409 210.987305,89.4404297 L210.987305,90.5844727 C210.987305,92.9799924 211.42773,94.8383723 212.308594,96.159668 C213.189458,97.4809636 214.457023,98.1416016 216.111328,98.1416016 C217.733407,98.1416016 218.979488,97.5051333 219.849609,96.2321777 C220.719731,94.9592222 221.160156,93.1035278 221.170898,90.6650391 L221.170898,89.5209961 Z M237.799805,101.783203 L237.799805,78.3222656 L246.017578,78.3222656 C248.864272,78.3222656 251.02343,78.8674262 252.495117,79.9577637 C253.966804,81.0481012 254.702637,82.6459856 254.702637,84.7514648 C254.702637,85.9008847 254.40723,86.9133257 253.816406,87.7888184 C253.225583,88.664311 252.403814,89.3061503 251.351074,89.7143555 C252.554205,90.0151382 253.502194,90.6220657 254.195068,91.5351562 C254.887943,92.4482468 255.234375,93.5654231 255.234375,94.8867188 C255.234375,97.1425894 254.514656,98.8505801 253.075195,100.010742 C251.635735,101.170904 249.583998,101.761719 246.919922,101.783203 L237.799805,101.783203 Z M242.633789,91.5673828 L242.633789,97.8999023 L246.774902,97.8999023 C247.91358,97.8999023 248.802487,97.6286648 249.44165,97.0861816 C250.080814,96.5436985 250.400391,95.7944384 250.400391,94.8383789 C250.400391,92.6899307 249.288585,91.5996095 247.064941,91.5673828 L242.633789,91.5673828 Z M242.633789,88.1513672 L246.210938,88.1513672 C248.649426,88.1083982 249.868652,87.13624 249.868652,85.2348633 C249.868652,84.1713814 249.559818,83.4060082 248.942139,82.9387207 C248.32446,82.4714332 247.349616,82.237793 246.017578,82.237793 L242.633789,82.237793 L242.633789,88.1513672 Z M267.544922,93.1948242 L263.693848,93.1948242 L263.693848,101.783203 L258.859863,101.783203 L258.859863,78.3222656 L267.577148,78.3222656 C270.348647,78.3222656 272.486321,78.9399352 273.990234,80.175293 C275.494148,81.4106507 276.246094,83.1562387 276.246094,85.4121094 C276.246094,87.0127033 275.899662,88.3474068 275.206787,89.4162598 C274.513913,90.4851128 273.463874,91.3364226 272.056641,91.9702148 L277.132324,101.557617 L277.132324,101.783203 L271.943848,101.783203 L267.544922,93.1948242 Z M263.693848,89.2792969 L267.593262,89.2792969 C268.807135,89.2792969 269.747067,88.9704621 270.413086,88.3527832 C271.079105,87.7351043 271.412109,86.8837945 271.412109,85.7988281 C271.412109,84.6923773 271.097904,83.8222688 270.469482,83.1884766 C269.841061,82.5546843 268.87696,82.237793 267.577148,82.237793 L263.693848,82.237793 L263.693848,89.2792969 Z M285.060059,101.783203 L280.226074,101.783203 L280.226074,78.3222656 L285.060059,78.3222656 L285.060059,101.783203 Z M308.617676,101.783203 L303.783691,101.783203 L294.373535,86.3466797 L294.373535,101.783203 L289.539551,101.783203 L289.539551,78.3222656 L294.373535,78.3222656 L303.799805,93.7910156 L303.799805,78.3222656 L308.617676,78.3222656 L308.617676,101.783203 Z M331.401855,98.8183594 C330.531734,99.8603568 329.301766,100.668698 327.711914,101.243408 C326.122062,101.818118 324.360361,102.105469 322.426758,102.105469 C320.396474,102.105469 318.615974,101.662358 317.085205,100.776123 C315.554436,99.8898881 314.372807,98.6035241 313.540283,96.9169922 C312.70776,95.2304603 312.280762,93.2485465 312.259277,90.9711914 L312.259277,89.3759766 C312.259277,87.034168 312.654049,85.0066004 313.443604,83.2932129 C314.233158,81.5798254 315.371819,80.2692916 316.859619,79.3615723 C318.34742,78.4538529 320.090322,78 322.088379,78 C324.870619,78 327.045891,78.6633234 328.614258,79.9899902 C330.182625,81.316657 331.111815,83.2475459 331.401855,85.7827148 L326.696777,85.7827148 C326.481933,84.4399347 326.006595,83.4570344 325.270752,82.8339844 C324.534908,82.2109344 323.522467,81.8994141 322.233398,81.8994141 C320.589836,81.8994141 319.338383,82.5170837 318.479004,83.7524414 C317.619625,84.9877991 317.18457,86.8246948 317.173828,89.2631836 L317.173828,90.7617188 C317.173828,93.221692 317.641109,95.0800718 318.575684,96.3369141 C319.510259,97.5937563 320.879874,98.222168 322.68457,98.222168 C324.500009,98.222168 325.79443,97.8354531 326.567871,97.0620117 L326.567871,93.0175781 L322.168945,93.0175781 L322.168945,89.456543 L331.401855,89.456543 L331.401855,98.8183594 Z M348.675293,101.783203 L343.841309,101.783203 L343.841309,78.3222656 L348.675293,78.3222656 L348.675293,101.783203 Z M370.814941,82.237793 L363.628418,82.237793 L363.628418,101.783203 L358.794434,101.783203 L358.794434,82.237793 L351.70459,82.237793 L351.70459,78.3222656 L370.814941,78.3222656 L370.814941,82.237793 Z M381.788086,101.783203 L381.788086,78.3222656 L390.005859,78.3222656 C392.852553,78.3222656 395.011711,78.8674262 396.483398,79.9577637 C397.955085,81.0481012 398.690918,82.6459856 398.690918,84.7514648 C398.690918,85.9008847 398.395511,86.9133257 397.804688,87.7888184 C397.213864,88.664311 396.392095,89.3061503 395.339355,89.7143555 C396.542486,90.0151382 397.490475,90.6220657 398.18335,91.5351562 C398.876224,92.4482468 399.222656,93.5654231 399.222656,94.8867188 C399.222656,97.1425894 398.502937,98.8505801 397.063477,100.010742 C395.624016,101.170904 393.572279,101.761719 390.908203,101.783203 L381.788086,101.783203 Z M386.62207,91.5673828 L386.62207,97.8999023 L390.763184,97.8999023 C391.901861,97.8999023 392.790768,97.6286648 393.429932,97.0861816 C394.069095,96.5436985 394.388672,95.7944384 394.388672,94.8383789 C394.388672,92.6899307 393.276867,91.5996095 391.053223,91.5673828 L386.62207,91.5673828 Z M386.62207,88.1513672 L390.199219,88.1513672 C392.637708,88.1083982 393.856934,87.13624 393.856934,85.2348633 C393.856934,84.1713814 393.548099,83.4060082 392.93042,82.9387207 C392.312741,82.4714332 391.337897,82.237793 390.005859,82.237793 L386.62207,82.237793 L386.62207,88.1513672 Z M416.093262,96.9492188 L407.617676,96.9492188 L406.006348,101.783203 L400.866211,101.783203 L409.599609,78.3222656 L414.079102,78.3222656 L422.86084,101.783203 L417.720703,101.783203 L416.093262,96.9492188 Z M408.922852,93.0336914 L414.788086,93.0336914 L411.839355,84.2519531 L408.922852,93.0336914 Z M443.469727,93.9682617 C443.287108,96.4926884 442.355233,98.4799732 440.674072,99.9301758 C438.992912,101.380378 436.777357,102.105469 434.027344,102.105469 C431.019516,102.105469 428.653573,101.093028 426.929443,99.0681152 C425.205314,97.0432028 424.343262,94.2636895 424.343262,90.7294922 L424.343262,89.2954102 C424.343262,87.0395395 424.740719,85.0522547 425.535645,83.3334961 C426.33057,81.6147375 427.466545,80.2961472 428.943604,79.3776855 C430.420662,78.4592239 432.136709,78 434.091797,78 C436.798842,78 438.979484,78.7250904 440.633789,80.175293 C442.288094,81.6254955 443.244139,83.6611197 443.501953,86.2822266 L438.667969,86.2822266 C438.549804,84.7675706 438.128177,83.6691929 437.403076,82.9870605 C436.677975,82.3049282 435.574226,81.9638672 434.091797,81.9638672 C432.480461,81.9638672 431.274662,82.541254 430.474365,83.6960449 C429.674068,84.8508359 429.263184,86.6420777 429.241699,89.0698242 L429.241699,90.8422852 C429.241699,93.3774541 429.625729,95.2304629 430.393799,96.4013672 C431.161869,97.5722715 432.373039,98.1577148 434.027344,98.1577148 C435.520515,98.1577148 436.635006,97.8166538 437.37085,97.1345215 C438.106693,96.4523892 438.52832,95.3969798 438.635742,93.9682617 L443.469727,93.9682617 Z M453.991699,92.3730469 L451.478027,95.0800781 L451.478027,101.783203 L446.644043,101.783203 L446.644043,78.3222656 L451.478027,78.3222656 L451.478027,88.9570312 L453.60498,86.0405273 L459.583008,78.3222656 L465.528809,78.3222656 L457.198242,88.7475586 L465.770508,101.783203 L460.018066,101.783203 L453.991699,92.3730469 Z M472.022461,94.5805664 L468.155273,94.5805664 L467.607422,78.3222656 L472.570312,78.3222656 L472.022461,94.5805664 Z M470.088867,97.1264648 C470.873051,97.1264648 471.504148,97.3574196 471.982178,97.8193359 C472.460207,98.2812523 472.699219,98.8720667 472.699219,99.5917969 C472.699219,100.300785 472.460207,100.886228 471.982178,101.348145 C471.504148,101.810061 470.873051,102.041016 470.088867,102.041016 C469.315426,102.041016 468.6897,101.810061 468.21167,101.348145 C467.73364,100.886228 467.494629,100.300785 467.494629,99.5917969 C467.494629,98.882809 467.73364,98.2946801 468.21167,97.8273926 C468.6897,97.3601051 469.315426,97.1264648 470.088867,97.1264648 Z" id="TOBRINGITBACK!" fill="#000000"></path>
        </g>
    </g>
</svg>