<?xml version="1.0" encoding="UTF-8"?>
<svg width="570px" height="792px" viewBox="0 0 570 792" version="1.1" xmlns="http://www.w3.org/2000/svg" xmlns:xlink="http://www.w3.org/1999/xlink">
    <!-- Generator: Sketch 54.1 (76490) - https://sketchapp.com -->
    <title>create_1_en</title>
    <desc>Created with Sketch.</desc>
    <g id="create_1_en" stroke="none" stroke-width="1" fill="none" fill-rule="evenodd">
        <rect fill="#00B0FF" x="0" y="0" width="570" height="792"></rect>
        <path d="M47,502 L524,502 C530.627417,502 536,507.372583 536,514 L536,753 L35,753 L35,514 C35,507.372583 40.372583,502 47,502 Z" id="Rectangle" fill="#080B26"></path>
        <path d="M43,634 L528,634 C532.418278,634 536,637.581722 536,642 L536,753 L35,753 L35,642 C35,637.581722 38.581722,634 43,634 Z" id="Rectangle" fill="#99CC00"></path>
        <polygon id="+" fill="#000000" points="290.327637 687.318848 303.547852 687.318848 303.547852 696.876953 290.327637 696.876953 290.327637 711.818359 280.256836 711.818359 280.256836 696.876953 267 696.876953 267 687.318848 280.256836 687.318848 280.256836 673 290.327637 673"></polygon>
        <g id="Group" transform="translate(430.000000, 318.000000)" fill="#375270">
            <path d="M48.341489,11.440183 L82.5320278,78.2671452 C84.0413418,81.2171681 82.8734165,84.8321749 79.9233936,86.341489 C79.07744,86.7743024 78.1407835,87 77.1905388,87 L8.80946121,87 C5.49575272,87 2.80946121,84.3137085 2.80946121,81 C2.80946121,80.0497553 3.03515877,79.1130988 3.46797224,78.2671452 L37.658511,11.440183 C39.1678251,8.4901601 42.7828319,7.32223481 45.7328548,8.83154885 C46.8547796,9.40555689 47.7674809,10.3182582 48.341489,11.440183 Z" id="Triangle" transform="translate(43.000000, 44.000000) scale(1, -1) rotate(-270.000000) translate(-43.000000, -44.000000) "></path>
        </g>
        <rect id="Rectangle" fill="#D8D8D8" x="61" y="46.5" width="449" height="126" rx="12"></rect>
        <path d="M100.806867,87.7815703 L95.57154,87.7815703 L95.57154,99.5276753 L89,99.5276753 L89,67.4407544 L100.850677,67.4407544 C104.618379,67.4407544 107.524431,68.2855252 109.56892,69.9750923 C111.61341,71.6646593 112.635639,74.0520551 112.635639,77.1373514 C112.635639,79.3264425 112.164683,81.1518821 111.222758,82.6137249 C110.280832,84.0755676 108.853362,85.2398822 106.940304,86.1067036 L113.840421,99.2191472 L113.840421,99.5276753 L106.786968,99.5276753 L100.806867,87.7815703 Z M95.57154,82.4264043 L100.872582,82.4264043 C102.522777,82.4264043 103.800564,82.0040188 104.705981,81.1592353 C105.611397,80.3144518 106.064099,79.1501373 106.064099,77.6662567 C106.064099,76.1529923 105.636953,74.9629673 104.782649,74.096146 C103.928344,73.2293246 102.6177,72.7959205 100.850677,72.7959205 L95.57154,72.7959205 L95.57154,82.4264043 Z M136.818906,85.6218737 L124.20155,85.6218737 L124.20155,94.2165847 L139.00942,94.2165847 L139.00942,99.5276753 L117.630009,99.5276753 L117.630009,67.4407544 L138.965609,67.4407544 L138.965609,72.7959205 L124.20155,72.7959205 L124.20155,80.4430094 L136.818906,80.4430094 L136.818906,85.6218737 Z M160.870743,92.9163592 L149.348643,92.9163592 L147.158129,99.5276753 L140.170392,99.5276753 L152.042974,67.4407544 L158.132601,67.4407544 L170.070899,99.5276753 L163.083161,99.5276753 L160.870743,92.9163592 Z M151.122959,87.5611931 L159.096427,87.5611931 L155.087788,75.5506355 L151.122959,87.5611931 Z M173.049997,99.5276753 L173.049997,67.4407544 L182.863497,67.4407544 C185.667368,67.4407544 188.175481,68.076169 190.38791,69.3470172 C192.60034,70.6178654 194.327177,72.4249404 195.568474,74.7682964 C196.809772,77.1116524 197.430411,79.774517 197.430411,82.7569701 L197.430411,84.2334973 C197.430411,87.2159504 196.820724,89.8677962 195.601332,92.1891144 C194.38194,94.5104325 192.662404,96.3101617 190.442673,97.5883559 C188.222942,98.8665501 185.71848,99.5129834 182.929212,99.5276753 L173.049997,99.5276753 Z M179.621537,72.7959205 L179.621537,94.2165847 L182.797782,94.2165847 C185.367997,94.2165847 187.332137,93.3718138 188.690263,91.6822468 C190.048388,89.9926798 190.742043,87.5759006 190.77125,84.4318368 L190.77125,82.7349323 C190.77125,79.4733334 190.099499,77.0014605 188.755978,75.3192394 C187.412456,73.6370184 185.448316,72.7959205 182.863497,72.7959205 L179.621537,72.7959205 Z M213.202107,81.897499 L219.839362,67.4407544 L227.024246,67.4407544 L216.553592,87.8917589 L216.553592,99.5276753 L209.872527,99.5276753 L209.872527,87.8917589 L199.401873,67.4407544 L206.608662,67.4407544 L213.202107,81.897499 Z M265.117273,72.7959205 L255.347584,72.7959205 L255.347584,99.5276753 L248.776044,99.5276753 L248.776044,72.7959205 L239.137785,72.7959205 L239.137785,67.4407544 L265.117273,67.4407544 L265.117273,72.7959205 Z M295.061591,84.2114596 C295.061591,87.3702153 294.506666,90.1395945 293.396801,92.5196802 C292.286935,94.8997659 290.698829,96.7362242 288.632434,98.0291103 C286.566039,99.3219964 284.196658,99.9684297 281.524218,99.9684297 C278.880986,99.9684297 276.522556,99.3293422 274.44886,98.051148 C272.375164,96.7729538 270.768803,94.9475143 269.629731,92.5747745 C268.490658,90.2020347 267.913829,87.4730577 267.899225,84.3877614 L267.899225,82.8010455 C267.899225,79.6422898 268.465102,76.8618919 269.596873,74.4597683 C270.728644,72.0576448 272.327703,70.2138406 274.394097,68.9283005 C276.460492,67.6427604 278.822572,67 281.480408,67 C284.138244,67 286.500324,67.6427604 288.566719,68.9283005 C290.633113,70.2138406 292.232172,72.0576448 293.363943,74.4597683 C294.495714,76.8618919 295.061591,79.634944 295.061591,82.7790078 L295.061591,84.2114596 Z M288.40243,82.7569701 C288.40243,79.3925279 287.803696,76.8361779 286.606209,75.0878434 C285.408723,73.3395088 283.700139,72.4653547 281.480408,72.4653547 C279.27528,72.4653547 277.573999,73.3284901 276.376512,75.0547868 C275.179025,76.7810835 274.572989,79.3117231 274.558386,82.6467815 L274.558386,84.2114596 C274.558386,87.4877504 275.15712,90.0294088 276.354607,91.8365109 C277.552093,93.643613 279.27528,94.5471505 281.524218,94.5471505 C283.729346,94.5471505 285.423326,93.6766692 286.606209,91.9356806 C287.789092,90.194692 288.387827,87.6567066 288.40243,84.3216482 L288.40243,82.7569701 Z M317.580068,94.2165847 L331.533638,94.2165847 L331.533638,99.5276753 L311.008528,99.5276753 L311.008528,67.4407544 L317.580068,67.4407544 L317.580068,94.2165847 Z M353.307341,92.9163592 L341.785241,92.9163592 L339.594727,99.5276753 L332.60699,99.5276753 L344.479572,67.4407544 L350.569199,67.4407544 L362.507497,99.5276753 L355.519759,99.5276753 L353.307341,92.9163592 Z M343.559556,87.5611931 L351.533025,87.5611931 L347.524385,75.5506355 L343.559556,87.5611931 Z M389.626052,67.4407544 L389.626052,88.5749282 C389.626052,92.0862893 388.534457,94.8630143 386.351235,96.9051866 C384.168012,98.9473589 381.185293,99.9684297 377.402988,99.9684297 C373.679096,99.9684297 370.721933,98.9767422 368.531409,96.9933374 C366.340884,95.0099327 365.223734,92.2846285 365.179923,88.8173432 L365.179923,67.4407544 L371.751463,67.4407544 L371.751463,88.6190037 C371.751463,90.7199435 372.251625,92.2515498 373.251965,93.2138684 C374.252304,94.176187 375.635965,94.6573391 377.402988,94.6573391 C381.097672,94.6573391 382.974193,92.7033474 383.032607,88.7953055 L383.032607,67.4407544 L389.626052,67.4407544 Z M420.950393,99.5276753 L414.378853,99.5276753 L401.586255,78.4155392 L401.586255,99.5276753 L395.014715,99.5276753 L395.014715,67.4407544 L401.586255,67.4407544 L414.400758,88.596966 L414.400758,67.4407544 L420.950393,67.4407544 L420.950393,99.5276753 Z M451.727106,88.8393809 C451.478846,92.2919743 450.212012,95.0099327 447.926565,96.9933374 C445.641118,98.9767422 442.629192,99.9684297 438.890697,99.9684297 C434.801719,99.9684297 431.585347,98.5837401 429.241486,95.8143194 C426.897625,93.0448987 425.725712,89.2434299 425.725712,84.4097991 L425.725712,82.448442 C425.725712,79.3631457 426.266033,76.6451874 427.346692,74.2944854 C428.427351,71.9437835 429.971647,70.1403814 431.979628,68.8842251 C433.987608,67.6280687 436.320482,67 438.978318,67 C442.658399,67 445.622864,67.9916875 447.871802,69.9750923 C450.12074,71.958497 451.420432,74.7425678 451.770916,78.3273883 L445.199376,78.3273883 C445.038737,76.2558322 444.465559,74.7536093 443.479823,73.8206745 C442.494087,72.8877396 440.9936,72.4212792 438.978318,72.4212792 C436.787794,72.4212792 435.148576,73.2109563 434.060615,74.7903342 C432.972655,76.369712 432.41408,78.8195474 432.384873,82.1399139 L432.384873,84.5640631 C432.384873,88.0313485 432.90694,90.565661 433.95109,92.1670767 C434.99524,93.7684924 436.641759,94.5691882 438.890697,94.5691882 C440.920583,94.5691882 442.435673,94.1027278 443.436012,93.1697929 C444.436352,92.2368581 445.009531,90.7934019 445.155565,88.8393809 L451.727106,88.8393809 Z M482,99.5276753 L475.42846,99.5276753 L475.42846,85.7761378 L462.613957,85.7761378 L462.613957,99.5276753 L456.042417,99.5276753 L456.042417,67.4407544 L462.613957,67.4407544 L462.613957,80.4430094 L475.42846,80.4430094 L475.42846,67.4407544 L482,67.4407544 L482,99.5276753 Z M114.508528,134.929069 L121.145783,120.472325 L128.330667,120.472325 L117.860013,140.923329 L117.860013,152.559246 L111.178948,152.559246 L111.178948,140.923329 L100.708294,120.472325 L107.915083,120.472325 L114.508528,134.929069 Z M157.44259,137.24303 C157.44259,140.401786 156.887665,143.171165 155.777799,145.551251 C154.667934,147.931336 153.079828,149.767795 151.013433,151.060681 C148.947038,152.353567 146.577657,153 143.905217,153 C141.261984,153 138.903555,152.360913 136.829859,151.082718 C134.756163,149.804524 133.149802,147.979085 132.01073,145.606345 C130.871657,143.233605 130.294828,140.504628 130.280224,137.419332 L130.280224,135.832616 C130.280224,132.67386 130.846101,129.893462 131.977872,127.491339 C133.109643,125.089215 134.708702,123.245411 136.775096,121.959871 C138.841491,120.674331 141.203571,120.03157 143.861407,120.03157 C146.519243,120.03157 148.881323,120.674331 150.947718,121.959871 C153.014112,123.245411 154.613171,125.089215 155.744942,127.491339 C156.876713,129.893462 157.44259,132.666514 157.44259,135.810578 L157.44259,137.24303 Z M150.783429,135.78854 C150.783429,132.424098 150.184695,129.867748 148.987208,128.119414 C147.789721,126.371079 146.081138,125.496925 143.861407,125.496925 C141.656279,125.496925 139.954997,126.36006 138.757511,128.086357 C137.560024,129.812654 136.953988,132.343293 136.939385,135.678352 L136.939385,137.24303 C136.939385,140.519321 137.538119,143.060979 138.735606,144.868081 C139.933092,146.675183 141.656279,147.578721 143.905217,147.578721 C146.110345,147.578721 147.804325,146.70824 148.987208,144.967251 C150.170091,143.226262 150.768826,140.688277 150.783429,137.353219 L150.783429,135.78854 Z M186.357366,120.472325 L186.357366,141.606499 C186.357366,145.11786 185.265771,147.894585 183.082548,149.936757 C180.899326,151.978929 177.916607,153 174.134301,153 C170.41041,153 167.453247,152.008313 165.262722,150.024908 C163.072198,148.041503 161.955047,145.316199 161.911237,141.848913 L161.911237,120.472325 L168.482777,120.472325 L168.482777,141.650574 C168.482777,143.751514 168.982939,145.28312 169.983279,146.245439 C170.983618,147.207757 172.367278,147.688909 174.134301,147.688909 C177.828986,147.688909 179.705507,145.734918 179.763921,141.826876 L179.763921,120.472325 L186.357366,120.472325 Z M203.552896,140.813141 L198.317569,140.813141 L198.317569,152.559246 L191.746029,152.559246 L191.746029,120.472325 L203.596706,120.472325 C207.364408,120.472325 210.27046,121.317096 212.314949,123.006663 C214.359438,124.69623 215.381668,127.083625 215.381668,130.168922 C215.381668,132.358013 214.910712,134.183452 213.968787,135.645295 C213.026861,137.107138 211.599391,138.271453 209.686333,139.138274 L216.58645,152.250718 L216.58645,152.559246 L209.532997,152.559246 L203.552896,140.813141 Z M198.317569,135.457975 L203.618611,135.457975 C205.268806,135.457975 206.546593,135.035589 207.452009,134.190806 C208.357426,133.346022 208.810128,132.181708 208.810128,130.697827 C208.810128,129.184563 208.382982,127.994538 207.528677,127.127716 C206.674373,126.260895 205.363729,125.827491 203.596706,125.827491 L198.317569,125.827491 L198.317569,135.457975 Z M250.736553,139.446802 L238.119196,139.446802 L238.119196,152.559246 L231.547656,152.559246 L231.547656,120.472325 L252.313723,120.472325 L252.313723,125.827491 L238.119196,125.827491 L238.119196,134.113674 L250.736553,134.113674 L250.736553,139.446802 Z M263.112954,152.559246 L256.541414,152.559246 L256.541414,120.472325 L263.112954,120.472325 L263.112954,152.559246 Z M281.009448,140.813141 L275.774121,140.813141 L275.774121,152.559246 L269.202581,152.559246 L269.202581,120.472325 L281.053258,120.472325 C284.82096,120.472325 287.727012,121.317096 289.771501,123.006663 C291.81599,124.69623 292.83822,127.083625 292.83822,130.168922 C292.83822,132.358013 292.367264,134.183452 291.425339,135.645295 C290.483413,137.107138 289.055943,138.271453 287.142885,139.138274 L294.043002,152.250718 L294.043002,152.559246 L286.989549,152.559246 L281.009448,140.813141 Z M275.774121,135.457975 L281.075163,135.457975 C282.725358,135.457975 284.003145,135.035589 284.908561,134.190806 C285.813978,133.346022 286.26668,132.181708 286.26668,130.697827 C286.26668,129.184563 285.839534,127.994538 284.985229,127.127716 C284.130925,126.260895 282.820281,125.827491 281.053258,125.827491 L275.774121,125.827491 L275.774121,135.457975 Z M314.370966,144.140836 C314.370966,142.892026 313.932868,141.933395 313.056658,141.264914 C312.180448,140.596433 310.603294,139.891233 308.325149,139.149293 C306.047004,138.407352 304.243499,137.676442 302.914581,136.95654 C299.292914,134.987827 297.482108,132.335981 297.482108,129.000923 C297.482108,127.26728 297.967667,125.720982 298.938799,124.361982 C299.909932,123.002983 301.304545,121.94151 303.12268,121.177532 C304.940815,120.413554 306.981623,120.03157 309.245165,120.03157 C311.52331,120.03157 313.553165,120.44661 315.334792,121.276702 C317.116418,122.106793 318.500079,123.278454 319.485815,124.791718 C320.471551,126.304982 320.964411,128.023907 320.964411,129.948544 L314.392871,129.948544 C314.392871,128.479356 313.932868,127.337079 313.012848,126.521679 C312.092827,125.706279 310.800438,125.298585 309.135639,125.298585 C307.529255,125.298585 306.280674,125.640167 305.389861,126.323339 C304.499048,127.006512 304.053648,127.906377 304.053648,129.02296 C304.053648,130.066084 304.575715,130.940238 305.619865,131.645449 C306.664015,132.35066 308.20101,133.011785 310.230896,133.628844 C313.969391,134.760119 316.692902,136.163173 318.401511,137.838048 C320.110119,139.512924 320.964411,141.59914 320.964411,144.096761 C320.964411,146.873528 319.920277,149.051567 317.831977,150.630945 C315.743677,152.210323 312.932547,153 309.398501,153 C306.945113,153 304.710812,152.548231 302.69553,151.64468 C300.680247,150.741129 299.143253,149.503356 298.084499,147.931324 C297.025746,146.359292 296.496377,144.537526 296.496377,142.46597 L303.089822,142.46597 C303.089822,146.006714 305.192694,147.77706 309.398501,147.77706 C310.961075,147.77706 312.180448,147.457517 313.056658,146.818419 C313.932868,146.179322 314.370966,145.286804 314.370966,144.140836 Z M349.41918,125.827491 L339.64949,125.827491 L339.64949,152.559246 L333.07795,152.559246 L333.07795,125.827491 L323.439691,125.827491 L323.439691,120.472325 L349.41918,120.472325 L349.41918,125.827491 Z M388.344602,125.827491 L378.574912,125.827491 L378.574912,152.559246 L372.003372,152.559246 L372.003372,125.827491 L362.365113,125.827491 L362.365113,120.472325 L388.344602,120.472325 L388.344602,125.827491 Z M410.096399,145.947929 L398.574299,145.947929 L396.383786,152.559246 L389.396048,152.559246 L401.268631,120.472325 L407.358258,120.472325 L419.296555,152.559246 L412.308818,152.559246 L410.096399,145.947929 Z M400.348615,140.592763 L408.322083,140.592763 L404.313444,128.582206 L400.348615,140.592763 Z M422.275654,152.559246 L422.275654,120.472325 L433.447272,120.472325 C437.317198,120.472325 440.252456,121.217927 442.253135,122.709153 C444.253814,124.20038 445.254139,126.385765 445.254139,129.265375 C445.254139,130.837407 444.852548,132.222097 444.049356,133.419485 C443.246164,134.616874 442.129013,135.494701 440.697871,136.052993 C442.333462,136.464366 443.622201,137.294445 444.564127,138.543255 C445.506052,139.792066 445.977008,141.319999 445.977008,143.127101 C445.977008,146.212398 444.998588,148.548373 443.04172,150.135096 C441.084852,151.72182 438.295626,152.529862 434.673959,152.559246 L422.275654,152.559246 Z M428.847194,138.587331 L428.847194,147.248155 L434.476813,147.248155 C436.024783,147.248155 437.233205,146.87719 438.102112,146.13525 C438.97102,145.39331 439.405468,144.368566 439.405468,143.060988 C439.405468,140.122611 437.894029,138.631407 434.871105,138.587331 L428.847194,138.587331 Z M428.847194,133.915334 L433.710133,133.915334 C437.025127,133.856567 438.682599,132.526971 438.682599,129.926507 C438.682599,128.47201 438.262754,127.425229 437.423053,126.786132 C436.583352,126.147035 435.258105,125.827491 433.447272,125.827491 L428.847194,125.827491 L428.847194,133.915334 Z M455.659077,142.708385 C455.659077,140.65152 455.907333,139.0134 456.403852,137.793973 C456.90037,136.574546 457.809424,135.373503 459.131041,134.190806 C460.452657,133.008109 461.332504,132.045805 461.770609,131.303864 C462.208714,130.561924 462.427763,129.779593 462.427763,128.956847 C462.427763,126.473918 461.288708,125.232472 459.010562,125.232472 C457.929904,125.232472 457.06466,125.566708 456.414804,126.235189 C455.764949,126.903669 455.425422,127.825572 455.396215,129.000923 L449.043727,129.000923 C449.072934,126.194772 449.974686,123.998368 451.749011,122.411644 C453.523335,120.82492 455.943828,120.03157 459.010562,120.03157 C462.106503,120.03157 464.508742,120.784518 466.217351,122.290437 C467.92596,123.796355 468.780252,125.922974 468.780252,128.670357 C468.780252,129.919167 468.50279,131.098173 467.947857,132.207411 C467.392924,133.316648 466.421806,134.547075 465.034474,135.898729 L463.260158,137.595633 C462.150293,138.668141 461.51505,139.924279 461.354412,141.364084 L461.266791,142.708385 L455.659077,142.708385 Z M455.023828,149.473965 C455.023828,148.489608 455.356053,147.677894 456.020512,147.038797 C456.684971,146.3997 457.535612,146.080156 458.57246,146.080156 C459.609308,146.080156 460.459949,146.3997 461.124408,147.038797 C461.788867,147.677894 462.121091,148.489608 462.121091,149.473965 C462.121091,150.443629 461.796168,151.244325 461.146313,151.876076 C460.496457,152.507827 459.638515,152.823698 458.57246,152.823698 C457.506405,152.823698 456.648462,152.507827 455.998607,151.876076 C455.348751,151.244325 455.023828,150.443629 455.023828,149.473965 Z" id="READY-TO-LAUNCH-YOUR" fill="#375270"></path>
        <path d="M87.859375,555.980469 L87.859375,566 L82,566 L82,537.5625 L93.09375,537.5625 C95.2291773,537.5625 97.1074138,537.953121 98.7285156,538.734375 C100.349617,539.515629 101.59635,540.625644 102.46875,542.064453 C103.34115,543.503262 103.777344,545.140616 103.777344,546.976562 C103.777344,549.763035 102.823577,551.960278 100.916016,553.568359 C99.008454,555.17644 96.3685064,555.980469 92.9960938,555.980469 L87.859375,555.980469 Z M87.859375,551.234375 L93.09375,551.234375 C94.6432369,551.234375 95.8248657,550.869795 96.6386719,550.140625 C97.452478,549.411455 97.859375,548.369798 97.859375,547.015625 C97.859375,545.622389 97.4492229,544.496098 96.6289062,543.636719 C95.8085896,542.777339 94.6757885,542.334636 93.2304688,542.308594 L87.859375,542.308594 L87.859375,551.234375 Z M119.304688,550.160156 C118.536454,550.055989 117.859378,550.003906 117.273438,550.003906 C115.13801,550.003906 113.738285,550.726555 113.074219,552.171875 L113.074219,566 L107.429688,566 L107.429688,544.867188 L112.761719,544.867188 L112.917969,547.386719 C114.050787,545.446605 115.619782,544.476562 117.625,544.476562 C118.250003,544.476562 118.835935,544.561197 119.382812,544.730469 L119.304688,550.160156 Z M131.746094,566.390625 C128.64712,566.390625 126.124359,565.440114 124.177734,563.539062 C122.23111,561.638011 121.257812,559.105485 121.257812,555.941406 L121.257812,555.394531 C121.257812,553.272125 121.667965,551.374357 122.488281,549.701172 C123.308598,548.027986 124.470696,546.738937 125.974609,545.833984 C127.478523,544.929032 129.194001,544.476562 131.121094,544.476562 C134.011733,544.476562 136.287101,545.388012 137.947266,547.210938 C139.60743,549.033863 140.4375,551.618473 140.4375,554.964844 L140.4375,557.269531 L126.980469,557.269531 C127.162761,558.649746 127.712886,559.756506 128.630859,560.589844 C129.548833,561.423181 130.71093,561.839844 132.117188,561.839844 C134.291678,561.839844 135.990879,561.052091 137.214844,559.476562 L139.988281,562.582031 C139.141923,563.779954 137.996101,564.714189 136.550781,565.384766 C135.105462,566.055342 133.503915,566.390625 131.746094,566.390625 Z M131.101562,549.046875 C129.981765,549.046875 129.073571,549.424475 128.376953,550.179688 C127.680335,550.9349 127.234376,552.015618 127.039062,553.421875 L134.890625,553.421875 L134.890625,552.972656 C134.864583,551.72265 134.526045,550.755863 133.875,550.072266 C133.223955,549.388668 132.299485,549.046875 131.101562,549.046875 Z M155.085938,560.160156 C155.085938,559.470049 154.744144,558.926434 154.060547,558.529297 C153.37695,558.132159 152.279955,557.777345 150.769531,557.464844 C145.743464,556.410151 143.230469,554.274756 143.230469,551.058594 C143.230469,549.183584 144.008456,547.617845 145.564453,546.361328 C147.12045,545.104811 149.154935,544.476562 151.667969,544.476562 C154.350274,544.476562 156.495435,545.108067 158.103516,546.371094 C159.711597,547.634121 160.515625,549.274729 160.515625,551.292969 L154.871094,551.292969 C154.871094,550.485673 154.61068,549.818362 154.089844,549.291016 C153.569008,548.763669 152.755214,548.5 151.648438,548.5 C150.697912,548.5 149.962242,548.714842 149.441406,549.144531 C148.92057,549.574221 148.660156,550.12109 148.660156,550.785156 C148.660156,551.410159 148.956377,551.914712 149.548828,552.298828 C150.141279,552.682945 151.140618,553.014973 152.546875,553.294922 C153.953132,553.574871 155.138016,553.890623 156.101562,554.242188 C159.083348,555.335943 160.574219,557.230455 160.574219,559.925781 C160.574219,561.852874 159.747404,563.412103 158.09375,564.603516 C156.440096,565.794928 154.304701,566.390625 151.6875,566.390625 C149.916658,566.390625 148.344408,566.074873 146.970703,565.443359 C145.596998,564.811846 144.519535,563.945969 143.738281,562.845703 C142.957027,561.745437 142.566406,560.557298 142.566406,559.28125 L147.917969,559.28125 C147.970052,560.283859 148.341142,561.052081 149.03125,561.585938 C149.721358,562.119794 150.645828,562.386719 151.804688,562.386719 C152.885422,562.386719 153.702471,562.181643 154.255859,561.771484 C154.809248,561.361326 155.085938,560.824222 155.085938,560.160156 Z M175.652344,560.160156 C175.652344,559.470049 175.31055,558.926434 174.626953,558.529297 C173.943356,558.132159 172.846362,557.777345 171.335938,557.464844 C166.309871,556.410151 163.796875,554.274756 163.796875,551.058594 C163.796875,549.183584 164.574862,547.617845 166.130859,546.361328 C167.686857,545.104811 169.721342,544.476562 172.234375,544.476562 C174.91668,544.476562 177.061841,545.108067 178.669922,546.371094 C180.278003,547.634121 181.082031,549.274729 181.082031,551.292969 L175.4375,551.292969 C175.4375,550.485673 175.177086,549.818362 174.65625,549.291016 C174.135414,548.763669 173.32162,548.5 172.214844,548.5 C171.264318,548.5 170.528648,548.714842 170.007812,549.144531 C169.486977,549.574221 169.226562,550.12109 169.226562,550.785156 C169.226562,551.410159 169.522783,551.914712 170.115234,552.298828 C170.707685,552.682945 171.707024,553.014973 173.113281,553.294922 C174.519538,553.574871 175.704422,553.890623 176.667969,554.242188 C179.649754,555.335943 181.140625,557.230455 181.140625,559.925781 C181.140625,561.852874 180.31381,563.412103 178.660156,564.603516 C177.006502,565.794928 174.871107,566.390625 172.253906,566.390625 C170.483064,566.390625 168.910814,566.074873 167.537109,565.443359 C166.163405,564.811846 165.085941,563.945969 164.304688,562.845703 C163.523434,561.745437 163.132812,560.557298 163.132812,559.28125 L168.484375,559.28125 C168.536459,560.283859 168.907549,561.052081 169.597656,561.585938 C170.287764,562.119794 171.212234,562.386719 172.371094,562.386719 C173.451828,562.386719 174.268877,562.181643 174.822266,561.771484 C175.375654,561.361326 175.652344,560.824222 175.652344,560.160156 Z M201.492188,539.671875 L201.492188,544.867188 L205.105469,544.867188 L205.105469,549.007812 L201.492188,549.007812 L201.492188,559.554688 C201.492188,560.335941 201.641926,560.895832 201.941406,561.234375 C202.240887,561.572918 202.813798,561.742188 203.660156,561.742188 C204.285159,561.742188 204.838539,561.696615 205.320312,561.605469 L205.320312,565.882812 C204.213536,566.221356 203.074225,566.390625 201.902344,566.390625 C197.943991,566.390625 195.925782,564.391947 195.847656,560.394531 L195.847656,549.007812 L192.761719,549.007812 L192.761719,544.867188 L195.847656,544.867188 L195.847656,539.671875 L201.492188,539.671875 Z M213.757812,547.171875 C215.255216,545.374991 217.136707,544.476562 219.402344,544.476562 C223.9857,544.476562 226.309896,547.139296 226.375,552.464844 L226.375,566 L220.730469,566 L220.730469,552.621094 C220.730469,551.41015 220.470055,550.514977 219.949219,549.935547 C219.428383,549.356117 218.562506,549.066406 217.351562,549.066406 C215.697908,549.066406 214.500004,549.704421 213.757812,550.980469 L213.757812,566 L208.113281,566 L208.113281,536 L213.757812,536 L213.757812,547.171875 Z M240.359375,566.390625 C237.260401,566.390625 234.73764,565.440114 232.791016,563.539062 C230.844391,561.638011 229.871094,559.105485 229.871094,555.941406 L229.871094,555.394531 C229.871094,553.272125 230.281246,551.374357 231.101562,549.701172 C231.921879,548.027986 233.083977,546.738937 234.587891,545.833984 C236.091804,544.929032 237.807282,544.476562 239.734375,544.476562 C242.625014,544.476562 244.900382,545.388012 246.560547,547.210938 C248.220711,549.033863 249.050781,551.618473 249.050781,554.964844 L249.050781,557.269531 L235.59375,557.269531 C235.776043,558.649746 236.326167,559.756506 237.244141,560.589844 C238.162114,561.423181 239.324212,561.839844 240.730469,561.839844 C242.904959,561.839844 244.604161,561.052091 245.828125,559.476562 L248.601562,562.582031 C247.755204,563.779954 246.609382,564.714189 245.164062,565.384766 C243.718743,566.055342 242.117196,566.390625 240.359375,566.390625 Z M239.714844,549.046875 C238.595046,549.046875 237.686852,549.424475 236.990234,550.179688 C236.293616,550.9349 235.847657,552.015618 235.652344,553.421875 L243.503906,553.421875 L243.503906,552.972656 C243.477864,551.72265 243.139326,550.755863 242.488281,550.072266 C241.837236,549.388668 240.912766,549.046875 239.714844,549.046875 Z M261.394531,555.277344 C261.394531,552.03514 262.166008,549.424489 263.708984,547.445312 C265.251961,545.466136 267.332018,544.476562 269.949219,544.476562 C272.266939,544.476562 274.070306,545.270825 275.359375,546.859375 L275.59375,544.867188 L280.710938,544.867188 L280.710938,565.296875 C280.710938,567.145843 280.29102,568.753899 279.451172,570.121094 C278.611324,571.488288 277.429695,572.529944 275.90625,573.246094 C274.382805,573.962243 272.598969,574.320312 270.554688,574.320312 C269.005201,574.320312 267.494799,574.011071 266.023438,573.392578 C264.552076,572.774085 263.438806,571.976567 262.683594,571 L265.183594,567.5625 C266.589851,569.138029 268.295563,569.925781 270.300781,569.925781 C271.798185,569.925781 272.963538,569.525395 273.796875,568.724609 C274.630212,567.923824 275.046875,566.787768 275.046875,565.316406 L275.046875,564.183594 C273.744785,565.654955 272.032563,566.390625 269.910156,566.390625 C267.371081,566.390625 265.317065,565.397796 263.748047,563.412109 C262.179029,561.426422 261.394531,558.792985 261.394531,555.511719 L261.394531,555.277344 Z M267.039062,555.6875 C267.039062,557.601572 267.423173,559.102208 268.191406,560.189453 C268.959639,561.276698 270.014316,561.820312 271.355469,561.820312 C273.074227,561.820312 274.304684,561.175788 275.046875,559.886719 L275.046875,551 C274.291663,549.710931 273.074227,549.066406 271.394531,549.066406 C270.040358,549.066406 268.975915,549.619786 268.201172,550.726562 C267.426428,551.833339 267.039062,553.486968 267.039062,555.6875 Z M296.921875,550.160156 C296.153642,550.055989 295.476565,550.003906 294.890625,550.003906 C292.755198,550.003906 291.355472,550.726555 290.691406,552.171875 L290.691406,566 L285.046875,566 L285.046875,544.867188 L290.378906,544.867188 L290.535156,547.386719 C291.667974,545.446605 293.236969,544.476562 295.242188,544.476562 C295.867191,544.476562 296.453122,544.561197 297,544.730469 L296.921875,550.160156 Z M309.363281,566.390625 C306.264307,566.390625 303.741546,565.440114 301.794922,563.539062 C299.848298,561.638011 298.875,559.105485 298.875,555.941406 L298.875,555.394531 C298.875,553.272125 299.285152,551.374357 300.105469,549.701172 C300.925785,548.027986 302.087883,546.738937 303.591797,545.833984 C305.095711,544.929032 306.811188,544.476562 308.738281,544.476562 C311.628921,544.476562 313.904289,545.388012 315.564453,547.210938 C317.224618,549.033863 318.054688,551.618473 318.054688,554.964844 L318.054688,557.269531 L304.597656,557.269531 C304.779949,558.649746 305.330074,559.756506 306.248047,560.589844 C307.16602,561.423181 308.328118,561.839844 309.734375,561.839844 C311.908865,561.839844 313.608067,561.052091 314.832031,559.476562 L317.605469,562.582031 C316.75911,563.779954 315.613288,564.714189 314.167969,565.384766 C312.722649,566.055342 311.121103,566.390625 309.363281,566.390625 Z M308.71875,549.046875 C307.598953,549.046875 306.690759,549.424475 305.994141,550.179688 C305.297523,550.9349 304.851563,552.015618 304.65625,553.421875 L312.507812,553.421875 L312.507812,552.972656 C312.481771,551.72265 312.143232,550.755863 311.492188,550.072266 C310.841143,549.388668 309.916673,549.046875 308.71875,549.046875 Z M330.984375,566.390625 C327.885401,566.390625 325.36264,565.440114 323.416016,563.539062 C321.469391,561.638011 320.496094,559.105485 320.496094,555.941406 L320.496094,555.394531 C320.496094,553.272125 320.906246,551.374357 321.726562,549.701172 C322.546879,548.027986 323.708977,546.738937 325.212891,545.833984 C326.716804,544.929032 328.432282,544.476562 330.359375,544.476562 C333.250014,544.476562 335.525382,545.388012 337.185547,547.210938 C338.845711,549.033863 339.675781,551.618473 339.675781,554.964844 L339.675781,557.269531 L326.21875,557.269531 C326.401043,558.649746 326.951167,559.756506 327.869141,560.589844 C328.787114,561.423181 329.949212,561.839844 331.355469,561.839844 C333.529959,561.839844 335.229161,561.052091 336.453125,559.476562 L339.226562,562.582031 C338.380204,563.779954 337.234382,564.714189 335.789062,565.384766 C334.343743,566.055342 332.742196,566.390625 330.984375,566.390625 Z M330.339844,549.046875 C329.220046,549.046875 328.311852,549.424475 327.615234,550.179688 C326.918616,550.9349 326.472657,552.015618 326.277344,553.421875 L334.128906,553.421875 L334.128906,552.972656 C334.102864,551.72265 333.764326,550.755863 333.113281,550.072266 C332.462236,549.388668 331.537766,549.046875 330.339844,549.046875 Z M348.074219,544.867188 L348.25,547.308594 C349.760424,545.420563 351.785144,544.476562 354.324219,544.476562 C356.563813,544.476562 358.230463,545.134108 359.324219,546.449219 C360.417974,547.764329 360.977864,549.730456 361.003906,552.347656 L361.003906,566 L355.359375,566 L355.359375,552.484375 C355.359375,551.286452 355.098961,550.41732 354.578125,549.876953 C354.057289,549.336586 353.191412,549.066406 351.980469,549.066406 C350.391919,549.066406 349.200525,549.743483 348.40625,551.097656 L348.40625,566 L342.761719,566 L342.761719,544.867188 L348.074219,544.867188 Z M394.285156,555.628906 C394.285156,559.01434 393.562507,561.654287 392.117188,563.548828 C390.671868,565.443369 388.653659,566.390625 386.0625,566.390625 C383.770822,566.390625 381.941413,565.511728 380.574219,563.753906 L380.320312,566 L375.242188,566 L375.242188,536 L380.886719,536 L380.886719,546.761719 C382.188809,545.238274 383.901031,544.476562 386.023438,544.476562 C388.601575,544.476562 390.62304,545.423819 392.087891,547.318359 C393.552742,549.2129 394.285156,551.878889 394.285156,555.316406 L394.285156,555.628906 Z M388.640625,555.21875 C388.640625,553.083323 388.302087,551.524093 387.625,550.541016 C386.947913,549.557938 385.938809,549.066406 384.597656,549.066406 C382.800772,549.066406 381.563805,549.802076 380.886719,551.273438 L380.886719,559.613281 C381.576826,561.097664 382.826814,561.839844 384.636719,561.839844 C386.459645,561.839844 387.657549,560.941415 388.230469,559.144531 C388.503908,558.285152 388.640625,556.976571 388.640625,555.21875 Z M410.417969,563.851562 C409.024733,565.544279 407.097669,566.390625 404.636719,566.390625 C402.371082,566.390625 400.642584,565.73959 399.451172,564.4375 C398.25976,563.13541 397.651042,561.227877 397.625,558.714844 L397.625,544.867188 L403.269531,544.867188 L403.269531,558.519531 C403.269531,560.720063 404.272125,561.820312 406.277344,561.820312 C408.191416,561.820312 409.506507,561.156257 410.222656,559.828125 L410.222656,544.867188 L415.886719,544.867188 L415.886719,566 L410.574219,566 L410.417969,563.851562 Z M426.902344,539.671875 L426.902344,544.867188 L430.515625,544.867188 L430.515625,549.007812 L426.902344,549.007812 L426.902344,559.554688 C426.902344,560.335941 427.052082,560.895832 427.351562,561.234375 C427.651043,561.572918 428.223954,561.742188 429.070312,561.742188 C429.695316,561.742188 430.248696,561.696615 430.730469,561.605469 L430.730469,565.882812 C429.623692,566.221356 428.484381,566.390625 427.3125,566.390625 C423.354147,566.390625 421.335938,564.391947 421.257812,560.394531 L421.257812,549.007812 L418.171875,549.007812 L418.171875,544.867188 L421.257812,544.867188 L421.257812,539.671875 L426.902344,539.671875 Z M440.417969,539.671875 L440.417969,544.867188 L444.03125,544.867188 L444.03125,549.007812 L440.417969,549.007812 L440.417969,559.554688 C440.417969,560.335941 440.567707,560.895832 440.867188,561.234375 C441.166668,561.572918 441.739579,561.742188 442.585938,561.742188 C443.210941,561.742188 443.764321,561.696615 444.246094,561.605469 L444.246094,565.882812 C443.139317,566.221356 442.000006,566.390625 440.828125,566.390625 C436.869772,566.390625 434.851563,564.391947 434.773438,560.394531 L434.773438,549.007812 L431.6875,549.007812 L431.6875,544.867188 L434.773438,544.867188 L434.773438,539.671875 L440.417969,539.671875 Z M446.296875,555.238281 C446.296875,553.141917 446.700517,551.273446 447.507812,549.632812 C448.315108,547.992179 449.477206,546.722661 450.994141,545.824219 C452.511075,544.925777 454.272125,544.476562 456.277344,544.476562 C459.128921,544.476562 461.456371,545.34895 463.259766,547.09375 C465.06316,548.83855 466.069009,551.208318 466.277344,554.203125 L466.316406,555.648438 C466.316406,558.890641 465.411467,561.491527 463.601562,563.451172 C461.791658,565.410817 459.363296,566.390625 456.316406,566.390625 C453.269516,566.390625 450.8379,565.414072 449.021484,563.460938 C447.205069,561.507803 446.296875,558.851579 446.296875,555.492188 L446.296875,555.238281 Z M451.941406,555.648438 C451.941406,557.653656 452.319007,559.186844 453.074219,560.248047 C453.829431,561.30925 454.910149,561.839844 456.316406,561.839844 C457.683601,561.839844 458.751298,561.31576 459.519531,560.267578 C460.287764,559.219396 460.671875,557.54298 460.671875,555.238281 C460.671875,553.272126 460.287764,551.748703 459.519531,550.667969 C458.751298,549.587234 457.67058,549.046875 456.277344,549.046875 C454.897129,549.046875 453.829431,549.583979 453.074219,550.658203 C452.319007,551.732427 451.941406,553.395822 451.941406,555.648438 Z M474.988281,544.867188 L475.164062,547.308594 C476.674487,545.420563 478.699206,544.476562 481.238281,544.476562 C483.477876,544.476562 485.144526,545.134108 486.238281,546.449219 C487.332037,547.764329 487.891927,549.730456 487.917969,552.347656 L487.917969,566 L482.273438,566 L482.273438,552.484375 C482.273438,551.286452 482.013023,550.41732 481.492188,549.876953 C480.971352,549.336586 480.105475,549.066406 478.894531,549.066406 C477.305982,549.066406 476.114587,549.743483 475.320312,551.097656 L475.320312,566 L469.675781,566 L469.675781,544.867188 L474.988281,544.867188 Z" id="Press-the-green-butt" fill="#375270"></path>
    </g>
</svg>