<?xml version="1.0" encoding="UTF-8"?>
<svg width="570px" height="792px" viewBox="0 0 570 792" version="1.1" xmlns="http://www.w3.org/2000/svg" xmlns:xlink="http://www.w3.org/1999/xlink">
    <!-- Generator: Sketch 52.2 (67145) - http://www.bohemiancoding.com/sketch -->
    <title>create_1_en</title>
    <desc>Created with Sketch.</desc>
    <g id="create_1_en" stroke="none" stroke-width="1" fill="none" fill-rule="evenodd">
        <rect fill="#00B0FF" x="0" y="0" width="570" height="792"></rect>
        <path d="M43,634 L528,634 C532.418278,634 536,637.581722 536,642 L536,753 L35,753 L35,642 C35,637.581722 38.581722,634 43,634 Z" id="Rectangle" fill="#99CC00"></path>
        <polygon id="+" fill="#000000" points="290.327637 687.318848 303.547852 687.318848 303.547852 696.876953 290.327637 696.876953 290.327637 711.818359 280.256836 711.818359 280.256836 696.876953 267 696.876953 267 687.318848 280.256836 687.318848 280.256836 673 290.327637 673"></polygon>
        <polygon id="Triangle" fill="#0A213E" transform="translate(511.500000, 396.000000) scale(1, -1) rotate(-270.000000) translate(-511.500000, -396.000000) " points="511.5 371 537 421 486 421"></polygon>
        <path d="M143.574951,99.0107422 C143.574951,96.9355365 142.842537,95.3425349 141.377686,94.2316895 C139.912834,93.1208441 137.276142,91.9489808 133.467529,90.7160645 C129.658917,89.4831481 126.64381,88.2685607 124.422119,87.0722656 C118.367401,83.8007649 115.340088,79.3940707 115.340088,73.8520508 C115.340088,70.971177 116.151847,68.4016226 117.775391,66.1433105 C119.398934,63.8849985 121.730454,62.1211001 124.77002,60.8515625 C127.809586,59.5820249 131.221417,58.9472656 135.005615,58.9472656 C138.814228,58.9472656 142.207749,59.636956 145.186279,61.0163574 C148.16481,62.3957589 150.478019,64.3427609 152.125977,66.8574219 C153.773934,69.3720829 154.5979,72.2284996 154.5979,75.4267578 L143.611572,75.4267578 C143.611572,72.9853394 142.842537,71.087165 141.304443,69.7321777 C139.76635,68.3771905 137.605727,67.699707 134.82251,67.699707 C132.136949,67.699707 130.049568,68.2673283 128.560303,69.4025879 C127.071037,70.5378475 126.326416,72.0331938 126.326416,73.8886719 C126.326416,75.622079 127.19921,77.0747012 128.944824,78.246582 C130.690438,79.4184629 133.259993,80.5170847 136.653564,81.5424805 C142.903596,83.4223727 147.456773,85.7538923 150.313232,88.5371094 C153.169692,91.3203264 154.5979,94.7870886 154.5979,98.9375 C154.5979,103.551781 152.852312,107.171129 149.361084,109.795654 C145.869856,112.420179 141.170196,113.732422 135.261963,113.732422 C131.16038,113.732422 127.425066,112.981697 124.055908,111.480225 C120.686751,109.978752 118.117196,107.921888 116.347168,105.30957 C114.57714,102.697253 113.692139,99.6699391 113.692139,96.2275391 L124.715088,96.2275391 C124.715088,102.111358 128.230678,105.053223 135.261963,105.053223 C137.874281,105.053223 139.912834,104.522222 141.377686,103.460205 C142.842537,102.398188 143.574951,100.915049 143.574951,99.0107422 Z M202.168701,68.5786133 L185.835693,68.5786133 L185.835693,113 L174.849365,113 L174.849365,68.5786133 L158.736084,68.5786133 L158.736084,59.6796875 L202.168701,59.6796875 L202.168701,68.5786133 Z M240.510986,89.8920898 L219.417236,89.8920898 L219.417236,104.174316 L244.173096,104.174316 L244.173096,113 L208.430908,113 L208.430908,59.6796875 L244.099854,59.6796875 L244.099854,68.5786133 L219.417236,68.5786133 L219.417236,81.2861328 L240.510986,81.2861328 L240.510986,89.8920898 Z M261.604736,94.2133789 L261.604736,113 L250.618408,113 L250.618408,59.6796875 L271.419189,59.6796875 C275.423116,59.6796875 278.944809,60.4121021 281.984375,61.8769531 C285.023941,63.3418042 287.361564,65.4230822 288.997314,68.1208496 C290.633065,70.818617 291.450928,73.8886547 291.450928,77.3310547 C291.450928,82.5556902 289.662616,86.675522 286.085938,89.6906738 C282.509259,92.7058256 277.559358,94.2133789 271.236084,94.2133789 L261.604736,94.2133789 Z M261.604736,85.3144531 L271.419189,85.3144531 C274.324477,85.3144531 276.540031,84.6308662 278.065918,83.2636719 C279.591805,81.8964775 280.354736,79.9433721 280.354736,77.4042969 C280.354736,74.7919791 279.585701,72.6801838 278.047607,71.0688477 C276.509514,69.4575115 274.385512,68.6274417 271.675537,68.5786133 L261.604736,68.5786133 L261.604736,85.3144531 Z M361.470459,87.5483398 C361.470459,92.7973895 360.542734,97.3993943 358.687256,101.354492 C356.831778,105.30959 354.176775,108.361317 350.722168,110.509766 C347.267561,112.658214 343.306419,113.732422 338.838623,113.732422 C334.419656,113.732422 330.476824,112.670421 327.01001,110.546387 C323.543196,108.422353 320.857676,105.388936 318.953369,101.446045 C317.049063,97.5031541 316.084717,92.9682874 316.060303,87.8413086 L316.060303,85.2045898 C316.060303,79.9555402 317.006338,75.335225 318.898438,71.3435059 C320.790537,67.3517867 323.46385,64.2878525 326.918457,62.1516113 C330.373064,60.0153702 334.321999,58.9472656 338.765381,58.9472656 C343.208762,58.9472656 347.157698,60.0153702 350.612305,62.1516113 C354.066912,64.2878525 356.740225,67.3517867 358.632324,71.3435059 C360.524424,75.335225 361.470459,79.9433333 361.470459,85.1679688 L361.470459,87.5483398 Z M350.337646,85.1313477 C350.337646,79.5404994 349.33668,75.292495 347.334717,72.387207 C345.332754,69.4819191 342.476337,68.0292969 338.765381,68.0292969 C335.078839,68.0292969 332.234629,69.4636087 330.232666,72.3322754 C328.230703,75.2009421 327.217529,79.4062223 327.193115,84.9482422 L327.193115,87.5483398 C327.193115,92.992703 328.194082,97.2162936 330.196045,100.219238 C332.198008,103.222183 335.078839,104.723633 338.838623,104.723633 C342.525165,104.723633 345.357168,103.277114 347.334717,100.384033 C349.312266,97.4909523 350.313232,93.2734652 350.337646,87.7314453 L350.337646,85.1313477 Z M412.813232,113 L401.826904,113 L380.440186,77.9169922 L380.440186,113 L369.453857,113 L369.453857,59.6796875 L380.440186,59.6796875 L401.863525,94.8359375 L401.863525,59.6796875 L412.813232,59.6796875 L412.813232,113 Z M454.488037,89.8920898 L433.394287,89.8920898 L433.394287,104.174316 L458.150146,104.174316 L458.150146,113 L422.407959,113 L422.407959,59.6796875 L458.076904,59.6796875 L458.076904,68.5786133 L433.394287,68.5786133 L433.394287,81.2861328 L454.488037,81.2861328 L454.488037,89.8920898 Z" id="STEP-ONE" fill="#000000"></path>
        <path d="M82.859375,584.980469 L82.859375,595 L77,595 L77,566.5625 L88.09375,566.5625 C90.2291773,566.5625 92.1074138,566.953121 93.7285156,567.734375 C95.3496175,568.515629 96.5963498,569.625644 97.46875,571.064453 C98.3411502,572.503262 98.7773438,574.140616 98.7773438,575.976562 C98.7773438,578.763035 97.8235772,580.960278 95.9160156,582.568359 C94.008454,584.17644 91.3685064,584.980469 87.9960938,584.980469 L82.859375,584.980469 Z M82.859375,580.234375 L88.09375,580.234375 C89.6432369,580.234375 90.8248657,579.869795 91.6386719,579.140625 C92.452478,578.411455 92.859375,577.369798 92.859375,576.015625 C92.859375,574.622389 92.4492229,573.496098 91.6289062,572.636719 C90.8085896,571.777339 89.6757885,571.334636 88.2304688,571.308594 L82.859375,571.308594 L82.859375,580.234375 Z M114.304688,579.160156 C113.536454,579.055989 112.859378,579.003906 112.273438,579.003906 C110.13801,579.003906 108.738285,579.726555 108.074219,581.171875 L108.074219,595 L102.429688,595 L102.429688,573.867188 L107.761719,573.867188 L107.917969,576.386719 C109.050787,574.446605 110.619782,573.476562 112.625,573.476562 C113.250003,573.476562 113.835935,573.561197 114.382812,573.730469 L114.304688,579.160156 Z M126.746094,595.390625 C123.64712,595.390625 121.124359,594.440114 119.177734,592.539062 C117.23111,590.638011 116.257812,588.105485 116.257812,584.941406 L116.257812,584.394531 C116.257812,582.272125 116.667965,580.374357 117.488281,578.701172 C118.308598,577.027986 119.470696,575.738937 120.974609,574.833984 C122.478523,573.929032 124.194001,573.476562 126.121094,573.476562 C129.011733,573.476562 131.287101,574.388012 132.947266,576.210938 C134.60743,578.033863 135.4375,580.618473 135.4375,583.964844 L135.4375,586.269531 L121.980469,586.269531 C122.162761,587.649746 122.712886,588.756506 123.630859,589.589844 C124.548833,590.423181 125.71093,590.839844 127.117188,590.839844 C129.291678,590.839844 130.990879,590.052091 132.214844,588.476562 L134.988281,591.582031 C134.141923,592.779954 132.996101,593.714189 131.550781,594.384766 C130.105462,595.055342 128.503915,595.390625 126.746094,595.390625 Z M126.101562,578.046875 C124.981765,578.046875 124.073571,578.424475 123.376953,579.179688 C122.680335,579.9349 122.234376,581.015618 122.039062,582.421875 L129.890625,582.421875 L129.890625,581.972656 C129.864583,580.72265 129.526045,579.755863 128.875,579.072266 C128.223955,578.388668 127.299485,578.046875 126.101562,578.046875 Z M150.085938,589.160156 C150.085938,588.470049 149.744144,587.926434 149.060547,587.529297 C148.37695,587.132159 147.279955,586.777345 145.769531,586.464844 C140.743464,585.410151 138.230469,583.274756 138.230469,580.058594 C138.230469,578.183584 139.008456,576.617845 140.564453,575.361328 C142.12045,574.104811 144.154935,573.476562 146.667969,573.476562 C149.350274,573.476562 151.495435,574.108067 153.103516,575.371094 C154.711597,576.634121 155.515625,578.274729 155.515625,580.292969 L149.871094,580.292969 C149.871094,579.485673 149.61068,578.818362 149.089844,578.291016 C148.569008,577.763669 147.755214,577.5 146.648438,577.5 C145.697912,577.5 144.962242,577.714842 144.441406,578.144531 C143.92057,578.574221 143.660156,579.12109 143.660156,579.785156 C143.660156,580.410159 143.956377,580.914712 144.548828,581.298828 C145.141279,581.682945 146.140618,582.014973 147.546875,582.294922 C148.953132,582.574871 150.138016,582.890623 151.101562,583.242188 C154.083348,584.335943 155.574219,586.230455 155.574219,588.925781 C155.574219,590.852874 154.747404,592.412103 153.09375,593.603516 C151.440096,594.794928 149.304701,595.390625 146.6875,595.390625 C144.916658,595.390625 143.344408,595.074873 141.970703,594.443359 C140.596998,593.811846 139.519535,592.945969 138.738281,591.845703 C137.957027,590.745437 137.566406,589.557298 137.566406,588.28125 L142.917969,588.28125 C142.970052,589.283859 143.341142,590.052081 144.03125,590.585938 C144.721358,591.119794 145.645828,591.386719 146.804688,591.386719 C147.885422,591.386719 148.702471,591.181643 149.255859,590.771484 C149.809248,590.361326 150.085938,589.824222 150.085938,589.160156 Z M170.652344,589.160156 C170.652344,588.470049 170.31055,587.926434 169.626953,587.529297 C168.943356,587.132159 167.846362,586.777345 166.335938,586.464844 C161.309871,585.410151 158.796875,583.274756 158.796875,580.058594 C158.796875,578.183584 159.574862,576.617845 161.130859,575.361328 C162.686857,574.104811 164.721342,573.476562 167.234375,573.476562 C169.91668,573.476562 172.061841,574.108067 173.669922,575.371094 C175.278003,576.634121 176.082031,578.274729 176.082031,580.292969 L170.4375,580.292969 C170.4375,579.485673 170.177086,578.818362 169.65625,578.291016 C169.135414,577.763669 168.32162,577.5 167.214844,577.5 C166.264318,577.5 165.528648,577.714842 165.007812,578.144531 C164.486977,578.574221 164.226562,579.12109 164.226562,579.785156 C164.226562,580.410159 164.522783,580.914712 165.115234,581.298828 C165.707685,581.682945 166.707024,582.014973 168.113281,582.294922 C169.519538,582.574871 170.704422,582.890623 171.667969,583.242188 C174.649754,584.335943 176.140625,586.230455 176.140625,588.925781 C176.140625,590.852874 175.31381,592.412103 173.660156,593.603516 C172.006502,594.794928 169.871107,595.390625 167.253906,595.390625 C165.483064,595.390625 163.910814,595.074873 162.537109,594.443359 C161.163405,593.811846 160.085941,592.945969 159.304688,591.845703 C158.523434,590.745437 158.132812,589.557298 158.132812,588.28125 L163.484375,588.28125 C163.536459,589.283859 163.907549,590.052081 164.597656,590.585938 C165.287764,591.119794 166.212234,591.386719 167.371094,591.386719 C168.451828,591.386719 169.268877,591.181643 169.822266,590.771484 C170.375654,590.361326 170.652344,589.824222 170.652344,589.160156 Z M196.492188,568.671875 L196.492188,573.867188 L200.105469,573.867188 L200.105469,578.007812 L196.492188,578.007812 L196.492188,588.554688 C196.492188,589.335941 196.641926,589.895832 196.941406,590.234375 C197.240887,590.572918 197.813798,590.742188 198.660156,590.742188 C199.285159,590.742188 199.838539,590.696615 200.320312,590.605469 L200.320312,594.882812 C199.213536,595.221356 198.074225,595.390625 196.902344,595.390625 C192.943991,595.390625 190.925782,593.391947 190.847656,589.394531 L190.847656,578.007812 L187.761719,578.007812 L187.761719,573.867188 L190.847656,573.867188 L190.847656,568.671875 L196.492188,568.671875 Z M208.757812,576.171875 C210.255216,574.374991 212.136707,573.476562 214.402344,573.476562 C218.9857,573.476562 221.309896,576.139296 221.375,581.464844 L221.375,595 L215.730469,595 L215.730469,581.621094 C215.730469,580.41015 215.470055,579.514977 214.949219,578.935547 C214.428383,578.356117 213.562506,578.066406 212.351562,578.066406 C210.697908,578.066406 209.500004,578.704421 208.757812,579.980469 L208.757812,595 L203.113281,595 L203.113281,565 L208.757812,565 L208.757812,576.171875 Z M235.359375,595.390625 C232.260401,595.390625 229.73764,594.440114 227.791016,592.539062 C225.844391,590.638011 224.871094,588.105485 224.871094,584.941406 L224.871094,584.394531 C224.871094,582.272125 225.281246,580.374357 226.101562,578.701172 C226.921879,577.027986 228.083977,575.738937 229.587891,574.833984 C231.091804,573.929032 232.807282,573.476562 234.734375,573.476562 C237.625014,573.476562 239.900382,574.388012 241.560547,576.210938 C243.220711,578.033863 244.050781,580.618473 244.050781,583.964844 L244.050781,586.269531 L230.59375,586.269531 C230.776043,587.649746 231.326167,588.756506 232.244141,589.589844 C233.162114,590.423181 234.324212,590.839844 235.730469,590.839844 C237.904959,590.839844 239.604161,590.052091 240.828125,588.476562 L243.601562,591.582031 C242.755204,592.779954 241.609382,593.714189 240.164062,594.384766 C238.718743,595.055342 237.117196,595.390625 235.359375,595.390625 Z M234.714844,578.046875 C233.595046,578.046875 232.686852,578.424475 231.990234,579.179688 C231.293616,579.9349 230.847657,581.015618 230.652344,582.421875 L238.503906,582.421875 L238.503906,581.972656 C238.477864,580.72265 238.139326,579.755863 237.488281,579.072266 C236.837236,578.388668 235.912766,578.046875 234.714844,578.046875 Z M256.394531,584.277344 C256.394531,581.03514 257.166008,578.424489 258.708984,576.445312 C260.251961,574.466136 262.332018,573.476562 264.949219,573.476562 C267.266939,573.476562 269.070306,574.270825 270.359375,575.859375 L270.59375,573.867188 L275.710938,573.867188 L275.710938,594.296875 C275.710938,596.145843 275.29102,597.753899 274.451172,599.121094 C273.611324,600.488288 272.429695,601.529944 270.90625,602.246094 C269.382805,602.962243 267.598969,603.320312 265.554688,603.320312 C264.005201,603.320312 262.494799,603.011071 261.023438,602.392578 C259.552076,601.774085 258.438806,600.976567 257.683594,600 L260.183594,596.5625 C261.589851,598.138029 263.295563,598.925781 265.300781,598.925781 C266.798185,598.925781 267.963538,598.525395 268.796875,597.724609 C269.630212,596.923824 270.046875,595.787768 270.046875,594.316406 L270.046875,593.183594 C268.744785,594.654955 267.032563,595.390625 264.910156,595.390625 C262.371081,595.390625 260.317065,594.397796 258.748047,592.412109 C257.179029,590.426422 256.394531,587.792985 256.394531,584.511719 L256.394531,584.277344 Z M262.039062,584.6875 C262.039062,586.601572 262.423173,588.102208 263.191406,589.189453 C263.959639,590.276698 265.014316,590.820312 266.355469,590.820312 C268.074227,590.820312 269.304684,590.175788 270.046875,588.886719 L270.046875,580 C269.291663,578.710931 268.074227,578.066406 266.394531,578.066406 C265.040358,578.066406 263.975915,578.619786 263.201172,579.726562 C262.426428,580.833339 262.039062,582.486968 262.039062,584.6875 Z M291.921875,579.160156 C291.153642,579.055989 290.476565,579.003906 289.890625,579.003906 C287.755198,579.003906 286.355472,579.726555 285.691406,581.171875 L285.691406,595 L280.046875,595 L280.046875,573.867188 L285.378906,573.867188 L285.535156,576.386719 C286.667974,574.446605 288.236969,573.476562 290.242188,573.476562 C290.867191,573.476562 291.453122,573.561197 292,573.730469 L291.921875,579.160156 Z M304.363281,595.390625 C301.264307,595.390625 298.741546,594.440114 296.794922,592.539062 C294.848298,590.638011 293.875,588.105485 293.875,584.941406 L293.875,584.394531 C293.875,582.272125 294.285152,580.374357 295.105469,578.701172 C295.925785,577.027986 297.087883,575.738937 298.591797,574.833984 C300.095711,573.929032 301.811188,573.476562 303.738281,573.476562 C306.628921,573.476562 308.904289,574.388012 310.564453,576.210938 C312.224618,578.033863 313.054688,580.618473 313.054688,583.964844 L313.054688,586.269531 L299.597656,586.269531 C299.779949,587.649746 300.330074,588.756506 301.248047,589.589844 C302.16602,590.423181 303.328118,590.839844 304.734375,590.839844 C306.908865,590.839844 308.608067,590.052091 309.832031,588.476562 L312.605469,591.582031 C311.75911,592.779954 310.613288,593.714189 309.167969,594.384766 C307.722649,595.055342 306.121103,595.390625 304.363281,595.390625 Z M303.71875,578.046875 C302.598953,578.046875 301.690759,578.424475 300.994141,579.179688 C300.297523,579.9349 299.851563,581.015618 299.65625,582.421875 L307.507812,582.421875 L307.507812,581.972656 C307.481771,580.72265 307.143232,579.755863 306.492188,579.072266 C305.841143,578.388668 304.916673,578.046875 303.71875,578.046875 Z M325.984375,595.390625 C322.885401,595.390625 320.36264,594.440114 318.416016,592.539062 C316.469391,590.638011 315.496094,588.105485 315.496094,584.941406 L315.496094,584.394531 C315.496094,582.272125 315.906246,580.374357 316.726562,578.701172 C317.546879,577.027986 318.708977,575.738937 320.212891,574.833984 C321.716804,573.929032 323.432282,573.476562 325.359375,573.476562 C328.250014,573.476562 330.525382,574.388012 332.185547,576.210938 C333.845711,578.033863 334.675781,580.618473 334.675781,583.964844 L334.675781,586.269531 L321.21875,586.269531 C321.401043,587.649746 321.951167,588.756506 322.869141,589.589844 C323.787114,590.423181 324.949212,590.839844 326.355469,590.839844 C328.529959,590.839844 330.229161,590.052091 331.453125,588.476562 L334.226562,591.582031 C333.380204,592.779954 332.234382,593.714189 330.789062,594.384766 C329.343743,595.055342 327.742196,595.390625 325.984375,595.390625 Z M325.339844,578.046875 C324.220046,578.046875 323.311852,578.424475 322.615234,579.179688 C321.918616,579.9349 321.472657,581.015618 321.277344,582.421875 L329.128906,582.421875 L329.128906,581.972656 C329.102864,580.72265 328.764326,579.755863 328.113281,579.072266 C327.462236,578.388668 326.537766,578.046875 325.339844,578.046875 Z M343.074219,573.867188 L343.25,576.308594 C344.760424,574.420563 346.785144,573.476562 349.324219,573.476562 C351.563813,573.476562 353.230463,574.134108 354.324219,575.449219 C355.417974,576.764329 355.977864,578.730456 356.003906,581.347656 L356.003906,595 L350.359375,595 L350.359375,581.484375 C350.359375,580.286452 350.098961,579.41732 349.578125,578.876953 C349.057289,578.336586 348.191412,578.066406 346.980469,578.066406 C345.391919,578.066406 344.200525,578.743483 343.40625,580.097656 L343.40625,595 L337.761719,595 L337.761719,573.867188 L343.074219,573.867188 Z M389.285156,584.628906 C389.285156,588.01434 388.562507,590.654287 387.117188,592.548828 C385.671868,594.443369 383.653659,595.390625 381.0625,595.390625 C378.770822,595.390625 376.941413,594.511728 375.574219,592.753906 L375.320312,595 L370.242188,595 L370.242188,565 L375.886719,565 L375.886719,575.761719 C377.188809,574.238274 378.901031,573.476562 381.023438,573.476562 C383.601575,573.476562 385.62304,574.423819 387.087891,576.318359 C388.552742,578.2129 389.285156,580.878889 389.285156,584.316406 L389.285156,584.628906 Z M383.640625,584.21875 C383.640625,582.083323 383.302087,580.524093 382.625,579.541016 C381.947913,578.557938 380.938809,578.066406 379.597656,578.066406 C377.800772,578.066406 376.563805,578.802076 375.886719,580.273438 L375.886719,588.613281 C376.576826,590.097664 377.826814,590.839844 379.636719,590.839844 C381.459645,590.839844 382.657549,589.941415 383.230469,588.144531 C383.503908,587.285152 383.640625,585.976571 383.640625,584.21875 Z M405.417969,592.851562 C404.024733,594.544279 402.097669,595.390625 399.636719,595.390625 C397.371082,595.390625 395.642584,594.73959 394.451172,593.4375 C393.25976,592.13541 392.651042,590.227877 392.625,587.714844 L392.625,573.867188 L398.269531,573.867188 L398.269531,587.519531 C398.269531,589.720063 399.272125,590.820312 401.277344,590.820312 C403.191416,590.820312 404.506507,590.156257 405.222656,588.828125 L405.222656,573.867188 L410.886719,573.867188 L410.886719,595 L405.574219,595 L405.417969,592.851562 Z M421.902344,568.671875 L421.902344,573.867188 L425.515625,573.867188 L425.515625,578.007812 L421.902344,578.007812 L421.902344,588.554688 C421.902344,589.335941 422.052082,589.895832 422.351562,590.234375 C422.651043,590.572918 423.223954,590.742188 424.070312,590.742188 C424.695316,590.742188 425.248696,590.696615 425.730469,590.605469 L425.730469,594.882812 C424.623692,595.221356 423.484381,595.390625 422.3125,595.390625 C418.354147,595.390625 416.335938,593.391947 416.257812,589.394531 L416.257812,578.007812 L413.171875,578.007812 L413.171875,573.867188 L416.257812,573.867188 L416.257812,568.671875 L421.902344,568.671875 Z M435.417969,568.671875 L435.417969,573.867188 L439.03125,573.867188 L439.03125,578.007812 L435.417969,578.007812 L435.417969,588.554688 C435.417969,589.335941 435.567707,589.895832 435.867188,590.234375 C436.166668,590.572918 436.739579,590.742188 437.585938,590.742188 C438.210941,590.742188 438.764321,590.696615 439.246094,590.605469 L439.246094,594.882812 C438.139317,595.221356 437.000006,595.390625 435.828125,595.390625 C431.869772,595.390625 429.851563,593.391947 429.773438,589.394531 L429.773438,578.007812 L426.6875,578.007812 L426.6875,573.867188 L429.773438,573.867188 L429.773438,568.671875 L435.417969,568.671875 Z M441.296875,584.238281 C441.296875,582.141917 441.700517,580.273446 442.507812,578.632812 C443.315108,576.992179 444.477206,575.722661 445.994141,574.824219 C447.511075,573.925777 449.272125,573.476562 451.277344,573.476562 C454.128921,573.476562 456.456371,574.34895 458.259766,576.09375 C460.06316,577.83855 461.069009,580.208318 461.277344,583.203125 L461.316406,584.648438 C461.316406,587.890641 460.411467,590.491527 458.601562,592.451172 C456.791658,594.410817 454.363296,595.390625 451.316406,595.390625 C448.269516,595.390625 445.8379,594.414072 444.021484,592.460938 C442.205069,590.507803 441.296875,587.851579 441.296875,584.492188 L441.296875,584.238281 Z M446.941406,584.648438 C446.941406,586.653656 447.319007,588.186844 448.074219,589.248047 C448.829431,590.30925 449.910149,590.839844 451.316406,590.839844 C452.683601,590.839844 453.751298,590.31576 454.519531,589.267578 C455.287764,588.219396 455.671875,586.54298 455.671875,584.238281 C455.671875,582.272126 455.287764,580.748703 454.519531,579.667969 C453.751298,578.587234 452.67058,578.046875 451.277344,578.046875 C449.897129,578.046875 448.829431,578.583979 448.074219,579.658203 C447.319007,580.732427 446.941406,582.395822 446.941406,584.648438 Z M469.988281,573.867188 L470.164062,576.308594 C471.674487,574.420563 473.699206,573.476562 476.238281,573.476562 C478.477876,573.476562 480.144526,574.134108 481.238281,575.449219 C482.332037,576.764329 482.891927,578.730456 482.917969,581.347656 L482.917969,595 L477.273438,595 L477.273438,581.484375 C477.273438,580.286452 477.013023,579.41732 476.492188,578.876953 C475.971352,578.336586 475.105475,578.066406 473.894531,578.066406 C472.305982,578.066406 471.114587,578.743483 470.320312,580.097656 L470.320312,595 L464.675781,595 L464.675781,573.867188 L469.988281,573.867188 Z M487.46875,592.226562 C487.46875,591.328121 487.771481,590.598961 488.376953,590.039062 C488.982425,589.479164 489.740881,589.199219 490.652344,589.199219 C491.576828,589.199219 492.341794,589.479164 492.947266,590.039062 C493.552737,590.598961 493.855469,591.328121 493.855469,592.226562 C493.855469,593.111984 493.555993,593.831377 492.957031,594.384766 C492.35807,594.938154 491.589848,595.214844 490.652344,595.214844 C489.72786,595.214844 488.966149,594.938154 488.367188,594.384766 C487.768226,593.831377 487.46875,593.111984 487.46875,592.226562 Z M487.46875,576.230469 C487.46875,575.332027 487.771481,574.602867 488.376953,574.042969 C488.982425,573.48307 489.740881,573.203125 490.652344,573.203125 C491.576828,573.203125 492.341794,573.48307 492.947266,574.042969 C493.552737,574.602867 493.855469,575.332027 493.855469,576.230469 C493.855469,577.11589 493.555993,577.835284 492.957031,578.388672 C492.35807,578.94206 491.589848,579.21875 490.652344,579.21875 C489.72786,579.21875 488.966149,578.94206 488.367188,578.388672 C487.768226,577.835284 487.46875,577.11589 487.46875,576.230469 Z" id="Press-the-green-butt" fill="#000000"></path>
        <path d="M185.693359,336.589844 L181.025391,336.589844 L181.025391,347 L175.166016,347 L175.166016,318.5625 L185.732422,318.5625 C189.091814,318.5625 191.682934,319.31119 193.505859,320.808594 C195.328785,322.305997 196.240234,324.421861 196.240234,327.15625 C196.240234,329.096364 195.820317,330.714186 194.980469,332.009766 C194.140621,333.305345 192.867847,334.337236 191.162109,335.105469 L197.314453,346.726562 L197.314453,347 L191.025391,347 L185.693359,336.589844 Z M181.025391,331.84375 L185.751953,331.84375 C187.223315,331.84375 188.362626,331.469405 189.169922,330.720703 C189.977218,329.972001 190.380859,328.940111 190.380859,327.625 C190.380859,326.283847 190.000004,325.229171 189.238281,324.460938 C188.476559,323.692704 187.307951,323.308594 185.732422,323.308594 L181.025391,323.308594 L181.025391,331.84375 Z M199.443359,336.238281 C199.443359,334.141917 199.847001,332.273446 200.654297,330.632812 C201.461593,328.992179 202.62369,327.722661 204.140625,326.824219 C205.65756,325.925777 207.41861,325.476562 209.423828,325.476562 C212.275405,325.476562 214.602856,326.34895 216.40625,328.09375 C218.209644,329.83855 219.215494,332.208318 219.423828,335.203125 L219.462891,336.648438 C219.462891,339.890641 218.557952,342.491527 216.748047,344.451172 C214.938142,346.410817 212.509781,347.390625 209.462891,347.390625 C206.416,347.390625 203.984384,346.414072 202.167969,344.460938 C200.351553,342.507803 199.443359,339.851579 199.443359,336.492188 L199.443359,336.238281 Z M205.087891,336.648438 C205.087891,338.653656 205.465491,340.186844 206.220703,341.248047 C206.975915,342.30925 208.056634,342.839844 209.462891,342.839844 C210.830085,342.839844 211.897783,342.31576 212.666016,341.267578 C213.434249,340.219396 213.818359,338.54298 213.818359,336.238281 C213.818359,334.272126 213.434249,332.748703 212.666016,331.667969 C211.897783,330.587234 210.817064,330.046875 209.423828,330.046875 C208.043613,330.046875 206.975915,330.583979 206.220703,331.658203 C205.465491,332.732427 205.087891,334.395822 205.087891,336.648438 Z M231.728516,342.839844 C232.770187,342.839844 233.616533,342.553388 234.267578,341.980469 C234.918623,341.407549 235.257161,340.645838 235.283203,339.695312 L240.576172,339.695312 C240.563151,341.127611 240.17253,342.439447 239.404297,343.630859 C238.636064,344.822272 237.584642,345.746742 236.25,346.404297 C234.915358,347.061852 233.440763,347.390625 231.826172,347.390625 C228.805323,347.390625 226.422535,346.430348 224.677734,344.509766 C222.932934,342.589183 222.060547,339.936215 222.060547,336.550781 L222.060547,336.179688 C222.060547,332.924463 222.926424,330.326833 224.658203,328.386719 C226.389983,326.446605 228.766261,325.476562 231.787109,325.476562 C234.430352,325.476562 236.549471,326.228508 238.144531,327.732422 C239.739591,329.236336 240.55013,331.238269 240.576172,333.738281 L235.283203,333.738281 C235.257161,332.644526 234.918623,331.755863 234.267578,331.072266 C233.616533,330.388668 232.757167,330.046875 231.689453,330.046875 C230.374342,330.046875 229.381514,330.525386 228.710938,331.482422 C228.040361,332.439458 227.705078,333.992177 227.705078,336.140625 L227.705078,336.726562 C227.705078,338.901053 228.037106,340.463537 228.701172,341.414062 C229.365238,342.364588 230.374342,342.839844 231.728516,342.839844 Z M251.474609,338.523438 L249.443359,340.554688 L249.443359,347 L243.798828,347 L243.798828,317 L249.443359,317 L249.443359,333.621094 L250.537109,332.214844 L255.947266,325.867188 L262.724609,325.867188 L255.087891,334.675781 L263.388672,347 L256.904297,347 L251.474609,338.523438 Z M274.892578,347.390625 C271.793604,347.390625 269.270843,346.440114 267.324219,344.539062 C265.377594,342.638011 264.404297,340.105485 264.404297,336.941406 L264.404297,336.394531 C264.404297,334.272125 264.814449,332.374357 265.634766,330.701172 C266.455082,329.027986 267.61718,327.738937 269.121094,326.833984 C270.625008,325.929032 272.340485,325.476562 274.267578,325.476562 C277.158218,325.476562 279.433585,326.388012 281.09375,328.210938 C282.753915,330.033863 283.583984,332.618473 283.583984,335.964844 L283.583984,338.269531 L270.126953,338.269531 C270.309246,339.649746 270.85937,340.756506 271.777344,341.589844 C272.695317,342.423181 273.857415,342.839844 275.263672,342.839844 C277.438162,342.839844 279.137364,342.052091 280.361328,340.476562 L283.134766,343.582031 C282.288407,344.779954 281.142585,345.714189 279.697266,346.384766 C278.251946,347.055342 276.650399,347.390625 274.892578,347.390625 Z M274.248047,330.046875 C273.12825,330.046875 272.220056,330.424475 271.523438,331.179688 C270.826819,331.9349 270.38086,333.015618 270.185547,334.421875 L278.037109,334.421875 L278.037109,333.972656 C278.011068,332.72265 277.672529,331.755863 277.021484,331.072266 C276.370439,330.388668 275.44597,330.046875 274.248047,330.046875 Z M293.544922,320.671875 L293.544922,325.867188 L297.158203,325.867188 L297.158203,330.007812 L293.544922,330.007812 L293.544922,340.554688 C293.544922,341.335941 293.69466,341.895832 293.994141,342.234375 C294.293621,342.572918 294.866532,342.742188 295.712891,342.742188 C296.337894,342.742188 296.891274,342.696615 297.373047,342.605469 L297.373047,346.882812 C296.266271,347.221356 295.126959,347.390625 293.955078,347.390625 C289.996725,347.390625 287.978516,345.391947 287.900391,341.394531 L287.900391,330.007812 L284.814453,330.007812 L284.814453,325.867188 L287.900391,325.867188 L287.900391,320.671875 L293.544922,320.671875 Z M332.041016,323.308594 L323.330078,323.308594 L323.330078,347 L317.470703,347 L317.470703,323.308594 L308.876953,323.308594 L308.876953,318.5625 L332.041016,318.5625 L332.041016,323.308594 Z M347.255859,347 C346.995441,346.492185 346.806641,345.860681 346.689453,345.105469 C345.322259,346.628914 343.544933,347.390625 341.357422,347.390625 C339.287099,347.390625 337.571621,346.791673 336.210938,345.59375 C334.850254,344.395827 334.169922,342.885426 334.169922,341.0625 C334.169922,338.822905 334.999992,337.104173 336.660156,335.90625 C338.320321,334.708327 340.719385,334.102865 343.857422,334.089844 L346.455078,334.089844 L346.455078,332.878906 C346.455078,331.902339 346.20443,331.121097 345.703125,330.535156 C345.20182,329.949216 344.410813,329.65625 343.330078,329.65625 C342.379553,329.65625 341.634117,329.884112 341.09375,330.339844 C340.553383,330.795575 340.283203,331.420569 340.283203,332.214844 L334.638672,332.214844 C334.638672,330.990879 335.016272,329.858078 335.771484,328.816406 C336.526696,327.774734 337.594394,326.957685 338.974609,326.365234 C340.354825,325.772783 341.904288,325.476562 343.623047,325.476562 C346.227227,325.476562 348.294263,326.130853 349.824219,327.439453 C351.354174,328.748053 352.119141,330.587228 352.119141,332.957031 L352.119141,342.117188 C352.132162,344.122406 352.412107,345.639318 352.958984,346.667969 L352.958984,347 L347.255859,347 Z M342.587891,343.074219 C343.421228,343.074219 344.18945,342.888674 344.892578,342.517578 C345.595707,342.146483 346.116535,341.648441 346.455078,341.023438 L346.455078,337.390625 L344.345703,337.390625 C341.520168,337.390625 340.016277,338.367178 339.833984,340.320312 L339.814453,340.652344 C339.814453,341.355472 340.061846,341.934894 340.556641,342.390625 C341.051435,342.846356 341.728511,343.074219 342.587891,343.074219 Z M375.498047,336.628906 C375.498047,340.01434 374.775398,342.654287 373.330078,344.548828 C371.884758,346.443369 369.866549,347.390625 367.275391,347.390625 C364.983713,347.390625 363.154304,346.511728 361.787109,344.753906 L361.533203,347 L356.455078,347 L356.455078,317 L362.099609,317 L362.099609,327.761719 C363.401699,326.238274 365.113922,325.476562 367.236328,325.476562 C369.814466,325.476562 371.83593,326.423819 373.300781,328.318359 C374.765632,330.2129 375.498047,332.878889 375.498047,336.316406 L375.498047,336.628906 Z M369.853516,336.21875 C369.853516,334.083323 369.514977,332.524093 368.837891,331.541016 C368.160804,330.557938 367.151699,330.066406 365.810547,330.066406 C364.013663,330.066406 362.776696,330.802076 362.099609,332.273438 L362.099609,340.613281 C362.789717,342.097664 364.039704,342.839844 365.849609,342.839844 C367.672535,342.839844 368.87044,341.941415 369.443359,340.144531 C369.716798,339.285152 369.853516,337.976571 369.853516,336.21875 Z M390.419922,341.160156 C390.419922,340.470049 390.078128,339.926434 389.394531,339.529297 C388.710934,339.132159 387.61394,338.777345 386.103516,338.464844 C381.077449,337.410151 378.564453,335.274756 378.564453,332.058594 C378.564453,330.183584 379.34244,328.617845 380.898438,327.361328 C382.454435,326.104811 384.48892,325.476562 387.001953,325.476562 C389.684258,325.476562 391.829419,326.108067 393.4375,327.371094 C395.045581,328.634121 395.849609,330.274729 395.849609,332.292969 L390.205078,332.292969 C390.205078,331.485673 389.944664,330.818362 389.423828,330.291016 C388.902992,329.763669 388.089198,329.5 386.982422,329.5 C386.031896,329.5 385.296227,329.714842 384.775391,330.144531 C384.254555,330.574221 383.994141,331.12109 383.994141,331.785156 C383.994141,332.410159 384.290362,332.914712 384.882812,333.298828 C385.475263,333.682945 386.474602,334.014973 387.880859,334.294922 C389.287116,334.574871 390.472,334.890623 391.435547,335.242188 C394.417333,336.335943 395.908203,338.230455 395.908203,340.925781 C395.908203,342.852874 395.081388,344.412103 393.427734,345.603516 C391.77408,346.794928 389.638685,347.390625 387.021484,347.390625 C385.250642,347.390625 383.678392,347.074873 382.304688,346.443359 C380.930983,345.811846 379.85352,344.945969 379.072266,343.845703 C378.291012,342.745437 377.900391,341.557298 377.900391,340.28125 L383.251953,340.28125 C383.304037,341.283859 383.675127,342.052081 384.365234,342.585938 C385.055342,343.119794 385.979812,343.386719 387.138672,343.386719 C388.219406,343.386719 389.036456,343.181643 389.589844,342.771484 C390.143232,342.361326 390.419922,341.824222 390.419922,341.160156 Z M182.568359,383.277344 C182.568359,379.983056 183.307284,377.359385 184.785156,375.40625 C186.263028,373.453115 188.284492,372.476562 190.849609,372.476562 C192.906911,372.476562 194.606113,373.244784 195.947266,374.78125 L195.947266,364 L201.611328,364 L201.611328,394 L196.513672,394 L196.240234,391.753906 C194.833977,393.511728 193.0241,394.390625 190.810547,394.390625 C188.323555,394.390625 186.328133,393.410817 184.824219,391.451172 C183.320305,389.491527 182.568359,386.766945 182.568359,383.277344 Z M188.212891,383.6875 C188.212891,385.666677 188.557939,387.183588 189.248047,388.238281 C189.938154,389.292974 190.940749,389.820312 192.255859,389.820312 C194.00066,389.820312 195.231116,389.084643 195.947266,387.613281 L195.947266,379.273438 C195.244137,377.802076 194.026701,377.066406 192.294922,377.066406 C189.573554,377.066406 188.212891,379.273415 188.212891,383.6875 Z M205.107422,383.238281 C205.107422,381.141917 205.511064,379.273446 206.318359,377.632812 C207.125655,375.992179 208.287753,374.722661 209.804688,373.824219 C211.321622,372.925777 213.082672,372.476562 215.087891,372.476562 C217.939467,372.476562 220.266918,373.34895 222.070312,375.09375 C223.873707,376.83855 224.879556,379.208318 225.087891,382.203125 L225.126953,383.648438 C225.126953,386.890641 224.222014,389.491527 222.412109,391.451172 C220.602204,393.410817 218.173843,394.390625 215.126953,394.390625 C212.080063,394.390625 209.648447,393.414072 207.832031,391.460938 C206.015616,389.507803 205.107422,386.851579 205.107422,383.492188 L205.107422,383.238281 Z M210.751953,383.648438 C210.751953,385.653656 211.129554,387.186844 211.884766,388.248047 C212.639978,389.30925 213.720696,389.839844 215.126953,389.839844 C216.494147,389.839844 217.561845,389.31576 218.330078,388.267578 C219.098311,387.219396 219.482422,385.54298 219.482422,383.238281 C219.482422,381.272126 219.098311,379.748703 218.330078,378.667969 C217.561845,377.587234 216.481127,377.046875 215.087891,377.046875 C213.707675,377.046875 212.639978,377.583979 211.884766,378.658203 C211.129554,379.732427 210.751953,381.395822 210.751953,383.648438 Z M238.330078,394.390625 C235.231104,394.390625 232.708343,393.440114 230.761719,391.539062 C228.815094,389.638011 227.841797,387.105485 227.841797,383.941406 L227.841797,383.394531 C227.841797,381.272125 228.251949,379.374357 229.072266,377.701172 C229.892582,376.027986 231.05468,374.738937 232.558594,373.833984 C234.062508,372.929032 235.777985,372.476562 237.705078,372.476562 C240.595718,372.476562 242.871085,373.388012 244.53125,375.210938 C246.191415,377.033863 247.021484,379.618473 247.021484,382.964844 L247.021484,385.269531 L233.564453,385.269531 C233.746746,386.649746 234.29687,387.756506 235.214844,388.589844 C236.132817,389.423181 237.294915,389.839844 238.701172,389.839844 C240.875662,389.839844 242.574864,389.052091 243.798828,387.476562 L246.572266,390.582031 C245.725907,391.779954 244.580085,392.714189 243.134766,393.384766 C241.689446,394.055342 240.087899,394.390625 238.330078,394.390625 Z M237.685547,377.046875 C236.56575,377.046875 235.657556,377.424475 234.960938,378.179688 C234.264319,378.9349 233.81836,380.015618 233.623047,381.421875 L241.474609,381.421875 L241.474609,380.972656 C241.448568,379.72265 241.110029,378.755863 240.458984,378.072266 C239.807939,377.388668 238.88347,377.046875 237.685547,377.046875 Z M261.669922,388.160156 C261.669922,387.470049 261.328128,386.926434 260.644531,386.529297 C259.960934,386.132159 258.86394,385.777345 257.353516,385.464844 C252.327449,384.410151 249.814453,382.274756 249.814453,379.058594 C249.814453,377.183584 250.59244,375.617845 252.148438,374.361328 C253.704435,373.104811 255.73892,372.476562 258.251953,372.476562 C260.934258,372.476562 263.079419,373.108067 264.6875,374.371094 C266.295581,375.634121 267.099609,377.274729 267.099609,379.292969 L261.455078,379.292969 C261.455078,378.485673 261.194664,377.818362 260.673828,377.291016 C260.152992,376.763669 259.339198,376.5 258.232422,376.5 C257.281896,376.5 256.546227,376.714842 256.025391,377.144531 C255.504555,377.574221 255.244141,378.12109 255.244141,378.785156 C255.244141,379.410159 255.540362,379.914712 256.132812,380.298828 C256.725263,380.682945 257.724602,381.014973 259.130859,381.294922 C260.537116,381.574871 261.722,381.890623 262.685547,382.242188 C265.667333,383.335943 267.158203,385.230455 267.158203,387.925781 C267.158203,389.852874 266.331388,391.412103 264.677734,392.603516 C263.02408,393.794928 260.888685,394.390625 258.271484,394.390625 C256.500642,394.390625 254.928392,394.074873 253.554688,393.443359 C252.180983,392.811846 251.10352,391.945969 250.322266,390.845703 C249.541012,389.745437 249.150391,388.557298 249.150391,387.28125 L254.501953,387.28125 C254.554037,388.283859 254.925127,389.052081 255.615234,389.585938 C256.305342,390.119794 257.229812,390.386719 258.388672,390.386719 C259.469406,390.386719 260.286456,390.181643 260.839844,389.771484 C261.393232,389.361326 261.669922,388.824222 261.669922,388.160156 Z M292.998047,394 C292.737629,393.492185 292.548829,392.860681 292.431641,392.105469 C291.064446,393.628914 289.28712,394.390625 287.099609,394.390625 C285.029287,394.390625 283.313809,393.791673 281.953125,392.59375 C280.592441,391.395827 279.912109,389.885426 279.912109,388.0625 C279.912109,385.822905 280.742179,384.104173 282.402344,382.90625 C284.062508,381.708327 286.461573,381.102865 289.599609,381.089844 L292.197266,381.089844 L292.197266,379.878906 C292.197266,378.902339 291.946617,378.121097 291.445312,377.535156 C290.944008,376.949216 290.153,376.65625 289.072266,376.65625 C288.12174,376.65625 287.376305,376.884112 286.835938,377.339844 C286.29557,377.795575 286.025391,378.420569 286.025391,379.214844 L280.380859,379.214844 C280.380859,377.990879 280.75846,376.858078 281.513672,375.816406 C282.268884,374.774734 283.336582,373.957685 284.716797,373.365234 C286.097012,372.772783 287.646476,372.476562 289.365234,372.476562 C291.969414,372.476562 294.036451,373.130853 295.566406,374.439453 C297.096362,375.748053 297.861328,377.587228 297.861328,379.957031 L297.861328,389.117188 C297.874349,391.122406 298.154294,392.639318 298.701172,393.667969 L298.701172,394 L292.998047,394 Z M288.330078,390.074219 C289.163416,390.074219 289.931637,389.888674 290.634766,389.517578 C291.337894,389.146483 291.858722,388.648441 292.197266,388.023438 L292.197266,384.390625 L290.087891,384.390625 C287.262356,384.390625 285.758464,385.367178 285.576172,387.320312 L285.556641,387.652344 C285.556641,388.355472 285.804034,388.934894 286.298828,389.390625 C286.793622,389.846356 287.470699,390.074219 288.330078,390.074219 Z M308.154297,394 L302.490234,394 L302.490234,364 L308.154297,364 L308.154297,394 Z M318.759766,394 L313.095703,394 L313.095703,364 L318.759766,364 L318.759766,394 Z M340.126953,367.671875 L340.126953,372.867188 L343.740234,372.867188 L343.740234,377.007812 L340.126953,377.007812 L340.126953,387.554688 C340.126953,388.335941 340.276691,388.895832 340.576172,389.234375 C340.875653,389.572918 341.448563,389.742188 342.294922,389.742188 C342.919925,389.742188 343.473305,389.696615 343.955078,389.605469 L343.955078,393.882812 C342.848302,394.221356 341.70899,394.390625 340.537109,394.390625 C336.578756,394.390625 334.560547,392.391947 334.482422,388.394531 L334.482422,377.007812 L331.396484,377.007812 L331.396484,372.867188 L334.482422,372.867188 L334.482422,367.671875 L340.126953,367.671875 Z M352.392578,375.171875 C353.889981,373.374991 355.771473,372.476562 358.037109,372.476562 C362.620466,372.476562 364.944661,375.139296 365.009766,380.464844 L365.009766,394 L359.365234,394 L359.365234,380.621094 C359.365234,379.41015 359.10482,378.514977 358.583984,377.935547 C358.063148,377.356117 357.197272,377.066406 355.986328,377.066406 C354.332674,377.066406 353.134769,377.704421 352.392578,378.980469 L352.392578,394 L346.748047,394 L346.748047,364 L352.392578,364 L352.392578,375.171875 Z M378.994141,394.390625 C375.895167,394.390625 373.372406,393.440114 371.425781,391.539062 C369.479157,389.638011 368.505859,387.105485 368.505859,383.941406 L368.505859,383.394531 C368.505859,381.272125 368.916012,379.374357 369.736328,377.701172 C370.556645,376.027986 371.718742,374.738937 373.222656,373.833984 C374.72657,372.929032 376.442048,372.476562 378.369141,372.476562 C381.25978,372.476562 383.535148,373.388012 385.195312,375.210938 C386.855477,377.033863 387.685547,379.618473 387.685547,382.964844 L387.685547,385.269531 L374.228516,385.269531 C374.410808,386.649746 374.960933,387.756506 375.878906,388.589844 C376.79688,389.423181 377.958977,389.839844 379.365234,389.839844 C381.539724,389.839844 383.238926,389.052091 384.462891,387.476562 L387.236328,390.582031 C386.38997,391.779954 385.244148,392.714189 383.798828,393.384766 C382.353508,394.055342 380.751962,394.390625 378.994141,394.390625 Z M378.349609,377.046875 C377.229812,377.046875 376.321618,377.424475 375.625,378.179688 C374.928382,378.9349 374.482423,380.015618 374.287109,381.421875 L382.138672,381.421875 L382.138672,380.972656 C382.11263,379.72265 381.774092,378.755863 381.123047,378.072266 C380.472002,377.388668 379.547532,377.046875 378.349609,377.046875 Z M187.851562,433.324219 L190.625,419.867188 L196.074219,419.867188 L190.683594,441 L185.957031,441 L181.953125,427.699219 L177.949219,441 L173.242188,441 L167.851562,419.867188 L173.300781,419.867188 L176.054688,433.304688 L179.921875,419.867188 L184.003906,419.867188 L187.851562,433.324219 Z M197.988281,430.238281 C197.988281,428.141917 198.391923,426.273446 199.199219,424.632812 C200.006514,422.992179 201.168612,421.722661 202.685547,420.824219 C204.202482,419.925777 205.963532,419.476562 207.96875,419.476562 C210.820327,419.476562 213.147777,420.34895 214.951172,422.09375 C216.754566,423.83855 217.760416,426.208318 217.96875,429.203125 L218.007812,430.648438 C218.007812,433.890641 217.102874,436.491527 215.292969,438.451172 C213.483064,440.410817 211.054703,441.390625 208.007812,441.390625 C204.960922,441.390625 202.529306,440.414072 200.712891,438.460938 C198.896475,436.507803 197.988281,433.851579 197.988281,430.492188 L197.988281,430.238281 Z M203.632812,430.648438 C203.632812,432.653656 204.010413,434.186844 204.765625,435.248047 C205.520837,436.30925 206.601555,436.839844 208.007812,436.839844 C209.375007,436.839844 210.442704,436.31576 211.210938,435.267578 C211.979171,434.219396 212.363281,432.54298 212.363281,430.238281 C212.363281,428.272126 211.979171,426.748703 211.210938,425.667969 C210.442704,424.587234 209.361986,424.046875 207.96875,424.046875 C206.588535,424.046875 205.520837,424.583979 204.765625,425.658203 C204.010413,426.732427 203.632812,428.395822 203.632812,430.648438 Z M233.359375,425.160156 C232.591142,425.055989 231.914065,425.003906 231.328125,425.003906 C229.192698,425.003906 227.792972,425.726555 227.128906,427.171875 L227.128906,441 L221.484375,441 L221.484375,419.867188 L226.816406,419.867188 L226.972656,422.386719 C228.105474,420.446605 229.674469,419.476562 231.679688,419.476562 C232.304691,419.476562 232.890622,419.561197 233.4375,419.730469 L233.359375,425.160156 Z M243.75,432.523438 L241.71875,434.554688 L241.71875,441 L236.074219,441 L236.074219,411 L241.71875,411 L241.71875,427.621094 L242.8125,426.214844 L248.222656,419.867188 L255,419.867188 L247.363281,428.675781 L255.664062,441 L249.179688,441 L243.75,432.523438 Z M268.945312,441 L268.945312,424.007812 L265.800781,424.007812 L265.800781,419.867188 L268.945312,419.867188 L268.945312,418.070312 C268.945312,415.700509 269.625644,413.861335 270.986328,412.552734 C272.347012,411.244134 274.25129,410.589844 276.699219,410.589844 C277.480473,410.589844 278.437494,410.720051 279.570312,410.980469 L279.511719,415.355469 C279.042966,415.238281 278.470055,415.179688 277.792969,415.179688 C275.670562,415.179688 274.609375,416.175771 274.609375,418.167969 L274.609375,419.867188 L278.808594,419.867188 L278.808594,424.007812 L274.609375,424.007812 L274.609375,441 L268.945312,441 Z M280.859375,430.238281 C280.859375,428.141917 281.263017,426.273446 282.070312,424.632812 C282.877608,422.992179 284.039706,421.722661 285.556641,420.824219 C287.073575,419.925777 288.834625,419.476562 290.839844,419.476562 C293.691421,419.476562 296.018871,420.34895 297.822266,422.09375 C299.62566,423.83855 300.631509,426.208318 300.839844,429.203125 L300.878906,430.648438 C300.878906,433.890641 299.973967,436.491527 298.164062,438.451172 C296.354158,440.410817 293.925796,441.390625 290.878906,441.390625 C287.832016,441.390625 285.4004,440.414072 283.583984,438.460938 C281.767569,436.507803 280.859375,433.851579 280.859375,430.492188 L280.859375,430.238281 Z M286.503906,430.648438 C286.503906,432.653656 286.881507,434.186844 287.636719,435.248047 C288.391931,436.30925 289.472649,436.839844 290.878906,436.839844 C292.246101,436.839844 293.313798,436.31576 294.082031,435.267578 C294.850264,434.219396 295.234375,432.54298 295.234375,430.238281 C295.234375,428.272126 294.850264,426.748703 294.082031,425.667969 C293.313798,424.587234 292.23308,424.046875 290.839844,424.046875 C289.459629,424.046875 288.391931,424.583979 287.636719,425.658203 C286.881507,426.732427 286.503906,428.395822 286.503906,430.648438 Z M316.230469,425.160156 C315.462236,425.055989 314.785159,425.003906 314.199219,425.003906 C312.063791,425.003906 310.664066,425.726555 310,427.171875 L310,441 L304.355469,441 L304.355469,419.867188 L309.6875,419.867188 L309.84375,422.386719 C310.976568,420.446605 312.545563,419.476562 314.550781,419.476562 C315.175784,419.476562 315.761716,419.561197 316.308594,419.730469 L316.230469,425.160156 Z M336.796875,433.011719 L340.703125,419.867188 L346.757812,419.867188 L338.261719,444.28125 L337.792969,445.394531 C336.529942,448.154962 334.446629,449.535156 331.542969,449.535156 C330.722652,449.535156 329.889327,449.41146 329.042969,449.164062 L329.042969,444.886719 L329.902344,444.90625 C330.970057,444.90625 331.767575,444.743491 332.294922,444.417969 C332.822268,444.092446 333.235676,443.552087 333.535156,442.796875 L334.199219,441.058594 L326.796875,419.867188 L332.871094,419.867188 L336.796875,433.011719 Z M348.105469,430.238281 C348.105469,428.141917 348.509111,426.273446 349.316406,424.632812 C350.123702,422.992179 351.2858,421.722661 352.802734,420.824219 C354.319669,419.925777 356.080719,419.476562 358.085938,419.476562 C360.937514,419.476562 363.264965,420.34895 365.068359,422.09375 C366.871754,423.83855 367.877603,426.208318 368.085938,429.203125 L368.125,430.648438 C368.125,433.890641 367.220061,436.491527 365.410156,438.451172 C363.600251,440.410817 361.17189,441.390625 358.125,441.390625 C355.07811,441.390625 352.646493,440.414072 350.830078,438.460938 C349.013663,436.507803 348.105469,433.851579 348.105469,430.492188 L348.105469,430.238281 Z M353.75,430.648438 C353.75,432.653656 354.1276,434.186844 354.882812,435.248047 C355.638025,436.30925 356.718743,436.839844 358.125,436.839844 C359.492194,436.839844 360.559892,436.31576 361.328125,435.267578 C362.096358,434.219396 362.480469,432.54298 362.480469,430.238281 C362.480469,428.272126 362.096358,426.748703 361.328125,425.667969 C360.559892,424.587234 359.479174,424.046875 358.085938,424.046875 C356.705722,424.046875 355.638025,424.583979 354.882812,425.658203 C354.1276,426.732427 353.75,428.395822 353.75,430.648438 Z M384.257812,438.851562 C382.864576,440.544279 380.937512,441.390625 378.476562,441.390625 C376.210926,441.390625 374.482428,440.73959 373.291016,439.4375 C372.099603,438.13541 371.490886,436.227877 371.464844,433.714844 L371.464844,419.867188 L377.109375,419.867188 L377.109375,433.519531 C377.109375,435.720063 378.111969,436.820312 380.117188,436.820312 C382.03126,436.820312 383.346351,436.156257 384.0625,434.828125 L384.0625,419.867188 L389.726562,419.867188 L389.726562,441 L384.414062,441 L384.257812,438.851562 Z M399.726562,432.269531 L395.039062,432.269531 L394.375,412.5625 L400.390625,412.5625 L399.726562,432.269531 Z M397.382812,435.355469 C398.333338,435.355469 399.098304,435.635414 399.677734,436.195312 C400.257164,436.755211 400.546875,437.47135 400.546875,438.34375 C400.546875,439.203129 400.257164,439.912758 399.677734,440.472656 C399.098304,441.032555 398.333338,441.3125 397.382812,441.3125 C396.445308,441.3125 395.686852,441.032555 395.107422,440.472656 C394.527992,439.912758 394.238281,439.203129 394.238281,438.34375 C394.238281,437.484371 394.527992,436.771487 395.107422,436.205078 C395.686852,435.638669 396.445308,435.355469 397.382812,435.355469 Z" id="Rocket-Tabs-does-all" fill="#000000"></path>
        <path d="M120.302734,199.589844 L115.634766,199.589844 L115.634766,210 L109.775391,210 L109.775391,181.5625 L120.341797,181.5625 C123.701189,181.5625 126.292309,182.31119 128.115234,183.808594 C129.93816,185.305997 130.849609,187.421861 130.849609,190.15625 C130.849609,192.096364 130.429692,193.714186 129.589844,195.009766 C128.749996,196.305345 127.477222,197.337236 125.771484,198.105469 L131.923828,209.726562 L131.923828,210 L125.634766,210 L120.302734,199.589844 Z M115.634766,194.84375 L120.361328,194.84375 C121.83269,194.84375 122.972001,194.469405 123.779297,193.720703 C124.586593,192.972001 124.990234,191.940111 124.990234,190.625 C124.990234,189.283847 124.609379,188.229171 123.847656,187.460938 C123.085934,186.692704 121.917326,186.308594 120.341797,186.308594 L115.634766,186.308594 L115.634766,194.84375 Z M152.412109,197.675781 L141.162109,197.675781 L141.162109,205.292969 L154.365234,205.292969 L154.365234,210 L135.302734,210 L135.302734,181.5625 L154.326172,181.5625 L154.326172,186.308594 L141.162109,186.308594 L141.162109,193.085938 L152.412109,193.085938 L152.412109,197.675781 Z M173.857422,204.140625 L163.583984,204.140625 L161.630859,210 L155.400391,210 L165.986328,181.5625 L171.416016,181.5625 L182.060547,210 L175.830078,210 L173.857422,204.140625 Z M165.166016,199.394531 L172.275391,199.394531 L168.701172,188.75 L165.166016,199.394531 Z M184.716797,210 L184.716797,181.5625 L193.466797,181.5625 C195.966809,181.5625 198.203115,182.125645 200.175781,183.251953 C202.148447,184.378261 203.688146,185.979807 204.794922,188.056641 C205.901698,190.133474 206.455078,192.493476 206.455078,195.136719 L206.455078,196.445312 C206.455078,199.088555 205.911464,201.438792 204.824219,203.496094 C203.736974,205.553396 202.203786,207.148432 200.224609,208.28125 C198.245433,209.414068 196.012382,209.986979 193.525391,210 L184.716797,210 Z M190.576172,186.308594 L190.576172,205.292969 L193.408203,205.292969 C195.699881,205.292969 197.451166,204.544278 198.662109,203.046875 C199.873053,201.549472 200.491536,199.407566 200.517578,196.621094 L200.517578,195.117188 C200.517578,192.226548 199.918626,190.035815 198.720703,188.544922 C197.52278,187.054029 195.771496,186.308594 193.466797,186.308594 L190.576172,186.308594 Z M220.517578,194.375 L226.435547,181.5625 L232.841797,181.5625 L223.505859,199.6875 L223.505859,210 L217.548828,210 L217.548828,199.6875 L208.212891,181.5625 L214.638672,181.5625 L220.517578,194.375 Z M266.806641,186.308594 L258.095703,186.308594 L258.095703,210 L252.236328,210 L252.236328,186.308594 L243.642578,186.308594 L243.642578,181.5625 L266.806641,181.5625 L266.806641,186.308594 Z M293.505859,196.425781 C293.505859,199.225274 293.011073,201.679677 292.021484,203.789062 C291.031896,205.898448 289.615895,207.526036 287.773438,208.671875 C285.93098,209.817714 283.818371,210.390625 281.435547,210.390625 C279.078764,210.390625 276.975921,209.824224 275.126953,208.691406 C273.277986,207.558588 271.845708,205.940766 270.830078,203.837891 C269.814448,201.735016 269.30013,199.31642 269.287109,196.582031 L269.287109,195.175781 C269.287109,192.376288 269.791662,189.91212 270.800781,187.783203 C271.809901,185.654286 273.235668,184.020188 275.078125,182.880859 C276.920582,181.741531 279.026681,181.171875 281.396484,181.171875 C283.766288,181.171875 285.872387,181.741531 287.714844,182.880859 C289.557301,184.020188 290.983068,185.654286 291.992188,187.783203 C293.001307,189.91212 293.505859,192.369778 293.505859,195.15625 L293.505859,196.425781 Z M287.568359,195.136719 C287.568359,192.154933 287.034511,189.889331 285.966797,188.339844 C284.899083,186.790357 283.375661,186.015625 281.396484,186.015625 C279.430329,186.015625 277.913417,186.780591 276.845703,188.310547 C275.777989,189.840502 275.23763,192.083319 275.224609,195.039062 L275.224609,196.425781 C275.224609,199.329442 275.758458,201.582023 276.826172,203.183594 C277.893886,204.785164 279.430329,205.585938 281.435547,205.585938 C283.401703,205.585938 284.912104,204.814461 285.966797,203.271484 C287.02149,201.728508 287.555338,199.479181 287.568359,196.523438 L287.568359,195.136719 Z M313.583984,205.292969 L326.025391,205.292969 L326.025391,210 L307.724609,210 L307.724609,181.5625 L313.583984,181.5625 L313.583984,205.292969 Z M345.439453,204.140625 L335.166016,204.140625 L333.212891,210 L326.982422,210 L337.568359,181.5625 L342.998047,181.5625 L353.642578,210 L347.412109,210 L345.439453,204.140625 Z M336.748047,199.394531 L343.857422,199.394531 L340.283203,188.75 L336.748047,199.394531 Z M377.822266,181.5625 L377.822266,200.292969 C377.822266,203.404963 376.848968,205.865876 374.902344,207.675781 C372.955719,209.485686 370.296241,210.390625 366.923828,210.390625 C363.603499,210.390625 360.966807,209.511728 359.013672,207.753906 C357.060537,205.996085 356.064453,203.580745 356.025391,200.507812 L356.025391,181.5625 L361.884766,181.5625 L361.884766,200.332031 C361.884766,202.19402 362.330725,203.551428 363.222656,204.404297 C364.114588,205.257166 365.348299,205.683594 366.923828,205.683594 C370.218115,205.683594 371.891276,203.95184 371.943359,200.488281 L371.943359,181.5625 L377.822266,181.5625 Z M405.751953,210 L399.892578,210 L388.486328,191.289062 L388.486328,210 L382.626953,210 L382.626953,181.5625 L388.486328,181.5625 L399.912109,200.3125 L399.912109,181.5625 L405.751953,181.5625 L405.751953,210 Z M433.193359,200.527344 C432.972004,203.587255 431.842458,205.996085 429.804688,207.753906 C427.766917,209.511728 425.081397,210.390625 421.748047,210.390625 C418.102195,210.390625 415.234385,209.163424 413.144531,206.708984 C411.054677,204.254545 410.009766,200.885438 410.009766,196.601562 L410.009766,194.863281 C410.009766,192.128893 410.491532,189.720062 411.455078,187.636719 C412.418625,185.553375 413.795564,183.955084 415.585938,182.841797 C417.376311,181.72851 419.456368,181.171875 421.826172,181.171875 C425.107438,181.171875 427.750641,182.050772 429.755859,183.808594 C431.761078,185.566415 432.91992,188.033838 433.232422,191.210938 L427.373047,191.210938 C427.229817,189.374991 426.718754,188.043624 425.839844,187.216797 C424.960933,186.38997 423.623056,185.976562 421.826172,185.976562 C419.873037,185.976562 418.411463,186.676425 417.441406,188.076172 C416.471349,189.475918 415.973307,191.647121 415.947266,194.589844 L415.947266,196.738281 C415.947266,199.811213 416.412756,202.057285 417.34375,203.476562 C418.274744,204.89584 419.742829,205.605469 421.748047,205.605469 C423.557952,205.605469 424.90885,205.192061 425.800781,204.365234 C426.692713,203.538407 427.203775,202.259123 427.333984,200.527344 L433.193359,200.527344 Z M460.185547,210 L454.326172,210 L454.326172,197.8125 L442.900391,197.8125 L442.900391,210 L437.041016,210 L437.041016,181.5625 L442.900391,181.5625 L442.900391,193.085938 L454.326172,193.085938 L454.326172,181.5625 L460.185547,181.5625 L460.185547,210 Z M132.519531,241.375 L138.4375,228.5625 L144.84375,228.5625 L135.507812,246.6875 L135.507812,257 L129.550781,257 L129.550781,246.6875 L120.214844,228.5625 L126.640625,228.5625 L132.519531,241.375 Z M170.800781,243.425781 C170.800781,246.225274 170.305995,248.679677 169.316406,250.789062 C168.326818,252.898448 166.910817,254.526036 165.068359,255.671875 C163.225902,256.817714 161.113293,257.390625 158.730469,257.390625 C156.373686,257.390625 154.270843,256.824224 152.421875,255.691406 C150.572907,254.558588 149.14063,252.940766 148.125,250.837891 C147.10937,248.735016 146.595052,246.31642 146.582031,243.582031 L146.582031,242.175781 C146.582031,239.376288 147.086583,236.91212 148.095703,234.783203 C149.104823,232.654286 150.53059,231.020188 152.373047,229.880859 C154.215504,228.741531 156.321603,228.171875 158.691406,228.171875 C161.06121,228.171875 163.167308,228.741531 165.009766,229.880859 C166.852223,231.020188 168.27799,232.654286 169.287109,234.783203 C170.296229,236.91212 170.800781,239.369778 170.800781,242.15625 L170.800781,243.425781 Z M164.863281,242.136719 C164.863281,239.154933 164.329432,236.889331 163.261719,235.339844 C162.194005,233.790357 160.670583,233.015625 158.691406,233.015625 C156.725251,233.015625 155.208339,233.780591 154.140625,235.310547 C153.072911,236.840502 152.532552,239.083319 152.519531,242.039062 L152.519531,243.425781 C152.519531,246.329442 153.05338,248.582023 154.121094,250.183594 C155.188807,251.785164 156.72525,252.585938 158.730469,252.585938 C160.696624,252.585938 162.207026,251.814461 163.261719,250.271484 C164.316412,248.728508 164.85026,246.479181 164.863281,243.523438 L164.863281,242.136719 Z M196.582031,228.5625 L196.582031,247.292969 C196.582031,250.404963 195.608734,252.865876 193.662109,254.675781 C191.715485,256.485686 189.056006,257.390625 185.683594,257.390625 C182.363265,257.390625 179.726572,256.511728 177.773438,254.753906 C175.820303,252.996085 174.824219,250.580745 174.785156,247.507812 L174.785156,228.5625 L180.644531,228.5625 L180.644531,247.332031 C180.644531,249.19402 181.09049,250.551428 181.982422,251.404297 C182.874353,252.257166 184.108065,252.683594 185.683594,252.683594 C188.977881,252.683594 190.651041,250.95184 190.703125,247.488281 L190.703125,228.5625 L196.582031,228.5625 Z M211.914062,246.589844 L207.246094,246.589844 L207.246094,257 L201.386719,257 L201.386719,228.5625 L211.953125,228.5625 C215.312517,228.5625 217.903637,229.31119 219.726562,230.808594 C221.549488,232.305997 222.460938,234.421861 222.460938,237.15625 C222.460938,239.096364 222.04102,240.714186 221.201172,242.009766 C220.361324,243.305345 219.08855,244.337236 217.382812,245.105469 L223.535156,256.726562 L223.535156,257 L217.246094,257 L211.914062,246.589844 Z M207.246094,241.84375 L211.972656,241.84375 C213.444018,241.84375 214.583329,241.469405 215.390625,240.720703 C216.197921,239.972001 216.601562,238.940111 216.601562,237.625 C216.601562,236.283847 216.220707,235.229171 215.458984,234.460938 C214.697262,233.692704 213.528654,233.308594 211.953125,233.308594 L207.246094,233.308594 L207.246094,241.84375 Z M253.984375,245.378906 L242.734375,245.378906 L242.734375,257 L236.875,257 L236.875,228.5625 L255.390625,228.5625 L255.390625,233.308594 L242.734375,233.308594 L242.734375,240.652344 L253.984375,240.652344 L253.984375,245.378906 Z M265.019531,257 L259.160156,257 L259.160156,228.5625 L265.019531,228.5625 L265.019531,257 Z M280.976562,246.589844 L276.308594,246.589844 L276.308594,257 L270.449219,257 L270.449219,228.5625 L281.015625,228.5625 C284.375017,228.5625 286.966137,229.31119 288.789062,230.808594 C290.611988,232.305997 291.523438,234.421861 291.523438,237.15625 C291.523438,239.096364 291.10352,240.714186 290.263672,242.009766 C289.423824,243.305345 288.15105,244.337236 286.445312,245.105469 L292.597656,256.726562 L292.597656,257 L286.308594,257 L280.976562,246.589844 Z M276.308594,241.84375 L281.035156,241.84375 C282.506518,241.84375 283.645829,241.469405 284.453125,240.720703 C285.260421,239.972001 285.664062,238.940111 285.664062,237.625 C285.664062,236.283847 285.283207,235.229171 284.521484,234.460938 C283.759762,233.692704 282.591154,233.308594 281.015625,233.308594 L276.308594,233.308594 L276.308594,241.84375 Z M310.722656,249.539062 C310.722656,248.432286 310.332035,247.582685 309.550781,246.990234 C308.769527,246.397783 307.363291,245.77279 305.332031,245.115234 C303.300771,244.457679 301.692714,243.809899 300.507812,243.171875 C297.27863,241.427075 295.664062,239.076838 295.664062,236.121094 C295.664062,234.584628 296.097001,233.214199 296.962891,232.009766 C297.82878,230.805333 299.072258,229.864587 300.693359,229.1875 C302.314461,228.510413 304.134104,228.171875 306.152344,228.171875 C308.183604,228.171875 309.993482,228.53971 311.582031,229.275391 C313.170581,230.011071 314.404292,231.049472 315.283203,232.390625 C316.162114,233.731778 316.601562,235.2552 316.601562,236.960938 L310.742188,236.960938 C310.742188,235.658848 310.332035,234.646488 309.511719,233.923828 C308.691402,233.201168 307.53907,232.839844 306.054688,232.839844 C304.622389,232.839844 303.509119,233.142575 302.714844,233.748047 C301.920569,234.353519 301.523438,235.151037 301.523438,236.140625 C301.523438,237.065109 301.988928,237.839841 302.919922,238.464844 C303.850916,239.089847 305.221345,239.675779 307.03125,240.222656 C310.3646,241.225265 312.792961,242.468743 314.316406,243.953125 C315.839851,245.437507 316.601562,247.286447 316.601562,249.5 C316.601562,251.96095 315.670582,253.891269 313.808594,255.291016 C311.946605,256.690762 309.44012,257.390625 306.289062,257.390625 C304.101552,257.390625 302.109384,256.990238 300.3125,256.189453 C298.515616,255.388668 297.145187,254.291674 296.201172,252.898438 C295.257157,251.505201 294.785156,249.890634 294.785156,248.054688 L300.664062,248.054688 C300.664062,251.192724 302.539044,252.761719 306.289062,252.761719 C307.682299,252.761719 308.769527,252.478518 309.550781,251.912109 C310.332035,251.3457 310.722656,250.554693 310.722656,249.539062 Z M341.972656,233.308594 L333.261719,233.308594 L333.261719,257 L327.402344,257 L327.402344,233.308594 L318.808594,233.308594 L318.808594,228.5625 L341.972656,228.5625 L341.972656,233.308594 Z M376.679688,233.308594 L367.96875,233.308594 L367.96875,257 L362.109375,257 L362.109375,233.308594 L353.515625,233.308594 L353.515625,228.5625 L376.679688,228.5625 L376.679688,233.308594 Z M396.074219,251.140625 L385.800781,251.140625 L383.847656,257 L377.617188,257 L388.203125,228.5625 L393.632812,228.5625 L404.277344,257 L398.046875,257 L396.074219,251.140625 Z M387.382812,246.394531 L394.492188,246.394531 L390.917969,235.75 L387.382812,246.394531 Z M406.933594,257 L406.933594,228.5625 L416.894531,228.5625 C420.345069,228.5625 422.962231,229.223301 424.746094,230.544922 C426.529957,231.866543 427.421875,233.803373 427.421875,236.355469 C427.421875,237.748705 427.063806,238.975906 426.347656,240.037109 C425.631507,241.098313 424.635423,241.8763 423.359375,242.371094 C424.817716,242.735679 425.966793,243.471349 426.806641,244.578125 C427.646489,245.684901 428.066406,247.039054 428.066406,248.640625 C428.066406,251.375014 427.194019,253.445305 425.449219,254.851562 C423.704418,256.25782 421.217464,256.973958 417.988281,257 L406.933594,257 Z M412.792969,244.617188 L412.792969,252.292969 L417.8125,252.292969 C419.192715,252.292969 420.270178,251.964196 421.044922,251.306641 C421.819665,250.649085 422.207031,249.740891 422.207031,248.582031 C422.207031,245.977852 420.859388,244.65625 418.164062,244.617188 L412.792969,244.617188 Z M412.792969,240.476562 L417.128906,240.476562 C420.08465,240.424479 421.5625,239.246105 421.5625,236.941406 C421.5625,235.652337 421.188155,234.724612 420.439453,234.158203 C419.690751,233.591794 418.509123,233.308594 416.894531,233.308594 L412.792969,233.308594 L412.792969,240.476562 Z M436.699219,248.269531 C436.699219,246.446605 436.920571,244.994797 437.363281,243.914062 C437.805992,242.833328 438.616531,241.768885 439.794922,240.720703 C440.973313,239.672521 441.757811,238.819665 442.148438,238.162109 C442.539064,237.504554 442.734375,236.811202 442.734375,236.082031 C442.734375,233.881499 441.71876,232.78125 439.6875,232.78125 C438.723954,232.78125 437.952477,233.077471 437.373047,233.669922 C436.793617,234.262373 436.490886,235.079422 436.464844,236.121094 L430.800781,236.121094 C430.826823,233.634102 431.630851,231.687507 433.212891,230.28125 C434.79493,228.874993 436.953111,228.171875 439.6875,228.171875 C442.44793,228.171875 444.589836,228.839186 446.113281,230.173828 C447.636726,231.50847 448.398438,233.393217 448.398438,235.828125 C448.398438,236.934901 448.151044,237.979813 447.65625,238.962891 C447.161456,239.945968 446.295579,241.036452 445.058594,242.234375 L443.476562,243.738281 C442.486974,244.688807 441.920574,245.802077 441.777344,247.078125 L441.699219,248.269531 L436.699219,248.269531 Z M436.132812,254.265625 C436.132812,253.393225 436.429033,252.673831 437.021484,252.107422 C437.613935,251.541013 438.372391,251.257812 439.296875,251.257812 C440.221359,251.257812 440.979815,251.541013 441.572266,252.107422 C442.164717,252.673831 442.460938,253.393225 442.460938,254.265625 C442.460938,255.125004 442.171227,255.834633 441.591797,256.394531 C441.012367,256.95443 440.247401,257.234375 439.296875,257.234375 C438.346349,257.234375 437.581383,256.95443 437.001953,256.394531 C436.422523,255.834633 436.132812,255.125004 436.132812,254.265625 Z" id="READY-TO-LAUNCH-YOUR" fill="#000000"></path>
    </g>
</svg>