<?xml version="1.0" encoding="UTF-8"?>
<svg width="570px" height="792px" viewBox="0 0 570 792" version="1.1" xmlns="http://www.w3.org/2000/svg" xmlns:xlink="http://www.w3.org/1999/xlink">
    <!-- Generator: Sketch 54.1 (76490) - https://sketchapp.com -->
    <title>F3_catalog_en</title>
    <desc>Created with Sketch.</desc>
    <g id="F3_catalog_en" stroke="none" stroke-width="1" fill="none" fill-rule="evenodd">
        <rect id="Rectangle" fill="#00B0FF" x="0" y="0" width="570" height="792" rx="16"></rect>
        <rect id="Rectangle" fill="#0B0C24" x="12" y="222" width="547" height="553" rx="11"></rect>
        <rect id="Rectangle" fill="#375270" opacity="0.295014881" x="12" y="347" width="547" height="104"></rect>
        <path d="M12,659 L559,659 L559,754 C559,763.941125 550.941125,772 541,772 L30,772 C20.0588745,772 12,763.941125 12,754 L12,659 Z" id="Rectangle" fill="#0098CE"></path>
        <text id="ADD-ITEMS" font-family="Roboto-Medium, Roboto" font-size="55" font-weight="400" fill="#FFFFFF">
            <tspan x="143.243408" y="735">ADD ITEMS</tspan>
        </text>
        <rect id="Rectangle" stroke="#5F5F5F" fill="#375270" opacity="0.295014881" x="12.5" y="447.5" width="546" height="103"></rect>
        <rect id="Rectangle" fill="#375270" opacity="0.295014881" x="12" y="547" width="547" height="104"></rect>
        <path d="M88.552002,410 L88.552002,386.539062 L96.7697754,386.539062 C99.6164693,386.539062 101.775627,387.084223 103.247314,388.174561 C104.719001,389.264898 105.454834,390.862782 105.454834,392.968262 C105.454834,394.117682 105.159427,395.130123 104.568604,396.005615 C103.97778,396.881108 103.156011,397.522947 102.103271,397.931152 C103.306403,398.231935 104.254391,398.838863 104.947266,399.751953 C105.64014,400.665044 105.986572,401.78222 105.986572,403.103516 C105.986572,405.359386 105.266853,407.067377 103.827393,408.227539 C102.387932,409.387701 100.336195,409.978516 97.6721191,410 L88.552002,410 Z M93.3859863,399.78418 L93.3859863,406.116699 L97.5270996,406.116699 C98.6657772,406.116699 99.5546843,405.845462 100.193848,405.302979 C100.833011,404.760495 101.152588,404.011235 101.152588,403.055176 C101.152588,400.906728 100.040783,399.816406 97.8171387,399.78418 L93.3859863,399.78418 Z M93.3859863,396.368164 L96.9631348,396.368164 C99.4016235,396.325195 100.62085,395.353037 100.62085,393.45166 C100.62085,392.388178 100.312015,391.622805 99.6943359,391.155518 C99.0766571,390.68823 98.1018133,390.45459 96.7697754,390.45459 L93.3859863,390.45459 L93.3859863,396.368164 Z M109.612061,410 L109.612061,386.539062 L117.829834,386.539062 C120.676528,386.539062 122.835686,387.084223 124.307373,388.174561 C125.77906,389.264898 126.514893,390.862782 126.514893,392.968262 C126.514893,394.117682 126.219485,395.130123 125.628662,396.005615 C125.037839,396.881108 124.21607,397.522947 123.16333,397.931152 C124.366461,398.231935 125.31445,398.838863 126.007324,399.751953 C126.700199,400.665044 127.046631,401.78222 127.046631,403.103516 C127.046631,405.359386 126.326911,407.067377 124.887451,408.227539 C123.447991,409.387701 121.396254,409.978516 118.732178,410 L109.612061,410 Z M114.446045,399.78418 L114.446045,406.116699 L118.587158,406.116699 C119.725836,406.116699 120.614743,405.845462 121.253906,405.302979 C121.89307,404.760495 122.212646,404.011235 122.212646,403.055176 C122.212646,400.906728 121.100841,399.816406 118.877197,399.78418 L114.446045,399.78418 Z M114.446045,396.368164 L118.023193,396.368164 C120.461682,396.325195 121.680908,395.353037 121.680908,393.45166 C121.680908,392.388178 121.372073,391.622805 120.754395,391.155518 C120.136716,390.68823 119.161872,390.45459 117.829834,390.45459 L114.446045,390.45459 L114.446045,396.368164 Z M149.911377,398.80127 C149.911377,400.992687 149.556888,402.89672 148.8479,404.513428 C148.138912,406.130135 147.156012,407.427241 145.89917,408.404785 L149.798584,411.466309 L146.720947,414.189453 L141.72583,410.177246 C141.156491,410.273926 140.565677,410.322266 139.953369,410.322266 C138.009023,410.322266 136.274178,409.854985 134.748779,408.92041 C133.223381,407.985835 132.041752,406.651132 131.203857,404.91626 C130.365963,403.181388 129.94165,401.186046 129.930908,398.930176 L129.930908,397.77002 C129.930908,395.460438 130.347164,393.427499 131.179688,391.671143 C132.012211,389.914786 133.188469,388.566655 134.708496,387.626709 C136.228523,386.686763 137.966055,386.216797 139.921143,386.216797 C141.87623,386.216797 143.613762,386.686763 145.133789,387.626709 C146.653816,388.566655 147.830074,389.914786 148.662598,391.671143 C149.495121,393.427499 149.911377,395.455067 149.911377,397.753906 L149.911377,398.80127 Z M145.012939,397.737793 C145.012939,395.27782 144.572514,393.408698 143.69165,392.130371 C142.810787,390.852044 141.553963,390.212891 139.921143,390.212891 C138.299064,390.212891 137.047612,390.843988 136.166748,392.106201 C135.285884,393.368415 134.840088,395.218738 134.829346,397.657227 L134.829346,398.80127 C134.829346,401.196789 135.269771,403.055169 136.150635,404.376465 C137.031499,405.697761 138.299064,406.358398 139.953369,406.358398 C141.575448,406.358398 142.821529,405.72193 143.69165,404.448975 C144.561772,403.176019 145.002197,401.320325 145.012939,398.881836 L145.012939,397.737793 Z M180.091553,402.185059 C179.908935,404.709485 178.977059,406.69677 177.295898,408.146973 C175.614738,409.597175 173.399184,410.322266 170.64917,410.322266 C167.641342,410.322266 165.275399,409.309825 163.55127,407.284912 C161.82714,405.26 160.965088,402.480486 160.965088,398.946289 L160.965088,397.512207 C160.965088,395.256336 161.362545,393.269052 162.157471,391.550293 C162.952397,389.831534 164.088372,388.512944 165.56543,387.594482 C167.042488,386.676021 168.758535,386.216797 170.713623,386.216797 C173.420668,386.216797 175.60131,386.941887 177.255615,388.39209 C178.90992,389.842292 179.865966,391.877917 180.123779,394.499023 L175.289795,394.499023 C175.17163,392.984367 174.750004,391.88599 174.024902,391.203857 C173.299801,390.521725 172.196052,390.180664 170.713623,390.180664 C169.102287,390.180664 167.896488,390.758051 167.096191,391.912842 C166.295894,393.067633 165.88501,394.858875 165.863525,397.286621 L165.863525,399.059082 C165.863525,401.594251 166.247555,403.44726 167.015625,404.618164 C167.783695,405.789068 168.994865,406.374512 170.64917,406.374512 C172.142341,406.374512 173.256832,406.033451 173.992676,405.351318 C174.728519,404.669186 175.150146,403.613777 175.257568,402.185059 L180.091553,402.185059 Z M187.503662,394.466797 C188.73902,392.984368 190.29125,392.243164 192.1604,392.243164 C195.941669,392.243164 197.859131,394.439919 197.912842,398.833496 L197.912842,410 L193.256104,410 L193.256104,398.962402 C193.256104,397.963374 193.041262,397.224856 192.611572,396.746826 C192.181883,396.268796 191.467534,396.029785 190.468506,396.029785 C189.104241,396.029785 188.11597,396.556147 187.503662,397.608887 L187.503662,410 L182.846924,410 L182.846924,385.25 L187.503662,385.25 L187.503662,394.466797 Z M206.340088,410 L201.667236,410 L201.667236,392.56543 L206.340088,392.56543 L206.340088,410 Z M201.393311,388.053711 C201.393311,387.355465 201.626951,386.780764 202.094238,386.32959 C202.561526,385.878416 203.197994,385.652832 204.003662,385.652832 C204.798588,385.652832 205.432371,385.878416 205.905029,386.32959 C206.377688,386.780764 206.614014,387.355465 206.614014,388.053711 C206.614014,388.762699 206.375002,389.342771 205.896973,389.793945 C205.418943,390.245119 204.787846,390.470703 204.003662,390.470703 C203.219479,390.470703 202.588381,390.245119 202.110352,389.793945 C201.632322,389.342771 201.393311,388.762699 201.393311,388.053711 Z M217.426025,406.567871 C218.285405,406.567871 218.98364,406.331545 219.520752,405.858887 C220.057864,405.386228 220.337158,404.757816 220.358643,403.973633 L224.725342,403.973633 C224.7146,405.155279 224.392337,406.237544 223.758545,407.220459 C223.124753,408.203374 222.25733,408.966062 221.15625,409.508545 C220.05517,410.051028 218.83863,410.322266 217.506592,410.322266 C215.014392,410.322266 213.048591,409.530037 211.609131,407.945557 C210.169671,406.361076 209.449951,404.172377 209.449951,401.379395 L209.449951,401.073242 C209.449951,398.387682 210.164299,396.244637 211.593018,394.644043 C213.021736,393.043449 214.982165,392.243164 217.474365,392.243164 C219.65504,392.243164 221.403314,392.863519 222.719238,394.104248 C224.035163,395.344977 224.703857,396.996572 224.725342,399.059082 L220.358643,399.059082 C220.337158,398.156734 220.057864,397.423587 219.520752,396.859619 C218.98364,396.295651 218.274663,396.013672 217.393799,396.013672 C216.308832,396.013672 215.489749,396.408443 214.936523,397.197998 C214.383298,397.987553 214.106689,399.268546 214.106689,401.041016 L214.106689,401.524414 C214.106689,403.318368 214.380612,404.607418 214.928467,405.391602 C215.476321,406.175785 216.308832,406.567871 217.426025,406.567871 Z M233.716553,403.006836 L232.040771,404.682617 L232.040771,410 L227.384033,410 L227.384033,385.25 L232.040771,385.25 L232.040771,398.962402 L232.943115,397.802246 L237.406494,392.56543 L242.997803,392.56543 L236.69751,399.83252 L243.545654,410 L238.196045,410 L233.716553,403.006836 Z M253.036377,410.322266 C250.479724,410.322266 248.398446,409.538094 246.79248,407.969727 C245.186515,406.401359 244.383545,404.312025 244.383545,401.70166 L244.383545,401.250488 C244.383545,399.499503 244.72192,397.933845 245.398682,396.553467 C246.075443,395.173089 247.034173,394.109623 248.274902,393.363037 C249.515631,392.616451 250.9309,392.243164 252.520752,392.243164 C254.90553,392.243164 256.782708,392.99511 258.152344,394.499023 C259.52198,396.002937 260.206787,398.13524 260.206787,400.895996 L260.206787,402.797363 L249.104736,402.797363 C249.255128,403.936041 249.708981,404.849118 250.466309,405.536621 C251.223637,406.224125 252.182367,406.567871 253.342529,406.567871 C255.136484,406.567871 256.538325,405.917975 257.548096,404.618164 L259.836182,407.180176 C259.137936,408.168462 258.192633,408.939206 257.000244,409.492432 C255.807855,410.045657 254.48658,410.322266 253.036377,410.322266 Z M252.504639,396.013672 C251.580806,396.013672 250.831546,396.325192 250.256836,396.948242 C249.682126,397.571292 249.31421,398.462885 249.153076,399.623047 L255.630615,399.623047 L255.630615,399.252441 C255.609131,398.221186 255.329837,397.423587 254.792725,396.859619 C254.255613,396.295651 253.492925,396.013672 252.504639,396.013672 Z M267.135498,392.56543 L267.280518,394.57959 C268.526618,393.021965 270.197011,392.243164 272.291748,392.243164 C274.139414,392.243164 275.5144,392.785639 276.416748,393.870605 C277.319096,394.955572 277.781006,396.577626 277.80249,398.736816 L277.80249,410 L273.145752,410 L273.145752,398.849609 C273.145752,397.861323 272.93091,397.144289 272.501221,396.698486 C272.071531,396.252683 271.357183,396.029785 270.358154,396.029785 C269.047601,396.029785 268.064701,396.588373 267.409424,397.705566 L267.409424,410 L262.752686,410 L262.752686,392.56543 L267.135498,392.56543 Z" id="BBQChicken" fill="#00D3FF" fill-rule="nonzero"></path>
        <rect id="Rectangle" stroke="#5F5F5F" fill="#375270" opacity="0.295014881" x="12.5" y="547.5" width="546" height="103"></rect>
        <rect id="Rectangle" stroke="#5F5F5F" fill="#375270" opacity="0.295014881" x="12.5" y="347.5" width="546" height="103"></rect>
        <rect id="Rectangle" fill="#FFFFFF" x="33" y="47" width="505" height="149" rx="12"></rect>
        <rect id="Rectangle" fill="#151F3B" x="12" y="240" width="163" height="96"></rect>
        <path d="M80.65975,291.991 L77.75575,284.0545 C77.6127493,283.702498 77.4642508,283.284502 77.31025,282.8005 C77.1562492,282.316498 77.0022508,281.794003 76.84825,281.233 C76.7052493,281.794003 76.5567508,282.319248 76.40275,282.80875 C76.2487492,283.298252 76.1002507,283.724498 75.95725,284.0875 L73.06975,291.991 L80.65975,291.991 Z M88.49725,301 L85.06525,301 C84.6802481,301 84.3667512,300.903751 84.12475,300.71125 C83.8827488,300.518749 83.7012506,300.279501 83.58025,299.9935 L81.79825,295.126 L71.91475,295.126 L70.13275,299.9935 C70.0447496,300.246501 69.8742513,300.477499 69.62125,300.6865 C69.3682487,300.895501 69.0547519,301 68.68075,301 L65.21575,301 L74.60425,277.141 L79.12525,277.141 L88.49725,301 Z M104.94775,297.337 L104.94775,301 L90.97225,301 L90.97225,277.141 L95.41075,277.141 L95.41075,297.337 L104.94775,297.337 Z M122.09125,297.337 L122.09125,301 L108.11575,301 L108.11575,277.141 L112.55425,277.141 L112.55425,297.337 L122.09125,297.337 Z" id="ALL" fill="#5DDEFF" fill-rule="nonzero"></path>
        <rect id="Rectangle" fill="#151F3B" x="182" y="240" width="163" height="96"></rect>
        <path d="M211.15875,297.535 C211.983754,297.535 212.676747,297.436001 213.23775,297.238 C213.798753,297.039999 214.246998,296.776002 214.5825,296.446 C214.918002,296.115998 215.159999,295.731002 215.3085,295.291 C215.457001,294.850998 215.53125,294.383502 215.53125,293.8885 C215.53125,293.371497 215.448751,292.906752 215.28375,292.49425 C215.118749,292.081748 214.860252,291.729751 214.50825,291.43825 C214.156248,291.146749 213.702503,290.924001 213.147,290.77 C212.591497,290.615999 211.923254,290.539 211.14225,290.539 L206.67075,290.539 L206.67075,297.535 L211.15875,297.535 Z M206.67075,280.573 L206.67075,287.47 L210.20175,287.47 C211.719758,287.47 212.866496,287.195003 213.642,286.645 C214.417504,286.094997 214.80525,285.220506 214.80525,284.0215 C214.80525,282.778494 214.453254,281.893003 213.74925,281.365 C213.045246,280.836997 211.945257,280.573 210.44925,280.573 L206.67075,280.573 Z M210.44925,277.141 C212.011258,277.141 213.347744,277.289499 214.45875,277.5865 C215.569756,277.883501 216.479996,278.306997 217.1895,278.857 C217.899004,279.407003 218.418748,280.072496 218.74875,280.8535 C219.078752,281.634504 219.24375,282.514495 219.24375,283.4935 C219.24375,284.054503 219.161251,284.590747 218.99625,285.10225 C218.831249,285.613753 218.575502,286.092248 218.229,286.53775 C217.882498,286.983252 217.442503,287.387498 216.909,287.7505 C216.375497,288.113502 215.740254,288.421499 215.00325,288.6745 C218.281266,289.411504 219.92025,291.182486 219.92025,293.9875 C219.92025,294.999505 219.727752,295.934496 219.34275,296.7925 C218.957748,297.650504 218.396754,298.390247 217.65975,299.01175 C216.922746,299.633253 216.015255,300.119998 214.93725,300.472 C213.859245,300.824002 212.627257,301 211.24125,301 L202.23225,301 L202.23225,277.141 L210.44925,277.141 Z M236.56875,291.991 L233.66475,284.0545 C233.521749,283.702498 233.373251,283.284502 233.21925,282.8005 C233.065249,282.316498 232.911251,281.794003 232.75725,281.233 C232.614249,281.794003 232.465751,282.319248 232.31175,282.80875 C232.157749,283.298252 232.009251,283.724498 231.86625,284.0875 L228.97875,291.991 L236.56875,291.991 Z M244.40625,301 L240.97425,301 C240.589248,301 240.275751,300.903751 240.03375,300.71125 C239.791749,300.518749 239.610251,300.279501 239.48925,299.9935 L237.70725,295.126 L227.82375,295.126 L226.04175,299.9935 C225.95375,300.246501 225.783251,300.477499 225.53025,300.6865 C225.277249,300.895501 224.963752,301 224.58975,301 L221.12475,301 L230.51325,277.141 L235.03425,277.141 L244.40625,301 Z M251.31975,287.14 L252.35925,287.14 C252.777252,287.14 253.123749,287.082251 253.39875,286.96675 C253.673751,286.851249 253.910249,286.667001 254.10825,286.414 L260.69175,278.0815 C260.966751,277.729498 261.255498,277.484751 261.558,277.34725 C261.860502,277.209749 262.242748,277.141 262.70475,277.141 L266.53275,277.141 L258.49725,287.0575 C258.024248,287.662503 257.534753,288.091499 257.02875,288.3445 C257.391752,288.476501 257.718999,288.660749 258.0105,288.89725 C258.302001,289.133751 258.579749,289.444498 258.84375,289.8295 L267.12675,301 L263.21625,301 C262.688247,301 262.295001,300.925751 262.0365,300.77725 C261.777999,300.628749 261.560751,300.411501 261.38475,300.1255 L254.63625,291.3145 C254.427249,291.017499 254.185251,290.808501 253.91025,290.6875 C253.635249,290.566499 253.239253,290.506 252.72225,290.506 L251.31975,290.506 L251.31975,301 L246.88125,301 L246.88125,277.141 L251.31975,277.141 L251.31975,287.14 Z M273.95775,280.672 L273.95775,287.2885 L282.30675,287.2885 L282.30675,290.704 L273.95775,290.704 L273.95775,297.4525 L284.55075,297.4525 L284.55075,301 L269.50275,301 L269.50275,277.141 L284.55075,277.141 L284.55075,280.672 L273.95775,280.672 Z M295.68825,288.493 C296.524254,288.493 297.252997,288.388501 297.8745,288.1795 C298.496003,287.970499 299.007498,287.681752 299.409,287.31325 C299.810502,286.944748 300.110249,286.507503 300.30825,286.0015 C300.506251,285.495497 300.60525,284.940003 300.60525,284.335 C300.60525,283.124994 300.206504,282.195503 299.409,281.5465 C298.611496,280.897497 297.393258,280.573 295.75425,280.573 L292.91625,280.573 L292.91625,288.493 L295.68825,288.493 Z M307.10625,301 L303.09675,301 C302.337746,301 301.787752,300.703003 301.44675,300.109 L296.43075,292.4695 C296.243749,292.183499 296.037501,291.980001 295.812,291.859 C295.586499,291.737999 295.253752,291.6775 294.81375,291.6775 L292.91625,291.6775 L292.91625,301 L288.47775,301 L288.47775,277.141 L295.75425,277.141 C297.371258,277.141 298.759994,277.308748 299.9205,277.64425 C301.081006,277.979752 302.032496,278.449997 302.775,279.055 C303.517504,279.660003 304.064748,280.383246 304.41675,281.22475 C304.768752,282.066254 304.94475,282.992995 304.94475,284.005 C304.94475,284.808004 304.826501,285.566996 304.59,286.282 C304.353499,286.997004 304.012502,287.645997 303.567,288.229 C303.121498,288.812003 302.571503,289.323498 301.917,289.7635 C301.262497,290.203502 300.517254,290.549999 299.68125,290.803 C299.967251,290.968001 300.231249,291.163249 300.47325,291.38875 C300.715251,291.614251 300.935249,291.880998 301.13325,292.189 L307.10625,301 Z M319.94325,291.76 L319.94325,301 L315.52125,301 L315.52125,291.76 L306.82575,277.141 L310.73625,277.141 C311.121252,277.141 311.426499,277.234499 311.652,277.4215 C311.877501,277.608501 312.067249,277.844999 312.22125,278.131 L316.57725,286.1005 C316.830251,286.573502 317.052999,287.018998 317.2455,287.437 C317.438001,287.855002 317.611249,288.272998 317.76525,288.691 C317.908251,288.272998 318.073249,287.855002 318.26025,287.437 C318.447251,287.018998 318.661749,286.573502 318.90375,286.1005 L323.24325,278.131 C323.364251,277.888999 323.545749,277.663501 323.78775,277.4545 C324.029751,277.245499 324.337748,277.141 324.71175,277.141 L328.63875,277.141 L319.94325,291.76 Z" id="BAKERY" fill="#5DDEFF" fill-rule="nonzero"></path>
        <rect id="Rectangle" fill="#151F3B" x="352" y="240" width="163" height="96"></rect>
        <path d="M396.71825,289.0705 C396.71825,290.819509 396.426753,292.425493 395.84375,293.8885 C395.260747,295.351507 394.441255,296.610995 393.38525,297.667 C392.329245,298.723005 391.058757,299.542497 389.57375,300.1255 C388.088743,300.708503 386.438759,301 384.62375,301 L375.53225,301 L375.53225,277.141 L384.62375,277.141 C386.438759,277.141 388.088743,277.435247 389.57375,278.02375 C391.058757,278.612253 392.329245,279.431745 393.38525,280.48225 C394.441255,281.532755 395.260747,282.789493 395.84375,284.2525 C396.426753,285.715507 396.71825,287.321491 396.71825,289.0705 Z M392.16425,289.0705 C392.16425,287.761493 391.991002,286.587255 391.6445,285.54775 C391.297998,284.508245 390.797503,283.628254 390.143,282.90775 C389.488497,282.187246 388.696505,281.634502 387.767,281.2495 C386.837495,280.864498 385.789756,280.672 384.62375,280.672 L379.98725,280.672 L379.98725,297.469 L384.62375,297.469 C385.789756,297.469 386.837495,297.276502 387.767,296.8915 C388.696505,296.506498 389.488497,295.953754 390.143,295.23325 C390.797503,294.512746 391.297998,293.632755 391.6445,292.59325 C391.991002,291.553745 392.16425,290.379507 392.16425,289.0705 Z M407.83925,288.493 C408.675254,288.493 409.403997,288.388501 410.0255,288.1795 C410.647003,287.970499 411.158498,287.681752 411.56,287.31325 C411.961502,286.944748 412.261249,286.507503 412.45925,286.0015 C412.657251,285.495497 412.75625,284.940003 412.75625,284.335 C412.75625,283.124994 412.357504,282.195503 411.56,281.5465 C410.762496,280.897497 409.544258,280.573 407.90525,280.573 L405.06725,280.573 L405.06725,288.493 L407.83925,288.493 Z M419.25725,301 L415.24775,301 C414.488746,301 413.938752,300.703003 413.59775,300.109 L408.58175,292.4695 C408.394749,292.183499 408.188501,291.980001 407.963,291.859 C407.737499,291.737999 407.404752,291.6775 406.96475,291.6775 L405.06725,291.6775 L405.06725,301 L400.62875,301 L400.62875,277.141 L407.90525,277.141 C409.522258,277.141 410.910994,277.308748 412.0715,277.64425 C413.232006,277.979752 414.183496,278.449997 414.926,279.055 C415.668504,279.660003 416.215748,280.383246 416.56775,281.22475 C416.919752,282.066254 417.09575,282.992995 417.09575,284.005 C417.09575,284.808004 416.977501,285.566996 416.741,286.282 C416.504499,286.997004 416.163502,287.645997 415.718,288.229 C415.272498,288.812003 414.722503,289.323498 414.068,289.7635 C413.413497,290.203502 412.668254,290.549999 411.83225,290.803 C412.118251,290.968001 412.382249,291.163249 412.62425,291.38875 C412.866251,291.614251 413.086249,291.880998 413.28425,292.189 L419.25725,301 Z M426.30275,301 L421.84775,301 L421.84775,277.141 L426.30275,277.141 L426.30275,301 Z M451.74575,277.141 L451.74575,301 L449.46875,301 C449.116748,301 448.822501,300.942251 448.586,300.82675 C448.349499,300.711249 448.121251,300.516001 447.90125,300.241 L435.44375,284.335 C435.50975,285.061004 435.54275,285.731997 435.54275,286.348 L435.54275,301 L431.63225,301 L431.63225,277.141 L433.95875,277.141 C434.145751,277.141 434.307999,277.14925 434.4455,277.16575 C434.583001,277.18225 434.703999,277.21525 434.8085,277.26475 C434.913001,277.31425 435.01475,277.38575 435.11375,277.47925 C435.21275,277.57275 435.322749,277.696499 435.44375,277.8505 L447.95075,293.8225 C447.91775,293.437498 447.89025,293.058002 447.86825,292.684 C447.84625,292.309998 447.83525,291.963502 447.83525,291.6445 L447.83525,277.141 L451.74575,277.141 Z M461.49725,287.14 L462.53675,287.14 C462.954752,287.14 463.301249,287.082251 463.57625,286.96675 C463.851251,286.851249 464.087749,286.667001 464.28575,286.414 L470.86925,278.0815 C471.144251,277.729498 471.432998,277.484751 471.7355,277.34725 C472.038002,277.209749 472.420248,277.141 472.88225,277.141 L476.71025,277.141 L468.67475,287.0575 C468.201748,287.662503 467.712253,288.091499 467.20625,288.3445 C467.569252,288.476501 467.896499,288.660749 468.188,288.89725 C468.479501,289.133751 468.757249,289.444498 469.02125,289.8295 L477.30425,301 L473.39375,301 C472.865747,301 472.472501,300.925751 472.214,300.77725 C471.955499,300.628749 471.738251,300.411501 471.56225,300.1255 L464.81375,291.3145 C464.604749,291.017499 464.362751,290.808501 464.08775,290.6875 C463.812749,290.566499 463.416753,290.506 462.89975,290.506 L461.49725,290.506 L461.49725,301 L457.05875,301 L457.05875,277.141 L461.49725,277.141 L461.49725,287.14 Z M492.38525,281.4805 C492.253249,281.711501 492.113001,281.879249 491.9645,281.98375 C491.815999,282.088251 491.631751,282.1405 491.41175,282.1405 C491.180749,282.1405 490.930501,282.055251 490.661,281.88475 C490.391499,281.714249 490.069752,281.524501 489.69575,281.3155 C489.321748,281.106499 488.884503,280.916751 488.384,280.74625 C487.883497,280.575749 487.292253,280.4905 486.61025,280.4905 C485.994247,280.4905 485.455252,280.564749 484.99325,280.71325 C484.531248,280.861751 484.143502,281.067999 483.83,281.332 C483.516498,281.596001 483.282751,281.912248 483.12875,282.28075 C482.974749,282.649252 482.89775,283.053498 482.89775,283.4935 C482.89775,284.054503 483.054498,284.521998 483.368,284.896 C483.681502,285.270002 484.096747,285.588999 484.61375,285.853 C485.130753,286.117001 485.719247,286.353499 486.37925,286.5625 C487.039253,286.771501 487.715747,286.994249 488.40875,287.23075 C489.101753,287.467251 489.778247,287.742248 490.43825,288.05575 C491.098253,288.369252 491.686747,288.765248 492.20375,289.24375 C492.720753,289.722252 493.135998,290.307997 493.4495,291.001 C493.763002,291.694003 493.91975,292.535495 493.91975,293.5255 C493.91975,294.603505 493.735502,295.612745 493.367,296.55325 C492.998498,297.493755 492.459504,298.313247 491.75,299.01175 C491.040496,299.710253 490.174255,300.260248 489.15125,300.66175 C488.128245,301.063252 486.956757,301.264 485.63675,301.264 C484.877746,301.264 484.129754,301.189751 483.39275,301.04125 C482.655746,300.892749 481.949003,300.681001 481.2725,300.406 C480.595997,300.130999 479.960753,299.801002 479.36675,299.416 C478.772747,299.030998 478.244752,298.602002 477.78275,298.129 L479.08625,296.0005 C479.196251,295.846499 479.339249,295.717251 479.51525,295.61275 C479.691251,295.508249 479.878249,295.456 480.07625,295.456 C480.351251,295.456 480.648248,295.568749 480.96725,295.79425 C481.286252,296.019751 481.665748,296.269999 482.10575,296.545 C482.545752,296.820001 483.059997,297.070249 483.6485,297.29575 C484.237003,297.521251 484.943746,297.634 485.76875,297.634 C487.033756,297.634 488.012747,297.334253 488.70575,296.73475 C489.398753,296.135247 489.74525,295.274506 489.74525,294.1525 C489.74525,293.525497 489.588502,293.014002 489.275,292.618 C488.961498,292.221998 488.546253,291.889251 488.02925,291.61975 C487.512247,291.350249 486.923753,291.122001 486.26375,290.935 C485.603747,290.747999 484.932753,290.544501 484.25075,290.3245 C483.568747,290.104499 482.897753,289.840502 482.23775,289.5325 C481.577747,289.224498 480.989253,288.823002 480.47225,288.328 C479.955247,287.832998 479.540002,287.214254 479.2265,286.47175 C478.912998,285.729246 478.75625,284.813505 478.75625,283.7245 C478.75625,282.855496 478.929498,282.008504 479.276,281.1835 C479.622502,280.358496 480.125747,279.627003 480.78575,278.989 C481.445753,278.350997 482.259745,277.839502 483.22775,277.4545 C484.195755,277.069498 485.306744,276.877 486.56075,276.877 C487.968757,276.877 489.266744,277.096998 490.45475,277.537 C491.642756,277.977002 492.654746,278.592996 493.49075,279.385 L492.38525,281.4805 Z" id="DRINKS" fill="#5DDEFF" fill-rule="nonzero"></path>
        <rect id="Rectangle" fill="#151F3B" x="522" y="240" width="37" height="96"></rect>
        <text id="SELECT-ANY-NUMBER-OF" font-family="Lato-Bold, Lato" font-size="33" font-weight="bold" fill="#000000">
            <tspan x="113.6855" y="95">SELECT ANY NUMBER </tspan>
            <tspan x="118.1405" y="135">OF ITEMS FROM ANY </tspan>
            <tspan x="52.09925" y="175">CATEGORY &amp; TAP ADD ITEMS</tspan>
        </text>
        <text id="Chicken-Salad" font-family="Roboto-Black, Roboto" font-size="33" font-weight="700" fill="#00D3FF">
            <tspan x="89.168457" y="511">Chicken Salad</tspan>
        </text>
        <text id="Coke-Large" font-family="Roboto-Black, Roboto" font-size="33" font-weight="700" fill="#00D3FF">
            <tspan x="89.3649902" y="611">Coke Large</tspan>
        </text>
        <rect id="Rectangle" stroke="#FFFFFF" fill="#10ACD5" x="37" y="384" width="28" height="28"></rect>
        <rect id="Rectangle" stroke="#FFFFFF" fill="#10ACD5" x="37" y="484" width="28" height="28"></rect>
        <rect id="Rectangle" stroke="#FFFFFF" fill="#10ACD5" x="37" y="587" width="28" height="28"></rect>
        <path id="Line-6" d="M509.5,665.58 L509.5,178.5 L516.5,178.5 L516.5,665.58 L532.5,665.58 L513,704.58 L493.5,665.58 L509.5,665.58 Z" fill="#FFFFFF" fill-rule="nonzero"></path>
    </g>
</svg>