<?xml version="1.0" encoding="UTF-8"?>
<svg width="570px" height="792px" viewBox="0 0 570 792" version="1.1" xmlns="http://www.w3.org/2000/svg" xmlns:xlink="http://www.w3.org/1999/xlink">
    <!-- Generator: Sketch 54.1 (76490) - https://sketchapp.com -->
    <title>F3_catalog_en</title>
    <desc>Created with Sketch.</desc>
    <g id="F3_catalog_en" stroke="none" stroke-width="1" fill="none" fill-rule="evenodd">
        <rect id="Rectangle" fill="#00B0FF" x="0" y="0" width="570" height="792" rx="16"></rect>
        <rect id="Rectangle" fill="#0B0C24" x="12" y="222" width="547" height="553" rx="11"></rect>
        <rect id="Rectangle" fill="#375270" opacity="0.295014881" x="12" y="347" width="547" height="104"></rect>
        <path d="M12,659 L559,659 L559,754 C559,763.941125 550.941125,772 541,772 L30,772 C20.0588745,772 12,763.941125 12,754 L12,659 Z" id="Rectangle" fill="#0098CE"></path>
        <path d="M169.105225,725.895996 L153.95874,725.895996 L150.789795,735 L143.726807,735 L158.497314,695.898438 L164.593506,695.898438 L179.390869,735 L172.301025,735 L169.105225,725.895996 Z M155.865479,720.41748 L167.198486,720.41748 L161.531982,704.196777 L155.865479,720.41748 Z M183.822021,735 L183.822021,695.898438 L195.369873,695.898438 C198.825294,695.898438 201.891263,696.668287 204.567871,698.208008 C207.24448,699.747729 209.316806,701.931952 210.784912,704.760742 C212.253018,707.589532 212.987061,710.83006 212.987061,714.482422 L212.987061,716.442871 C212.987061,720.148944 212.248543,723.407375 210.771484,726.218262 C209.294426,729.029148 207.190769,731.195468 204.460449,732.717285 C201.73013,734.239103 198.601499,735 195.074463,735 L183.822021,735 Z M190.616455,701.376953 L190.616455,729.575195 L195.047607,729.575195 C198.610451,729.575195 201.345205,728.460705 203.251953,726.231689 C205.158701,724.002674 206.129964,720.80243 206.165771,716.630859 L206.165771,714.455566 C206.165771,710.212381 205.243743,706.971854 203.399658,704.733887 C201.555573,702.49592 198.879005,701.376953 195.369873,701.376953 L190.616455,701.376953 Z M219.754639,735 L219.754639,695.898438 L231.30249,695.898438 C234.757911,695.898438 237.82388,696.668287 240.500488,698.208008 C243.177097,699.747729 245.249423,701.931952 246.717529,704.760742 C248.185636,707.589532 248.919678,710.83006 248.919678,714.482422 L248.919678,716.442871 C248.919678,720.148944 248.18116,723.407375 246.704102,726.218262 C245.227043,729.029148 243.123386,731.195468 240.393066,732.717285 C237.662747,734.239103 234.534116,735 231.00708,735 L219.754639,735 Z M226.549072,701.376953 L226.549072,729.575195 L230.980225,729.575195 C234.543068,729.575195 237.277822,728.460705 239.18457,726.231689 C241.091318,724.002674 242.062581,720.80243 242.098389,716.630859 L242.098389,714.455566 C242.098389,710.212381 241.17636,706.971854 239.332275,704.733887 C237.488191,702.49592 234.811622,701.376953 231.30249,701.376953 L226.549072,701.376953 Z M276.553955,735 L269.786377,735 L269.786377,695.898438 L276.553955,695.898438 L276.553955,735 Z M313.157959,701.376953 L300.965576,701.376953 L300.965576,735 L294.224854,735 L294.224854,701.376953 L282.139893,701.376953 L282.139893,695.898438 L313.157959,695.898438 L313.157959,701.376953 Z M341.141357,717.543945 L325.081787,717.543945 L325.081787,729.575195 L343.85376,729.575195 L343.85376,735 L318.287354,735 L318.287354,695.898438 L343.665771,695.898438 L343.665771,701.376953 L325.081787,701.376953 L325.081787,712.172852 L341.141357,712.172852 L341.141357,717.543945 Z M358.19458,695.898438 L369.473877,725.869141 L380.726318,695.898438 L389.508057,695.898438 L389.508057,735 L382.740479,735 L382.740479,722.109375 L383.411865,704.868164 L371.864014,735 L367.003174,735 L355.482178,704.89502 L356.153564,722.109375 L356.153564,735 L349.385986,735 L349.385986,695.898438 L358.19458,695.898438 Z M417.974854,724.929199 C417.974854,723.210441 417.370612,721.885584 416.162109,720.95459 C414.953607,720.023596 412.77386,719.083664 409.622803,718.134766 C406.471745,717.185868 403.96526,716.129563 402.103271,714.96582 C398.540428,712.727853 396.759033,709.809588 396.759033,706.210938 C396.759033,703.05988 398.043607,700.463877 400.612793,698.422852 C403.181979,696.381826 406.5165,695.361328 410.616455,695.361328 C413.337823,695.361328 415.763743,695.862625 417.894287,696.865234 C420.024832,697.867844 421.698806,699.295645 422.91626,701.148682 C424.133714,703.001718 424.742432,705.056141 424.742432,707.312012 L417.974854,707.312012 C417.974854,705.270986 417.334805,703.673101 416.054688,702.518311 C414.77457,701.36352 412.943941,700.786133 410.562744,700.786133 C408.342681,700.786133 406.619472,701.260575 405.393066,702.209473 C404.166661,703.158371 403.553467,704.483227 403.553467,706.184082 C403.553467,707.616381 404.215895,708.811437 405.540771,709.769287 C406.865648,710.727137 409.049871,711.658117 412.093506,712.562256 C415.137141,713.466394 417.580964,714.495844 419.425049,715.650635 C421.269134,716.805426 422.620845,718.130282 423.480225,719.625244 C424.339604,721.120206 424.769287,722.87027 424.769287,724.875488 C424.769287,728.133968 423.52052,730.725495 421.022949,732.650146 C418.525378,734.574798 415.137147,735.537109 410.858154,735.537109 C408.029364,735.537109 405.428886,735.013433 403.056641,733.966064 C400.684396,732.918696 398.840339,731.472991 397.524414,729.628906 C396.20849,727.784822 395.550537,725.636405 395.550537,723.183594 L402.344971,723.183594 C402.344971,725.403657 403.079013,727.12239 404.547119,728.339844 C406.015225,729.557298 408.118883,730.166016 410.858154,730.166016 C413.221447,730.166016 414.998366,729.687098 416.188965,728.729248 C417.379563,727.771398 417.974854,726.504728 417.974854,724.929199 Z" id="ADDITEMS" fill="#FFFFFF" fill-rule="nonzero"></path>
        <rect id="Rectangle" stroke="#5F5F5F" fill="#375270" opacity="0.295014881" x="12.5" y="447.5" width="546" height="103"></rect>
        <rect id="Rectangle" fill="#375270" opacity="0.295014881" x="12" y="547" width="547" height="104"></rect>
        <path d="M88.552002,410 L88.552002,386.539062 L96.7697754,386.539062 C99.6164693,386.539062 101.775627,387.084223 103.247314,388.174561 C104.719001,389.264898 105.454834,390.862782 105.454834,392.968262 C105.454834,394.117682 105.159427,395.130123 104.568604,396.005615 C103.97778,396.881108 103.156011,397.522947 102.103271,397.931152 C103.306403,398.231935 104.254391,398.838863 104.947266,399.751953 C105.64014,400.665044 105.986572,401.78222 105.986572,403.103516 C105.986572,405.359386 105.266853,407.067377 103.827393,408.227539 C102.387932,409.387701 100.336195,409.978516 97.6721191,410 L88.552002,410 Z M93.3859863,399.78418 L93.3859863,406.116699 L97.5270996,406.116699 C98.6657772,406.116699 99.5546843,405.845462 100.193848,405.302979 C100.833011,404.760495 101.152588,404.011235 101.152588,403.055176 C101.152588,400.906728 100.040783,399.816406 97.8171387,399.78418 L93.3859863,399.78418 Z M93.3859863,396.368164 L96.9631348,396.368164 C99.4016235,396.325195 100.62085,395.353037 100.62085,393.45166 C100.62085,392.388178 100.312015,391.622805 99.6943359,391.155518 C99.0766571,390.68823 98.1018133,390.45459 96.7697754,390.45459 L93.3859863,390.45459 L93.3859863,396.368164 Z M109.612061,410 L109.612061,386.539062 L117.829834,386.539062 C120.676528,386.539062 122.835686,387.084223 124.307373,388.174561 C125.77906,389.264898 126.514893,390.862782 126.514893,392.968262 C126.514893,394.117682 126.219485,395.130123 125.628662,396.005615 C125.037839,396.881108 124.21607,397.522947 123.16333,397.931152 C124.366461,398.231935 125.31445,398.838863 126.007324,399.751953 C126.700199,400.665044 127.046631,401.78222 127.046631,403.103516 C127.046631,405.359386 126.326911,407.067377 124.887451,408.227539 C123.447991,409.387701 121.396254,409.978516 118.732178,410 L109.612061,410 Z M114.446045,399.78418 L114.446045,406.116699 L118.587158,406.116699 C119.725836,406.116699 120.614743,405.845462 121.253906,405.302979 C121.89307,404.760495 122.212646,404.011235 122.212646,403.055176 C122.212646,400.906728 121.100841,399.816406 118.877197,399.78418 L114.446045,399.78418 Z M114.446045,396.368164 L118.023193,396.368164 C120.461682,396.325195 121.680908,395.353037 121.680908,393.45166 C121.680908,392.388178 121.372073,391.622805 120.754395,391.155518 C120.136716,390.68823 119.161872,390.45459 117.829834,390.45459 L114.446045,390.45459 L114.446045,396.368164 Z M149.911377,398.80127 C149.911377,400.992687 149.556888,402.89672 148.8479,404.513428 C148.138912,406.130135 147.156012,407.427241 145.89917,408.404785 L149.798584,411.466309 L146.720947,414.189453 L141.72583,410.177246 C141.156491,410.273926 140.565677,410.322266 139.953369,410.322266 C138.009023,410.322266 136.274178,409.854985 134.748779,408.92041 C133.223381,407.985835 132.041752,406.651132 131.203857,404.91626 C130.365963,403.181388 129.94165,401.186046 129.930908,398.930176 L129.930908,397.77002 C129.930908,395.460438 130.347164,393.427499 131.179688,391.671143 C132.012211,389.914786 133.188469,388.566655 134.708496,387.626709 C136.228523,386.686763 137.966055,386.216797 139.921143,386.216797 C141.87623,386.216797 143.613762,386.686763 145.133789,387.626709 C146.653816,388.566655 147.830074,389.914786 148.662598,391.671143 C149.495121,393.427499 149.911377,395.455067 149.911377,397.753906 L149.911377,398.80127 Z M145.012939,397.737793 C145.012939,395.27782 144.572514,393.408698 143.69165,392.130371 C142.810787,390.852044 141.553963,390.212891 139.921143,390.212891 C138.299064,390.212891 137.047612,390.843988 136.166748,392.106201 C135.285884,393.368415 134.840088,395.218738 134.829346,397.657227 L134.829346,398.80127 C134.829346,401.196789 135.269771,403.055169 136.150635,404.376465 C137.031499,405.697761 138.299064,406.358398 139.953369,406.358398 C141.575448,406.358398 142.821529,405.72193 143.69165,404.448975 C144.561772,403.176019 145.002197,401.320325 145.012939,398.881836 L145.012939,397.737793 Z M180.091553,402.185059 C179.908935,404.709485 178.977059,406.69677 177.295898,408.146973 C175.614738,409.597175 173.399184,410.322266 170.64917,410.322266 C167.641342,410.322266 165.275399,409.309825 163.55127,407.284912 C161.82714,405.26 160.965088,402.480486 160.965088,398.946289 L160.965088,397.512207 C160.965088,395.256336 161.362545,393.269052 162.157471,391.550293 C162.952397,389.831534 164.088372,388.512944 165.56543,387.594482 C167.042488,386.676021 168.758535,386.216797 170.713623,386.216797 C173.420668,386.216797 175.60131,386.941887 177.255615,388.39209 C178.90992,389.842292 179.865966,391.877917 180.123779,394.499023 L175.289795,394.499023 C175.17163,392.984367 174.750004,391.88599 174.024902,391.203857 C173.299801,390.521725 172.196052,390.180664 170.713623,390.180664 C169.102287,390.180664 167.896488,390.758051 167.096191,391.912842 C166.295894,393.067633 165.88501,394.858875 165.863525,397.286621 L165.863525,399.059082 C165.863525,401.594251 166.247555,403.44726 167.015625,404.618164 C167.783695,405.789068 168.994865,406.374512 170.64917,406.374512 C172.142341,406.374512 173.256832,406.033451 173.992676,405.351318 C174.728519,404.669186 175.150146,403.613777 175.257568,402.185059 L180.091553,402.185059 Z M187.503662,394.466797 C188.73902,392.984368 190.29125,392.243164 192.1604,392.243164 C195.941669,392.243164 197.859131,394.439919 197.912842,398.833496 L197.912842,410 L193.256104,410 L193.256104,398.962402 C193.256104,397.963374 193.041262,397.224856 192.611572,396.746826 C192.181883,396.268796 191.467534,396.029785 190.468506,396.029785 C189.104241,396.029785 188.11597,396.556147 187.503662,397.608887 L187.503662,410 L182.846924,410 L182.846924,385.25 L187.503662,385.25 L187.503662,394.466797 Z M206.340088,410 L201.667236,410 L201.667236,392.56543 L206.340088,392.56543 L206.340088,410 Z M201.393311,388.053711 C201.393311,387.355465 201.626951,386.780764 202.094238,386.32959 C202.561526,385.878416 203.197994,385.652832 204.003662,385.652832 C204.798588,385.652832 205.432371,385.878416 205.905029,386.32959 C206.377688,386.780764 206.614014,387.355465 206.614014,388.053711 C206.614014,388.762699 206.375002,389.342771 205.896973,389.793945 C205.418943,390.245119 204.787846,390.470703 204.003662,390.470703 C203.219479,390.470703 202.588381,390.245119 202.110352,389.793945 C201.632322,389.342771 201.393311,388.762699 201.393311,388.053711 Z M217.426025,406.567871 C218.285405,406.567871 218.98364,406.331545 219.520752,405.858887 C220.057864,405.386228 220.337158,404.757816 220.358643,403.973633 L224.725342,403.973633 C224.7146,405.155279 224.392337,406.237544 223.758545,407.220459 C223.124753,408.203374 222.25733,408.966062 221.15625,409.508545 C220.05517,410.051028 218.83863,410.322266 217.506592,410.322266 C215.014392,410.322266 213.048591,409.530037 211.609131,407.945557 C210.169671,406.361076 209.449951,404.172377 209.449951,401.379395 L209.449951,401.073242 C209.449951,398.387682 210.164299,396.244637 211.593018,394.644043 C213.021736,393.043449 214.982165,392.243164 217.474365,392.243164 C219.65504,392.243164 221.403314,392.863519 222.719238,394.104248 C224.035163,395.344977 224.703857,396.996572 224.725342,399.059082 L220.358643,399.059082 C220.337158,398.156734 220.057864,397.423587 219.520752,396.859619 C218.98364,396.295651 218.274663,396.013672 217.393799,396.013672 C216.308832,396.013672 215.489749,396.408443 214.936523,397.197998 C214.383298,397.987553 214.106689,399.268546 214.106689,401.041016 L214.106689,401.524414 C214.106689,403.318368 214.380612,404.607418 214.928467,405.391602 C215.476321,406.175785 216.308832,406.567871 217.426025,406.567871 Z M233.716553,403.006836 L232.040771,404.682617 L232.040771,410 L227.384033,410 L227.384033,385.25 L232.040771,385.25 L232.040771,398.962402 L232.943115,397.802246 L237.406494,392.56543 L242.997803,392.56543 L236.69751,399.83252 L243.545654,410 L238.196045,410 L233.716553,403.006836 Z M253.036377,410.322266 C250.479724,410.322266 248.398446,409.538094 246.79248,407.969727 C245.186515,406.401359 244.383545,404.312025 244.383545,401.70166 L244.383545,401.250488 C244.383545,399.499503 244.72192,397.933845 245.398682,396.553467 C246.075443,395.173089 247.034173,394.109623 248.274902,393.363037 C249.515631,392.616451 250.9309,392.243164 252.520752,392.243164 C254.90553,392.243164 256.782708,392.99511 258.152344,394.499023 C259.52198,396.002937 260.206787,398.13524 260.206787,400.895996 L260.206787,402.797363 L249.104736,402.797363 C249.255128,403.936041 249.708981,404.849118 250.466309,405.536621 C251.223637,406.224125 252.182367,406.567871 253.342529,406.567871 C255.136484,406.567871 256.538325,405.917975 257.548096,404.618164 L259.836182,407.180176 C259.137936,408.168462 258.192633,408.939206 257.000244,409.492432 C255.807855,410.045657 254.48658,410.322266 253.036377,410.322266 Z M252.504639,396.013672 C251.580806,396.013672 250.831546,396.325192 250.256836,396.948242 C249.682126,397.571292 249.31421,398.462885 249.153076,399.623047 L255.630615,399.623047 L255.630615,399.252441 C255.609131,398.221186 255.329837,397.423587 254.792725,396.859619 C254.255613,396.295651 253.492925,396.013672 252.504639,396.013672 Z M267.135498,392.56543 L267.280518,394.57959 C268.526618,393.021965 270.197011,392.243164 272.291748,392.243164 C274.139414,392.243164 275.5144,392.785639 276.416748,393.870605 C277.319096,394.955572 277.781006,396.577626 277.80249,398.736816 L277.80249,410 L273.145752,410 L273.145752,398.849609 C273.145752,397.861323 272.93091,397.144289 272.501221,396.698486 C272.071531,396.252683 271.357183,396.029785 270.358154,396.029785 C269.047601,396.029785 268.064701,396.588373 267.409424,397.705566 L267.409424,410 L262.752686,410 L262.752686,392.56543 L267.135498,392.56543 Z" id="BBQChicken" fill="#00D3FF" fill-rule="nonzero"></path>
        <rect id="Rectangle" stroke="#5F5F5F" fill="#375270" opacity="0.295014881" x="12.5" y="547.5" width="546" height="103"></rect>
        <rect id="Rectangle" stroke="#5F5F5F" fill="#375270" opacity="0.295014881" x="12.5" y="347.5" width="546" height="103"></rect>
        <rect id="Rectangle" fill="#FFFFFF" x="33" y="47" width="505" height="149" rx="12"></rect>
        <rect id="Rectangle" fill="#151F3B" x="12" y="240" width="163" height="96"></rect>
        <path d="M80.65975,291.991 L77.75575,284.0545 C77.6127493,283.702498 77.4642508,283.284502 77.31025,282.8005 C77.1562492,282.316498 77.0022508,281.794003 76.84825,281.233 C76.7052493,281.794003 76.5567508,282.319248 76.40275,282.80875 C76.2487492,283.298252 76.1002507,283.724498 75.95725,284.0875 L73.06975,291.991 L80.65975,291.991 Z M88.49725,301 L85.06525,301 C84.6802481,301 84.3667512,300.903751 84.12475,300.71125 C83.8827488,300.518749 83.7012506,300.279501 83.58025,299.9935 L81.79825,295.126 L71.91475,295.126 L70.13275,299.9935 C70.0447496,300.246501 69.8742513,300.477499 69.62125,300.6865 C69.3682487,300.895501 69.0547519,301 68.68075,301 L65.21575,301 L74.60425,277.141 L79.12525,277.141 L88.49725,301 Z M104.94775,297.337 L104.94775,301 L90.97225,301 L90.97225,277.141 L95.41075,277.141 L95.41075,297.337 L104.94775,297.337 Z M122.09125,297.337 L122.09125,301 L108.11575,301 L108.11575,277.141 L112.55425,277.141 L112.55425,297.337 L122.09125,297.337 Z" id="ALL" fill="#5DDEFF" fill-rule="nonzero"></path>
        <rect id="Rectangle" fill="#151F3B" x="182" y="240" width="163" height="96"></rect>
        <path d="M211.15875,297.535 C211.983754,297.535 212.676747,297.436001 213.23775,297.238 C213.798753,297.039999 214.246998,296.776002 214.5825,296.446 C214.918002,296.115998 215.159999,295.731002 215.3085,295.291 C215.457001,294.850998 215.53125,294.383502 215.53125,293.8885 C215.53125,293.371497 215.448751,292.906752 215.28375,292.49425 C215.118749,292.081748 214.860252,291.729751 214.50825,291.43825 C214.156248,291.146749 213.702503,290.924001 213.147,290.77 C212.591497,290.615999 211.923254,290.539 211.14225,290.539 L206.67075,290.539 L206.67075,297.535 L211.15875,297.535 Z M206.67075,280.573 L206.67075,287.47 L210.20175,287.47 C211.719758,287.47 212.866496,287.195003 213.642,286.645 C214.417504,286.094997 214.80525,285.220506 214.80525,284.0215 C214.80525,282.778494 214.453254,281.893003 213.74925,281.365 C213.045246,280.836997 211.945257,280.573 210.44925,280.573 L206.67075,280.573 Z M210.44925,277.141 C212.011258,277.141 213.347744,277.289499 214.45875,277.5865 C215.569756,277.883501 216.479996,278.306997 217.1895,278.857 C217.899004,279.407003 218.418748,280.072496 218.74875,280.8535 C219.078752,281.634504 219.24375,282.514495 219.24375,283.4935 C219.24375,284.054503 219.161251,284.590747 218.99625,285.10225 C218.831249,285.613753 218.575502,286.092248 218.229,286.53775 C217.882498,286.983252 217.442503,287.387498 216.909,287.7505 C216.375497,288.113502 215.740254,288.421499 215.00325,288.6745 C218.281266,289.411504 219.92025,291.182486 219.92025,293.9875 C219.92025,294.999505 219.727752,295.934496 219.34275,296.7925 C218.957748,297.650504 218.396754,298.390247 217.65975,299.01175 C216.922746,299.633253 216.015255,300.119998 214.93725,300.472 C213.859245,300.824002 212.627257,301 211.24125,301 L202.23225,301 L202.23225,277.141 L210.44925,277.141 Z M236.56875,291.991 L233.66475,284.0545 C233.521749,283.702498 233.373251,283.284502 233.21925,282.8005 C233.065249,282.316498 232.911251,281.794003 232.75725,281.233 C232.614249,281.794003 232.465751,282.319248 232.31175,282.80875 C232.157749,283.298252 232.009251,283.724498 231.86625,284.0875 L228.97875,291.991 L236.56875,291.991 Z M244.40625,301 L240.97425,301 C240.589248,301 240.275751,300.903751 240.03375,300.71125 C239.791749,300.518749 239.610251,300.279501 239.48925,299.9935 L237.70725,295.126 L227.82375,295.126 L226.04175,299.9935 C225.95375,300.246501 225.783251,300.477499 225.53025,300.6865 C225.277249,300.895501 224.963752,301 224.58975,301 L221.12475,301 L230.51325,277.141 L235.03425,277.141 L244.40625,301 Z M251.31975,287.14 L252.35925,287.14 C252.777252,287.14 253.123749,287.082251 253.39875,286.96675 C253.673751,286.851249 253.910249,286.667001 254.10825,286.414 L260.69175,278.0815 C260.966751,277.729498 261.255498,277.484751 261.558,277.34725 C261.860502,277.209749 262.242748,277.141 262.70475,277.141 L266.53275,277.141 L258.49725,287.0575 C258.024248,287.662503 257.534753,288.091499 257.02875,288.3445 C257.391752,288.476501 257.718999,288.660749 258.0105,288.89725 C258.302001,289.133751 258.579749,289.444498 258.84375,289.8295 L267.12675,301 L263.21625,301 C262.688247,301 262.295001,300.925751 262.0365,300.77725 C261.777999,300.628749 261.560751,300.411501 261.38475,300.1255 L254.63625,291.3145 C254.427249,291.017499 254.185251,290.808501 253.91025,290.6875 C253.635249,290.566499 253.239253,290.506 252.72225,290.506 L251.31975,290.506 L251.31975,301 L246.88125,301 L246.88125,277.141 L251.31975,277.141 L251.31975,287.14 Z M273.95775,280.672 L273.95775,287.2885 L282.30675,287.2885 L282.30675,290.704 L273.95775,290.704 L273.95775,297.4525 L284.55075,297.4525 L284.55075,301 L269.50275,301 L269.50275,277.141 L284.55075,277.141 L284.55075,280.672 L273.95775,280.672 Z M295.68825,288.493 C296.524254,288.493 297.252997,288.388501 297.8745,288.1795 C298.496003,287.970499 299.007498,287.681752 299.409,287.31325 C299.810502,286.944748 300.110249,286.507503 300.30825,286.0015 C300.506251,285.495497 300.60525,284.940003 300.60525,284.335 C300.60525,283.124994 300.206504,282.195503 299.409,281.5465 C298.611496,280.897497 297.393258,280.573 295.75425,280.573 L292.91625,280.573 L292.91625,288.493 L295.68825,288.493 Z M307.10625,301 L303.09675,301 C302.337746,301 301.787752,300.703003 301.44675,300.109 L296.43075,292.4695 C296.243749,292.183499 296.037501,291.980001 295.812,291.859 C295.586499,291.737999 295.253752,291.6775 294.81375,291.6775 L292.91625,291.6775 L292.91625,301 L288.47775,301 L288.47775,277.141 L295.75425,277.141 C297.371258,277.141 298.759994,277.308748 299.9205,277.64425 C301.081006,277.979752 302.032496,278.449997 302.775,279.055 C303.517504,279.660003 304.064748,280.383246 304.41675,281.22475 C304.768752,282.066254 304.94475,282.992995 304.94475,284.005 C304.94475,284.808004 304.826501,285.566996 304.59,286.282 C304.353499,286.997004 304.012502,287.645997 303.567,288.229 C303.121498,288.812003 302.571503,289.323498 301.917,289.7635 C301.262497,290.203502 300.517254,290.549999 299.68125,290.803 C299.967251,290.968001 300.231249,291.163249 300.47325,291.38875 C300.715251,291.614251 300.935249,291.880998 301.13325,292.189 L307.10625,301 Z M319.94325,291.76 L319.94325,301 L315.52125,301 L315.52125,291.76 L306.82575,277.141 L310.73625,277.141 C311.121252,277.141 311.426499,277.234499 311.652,277.4215 C311.877501,277.608501 312.067249,277.844999 312.22125,278.131 L316.57725,286.1005 C316.830251,286.573502 317.052999,287.018998 317.2455,287.437 C317.438001,287.855002 317.611249,288.272998 317.76525,288.691 C317.908251,288.272998 318.073249,287.855002 318.26025,287.437 C318.447251,287.018998 318.661749,286.573502 318.90375,286.1005 L323.24325,278.131 C323.364251,277.888999 323.545749,277.663501 323.78775,277.4545 C324.029751,277.245499 324.337748,277.141 324.71175,277.141 L328.63875,277.141 L319.94325,291.76 Z" id="BAKERY" fill="#5DDEFF" fill-rule="nonzero"></path>
        <rect id="Rectangle" fill="#151F3B" x="352" y="240" width="163" height="96"></rect>
        <path d="M396.71825,289.0705 C396.71825,290.819509 396.426753,292.425493 395.84375,293.8885 C395.260747,295.351507 394.441255,296.610995 393.38525,297.667 C392.329245,298.723005 391.058757,299.542497 389.57375,300.1255 C388.088743,300.708503 386.438759,301 384.62375,301 L375.53225,301 L375.53225,277.141 L384.62375,277.141 C386.438759,277.141 388.088743,277.435247 389.57375,278.02375 C391.058757,278.612253 392.329245,279.431745 393.38525,280.48225 C394.441255,281.532755 395.260747,282.789493 395.84375,284.2525 C396.426753,285.715507 396.71825,287.321491 396.71825,289.0705 Z M392.16425,289.0705 C392.16425,287.761493 391.991002,286.587255 391.6445,285.54775 C391.297998,284.508245 390.797503,283.628254 390.143,282.90775 C389.488497,282.187246 388.696505,281.634502 387.767,281.2495 C386.837495,280.864498 385.789756,280.672 384.62375,280.672 L379.98725,280.672 L379.98725,297.469 L384.62375,297.469 C385.789756,297.469 386.837495,297.276502 387.767,296.8915 C388.696505,296.506498 389.488497,295.953754 390.143,295.23325 C390.797503,294.512746 391.297998,293.632755 391.6445,292.59325 C391.991002,291.553745 392.16425,290.379507 392.16425,289.0705 Z M407.83925,288.493 C408.675254,288.493 409.403997,288.388501 410.0255,288.1795 C410.647003,287.970499 411.158498,287.681752 411.56,287.31325 C411.961502,286.944748 412.261249,286.507503 412.45925,286.0015 C412.657251,285.495497 412.75625,284.940003 412.75625,284.335 C412.75625,283.124994 412.357504,282.195503 411.56,281.5465 C410.762496,280.897497 409.544258,280.573 407.90525,280.573 L405.06725,280.573 L405.06725,288.493 L407.83925,288.493 Z M419.25725,301 L415.24775,301 C414.488746,301 413.938752,300.703003 413.59775,300.109 L408.58175,292.4695 C408.394749,292.183499 408.188501,291.980001 407.963,291.859 C407.737499,291.737999 407.404752,291.6775 406.96475,291.6775 L405.06725,291.6775 L405.06725,301 L400.62875,301 L400.62875,277.141 L407.90525,277.141 C409.522258,277.141 410.910994,277.308748 412.0715,277.64425 C413.232006,277.979752 414.183496,278.449997 414.926,279.055 C415.668504,279.660003 416.215748,280.383246 416.56775,281.22475 C416.919752,282.066254 417.09575,282.992995 417.09575,284.005 C417.09575,284.808004 416.977501,285.566996 416.741,286.282 C416.504499,286.997004 416.163502,287.645997 415.718,288.229 C415.272498,288.812003 414.722503,289.323498 414.068,289.7635 C413.413497,290.203502 412.668254,290.549999 411.83225,290.803 C412.118251,290.968001 412.382249,291.163249 412.62425,291.38875 C412.866251,291.614251 413.086249,291.880998 413.28425,292.189 L419.25725,301 Z M426.30275,301 L421.84775,301 L421.84775,277.141 L426.30275,277.141 L426.30275,301 Z M451.74575,277.141 L451.74575,301 L449.46875,301 C449.116748,301 448.822501,300.942251 448.586,300.82675 C448.349499,300.711249 448.121251,300.516001 447.90125,300.241 L435.44375,284.335 C435.50975,285.061004 435.54275,285.731997 435.54275,286.348 L435.54275,301 L431.63225,301 L431.63225,277.141 L433.95875,277.141 C434.145751,277.141 434.307999,277.14925 434.4455,277.16575 C434.583001,277.18225 434.703999,277.21525 434.8085,277.26475 C434.913001,277.31425 435.01475,277.38575 435.11375,277.47925 C435.21275,277.57275 435.322749,277.696499 435.44375,277.8505 L447.95075,293.8225 C447.91775,293.437498 447.89025,293.058002 447.86825,292.684 C447.84625,292.309998 447.83525,291.963502 447.83525,291.6445 L447.83525,277.141 L451.74575,277.141 Z M461.49725,287.14 L462.53675,287.14 C462.954752,287.14 463.301249,287.082251 463.57625,286.96675 C463.851251,286.851249 464.087749,286.667001 464.28575,286.414 L470.86925,278.0815 C471.144251,277.729498 471.432998,277.484751 471.7355,277.34725 C472.038002,277.209749 472.420248,277.141 472.88225,277.141 L476.71025,277.141 L468.67475,287.0575 C468.201748,287.662503 467.712253,288.091499 467.20625,288.3445 C467.569252,288.476501 467.896499,288.660749 468.188,288.89725 C468.479501,289.133751 468.757249,289.444498 469.02125,289.8295 L477.30425,301 L473.39375,301 C472.865747,301 472.472501,300.925751 472.214,300.77725 C471.955499,300.628749 471.738251,300.411501 471.56225,300.1255 L464.81375,291.3145 C464.604749,291.017499 464.362751,290.808501 464.08775,290.6875 C463.812749,290.566499 463.416753,290.506 462.89975,290.506 L461.49725,290.506 L461.49725,301 L457.05875,301 L457.05875,277.141 L461.49725,277.141 L461.49725,287.14 Z M492.38525,281.4805 C492.253249,281.711501 492.113001,281.879249 491.9645,281.98375 C491.815999,282.088251 491.631751,282.1405 491.41175,282.1405 C491.180749,282.1405 490.930501,282.055251 490.661,281.88475 C490.391499,281.714249 490.069752,281.524501 489.69575,281.3155 C489.321748,281.106499 488.884503,280.916751 488.384,280.74625 C487.883497,280.575749 487.292253,280.4905 486.61025,280.4905 C485.994247,280.4905 485.455252,280.564749 484.99325,280.71325 C484.531248,280.861751 484.143502,281.067999 483.83,281.332 C483.516498,281.596001 483.282751,281.912248 483.12875,282.28075 C482.974749,282.649252 482.89775,283.053498 482.89775,283.4935 C482.89775,284.054503 483.054498,284.521998 483.368,284.896 C483.681502,285.270002 484.096747,285.588999 484.61375,285.853 C485.130753,286.117001 485.719247,286.353499 486.37925,286.5625 C487.039253,286.771501 487.715747,286.994249 488.40875,287.23075 C489.101753,287.467251 489.778247,287.742248 490.43825,288.05575 C491.098253,288.369252 491.686747,288.765248 492.20375,289.24375 C492.720753,289.722252 493.135998,290.307997 493.4495,291.001 C493.763002,291.694003 493.91975,292.535495 493.91975,293.5255 C493.91975,294.603505 493.735502,295.612745 493.367,296.55325 C492.998498,297.493755 492.459504,298.313247 491.75,299.01175 C491.040496,299.710253 490.174255,300.260248 489.15125,300.66175 C488.128245,301.063252 486.956757,301.264 485.63675,301.264 C484.877746,301.264 484.129754,301.189751 483.39275,301.04125 C482.655746,300.892749 481.949003,300.681001 481.2725,300.406 C480.595997,300.130999 479.960753,299.801002 479.36675,299.416 C478.772747,299.030998 478.244752,298.602002 477.78275,298.129 L479.08625,296.0005 C479.196251,295.846499 479.339249,295.717251 479.51525,295.61275 C479.691251,295.508249 479.878249,295.456 480.07625,295.456 C480.351251,295.456 480.648248,295.568749 480.96725,295.79425 C481.286252,296.019751 481.665748,296.269999 482.10575,296.545 C482.545752,296.820001 483.059997,297.070249 483.6485,297.29575 C484.237003,297.521251 484.943746,297.634 485.76875,297.634 C487.033756,297.634 488.012747,297.334253 488.70575,296.73475 C489.398753,296.135247 489.74525,295.274506 489.74525,294.1525 C489.74525,293.525497 489.588502,293.014002 489.275,292.618 C488.961498,292.221998 488.546253,291.889251 488.02925,291.61975 C487.512247,291.350249 486.923753,291.122001 486.26375,290.935 C485.603747,290.747999 484.932753,290.544501 484.25075,290.3245 C483.568747,290.104499 482.897753,289.840502 482.23775,289.5325 C481.577747,289.224498 480.989253,288.823002 480.47225,288.328 C479.955247,287.832998 479.540002,287.214254 479.2265,286.47175 C478.912998,285.729246 478.75625,284.813505 478.75625,283.7245 C478.75625,282.855496 478.929498,282.008504 479.276,281.1835 C479.622502,280.358496 480.125747,279.627003 480.78575,278.989 C481.445753,278.350997 482.259745,277.839502 483.22775,277.4545 C484.195755,277.069498 485.306744,276.877 486.56075,276.877 C487.968757,276.877 489.266744,277.096998 490.45475,277.537 C491.642756,277.977002 492.654746,278.592996 493.49075,279.385 L492.38525,281.4805 Z" id="DRINKS" fill="#5DDEFF" fill-rule="nonzero"></path>
        <rect id="Rectangle" fill="#151F3B" x="522" y="240" width="37" height="96"></rect>
        <path d="M129.047,75.4805 C128.914999,75.7115012 128.774751,75.8792495 128.62625,75.98375 C128.477749,76.0882505 128.293501,76.1405 128.0735,76.1405 C127.842499,76.1405 127.592251,76.0552509 127.32275,75.88475 C127.053249,75.7142491 126.731502,75.524501 126.3575,75.3155 C125.983498,75.106499 125.546253,74.9167509 125.04575,74.74625 C124.545247,74.5757491 123.954003,74.4905 123.272,74.4905 C122.655997,74.4905 122.117002,74.5647493 121.655,74.71325 C121.192998,74.8617507 120.805252,75.0679987 120.49175,75.332 C120.178248,75.5960013 119.944501,75.9122482 119.7905,76.28075 C119.636499,76.6492518 119.5595,77.0534978 119.5595,77.4935 C119.5595,78.0545028 119.716248,78.5219981 120.02975,78.896 C120.343252,79.2700019 120.758497,79.5889987 121.2755,79.853 C121.792503,80.1170013 122.380997,80.353499 123.041,80.5625 C123.701003,80.771501 124.377497,80.9942488 125.0705,81.23075 C125.763503,81.4672512 126.439997,81.7422484 127.1,82.05575 C127.760003,82.3692516 128.348497,82.7652476 128.8655,83.24375 C129.382503,83.7222524 129.797748,84.3079965 130.11125,85.001 C130.424752,85.6940035 130.5815,86.535495 130.5815,87.5255 C130.5815,88.6035054 130.397252,89.6127453 130.02875,90.55325 C129.660248,91.4937547 129.121254,92.3132465 128.41175,93.01175 C127.702246,93.7102535 126.836005,94.260248 125.813,94.66175 C124.789995,95.063252 123.618507,95.264 122.2985,95.264 C121.539496,95.264 120.791504,95.1897507 120.0545,95.04125 C119.317496,94.8927493 118.610753,94.6810014 117.93425,94.406 C117.257747,94.1309986 116.622503,93.8010019 116.0285,93.416 C115.434497,93.0309981 114.906502,92.6020024 114.4445,92.129 L115.748,90.0005 C115.858001,89.8464992 116.000999,89.7172505 116.177,89.61275 C116.353001,89.5082495 116.539999,89.456 116.738,89.456 C117.013001,89.456 117.309998,89.5687489 117.629,89.79425 C117.948002,90.0197511 118.327498,90.2699986 118.7675,90.545 C119.207502,90.8200014 119.721747,91.0702489 120.31025,91.29575 C120.898753,91.5212511 121.605496,91.634 122.4305,91.634 C123.695506,91.634 124.674497,91.334253 125.3675,90.73475 C126.060503,90.135247 126.407,89.2745056 126.407,88.1525 C126.407,87.5254969 126.250252,87.014002 125.93675,86.618 C125.623248,86.221998 125.208003,85.8892513 124.691,85.61975 C124.173997,85.3502487 123.585503,85.1220009 122.9255,84.935 C122.265497,84.7479991 121.594503,84.5445011 120.9125,84.3245 C120.230497,84.1044989 119.559503,83.8405015 118.8995,83.5325 C118.239497,83.2244985 117.651003,82.8230025 117.134,82.328 C116.616997,81.8329975 116.201752,81.2142537 115.88825,80.47175 C115.574748,79.7292463 115.418,78.8135054 115.418,77.7245 C115.418,76.8554957 115.591248,76.0085041 115.93775,75.1835 C116.284252,74.3584959 116.787497,73.6270032 117.4475,72.989 C118.107503,72.3509968 118.921495,71.8395019 119.8895,71.4545 C120.857505,71.0694981 121.968494,70.877 123.2225,70.877 C124.630507,70.877 125.928494,71.0969978 127.1165,71.537 C128.304506,71.9770022 129.316496,72.592996 130.1525,73.385 L129.047,75.4805 Z M138.8975,74.672 L138.8975,81.2885 L147.2465,81.2885 L147.2465,84.704 L138.8975,84.704 L138.8975,91.4525 L149.4905,91.4525 L149.4905,95 L134.4425,95 L134.4425,71.141 L149.4905,71.141 L149.4905,74.672 L138.8975,74.672 Z M167.393,91.337 L167.393,95 L153.4175,95 L153.4175,71.141 L157.856,71.141 L157.856,91.337 L167.393,91.337 Z M175.016,74.672 L175.016,81.2885 L183.365,81.2885 L183.365,84.704 L175.016,84.704 L175.016,91.4525 L185.609,91.4525 L185.609,95 L170.561,95 L170.561,71.141 L185.609,71.141 L185.609,74.672 L175.016,74.672 Z M205.9205,89.3735 C206.162501,89.3735 206.376999,89.4669991 206.564,89.654 L208.313,91.5515 C207.344995,92.750506 206.154257,93.6689968 204.74075,94.307 C203.327243,94.9450032 201.63051,95.264 199.6505,95.264 C197.879491,95.264 196.287257,94.961503 194.87375,94.3565 C193.460243,93.751497 192.253005,92.9100054 191.252,91.832 C190.250995,90.7539946 189.483753,89.4670075 188.95025,87.971 C188.416747,86.4749925 188.15,84.8415089 188.15,83.0705 C188.15,81.277491 188.435997,79.6357575 189.008,78.14525 C189.580003,76.6547425 190.385745,75.3705054 191.42525,74.2925 C192.464755,73.2144946 193.704993,72.375753 195.146,71.77625 C196.587007,71.176747 198.181991,70.877 199.931,70.877 C201.669009,70.877 203.211743,71.1629971 204.55925,71.735 C205.906757,72.3070029 207.053495,73.0549954 207.9995,73.979 L206.5145,76.0415 C206.4265,76.1735007 206.313751,76.2889995 206.17625,76.388 C206.038749,76.4870005 205.849001,76.5365 205.607,76.5365 C205.441999,76.5365 205.271501,76.4897505 205.0955,76.39625 C204.919499,76.3027495 204.727001,76.1872507 204.518,76.04975 C204.308999,75.9122493 204.067001,75.7610008 203.792,75.596 C203.516999,75.4309992 203.198002,75.2797507 202.835,75.14225 C202.471998,75.0047493 202.051252,74.8892505 201.57275,74.79575 C201.094248,74.7022495 200.541503,74.6555 199.9145,74.6555 C198.847495,74.6555 197.871254,74.8452481 196.98575,75.22475 C196.100246,75.6042519 195.338503,76.1542464 194.7005,76.87475 C194.062497,77.5952536 193.567502,78.4752448 193.2155,79.51475 C192.863498,80.5542552 192.6875,81.7394933 192.6875,83.0705 C192.6875,84.4125067 192.877248,85.6059948 193.25675,86.651 C193.636252,87.6960052 194.150497,88.5759964 194.7995,89.291 C195.448503,90.0060036 196.212996,90.5532481 197.093,90.93275 C197.973004,91.3122519 198.918995,91.502 199.931,91.502 C200.536003,91.502 201.083248,91.4690003 201.57275,91.403 C202.062252,91.3369997 202.513248,91.2325007 202.92575,91.0895 C203.338252,90.9464993 203.728748,90.7622511 204.09725,90.53675 C204.465752,90.3112489 204.831498,90.0335017 205.1945,89.7035 C205.304501,89.6044995 205.419999,89.5247503 205.541,89.46425 C205.662001,89.4037497 205.788499,89.3735 205.9205,89.3735 Z M228.0305,74.7875 L220.8365,74.7875 L220.8365,95 L216.398,95 L216.398,74.7875 L209.204,74.7875 L209.204,71.141 L228.0305,71.141 L228.0305,74.7875 Z M251.7905,85.991 L248.8865,78.0545 C248.743499,77.7024982 248.595001,77.2845024 248.441,76.8005 C248.286999,76.3164976 248.133001,75.7940028 247.979,75.233 C247.835999,75.7940028 247.687501,76.3192476 247.5335,76.80875 C247.379499,77.2982524 247.231001,77.7244982 247.088,78.0875 L244.2005,85.991 L251.7905,85.991 Z M259.628,95 L256.196,95 C255.810998,95 255.497501,94.903751 255.2555,94.71125 C255.013499,94.518749 254.832001,94.2795014 254.711,93.9935 L252.929,89.126 L243.0455,89.126 L241.2635,93.9935 C241.1755,94.2465013 241.005001,94.477499 240.752,94.6865 C240.498999,94.895501 240.185502,95 239.8115,95 L236.3465,95 L245.735,71.141 L250.256,71.141 L259.628,95 Z M282.2165,71.141 L282.2165,95 L279.9395,95 C279.587498,95 279.293251,94.9422506 279.05675,94.82675 C278.820249,94.7112494 278.592001,94.5160014 278.372,94.241 L265.9145,78.335 C265.9805,79.0610036 266.0135,79.7319969 266.0135,80.348 L266.0135,95 L262.103,95 L262.103,71.141 L264.4295,71.141 C264.616501,71.141 264.778749,71.1492499 264.91625,71.16575 C265.053751,71.1822501 265.174749,71.2152498 265.27925,71.26475 C265.383751,71.3142502 265.4855,71.3857495 265.5845,71.47925 C265.6835,71.5727505 265.793499,71.6964992 265.9145,71.8505 L278.4215,87.8225 C278.3885,87.4374981 278.361,87.0580019 278.339,86.684 C278.317,86.3099981 278.306,85.9635016 278.306,85.6445 L278.306,71.141 L282.2165,71.141 Z M297.776,85.76 L297.776,95 L293.354,95 L293.354,85.76 L284.6585,71.141 L288.569,71.141 C288.954002,71.141 289.259249,71.2344991 289.48475,71.4215 C289.710251,71.6085009 289.899999,71.8449986 290.054,72.131 L294.41,80.1005 C294.663001,80.5735024 294.885749,81.0189979 295.07825,81.437 C295.270751,81.8550021 295.443999,82.2729979 295.598,82.691 C295.741001,82.2729979 295.905999,81.8550021 296.093,81.437 C296.280001,81.0189979 296.494499,80.5735024 296.7365,80.1005 L301.076,72.131 C301.197001,71.8889988 301.378499,71.663501 301.6205,71.4545 C301.862501,71.245499 302.170498,71.141 302.5445,71.141 L306.4715,71.141 L297.776,85.76 Z M337.046,71.141 L337.046,95 L334.769,95 C334.416998,95 334.122751,94.9422506 333.88625,94.82675 C333.649749,94.7112494 333.421501,94.5160014 333.2015,94.241 L320.744,78.335 C320.81,79.0610036 320.843,79.7319969 320.843,80.348 L320.843,95 L316.9325,95 L316.9325,71.141 L319.259,71.141 C319.446001,71.141 319.608249,71.1492499 319.74575,71.16575 C319.883251,71.1822501 320.004249,71.2152498 320.10875,71.26475 C320.213251,71.3142502 320.315,71.3857495 320.414,71.47925 C320.513,71.5727505 320.622999,71.6964992 320.744,71.8505 L333.251,87.8225 C333.218,87.4374981 333.1905,87.0580019 333.1685,86.684 C333.1465,86.3099981 333.1355,85.9635016 333.1355,85.6445 L333.1355,71.141 L337.046,71.141 Z M351.962,91.4195 C352.820004,91.4195 353.587247,91.2765014 354.26375,90.9905 C354.940253,90.7044986 355.509498,90.3030026 355.9715,89.786 C356.433502,89.2689974 356.788249,88.6420037 357.03575,87.905 C357.283251,87.1679963 357.407,86.3430046 357.407,85.43 L357.407,71.141 L361.8455,71.141 L361.8455,85.43 C361.8455,86.8490071 361.617252,88.160744 361.16075,89.36525 C360.704248,90.569756 360.049754,91.6092456 359.19725,92.48375 C358.344746,93.3582544 357.308006,94.0402476 356.087,94.52975 C354.865994,95.0192524 353.491008,95.264 351.962,95.264 C350.421992,95.264 349.041506,95.0192524 347.8205,94.52975 C346.599494,94.0402476 345.562754,93.3582544 344.71025,92.48375 C343.857746,91.6092456 343.203252,90.569756 342.74675,89.36525 C342.290248,88.160744 342.062,86.8490071 342.062,85.43 L342.062,71.141 L346.5005,71.141 L346.5005,85.4135 C346.5005,86.3265046 346.624249,87.1514963 346.87175,87.8885 C347.119251,88.6255037 347.476748,89.2552474 347.94425,89.77775 C348.411752,90.3002526 348.983747,90.7044986 349.66025,90.9905 C350.336753,91.2765014 351.103996,91.4195 351.962,91.4195 Z M392.7335,71.141 L392.7335,95 L388.823,95 L388.823,79.589 C388.823,78.9729969 388.856,78.3075036 388.922,77.5925 L381.7115,91.139 C381.370498,91.7880032 380.848004,92.1125 380.144,92.1125 L379.517,92.1125 C378.812996,92.1125 378.290502,91.7880032 377.9495,91.139 L370.6565,77.543 C370.6895,77.9060018 370.717,78.2634982 370.739,78.6155 C370.761,78.9675018 370.772,79.2919985 370.772,79.589 L370.772,95 L366.8615,95 L366.8615,71.141 L370.211,71.141 C370.409001,71.141 370.579499,71.1464999 370.7225,71.1575 C370.865501,71.1685001 370.994749,71.1959998 371.11025,71.24 C371.225751,71.2840002 371.33025,71.3554995 371.42375,71.4545 C371.51725,71.5535005 371.608,71.6854992 371.696,71.8505 L378.8405,85.1 C379.027501,85.4520018 379.200749,85.8149981 379.36025,86.189 C379.519751,86.5630019 379.676499,86.947998 379.8305,87.344 C379.984501,86.936998 380.143999,86.5437519 380.309,86.16425 C380.474001,85.7847481 380.649999,85.4190018 380.837,85.067 L387.8825,71.8505 C387.9705,71.6854992 388.064,71.5535005 388.163,71.4545 C388.262,71.3554995 388.369249,71.2840002 388.48475,71.24 C388.600251,71.1959998 388.729499,71.1685001 388.8725,71.1575 C389.015501,71.1464999 389.185999,71.141 389.384,71.141 L392.7335,71.141 Z M406.973,91.535 C407.798004,91.535 408.490997,91.436001 409.052,91.238 C409.613003,91.039999 410.061248,90.7760016 410.39675,90.446 C410.732252,90.1159983 410.974249,89.7310022 411.12275,89.291 C411.271251,88.8509978 411.3455,88.3835025 411.3455,87.8885 C411.3455,87.3714974 411.263001,86.9067521 411.098,86.49425 C410.932999,86.0817479 410.674502,85.7297515 410.3225,85.43825 C409.970498,85.1467485 409.516753,84.9240008 408.96125,84.77 C408.405747,84.6159992 407.737504,84.539 406.9565,84.539 L402.485,84.539 L402.485,91.535 L406.973,91.535 Z M402.485,74.573 L402.485,81.47 L406.016,81.47 C407.534008,81.47 408.680746,81.1950028 409.45625,80.645 C410.231754,80.0949972 410.6195,79.220506 410.6195,78.0215 C410.6195,76.7784938 410.267504,75.8930026 409.5635,75.365 C408.859496,74.8369974 407.759507,74.573 406.2635,74.573 L402.485,74.573 Z M406.2635,71.141 C407.825508,71.141 409.161994,71.2894985 410.273,71.5865 C411.384006,71.8835015 412.294246,72.3069972 413.00375,72.857 C413.713254,73.4070028 414.232998,74.0724961 414.563,74.8535 C414.893002,75.6345039 415.058,76.5144951 415.058,77.4935 C415.058,78.0545028 414.975501,78.5907474 414.8105,79.10225 C414.645499,79.6137526 414.389752,80.0922478 414.04325,80.53775 C413.696748,80.9832522 413.256753,81.3874982 412.72325,81.7505 C412.189747,82.1135018 411.554504,82.4214987 410.8175,82.6745 C414.095516,83.4115037 415.7345,85.182486 415.7345,87.9875 C415.7345,88.9995051 415.542002,89.9344957 415.157,90.7925 C414.771998,91.6505043 414.211004,92.3902469 413.474,93.01175 C412.736996,93.6332531 411.829505,94.1199982 410.7515,94.472 C409.673495,94.8240018 408.441507,95 407.0555,95 L398.0465,95 L398.0465,71.141 L406.2635,71.141 Z M424.232,74.672 L424.232,81.2885 L432.581,81.2885 L432.581,84.704 L424.232,84.704 L424.232,91.4525 L434.825,91.4525 L434.825,95 L419.777,95 L419.777,71.141 L434.825,71.141 L434.825,74.672 L424.232,74.672 Z M445.9625,82.493 C446.798504,82.493 447.527247,82.388501 448.14875,82.1795 C448.770253,81.970499 449.281748,81.6817518 449.68325,81.31325 C450.084752,80.9447482 450.384499,80.5075025 450.5825,80.0015 C450.780501,79.4954975 450.8795,78.940003 450.8795,78.335 C450.8795,77.124994 450.480754,76.1955032 449.68325,75.5465 C448.885746,74.8974968 447.667508,74.573 446.0285,74.573 L443.1905,74.573 L443.1905,82.493 L445.9625,82.493 Z M457.3805,95 L453.371,95 C452.611996,95 452.062002,94.703003 451.721,94.109 L446.705,86.4695 C446.517999,86.1834986 446.311751,85.9800006 446.08625,85.859 C445.860749,85.7379994 445.528002,85.6775 445.088,85.6775 L443.1905,85.6775 L443.1905,95 L438.752,95 L438.752,71.141 L446.0285,71.141 C447.645508,71.141 449.034244,71.3087483 450.19475,71.64425 C451.355256,71.9797517 452.306746,72.449997 453.04925,73.055 C453.791754,73.660003 454.338998,74.3832458 454.691,75.22475 C455.043002,76.0662542 455.219,76.9929949 455.219,78.005 C455.219,78.808004 455.100751,79.5669964 454.86425,80.282 C454.627749,80.9970036 454.286752,81.6459971 453.84125,82.229 C453.395748,82.8120029 452.845753,83.3234978 452.19125,83.7635 C451.536747,84.2035022 450.791504,84.5499987 449.9555,84.803 C450.241501,84.9680008 450.505499,85.1632489 450.7475,85.38875 C450.989501,85.6142511 451.209499,85.8809985 451.4075,86.189 L457.3805,95 Z M143.5505,123.0705 C143.5505,124.819509 143.261753,126.439243 142.68425,127.92975 C142.106747,129.420257 141.290005,130.709995 140.234,131.799 C139.177995,132.888005 137.907507,133.737747 136.4225,134.34825 C134.937493,134.958753 133.287509,135.264 131.4725,135.264 C129.668491,135.264 128.024007,134.958753 126.539,134.34825 C125.053993,133.737747 123.780755,132.888005 122.71925,131.799 C121.657745,130.709995 120.835503,129.420257 120.2525,127.92975 C119.669497,126.439243 119.378,124.819509 119.378,123.0705 C119.378,121.321491 119.669497,119.701757 120.2525,118.21125 C120.835503,116.720743 121.657745,115.431005 122.71925,114.342 C123.780755,113.252995 125.053993,112.403253 126.539,111.79275 C128.024007,111.182247 129.668491,110.877 131.4725,110.877 C132.682506,110.877 133.820995,111.017249 134.888,111.29775 C135.955005,111.578251 136.933996,111.974247 137.825,112.48575 C138.716004,112.997253 139.516246,113.618746 140.22575,114.35025 C140.935254,115.081754 141.537498,115.898495 142.0325,116.8005 C142.527502,117.702505 142.904249,118.681495 143.16275,119.7375 C143.421251,120.793505 143.5505,121.904494 143.5505,123.0705 Z M139.013,123.0705 C139.013,121.761493 138.837002,120.587255 138.485,119.54775 C138.132998,118.508245 137.632503,117.625504 136.9835,116.8995 C136.334497,116.173496 135.545255,115.618002 134.61575,115.233 C133.686245,114.847998 132.638506,114.6555 131.4725,114.6555 C130.306494,114.6555 129.258755,114.847998 128.32925,115.233 C127.399745,115.618002 126.607753,116.173496 125.95325,116.8995 C125.298747,117.625504 124.795502,118.508245 124.4435,119.54775 C124.091498,120.587255 123.9155,121.761493 123.9155,123.0705 C123.9155,124.379507 124.091498,125.553745 124.4435,126.59325 C124.795502,127.632755 125.298747,128.512746 125.95325,129.23325 C126.607753,129.953754 127.399745,130.506498 128.32925,130.8915 C129.258755,131.276502 130.306494,131.469 131.4725,131.469 C132.638506,131.469 133.686245,131.276502 134.61575,130.8915 C135.545255,130.506498 136.334497,129.953754 136.9835,129.23325 C137.632503,128.512746 138.132998,127.632755 138.485,126.59325 C138.837002,125.553745 139.013,124.379507 139.013,123.0705 Z M151.916,114.672 L151.916,121.734 L160.859,121.734 L160.859,125.2815 L151.916,125.2815 L151.916,135 L147.461,135 L147.461,111.141 L162.509,111.141 L162.509,114.672 L151.916,114.672 Z M178.613,135 L174.158,135 L174.158,111.141 L178.613,111.141 L178.613,135 Z M200.6075,114.7875 L193.4135,114.7875 L193.4135,135 L188.975,135 L188.975,114.7875 L181.781,114.7875 L181.781,111.141 L200.6075,111.141 L200.6075,114.7875 Z M208.1975,114.672 L208.1975,121.2885 L216.5465,121.2885 L216.5465,124.704 L208.1975,124.704 L208.1975,131.4525 L218.7905,131.4525 L218.7905,135 L203.7425,135 L203.7425,111.141 L218.7905,111.141 L218.7905,114.672 L208.1975,114.672 Z M248.5895,111.141 L248.5895,135 L244.679,135 L244.679,119.589 C244.679,118.972997 244.712,118.307504 244.778,117.5925 L237.5675,131.139 C237.226498,131.788003 236.704004,132.1125 236,132.1125 L235.373,132.1125 C234.668996,132.1125 234.146502,131.788003 233.8055,131.139 L226.5125,117.543 C226.5455,117.906002 226.573,118.263498 226.595,118.6155 C226.617,118.967502 226.628,119.291999 226.628,119.589 L226.628,135 L222.7175,135 L222.7175,111.141 L226.067,111.141 C226.265001,111.141 226.435499,111.1465 226.5785,111.1575 C226.721501,111.1685 226.850749,111.196 226.96625,111.24 C227.081751,111.284 227.18625,111.3555 227.27975,111.4545 C227.37325,111.5535 227.464,111.685499 227.552,111.8505 L234.6965,125.1 C234.883501,125.452002 235.056749,125.814998 235.21625,126.189 C235.375751,126.563002 235.532499,126.947998 235.6865,127.344 C235.840501,126.936998 235.999999,126.543752 236.165,126.16425 C236.330001,125.784748 236.505999,125.419002 236.693,125.067 L243.7385,111.8505 C243.8265,111.685499 243.92,111.5535 244.019,111.4545 C244.118,111.3555 244.225249,111.284 244.34075,111.24 C244.456251,111.196 244.585499,111.1685 244.7285,111.1575 C244.871501,111.1465 245.041999,111.141 245.24,111.141 L248.5895,111.141 Z M266.6075,115.4805 C266.475499,115.711501 266.335251,115.879249 266.18675,115.98375 C266.038249,116.088251 265.854001,116.1405 265.634,116.1405 C265.402999,116.1405 265.152751,116.055251 264.88325,115.88475 C264.613749,115.714249 264.292002,115.524501 263.918,115.3155 C263.543998,115.106499 263.106753,114.916751 262.60625,114.74625 C262.105747,114.575749 261.514503,114.4905 260.8325,114.4905 C260.216497,114.4905 259.677502,114.564749 259.2155,114.71325 C258.753498,114.861751 258.365752,115.067999 258.05225,115.332 C257.738748,115.596001 257.505001,115.912248 257.351,116.28075 C257.196999,116.649252 257.12,117.053498 257.12,117.4935 C257.12,118.054503 257.276748,118.521998 257.59025,118.896 C257.903752,119.270002 258.318997,119.588999 258.836,119.853 C259.353003,120.117001 259.941497,120.353499 260.6015,120.5625 C261.261503,120.771501 261.937997,120.994249 262.631,121.23075 C263.324003,121.467251 264.000497,121.742248 264.6605,122.05575 C265.320503,122.369252 265.908997,122.765248 266.426,123.24375 C266.943003,123.722252 267.358248,124.307997 267.67175,125.001 C267.985252,125.694003 268.142,126.535495 268.142,127.5255 C268.142,128.603505 267.957752,129.612745 267.58925,130.55325 C267.220748,131.493755 266.681754,132.313247 265.97225,133.01175 C265.262746,133.710253 264.396505,134.260248 263.3735,134.66175 C262.350495,135.063252 261.179007,135.264 259.859,135.264 C259.099996,135.264 258.352004,135.189751 257.615,135.04125 C256.877996,134.892749 256.171253,134.681001 255.49475,134.406 C254.818247,134.130999 254.183003,133.801002 253.589,133.416 C252.994997,133.030998 252.467002,132.602002 252.005,132.129 L253.3085,130.0005 C253.418501,129.846499 253.561499,129.717251 253.7375,129.61275 C253.913501,129.508249 254.100499,129.456 254.2985,129.456 C254.573501,129.456 254.870498,129.568749 255.1895,129.79425 C255.508502,130.019751 255.887998,130.269999 256.328,130.545 C256.768002,130.820001 257.282247,131.070249 257.87075,131.29575 C258.459253,131.521251 259.165996,131.634 259.991,131.634 C261.256006,131.634 262.234997,131.334253 262.928,130.73475 C263.621003,130.135247 263.9675,129.274506 263.9675,128.1525 C263.9675,127.525497 263.810752,127.014002 263.49725,126.618 C263.183748,126.221998 262.768503,125.889251 262.2515,125.61975 C261.734497,125.350249 261.146003,125.122001 260.486,124.935 C259.825997,124.747999 259.155003,124.544501 258.473,124.3245 C257.790997,124.104499 257.120003,123.840502 256.46,123.5325 C255.799997,123.224498 255.211503,122.823002 254.6945,122.328 C254.177497,121.832998 253.762252,121.214254 253.44875,120.47175 C253.135248,119.729246 252.9785,118.813505 252.9785,117.7245 C252.9785,116.855496 253.151748,116.008504 253.49825,115.1835 C253.844752,114.358496 254.347997,113.627003 255.008,112.989 C255.668003,112.350997 256.481995,111.839502 257.45,111.4545 C258.418005,111.069498 259.528994,110.877 260.783,110.877 C262.191007,110.877 263.488994,111.096998 264.677,111.537 C265.865006,111.977002 266.876996,112.592996 267.713,113.385 L266.6075,115.4805 Z M284.477,114.672 L284.477,121.734 L293.42,121.734 L293.42,125.2815 L284.477,125.2815 L284.477,135 L280.022,135 L280.022,111.141 L295.07,111.141 L295.07,114.672 L284.477,114.672 Z M305.9105,122.493 C306.746504,122.493 307.475247,122.388501 308.09675,122.1795 C308.718253,121.970499 309.229748,121.681752 309.63125,121.31325 C310.032752,120.944748 310.332499,120.507503 310.5305,120.0015 C310.728501,119.495497 310.8275,118.940003 310.8275,118.335 C310.8275,117.124994 310.428754,116.195503 309.63125,115.5465 C308.833746,114.897497 307.615508,114.573 305.9765,114.573 L303.1385,114.573 L303.1385,122.493 L305.9105,122.493 Z M317.3285,135 L313.319,135 C312.559996,135 312.010002,134.703003 311.669,134.109 L306.653,126.4695 C306.465999,126.183499 306.259751,125.980001 306.03425,125.859 C305.808749,125.737999 305.476002,125.6775 305.036,125.6775 L303.1385,125.6775 L303.1385,135 L298.7,135 L298.7,111.141 L305.9765,111.141 C307.593508,111.141 308.982244,111.308748 310.14275,111.64425 C311.303256,111.979752 312.254746,112.449997 312.99725,113.055 C313.739754,113.660003 314.286998,114.383246 314.639,115.22475 C314.991002,116.066254 315.167,116.992995 315.167,118.005 C315.167,118.808004 315.048751,119.566996 314.81225,120.282 C314.575749,120.997004 314.234752,121.645997 313.78925,122.229 C313.343748,122.812003 312.793753,123.323498 312.13925,123.7635 C311.484747,124.203502 310.739504,124.549999 309.9035,124.803 C310.189501,124.968001 310.453499,125.163249 310.6955,125.38875 C310.937501,125.614251 311.157499,125.880998 311.3555,126.189 L317.3285,135 Z M342.6725,123.0705 C342.6725,124.819509 342.383753,126.439243 341.80625,127.92975 C341.228747,129.420257 340.412005,130.709995 339.356,131.799 C338.299995,132.888005 337.029507,133.737747 335.5445,134.34825 C334.059493,134.958753 332.409509,135.264 330.5945,135.264 C328.790491,135.264 327.146007,134.958753 325.661,134.34825 C324.175993,133.737747 322.902755,132.888005 321.84125,131.799 C320.779745,130.709995 319.957503,129.420257 319.3745,127.92975 C318.791497,126.439243 318.5,124.819509 318.5,123.0705 C318.5,121.321491 318.791497,119.701757 319.3745,118.21125 C319.957503,116.720743 320.779745,115.431005 321.84125,114.342 C322.902755,113.252995 324.175993,112.403253 325.661,111.79275 C327.146007,111.182247 328.790491,110.877 330.5945,110.877 C331.804506,110.877 332.942995,111.017249 334.01,111.29775 C335.077005,111.578251 336.055996,111.974247 336.947,112.48575 C337.838004,112.997253 338.638246,113.618746 339.34775,114.35025 C340.057254,115.081754 340.659498,115.898495 341.1545,116.8005 C341.649502,117.702505 342.026249,118.681495 342.28475,119.7375 C342.543251,120.793505 342.6725,121.904494 342.6725,123.0705 Z M338.135,123.0705 C338.135,121.761493 337.959002,120.587255 337.607,119.54775 C337.254998,118.508245 336.754503,117.625504 336.1055,116.8995 C335.456497,116.173496 334.667255,115.618002 333.73775,115.233 C332.808245,114.847998 331.760506,114.6555 330.5945,114.6555 C329.428494,114.6555 328.380755,114.847998 327.45125,115.233 C326.521745,115.618002 325.729753,116.173496 325.07525,116.8995 C324.420747,117.625504 323.917502,118.508245 323.5655,119.54775 C323.213498,120.587255 323.0375,121.761493 323.0375,123.0705 C323.0375,124.379507 323.213498,125.553745 323.5655,126.59325 C323.917502,127.632755 324.420747,128.512746 325.07525,129.23325 C325.729753,129.953754 326.521745,130.506498 327.45125,130.8915 C328.380755,131.276502 329.428494,131.469 330.5945,131.469 C331.760506,131.469 332.808245,131.276502 333.73775,130.8915 C334.667255,130.506498 335.456497,129.953754 336.1055,129.23325 C336.754503,128.512746 337.254998,127.632755 337.607,126.59325 C337.959002,125.553745 338.135,124.379507 338.135,123.0705 Z M372.455,111.141 L372.455,135 L368.5445,135 L368.5445,119.589 C368.5445,118.972997 368.5775,118.307504 368.6435,117.5925 L361.433,131.139 C361.091998,131.788003 360.569504,132.1125 359.8655,132.1125 L359.2385,132.1125 C358.534496,132.1125 358.012002,131.788003 357.671,131.139 L350.378,117.543 C350.411,117.906002 350.4385,118.263498 350.4605,118.6155 C350.4825,118.967502 350.4935,119.291999 350.4935,119.589 L350.4935,135 L346.583,135 L346.583,111.141 L349.9325,111.141 C350.130501,111.141 350.300999,111.1465 350.444,111.1575 C350.587001,111.1685 350.716249,111.196 350.83175,111.24 C350.947251,111.284 351.05175,111.3555 351.14525,111.4545 C351.23875,111.5535 351.3295,111.685499 351.4175,111.8505 L358.562,125.1 C358.749001,125.452002 358.922249,125.814998 359.08175,126.189 C359.241251,126.563002 359.397999,126.947998 359.552,127.344 C359.706001,126.936998 359.865499,126.543752 360.0305,126.16425 C360.195501,125.784748 360.371499,125.419002 360.5585,125.067 L367.604,111.8505 C367.692,111.685499 367.7855,111.5535 367.8845,111.4545 C367.9835,111.3555 368.090749,111.284 368.20625,111.24 C368.321751,111.196 368.450999,111.1685 368.594,111.1575 C368.737001,111.1465 368.907499,111.141 369.1055,111.141 L372.455,111.141 Z M398.393,125.991 L395.489,118.0545 C395.345999,117.702498 395.197501,117.284502 395.0435,116.8005 C394.889499,116.316498 394.735501,115.794003 394.5815,115.233 C394.438499,115.794003 394.290001,116.319248 394.136,116.80875 C393.981999,117.298252 393.833501,117.724498 393.6905,118.0875 L390.803,125.991 L398.393,125.991 Z M406.2305,135 L402.7985,135 C402.413498,135 402.100001,134.903751 401.858,134.71125 C401.615999,134.518749 401.434501,134.279501 401.3135,133.9935 L399.5315,129.126 L389.648,129.126 L387.866,133.9935 C387.778,134.246501 387.607501,134.477499 387.3545,134.6865 C387.101499,134.895501 386.788002,135 386.414,135 L382.949,135 L392.3375,111.141 L396.8585,111.141 L406.2305,135 Z M428.819,111.141 L428.819,135 L426.542,135 C426.189998,135 425.895751,134.942251 425.65925,134.82675 C425.422749,134.711249 425.194501,134.516001 424.9745,134.241 L412.517,118.335 C412.583,119.061004 412.616,119.731997 412.616,120.348 L412.616,135 L408.7055,135 L408.7055,111.141 L411.032,111.141 C411.219001,111.141 411.381249,111.14925 411.51875,111.16575 C411.656251,111.18225 411.777249,111.21525 411.88175,111.26475 C411.986251,111.31425 412.088,111.38575 412.187,111.47925 C412.286,111.57275 412.395999,111.696499 412.517,111.8505 L425.024,127.8225 C424.991,127.437498 424.9635,127.058002 424.9415,126.684 C424.9195,126.309998 424.9085,125.963502 424.9085,125.6445 L424.9085,111.141 L428.819,111.141 Z M444.3785,125.76 L444.3785,135 L439.9565,135 L439.9565,125.76 L431.261,111.141 L435.1715,111.141 C435.556502,111.141 435.861749,111.234499 436.08725,111.4215 C436.312751,111.608501 436.502499,111.844999 436.6565,112.131 L441.0125,120.1005 C441.265501,120.573502 441.488249,121.018998 441.68075,121.437 C441.873251,121.855002 442.046499,122.272998 442.2005,122.691 C442.343501,122.272998 442.508499,121.855002 442.6955,121.437 C442.882501,121.018998 443.096999,120.573502 443.339,120.1005 L447.6785,112.131 C447.799501,111.888999 447.980999,111.663501 448.223,111.4545 C448.465001,111.245499 448.772998,111.141 449.147,111.141 L453.074,111.141 L444.3785,125.76 Z M71.14025,169.3735 C71.3822512,169.3735 71.5967491,169.466999 71.78375,169.654 L73.53275,171.5515 C72.5647452,172.750506 71.3740071,173.668997 69.9605,174.307 C68.5469929,174.945003 66.8502599,175.264 64.87025,175.264 C63.0992411,175.264 61.5070071,174.961503 60.0935,174.3565 C58.6799929,173.751497 57.472755,172.910005 56.47175,171.832 C55.470745,170.753995 54.7035027,169.467007 54.17,167.971 C53.6364973,166.474993 53.36975,164.841509 53.36975,163.0705 C53.36975,161.277491 53.6557471,159.635757 54.22775,158.14525 C54.7997529,156.654743 55.6054948,155.370505 56.645,154.2925 C57.6845052,153.214495 58.9247428,152.375753 60.36575,151.77625 C61.8067572,151.176747 63.4017413,150.877 65.15075,150.877 C66.8887587,150.877 68.4314933,151.162997 69.779,151.735 C71.1265067,152.307003 72.2732453,153.054995 73.21925,153.979 L71.73425,156.0415 C71.6462496,156.173501 71.5335007,156.289 71.396,156.388 C71.2584993,156.487 71.0687512,156.5365 70.82675,156.5365 C70.6617492,156.5365 70.4912509,156.48975 70.31525,156.39625 C70.1392491,156.30275 69.946751,156.187251 69.73775,156.04975 C69.528749,155.912249 69.2867514,155.761001 69.01175,155.596 C68.7367486,155.430999 68.4177518,155.279751 68.05475,155.14225 C67.6917482,155.004749 67.2710024,154.88925 66.7925,154.79575 C66.3139976,154.70225 65.7612531,154.6555 65.13425,154.6555 C64.0672447,154.6555 63.0910044,154.845248 62.2055,155.22475 C61.3199956,155.604252 60.5582532,156.154246 59.92025,156.87475 C59.2822468,157.595254 58.7872518,158.475245 58.43525,159.51475 C58.0832482,160.554255 57.90725,161.739493 57.90725,163.0705 C57.90725,164.412507 58.0969981,165.605995 58.4765,166.651 C58.8560019,167.696005 59.3702468,168.575996 60.01925,169.291 C60.6682532,170.006004 61.4327456,170.553248 62.31275,170.93275 C63.1927544,171.312252 64.1387449,171.502 65.15075,171.502 C65.755753,171.502 66.3029976,171.469 66.7925,171.403 C67.2820024,171.337 67.7329979,171.232501 68.1455,171.0895 C68.5580021,170.946499 68.9484982,170.762251 69.317,170.53675 C69.6855018,170.311249 70.0512482,170.033502 70.41425,169.7035 C70.5242505,169.6045 70.6397494,169.52475 70.76075,169.46425 C70.8817506,169.40375 71.0082493,169.3735 71.14025,169.3735 Z M89.19125,165.991 L86.28725,158.0545 C86.1442493,157.702498 85.9957508,157.284502 85.84175,156.8005 C85.6877492,156.316498 85.5337508,155.794003 85.37975,155.233 C85.2367493,155.794003 85.0882508,156.319248 84.93425,156.80875 C84.7802492,157.298252 84.6317507,157.724498 84.48875,158.0875 L81.60125,165.991 L89.19125,165.991 Z M97.02875,175 L93.59675,175 C93.2117481,175 92.8982512,174.903751 92.65625,174.71125 C92.4142488,174.518749 92.2327506,174.279501 92.11175,173.9935 L90.32975,169.126 L80.44625,169.126 L78.66425,173.9935 C78.5762496,174.246501 78.4057513,174.477499 78.15275,174.6865 C77.8997487,174.895501 77.5862519,175 77.21225,175 L73.74725,175 L83.13575,151.141 L87.65675,151.141 L97.02875,175 Z M116.16875,154.7875 L108.97475,154.7875 L108.97475,175 L104.53625,175 L104.53625,154.7875 L97.34225,154.7875 L97.34225,151.141 L116.16875,151.141 L116.16875,154.7875 Z M123.75875,154.672 L123.75875,161.2885 L132.10775,161.2885 L132.10775,164.704 L123.75875,164.704 L123.75875,171.4525 L134.35175,171.4525 L134.35175,175 L119.30375,175 L119.30375,151.141 L134.35175,151.141 L134.35175,154.672 L123.75875,154.672 Z M157.94675,163.0375 L157.94675,172.69 C156.736744,173.581004 155.447007,174.232748 154.0775,174.64525 C152.707993,175.057752 151.242258,175.264 149.68025,175.264 C147.73324,175.264 145.970508,174.961503 144.392,174.3565 C142.813492,173.751497 141.466006,172.910005 140.3495,171.832 C139.232994,170.753995 138.372253,169.467007 137.76725,167.971 C137.162247,166.474993 136.85975,164.841509 136.85975,163.0705 C136.85975,161.277491 137.151247,159.633007 137.73425,158.137 C138.317253,156.640993 139.144995,155.354005 140.2175,154.276 C141.290005,153.197995 142.590742,152.362003 144.11975,151.768 C145.648758,151.173997 147.36474,150.877 149.26775,150.877 C150.235755,150.877 151.140496,150.953999 151.982,151.108 C152.823504,151.262001 153.604496,151.473749 154.325,151.74325 C155.045504,152.012751 155.702747,152.339998 156.29675,152.725 C156.890753,153.110002 157.435248,153.533498 157.93025,153.9955 L156.65975,156.0085 C156.461749,156.327502 156.203252,156.52275 155.88425,156.59425 C155.565248,156.66575 155.218752,156.586001 154.84475,156.355 L153.75575,155.728 C153.392748,155.518999 152.988502,155.337501 152.543,155.1835 C152.097498,155.029499 151.597003,154.903 151.0415,154.804 C150.485997,154.705 149.845254,154.6555 149.11925,154.6555 C147.942244,154.6555 146.878005,154.853498 145.9265,155.2495 C144.974995,155.645502 144.163753,156.211996 143.49275,156.949 C142.821747,157.686004 142.304752,158.571495 141.94175,159.6055 C141.578748,160.639505 141.39725,161.794494 141.39725,163.0705 C141.39725,164.434507 141.592498,165.652745 141.983,166.72525 C142.373502,167.797755 142.923496,168.705246 143.633,169.44775 C144.342504,170.190254 145.197745,170.756748 146.19875,171.14725 C147.199755,171.537752 148.316244,171.733 149.54825,171.733 C150.428254,171.733 151.214747,171.639501 151.90775,171.4525 C152.600753,171.265499 153.277247,171.012502 153.93725,170.6935 L153.93725,166.3705 L150.93425,166.3705 C150.648249,166.3705 150.425501,166.290751 150.266,166.13125 C150.106499,165.971749 150.02675,165.776501 150.02675,165.5455 L150.02675,163.0375 L157.94675,163.0375 Z M184.99025,163.0705 C184.99025,164.819509 184.701503,166.439243 184.124,167.92975 C183.546497,169.420257 182.729755,170.709995 181.67375,171.799 C180.617745,172.888005 179.347257,173.737747 177.86225,174.34825 C176.377243,174.958753 174.727259,175.264 172.91225,175.264 C171.108241,175.264 169.463757,174.958753 167.97875,174.34825 C166.493743,173.737747 165.220505,172.888005 164.159,171.799 C163.097495,170.709995 162.275253,169.420257 161.69225,167.92975 C161.109247,166.439243 160.81775,164.819509 160.81775,163.0705 C160.81775,161.321491 161.109247,159.701757 161.69225,158.21125 C162.275253,156.720743 163.097495,155.431005 164.159,154.342 C165.220505,153.252995 166.493743,152.403253 167.97875,151.79275 C169.463757,151.182247 171.108241,150.877 172.91225,150.877 C174.122256,150.877 175.260745,151.017249 176.32775,151.29775 C177.394755,151.578251 178.373746,151.974247 179.26475,152.48575 C180.155754,152.997253 180.955996,153.618746 181.6655,154.35025 C182.375004,155.081754 182.977248,155.898495 183.47225,156.8005 C183.967252,157.702505 184.343999,158.681495 184.6025,159.7375 C184.861001,160.793505 184.99025,161.904494 184.99025,163.0705 Z M180.45275,163.0705 C180.45275,161.761493 180.276752,160.587255 179.92475,159.54775 C179.572748,158.508245 179.072253,157.625504 178.42325,156.8995 C177.774247,156.173496 176.985005,155.618002 176.0555,155.233 C175.125995,154.847998 174.078256,154.6555 172.91225,154.6555 C171.746244,154.6555 170.698505,154.847998 169.769,155.233 C168.839495,155.618002 168.047503,156.173496 167.393,156.8995 C166.738497,157.625504 166.235252,158.508245 165.88325,159.54775 C165.531248,160.587255 165.35525,161.761493 165.35525,163.0705 C165.35525,164.379507 165.531248,165.553745 165.88325,166.59325 C166.235252,167.632755 166.738497,168.512746 167.393,169.23325 C168.047503,169.953754 168.839495,170.506498 169.769,170.8915 C170.698505,171.276502 171.746244,171.469 172.91225,171.469 C174.078256,171.469 175.125995,171.276502 176.0555,170.8915 C176.985005,170.506498 177.774247,169.953754 178.42325,169.23325 C179.072253,168.512746 179.572748,167.632755 179.92475,166.59325 C180.276752,165.553745 180.45275,164.379507 180.45275,163.0705 Z M196.11125,162.493 C196.947254,162.493 197.675997,162.388501 198.2975,162.1795 C198.919003,161.970499 199.430498,161.681752 199.832,161.31325 C200.233502,160.944748 200.533249,160.507503 200.73125,160.0015 C200.929251,159.495497 201.02825,158.940003 201.02825,158.335 C201.02825,157.124994 200.629504,156.195503 199.832,155.5465 C199.034496,154.897497 197.816258,154.573 196.17725,154.573 L193.33925,154.573 L193.33925,162.493 L196.11125,162.493 Z M207.52925,175 L203.51975,175 C202.760746,175 202.210752,174.703003 201.86975,174.109 L196.85375,166.4695 C196.666749,166.183499 196.460501,165.980001 196.235,165.859 C196.009499,165.737999 195.676752,165.6775 195.23675,165.6775 L193.33925,165.6775 L193.33925,175 L188.90075,175 L188.90075,151.141 L196.17725,151.141 C197.794258,151.141 199.182994,151.308748 200.3435,151.64425 C201.504006,151.979752 202.455496,152.449997 203.198,153.055 C203.940504,153.660003 204.487748,154.383246 204.83975,155.22475 C205.191752,156.066254 205.36775,156.992995 205.36775,158.005 C205.36775,158.808004 205.249501,159.566996 205.013,160.282 C204.776499,160.997004 204.435502,161.645997 203.99,162.229 C203.544498,162.812003 202.994503,163.323498 202.34,163.7635 C201.685497,164.203502 200.940254,164.549999 200.10425,164.803 C200.390251,164.968001 200.654249,165.163249 200.89625,165.38875 C201.138251,165.614251 201.358249,165.880998 201.55625,166.189 L207.52925,175 Z M220.36625,165.76 L220.36625,175 L215.94425,175 L215.94425,165.76 L207.24875,151.141 L211.15925,151.141 C211.544252,151.141 211.849499,151.234499 212.075,151.4215 C212.300501,151.608501 212.490249,151.844999 212.64425,152.131 L217.00025,160.1005 C217.253251,160.573502 217.475999,161.018998 217.6685,161.437 C217.861001,161.855002 218.034249,162.272998 218.18825,162.691 C218.331251,162.272998 218.496249,161.855002 218.68325,161.437 C218.870251,161.018998 219.084749,160.573502 219.32675,160.1005 L223.66625,152.131 C223.787251,151.888999 223.968749,151.663501 224.21075,151.4545 C224.452751,151.245499 224.760748,151.141 225.13475,151.141 L229.06175,151.141 L220.36625,165.76 Z M244.75325,163.846 C243.873246,164.418003 243.232502,165.064246 242.831,165.78475 C242.429498,166.505254 242.22875,167.277996 242.22875,168.103 C242.22875,168.708003 242.333249,169.252498 242.54225,169.7365 C242.751251,170.220502 243.034498,170.630248 243.392,170.96575 C243.749502,171.301252 244.167498,171.559749 244.646,171.74125 C245.124502,171.922751 245.633247,172.0135 246.17225,172.0135 C247.140255,172.0135 248.025746,171.862252 248.82875,171.55975 C249.631754,171.257248 250.357747,170.836503 251.00675,170.2975 L244.75325,163.846 Z M260.64275,175 L256.64975,175 C256.231748,175 255.893501,174.9505 255.635,174.8515 C255.376499,174.7525 255.104251,174.543502 254.81825,174.2245 L253.16825,172.525 C252.123245,173.383004 250.951756,174.053998 249.65375,174.538 C248.355744,175.022002 246.953258,175.264 245.44625,175.264 C244.533245,175.264 243.634004,175.107252 242.7485,174.79375 C241.862996,174.480248 241.073753,174.026503 240.38075,173.4325 C239.687747,172.838497 239.129502,172.120754 238.706,171.27925 C238.282498,170.437746 238.07075,169.489005 238.07075,168.433 C238.07075,167.684996 238.191749,166.978253 238.43375,166.31275 C238.675751,165.647247 239.011248,165.028503 239.44025,164.4565 C239.869252,163.884497 240.380747,163.370252 240.97475,162.91375 C241.568753,162.457248 242.217746,162.064002 242.92175,161.734 C242.327747,160.908996 241.898751,160.103254 241.63475,159.31675 C241.370749,158.530246 241.23875,157.746504 241.23875,156.9655 C241.23875,156.140496 241.389998,155.356754 241.6925,154.61425 C241.995002,153.871746 242.432247,153.225503 243.00425,152.6755 C243.576253,152.125497 244.280246,151.688252 245.11625,151.36375 C245.952254,151.039248 246.898245,150.877 247.95425,150.877 C248.922255,150.877 249.788496,151.025499 250.553,151.3225 C251.317504,151.619501 251.971997,152.015498 252.5165,152.5105 C253.061003,153.005502 253.489998,153.571997 253.8035,154.21 C254.117002,154.848003 254.30125,155.507997 254.35625,156.19 L251.76575,156.7345 C251.281748,156.8335 250.929751,156.624503 250.70975,156.1075 C250.61075,155.821499 250.481501,155.549251 250.322,155.29075 C250.162499,155.032249 249.972751,154.806751 249.75275,154.61425 C249.532749,154.421749 249.274251,154.267751 248.97725,154.15225 C248.680249,154.036749 248.339252,153.979 247.95425,153.979 C247.492248,153.979 247.079752,154.058749 246.71675,154.21825 C246.353748,154.377751 246.048501,154.592249 245.801,154.86175 C245.553499,155.131251 245.363751,155.444748 245.23175,155.80225 C245.099749,156.159752 245.03375,156.536498 245.03375,156.9325 C245.03375,157.262502 245.06675,157.581498 245.13275,157.8895 C245.19875,158.197502 245.308749,158.505498 245.46275,158.8135 C245.616751,159.121502 245.817499,159.437748 246.065,159.76225 C246.312501,160.086752 246.617748,160.435998 246.98075,160.81 L253.31675,167.3935 C253.679752,166.700497 253.971249,165.969004 254.19125,165.199 C254.411251,164.428996 254.55425,163.648004 254.62025,162.856 C254.65325,162.602999 254.741249,162.399501 254.88425,162.2455 C255.027251,162.091499 255.225249,162.0145 255.47825,162.0145 L258.01925,162.0145 C258.00825,163.466507 257.799252,164.852493 257.39225,166.1725 C256.985248,167.492507 256.402254,168.707994 255.64325,169.819 L260.64275,175 Z M288.08225,154.7875 L280.88825,154.7875 L280.88825,175 L276.44975,175 L276.44975,154.7875 L269.25575,154.7875 L269.25575,151.141 L288.08225,151.141 L288.08225,154.7875 Z M303.82325,165.991 L300.91925,158.0545 C300.776249,157.702498 300.627751,157.284502 300.47375,156.8005 C300.319749,156.316498 300.165751,155.794003 300.01175,155.233 C299.868749,155.794003 299.720251,156.319248 299.56625,156.80875 C299.412249,157.298252 299.263751,157.724498 299.12075,158.0875 L296.23325,165.991 L303.82325,165.991 Z M311.66075,175 L308.22875,175 C307.843748,175 307.530251,174.903751 307.28825,174.71125 C307.046249,174.518749 306.864751,174.279501 306.74375,173.9935 L304.96175,169.126 L295.07825,169.126 L293.29625,173.9935 C293.20825,174.246501 293.037751,174.477499 292.78475,174.6865 C292.531749,174.895501 292.218252,175 291.84425,175 L288.37925,175 L297.76775,151.141 L302.28875,151.141 L311.66075,175 Z M321.89075,163.1365 C322.704754,163.1365 323.414247,163.034751 324.01925,162.83125 C324.624253,162.627749 325.127498,162.336252 325.529,161.95675 C325.930502,161.577248 326.230249,161.115253 326.42825,160.57075 C326.626251,160.026247 326.72525,159.418503 326.72525,158.7475 C326.72525,158.109497 326.626251,157.532003 326.42825,157.015 C326.230249,156.497997 325.933252,156.058002 325.53725,155.695 C325.141248,155.331998 324.640753,155.054251 324.03575,154.86175 C323.430747,154.669249 322.715754,154.573 321.89075,154.573 L318.57425,154.573 L318.57425,163.1365 L321.89075,163.1365 Z M321.89075,151.141 C323.485758,151.141 324.866244,151.327998 326.03225,151.702 C327.198256,152.076002 328.160746,152.598497 328.91975,153.2695 C329.678754,153.940503 330.242498,154.743495 330.611,155.6785 C330.979502,156.613505 331.16375,157.636494 331.16375,158.7475 C331.16375,159.902506 330.971252,160.961245 330.58625,161.92375 C330.201248,162.886255 329.623754,163.713997 328.85375,164.407 C328.083746,165.100003 327.118506,165.638998 325.958,166.024 C324.797494,166.409002 323.441758,166.6015 321.89075,166.6015 L318.57425,166.6015 L318.57425,175 L314.13575,175 L314.13575,151.141 L321.89075,151.141 Z M355.18775,165.991 L352.28375,158.0545 C352.140749,157.702498 351.992251,157.284502 351.83825,156.8005 C351.684249,156.316498 351.530251,155.794003 351.37625,155.233 C351.233249,155.794003 351.084751,156.319248 350.93075,156.80875 C350.776749,157.298252 350.628251,157.724498 350.48525,158.0875 L347.59775,165.991 L355.18775,165.991 Z M363.02525,175 L359.59325,175 C359.208248,175 358.894751,174.903751 358.65275,174.71125 C358.410749,174.518749 358.229251,174.279501 358.10825,173.9935 L356.32625,169.126 L346.44275,169.126 L344.66075,173.9935 C344.57275,174.246501 344.402251,174.477499 344.14925,174.6865 C343.896249,174.895501 343.582752,175 343.20875,175 L339.74375,175 L349.13225,151.141 L353.65325,151.141 L363.02525,175 Z M386.68625,163.0705 C386.68625,164.819509 386.394753,166.425493 385.81175,167.8885 C385.228747,169.351507 384.409255,170.610995 383.35325,171.667 C382.297245,172.723005 381.026757,173.542497 379.54175,174.1255 C378.056743,174.708503 376.406759,175 374.59175,175 L365.50025,175 L365.50025,151.141 L374.59175,151.141 C376.406759,151.141 378.056743,151.435247 379.54175,152.02375 C381.026757,152.612253 382.297245,153.431745 383.35325,154.48225 C384.409255,155.532755 385.228747,156.789493 385.81175,158.2525 C386.394753,159.715507 386.68625,161.321491 386.68625,163.0705 Z M382.13225,163.0705 C382.13225,161.761493 381.959002,160.587255 381.6125,159.54775 C381.265998,158.508245 380.765503,157.628254 380.111,156.90775 C379.456497,156.187246 378.664505,155.634502 377.735,155.2495 C376.805495,154.864498 375.757756,154.672 374.59175,154.672 L369.95525,154.672 L369.95525,171.469 L374.59175,171.469 C375.757756,171.469 376.805495,171.276502 377.735,170.8915 C378.664505,170.506498 379.456497,169.953754 380.111,169.23325 C380.765503,168.512746 381.265998,167.632755 381.6125,166.59325 C381.959002,165.553745 382.13225,164.379507 382.13225,163.0705 Z M411.78275,163.0705 C411.78275,164.819509 411.491253,166.425493 410.90825,167.8885 C410.325247,169.351507 409.505755,170.610995 408.44975,171.667 C407.393745,172.723005 406.123257,173.542497 404.63825,174.1255 C403.153243,174.708503 401.503259,175 399.68825,175 L390.59675,175 L390.59675,151.141 L399.68825,151.141 C401.503259,151.141 403.153243,151.435247 404.63825,152.02375 C406.123257,152.612253 407.393745,153.431745 408.44975,154.48225 C409.505755,155.532755 410.325247,156.789493 410.90825,158.2525 C411.491253,159.715507 411.78275,161.321491 411.78275,163.0705 Z M407.22875,163.0705 C407.22875,161.761493 407.055502,160.587255 406.709,159.54775 C406.362498,158.508245 405.862003,157.628254 405.2075,156.90775 C404.552997,156.187246 403.761005,155.634502 402.8315,155.2495 C401.901995,154.864498 400.854256,154.672 399.68825,154.672 L395.05175,154.672 L395.05175,171.469 L399.68825,171.469 C400.854256,171.469 401.901995,171.276502 402.8315,170.8915 C403.761005,170.506498 404.552997,169.953754 405.2075,169.23325 C405.862003,168.512746 406.362498,167.632755 406.709,166.59325 C407.055502,165.553745 407.22875,164.379507 407.22875,163.0705 Z M428.16725,175 L423.71225,175 L423.71225,151.141 L428.16725,151.141 L428.16725,175 Z M450.16175,154.7875 L442.96775,154.7875 L442.96775,175 L438.52925,175 L438.52925,154.7875 L431.33525,154.7875 L431.33525,151.141 L450.16175,151.141 L450.16175,154.7875 Z M457.75175,154.672 L457.75175,161.2885 L466.10075,161.2885 L466.10075,164.704 L457.75175,164.704 L457.75175,171.4525 L468.34475,171.4525 L468.34475,175 L453.29675,175 L453.29675,151.141 L468.34475,151.141 L468.34475,154.672 L457.75175,154.672 Z M498.14375,151.141 L498.14375,175 L494.23325,175 L494.23325,159.589 C494.23325,158.972997 494.26625,158.307504 494.33225,157.5925 L487.12175,171.139 C486.780748,171.788003 486.258254,172.1125 485.55425,172.1125 L484.92725,172.1125 C484.223246,172.1125 483.700752,171.788003 483.35975,171.139 L476.06675,157.543 C476.09975,157.906002 476.12725,158.263498 476.14925,158.6155 C476.17125,158.967502 476.18225,159.291999 476.18225,159.589 L476.18225,175 L472.27175,175 L472.27175,151.141 L475.62125,151.141 C475.819251,151.141 475.989749,151.1465 476.13275,151.1575 C476.275751,151.1685 476.404999,151.196 476.5205,151.24 C476.636001,151.284 476.7405,151.3555 476.834,151.4545 C476.9275,151.5535 477.01825,151.685499 477.10625,151.8505 L484.25075,165.1 C484.437751,165.452002 484.610999,165.814998 484.7705,166.189 C484.930001,166.563002 485.086749,166.947998 485.24075,167.344 C485.394751,166.936998 485.554249,166.543752 485.71925,166.16425 C485.884251,165.784748 486.060249,165.419002 486.24725,165.067 L493.29275,151.8505 C493.38075,151.685499 493.47425,151.5535 493.57325,151.4545 C493.67225,151.3555 493.779499,151.284 493.895,151.24 C494.010501,151.196 494.139749,151.1685 494.28275,151.1575 C494.425751,151.1465 494.596249,151.141 494.79425,151.141 L498.14375,151.141 Z M516.16175,155.4805 C516.029749,155.711501 515.889501,155.879249 515.741,155.98375 C515.592499,156.088251 515.408251,156.1405 515.18825,156.1405 C514.957249,156.1405 514.707001,156.055251 514.4375,155.88475 C514.167999,155.714249 513.846252,155.524501 513.47225,155.3155 C513.098248,155.106499 512.661003,154.916751 512.1605,154.74625 C511.659997,154.575749 511.068753,154.4905 510.38675,154.4905 C509.770747,154.4905 509.231752,154.564749 508.76975,154.71325 C508.307748,154.861751 507.920002,155.067999 507.6065,155.332 C507.292998,155.596001 507.059251,155.912248 506.90525,156.28075 C506.751249,156.649252 506.67425,157.053498 506.67425,157.4935 C506.67425,158.054503 506.830998,158.521998 507.1445,158.896 C507.458002,159.270002 507.873247,159.588999 508.39025,159.853 C508.907253,160.117001 509.495747,160.353499 510.15575,160.5625 C510.815753,160.771501 511.492247,160.994249 512.18525,161.23075 C512.878253,161.467251 513.554747,161.742248 514.21475,162.05575 C514.874753,162.369252 515.463247,162.765248 515.98025,163.24375 C516.497253,163.722252 516.912498,164.307997 517.226,165.001 C517.539502,165.694003 517.69625,166.535495 517.69625,167.5255 C517.69625,168.603505 517.512002,169.612745 517.1435,170.55325 C516.774998,171.493755 516.236004,172.313247 515.5265,173.01175 C514.816996,173.710253 513.950755,174.260248 512.92775,174.66175 C511.904745,175.063252 510.733257,175.264 509.41325,175.264 C508.654246,175.264 507.906254,175.189751 507.16925,175.04125 C506.432246,174.892749 505.725503,174.681001 505.049,174.406 C504.372497,174.130999 503.737253,173.801002 503.14325,173.416 C502.549247,173.030998 502.021252,172.602002 501.55925,172.129 L502.86275,170.0005 C502.972751,169.846499 503.115749,169.717251 503.29175,169.61275 C503.467751,169.508249 503.654749,169.456 503.85275,169.456 C504.127751,169.456 504.424748,169.568749 504.74375,169.79425 C505.062752,170.019751 505.442248,170.269999 505.88225,170.545 C506.322252,170.820001 506.836497,171.070249 507.425,171.29575 C508.013503,171.521251 508.720246,171.634 509.54525,171.634 C510.810256,171.634 511.789247,171.334253 512.48225,170.73475 C513.175253,170.135247 513.52175,169.274506 513.52175,168.1525 C513.52175,167.525497 513.365002,167.014002 513.0515,166.618 C512.737998,166.221998 512.322753,165.889251 511.80575,165.61975 C511.288747,165.350249 510.700253,165.122001 510.04025,164.935 C509.380247,164.747999 508.709253,164.544501 508.02725,164.3245 C507.345247,164.104499 506.674253,163.840502 506.01425,163.5325 C505.354247,163.224498 504.765753,162.823002 504.24875,162.328 C503.731747,161.832998 503.316502,161.214254 503.003,160.47175 C502.689498,159.729246 502.53275,158.813505 502.53275,157.7245 C502.53275,156.855496 502.705998,156.008504 503.0525,155.1835 C503.399002,154.358496 503.902247,153.627003 504.56225,152.989 C505.222253,152.350997 506.036245,151.839502 507.00425,151.4545 C507.972255,151.069498 509.083244,150.877 510.33725,150.877 C511.745257,150.877 513.043244,151.096998 514.23125,151.537 C515.419256,151.977002 516.431246,152.592996 517.26725,153.385 L516.16175,155.4805 Z" id="SELECTANYNUMBEROFITEMSFROMANYCATEGORY&amp;TAPADDITEMS" fill="#000000" fill-rule="nonzero"></path>
        <text id="Chicken-Salad" font-family="Roboto-Black, Roboto" font-size="33" font-weight="700" fill="#00D3FF">
            <tspan x="89.168457" y="511">Chicken Salad</tspan>
        </text>
        <text id="Coke-Large" font-family="Roboto-Black, Roboto" font-size="33" font-weight="700" fill="#00D3FF">
            <tspan x="89.3649902" y="611">Coke Large</tspan>
        </text>
        <rect id="Rectangle" stroke="#FFFFFF" fill="#10ACD5" x="37" y="384" width="28" height="28"></rect>
        <rect id="Rectangle" stroke="#FFFFFF" fill="#10ACD5" x="37" y="484" width="28" height="28"></rect>
        <rect id="Rectangle" stroke="#FFFFFF" fill="#10ACD5" x="37" y="587" width="28" height="28"></rect>
        <path id="Line-6" d="M509.5,665.58 L509.5,178.5 L516.5,178.5 L516.5,665.58 L532.5,665.58 L513,704.58 L493.5,665.58 L509.5,665.58 Z" fill="#FFFFFF" fill-rule="nonzero"></path>
    </g>
</svg>