<svg xmlns="http://www.w3.org/2000/svg" width="472" height="392"><path d="M288.7 187.7c-53.7-32.6-119.8 1-119.8 1s11.6 92.6 11.4 121.4c-.8 2-1 4-.4 6.3-.2 1.2-.6 1.7-1 1.7h1.7c1 3 3 4.3 5.8 5.3 11 4 21.5 6.8 33 7.7 3.6.3 7 .2 10.5-.2 1.6 1.5 4 2.4 7 2 13.2-1.2 28-2 38.6-10.3 1.7-1.4 2.7-2.7 3-4.7h.8l9-130.3z" fill="#FFB564"/><path d="M173.2 146.4l7.3 37.6 26-6.8L200 144z" fill="#52E2D7"/><path d="M222.6 133.8s-18-15.6-5.3 40c.6 2.5 19.4 3.4 19.4 3.4l-14-43.3z" fill="#FFFBE8"/><path d="M188.6 181.4s-20.6 0-20.6 12.4c.1 17.2 13.4 105.6 13 120-.2 9.3 19 13.6 19 13.6" fill="#F9A035"/><path d="M200.2 93.3s9.7 50.2 11.6 48.4c2-1.8 10.8-8 10.8-8L209 93.3h-9z" fill="#FFB564"/><path d="M184 123.6s-13 24.6-11 22.8 27-2.4 27-2.4l-16-20.4z" fill="#FFFBE8"/><path d="M258 92.8l-4.4 6.3c-1.2 2-3 2.3-4.6 2-1.7 3.4-3.5 6.7-5.7 9.8-6.2 22.4-.7 41.7-8.7 63.8-1.3 3.5.3.3 2.2 2.5 5.6-3 31 3.5 38.7 4.2 1.7-2.3-9-3.3-10.3-6.6 1.4 4 .2-5.2.2-6 .3-2.6 0-5.5.3-8 .7-4.6-1.4-6.4-.8-11 2-14.5 3.4-29.4 3-44-2.2-4-4-8-5.6-12-1.2-.4-2.8-.6-4.3-.5z" fill="#F25F68"/><g stroke-miterlimit="10" stroke="#AF3A46"><path d="M238 171l7.2-62 15.2-22 7.3 24-2.6 64m-85 7.6l-6.4-38.4 10.3-20.4 16 15.6 6.5 37m11.6-1.4s-4.5-16.5-9-36.4c-4.8-21.3-9.7-43.8-9-45 1.3-2.6 5.4-4.8 9 0 2 2.7 8 21.6 13.5 40.5l12 40.8" fill="none" stroke-width="4.976" stroke-linecap="square" stroke-linejoin="round"/><path d="M200.2 93.3c-11.6-12.2-10.4-19.2-6.6-23 6.6-6.6-2.8-16.6-1-16.8 6.6-.6 28.6 9.6 17.3 37" fill="#AF3A46" stroke-width="2.488"/><g stroke-linecap="round" stroke-linejoin="round" stroke-width="4.976"><path d="M245.2 109s11.3-4.8 22.5 2" fill="none"/><path d="M200 139.2c0 4.7-12.2 4.7-12.2 4.7-3.2 5.3-14 0-14 0" fill="#FFFBE8"/></g></g><path d="M191 130.3c3.4 3.3-12 3.5-12 3.5l5-10.2 7 6.7z" fill="#AF3A46"/><g stroke-linecap="round" stroke-miterlimit="10" stroke-linejoin="round" stroke="#AF3A46" fill="none"><path d="M211.8 141.6c7.7 0 11.4-6 11.4-6M169 188.8c44-21.5 94.3-16.6 119.8-1L277 322s-40 23.2-95.2-1l-12.8-132z" stroke-width="4.976"/><path d="M255.7 270.4l-2.2-32.6-24.4-19-24 17.7c.3 11.8 1.4 22.8 1.7 34.6-.1 0 29.3 4.7 49-.8z" stroke-width="4.823"/><path d="M229.5 219v27" stroke-width="5"/><path d="M233.2 240.8c-1.5 0-3 .3-6.8.4 0 0-1-1-.1 6l7 .2c0 .1 0-4.8 0-6.5z" stroke-width="3.858"/></g></svg>