<?xml version="1.0" standalone="no"?>
<!DOCTYPE svg PUBLIC "-//W3C//DTD SVG 20010904//EN"
 "http://www.w3.org/TR/2001/REC-SVG-20010904/DTD/svg10.dtd">
<svg version="1.0" xmlns="http://www.w3.org/2000/svg"
 width="296.000000pt" height="296.000000pt" viewBox="0 0 296.000000 296.000000"
 preserveAspectRatio="xMidYMid meet">
<metadata>
Created by potrace 1.11, written by Peter Selinger 2001-2013
</metadata>
<g transform="translate(0.000000,296.000000) scale(0.100000,-0.100000)"
fill="#000000" stroke="none">
<path d="M2508 2955 c-2 -1 -34 -5 -73 -8 -251 -22 -567 -114 -785 -229 -105
-56 -255 -157 -355 -239 -81 -67 -89 -71 -143 -74 -163 -11 -282 -39 -430
-103 -130 -56 -252 -142 -369 -258 -176 -176 -285 -376 -329 -604 -2 -14 -7
-31 -10 -39 -7 -21 -17 -231 -10 -231 3 0 12 12 20 28 16 28 99 117 154 165
102 87 267 160 412 182 l38 6 -25 -78 c-49 -153 -80 -294 -96 -445 -2 -17 -20
-44 -47 -70 -90 -86 -146 -174 -184 -289 -32 -97 -35 -119 -42 -288 l-6 -143
149 5 c150 6 237 18 273 37 11 6 20 9 20 6 0 -8 123 55 169 87 26 17 70 55
100 85 53 53 56 54 120 59 73 5 340 63 428 94 31 10 58 19 60 19 7 0 -6 -79
-21 -135 -27 -100 -67 -184 -129 -275 -39 -56 -161 -176 -199 -196 -15 -8 -28
-17 -28 -21 0 -6 198 3 220 11 8 3 31 7 50 10 133 20 297 87 428 173 326 216
527 568 545 956 3 54 8 73 28 95 13 15 58 73 100 129 105 139 172 254 252 433
34 77 98 286 114 370 2 14 8 43 13 65 5 22 12 67 15 100 4 33 10 65 13 70 10
16 11 511 1 526 -7 11 -53 14 -223 16 -118 0 -216 0 -218 -2z"/>
</g>
</svg>
