<svg version="1" xmlns="http://www.w3.org/2000/svg" width="701.333" height="701.333" viewBox="0 0 526.000000 526.000000"><path d="M453.8.5c-.1.2-4.8.6-10.3.9-5.5.3-11.1.8-12.5 1-1.4.3-5 .7-8.1 1.1-3.1.3-6.5.7-7.5.9-1.1.2-3.9.7-6.4 1-14.7 2.2-52 11-53 12.5-.3.4-5.4 2.4-11.5 4.5-6 2-11.9 4.1-13 4.6-1.1.5-6 2.5-11 4.5-13.6 5.6-46.8 22.6-52 26.7-.5.5-4.6 3.1-9 5.9-7.7 5-29.3 20.8-32.6 23.9-.8.8-2.9 2.6-4.5 3.9-1.6 1.3-3.7 3.1-4.7 3.9-1 .9-4.1 1.6-7.5 1.8-11.6.5-26.2 1.9-31.2 3-1.4.3-3.6.8-5 1-28.3 5.1-62.9 20.4-87 38.5-17.7 13.4-41.8 38.9-53.1 56.4-13.8 21.2-25.5 50.2-29.4 72.4-.3 1.9-.7 3.7-.9 4-.2.3-.7 3.5-1.1 7.1-.4 3.6-.9 6.8-1.2 7.2C.6 288.5.2 318 .9 318c.4 0 1.3-1.2 2-2.6 3-6.7 16.3-21.4 28.6-31.7 17.8-15 42.9-27 65.3-31.3 7.5-1.5 15.2-2.5 15.2-2.1 0 .1-2.1 6.3-4.6 13.7-4.9 14.7-11.8 40.6-12.8 48.5-.4 2.7-1.1 6.6-1.6 8.5-.5 1.9-1.4 7.8-2 13-.6 5.2-1.3 11-1.6 12.8-.3 2.6-2.5 5.4-9.4 12.3-16.3 16.4-27.1 35.1-32.9 57.4-1.9 7-2.3 9.6-3.6 19.2-.2 2.1-.7 13.8-1.1 26.1l-.5 22.4 21.8-.6c25.7-.7 31.1-1.2 41.8-3.6 25-5.7 44.9-17.2 64.1-36.7 6.3-6.5 8.7-8.3 11-8.4 1.6-.1 4-.2 5.4-.4 9.5-1 14.8-1.9 16.6-2.6 1.2-.4 2.4-.5 2.7-.2 1.3 1.3 42.2-8.6 59-14.3 5.5-1.9 10.5-3.4 10.9-3.4 1.7 0-2.1 19.9-5.8 30.8-11.2 32.4-28.4 56.1-54.6 75.5-3.8 2.7-6.8 5.1-6.8 5.3 0 .5 26.9-.4 29.5-1 1.1-.2 4.9-.7 8.5-1.1 9.3-1 34.9-7.7 46-12 65.8-25.8 113.4-79.5 131-148 1.5-6.1 3.1-13.2 3.5-15.9.3-2.7.8-5.2 1-5.6.4-.6 1.6-17.1 2-27 .2-3 .3-5.8.4-6.1.1-.6 1.2-1.9 6.4-7.9 4.1-4.6 15.3-19.4 20.9-27.5 18.8-27.1 36.8-62.7 46.8-93 1.8-5.5 3.6-10.2 4-10.5 1.4-1 9.8-35.2 11.5-47 .4-2.5 1.1-6.8 1.6-9.5.5-2.8 1.2-7.5 1.5-10.5.3-3 .7-6.6.9-7.9 1.4-8.2 2-26 1.8-57.4-.1-19.8-.4-36.1-.6-36.4-.5-.5-70.3-1.3-70.9-.8z"/></svg>